<svg
	viewBox="0 0 960 960"
	version="1.1"
	xmlns="http://www.w3.org/2000/svg"
	xmlns:xlink="http://www.w3.org/1999/xlink"
	xml:space="preserve"
>
    <style>
        path {
            fill: #273240;
        }
        @media (prefers-color-scheme: dark) {
            path { fill: #ffffff; }
        }
    </style>
	<path
		id="outline"
		d="M367.5 316.2c3.2 1.1 6.4 1.7 9.5 1.7 5.6 0 10.9-1.8 15.2-5.3a25 25 0 0 0 8.3-23.5 25.3 25.3 0 0 0-14.8-20.1l-2.4-.9a25.2 25.2 0 0 0-24.2 6.1c-7 6.3-10.2 15.1-8.5 23.5s8 15.3 16.9 18.5zm1.7-30.8a12 12 0 0 1 7.5-3.2c1.6 0 2.8.5 3.2.7 3.7 1.8 5.2 5.3 5.7 8.4.5 3.1-.1 7.3-3 9.7-2.9 2.4-7.2 2.1-10.1 1-3-1.1-6.4-3.5-7.2-7.2-.7-3.7 1.6-7.3 3.9-9.4zm457.7 457.2c-3.8-1.5-7.9-3.2-12.1-5.1.7-7.8.5-15.6-.6-23.2-2.5-17.1-10.6-29.1-22.2-33.1-14.4-4.9-28.8 4-36.5 8.8l-12.1 7.5-.5.3a126.4 126.4 0 0 1-22.7-19.1c-4.4-5-10.7-14.3-18-26.6l21.1-32.4c7.8-12 15.7-27.7 7.6-41.8-4.4-7.8-14.9-16.5-39.7-14a217 217 0 0 0-32.8 5.9c-9.3-19-18.5-38.7-26.9-57.8l34.4-39.9 1.3-1.6c5.9-6.9 16.9-19.6 13.9-34.6a31 31 0 0 0-22.2-22.3c-9.4-2.9-19-2.3-27.5-1.7l-35.2 2.2-.4-2.7-.8-6.1c-1.6-11.9-3.2-24.2-5.2-36.4 18.3-14.5 33.6-32 45.7-51.9 10.5-17.3 12-32.2 4.3-43.2-6.9-9.8-19.3-13.9-37.7-12.4a220.3 220.3 0 0 0-46.3 8.9c-4.3-6.3-9.1-12.2-14.6-17.7a258.7 258.7 0 0 0-25.7-22.9c1-16.7.6-33.4-1.3-49.9-.7-6.1-2.8-24.7-17.4-31.1-9-3.9-19.7-1.9-31.8 6a132.6 132.6 0 0 0-39.5 40.1 388.5 388.5 0 0 0-73.4-1.6l-4.4-7.5-12.6-21.5a84.6 84.6 0 0 0-14.9-20.3 33.6 33.6 0 0 0-27.1-9.6c-14.2 2-24.7 14.1-31.3 35.8-5.1 16.7-9 33.9-11.7 51.2a174.4 174.4 0 0 0-75 76.8 137.3 137.3 0 0 0-13 86c10.2 53.5 66.9 87.6 121.1 95.8-18 42.1-37.7 121.9-33.6 181.8l-13.5-.1c-2.4-24.6-17.3-39.9-41.8-42.3-17-1.7-39.9 7.7-52.8 32.3-9.5 18-10.1 39.7-10.7 58.8v.9c-.5 18.1 4.4 64.3 12.8 82.5 12 26 32.4 32.2 52.2 32.2 10.6 0 21.1-1.8 30-3.3 6.7-1.2 13-2.3 17.8-2.3 28.2-.5 69.9-1.9 118.3-3.5 140-4.6 331.7-11 451.3-5.6 19.1.9 51.7-.9 56.2-22 3.3-16.5-13.7-35.2-42.5-46.7zm-63.7-39.8c7.8-4.8 16.7-9.8 23.8-7.4 2.3.8 9.8 4.6 12.2 21 .7 4.7.9 9.4.8 14.2-14.3-7-29.7-15.3-43.4-23.8l6.6-4zm-70.5-124c7.6-.8 20.9-1 25.1 6.5 2 3.5 3.4 9.9-7.2 26.2l-16.9 26c-8.8-15.6-18.6-34.2-28.6-54a199 199 0 0 1 27.6-4.7zm-60.5-151.9a63 63 0 0 1 22.2 1.1c5.1 1.6 10.8 5.5 11.9 10.9 1.4 7.1-4.7 15-10.5 21.8l-1.3 1.6-29.6 34.4a616.6 616.6 0 0 1-25.2-67.8l32.5-2zm-29.1-150.6c12.5-1 20.7 1 24.2 6.1 5.3 7.6-.8 20-4.9 26.8a183.6 183.6 0 0 1-36 42.7 241 241 0 0 0-22.8-68.3 199 199 0 0 1 39.5-7.3zM473 167.3c5.2-3.4 12.5-7 17.6-4.8 4.5 2 7.3 8.2 8.5 19.1 1.4 12.6 2 25.3 1.6 38-7.8-4.9-15.8-8.9-24.1-12.3a174 174 0 0 0-34.9-10 117.4 117.4 0 0 1 31.3-30zm-197.1 7.2c4.8-15.7 11.2-24.2 19.1-25.4 4.6-.7 10.2 1.5 14.8 5.8a71.4 71.4 0 0 1 12.1 16.8l12.6 21.5 1 1.7a258.7 258.7 0 0 0-69.1 18.4 343 343 0 0 1 9.5-38.8zM854.5 786c-.9 4.4-10.6 11.5-40.9 10.1-120.3-5.4-312.3 1-452.5 5.6-48.3 1.6-89.9 3-118 3.5-5.9.1-12.8 1.3-20.1 2.6-29.7 5.1-53.4 6.9-66-20.4-6.8-14.8-12-57.7-11.4-75.8v-.9c.5-18.3 1.1-37.2 8.9-52.2 6.8-12.9 21.6-26 38.1-24.3 19 1.9 28.6 13.5 28.6 34.7 0 4 3.2 7.4 7.3 7.5 18.7.6 34.4.2 49.6-.2 14.5-.4 29.5-.7 46.9-.2h.2a7.5 7.5 0 0 0 .2-15c-17.8-.5-33-.1-47.7.2l-13.4.3c-4.6-64.2 20.3-151.9 36.4-184.5 3.5-6.2 2-10.1-6.1-10.8a169.6 169.6 0 0 1-74.1-25.3c-17-11-38.5-30.3-44-59.7a122 122 0 0 1 11.7-76.6A159 159 0 0 1 241 244c40-27.1 94.4-39.7 157.3-36.5 11 .6 20.7 1.4 29.6 2.6h.3c16.6 2.3 30.2 5.8 42.7 10.9a148 148 0 0 1 31.9 18l.2.1c8.9 6.5 17.9 14.4 27.3 23.9 35.1 35.3 42.8 93.1 49.6 144l.8 6.1a102.4 102.4 0 0 0 2.1 10.6c12.4 52.8 68 169.9 103.6 230.8.2.6.6 1.1 1 1.7a220.8 220.8 0 0 0 21.5 32.1c6.8 7.7 17.2 16 29.3 24.1l.6.4a492.5 492.5 0 0 0 82.6 43.4c24.7 10.2 34.4 23.8 33.1 29.8zM468.7 546.9a153.6 153.6 0 0 1-41 45.2 80 80 0 0 1-44.1 14.2 59 59 0 0 1-18.4-2.8c-23.3-7.4-39-31-35.1-52.7 3.2-17.8 17.3-30.5 29.3-39.5l5.8-4.3c10-7.4 19.5-14.3 25.2-23.7a7.5 7.5 0 0 1 12.8 7.8c-7.3 12-18.4 20.2-29.2 28.1l-5.6 4.2c-9.7 7.4-21.2 17.4-23.5 30.2-2.6 14.3 8.8 30.7 24.8 35.7a58.9 58.9 0 0 0 49.6-9.6c16-10.8 27.6-26.8 36.8-41a7.5 7.5 0 0 1 10.4-2.2c3.5 2.3 4.4 7 2.2 10.4z"
	/>
</svg>
