<?xml version="1.0" encoding="utf-8"?>

<!DOCTYPE svg PUBLIC "-//W3C//DTD SVG 1.1//EN" "http://www.w3.org/Graphics/SVG/1.1/DTD/svg11.dtd">
<!-- Uploaded to: SVG Repo, www.svgrepo.com, Generator: SVG Repo Mixer Tools -->
<svg height="800px" width="800px" version="1.1" id="_x32_" xmlns="http://www.w3.org/2000/svg" xmlns:xlink="http://www.w3.org/1999/xlink" 
	 viewBox="0 0 512 512"  xml:space="preserve">
<style type="text/css">
	:root { color-scheme: dark light; }
</style>
<g>
	<path fill="currentColor" d="M512,255.993l-63.304-51.63l28.999-76.354l-80.636-13.07l-13.062-80.635l-76.368,29.006L256,0.013l-7.862,9.64
		l-43.78,53.658L128.01,34.305l-13.076,80.635l-80.622,13.07l28.992,76.354L0,255.993l63.304,51.636l-28.992,76.36l80.622,13.076
		l13.069,80.629l76.354-29L256,511.987l51.629-63.292l76.368,29l13.062-80.629l80.642-13.076l-29.006-76.36L512,255.993z
		 M449.884,367.935l-70.519,11.437l-11.424,70.514l-66.787-25.366L256,479.882l-45.168-55.363l-66.773,25.366l-11.431-70.514
		l-70.514-11.43l25.359-66.794L32.118,256l55.356-45.155l-25.359-66.78l70.514-11.43l11.431-70.514l66.773,25.359L256,32.125
		l45.154,55.356l66.787-25.366l11.424,70.52l70.519,11.43l-25.358,66.78L479.882,256l-55.356,45.148L449.884,367.935z"/>
	<path fill="currentColor" d="M265.607,154.499c-15.659,0-25.907,7.612-30.01,20.344c-1.454,4.394-2.194,8.933-2.194,31.041
		c0,22.095,0.74,26.641,2.194,31.028c4.103,12.739,14.351,20.35,30.01,20.35c15.66,0,25.914-7.612,30.011-20.35
		c1.466-4.388,2.194-8.933,2.194-31.028c0-22.108-0.727-26.647-2.194-31.041C291.521,162.11,281.266,154.499,265.607,154.499z
		 M275.716,233.251c-1.467,4.546-4.982,6.74-10.109,6.74c-5.272,0-8.629-2.194-10.096-6.74c-0.879-2.629-1.176-5.563-1.176-27.367
		c0-21.81,0.297-24.744,1.176-27.374c1.467-4.545,4.824-6.74,10.096-6.74c5.127,0,8.642,2.194,10.109,6.74
		c0.873,2.63,1.163,5.564,1.163,27.374C276.879,227.688,276.589,230.621,275.716,233.251z"/>
	<path fill="currentColor" d="M191.347,282.37c-14.516,0-25.98,6.713-30.248,20.126c-1.83,5.736-2.32,10.374-2.32,22.696
		c0,12.322,0.489,16.961,2.32,22.689c4.268,13.42,15.732,20.126,30.248,20.126c14.523,0,25.986-6.706,30.255-20.126
		c1.83-5.728,2.319-10.367,2.319-22.689c0-12.323-0.489-16.961-2.319-22.696C217.334,289.083,205.87,282.37,191.347,282.37z
		 M204.404,342.999c-1.83,5.735-6.224,9.151-13.056,9.151c-6.825,0-11.219-3.416-13.049-9.151
		c-0.978-2.921-1.341-6.951-1.341-17.807c0-10.856,0.364-14.886,1.341-17.813c1.83-5.729,6.224-9.145,13.049-9.145
		c6.832,0,11.226,3.416,13.056,9.145c0.978,2.927,1.348,6.957,1.348,17.813C205.751,336.047,205.381,340.078,204.404,342.999z"/>
	<path fill="currentColor" d="M188.546,257.262c14.206,0,25.478-6.436,29.422-18.586c1.321-4.103,2.207-9.231,2.207-15.52
		c0-8.345-0.74-12.884-2.055-16.981c-3.66-11.126-12.878-16.835-25.616-16.835c-7.466,0-12.442,2.491-14.932,4.691h-0.436v-19.624
		c0-0.582,0.291-0.879,0.872-0.879h38.21c0.879,0,1.467-0.588,1.467-1.46v-14.496c0-0.872-0.588-1.46-1.467-1.46H160.59
		c-0.879,0-1.467,0.588-1.467,1.46v54.748c0,0.879,0.588,1.467,1.467,1.467h15.666c1.018,0,1.467-0.436,1.903-1.467
		c1.467-2.92,4.685-5.709,10.096-5.709c4.836,0,8.781,1.903,10.4,6.885c0.872,2.346,1.163,4.976,1.163,9.805
		c0,4.539-0.291,7.321-1.163,9.66c-1.467,4.684-5.425,7.03-10.4,7.03c-6.297,0-9.805-3.515-11.563-8.193
		c-0.297-0.886-0.886-1.328-1.751-1.176l-15.818,3.072c-0.879,0.146-1.315,0.879-1.169,1.612
		C159.712,248.335,171.572,257.262,188.546,257.262z"/>
	<path fill="currentColor" d="M291.865,283.717h-53.19c-0.733,0-1.222,0.489-1.222,1.216v80.51c0,0.733,0.488,1.222,1.222,1.222h15.495
		c0.726,0,1.216-0.489,1.216-1.222v-31.226c0-0.489,0.244-0.727,0.734-0.727h29.766c0.727,0,1.216-0.489,1.216-1.222v-12.937
		c0-0.727-0.489-1.216-1.216-1.216h-29.766c-0.489,0-0.734-0.238-0.734-0.727v-17.443c0-0.489,0.244-0.733,0.734-0.733h35.746
		c0.726,0,1.216-0.489,1.216-1.223v-13.056C293.08,284.207,292.591,283.717,291.865,283.717z"/>
	<path fill="currentColor" d="M325.694,256.35c0.694,1.077,1.883,1.724,3.158,1.724h2.312c1.46,0,2.788-0.846,3.396-2.174l27.42-59.637
		c0.529-1.15,0.436-2.505-0.251-3.581c-0.7-1.07-1.883-1.725-3.158-1.725h-2.319c-1.461,0-2.782,0.852-3.396,2.18l-27.42,59.638
		C324.921,253.925,325.007,255.28,325.694,256.35z"/>
	<path fill="currentColor" d="M362.331,283.717h-53.188c-0.734,0-1.223,0.489-1.223,1.216v80.51c0,0.733,0.489,1.222,1.223,1.222h15.494
		c0.734,0,1.216-0.489,1.216-1.222v-31.226c0-0.489,0.244-0.727,0.733-0.727h29.766c0.727,0,1.216-0.489,1.216-1.222v-12.937
		c0-0.727-0.489-1.216-1.216-1.216h-29.766c-0.489,0-0.733-0.238-0.733-0.727v-17.443c0-0.489,0.244-0.733,0.733-0.733h35.746
		c0.727,0,1.216-0.489,1.216-1.223v-13.056C363.547,284.207,363.058,283.717,362.331,283.717z"/>
	<path fill="currentColor" d="M321.148,227.086c6.066,0,10.611-3.032,12.217-7.77c0.66-1.89,0.858-0.575,0.858-6.535
		c0-5.967-0.198-4.645-0.858-6.548c-1.606-4.724-6.152-7.764-12.217-7.764c-6.059,0-10.598,3.039-12.21,7.764
		c-0.661,1.903-0.852,0.581-0.852,6.548c0,5.96,0.192,4.645,0.852,6.535C310.55,224.054,315.089,227.086,321.148,227.086z
		 M317.838,208.137c0.476-1.427,1.705-2.187,3.31-2.187c1.618,0,2.841,0.76,3.317,2.187c0.291,0.747,0.377-1.136,0.377,4.645
		c0,5.768-0.086,3.885-0.377,4.645c-0.476,1.42-1.698,2.174-3.317,2.174c-1.606,0-2.835-0.754-3.31-2.174
		c-0.284-0.76-0.376,1.123-0.376-4.645C317.461,207.001,317.553,208.883,317.838,208.137z"/>
	<path fill="currentColor" d="M366.263,221.953c-6.066,0-10.605,3.033-12.217,7.757c-0.654,1.903-0.853,0.575-0.853,6.541
		c0,5.966,0.198,4.652,0.853,6.535c1.612,4.737,6.151,7.776,12.217,7.776c6.059,0,10.611-3.039,12.217-7.776
		c0.661-1.883,0.852-0.568,0.852-6.535c0-5.966-0.192-4.638-0.852-6.541C376.874,224.985,372.322,221.953,366.263,221.953z
		 M369.573,240.902c-0.469,1.414-1.698,2.174-3.31,2.174c-1.612,0-2.842-0.76-3.317-2.174c-0.284-0.76-0.37,1.123-0.37-4.652
		c0-5.781,0.086-3.885,0.37-4.638c0.476-1.434,1.705-2.187,3.317-2.187c1.612,0,2.841,0.753,3.31,2.187
		c0.291,0.753,0.384-1.143,0.384,4.638C369.956,242.025,369.864,240.143,369.573,240.902z"/>
</g>
</svg>