<?xml version="1.0" encoding="utf-8"?>

<!DOCTYPE svg PUBLIC "-//W3C//DTD SVG 1.1//EN" "http://www.w3.org/Graphics/SVG/1.1/DTD/svg11.dtd">
<!-- Uploaded to: SVG Repo, www.svgrepo.com, Generator: SVG Repo Mixer Tools -->
<svg height="800px" width="800px" version="1.1" id="_x32_" xmlns="http://www.w3.org/2000/svg" xmlns:xlink="http://www.w3.org/1999/xlink" 
	 viewBox="0 0 512 512"  xml:space="preserve">
<style type="text/css">
	:root { color-scheme: dark light; }
</style>
<g>
	<path fill="currentColor" d="M412.174,352.363c-12.528,3.75-24.842,10.263-37.216,22.584l-0.015,0.015
		c-16.126,16.24-22.454,32.372-25.255,49.025c-2.762,16.645-1.392,33.688-1.102,49.997c0.03,2.724,0.038,5.449-0.023,8.15
		l133.583-133.59c-4.248,0.1-8.518,0.038-12.834-0.069C450.532,347.916,430.932,346.769,412.174,352.363z"/>
	<path fill="currentColor" d="M354.823,212.688c-0.628-1.875-2.227-2.87-4.347-2.87c-2.112,0-3.719,0.994-4.331,2.87
		c-0.383,0.972-0.498-1.492-0.498,6.084c0,7.569,0.114,5.096,0.498,6.092c0.612,1.867,2.219,2.862,4.331,2.862
		c2.12,0,3.719-0.994,4.347-2.862c0.383-0.996,0.49,1.477,0.49-6.092C355.313,211.196,355.206,213.66,354.823,212.688z"/>
	<path fill="currentColor" d="M277.642,164.988c-6.925,0-11.326,2.878-13.247,8.839c-1.148,3.451-1.546,7.294-1.546,35.9
		c0,28.599,0.397,32.449,1.546,35.892c1.921,5.97,6.322,8.847,13.247,8.847c6.712,0,11.327-2.877,13.256-8.847
		c1.14-3.443,1.515-7.293,1.515-35.892c0-28.607-0.375-32.449-1.515-35.9C288.97,167.865,284.355,164.988,277.642,164.988z"/>
	<path fill="currentColor" d="M413.989,243.476c-0.62-1.89-2.235-2.878-4.347-2.878s-3.719,0.987-4.347,2.878
		c-0.374,0.995-0.482-1.5-0.482,6.091c0,7.562,0.107,5.097,0.482,6.084c0.628,1.868,2.235,2.847,4.347,2.847s3.727-0.98,4.347-2.847
		c0.374-0.987,0.504,1.477,0.504-6.084C414.493,241.976,414.363,244.472,413.989,243.476z"/>
	<path fill="currentColor" d="M256.008,0.004C114.619,0.004,0.008,114.608,0,255.989c0.008,141.396,114.619,256.007,256.008,256.007
		c21.168,0,41.67-2.74,61.346-7.591c2.534-2.793,4.141-6.245,5.174-11.816c1.064-5.839,1.148-13.622,0.888-22.607
		c-0.429-17.984-2.204-40.775,4.898-64.928c4.729-16.087,13.645-32.617,28.898-47.824c0,0,0.007-0.008,0.015-0.015
		c19.952-20.066,42.214-28.997,62.709-32.281c20.525-3.329,39.428-1.614,54.443-1.431c9.995,0.199,18.138-0.413,23.418-2.303
		c2.786-0.988,4.798-2.227,6.62-3.888c4.845-19.66,7.584-40.163,7.584-61.323C512,114.608,397.389,0.004,256.008,0.004z
		 M193.598,372.138c-3.758,11.8-13.836,17.694-26.61,17.694c-12.773,0-22.844-5.893-26.594-17.694
		c-1.615-5.051-2.051-9.122-2.051-19.951c0-10.844,0.436-14.916,2.051-19.967c3.75-11.793,13.821-17.694,26.594-17.694
		c12.773,0,22.852,5.9,26.61,17.694c1.607,5.052,2.036,9.123,2.036,19.967C195.634,363.016,195.205,367.087,193.598,372.138z
		 M176.578,277.111c-22.27,0-37.821-11.702-40.125-28.79c-0.191-0.957,0.375-1.936,1.538-2.12l20.732-4.026
		c1.141-0.199,1.906,0.374,2.304,1.546c2.311,6.122,6.902,10.744,15.161,10.744c6.528,0,11.724-3.076,13.645-9.229
		c1.148-3.061,1.523-6.704,1.523-12.666c0-6.337-0.375-9.78-1.523-12.857c-2.128-6.536-7.294-9.031-13.645-9.031
		c-7.094,0-11.311,3.658-13.24,7.492c-0.574,1.347-1.163,1.921-2.487,1.921h-20.548c-1.156,0-1.921-0.773-1.921-1.921v-71.8
		c0-1.148,0.766-1.921,1.921-1.921h72.948c1.156,0,1.922,0.772,1.922,1.921v19.01c0,1.132-0.766,1.913-1.922,1.913h-50.104
		c-0.766,0-1.148,0.382-1.148,1.148v25.737h0.574c3.261-2.885,9.789-6.153,19.577-6.153c16.714,0,28.798,7.485,33.604,22.087
		c1.714,5.372,2.686,11.318,2.686,22.262c0,8.25-1.164,14.984-2.894,20.356C209.983,268.67,195.205,277.111,176.578,277.111z
		 M256.452,328.256c0,0.642-0.428,1.079-1.064,1.079H223.95c-0.428,0-0.65,0.206-0.65,0.65v15.336c0,0.436,0.222,0.642,0.65,0.642
		h26.181c0.636,0,1.064,0.421,1.064,1.056v11.38c0,0.65-0.428,1.079-1.064,1.079H223.95c-0.428,0-0.65,0.207-0.65,0.643v27.459
		c0,0.65-0.421,1.071-1.056,1.071h-13.637c-0.636,0-1.064-0.421-1.064-1.071v-70.806c0-0.642,0.429-1.063,1.064-1.063h46.782
		c0.636,0,1.064,0.421,1.064,1.063V328.256z M318.425,328.256c0,0.642-0.428,1.079-1.063,1.079h-31.438
		c-0.429,0-0.65,0.206-0.65,0.65v15.336c0,0.436,0.222,0.642,0.65,0.642h26.181c0.635,0,1.064,0.421,1.064,1.056v11.38
		c0,0.65-0.429,1.079-1.064,1.079h-26.181c-0.429,0-0.65,0.207-0.65,0.643v27.459c0,0.65-0.421,1.071-1.064,1.071h-13.63
		c-0.643,0-1.064-0.421-1.064-1.071v-70.806c0-0.642,0.421-1.063,1.064-1.063h46.783c0.636,0,1.063,0.421,1.063,1.063V328.256z
		 M316.994,250.425c-5.372,16.699-18.826,26.686-39.352,26.686c-20.54,0-33.987-9.987-39.366-26.686
		c-1.906-5.755-2.878-11.717-2.878-40.698c0-28.99,0.972-34.936,2.878-40.699c5.38-16.706,18.827-26.693,39.366-26.693
		c20.526,0,33.98,9.987,39.352,26.693c1.928,5.763,2.878,11.709,2.878,40.699C319.872,238.708,318.923,244.67,316.994,250.425z
		 M334.466,227.352c-0.872-2.487-1.117-0.758-1.117-8.579c0-7.822,0.245-6.084,1.117-8.587c2.105-6.199,8.066-10.187,16.01-10.187
		c7.959,0,13.913,3.988,16.025,10.187c0.865,2.502,1.118,0.765,1.118,8.587c0,7.821-0.252,6.092-1.118,8.579
		c-2.112,6.207-8.066,10.194-16.025,10.194C342.532,237.546,336.571,233.558,334.466,227.352z M363.609,278.182h-3.03
		c-1.668,0-3.23-0.849-4.141-2.266c-0.902-1.392-1.017-3.183-0.336-4.691l35.961-78.214c0.804-1.736,2.542-2.854,4.446-2.854h3.046
		c1.683,0,3.222,0.857,4.148,2.258c0.903,1.423,1.025,3.199,0.322,4.691l-35.954,78.222
		C367.267,277.073,365.53,278.182,363.609,278.182z M425.667,258.124c-2.104,6.222-8.074,10.21-16.025,10.21
		c-7.944,0-13.898-3.987-16.025-10.21c-0.857-2.472-1.11-0.742-1.11-8.556c0-7.836,0.252-6.091,1.11-8.586
		c2.128-6.199,8.081-10.178,16.025-10.178c7.951,0,13.921,3.98,16.025,10.178c0.872,2.495,1.118,0.75,1.118,8.586
		C426.784,257.382,426.539,255.652,425.667,258.124z"/>
	<path fill="currentColor" d="M166.988,328.47c-6.007,0-9.872,3.008-11.471,8.05c-0.865,2.572-1.178,6.107-1.178,15.666
		c0,9.536,0.313,13.086,1.178,15.658c1.6,5.044,5.464,8.044,11.471,8.044c6.008,0,9.873-3,11.488-8.044
		c0.856-2.571,1.178-6.122,1.178-15.658c0-9.559-0.321-13.094-1.178-15.666C176.861,331.478,172.996,328.47,166.988,328.47z"/>
</g>
</svg>