<?xml version="1.0" encoding="utf-8"?>

<!DOCTYPE svg PUBLIC "-//W3C//DTD SVG 1.1//EN" "http://www.w3.org/Graphics/SVG/1.1/DTD/svg11.dtd">
<!-- Uploaded to: SVG Repo, www.svgrepo.com, Generator: SVG Repo Mixer Tools -->
<svg height="800px" width="800px" version="1.1" id="_x32_" xmlns="http://www.w3.org/2000/svg" xmlns:xlink="http://www.w3.org/1999/xlink" 
	 viewBox="0 0 512 512"  xml:space="preserve">
<style type="text/css">
	:root { color-scheme: dark light; }
</style>
<g>
	<path fill="currentColor" d="M146.554,116.642c0,11.405-9.239,20.644-20.627,20.644c-11.405,0-20.644-9.239-20.644-20.644H0v278.717
		h105.283c0-11.405,9.239-20.644,20.644-20.644c11.388,0,20.627,9.239,20.627,20.644H512V116.642H146.554z M125.927,346.329
		c-11.405,0-20.644-9.247-20.644-20.652c0-11.405,9.239-20.644,20.644-20.644c11.388,0,20.627,9.239,20.627,20.644
		C146.554,337.082,137.315,346.329,125.927,346.329z M125.927,276.648c-11.405,0-20.644-9.239-20.644-20.644
		c0-11.397,9.239-20.652,20.644-20.652c11.388,0,20.627,9.256,20.627,20.652C146.554,267.41,137.315,276.648,125.927,276.648z
		 M125.927,206.967c-11.405,0-20.644-9.239-20.644-20.644c0-11.396,9.239-20.644,20.644-20.644c11.388,0,20.627,9.248,20.627,20.644
		C146.554,197.728,137.315,206.967,125.927,206.967z M419.34,274.542c-0.906,0.71-2.115,1.024-3.317,0.846
		c0,0-42.37-6.244-55.323-8.25c-0.516,22.911-1.116,35.645-1.116,35.645l14.34,6.752c1.684,0.668,2.792,2.292,2.792,4.103v2.648
		c0,1.21-0.499,2.377-1.379,3.206c-0.888,0.838-2.081,1.286-3.274,1.218l-18.131-1.032c-0.575,4.027-2.462,6.988-4.73,6.988
		c-2.267,0-4.154-2.961-4.746-6.988l-18.106,1.032c-1.21,0.068-2.394-0.38-3.283-1.218c-0.879-0.829-1.387-1.997-1.387-3.206v-2.648
		c0-1.811,1.108-3.435,2.809-4.103l14.332-6.752c0,0-0.618-12.734-1.134-35.645c-12.953,2.006-55.315,8.25-55.315,8.25
		c-1.185,0.178-2.403-0.136-3.308-0.846c-0.906-0.719-1.421-1.76-1.379-2.842l0.262-7.183c0.11-3.029,2.073-5.77,5.102-7.099
		l54.164-20.686c0.068-30.348,3.783-51.288,11.989-51.288c8.198,0,11.912,20.94,11.972,51.288l54.189,20.686
		c3.012,1.329,4.983,4.07,5.077,7.099l0.262,7.183C420.753,272.782,420.236,273.822,419.34,274.542z"/>
</g>
</svg>