<?xml version="1.0" encoding="utf-8"?>

<!DOCTYPE svg PUBLIC "-//W3C//DTD SVG 1.1//EN" "http://www.w3.org/Graphics/SVG/1.1/DTD/svg11.dtd">
<!-- Uploaded to: SVG Repo, www.svgrepo.com, Generator: SVG Repo Mixer Tools -->
<svg height="800px" width="800px" version="1.1" id="_x32_" xmlns="http://www.w3.org/2000/svg" xmlns:xlink="http://www.w3.org/1999/xlink" 
	 viewBox="0 0 512 512"  xml:space="preserve">
<style type="text/css">
	:root { color-scheme: dark light; }
</style>
<g>
	<path fill="currentColor" d="M470.133,467.371c-29.026-32.38-20.059-76.93-8.706-133.326c7.294-36.281,15.572-77.406,15.572-123.63
		C476.999,92.422,381.833,0,260.336,0C192.42,0,122.412,20.74,68.267,56.91c-4.186,2.791-8.047,8.072-7.23,13.558
		c0.468,3.204,2.695,7.516,10.6,9.919c21.708,6.581,52.868,20.662,77.795,50.204l15.714,23.365c0.547,1.888,1.047,3.909,1.515,6.074
		c0.832,3.861,1.736,8.016,2.902,12.202c-4.956,3.481-13.471,9.76-23.564,18.434l-9.149-8.396
		c-4.559-4.202-9.776-8.69-14.707-12.916c-4.789-4.115-9.292-7.984-12.607-11.107l-9.165-8.603L25.35,406.321l47.159,2.41
		l30.572-95.222h53.621l-9.8,29.391l-45.36-1.268l-42.56,161.33l8.832,0.991c0.238,0.024,26.767,2.958,58.64,2.958
		c27.988-0.008,51.456-2.212,69.755-6.557c11.948-2.846,21.455-6.494,29.05-11.148c9.182-5.622,15.286-12.694,18.14-21.026
		c5.598-16.357,11.56-34.791,17.728-54.866c8.674,12.265,18.283,22.675,28.606,30.968c19.671,15.842,41.498,23.873,64.911,23.873
		c2.109,0,4.242-0.071,6.795-0.222l0.245-0.024c4.393-0.111,8.381-1.221,11.576-3.227c5.32-3.322,7.802-8.317,8.952-11.917
		c0.919-2.878,1.388-5.954,1.403-9.22l-0.04-1.348l-0.19-2.704l-2.117-2.292c-0.333-0.364-8.166-8.99-15.762-20.272
		c-8.412-12.376-13.669-24.182-14.422-32.396c-0.191-1.919-0.286-3.742-0.286-5.454c0.024-10.014,3.124-17.824,8.515-21.439
		l0.77-0.515l19.282-2.554c8.65,6.938,14.334,23.199,17.839,51.012c8.754,69.414,37.01,87.372,57.648,100.478l0.912,0.579
		c5.432,3.457,11.283,5.359,16.484,5.359c6.279,0,11.1-2.735,13.225-7.508C487.702,499.505,488.67,488.048,470.133,467.371z
		 M250.734,402.88c-5.304,17.442-12.202,39.404-19.623,61.105c-1.863,5.439-6.073,10.101-12.638,14.145
		c-9.799,6.049-24.594,10.164-41.022,12.558c-16.412,2.427-34.458,3.236-50.997,3.236c-15.667,0-29.986-0.722-40.372-1.444
		c-4.321-0.301-7.913-0.586-10.68-0.84l36.067-136.735l44.701,1.244l18.552-55.626H93.599l-30.414,94.73l-20.756-1.07
		l64.538-220.778c6.652,5.812,14.652,12.48,21.074,18.418c12.115,11.163,25.236,23.112,37.383,33.839
		c12.154,10.728,23.27,20.209,31.746,26.696c6.018,4.606,14.145,10.505,23.024,16.824c18.862,13.431,40.959,28.638,52.337,36.44
		L250.734,402.88z M359.99,329.564c-3.219,7.302-6.43,13.463-9.095,18.22c-8.206,6.216-13.105,17.236-13.082,31.286
		c0,2.172,0.111,4.424,0.349,6.746c1.514,14.288,10.092,28.963,18.084,40.587c5.994,8.626,11.758,15.397,14.343,18.339
		c-0.111,1.625-0.508,4.115-1.562,6.002c-0.658,1.221-1.474,2.188-2.632,2.91c-1.173,0.714-2.79,1.301-5.494,1.308h-0.166
		l-0.167,0.016c-2.014,0.126-3.988,0.19-5.922,0.19c-23.017-0.016-41.728-8.943-56.768-21.003
		c-15.001-12.052-26.125-27.25-33.292-39.127l-1.475,0.888l21.28-94.976l-2.95-2.022c-10.116-6.914-34.663-23.778-55.127-38.343
		c-8.824-6.287-16.895-12.147-22.731-16.618c-8.087-6.185-19.116-15.572-31.174-26.22c-6.034-5.328-12.322-10.966-18.601-16.674
		c7.002-6.05,13.352-11.022,18.172-14.581c2.926-2.164,5.297-3.83,6.922-4.948c0.817-0.564,1.443-0.975,1.863-1.261l0.61-0.396
		l3.591-2.315l-1.506-3.988c-1.808-4.742-2.855-10.473-4.108-16.301c-0.8-3.639-1.712-7.318-3.052-10.886
		c17.212-4.329,35.258-5.638,58.186-5.638l0.524,0.008h0.048c22.707,0,46.001,3.933,67.551,14.414
		c21.565,10.513,41.649,27.417,58.449,54.881c5.264,8.642,8.841,17.451,11.147,26.37c2.276,8.896,3.251,17.903,3.251,26.846v0.15
		C375.474,287.908,367.831,311.908,359.99,329.564z M380.247,338.524c-0.865,1.951-1.72,3.822-2.577,5.622l-13.835,1.832
		c1.863-3.624,3.83-7.658,5.811-12.147c8.206-18.537,16.349-43.742,16.372-70.397v-0.095v-0.055c0-9.712-1.07-19.615-3.592-29.47
		c-2.553-9.864-6.525-19.686-12.36-29.249c-17.721-29.042-39.532-47.555-62.842-58.877c-23.31-11.33-48.221-15.469-72.102-15.477
		h-0.635c-25.966,0-46.667,1.602-67.13,7.676l-0.317,0.095l-5.526-8.293c20.685-5.978,46.254-11.037,73.545-11.06
		c25.228,0,51.963,4.369,77.224,16.642c25.26,12.242,48.903,32.459,67.678,63.262c6.454,10.576,10.878,21.494,13.677,32.396
		c2.798,10.902,3.972,21.788,3.972,32.356C397.578,292.341,388.857,319.004,380.247,338.524z"/>
</g>
</svg>