<?xml version="1.0" encoding="utf-8"?>

<!DOCTYPE svg PUBLIC "-//W3C//DTD SVG 1.1//EN" "http://www.w3.org/Graphics/SVG/1.1/DTD/svg11.dtd">
<!-- Uploaded to: SVG Repo, www.svgrepo.com, Generator: SVG Repo Mixer Tools -->
<svg height="800px" width="800px" version="1.1" id="_x32_" xmlns="http://www.w3.org/2000/svg" xmlns:xlink="http://www.w3.org/1999/xlink" 
	 viewBox="0 0 512 512"  xml:space="preserve">
<style type="text/css">
	:root { color-scheme: dark light; }
</style>
<g>
	<path fill="currentColor" d="M267.913,105.656c-4.915,21.878-9.834,43.764-14.749,65.649c-3.157,14.051,13.828,27.195,25.431,32.191
		c9.052,3.872,35.838,7.412,38.695-5.616c5.418-24.725,10.836-49.441,16.252-74.156c3.931-17.951,8.734-35.848,10.884-54.104
		c1.937-16.442-14.684-20.125-26.526-24.527c-11.195-4.168-22.384-8.337-33.574-12.497C278.9,56.773,275.045,81.937,267.913,105.656
		C267.913,105.656,268.658,103.176,267.913,105.656z"/>
	<path fill="currentColor" d="M225.595,56.934c13.274-2.758,28.548-5.22,37.411,7.529c2.215-11.779,5.224-23.656,6.684-35.542
		c4.852-21.41-24.014-24.024-38.076-27.834c-8.198-2.21-16.738-1.473-22.016,6.19c-3.149,4.572-3.621,10.952-4.664,16.289
		c-2.686,13.736-5.368,27.474-8.054,41.219C206.198,61.516,215.937,58.946,225.595,56.934
		C231.993,55.604,216.046,58.928,225.595,56.934z"/>
	<path fill="currentColor" d="M192.965,12.776c-11.199-0.8-22.398-1.599-33.598-2.398c-11.81-0.844-27.025-3.72-31.912,10.952
		c-3.172,9.524-3.864,20.44-5.633,30.286c-1.882,10.458-3.765,20.915-5.647,31.374c21.585-4.483,43.17-8.966,64.755-13.45
		c3.333-0.691,5.004-20.744,5.638-23.988C188.697,34.626,190.831,23.7,192.965,12.776L192.965,12.776z"/>
	<path fill="currentColor" d="M405.498,121.621c-16.899-10.134-33.799-20.268-50.698-30.403c-4.452,20.322-8.908,40.645-13.36,60.976
		c-2.861,13.046-5.718,26.091-8.58,39.136c-0.777,3.549-1.554,7.098-2.332,10.647c-1.078,4.923,5.724,7.744,9.375,10.197
		c8.01,5.381,19.762,11.787,29.77,8.831c5.309-1.572,6.118-5.588,7.017-10.386c1.406-7.484,3.261-14.896,5.332-22.227
		c0.723-2.552,5.116-21.086,7.456-20.251c2.247,0.809,12.43,2.974,11.688,5.328c-3.584,9.955-6.5,20.233-8.94,30.52
		c-2.794,11.779-3.364,24.195-16.23,29.415c-10.853,4.402-20.642-1.357-31.319,0.404c-10.431,1.725-20.745,4.852-29.995,10.045
		c-4.685,2.632-9.078,5.795-12.956,9.532c-2.021,1.941-3.899,4.025-5.605,6.253c1.5,2.686,2.942,5.409,4.312,8.167
		c6.15,12.372,10.916,25.426,13.998,38.902c0.436,1.896,3.517,9.533,0.921,9.964c-3.023,0.494-6.051,0.996-9.078,1.5
		c-4.964,0.818-3.638-0.583-4.712-5.696c-1.496-7.115-3.5-14.132-5.974-20.97c-17.61-48.731-57.267-85.612-99.286-113.93
		c-8.935-6.02-18.436-11.356-27.098-17.753c-6.432-4.753-7.848-13.189,0.706-16.334c9.393-3.458,20.893-2.308,30.727-4.285
		c12.627-2.543,24.697-7.304,35.555-14.24c15.821-10.108,28.894-36.01,14.91-53.386c-5.786-7.017-20.655-1.689-27.874,0.045
		c-10.961,2.624-21.796,5.974-32.402,9.802c-7.056,2.543-15.151,3.316-22.478,4.834c-13.939,2.903-27.884,5.795-41.822,8.697
		c-12.084,2.507-23.512,4.95-30.641,16.478c-5.651,9.137-4.739,19.469-4.739,29.693c0,25.794,0,51.597,0,77.391
		c0,18.418,13.005,33.422,22.371,48.444c14.793,23.728,29.585,47.447,44.379,71.174c5.278,8.463,10.134,15.839,18.556,21.903
		c10.148,7.313,22.96,12.075,35.484,12.785c3.522,0.198,1.765,10.511,1.765,13.872c-15.818-0.064-32.371-6.182-45.138-15.319
		c-1.015,46.872-2.03,93.752-3.045,140.623c44.49,0,88.985,0,133.476,0c20.614,0,41.224,0,61.839,0c4.627,0,3.104-1.708,3.104-6.361
		c0-12.147,0-24.294,0-36.44c0-21.734-1.815-44.302,0.148-65.972c0.871-9.631,6.154-17.331,10.736-25.516
		c6.864-12.245,13.724-24.491,20.583-36.736c6.226-11.114,12.452-22.228,18.678-33.342c3.877-6.918,6.824-13.09,6.824-21.445
		c0-22.389,0-44.787,0-67.176c0-18.426,0-36.853,0-55.272C420.906,147.712,421.517,131.234,405.498,121.621
		C405.498,121.621,415.049,127.353,405.498,121.621z"/>
</g>
</svg>