<?xml version="1.0" encoding="utf-8"?>

<!DOCTYPE svg PUBLIC "-//W3C//DTD SVG 1.1//EN" "http://www.w3.org/Graphics/SVG/1.1/DTD/svg11.dtd">
<!-- Uploaded to: SVG Repo, www.svgrepo.com, Generator: SVG Repo Mixer Tools -->
<svg height="800px" width="800px" version="1.1" id="_x32_" xmlns="http://www.w3.org/2000/svg" xmlns:xlink="http://www.w3.org/1999/xlink" 
	 viewBox="0 0 512 512"  xml:space="preserve">
<style type="text/css">
	:root { color-scheme: dark light; }
</style>
<g>
	<path fill="currentColor" d="M403.541,113.118c-1.414,2.353-2.827,4.699-4.241,7.052c1.414-2.353,2.82-4.699,4.233-7.052
		c-8.064-4.836-16.136-9.679-24.201-14.514c-4.61-2.763-9.228-5.526-13.839-8.297c-3.526-2.113-3.261-1.454-3.51-5.51
		c-2.088-33.743-37.519-40.859-63.318-50.458c-4.008-1.494-6.626-1.623-8.618-5.35c-5.341-9.984-14.964-17.358-25.848-20.306
		c-2.932-1.952-8.643-2.338-12.008-3.253c-4.506-1.221-8.987-2.57-13.526-3.654c-6.354-3.173-17.357-1.51-23.727,0.457
		c-5.229,1.607-10.104,4.225-14.273,7.776c-2.45,2.088-1.92,1.839-4.682,1.654c-11.84-0.796-23.672-1.59-35.51-2.362
		c-15.101-0.98-28.819,4.008-38.226,16.442c-6.996,9.238-8.305,20.137-10.313,31.109c-2.201,12.048-4.402,24.088-6.602,36.128
		c-1.012,5.526-2.7,5.599-7.085,9.912c-8.369,8.225-13.887,19.116-15.646,30.723c-1.229,8.121-0.618,16.715-0.618,24.891
		c0,13.013,0,26.025,0,39.036c0,18.788-2.522,39.985,7.847,56.619c20.257,32.474,40.506,64.956,60.763,97.438
		c1.695,2.723,0.595,8.176,0.53,11.012c-0.208,9.775-0.425,19.558-0.634,29.325c-0.562,25.824-1.124,51.638-1.679,77.454
		c-0.265,12.321-6.12,42.418,13.816,42.418c12.546,0,25.093,0,37.639,0c48.9,0,97.8,0,146.699,0
		c12.265,0,32.394,3.037,32.394-15.204c0-20.763,0-41.519,0-62.274c0-11.373,0-22.747,0-34.12c0-4.097-0.892-9.285,1.205-13.012
		c10.9-19.454,21.807-38.907,32.706-58.362c8.146-14.522,17.021-27.486,17.021-44.9c0-15.92,0-31.847,0-47.774
		c0-21.503,0-43.012,0-64.515C430.288,148.275,425.348,126.235,403.541,113.118C403.541,113.118,420.127,123.094,403.541,113.118z
		 M325.083,72.708c17.832,6.634,7.052,34.666,4.152,47.896c-5.35,24.386-10.691,48.771-16.032,73.158
		c-1.414,6.418-0.674,13.341-7.229,15.686c-20.016,7.237-41.189-1.51-51.382-20c-4.032-7.237,0.876-17.414,2.602-25.084
		c2.691-11.992,5.39-23.992,8.088-35.984c5.382-23.968,10.771-47.944,16.153-71.912C295.983,61.881,310.537,67.295,325.083,72.708
		C328.192,73.865,325.083,72.708,325.083,72.708z M212.151,39.736c2.289-11.711,13.478-13.783,23.212-11.156
		c7.783,2.104,16.362,3.454,23.808,6.587c17.164,7.22,5.695,36.554,3.204,49.791c-12.37-17.647-42.924-5.004-59.117,0.288
		C206.223,70.074,209.186,54.909,212.151,39.736C212.986,35.455,212.151,39.736,212.151,39.736z M140.632,48.588
		c2.642-14.562,16.747-12.86,27.606-12.088c10.506,0.747,21.012,1.502,31.518,2.248c-1.799,9.237-3.606,18.466-5.406,27.695
		c-0.594,3.052-2.273,22.41-5.358,23.052c-19.293,4.008-38.586,8.016-57.887,12.024C134.279,83.873,137.46,66.235,140.632,48.588
		C141.315,44.821,140.632,48.588,140.632,48.588z M403.541,284.195c0,9.068-4.955,16.121-9.197,23.679
		c-6.128,10.956-12.265,21.904-18.394,32.851c-5.574,9.936-11.132,19.872-16.706,29.808c-3.792,6.771-6.635,12.931-6.635,21.108
		c0,21.51,0,43.02,0,64.522c0,9.06,0,18.112,0,27.164c0,3.092-3.357,1.736-6.08,1.736c-57.109,0-114.21,0-171.31,0
		c0.908-41.904,1.816-83.816,2.723-125.72c11.414,8.169,26.209,13.639,40.353,13.696c0-2.442,1.422-10.571,0-12.354
		c-10.802,0-22.256-4.193-31.204-10.04c-8.225-5.374-13.197-12.218-18.185-20.217c-12.868-20.643-25.735-41.269-38.603-61.904
		c-8.233-13.204-21.574-28.329-21.574-44.619c0-22.666,0-45.317,0-67.976c0-8.161-1.012-17.382,2.217-25.06
		c5.036-11.96,15.622-15.791,27.173-18.193c19.574-4.065,39.936-6.892,59.165-12.354c7.308-2.072,14.417-4.9,21.759-6.939
		c8.514-2.378,20.738-6.948,29.598-4.466c8.072,2.265,8.353,17.695,7.462,23.984c-1.212,7.936-4.803,15.342-10.682,20.876
		c-15.92,14.972-38.627,18.53-59.398,20.53c-4.386,0.458-9.759,1.181-11.856,5.599c-3.494,7.389,7.31,12.402,12.113,15.47
		c37.879,24.233,74.795,52.37,96.418,92.844c5.141,9.607,9.27,19.752,12.161,30.257c0.386,1.406,3.116,13.815,3.285,13.783
		c2.924-0.482,5.856-0.964,8.78-1.454c3.35-0.554,3.366,0.41,2.634-3.478c-1.076-5.759-2.498-11.454-4.241-17.044
		c-1.687-5.422-3.678-10.755-5.944-15.96c-1.832-4.201-8.739-13.39-5.791-16.844c6.233-7.309,14.482-12.586,23.357-16.112
		c7.446-2.956,18.594-7.132,26.522-4.98c9.253,2.522,20.482,2.105,27.334-5.502c7.06-7.75,7.108-22.016,9.872-31.783
		c0.707-2.506,6.747-15.526,5.542-17.606c-0.667-1.149-11.719-3.888-11.727-3.872c-3.084,8.626-5.678,17.47-7.896,26.354
		c-2.441,9.783-1.574,22.61-15.004,21.406c-10.209-0.916-20.161-7.261-27.638-13.928c-2.418-2.152-1.189-3.63-0.514-6.683
		c2.441-11.164,4.892-22.337,7.341-33.502c4.555-20.795,9.116-41.598,13.672-62.394c14.482,8.682,28.972,17.374,43.454,26.056
		c16.634,9.976,15.646,25.47,15.646,42.12C403.541,212.773,403.541,248.484,403.541,284.195
		C403.541,288.428,403.541,284.195,403.541,284.195z"/>
</g>
</svg>