<?xml version="1.0" encoding="utf-8"?>

<!DOCTYPE svg PUBLIC "-//W3C//DTD SVG 1.1//EN" "http://www.w3.org/Graphics/SVG/1.1/DTD/svg11.dtd">
<!-- Uploaded to: SVG Repo, www.svgrepo.com, Generator: SVG Repo Mixer Tools -->
<svg height="800px" width="800px" version="1.1" id="_x32_" xmlns="http://www.w3.org/2000/svg" xmlns:xlink="http://www.w3.org/1999/xlink" 
	 viewBox="0 0 512 512"  xml:space="preserve">
<style type="text/css">
	:root { color-scheme: dark light; }
</style>
<g>
	<path fill="currentColor" d="M322.335,212.673v-0.068h-4.688v0.068c-1.301,0.084-2.586,0.236-3.844,0.456
		c-2.492-12.57-11.548-22.808-23.442-26.99c-0.313-4.967-1.639-9.859-3.962-14.336c-2.138-4.139-5.119-7.906-8.904-11.074
		c-5.12-4.266-11.084-6.885-17.225-7.89c-1.42-8.118-5.601-15.797-12.41-21.482c-13.525-11.286-32.929-10.956-46.048-0.152
		c-1.58-2.07-3.421-3.988-5.499-5.727c-15.273-12.74-38.065-10.687-50.804,4.595l-39.982,47.915c0.236-2.298,0.388-4.46,0.473-6.488
		c0.169-5.711-0.203-10.18-1.217-14.615c-0.743-3.21-1.765-6.091-3.15-8.87c-1.842-3.716-4.241-7.028-7.138-9.875
		c-0.693-0.692-1.444-1.369-2.205-2.019c-7.738-6.437-17.9-9.376-27.885-8.041c-11.134,1.495-20.764,7.924-26.416,17.638
		c-2.467,4.325-5.356,10.999-8.938,20.562c-6.116,16.329-13.347,38.909-21.482,67.158c-8.338,29.026-9.825,59.032-4.275,86.774
		c4.731,23.721,19.784,47.611,41.3,65.553c22.404,18.695,48.22,28.248,73.664,28.248c1.732,3.861,3.572,7.654,5.541,11.354
		c11.81,22.37,27.616,41.85,46.251,56.853c18.821,15.18,45.693,23.882,73.705,23.882c49.747,0,90.093-26.754,105.29-69.803
		c4.562-13.052,6.987-26.145,7.012-37.921v-149.7C356.058,229.576,341.14,213.889,322.335,212.673z M243.096,179.009
		c5.196-6.235,14.471-7.071,20.697-1.868c2.643,2.196,4.316,5.137,4.983,8.271c-3.066,0.844-5.964,2.086-8.642,3.666
		c-5.153-4.368-11.548-7.316-18.568-8.236L243.096,179.009z M58.297,369.35c-17.588-14.674-30.242-34.34-34.036-53.33
		c-4.824-24.126-3.531-50.99,3.853-76.671c9.571-33.199,16.404-53.43,20.95-65.57c4.562-12.165,6.784-16.219,7.418-17.318
		c2.289-3.953,6.234-6.589,10.753-7.197c4.123-0.541,8.203,0.642,11.354,3.278l0.921,0.836c1.317,1.292,2.28,2.745,2.982,4.139
		c0.693,1.411,1.14,2.762,1.454,4.114c0.624,2.72,0.802,5.465,0.684,9.064c-0.262,7.156-1.799,17.825-6.454,36.418
		c-2.019,8-2.619,14.243-2.425,18.728c0.178,4.511,1.115,7.206,1.876,8.642c0.532,0.971,0.98,1.437,1.351,1.758
		c0.423,0.338,0.778,0.507,1.293,0.658c0.498,0.136,1.156,0.186,1.892,0.085c1.47-0.144,2.99-1.115,3.295-1.571l12.561-15.054
		l63.897-76.594c5.204-6.234,14.48-7.07,20.706-1.867c6.234,5.187,7.071,14.462,1.875,20.697l-40.599,48.092l10.72,8.946
		l58.854-69.988c5.187-6.234,14.462-7.071,20.688-1.867c6.234,5.187,7.07,14.463,1.875,20.697l-0.972,1.165l-9.808,11.759
		c0.81,0.085,1.605,0.204,2.374,0.338c-0.253,0.059-0.507,0.135-0.769,0.202c-12.95,3.734-22.926,14.555-25.461,27.97
		c-2.543-0.566-5.178-0.87-7.89-0.87c-19.886,0-36.071,16.186-36.071,36.072v62.393c-1.293-1.909-2.56-3.657-3.802-5.27
		c-3.531-4.503-6.674-7.688-10.29-10.442c-2.627-1.993-5.262-3.539-8.101-4.79c-3.801-1.681-7.763-2.695-11.81-3.016
		c-0.963-0.085-1.985-0.118-2.99-0.118c-10.061,0-19.742,4.258-26.559,11.674c-7.595,8.279-10.88,19.379-8.988,30.462
		c0.879,4.9,2.932,11.878,6.31,21.516c4.206,12.004,10.095,26.974,17.579,44.612C90.119,389.895,72.573,381.269,58.297,369.35z
		 M334.694,398.317c-0.034,9.124-1.901,19.683-5.812,30.868c-13.828,39.214-50.154,55.534-85.126,55.534
		c-22.893,0-45.212-6.995-60.299-19.142c-14.918-12.029-28.071-27.708-38.242-45.618c-1.58-2.771-3.092-5.609-4.52-8.489
		c-1.182-2.374-2.315-4.79-3.388-7.231c-0.532-1.209-1.048-2.375-1.554-3.54c-1.385-3.16-2.712-6.2-3.97-9.124
		c-10.508-24.414-16.718-40.599-20.401-51.125c-4.283-12.249-5.178-16.794-5.406-18.044c-0.768-4.494,0.574-9.039,3.658-12.401
		c2.813-3.066,6.716-4.764,10.813-4.764l1.241,0.051c1.842,0.152,3.515,0.642,4.942,1.267c1.445,0.633,2.644,1.394,3.76,2.23
		c2.214,1.689,4.114,3.683,6.327,6.521c4.385,5.669,10.036,14.851,18.366,32.092c3.582,7.443,7.121,12.613,10.137,15.941
		c3.041,3.345,5.465,4.816,6.986,5.424c1.03,0.413,1.672,0.481,2.163,0.49c0.54-0.009,0.929-0.101,1.411-0.312
		c0.473-0.228,1.014-0.6,1.512-1.141c1.048-1.064,1.58-2.77,1.521-3.328V245.111c0-8.11,6.58-14.699,14.699-14.699
		c2.61,0,5.077,0.693,7.188,1.892c4.477,2.509,7.51,7.316,7.51,12.807v65.57h13.947v-58.22v-35.852c0-4.054,1.647-7.729,4.3-10.39
		c2.661-2.662,6.335-4.308,10.398-4.308c8.118,0,14.699,6.589,14.699,14.698v94.072h12.174v-43.142v-32.473v-12.173v-2.72
		c0-5.795,3.354-10.813,8.227-13.203c1.952-0.955,4.148-1.496,6.463-1.496c1.191,0,2.34,0.135,3.455,0.406
		c6.454,1.554,11.244,7.366,11.244,14.293v90.508h12.174v-62.005c0-8.118,6.58-14.699,14.699-14.699
		c8.118,0,14.707,6.581,14.707,14.699V398.317z"/>
	<path fill="currentColor" d="M497.276,120.07c-9.411-22.26-22.91-42.289-40.033-59.412c-17.132-17.123-37.153-30.622-59.412-40.033
		c-23.079-9.766-47.636-14.732-72.81-14.725v21.947c22.294,0.009,43.851,4.368,64.261,12.993
		c19.674,8.321,37.28,20.19,52.434,35.337c15.156,15.163,27.016,32.767,35.345,52.442c8.624,20.401,12.984,41.967,12.984,64.252H512
		C512.009,167.697,507.042,143.148,497.276,120.07z"/>
	<path fill="currentColor" d="M384.154,105.185c-8.43-5.694-17.748-10.214-27.683-13.305c-9.942-3.092-20.518-4.756-31.45-4.756v21.947
		c11.607,0,22.597,2.349,32.616,6.589c15.028,6.335,27.844,16.98,36.883,30.361c4.519,6.699,8.092,14.057,10.542,21.93
		c2.442,7.856,3.76,16.219,3.768,24.921h21.947c0-14.581-2.957-28.502-8.321-41.165C414.43,132.716,401.024,116.589,384.154,105.185
		z"/>
</g>
</svg>