<?xml version="1.0" encoding="utf-8"?>

<!DOCTYPE svg PUBLIC "-//W3C//DTD SVG 1.1//EN" "http://www.w3.org/Graphics/SVG/1.1/DTD/svg11.dtd">
<!-- Uploaded to: SVG Repo, www.svgrepo.com, Generator: SVG Repo Mixer Tools -->
<svg height="800px" width="800px" version="1.1" id="_x32_" xmlns="http://www.w3.org/2000/svg" xmlns:xlink="http://www.w3.org/1999/xlink" 
	 viewBox="0 0 512 512"  xml:space="preserve">
<style type="text/css">
	:root { color-scheme: dark light; }
</style>
<g>
	<path fill="currentColor" d="M96.496,276.208l2.47,68.592l10.685-3.719l-0.642-12.068l-0.298-4.957l16.168-5.628l2.779,4.093l6.913,9.885
		l10.685-3.72l-40.725-55.274L96.496,276.208z M119.938,311.235l-11.724,4.081l-1.086-22.321L119.938,311.235z"/>
	<path fill="currentColor" d="M166.391,265.197c-1.611-2.073-3.456-3.743-5.546-4.998c-2.09-1.255-4.391-2.014-6.907-2.277
		c-2.517-0.263-5.126,0.076-7.83,1.016l-20.348,7.082l21.562,61.948l10.246-3.568l-8.116-23.314l10.101-3.515
		c2.703-0.946,4.957-2.301,6.767-4.07c1.81-1.763,3.141-3.789,4.005-6.072c0.859-2.283,1.267-4.735,1.238-7.357
		c-0.034-2.621-0.502-5.237-1.407-7.853C169.252,269.616,167.991,267.269,166.391,265.197z M160.015,282.631
		c-0.818,2.008-2.405,3.421-4.765,4.244l-9.587,3.334l-5.903-16.967l9.587-3.334c2.359-0.823,4.49-0.683,6.382,0.415
		c1.904,1.092,3.293,2.92,4.18,5.465C160.798,278.345,160.832,280.622,160.015,282.631z"/>
	<path fill="currentColor" d="M208.26,250.623c-1.606-2.073-3.45-3.743-5.541-4.998c-2.09-1.255-4.391-2.014-6.913-2.276
		c-2.51-0.263-5.12,0.076-7.824,1.016l-20.348,7.082l21.563,61.948l10.241-3.568l-8.116-23.314l10.101-3.521
		c2.709-0.94,4.963-2.294,6.773-4.064c1.81-1.763,3.141-3.79,3.999-6.072c0.858-2.283,1.273-4.735,1.244-7.362
		c-0.035-2.616-0.502-5.238-1.413-7.847C211.121,255.037,209.866,252.695,208.26,250.623z M201.89,268.057
		c-0.817,2.002-2.405,3.421-4.764,4.239l-9.587,3.34l-5.903-16.968l9.582-3.334c2.359-0.823,4.49-0.688,6.387,0.409
		c1.898,1.098,3.287,2.919,4.175,5.47C202.673,263.766,202.707,266.049,201.89,268.057z"/>
	<path fill="currentColor" d="M252.663,258.867c0.823-1.361,1.436-2.873,1.845-4.549c0.42-1.67,0.572-3.462,0.485-5.383
		c-0.088-1.915-0.52-3.982-1.279-6.183c-0.911-2.61-2.149-4.928-3.708-6.954c-1.559-2.026-3.369-3.644-5.448-4.834
		c-2.067-1.197-4.332-1.938-6.796-2.219c-2.47-0.28-5.027,0.041-7.683,0.963l-20.57,7.164l21.562,61.942l10.246-3.568l-8.6-24.709
		l7.368-2.563l18.853,21.142l11.87-4.134l-21.02-22.63C250.888,261.389,251.846,260.227,252.663,258.867z M243.496,252.941
		c-0.829,1.979-2.376,3.363-4.636,4.145l-9.657,3.363l-5.693-16.354l9.663-3.363c2.254-0.788,4.327-0.66,6.2,0.374
		c1.88,1.039,3.241,2.773,4.087,5.208C244.314,248.755,244.326,250.961,243.496,252.941z"/>
	<path fill="currentColor" d="M303.758,247.762c-0.747-2.4-1.641-5.085-2.668-8.04c-1.033-2.96-2.002-5.616-2.902-7.964
		c-0.899-2.353-1.868-4.473-2.913-6.352c-1.034-1.88-2.208-3.538-3.51-4.974c-1.296-1.437-2.878-2.704-4.753-3.808
		c-2.493-1.471-5.068-2.382-7.724-2.726c-2.656-0.339-5.511,0.017-8.553,1.08c-3.042,1.057-5.518,2.552-7.41,4.479
		c-1.892,1.926-3.351,4.239-4.402,6.948c-0.776,2.026-1.232,4.005-1.361,5.938c-0.122,1.927,0,3.947,0.374,6.06
		c0.38,2.114,0.941,4.374,1.699,6.773c0.754,2.406,1.647,5.086,2.674,8.04c1.033,2.96,1.997,5.616,2.896,7.97
		c0.898,2.352,1.862,4.472,2.878,6.364c1.022,1.886,2.178,3.55,3.468,4.98c1.302,1.437,2.89,2.704,4.758,3.813
		c2.499,1.471,5.086,2.376,7.76,2.709c2.68,0.339,5.547-0.028,8.589-1.086c3.048-1.062,5.506-2.552,7.374-4.472
		c1.868-1.916,3.322-4.228,4.361-6.931c0.789-2.026,1.244-4.005,1.367-5.938c0.128-1.927,0.018-3.953-0.339-6.072
		C305.071,252.427,304.517,250.167,303.758,247.762z M294.287,261.494c-0.397,1.25-1.033,2.383-1.915,3.404
		c-0.887,1.022-2.044,1.78-3.468,2.277c-1.425,0.496-2.802,0.619-4.122,0.362c-1.332-0.251-2.563-0.73-3.69-1.448
		c-0.713-0.468-1.366-1.034-1.962-1.705c-0.59-0.672-1.203-1.594-1.828-2.779c-0.636-1.174-1.319-2.727-2.079-4.642
		c-0.747-1.915-1.634-4.356-2.662-7.31c-1.033-2.96-1.85-5.424-2.452-7.392c-0.602-1.968-1.028-3.626-1.273-4.968
		c-0.251-1.343-0.35-2.464-0.304-3.363c0.047-0.893,0.204-1.74,0.473-2.552c0.444-1.261,1.115-2.388,2.008-3.38
		c0.888-0.993,2.05-1.74,3.474-2.236c1.425-0.497,2.802-0.63,4.116-0.409c1.32,0.228,2.516,0.701,3.596,1.431
		c0.713,0.467,1.366,1.039,1.962,1.71c0.59,0.672,1.202,1.612,1.845,2.82c0.642,1.208,1.354,2.768,2.125,4.67
		c0.777,1.91,1.682,4.344,2.709,7.304c1.028,2.954,1.834,5.424,2.406,7.398c0.584,1.985,0.986,3.626,1.226,4.945
		c0.233,1.314,0.332,2.417,0.286,3.311C294.714,259.837,294.556,260.689,294.287,261.494z"/>
	<polygon fill="currentColor" points="322.161,197.661 325.664,241.701 301.072,204.999 290.457,208.695 329.343,264.612 337.009,261.944 
		332.846,193.941 	"/>
	<polygon fill="currentColor" points="362.81,240.866 357.573,225.814 378.294,218.603 374.534,207.814 353.818,215.025 348.762,200.498 
		373.092,192.032 369.338,181.236 334.761,193.275 356.317,255.218 390.894,243.184 387.146,232.394 	"/>
	<path fill="currentColor" d="M427.858,209.98c-0.42-1.833-0.974-3.819-1.664-5.956c-0.682-2.137-1.471-4.478-2.358-7.03
		c-0.888-2.551-1.728-4.875-2.51-6.977c-0.789-2.102-1.589-3.999-2.4-5.704c-0.811-1.693-1.71-3.205-2.692-4.525
		c-0.981-1.313-2.096-2.504-3.351-3.562c-2.955-2.481-5.968-4.005-9.027-4.566c-3.059-0.56-6.382-0.216-9.973,1.034l-18.94,6.598
		l21.556,61.942l18.952-6.598c3.586-1.244,6.4-3.042,8.455-5.383c2.05-2.335,3.468-5.395,4.239-9.178
		c0.327-1.611,0.461-3.229,0.42-4.875C428.512,213.559,428.274,211.819,427.858,209.98z M417.144,217.664
		c-0.834,3.152-2.948,5.313-6.34,6.492l-7.812,2.721l-14.054-40.363l7.818-2.721c3.386-1.185,6.387-0.8,9.003,1.156
		c0.73,0.526,1.384,1.174,1.95,1.95c0.584,0.776,1.156,1.763,1.74,2.96c0.584,1.197,1.203,2.668,1.868,4.42
		c0.666,1.752,1.425,3.848,2.271,6.282c0.847,2.435,1.547,4.549,2.12,6.329c0.566,1.792,0.992,3.334,1.279,4.63
		c0.286,1.296,0.45,2.429,0.479,3.392C417.501,215.877,417.39,216.794,417.144,217.664z"/>
	<path fill="currentColor" d="M449.981,88.605L0,245.234l2.955,8.472l59.064,169.689L512,266.784L449.981,88.605z M22.841,256.28
		l416.094-144.834l50.23,144.292L73.065,400.56L22.841,256.28z"/>
	<path fill="currentColor" d="M428.274,130.503L43.043,264.6l1.962,5.646l38.722,111.256l385.236-134.097L428.274,130.503z M58.259,271.957
		l362.658-126.226l32.825,94.312L91.084,366.275L58.259,271.957z"/>
</g>
</svg>