<?xml version="1.0" encoding="utf-8"?>

<!DOCTYPE svg PUBLIC "-//W3C//DTD SVG 1.1//EN" "http://www.w3.org/Graphics/SVG/1.1/DTD/svg11.dtd">
<!-- Uploaded to: SVG Repo, www.svgrepo.com, Generator: SVG Repo Mixer Tools -->
<svg version="1.1" id="_x32_" xmlns="http://www.w3.org/2000/svg" xmlns:xlink="http://www.w3.org/1999/xlink" 
	 width="800px" height="800px" viewBox="0 0 512 512"  xml:space="preserve">
<style type="text/css">
<![CDATA[
	:root { color-scheme: dark light; }
]]>
</style>
<g>
	<path fill="currentColor" d="M474.856-0.001c0,0-120.047,63.063-159.75,71.641c-50.438,115.563-136.078,199.984-163.234,224.938
		c-5.766-5-11.641-9.031-17.5-12.125c-6.297-3.359-12.547-5.688-18.531-7.156c-9.016-2.188-17.406-2.5-24.688-1.594
		c-3.641,0.438-7.016,1.172-10.109,2.156c-2.656,0.859-5.078,1.891-7.359,3.141c-4.281,1.766-8,4.984-10.359,9.391
		c-5.359,10.078-1.531,22.594,8.531,27.953c10.078,5.375,22.594,1.547,27.953-8.516c1.406-2.641,2.172-5.438,2.375-8.234
		c1.234,0.094,2.516,0.234,3.844,0.453c4.875,0.813,10.266,2.5,16.016,5.563c5.328,2.828,10.969,6.875,16.719,12.578
		c-8.453,7.734-53.438,49.875-86.172,101.047c-6.047,9.453-21.594,32.828-12.828,56.328c11.438,30.656,41.094,44.39,58.375,26.438
		c14.484-15.047,5.266-34.078,18.531-60.406c4.156,4.813,8.828,8.719,14,11.469c3.375,1.797,6.969,3.109,10.641,3.906
		c5.547,1.203,11.281,1.266,17.063,0.375c5.781-0.875,11.625-2.656,17.578-5.172c9.109-3.844,17.094-8.391,23.813-13.859
		c6.719-5.453,12.188-11.859,16.078-19.172c2.078-3.906,3.688-8.063,4.844-12.422c0.938,0.531,1.859,1.047,2.766,1.531
		c2.25,1.203,4.406,2.234,6.5,3.125c0.391,0.156,0.781,0.313,1.156,0.469c1.031,0.828,2.141,1.578,3.359,2.219
		c10.063,5.359,22.578,1.547,27.953-8.531c5.359-10.063,1.531-22.594-8.531-27.953c-8.281-4.406-18.219-2.609-24.469,3.766
		c-2.078-1.328-4.266-2.813-6.531-4.469c-7.156-5.234-15.047-12.063-22.578-20.094c-0.719-0.766-1.438-1.547-2.141-2.344
		C473.95,167.28,474.856-0.001,474.856-0.001z M81.356,491.015c-3.563,3.406-9.203,3.281-12.609-0.281
		c-3.391-3.578-3.266-9.219,0.297-12.609c3.563-3.406,9.203-3.281,12.609,0.281C85.044,481.968,84.919,487.624,81.356,491.015z
		 M204.216,397.64c-0.078,0.703-0.172,1.406-0.281,2.094c-0.75,4.719-2.172,8.922-4.234,12.813
		c-2.641,4.953-6.391,9.438-11.469,13.578s-11.531,7.906-19.375,11.203c-3.25,1.375-6.297,2.406-9.125,3.109
		c-4.25,1.078-8,1.406-11.328,1.141c-3.328-0.281-6.266-1.125-9.141-2.656c-2.984-1.594-5.953-3.984-8.953-7.484
		c-1.094-1.281-2.188-2.719-3.281-4.313c19.063-26.969,39.328-45.094,50.703-54.172c4,4.5,8.109,8.703,12.234,12.563
		C194.747,390.015,199.544,394.062,204.216,397.64z M193.075,342.577l-9.141-11.203c54.375-45.578,97.656-93.609,128.203-131.641
		c34.219-42.594,52.516-72.656,52.578-72.781c1.141-1.875,0.547-4.313-1.328-5.453s-4.328-0.547-5.469,1.328l-0.047,0.078
		c-1.047,1.719-19.641,31.875-53.531,73.844c-30.188,37.391-72.547,84.125-125.422,128.469l-15.859-19.484
		c11.453-10.594,31.25-29.875,54.281-56.438c31.953-36.859,76.219-95.109,108.047-165.547c32.938-9.594,96.063-40.484,131.172-58.25
		c-0.219,0.891-0.438,1.813-0.656,2.734c-4.109,16.609-12.797,43.375-30.813,76.438c-20.297,37.297-48.078,74.859-82.531,111.625
		C301.81,259.749,251.56,302.202,193.075,342.577z"/>
</g>
</svg>