<?xml version="1.0" encoding="utf-8"?>

<!DOCTYPE svg PUBLIC "-//W3C//DTD SVG 1.1//EN" "http://www.w3.org/Graphics/SVG/1.1/DTD/svg11.dtd">
<!-- Uploaded to: SVG Repo, www.svgrepo.com, Generator: SVG Repo Mixer Tools -->
<svg height="800px" width="800px" version="1.1" id="_x32_" xmlns="http://www.w3.org/2000/svg" xmlns:xlink="http://www.w3.org/1999/xlink" 
	 viewBox="0 0 512 512"  xml:space="preserve">
<style type="text/css">
	:root { color-scheme: dark light; }
</style>
<g>
	<polygon fill="currentColor" points="380.141,162.138 481.76,166.699 512,136.474 381.402,130.59 375.534,0.007 345.31,30.233 
		349.854,131.867 347.301,134.42 319.337,162.384 314.792,60.75 284.56,90.983 289.112,192.609 257.527,224.195 251.166,124.376 
		221.342,154.201 227.71,254.012 90.698,391.031 56.097,356.431 0,511.993 155.57,455.911 120.969,421.31 257.665,284.614 
		361.152,287.321 390.14,258.319 390.47,256.627 288.328,253.943 319.392,222.872 421.025,227.44 451.25,197.216 349.624,192.655 
		377.573,164.706 	"/>
</g>
</svg>