<?xml version="1.0" encoding="utf-8"?>

<!DOCTYPE svg PUBLIC "-//W3C//DTD SVG 1.1//EN" "http://www.w3.org/Graphics/SVG/1.1/DTD/svg11.dtd">
<!-- Uploaded to: SVG Repo, www.svgrepo.com, Generator: SVG Repo Mixer Tools -->
<svg version="1.1" id="_x32_" xmlns="http://www.w3.org/2000/svg" xmlns:xlink="http://www.w3.org/1999/xlink" 
	 width="800px" height="800px" viewBox="0 0 512 512"  xml:space="preserve">
<style type="text/css">
<![CDATA[
	:root { color-scheme: dark light; }
]]>
</style>
<g>
	<rect x="120.188" fill="currentColor" width="271.625" height="128.969"/>
	<path fill="currentColor" d="M291.625,282.344c-10.719-6.172-23.031-9.594-35.766-9.594c-12.422,0-24.734,3.313-35.547,9.563
		c-11.453,6.594-20.344,15.891-26.406,26.625c-6.063,10.75-9.266,22.969-9.266,35.297c0.016,12.109,3.078,24.328,9.547,35.547
		c6.344,10.984,15.438,19.906,26.156,26.063c10.719,6.188,23.031,9.594,35.766,9.594c12.438,0,24.734-3.297,35.563-9.531
		c8.25-4.781,15.313-11,20.922-18.328c5.625-7.328,9.813-15.781,12.281-25.016c1.656-6.188,2.469-12.438,2.469-18.656
		c0-12.344-3.219-24.5-9.563-35.484C311.453,297.438,302.344,288.531,291.625,282.344z M252.078,337.313
		c1.203-0.688,2.547-1.047,3.906-1.047c2.797,0,5.406,1.516,6.797,3.922c2.156,3.734,0.875,8.531-2.875,10.703
		c-1.188,0.672-2.531,1.047-3.906,1.047c-2.797,0-5.391-1.5-6.781-3.922C247.063,344.281,248.344,339.469,252.078,337.313z
		 M206.313,344.094c-0.813,0-1.594-0.344-2.156-0.938s-0.859-1.406-0.797-2.234c0,0-0.047-1.734,0.297-4.172
		c0.938-6.688,3.172-13.188,6.563-19.094c3.406-5.875,7.906-11.031,13.25-15.219c1.922-1.5,3.469-2.344,3.469-2.344
		c0.672-0.453,1.516-0.609,2.313-0.422c0.813,0.172,1.5,0.688,1.906,1.391l16.484,28.563c0.734,1.281,0.422,2.938-0.766,3.844
		c0,0,0.031-0.219-0.844,0.625c-0.875,0.875-1.625,1.859-2.25,2.938c-0.641,1.094-1.094,2.25-1.422,3.438
		c-0.313,1.188-0.141,1.047-0.141,1.047c-0.188,1.484-1.438,2.578-2.938,2.578H206.313z M281.109,389.484
		c-0.234,0.797-0.797,1.438-1.547,1.797c0,0-1.484,0.906-3.75,1.844c-6.281,2.5-13,3.828-19.813,3.844
		c-6.797-0.016-13.531-1.344-19.813-3.844c-2.266-0.938-3.75-1.844-3.75-1.844c-0.75-0.359-1.313-1-1.547-1.797
		c-0.25-0.797-0.141-1.641,0.266-2.359l16.469-28.547c0.75-1.297,2.344-1.828,3.719-1.266c0,0-0.219,0.094,0.969,0.406
		c1.188,0.344,2.438,0.5,3.688,0.5s2.5-0.156,3.672-0.5c1.172-0.313,0.969-0.406,0.969-0.406c1.375-0.563,2.969-0.031,3.734,1.266
		l16.469,28.547C281.25,387.844,281.344,388.688,281.109,389.484z M308.641,340.922c0.063,0.828-0.234,1.641-0.797,2.234
		s-1.344,0.938-2.156,0.938h-32.969c-1.5,0-2.75-1.094-2.938-2.578c0,0,0.172,0.141-0.156-1.047
		c-0.313-1.188-0.781-2.344-1.406-3.438c-0.625-1.078-1.391-2.063-2.25-2.938c-0.875-0.844-0.844-0.625-0.844-0.625
		c-1.188-0.906-1.516-2.563-0.766-3.844l16.484-28.563c0.406-0.703,1.094-1.219,1.906-1.391c0.797-0.188,1.641-0.031,2.313,0.422
		c0,0,1.531,0.844,3.469,2.344c5.328,4.188,9.844,9.344,13.25,15.219c3.391,5.906,5.609,12.406,6.563,19.094
		C308.688,339.188,308.641,340.922,308.641,340.922z"/>
	<path fill="currentColor" d="M335.438,150.469H176.563c-36.438,35.813-60.281,95.531-60.281,163.188C116.281,423.203,193.5,512,256,512
		s139.719-88.797,139.719-198.344C395.719,246,371.875,186.281,335.438,150.469z M324.75,396.906
		c-6.844,8.906-15.438,16.5-25.422,22.25c-13.156,7.594-28.078,11.594-43.219,11.594c-15.484,0-30.422-4.156-43.406-11.625
		c-12.984-7.484-24.047-18.313-31.781-31.688c-7.859-13.594-11.594-28.5-11.578-43.203c0-14.984,3.875-29.766,11.219-42.797
		c7.359-13.063,18.219-24.375,32.094-32.406c13.141-7.563,28.063-11.594,43.203-11.594c15.484,0,30.422,4.156,43.422,11.625
		c12.969,7.5,24.031,18.313,31.781,31.703c7.656,13.297,11.609,28.109,11.609,43.141c0,7.563-1.016,15.156-3.016,22.625
		C336.688,377.688,331.594,387.969,324.75,396.906z"/>
</g>
</svg>