<?xml version="1.0" encoding="utf-8"?>

<!DOCTYPE svg PUBLIC "-//W3C//DTD SVG 1.1//EN" "http://www.w3.org/Graphics/SVG/1.1/DTD/svg11.dtd">
<!-- Uploaded to: SVG Repo, www.svgrepo.com, Generator: SVG Repo Mixer Tools -->
<svg height="800px" width="800px" version="1.1" id="_x32_" xmlns="http://www.w3.org/2000/svg" xmlns:xlink="http://www.w3.org/1999/xlink" 
	 viewBox="0 0 512 512"  xml:space="preserve">
<style type="text/css">
	:root { color-scheme: dark light; }
</style>
<g>
	<path fill="currentColor" d="M218.125,445.858h-10.977v-25.138c0-14.732-11.942-26.681-26.689-26.681H64.356
		c-14.74,0-26.69,11.949-26.69,26.681v25.138H26.69c-14.732,0-26.69,11.95-26.69,26.698v29.802h244.814v-29.802
		C244.814,457.808,232.873,445.858,218.125,445.858z"/>
	<path fill="currentColor" d="M496.955,334.009L305.471,205.145l10.156-15.094c7.961-11.829,9.32-26.158,4.922-38.639
		c16.67-22.902,31.37-6.328,42.748-27.976c11.668-22.203-2.605-42.564-57.633-79.594C250.637,6.81,226.4,1.253,210.236,20.424
		c-15.303,18.134,3.892,25.628-8.58,48.023c-14.74-0.795-29.52,5.96-38.358,19.091l-60.488,89.887
		c-8.741,12.988-9.521,28.99-3.458,42.258c-15.086,15.89-28.402,3.346-38.905,23.321c-11.66,22.194,2.606,42.555,57.633,79.586
		c55.028,37.032,79.265,42.58,95.436,23.417c15.062-17.86-3.313-25.379,8.01-46.986c13.099-0.716,25.724-7.358,33.613-19.083
		l12.304-18.278l191.475,128.865c15.608,10.502,36.774,6.361,47.276-9.24C516.697,365.677,512.556,344.512,496.955,334.009z"/>
</g>
</svg>