<?xml version="1.0" encoding="utf-8"?>

<!DOCTYPE svg PUBLIC "-//W3C//DTD SVG 1.1//EN" "http://www.w3.org/Graphics/SVG/1.1/DTD/svg11.dtd">
<!-- Uploaded to: SVG Repo, www.svgrepo.com, Generator: SVG Repo Mixer Tools -->
<svg version="1.1" id="_x32_" xmlns="http://www.w3.org/2000/svg" xmlns:xlink="http://www.w3.org/1999/xlink" 
	 viewBox="0 0 512 512"  xml:space="preserve">
<style type="text/css">
	:root { color-scheme: dark light; }
</style>
<g>
	<path fill="currentColor" d="M222.716,311.307l-109.3-84.325c-8.698-6.709-21.195-5.09-27.898,3.602
		c-6.708,8.691-5.103,21.189,3.601,27.898l109.293,84.318c8.705,6.708,21.196,5.103,27.905-3.595
		C233.026,330.506,231.414,318.015,222.716,311.307z"/>
	<path fill="currentColor" d="M236.318,67.662l109.307,84.318c8.698,6.716,21.189,5.104,27.898-3.594c6.709-8.698,5.097-21.182-3.601-27.898
		l-109.3-84.324c-8.698-6.709-21.189-5.09-27.898,3.601C226.015,48.462,227.628,60.954,236.318,67.662z"/>
	<polygon fill="currentColor" points="226.824,78.068 122.491,213.304 233.65,299.048 337.977,163.812 	"/>
	<path fill="currentColor" d="M501.529,363.144l-185.626-143.2l-32.864,42.598l185.633,143.2c11.764,9.075,28.652,6.901,37.72-4.864
		C515.474,389.107,513.293,372.219,501.529,363.144z"/>
	<path fill="currentColor" d="M186.936,409.748c0-14.274-11.565-25.847-25.84-25.847H39.689c-14.274,0-25.84,11.572-25.84,25.847v19.166
		h173.087V409.748z"/>
	<rect x="0" y="445.143" fill="currentColor" width="200.786" height="34.833"/>
</g>
</svg>