<?xml version="1.0" encoding="utf-8"?>

<!DOCTYPE svg PUBLIC "-//W3C//DTD SVG 1.1//EN" "http://www.w3.org/Graphics/SVG/1.1/DTD/svg11.dtd">
<!-- Uploaded to: SVG Repo, www.svgrepo.com, Generator: SVG Repo Mixer Tools -->
<svg version="1.1" id="_x32_" xmlns="http://www.w3.org/2000/svg" xmlns:xlink="http://www.w3.org/1999/xlink" 
	 width="800px" height="800px" viewBox="0 0 512 512"  xml:space="preserve">
<style type="text/css">
<![CDATA[
	:root { color-scheme: dark light; }
]]>
</style>
<g>
	<path fill="currentColor" d="M378.844,75.719c-1.609-3.547-4.188-6.453-7.328-8.5c-3.156-2.031-6.938-3.25-10.969-3.25h-0.031
		l-37.625,0.094h-0.453c-22.172,0-43.438-4.656-63.266-13.281c-2.422-1.063-4.813-2.172-7.188-3.344
		c-10.797-5.313-21.125-11.813-30.875-19.406c-5.641-4.375-11.094-9.125-16.328-14.234l-4.938-5.547
		C195.125,2.969,188.422,0,181.453,0c-1.219,0-2.438,0.094-3.688,0.281h-0.016c-7.781,1.188-14.469,6.016-18.094,12.938
		c-0.516,0.781-1.25,1.969-2.25,3.938c-1.391,2.719-3.281,6.969-5.766,13.5c-6.625,17.5-11.641,37.594-15.031,58.25
		c-3.391,20.625-5.172,41.813-5.172,61.359c0,0.234,0,0.578,0.016,0.922c0.016,9.844,0.516,20.063,1.406,30.469
		c0.906,10.375,2.25,20.906,4,31.313c3.5,20.781,8.641,41.063,15.422,58.625c2.516,6.563,4.453,10.781,5.859,13.5
		c1,1.938,1.719,3.125,2.25,3.875c3.656,6.922,10.375,11.75,18.172,12.875c1.203,0.172,2.375,0.266,3.547,0.266
		c7.016,0,13.766-3.016,18.484-8.344l4.969-5.641c4.938-4.859,10.063-9.406,15.375-13.641c9.813-7.797,20.234-14.516,31.125-19.984
		c2.594-1.313,5.203-2.547,7.828-3.719c11.578-5.094,23.656-8.813,36.109-11.063V512h64.063V237.125h0.891
		c5.375-0.031,10.344-2.234,13.875-5.781c3.172-3.188,5.266-7.547,5.656-12.313l0.078-0.297V83.563
		C380.563,80.797,379.922,78.094,378.844,75.719z M219.594,176.797c1.734,5.203,3.891,9.609,5.953,13.453
		c1.547,2.875,3.063,5.5,4.391,8.031c2.016,3.844,3.672,7.469,4.906,11.969c1.25,4.5,2.078,9.906,2.094,17.219
		c-0.031,5.563-0.5,10.016-1.266,13.828c-15.844,8.891-30.547,20.094-43.875,33.219c-2.438,2.391-3.891,3.891-4.953,5.078
		c-0.516,0.594-0.953,1.078-1.438,1.781c-0.094,0.125-0.188,0.266-0.281,0.406c-0.906,0.625-1.938,0.969-3.016,0.969
		c-0.25,0-0.5-0.016-0.766-0.063c-1.766-0.25-3.266-1.375-4.031-3l-0.469-1.031L176.328,278l-0.047-0.063
		c-0.453-0.75-2.531-4.344-5.953-13.281c-6.156-16-11.047-35.156-14.375-54.906s-5.109-40.125-5.156-58.594v-0.906
		c0-18.375,1.688-38.594,4.906-58.219c3.234-19.594,8.016-38.625,14.031-54.531c2.281-6.031,3.953-9.656,4.938-11.578
		c0.484-0.953,0.813-1.531,0.953-1.734l0.031-0.063l0.516-0.656l0.453-1c0.766-1.656,2.25-2.781,4.031-3.063h0.031
		c0.234-0.031,0.484-0.031,0.766-0.031c1.078,0,2.109,0.313,2.984,0.938c0.391,0.578,0.703,0.969,1.031,1.375
		c0.594,0.688,1.234,1.391,2.141,2.313c0.891,0.938,2.031,2.094,3.531,3.547c13.516,13.172,28.438,24.359,44.5,33.203
		c0.797,3.813,1.297,8.313,1.297,13.875c-0.031,8.688-1.172,14.656-2.828,19.656c-1.234,3.75-2.797,6.969-4.625,10.406
		c-1.359,2.563-2.906,5.219-4.438,8.156c-2.344,4.438-4.75,9.594-6.469,15.844s-2.766,13.563-2.766,22.375
		C215.797,161.5,217.297,169.828,219.594,176.797z M340.703,492.656h-25.344V237.453c2.641-0.141,5.297-0.219,7.969-0.219
		l17.375-0.063V492.656z"/>
</g>
</svg>