<?xml version="1.0" encoding="utf-8"?>

<!DOCTYPE svg PUBLIC "-//W3C//DTD SVG 1.1//EN" "http://www.w3.org/Graphics/SVG/1.1/DTD/svg11.dtd">
<!-- Uploaded to: SVG Repo, www.svgrepo.com, Generator: SVG Repo Mixer Tools -->
<svg height="800px" width="800px" version="1.1" id="_x32_" xmlns="http://www.w3.org/2000/svg" xmlns:xlink="http://www.w3.org/1999/xlink" 
	 viewBox="0 0 512 512"  xml:space="preserve">
<style type="text/css">
	:root { color-scheme: dark light; }
</style>
<g>
	<path fill="currentColor" d="M498.268,83.64c-3.426-6.862-8.517-13.483-19.147-11.894c-8.634,1.29-16.353,3.693-29.927-4.632
		c-40.041-33.945-111.581-56.56-193.202-56.56c-81.654,0-153.22,22.632-193.244,56.593c-13.541,8.284-21.252,5.889-29.868,4.599
		c-10.63-1.588-15.72,5.032-19.148,11.894c-4.758,9.524-24.13,43.293-6.388,57.492c13.766,11.021,20.487,17.924,23.789,22
		c14.174,96.917,94.588,196.63,224.859,196.63c130.288,0,210.703-99.712,224.875-196.63c3.302-4.076,10.023-10.979,23.789-22
		C522.398,126.933,503.026,93.164,498.268,83.64z M71.506,129.769c0-36.473,42.396-67.93,104.02-83.043l-101.542,97.5
		C72.488,139.501,71.506,134.702,71.506,129.769z M89.606,169.685c-0.723-0.748-1.355-1.538-2.046-2.304L221.124,39.165
		c1.698-0.166,3.319-0.433,5.04-0.574c10.198-0.923,20.636-1.355,31.25-1.355c6.804,0,13.466,0.274,20.078,0.674l-159.59,153.053
		C106.591,184.557,96.992,177.471,89.606,169.685z M187.438,215.566c-15.571-3.111-30.06-7.32-43.194-12.294
		c-0.308-0.117-0.582-0.25-0.881-0.374L311.762,41.22c0.374,0.05,0.766,0.083,1.132,0.141c16.077,2.529,31.149,6.156,45.048,10.613
		c0.166,0.05,0.324,0.117,0.49,0.175l-170.42,163.517C187.829,215.632,187.629,215.607,187.438,215.566z M276.179,221.879
		c-6.138,0.341-12.452,0.507-18.764,0.507c-12.601,0-24.937-0.648-36.847-1.88L385.074,62.638
		c13.49,6.263,25.111,13.607,34.326,21.842c0.715,0.616,1.356,1.265,2.047,1.897L280.579,221.538
		C279.098,221.621,277.668,221.813,276.179,221.879z M323.997,216.148l113.577-108.978c3.685,7.245,5.731,14.822,5.731,22.599
		C443.305,169.27,393.807,202.848,323.997,216.148z"/>
	<path fill="currentColor" d="M377.754,340.414c-13.109,8.01-27.324,14.738-42.578,19.962l17.409,43.551H159.407l17.866-44.716
		c-15.637-3.926-30.259-9.465-43.892-16.261L89.24,473.696c-4.018,10.946,0.956,22.874,11.129,26.616
		c10.181,3.751,21.692-2.105,25.726-13.042l19.838-49.632h220.126l19.838,49.632c4.035,10.937,15.546,16.792,25.726,13.042
		c10.173-3.742,15.147-15.67,11.13-26.616L377.754,340.414z"/>
</g>
</svg>