<?xml version="1.0" encoding="utf-8"?>

<!DOCTYPE svg PUBLIC "-//W3C//DTD SVG 1.1//EN" "http://www.w3.org/Graphics/SVG/1.1/DTD/svg11.dtd">
<!-- Uploaded to: SVG Repo, www.svgrepo.com, Generator: SVG Repo Mixer Tools -->
<svg height="800px" width="800px" version="1.1" id="_x32_" xmlns="http://www.w3.org/2000/svg" xmlns:xlink="http://www.w3.org/1999/xlink" 
	 viewBox="0 0 512 512"  xml:space="preserve">
<style type="text/css">
	:root { color-scheme: dark light; }
</style>
<g>
	<path fill="currentColor" d="M412.396,261.081H99.605c13.865,37.35,40.784,68.282,75.143,87.503L122.96,463.669
		c-2.691,7.118,0.891,15.07,8.002,17.772c7.118,2.694,15.069-0.896,17.767-8.006l58.084-111.068
		c10.042,3.1,20.493,5.218,31.248,6.37l3.804,129.494c0,7.601,6.171,13.769,13.777,13.769c7.608,0,13.772-6.168,13.772-13.769
		l3.808-129.408c10.778-1.106,21.253-3.216,31.322-6.276l58.018,110.888c2.695,7.11,10.645,10.7,17.764,8.006
		c7.11-2.703,10.692-10.654,7.998-17.772L336.653,348.91C371.301,329.714,398.448,298.641,412.396,261.081z"/>
	<path fill="currentColor" d="M416.944,220.539H95.057c-5.775,0-10.452,4.672-10.452,10.442v6.752c0,5.77,4.676,10.451,10.452,10.451
		h321.887c5.77,0,10.451-4.681,10.451-10.451v-6.752C427.395,225.211,422.714,220.539,416.944,220.539z"/>
	<path fill="currentColor" d="M204.119,204.559h112.419c42.295-46.524,26.937-119.634-22.83-138.06c7.371,9.212,6.842,43.143-13.511,42.396
		c-16.592-0.624-20.377-21.354-9.217-42.396C294.323,24.102,239.131,0,239.131,0s9.116,29.024-38.19,72.028
		C152.732,115.857,169.101,186.133,204.119,204.559z"/>
</g>
</svg>