<?xml version="1.0" encoding="utf-8"?>

<!DOCTYPE svg PUBLIC "-//W3C//DTD SVG 1.1//EN" "http://www.w3.org/Graphics/SVG/1.1/DTD/svg11.dtd">
<!-- Uploaded to: SVG Repo, www.svgrepo.com, Generator: SVG Repo Mixer Tools -->
<svg height="800px" width="800px" version="1.1" id="_x32_" xmlns="http://www.w3.org/2000/svg" xmlns:xlink="http://www.w3.org/1999/xlink" 
	 viewBox="0 0 512 512"  xml:space="preserve">
<style type="text/css">
	:root { color-scheme: dark light; }
</style>
<g>
	<path fill="currentColor" d="M500.332,149.168c-9.693-11.748-24.018-18.48-39.276-18.48H348.274l-0.377-1.356
		c-2.243-8.131-7.396-15.105-14.54-19.647l-0.861-0.539l-0.18-68.408c-0.251-12.942-7.485-24.816-18.884-30.973
		c-5.259-2.836-11.183-4.335-17.124-4.335c-6.516,0-12.943,1.795-18.579,5.187l-1.526,0.88l-0.018-0.027l-64.298,37.058
		c-15.24,9.523-25.095,25.912-26.387,44.311l-0.018,37.858l-1.832,0.008c-20.553,0.109-40.262,7.746-55.538,21.514L18.597,251.144
		C6.785,261.789,0,277.038,0,292.978c0,5.744,0.898,11.498,2.657,17.097L54.785,473.9c6.228,19.539,24.197,32.67,44.696,32.67
		h231.722c25.023,0,48.789-9.505,66.937-26.773l67.476-64.254c8.563-8.176,14.271-18.615,16.533-30.47l29.043-194.502
		c0.538-3.096,0.808-6.103,0.808-8.931C512,169.829,507.853,158.296,500.332,149.168z M32.58,300.58
		c-0.699-2.181-1.076-4.478-1.149-7.027l-0.036-1.885h68.607l6.498,51.32H46.079L32.58,300.58z M51.895,361.234h56.903l5.87,46.358
		H66.632L51.895,361.234z M99.481,475.175c-6.802,0-12.726-4.344-14.773-10.797L72.43,425.829h44.535l6.247,49.346H99.481z
		 M190.274,475.175h-48.699l-6.211-49.346h54.91V475.175z M190.274,407.592H133.03l-5.833-46.358h63.077V407.592z M190.274,342.988
		h-65.393l-6.48-51.32h71.873V342.988z M267.426,475.175h-58.914v-49.346h60.152L267.426,475.175z M269.13,407.592h-60.618v-46.358
		h61.767L269.13,407.592z M270.746,342.988h-62.234v-51.32h63.509L270.746,342.988z M281.948,130.688h-39.366V254.95l-3.464,0.834
		c-4.56-8.903-12.081-16.038-21.199-20.086l-1.096-0.485l0.072-140.973c0.646-7.736,4.954-14.846,11.596-19.036l65.376-37.696
		c0.736-0.458,1.562-0.691,2.442-0.691c0.79,0,1.543,0.198,2.189,0.557c1.472,0.78,2.406,2.306,2.442,4.002l0.161,66.013
		l-1.023,0.512c-8.706,4.281-15.186,12.099-17.771,21.442L281.948,130.688z M338.85,474.753l-1.58,0.143
		c-1.993,0.188-4.04,0.279-6.068,0.279h-45.54l1.257-49.346h54.748L338.85,474.753z M342.71,407.592h-55.341l1.149-46.358h56.867
		L342.71,407.592z M346.426,342.988h-57.442l1.292-51.32h47.39c2.908,0,5.959-0.215,9.585-0.673l2.19-0.278L346.426,342.988z
		 M402.09,432.695l-25.597,24.368c-3.357,3.213-7.252,6.148-11.596,8.742l-2.98,1.776l2.728-47.102l40.712-32.714L402.09,432.695z
		 M407.17,362.913l-41.125,33.038l2.621-45.693l41.861-33.63L407.17,362.913z M412.34,291.767l-42.256,33.953l2.424-42.192
		l0.951-0.476c6.264-3.168,12.062-7.136,17.214-11.784l24.826-23.031L412.34,291.767z M451.238,379.562
		c-1.006,5.07-3.518,9.648-7.27,13.247l-22.241,21.172l3.052-41.834l31.341-25.158L451.238,379.562z M460.088,320.371
		l-33.496,26.934l3.357-46.294l37.534-30.156L460.088,320.371z M471.45,244.26l-39.689,31.898l3.339-46.106l44.661-41.439
		L471.45,244.26z"/>
</g>
</svg>