<?xml version="1.0" encoding="utf-8"?>

<!DOCTYPE svg PUBLIC "-//W3C//DTD SVG 1.1//EN" "http://www.w3.org/Graphics/SVG/1.1/DTD/svg11.dtd">
<!-- Uploaded to: SVG Repo, www.svgrepo.com, Generator: SVG Repo Mixer Tools -->
<svg height="800px" width="800px" version="1.1" id="_x32_" xmlns="http://www.w3.org/2000/svg" xmlns:xlink="http://www.w3.org/1999/xlink" 
	 viewBox="0 0 512 512"  xml:space="preserve">
<style type="text/css">
	:root { color-scheme: dark light; }
</style>
<g>
	<path fill="currentColor" d="M87.819,342.359c-11.58,0-21,9.42-21,21c0,11.645,9.42,21.072,21,21.072c11.572,0,20.55-6.232,24.71-19.667
		c1.333-4.152,3.116-12.608,4.304-20.775c-7.572-2.674-14.92-5.935-21.891-9.572C93.16,340.504,89.898,342.359,87.819,342.359z"/>
	<path fill="currentColor" d="M422.624,342.359c-2.08,0-5.348-1.855-7.124-7.942c-6.978,3.638-14.326,6.898-21.892,9.572
		c1.261,8.167,3.044,16.623,4.305,20.775c4.152,13.435,13.13,19.667,24.71,19.667c11.644,0,21.072-9.428,21.072-21.072
		C443.696,351.779,434.268,342.359,422.624,342.359z"/>
	<path fill="currentColor" d="M486.065,127.569H25.935C11.608,127.569,0,139.177,0,153.504v14.884c0.008,6.232,1.805,12.493,5.993,17.572
		c1.913,2.311,4.399,4.261,7.21,5.703c4.42,86.224,75.71,154.76,163.029,154.768h159.536
		c87.312-0.008,158.594-68.53,163.022-154.739c4.37-2.232,7.797-5.768,9.92-9.739c2.268-4.218,3.283-8.869,3.29-13.565v-14.884
		C512,139.177,500.391,127.569,486.065,127.569z M435.464,282.88c-25.55,25.53-60.725,41.283-99.696,41.29H176.232
		c-38.972-0.008-74.145-15.761-99.696-41.29c-24.71-24.724-40.123-58.507-41.101-95.985h441.13
		C475.587,224.373,460.174,258.156,435.464,282.88z M489.739,168.388c0.008,1.934-0.602,3.079-0.855,3.347l-0.232,0.203
		l-0.768,0.116h-0.76h-10.37H35.246h-11.13l-0.768-0.116l-0.471-0.565c-0.283-0.508-0.623-1.551-0.616-2.985v-14.884
		c0.008-2.036,1.638-3.666,3.674-3.674h460.13c2.036,0.008,3.666,1.638,3.674,3.674V168.388z"/>
	<path fill="currentColor" d="M73.616,216.778c10.239,30.768,32.783,55.899,61.804,69.573c3.703,1.747,8.123,0.16,9.87-3.55
		c1.746-3.703,0.16-8.123-3.55-9.87v-0.006c-25.355-11.935-45.116-33.972-54.037-60.826c-1.297-3.891-5.5-5.993-9.384-4.703
		C74.428,208.692,72.326,212.895,73.616,216.778z"/>
</g>
</svg>