<?xml version="1.0" encoding="utf-8"?>

<!DOCTYPE svg PUBLIC "-//W3C//DTD SVG 1.1//EN" "http://www.w3.org/Graphics/SVG/1.1/DTD/svg11.dtd">
<!-- Uploaded to: SVG Repo, www.svgrepo.com, Generator: SVG Repo Mixer Tools -->
<svg height="800px" width="800px" version="1.1" id="_x32_" xmlns="http://www.w3.org/2000/svg" xmlns:xlink="http://www.w3.org/1999/xlink" 
	 viewBox="0 0 512 512"  xml:space="preserve">
<style type="text/css">
	:root { color-scheme: dark light; }
</style>
<g>
	<path fill="currentColor" d="M499.992,195.517L457.274,95.018c-9.534-22.407-31.523-36.959-55.878-36.959H110.613
		c-24.355,0-46.345,14.552-55.878,36.959L11.993,195.517C4.075,214.143,0,234.177,0,254.411v199.53h512v-199.53
		C512,234.177,507.926,214.143,499.992,195.517z M41.142,207.911l42.735-100.5c4.561-10.724,15.092-17.683,26.736-17.683h290.782
		c11.644,0,22.175,6.958,26.729,17.683l42.727,100.5c6.031,14.18,9.17,29.389,9.394,44.791H31.756
		C31.98,237.301,35.119,222.084,41.142,207.911z M480.33,422.271H31.67V268.537h448.66V422.271z"/>
	<path fill="currentColor" d="M401.132,124.043l0.008,0.023c-2.258-6.842-8.652-11.435-15.828-11.435H126.688
		c-7.175-0.008-13.577,4.593-15.835,11.435l0.016-0.023L83.226,206.93l-0.007,0.023c-0.564,1.709-0.843,3.479-0.843,5.242
		c-0.008,3.448,1.067,6.866,3.131,9.734c3.139,4.376,8.188,6.951,13.547,6.951h313.893c5.358,0,10.407-2.575,13.538-6.936
		c2.065-2.876,3.139-6.294,3.139-9.742c0-1.771-0.278-3.55-0.858-5.273L401.132,124.043z M413.627,212.705l-0.68,0.341H99.054
		l-0.688-0.348l-0.155-0.503l0.039-0.279l27.634-82.863l0.008-0.031l0.796-0.557h258.625l0.796,0.557l0.008,0.031l27.634,82.886
		l0.039,0.263L413.627,212.705z"/>
</g>
</svg>