<?xml version="1.0" encoding="utf-8"?>

<!DOCTYPE svg PUBLIC "-//W3C//DTD SVG 1.1//EN" "http://www.w3.org/Graphics/SVG/1.1/DTD/svg11.dtd">
<!-- Uploaded to: SVG Repo, www.svgrepo.com, Generator: SVG Repo Mixer Tools -->
<svg height="800px" width="800px" version="1.1" id="_x32_" xmlns="http://www.w3.org/2000/svg" xmlns:xlink="http://www.w3.org/1999/xlink" 
	 viewBox="0 0 512 512"  xml:space="preserve">
<style type="text/css">
	:root { color-scheme: dark light; }
</style>
<g>
	<path fill="currentColor" d="M512,256.031c0.013-61.678-21.958-118.436-58.333-162.593v-0.444l-7.54-8.366
		c-43.23-48.036-104.641-79.67-173.426-84.094h-0.14C267.234,0.203,261.716,0,256.032,0c-33.693,0-66.001,6.56-95.549,18.486
		c-42.848,17.19-79.847,45.658-107.426,81.589l-0.012-0.013c-0.051,0.051-0.077,0.128-0.128,0.178
		c-0.077,0.102-0.152,0.192-0.229,0.28l0.026,0.013c-3.369,4.246-6.56,8.608-9.536,13.108
		C19.759,148.556,4.705,189.687,0.992,233.946C0.331,241.245,0,248.593,0,256.031c0,12.804,0.928,25.481,2.862,38.029
		c6.471,43.535,23.916,83.522,49.395,116.96c25.48,33.453,59.021,60.432,97.775,78.067c32.294,14.698,68.276,22.925,106,22.912
		c34.494,0,67.552-6.891,97.66-19.339c72.537-29.968,128.111-92.066,149.166-168.76c3.204-11.659,5.658-23.737,7.145-36.172v-0.114
		c0.013-0.064,0.026-0.128,0.039-0.19h-0.013C511.34,277.087,512,266.585,512,256.031z M480.926,284.004
		c-40.215-65.378-114.799-132.32-209.941-136.135c-0.013,0-0.013,0-0.026,0c-4.043,7.833-11.329,14.482-20.636,18.855
		c0.013,0,0.026,0.013,0.026,0.013c48.137,72.409,94.329,197.456,92.154,298.83c-26.675,11.024-55.867,17.126-86.471,17.126
		c-33.477,0-65.251-7.273-93.858-20.292c-23.217-99.021,6.675-196.871,41.856-294.137c-9.053-3.61-16.351-9.472-20.661-16.758
		c-50.146,7.628-108.734,43.751-153.171,84.946C33.49,197.227,46.79,160.889,67.54,129.93c2.646-3.993,5.468-7.858,8.443-11.608
		c30.375-2.646,64.386-1.945,100.368,2.047c2.416,0.267,4.653,0.547,6.84,0.851c3.967-7.094,10.578-13.172,18.957-17.329
		c-8.557-23.51-19.517-42.734-30.706-58.22c26.141-10.541,54.698-16.352,84.59-16.352c4.984,0,9.905,0.178,14.774,0.472
		c-17.534,25.492-24.323,50.883-26.675,70.17v0.026c9.498,2.644,17.559,7.615,22.975,14.151c22.098-7.794,91.57-20.61,157.253-9.892
		v0.064c1.22,1.284,2.39,2.632,3.573,3.98c34.112,39.694,54.762,91.277,54.762,147.742
		C482.694,265.478,482.108,274.848,480.926,284.004z"/>
</g>
</svg>