<?xml version="1.0" encoding="utf-8"?>

<!DOCTYPE svg PUBLIC "-//W3C//DTD SVG 1.1//EN" "http://www.w3.org/Graphics/SVG/1.1/DTD/svg11.dtd">
<!-- Uploaded to: SVG Repo, www.svgrepo.com, Generator: SVG Repo Mixer Tools -->
<svg height="800px" width="800px" version="1.1" id="_x32_" xmlns="http://www.w3.org/2000/svg" xmlns:xlink="http://www.w3.org/1999/xlink" 
	 viewBox="0 0 512 512"  xml:space="preserve">
<style type="text/css">
	:root { color-scheme: dark light; }
</style>
<g>
	<path fill="currentColor" d="M124.305,228.745c-4.113-0.97-7.914-3.042-10.948-6.075l-10.499-10.493c-8.958-8.957-8.958-23.475,0-32.432
		l10.499-10.499c4.301-4.294,10.138-6.72,16.212-6.72h71.012c6.083,0,11.919,2.426,16.22,6.72l10.493,10.499
		c8.957,8.957,8.957,23.475,0,32.432l-10.493,10.493c-3.033,3.033-6.835,5.104-10.948,6.075h100.294
		c-4.105-0.97-7.907-3.042-10.948-6.075l-10.493-10.493c-8.957-8.957-8.957-23.475,0-32.432l10.493-10.499
		c4.308-4.294,10.137-6.72,16.22-6.72h71.012c6.082,0,11.912,2.426,16.22,6.72l10.485,10.499c8.957,8.957,8.957,23.475,0,32.432
		L398.65,222.67c-3.041,3.033-6.842,5.104-10.948,6.075h84.661h1.651V119.211c0-20.687-16.762-37.457-37.45-37.457H75.444
		c-20.687,0-37.458,16.77-37.458,37.457v109.534h1.651H124.305z"/>
	<polygon fill="currentColor" points="502.095,241.96 472.363,241.96 39.637,241.96 23.121,241.96 0,241.96 0,430.246 39.637,430.246 
		39.637,393.911 472.363,393.911 472.363,430.246 512,430.246 512,393.911 512,241.96 	"/>
</g>
</svg>