<?xml version="1.0" encoding="utf-8"?>

<!DOCTYPE svg PUBLIC "-//W3C//DTD SVG 1.1//EN" "http://www.w3.org/Graphics/SVG/1.1/DTD/svg11.dtd">
<!-- Uploaded to: SVG Repo, www.svgrepo.com, Generator: SVG Repo Mixer Tools -->
<svg height="800px" width="800px" version="1.1" id="_x32_" xmlns="http://www.w3.org/2000/svg" xmlns:xlink="http://www.w3.org/1999/xlink" 
	 viewBox="0 0 512 512"  xml:space="preserve">
<style type="text/css">
	:root { color-scheme: dark light; }
</style>
<g>
	<path fill="currentColor" d="M199.293,300.413l-92.46-77.167c-10.963-9.146-27.085-8.007-36.733,2.404
		c-8.903,10.863-7.964,26.817,2.362,36.49l65.266,61.004l-7.487,7.99l-65.25-61.004c-10.57-9.875-14.238-24.271-10.72-37.302
		c1.742-5.008,4.941-10.938,9.146-14.356V89.906c0-14.782-11.985-26.767-26.767-26.767h-0.52c-14.79,0-26.767,11.985-26.767,26.767
		v170.692c0,22.865,9.565,44.681,26.357,60.167l76.531,74.614c4.455,4.112,6.993,9.907,6.993,15.971V512h115.149V377.89
		C235.138,348.059,222.216,319.524,199.293,300.413z"/>
	<path fill="currentColor" d="M475.87,63.139h-0.528c-14.774,0-26.758,11.985-26.758,26.767v128.565c4.212,3.418,7.395,9.347,9.146,14.356
		c3.517,13.031-0.16,27.428-10.72,37.302l-65.259,61.004l-7.47-7.99l65.25-61.004c10.344-9.682,11.273-25.644,2.337-36.515
		c-9.648-10.385-25.753-11.516-36.699-2.378L312.7,300.413c-22.906,19.112-35.829,47.646-35.084,77.478V512h115.14V411.349
		c0-6.064,2.529-11.859,6.994-15.971l76.522-74.614c16.809-15.486,26.365-37.302,26.365-60.167V89.906
		C502.637,75.124,490.652,63.139,475.87,63.139z"/>
	<path fill="currentColor" d="M441.398,224.971c0.184,0.209,0.294,0.443,0.469,0.652c0.184,0.202,0.41,0.352,0.594,0.562L441.398,224.971z"
		/>
	<polygon fill="currentColor" points="256,0 145.399,63.383 256,126.765 366.592,63.383 	"/>
	<polygon fill="currentColor" points="145.399,207.517 248.94,266.854 248.94,138.356 145.399,79.01 	"/>
	<polygon fill="currentColor" points="366.592,79.01 263.061,138.356 263.061,266.854 366.592,207.517 	"/>
</g>
</svg>