<?xml version="1.0" encoding="utf-8"?>

<!DOCTYPE svg PUBLIC "-//W3C//DTD SVG 1.1//EN" "http://www.w3.org/Graphics/SVG/1.1/DTD/svg11.dtd">
<!-- Uploaded to: SVG Repo, www.svgrepo.com, Generator: SVG Repo Mixer Tools -->
<svg height="800px" width="800px" version="1.1" id="_x32_" xmlns="http://www.w3.org/2000/svg" xmlns:xlink="http://www.w3.org/1999/xlink" 
	 viewBox="0 0 512 512"  xml:space="preserve">
<style type="text/css">
	:root { color-scheme: dark light; }
</style>
<g>
	<path fill="currentColor" d="M0,0v512h512V0H0z M345.078,238.734c-17.117,17.157-52.797,46.626-63.531,60.938
		c-14.015,18.696-15.141,62.219,7.562,80c42.531,33.313,52.062,48.211,52.062,48.211H256h-85.157c0,0,9.531-14.898,52.047-48.211
		c22.703-17.781,21.578-61.304,7.562-80c-10.734-14.312-46.414-43.781-63.515-60.938C85.57,157.133,101.922,84.109,101.922,84.109
		h171.031l-27.242,58.406h41.242l-37.813,89.39l92.813-106.594h-24.047l41.234-41.203h50.946
		C410.086,84.109,426.43,157.133,345.078,238.734z"/>
</g>
</svg>