<?xml version="1.0" encoding="utf-8"?>

<!DOCTYPE svg PUBLIC "-//W3C//DTD SVG 1.1//EN" "http://www.w3.org/Graphics/SVG/1.1/DTD/svg11.dtd">
<!-- Uploaded to: SVG Repo, www.svgrepo.com, Generator: SVG Repo Mixer Tools -->
<svg version="1.1" id="_x32_" xmlns="http://www.w3.org/2000/svg" xmlns:xlink="http://www.w3.org/1999/xlink" 
	 width="800px" height="800px" viewBox="0 0 512 512"  xml:space="preserve">
<style type="text/css">
<![CDATA[
	:root { color-scheme: dark light; }
]]>
</style>
<g>
	<polygon fill="currentColor" points="369.484,26.594 372.422,26.406 372.906,25.891 373.063,0.531 372.891,0.141 372.5,0 366.344,0.375 
		365.969,0.531 365.844,0.953 368.938,26.125 	"/>
	<polygon fill="currentColor" points="375.391,77.719 372.469,77.875 371.984,78.406 371.844,103.75 372,104.156 372.375,104.297 
		378.531,103.938 378.922,103.75 379.031,103.344 375.953,78.172 	"/>
	<polygon fill="currentColor" points="351.563,36.219 352.281,36.156 354.219,33.969 354.219,33.25 336.375,15.219 336,15.063 
		335.594,15.25 331.516,19.844 331.375,20.25 331.594,20.609 	"/>
	<polygon fill="currentColor" points="392.609,68.141 390.688,70.313 390.688,71.031 408.531,89.094 408.906,89.234 409.281,89.063 
		413.375,84.469 413.5,84.063 413.313,83.688 393.313,68.063 	"/>
	<polygon fill="currentColor" points="320.844,58.625 321.25,58.75 346.406,55.656 346.891,55.094 346.719,52.188 346.188,51.688 
		320.828,51.547 320.438,51.688 320.313,52.094 320.656,58.25 	"/>
	<polygon fill="currentColor" points="398,49.203 398.188,52.125 398.688,52.625 424.063,52.766 424.438,52.594 424.594,52.219 
		424.219,46.063 424.063,45.688 423.641,45.563 398.469,48.656 	"/>
	<polygon fill="currentColor" points="390.625,33.922 391.344,33.906 409.375,16.094 409.531,15.719 409.344,15.313 404.75,11.219 
		404.359,11.094 404,11.297 388.375,31.281 388.438,32 	"/>
	<path fill="currentColor" d="M458.563,266.156c-3.313-3.625-7.391-6.281-11.688-7.938s-8.828-2.375-13.297-2.375
		c-10.359,0.031-20.578,3.672-28.953,9.844l-0.219,0.156L404.234,266c-1.109,0.906-3.578,2.781-6.813,5.094
		c-0.266,0.188-0.625,0.438-0.922,0.641c2.266-8.172,3.672-16.703,3.875-25.563c0.922-45.984-28.047-85.516-69.063-100.234
		l0.609-30.219l-26.5-0.531c0.578-3.438,1.563-6.938,3.297-10.281c1.797-3.5,4.375-6.906,8.359-10.141
		c4-3.234,9.453-6.281,17.016-8.797c18.344-6.063,28.719-11.656,35.188-17.531c3.188-2.938,5.375-6.031,6.656-9.094
		c1.25-3.063,1.531-5.953,1.578-8c0.078-3.969-3.078-7.25-7.047-7.313c-3.953-0.094-7.219,3.047-7.313,7.031
		c-0.031,1.094-0.125,1.828-0.516,2.766c-0.578,1.359-2.047,3.703-6.969,7.016c-4.891,3.266-13.078,7.219-26.047,11.484
		c-8.969,2.953-16.047,6.797-21.594,11.266c-8.313,6.719-12.906,14.875-15.219,22.406c-0.938,3.094-1.469,6.063-1.875,8.875
		l-30.063-0.594l-0.656,31.891c-39.172,14.359-67.5,51.516-68.406,95.734c-0.234,11.531,1.484,22.625,4.75,33.078
		c-28.469,1.25-48.969,7.969-64.75,17.422c-17.469,10.438-28.906,23.641-39.938,34.656l-41.188,35.969
		c-4.578,4-7.234,9.781-7.234,15.891v120.203c0,5.047,2.922,9.594,7.484,11.703l0.031,0.016c1.734,0.781,3.563,1.156,5.344,1.156
		c3.016,0,5.969-1.063,8.313-3.047l0.078-0.047l80.031-68.625c0.641-0.531,1.484-0.844,2.328-0.844l0.578,0.047l0.656,0.125
		l106.906,3.625v-0.016c2.047,0.313,4.109,0.563,6.172,0.547c8.563,0.016,16.969-2.641,24.063-7.641l-0.047,0.031
		c0,0,39.797-27.688,81.078-56.594c20.656-14.438,41.672-29.203,58.266-40.969c8.297-5.906,15.516-11.031,21.016-15.031
		c2.75-2,5.094-3.688,6.953-5.094c1.875-1.391,3.219-2.406,4.234-3.25l0.125-0.125l0.188-0.156
		c7.313-6.641,11.344-15.594,11.297-24.609C468.547,281.563,464.906,273.031,458.563,266.156z M254.75,174.281
		c4.203-2.234,9.438-0.625,11.656,3.594s0.594,9.438-3.625,11.625c-17.844,9.438-30.219,28-30.656,49.547
		c-0.125,4.766-4.031,8.547-8.813,8.453c-4.75-0.109-8.531-4.063-8.438-8.797C215.469,210.625,231.547,186.469,254.75,174.281z
		 M445.5,301.938c-0.563,0.453-1.688,1.313-3.25,2.5c-13.328,9.906-55.188,39.375-93.531,66.188
		c-19.172,13.406-37.5,26.219-51.063,35.641c-13.531,9.422-22.25,15.5-22.266,15.516l-0.047,0.031
		c-4.125,2.906-9.016,4.438-13.969,4.438c-1.438,0-2.875-0.125-4.313-0.375l-0.625-0.125l-106.875-3.625v0.031
		c-0.844-0.094-1.688-0.234-2.5-0.234c-4.969,0-9.844,1.766-13.719,5.063l-72.375,62.047V378.922c0-1.016,0.438-2,1.219-2.688
		l41.656-36.375l0.203-0.203c11.703-11.75,21.969-23.438,36.734-32.219s34.313-15.156,65.75-15.203c65.203,0,91.281,0,104.313,0
		c9.594,0.016,17.313,7.75,17.344,17.328c0,4.25-1.625,8.125-4.188,11.125c-0.266,0.188-0.609,0.422-0.875,0.594
		c-3.031,2-5.484,3.625-7.188,4.75c-1.625,0.5-3.313,0.844-5.094,0.844h-0.016l-71.422,0.172l0.047,17.516l71.422-0.156h-0.031
		c4.172,0,8.094-0.875,11.781-2.188l0.188,0.25c0,0,0.313-0.203,0.922-0.594c4.5-1.813,8.547-4.469,11.906-7.875
		c7.703-5.094,18.047-11.938,28.75-19.125c10.766-7.188,21.906-14.719,31.109-21.063c4.625-3.188,8.75-6.063,12.125-8.484
		c3.219-2.297,5.641-4.109,7.453-5.594c5.328-3.984,12.484-6.422,18.5-6.391c2.594,0,4.953,0.438,6.984,1.219
		c2,0.781,3.656,1.875,5.109,3.438c3.797,4.156,5.359,8.438,5.359,12.328C450.969,294.313,449.5,298.156,445.5,301.938z"/>
</g>
</svg>