<?xml version="1.0" encoding="utf-8"?>

<!DOCTYPE svg PUBLIC "-//W3C//DTD SVG 1.1//EN" "http://www.w3.org/Graphics/SVG/1.1/DTD/svg11.dtd">
<!-- Uploaded to: SVG Repo, www.svgrepo.com, Generator: SVG Repo Mixer Tools -->
<svg height="800px" width="800px" version="1.1" id="_x32_" xmlns="http://www.w3.org/2000/svg" xmlns:xlink="http://www.w3.org/1999/xlink" 
	 viewBox="0 0 512 512"  xml:space="preserve">
<style type="text/css">
	:root { color-scheme: dark light; }
</style>
<g>
	<path fill="currentColor" d="M480.462,178.254l-0.075-0.03L224.871,82.918l-0.104-0.03c-16.021-5.626-31.865-8.367-47.114-8.367
		c-28.856-0.03-55.497,9.913-76.52,27.808c-20.97,17.813-36.361,43.339-44.008,74.179h-0.007L1.851,373.681
		c-1.249,4.444-1.858,8.985-1.851,13.488c-0.008,10.307,3.181,20.488,9.289,29.057c8.806,12.328,22.702,19.997,37.811,20.867
		l0.661-11.392l-0.654,11.392l5.172,0.297c0.966,0.059,1.94,0.089,2.906,0.089c19.551,0,37.394-11.429,45.532-29.375l73.933-163.376
		c7.401-15.027,22.666-24.382,39.163-24.382c1.122,0,2.258,0.066,3.388,0.156l233.431,56.165l0.06,0.015
		c3.612,0.802,7.238,1.196,10.812,1.196c21.684,0.008,41.354-14.335,47.448-35.997l1.212-4.34c1.233-4.414,1.835-8.895,1.835-13.309
		C512.008,204.301,499.857,185.767,480.462,178.254z M488.183,231.387l-1.211,4.333c-3.24,11.63-13.875,19.328-25.467,19.328
		c-1.918,0-3.857-0.208-5.819-0.647l-234.984-56.536l-0.817-0.075c-2.029-0.186-4.05-0.275-6.071-0.275
		c-25.155,0-48.378,14.253-59.651,37.127l-0.082,0.17L79.923,398.688c-4.421,9.757-14.134,15.962-24.738,15.962l-1.598-0.044
		l-5.165-0.298c-8.212-0.483-15.762-4.644-20.548-11.348c-3.315-4.645-5.046-10.181-5.046-15.792c0-2.452,0.327-4.912,1.003-7.32
		l55.319-197.367l0.044-0.164c6.628-26.946,19.7-48.125,36.718-62.586c17.054-14.447,38.063-22.353,61.739-22.383
		c12.492,0,25.75,2.244,39.497,7.059l255.079,95.142c10.426,4.014,16.935,14.009,16.943,24.68
		C489.171,226.587,488.852,228.987,488.183,231.387z"/>
</g>
</svg>