<?xml version="1.0" encoding="utf-8"?>

<!DOCTYPE svg PUBLIC "-//W3C//DTD SVG 1.1//EN" "http://www.w3.org/Graphics/SVG/1.1/DTD/svg11.dtd">
<!-- Uploaded to: SVG Repo, www.svgrepo.com, Generator: SVG Repo Mixer Tools -->
<svg height="800px" width="800px" version="1.1" id="_x32_" xmlns="http://www.w3.org/2000/svg" xmlns:xlink="http://www.w3.org/1999/xlink" 
	 viewBox="0 0 512 512"  xml:space="preserve">
<style type="text/css">
	:root { color-scheme: dark light; }
</style>
<g>
	<path fill="currentColor" d="M375.229,230.241h-15.32c-0.508,0-0.763,0.254-0.763,0.762v20.044c0,0.508,0.254,0.762,0.763,0.762h15.32
		c7.152,0,11.748-4.207,11.748-10.843C386.977,234.456,382.381,230.241,375.229,230.241z"/>
	<path fill="currentColor" d="M152.132,263.938h-14.296c-0.508,0-0.762,0.254-0.762,0.77v20.163c0,0.516,0.254,0.77,0.762,0.77h14.296
		c7.66,0,11.748-4.088,11.748-10.85C163.88,268.153,159.792,263.938,152.132,263.938z"/>
	<path fill="currentColor" d="M151.108,249.515c7.152,0,11.367-3.826,11.367-10.209c0-6.382-4.214-10.089-11.367-10.089h-13.272
		c-0.508,0-0.762,0.254-0.762,0.77v18.758c0,0.516,0.254,0.77,0.762,0.77H151.108z"/>
	<path fill="currentColor" d="M474.422,314.534C479.749,294.626,512,277.591,512,256c0-21.591-32.251-38.626-37.578-58.534
		c-5.51-20.599,13.748-51.47,3.326-69.497c-10.606-18.297-47.04-16.971-61.893-31.824c-14.852-14.82-13.534-51.295-31.823-61.892
		c-18.028-10.423-48.899,8.835-69.497,3.325C294.658,32.276,277.591,0,256,0c-21.56,0-38.626,32.276-58.535,37.578
		c-20.568,5.51-51.438-13.748-69.497-3.325c-18.265,10.597-16.971,47.072-31.799,61.892c-14.844,14.852-51.319,13.526-61.885,31.824
		c-10.454,18.027,8.835,48.898,3.318,69.497C32.277,217.374,0,234.409,0,256c0,21.592,32.277,38.626,37.602,58.535
		c5.517,20.599-13.772,51.47-3.318,69.497c10.566,18.289,47.04,16.971,61.885,31.824c6.834,6.826,10.216,18.21,13.685,29.521
		c2.937,9.644,5.93,19.257,11.081,25.989c1.976,2.611,4.278,4.794,7.033,6.382c18.028,10.422,48.93-8.835,69.497-3.326
		c12.724,3.382,24.282,17.758,36.586,27.728C240.998,507.776,248.213,512,256,512c7.787,0,15.003-4.224,21.98-9.851
		c12.066-9.764,23.409-23.774,35.808-27.49c0.238-0.087,0.508-0.175,0.746-0.238c20.598-5.509,51.47,13.748,69.497,3.326
		c2.754-1.587,5.088-3.802,7.064-6.406c11.2-14.701,12.153-42.913,24.759-55.486c14.852-14.852,51.287-13.534,61.893-31.824
		C488.17,366.004,468.912,335.134,474.422,314.534z M152.521,300.834h-32.942c-0.762,0-1.27-0.516-1.27-1.279v-84.253
		c0-0.762,0.508-1.27,1.27-1.27h33.832c18.892,0,27.704,9.319,27.704,23.1c0,9.446-4.342,15.32-10.089,18.511v0.254
		c5.747,2.167,11.613,9.319,11.613,19.663C182.638,292.658,171.278,300.834,152.521,300.834z M254.365,228.964
		c0,0.762-0.508,1.278-1.278,1.278h-37.396c-0.516,0-0.77,0.254-0.77,0.762v17.234c0,0.508,0.254,0.77,0.77,0.77h31.148
		c0.762,0,1.279,0.508,1.279,1.278v13.527c0,0.77-0.516,1.278-1.279,1.278h-31.148c-0.516,0-0.77,0.254-0.77,0.762v18.003
		c0,0.508,0.254,0.762,0.77,0.762h37.396c0.77,0,1.278,0.516,1.278,1.278v13.661c0,0.762-0.508,1.279-1.278,1.279h-55.653
		c-0.762,0-1.27-0.516-1.27-1.279v-84.253c0-0.762,0.508-1.27,1.27-1.27h55.653c0.77,0,1.278,0.508,1.278,1.27V228.964z
		 M326.482,228.964c0,0.762-0.516,1.278-1.278,1.278H287.8c-0.508,0-0.762,0.254-0.762,0.762v17.234c0,0.508,0.254,0.77,0.762,0.77
		h31.148c0.762,0,1.278,0.508,1.278,1.278v13.527c0,0.77-0.516,1.278-1.278,1.278H287.8c-0.508,0-0.762,0.254-0.762,0.762v18.003
		c0,0.508,0.254,0.762,0.762,0.762h37.404c0.762,0,1.278,0.516,1.278,1.278v13.661c0,0.762-0.516,1.279-1.278,1.279h-55.653
		c-0.77,0-1.278-0.516-1.278-1.279v-84.253c0-0.762,0.508-1.27,1.278-1.27h55.653c0.762,0,1.278,0.508,1.278,1.27V228.964z
		 M406.504,300.834h-18.131c-1.143,0-1.524-0.39-1.904-1.279l-14.939-31.783h-11.621c-0.508,0-0.763,0.254-0.763,0.762v31.022
		c0,0.762-0.508,1.279-1.278,1.279h-16.209c-0.77,0-1.278-0.516-1.278-1.279v-84.253c0-0.762,0.508-1.27,1.278-1.27h34.593
		c17.742,0,29.49,11.105,29.49,26.933c0,11.105-5.874,19.908-15.448,24.124l17.106,34.213
		C407.782,300.063,407.402,300.834,406.504,300.834z M462.65,291.38c0.611-6.39,0.952-12.867,0.952-19.416
		c0-111.346-90.27-201.601-201.6-201.601c-111.346,0-201.609,90.256-201.609,201.601c0,57.892,24.442,110.044,63.52,146.821
		c-3.691-3.008-7.311-6.104-10.788-9.351C71.998,371.14,46.319,316.583,46.319,256c0-115.807,93.874-209.682,209.682-209.682
		c115.799,0,209.682,93.875,209.682,209.682C465.682,268.066,464.603,279.877,462.65,291.38z"/>
</g>
</svg>