<?xml version="1.0" encoding="utf-8"?>

<!DOCTYPE svg PUBLIC "-//W3C//DTD SVG 1.1//EN" "http://www.w3.org/Graphics/SVG/1.1/DTD/svg11.dtd">
<!-- Uploaded to: SVG Repo, www.svgrepo.com, Generator: SVG Repo Mixer Tools -->
<svg height="800px" width="800px" version="1.1" id="_x32_" xmlns="http://www.w3.org/2000/svg" xmlns:xlink="http://www.w3.org/1999/xlink" 
	 viewBox="0 0 512 512"  xml:space="preserve">
<style type="text/css">
	:root { color-scheme: dark light; }
</style>
<g>
	<path fill="currentColor" d="M307.258,277.875c-0.053,0.159-0.121,0.333-0.175,0.485c0.061-0.008,0.137-0.016,0.197-0.023
		C307.265,278.193,307.272,278.026,307.258,277.875z"/>
	<path fill="currentColor" d="M370.744,191.763c-1.402-12.775-13.646-3.198-29.61,17.026c-14.904,18.882-25.769,46.931-32.763,66.01
		C333.057,256.887,372.04,203.098,370.744,191.763z"/>
	<path fill="currentColor" d="M258.349,259.024c-4.19,1.394-7.918,4.182-11.078,7.751c3.774,3.592,10.116,6.357,17.533,7.986
		C267.714,265.046,269.699,255.242,258.349,259.024z"/>
	<path fill="currentColor" d="M244.915,269.706c-9.471,13.01-12.464,32.831-4.924,37.415c8.463,5.137,18.124-12.214,22.041-23.489
		C252.742,280.466,247.18,275.632,244.915,269.706z"/>
	<path fill="currentColor" d="M474.426,314.538C479.752,294.627,512,277.586,512,256c0-21.586-32.248-38.619-37.574-58.539
		c-5.509-20.594,13.737-51.47,3.318-69.495c-10.6-18.291-47.037-16.972-61.887-31.823c-14.851-14.821-13.533-51.288-31.823-61.888
		c-18.025-10.418-48.901,8.827-69.495,3.319C294.657,32.278,277.587,0,256,0c-21.556,0-38.627,32.278-58.539,37.574
		c-20.571,5.508-51.44-13.737-69.495-3.319c-18.26,10.601-16.972,47.068-31.793,61.888c-14.85,14.851-51.318,13.532-61.888,31.823
		c-10.448,18.025,8.834,48.901,3.318,69.495C32.278,217.381,0,234.414,0,256c0,21.586,32.278,38.627,37.604,58.538
		c5.516,20.594-13.767,51.47-3.318,69.496c10.57,18.29,47.037,16.972,61.888,31.822c6.827,6.827,10.206,18.2,13.684,29.528
		c2.932,9.638,5.933,19.245,11.077,25.988c1.978,2.599,4.281,4.789,7.032,6.372c18.025,10.425,48.924-8.827,69.495-3.318
		c12.73,3.379,24.284,17.753,36.589,27.723c6.948,5.63,14.161,9.85,21.95,9.85c7.79,0,15.002-4.22,21.974-9.85
		c12.069-9.766,23.42-23.776,35.816-27.489c0.242-0.091,0.508-0.182,0.75-0.234c20.594-5.509,51.47,13.744,69.495,3.318
		c2.75-1.584,5.092-3.796,7.062-6.402c11.198-14.707,12.153-42.908,24.761-55.486c14.85-14.85,51.287-13.532,61.887-31.822
		C488.163,366.008,468.917,335.132,474.426,314.538z M213.441,186.346c0,0,4.091-8.57-4.107-9.638
		c-8.198-1.076-52.508,9.926-71.715,64.29c-17.412,49.303,16.094,75.011,31.755,75.011c24.594,0,29.716-25.708,29.716-25.708
		c2.046-25.731-15.374-9.653-16.388,1.068c-1.024,10.706-19.473,5.35-19.473,5.35s4.599-28.133,26.64-32.149
		c23.572-4.28,27.663,43.938-10.244,64.305c-43.84,23.542-88.111-28.936-69.662-91.089c19.109-64.412,74.784-77.156,99.37-72.875
		c24.594,4.296,20.496,35.369,8.198,34.301C205.235,198.135,204.212,188.49,213.441,186.346z M390.702,326.715
		c-12.138,0.598-18.131-5.099-22.602-11.062c-14.926,8.296-26.33,12.441-39.809,10.372c-12.676-1.954-23.124-9.228-27.254-15.835
		c-0.409,0.939-0.811,1.864-1.204,2.879c-3.607,9.198-11.366,16.306-17.745,12.767c-6.388-3.539-3.008-12.956,4.781-33.52
		c0.59-1.614,0.106-2.44,1-4.652c-6.978-0.205-13.01-0.909-18.245-1.993c-7.274,18.836-20.003,37.21-33.3,38.324
		c-18.654,1.553-21.443-21.496-13.979-42.514c8.85-24.943,29.261-44.31,48.112-36.771c6.789,2.713,6.683,16.223,2.386,31.331
		c6.562,0.667,13.48,0.478,19.882-0.743c8.04-31.588,43.924-85.709,60.312-97.029c18.427-12.767,33.308-6.698,21.965,20.601
		c-7.622,18.352-31.853,59.668-49.81,75.33c17.298-8.577,15.927-2.69,17.541,1.098c4,9.32-3.925,19.776-19.686,27.664
		c-13.835,6.918,10.191,14.517,32.195,9.584c3.069-0.682,6.175-1.962,9.282-3.622c-4.6-12.934-5.501-36.452,13.13-48.212
		c13.35-8.417,31.747,0.054,30.846,14.51c-1.038,16.586-15.548,25.655-28.526,33.156c1.068,3.956,2.727,7.062,5.061,8.418
		c9.926,5.66,22.003-5.698,26.262-9.956C415.554,302.582,409.659,324.593,390.702,326.715z M462.644,291.376
		c0.614-6.388,0.955-12.858,0.955-19.412c0-111.341-90.263-201.605-201.606-201.605c-111.334,0-201.606,90.264-201.606,201.605
		c0,57.896,24.443,110.047,63.524,146.818c-3.697-3.008-7.311-6.099-10.789-9.342C71.996,371.138,46.318,316.584,46.318,256
		c0-115.805,93.877-209.682,209.682-209.682c115.798,0,209.682,93.877,209.682,209.682
		C465.682,268.062,464.607,279.875,462.644,291.376z"/>
	<path fill="currentColor" d="M307.144,298.15C343.156,288.936,325.359,268.654,307.144,298.15L307.144,298.15z"/>
	<path fill="currentColor" d="M389.838,268.229c-12.812,4.478-14.774,24.095-11.274,32.649C408.5,283.004,405.386,262.789,389.838,268.229z"
		/>
</g>
</svg>