<?xml version="1.0" encoding="utf-8"?>

<!DOCTYPE svg PUBLIC "-//W3C//DTD SVG 1.1//EN" "http://www.w3.org/Graphics/SVG/1.1/DTD/svg11.dtd">
<!-- Uploaded to: SVG Repo, www.svgrepo.com, Generator: SVG Repo Mixer Tools -->
<svg version="1.1" id="_x32_" xmlns="http://www.w3.org/2000/svg" xmlns:xlink="http://www.w3.org/1999/xlink" 
	 width="800px" height="800px" viewBox="0 0 512 512"  xml:space="preserve">
<style type="text/css">
<![CDATA[
	:root { color-scheme: dark light; }
]]>
</style>
<g>
	<path fill="currentColor" d="M160.609,0c-10.438,0-50.703,75.313-54.516,108.031h109.031C211.297,75.313,171.047,0,160.609,0z"/>
	<path fill="currentColor" d="M229.5,473.625V261.281l-14.094-23.5c0,0,0-90.375,0-117.219l-109.594,0.016
		c-0.016,26.828-0.016,117.203-0.016,117.203l-14.094,23.5l0.016,212.344l10.953,0.016V488.5l-10.969,0.016L91.719,512H229.5v-23.5
		h-10.953v-14.875H229.5z"/>
	<path fill="currentColor" d="M351.391,161.438c-10.438,0-50.703,75.313-54.5,108.031h109.016
		C402.094,236.75,361.844,161.438,351.391,161.438z"/>
	<path fill="currentColor" d="M409.344,473.625h10.938l0.016-124.281l-14.094-23.5c0,0,0-17,0-43.844l-109.594,0.016
		c-0.016,26.828-0.016,43.828-0.016,43.828l-14.094,23.5v124.281l10.969,0.016V488.5l-10.969,0.016V512h137.797v-23.5h-10.969
		L409.344,473.625z"/>
</g>
</svg>