<?xml version="1.0" encoding="utf-8"?>

<!DOCTYPE svg PUBLIC "-//W3C//DTD SVG 1.1//EN" "http://www.w3.org/Graphics/SVG/1.1/DTD/svg11.dtd">
<!-- Uploaded to: SVG Repo, www.svgrepo.com, Generator: SVG Repo Mixer Tools -->
<svg height="800px" width="800px" version="1.1" id="_x32_" xmlns="http://www.w3.org/2000/svg" xmlns:xlink="http://www.w3.org/1999/xlink" 
	 viewBox="0 0 512 512"  xml:space="preserve">
<style type="text/css">
	:root { color-scheme: dark light; }
</style>
<g>
	<path fill="currentColor" d="M373.154,140.648c-2.645,6.473-9.296,51.798-6.416,95.119c3.196,47.961,23.166,158.581,23.336,159.076
		c7.705-14,33.207-63.51,37.546-112.834C435.204,195.722,379.528,146.033,373.154,140.648z"/>
	<path fill="currentColor" d="M325.833,114.432c-0.154-0.308-0.616-0.698-0.511-1.03c-19.515-6.408-71.93-18.372-137.184,8.979
		c-76.456,39.29-92.979,98.315-93.059,98.867C181.22,226.366,299.479,153.066,325.833,114.432z"/>
	<path fill="currentColor" d="M346.175,134.402c-64.215,20.48-113.896,126.088-91.607,224.176c82.491-53.502,109.274-166.409,92.053-223.341
		C346.524,134.97,346.265,134.669,346.175,134.402z"/>
	<path fill="currentColor" d="M382.14,109.014c-3.715-9.085-16.596-23.02-35.34-21.746c-1.825,0.308-4.104,0.69-6.359,1.785
		c-15.931,7.681-7.455,32.022,14.17,40.693C374.33,137.646,389.246,126.412,382.14,109.014z"/>
	<path fill="currentColor" d="M255.996,0C165.305,0,85.63,47.175,40.15,118.309c-13.327,20.846-23.726,43.743-30.571,68.118
		C3.342,208.538,0,231.881,0,256.004C0,397.389,114.61,512,255.996,512c57.012,0,109.695-18.631,152.23-50.135
		c23.765-17.618,44.384-39.258,60.833-63.9C496.191,357.344,512,308.524,512,256.004C512,114.643,397.389,0,255.996,0z
		 M60.282,131.457c19.67-5.459,40.418-8.995,56.356-11.12c0.048-0.008,0.097-0.008,0.154-0.016
		c-1.922,1.542-3.852,3.099-5.783,4.688c-19.466,15.97-38.917,33.506-49.826,43.524C59.52,155.004,59.26,142.448,60.282,131.457z
		 M71.792,385.863c0,12.759,0.348,21.26,0.348,21.34v0.033c-14.77-17.934-26.969-38.058-36.046-59.796
		c3.147-14.705,6.165-35.016,2.231-46.826c-7.057,7.057-9.994,15.006-11.112,21.617c-6.092-21.032-9.376-43.257-9.376-66.228
		c0-14.113,1.224-27.942,3.609-41.383c2.604-14.876,6.636-29.249,11.883-43.038c-0.325,34.943,5.556,93.587,42.08,149.878
		C72.408,344.034,71.792,368.741,71.792,385.863z M250.407,492.533c-1.394,0.868-2.182,1.354-2.182,1.354l0.09,0.146
		c-20.14-0.649-39.664-3.796-58.255-9.166c15.095-19.499,13.238-43.8,13.238-43.8l-55.846,26.896
		c-25.988-13.367-49.194-31.358-68.556-52.901l74.931-15.5c36.46,24.909,72.286,39.59,105.242,47.743L250.407,492.533z
		 M133.444,384.59c1.111,0.876,2.223,1.711,3.334,2.572l-49.292,10.187c-0.049-3.179-0.089-7.065-0.089-11.485
		c0-12.215,0.332-28.429,1.622-44.627c0.016-0.243,0.041-0.486,0.056-0.73C101.162,355.787,115.762,370.671,133.444,384.59z
		 M110.044,291.238c7.162-4.128,16.239-9.262,26.694-14.964c20.748-11.315,46.85-24.82,73.681-36.874
		c-2.677,9.644-5.386,20.237-8.038,31.179c-7.754,31.934-15.063,66.828-19.597,89.255c-6.553-4.339-13.091-8.954-19.613-13.886
		C141.937,329.904,124.352,311.168,110.044,291.238z M264.724,483.562l8.46-33.118c12.362,2.441,24.244,3.998,35.535,4.866
		c-9.668,6.375-20.546,13.376-30.368,19.629C273.452,478.046,268.836,480.975,264.724,483.562z M292.934,409.053
		c3.755-6.051,7.932-12.824,12.328-20.026c7.73-12.67,16.068-26.556,23.709-39.728c2.474-4.275,4.875-8.468,7.162-12.523
		c0.09,1.549,0.17,3.114,0.252,4.704c0.536,11.234,0.762,23.246,0.762,34.878c0,15.054-0.381,29.452-0.965,40.758
		C322.369,415.469,307.883,412.857,292.934,409.053z M375.806,461.768c-28.965,16.936-61.831,27.918-96.887,31.285
		c6.48-4.097,13.764-8.736,21.121-13.473c10.998-7.08,22.103-14.348,30.717-20.294c1.59-1.087,3.05-2.11,4.453-3.107
		c24.593-0.267,45.049-3.512,59.577-6.756C388.67,453.819,382.343,457.955,375.806,461.768z M459.245,379.983
		c0.154-5.078,0.325-10.447,0.495-15.679l3.901,8.232C462.222,375.052,460.753,377.525,459.245,379.983z M472.596,354.992
		l-26.337-55.586l-1.062,32.161c0,0-0.568,16.726-1.12,34.294c-0.284,8.776-0.567,17.772-0.771,24.99
		c-0.105,3.61-0.186,6.781-0.251,9.271c-0.032,1.232-0.057,2.279-0.073,3.147c-0.648,0.827-1.266,1.671-1.923,2.482
		c-1.752,2.158-3.568,4.251-5.386,6.351c-20.667,5.491-49.818,8.906-83.934,6.497c0.617-11.744,1.014-26.628,1.014-42.242
		c0-11.834-0.235-24.074-0.787-35.624c-0.551-11.55-1.411-22.395-2.725-31.56l-3.537-24.722l-11.17,22.33
		c-4.696,9.409-11.518,21.681-19.061,34.7c-11.33,19.531-24.317,40.806-34.447,57.167c-1.307,2.1-2.548,4.112-3.748,6.027
		c-26.005-7.925-53.136-19.54-80.374-35.917c2.45-12.207,6.002-29.59,10.147-48.642c3.463-15.93,7.332-32.996,11.274-49.089
		c3.95-16.076,7.982-31.195,11.737-43.126l5.053-16.092l-15.533,6.57c-33.824,14.275-67.468,31.666-92.71,45.504
		c-10.05,5.508-18.72,10.43-25.574,14.389c-19.11-30.165-31.114-62.22-37.084-91.274c3.885-3.634,16.588-15.428,32.137-29.046
		c16.555-14.503,36.403-31.098,51.952-41.91l22.995-16.004l-27.951,1.809c-0.13,0.008-11.818,0.762-28.779,3.026
		c-14.105,1.89-31.86,4.826-49.73,9.263c17.083-22.963,38.196-42.754,62.294-58.311c15.103,22.354,139.131,40.969,197.58,35.705
		c-17.714-26.896-90.358-69.471-166.164-52.803c25.226-11.356,52.779-18.461,81.728-20.359
		c15.257,8.062,40.523,23.401,85.856,51.976c15.224,9.604,15.224,9.604,16.441,9.458c0.543-3.658,3.845-32.582-23.263-53.404
		c9.279,2.563,18.323,5.678,27.108,9.296c5.751,10.592,11.25,24.398,16.368,37.27c4.81,12.102,5.118,12.515,5.784,13.424
		c0.414-0.065,26.564-6.278,35.64-16.661c6.384,5.086,12.5,10.504,18.331,16.206c-20.367,0.9-33.953,20.246-34.09,20.53
		c1.492,0.948,2.741,1.59,10.86,5.767c34.65,17.844,57.289,31.674,71.784,41.578c11.372,23.854,18.906,49.875,21.77,77.266
		c-2.198-9.547-5.345-19.199-9.75-28.698c-30.578-66.057-91.818-73.146-92.418-73.21c0.438,1.297,0.778,1.938,9.855,16.765
		c15.638,25.558,33.831,55.991,51.846,93.668c17.204,35.981,18.096,37.854,31.162,86.667
		C480.512,336.126,476.846,345.721,472.596,354.992z"/>
</g>
</svg>