<?xml version="1.0" encoding="utf-8"?>

<!DOCTYPE svg PUBLIC "-//W3C//DTD SVG 1.1//EN" "http://www.w3.org/Graphics/SVG/1.1/DTD/svg11.dtd">
<!-- Uploaded to: SVG Repo, www.svgrepo.com, Generator: SVG Repo Mixer Tools -->
<svg height="800px" width="800px" version="1.1" id="_x32_" xmlns="http://www.w3.org/2000/svg" xmlns:xlink="http://www.w3.org/1999/xlink" 
	 viewBox="0 0 512 512"  xml:space="preserve">
<style type="text/css">
	:root { color-scheme: dark light; }
</style>
<g>
	<path fill="currentColor" d="M384.531,320.194c5.754,4.583,17.214,11.817,20.51,15.515c4.203,4.731,4.422,17.328-2.527,24.115
		c-13.734,13.368-16.938,18.764-16.938,18.764l26.781-7.326l23.369-6.397c0,0-2.412-3.341-13.747-9.646
		c-6.385-3.548-5.914-16.054-1.848-22.117c3.066-4.559,12.861-14.229,17.386-19.499c20.154-23.519,16.721-42.524,16.721-42.524
		h-12.437l-10.968,11.656l6.363-0.218L410.909,314.9l11.299-26.929l-12.056,0.574l8.268-17.466l-57.557,0.01
		C360.863,271.089,354.421,296.205,384.531,320.194z"/>
	<path fill="currentColor" d="M255.983,18.173l-113.631,42.95L89.125,81.23L0,114.958v68.064v214.044l255.983,96.761l6.236-2.342
		L512,397.043V114.946L255.983,18.173z M244.224,451.683L35.278,372.698V183.022v-43.695l57.017-21.578v61.748l59.359-8.407V95.321
		l3.17-1.195l89.4-33.784V451.683z M476.722,372.663l-208.98,79.02V60.342l208.98,78.984V372.663z"/>
</g>
</svg>