<?xml version="1.0" encoding="utf-8"?>

<!DOCTYPE svg PUBLIC "-//W3C//DTD SVG 1.1//EN" "http://www.w3.org/Graphics/SVG/1.1/DTD/svg11.dtd">
<!-- Uploaded to: SVG Repo, www.svgrepo.com, Generator: SVG Repo Mixer Tools -->
<svg height="800px" width="800px" version="1.1" id="_x32_" xmlns="http://www.w3.org/2000/svg" xmlns:xlink="http://www.w3.org/1999/xlink" 
	 viewBox="0 0 512 512"  xml:space="preserve">
<style type="text/css">
	:root { color-scheme: dark light; }
</style>
<g>
	<path fill="currentColor" d="M352.704,350.59l-10.242,13.656l8.792,4.894l-22.459,31.221L339.528,375l-11.696-4.885l7.926-19.525h-27.644
		c0,0-10.545,38.066-2.733,51.738c7.811,13.655,23.414,15.607,23.414,15.607v27.327h-13.66v7.812h36.75v-7.812h-13.672v-27.327
		c0,0,15.623-1.952,23.426-15.607c7.795-13.672-2.746-51.738-2.746-51.738H352.704z"/>
	<path fill="currentColor" d="M424.819,6.295H87.184L0,159.885v3.328v342.492h512v-345.82L424.819,6.295z M477.106,149.426H264.394V31.475
		h145.77L477.106,149.426z M101.84,31.475h145.766v117.95H34.893L101.84,31.475z M486.82,480.525H25.18V166.541l0.184-0.328h461.275
		l0.18,0.32V480.525z"/>
	<path fill="currentColor" d="M322.098,250.754c0-9.852-7.984-17.836-17.836-17.836h-96.525c-9.853,0-17.836,7.984-17.836,17.836
		c0,9.852,7.983,17.836,17.836,17.836h96.525C314.114,268.59,322.098,260.606,322.098,250.754z"/>
	<polygon fill="currentColor" points="440.131,386.573 446.508,386.573 435.794,350.861 425.082,386.573 431.451,386.573 431.451,445.262 
		408.59,445.262 408.59,386.573 414.967,386.573 404.253,350.861 393.541,386.573 399.901,386.573 399.901,445.262 384.77,445.262 
		384.77,453.943 455.278,453.943 455.278,445.262 440.131,445.262 	"/>
</g>
</svg>