<?xml version="1.0" encoding="utf-8"?>

<!DOCTYPE svg PUBLIC "-//W3C//DTD SVG 1.1//EN" "http://www.w3.org/Graphics/SVG/1.1/DTD/svg11.dtd">
<!-- Uploaded to: SVG Repo, www.svgrepo.com, Generator: SVG Repo Mixer Tools -->
<svg version="1.1" id="_x32_" xmlns="http://www.w3.org/2000/svg" xmlns:xlink="http://www.w3.org/1999/xlink" 
	 viewBox="0 0 512 512"  xml:space="preserve">
<style type="text/css">
	:root { color-scheme: dark light; }
</style>
<g>
	<path fill="currentColor" d="M214.07,154.958h83.86c40.274,0,72.917-32.643,72.917-72.917v-9.113C370.846,32.654,338.204,0,297.93,0h-83.86
		c-40.274,0-72.917,32.654-72.917,72.928v9.113C141.153,122.315,173.796,154.958,214.07,154.958z"/>
	<path fill="currentColor" d="M423.979,304.126l-6.981-12.425c-15.348-27.264-46.769-44.505-81.154-44.505H176.156
		c-34.385,0-65.806,17.241-81.154,44.505l-6.98,12.425c-5.964,10.586-5.304,23.162,1.709,33.218
		c7.036,10.066,19.429,16.18,32.774,16.18h266.991c13.345,0,25.738-6.114,32.774-16.18
		C429.283,327.287,429.942,314.711,423.979,304.126z"/>
	<rect x="236.897" y="165.153" fill="currentColor" width="38.206" height="72.171"/>
	<path fill="currentColor" d="M326.071,470.146h23.768v-13.302c0-17.858-14.481-32.35-32.35-32.35h-49.594v-58.967h-23.779v58.967h-49.604
		c-17.869,0-32.35,14.492-32.35,32.35v13.302h23.768v-8.875c0-5.953,4.839-10.78,10.792-10.78h47.395v19.655h23.779v-19.655h47.385
		c5.953,0,10.792,4.827,10.792,10.78V470.146z"/>
	<path fill="currentColor" d="M256,479.648c-8.94,0-16.182,7.24-16.182,16.181c0,8.94,7.242,16.17,16.182,16.17
		c8.93,0,16.181-7.231,16.181-16.17C272.181,486.889,264.93,479.648,256,479.648z"/>
	<path fill="currentColor" d="M172.302,479.648c-8.928,0-16.169,7.24-16.169,16.181c0,8.94,7.241,16.17,16.169,16.17
		c8.941,0,16.182-7.231,16.182-16.17C188.484,486.889,181.243,479.648,172.302,479.648z"/>
	<path fill="currentColor" d="M339.697,479.648c-8.93,0-16.17,7.24-16.17,16.181c0,8.94,7.24,16.17,16.17,16.17
		c8.94,0,16.18-7.231,16.18-16.17C355.878,486.889,348.637,479.648,339.697,479.648z"/>
</g>
</svg>