<?xml version="1.0" encoding="utf-8"?>

<!DOCTYPE svg PUBLIC "-//W3C//DTD SVG 1.1//EN" "http://www.w3.org/Graphics/SVG/1.1/DTD/svg11.dtd">
<!-- Uploaded to: SVG Repo, www.svgrepo.com, Generator: SVG Repo Mixer Tools -->
<svg height="800px" width="800px" version="1.1" id="_x32_" xmlns="http://www.w3.org/2000/svg" xmlns:xlink="http://www.w3.org/1999/xlink" 
	 viewBox="0 0 512 512"  xml:space="preserve">
<style type="text/css">
	:root { color-scheme: dark light; }
</style>
<g>
	<path fill="currentColor" d="M426.104,277.148c-16.228-28.842-40.49-47.086-76.866-47.086H162.34c-36.376,0-60.638,18.244-76.866,47.086
		l-7.385,13.14c-6.316,11.201-5.614,24.499,1.806,35.147c7.439,10.649,20.552,17.122,34.675,17.122h282.437
		c14.122,0,27.236-6.473,34.674-17.122c7.42-10.648,8.114-23.946,1.806-35.147L426.104,277.148z"/>
	<path fill="currentColor" d="M329.905,467.721h25.157v-14.07c0-18.903-15.324-34.228-34.226-34.228h-52.472v-62.374h-25.149v62.374h-52.471
		c-18.903,0-34.227,15.324-34.227,34.228v14.07h25.148v-9.386c0-6.306,5.114-11.412,11.412-11.412h50.138v20.798h25.149v-20.798
		h50.138c6.298,0,11.403,5.106,11.403,11.412V467.721z"/>
	<path fill="currentColor" d="M255.785,477.773c-9.448,0-17.114,7.666-17.114,17.114c0,9.456,7.666,17.114,17.114,17.114
		c9.456,0,17.113-7.658,17.113-17.114C272.898,485.439,265.241,477.773,255.785,477.773z"/>
	<path fill="currentColor" d="M167.253,477.773c-9.456,0-17.114,7.666-17.114,17.114c0,9.456,7.658,17.114,17.114,17.114
		c9.447,0,17.105-7.658,17.105-17.114C184.358,485.439,176.7,477.773,167.253,477.773z"/>
	<path fill="currentColor" d="M344.335,477.773c-9.456,0-17.114,7.666-17.114,17.114c0,9.456,7.657,17.114,17.114,17.114
		c9.456,0,17.113-7.658,17.113-17.114C361.448,485.439,353.79,477.773,344.335,477.773z"/>
	<path fill="currentColor" d="M359.334,35.63C357.983,15.579,341.326,0,321.23,0H191.892c-20.096,0-36.753,15.579-38.104,35.63
		l-12.429,184.432h230.404L359.334,35.63z"/>
	<path fill="currentColor" d="M113.965,204.344c9.306,0,16.842-7.535,16.842-16.842c0-9.298-7.535-16.841-16.842-16.841H78.037
		c-9.298,0-16.842,7.543-16.842,16.841c0,9.306,7.543,16.842,16.842,16.842H113.965z"/>
	<path fill="currentColor" d="M433.963,170.661h-35.929c-9.307,0-16.841,7.543-16.841,16.841c0,9.306,7.534,16.842,16.841,16.842h35.929
		c9.297,0,16.842-7.535,16.842-16.842C450.805,178.204,443.26,170.661,433.963,170.661z"/>
</g>
</svg>