<?xml version="1.0" encoding="utf-8"?>

<!DOCTYPE svg PUBLIC "-//W3C//DTD SVG 1.1//EN" "http://www.w3.org/Graphics/SVG/1.1/DTD/svg11.dtd">
<!-- Uploaded to: SVG Repo, www.svgrepo.com, Generator: SVG Repo Mixer Tools -->
<svg height="800px" width="800px" version="1.1" id="_x32_" xmlns="http://www.w3.org/2000/svg" xmlns:xlink="http://www.w3.org/1999/xlink" 
	 viewBox="0 0 512 512"  xml:space="preserve">
<style type="text/css">
	:root { color-scheme: dark light; }
</style>
<g>
	<path fill="currentColor" d="M57.766,160.83c0,0,93.305,26.481,198.248,26.481s198.248-26.481,198.248-26.481
		c3.28,0,3.13-10.018,1.578-12.393C439.33,123.25,384.279,87.71,306.538,76.74V52.008c0-6.976-22.622-12.631-50.525-12.631
		c-27.903,0-50.525,5.656-50.525,12.631V76.74c-77.747,10.97-132.792,46.51-149.302,71.697
		C54.635,150.812,54.486,160.83,57.766,160.83z"/>
	<path fill="currentColor" d="M484.641,273.905c-1.334,0-2.272,0-6.696,0c-7.404,0-14.482-5.608-20.744-9.058
		c-12.536-6.805-28.91-12.23-48.783-16.851c-39.676-9.153-93.223-14.638-152.419-14.652c-59.195,0.014-112.742,5.499-152.418,14.652
		c-19.886,4.621-36.261,10.046-48.79,16.851c-6.268,3.45-13.346,9.058-20.751,9.058c-4.417,0-5.349,0-6.682,0
		C12.25,273.905,0,291.941,0,306.919c0,14.973,12.25,27.114,27.359,27.114c15.108,0,25.922,7.18,41.037,30.523
		c29.489,60.162,83.015,108.067,147.451,108.067H256h40.14c64.436,0,117.968-47.905,147.464-108.067
		c15.108-23.343,25.915-30.523,41.037-30.523c15.109,0,27.359-12.141,27.359-27.114C512,291.941,499.75,273.905,484.641,273.905z
		 M443.835,302.823c-8.766,4.982-23.37,9.95-41.705,14.156c-36.723,8.507-88.732,13.945-146.131,13.931
		c-57.398,0.014-109.42-5.424-146.144-13.931c-18.321-4.206-32.939-9.174-41.704-14.156c-7.541-4.288-6.67-13.87,18.851-21.37
		c17.968-5.274,42.44-11.052,71.392-14.612c28.951-3.572,62.23-5.621,97.606-5.621c35.363,0,68.642,2.049,97.606,5.621
		c28.938,3.56,53.424,9.338,71.378,14.612C450.504,288.953,451.376,298.535,443.835,302.823z"/>
</g>
</svg>