<?xml version="1.0" encoding="utf-8"?>

<!DOCTYPE svg PUBLIC "-//W3C//DTD SVG 1.1//EN" "http://www.w3.org/Graphics/SVG/1.1/DTD/svg11.dtd">
<!-- Uploaded to: SVG Repo, www.svgrepo.com, Generator: SVG Repo Mixer Tools -->
<svg height="800px" width="800px" version="1.1" id="_x32_" xmlns="http://www.w3.org/2000/svg" xmlns:xlink="http://www.w3.org/1999/xlink" 
	 viewBox="0 0 512 512"  xml:space="preserve">
<style type="text/css">
	:root { color-scheme: dark light; }
</style>
<g>
	<path fill="currentColor" d="M484.641,223.351c-5.699,0-49.017,0-49.017,0H76.376c0,0-43.318,0-49.017,0
		C12.248,223.351,0,235.599,0,250.714c0,15.101,12.248,27.349,27.359,27.349c15.114,0,25.926,7.246,41.037,30.796
		c29.492,60.7,83.017,109.032,147.456,109.032h80.296c64.438,0,117.964-48.331,147.456-109.032
		c15.118-23.55,25.923-30.796,41.037-30.796c15.111,0,27.359-12.248,27.359-27.349C512,235.599,499.752,223.351,484.641,223.351z"/>
	<path fill="currentColor" d="M72.756,203.032h366.488c3.035,0,2.89-4.408,1.456-6.767c-15.259-25.016-66.142-60.315-137.996-71.212V94.109
		h-93.41v30.945C137.441,135.95,86.559,171.249,71.3,196.266C69.867,198.625,69.722,203.032,72.756,203.032z"/>
</g>
</svg>