<?xml version="1.0" encoding="utf-8"?>

<!DOCTYPE svg PUBLIC "-//W3C//DTD SVG 1.1//EN" "http://www.w3.org/Graphics/SVG/1.1/DTD/svg11.dtd">
<!-- Uploaded to: SVG Repo, www.svgrepo.com, Generator: SVG Repo Mixer Tools -->
<svg height="800px" width="800px" version="1.1" id="_x32_" xmlns="http://www.w3.org/2000/svg" xmlns:xlink="http://www.w3.org/1999/xlink" 
	 viewBox="0 0 512 512"  xml:space="preserve">
<style type="text/css">
	:root { color-scheme: dark light; }
</style>
<g>
	<path fill="currentColor" d="M467.48,206.589c-1.919,0-8.511,0-16.075,0c-0.365-0.948-0.708-1.896-1.194-2.844l-0.075-0.127
		c-4.748-8.743-11.506-17.232-19.986-25.572l-0.008-0.014c-12.744-12.483-29.573-24.683-49.985-35.038
		c-16.254-8.242-34.948-15.029-55.353-19.86V93.45c0-1.687-0.68-3.337-1.874-4.524c-1.19-1.194-2.84-1.874-4.528-1.874H193.59
		c-1.684,0-3.334,0.68-4.524,1.874c-1.195,1.187-1.878,2.837-1.878,4.524v29.506c-29.043,6.876-54.248,18.06-74.544,30.939
		c-11.979,7.616-22.287,15.806-30.79,24.145l-0.003,0.007c-8.478,8.34-15.238,16.821-19.983,25.556L61.8,203.73
		c-0.493,0.956-0.836,1.911-1.206,2.859c-7.567,0-14.156,0-16.082,0C19.923,206.597,0.012,226.509,0,251.11
		c0.012,24.585,19.926,44.482,44.509,44.505c1.982,0.008,3.087,0.201,4.15,0.522c1.617,0.553,2.964,1.143,6.055,4.024l-0.014-0.008
		c2.8,2.673,6.66,7.458,11.222,14.529c14.719,29.782,35.22,56.772,60.781,76.81c25.843,20.278,57.298,33.396,91.91,33.44
		c0.041,0.008,0.049,0.008,0.082,0.008c0.041,0,0.078,0.008,0.119,0.008h0.034h0.014h74.272h0.048l0.28-0.016
		c34.582-0.074,66.014-13.185,91.832-33.44c25.578-20.054,46.095-47.073,60.818-76.878c6.077-9.46,10.982-14.7,13.715-16.627
		l0.03-0.022c1.553-1.12,2.381-1.479,3.479-1.836l-0.038,0.007c1.068-0.314,2.18-0.515,4.181-0.522
		c24.586-0.023,44.498-19.92,44.52-44.505C511.992,226.509,492.08,206.597,467.48,206.589z M104.274,200.893
		c10.086-9.907,24.391-20.412,42.041-29.356c17.654-8.952,38.644-16.365,62.236-20.405l10.65-1.814v-30.26h73.593v30.26
		l10.646,1.814c31.451,5.376,58.306,16.791,78.748,29.789c10.214,6.489,18.815,13.365,25.534,19.972
		c4.338,4.233,7.794,8.347,10.489,12.102H93.784C96.483,209.24,99.936,205.126,104.274,200.893z M476.328,259.934
		c-2.307,2.284-5.346,3.658-8.847,3.666c-4.502-0.008-9.124,0.552-13.656,1.963c-6.831,2.091-13.118,6.107-18.702,11.513
		c-5.63,5.42-10.797,12.229-16.373,20.89l-0.404,0.634l-0.336,0.694c-12.887,26.55-31.029,50.247-52.457,66.993
		c-21.464,16.769-45.882,26.639-72.42,26.646h-74.272c-26.537-0.008-50.955-9.878-72.424-26.646
		c-21.416-16.746-39.562-40.443-52.449-66.993l-0.324-0.672l-0.418-0.649c-7.425-11.513-14.14-19.868-22.182-25.818
		c-3.998-2.949-8.362-5.189-12.894-6.592c-4.532-1.411-9.15-1.971-13.659-1.963c-3.494-0.008-6.54-1.382-8.84-3.666
		c-2.28-2.3-3.654-5.339-3.662-8.825c0.015-6.906,5.603-12.491,12.502-12.506c5.271,0,45.341,0,45.341,0h332.286
		c0.022,0,10.02,0,20.696,0c10.676,0,22.01,0,24.646,0c6.906,0.015,12.498,5.6,12.506,12.506
		C479.978,254.596,478.612,257.635,476.328,259.934z"/>
</g>
</svg>