<?xml version="1.0" encoding="utf-8"?>

<!DOCTYPE svg PUBLIC "-//W3C//DTD SVG 1.1//EN" "http://www.w3.org/Graphics/SVG/1.1/DTD/svg11.dtd">
<!-- Uploaded to: SVG Repo, www.svgrepo.com, Generator: SVG Repo Mixer Tools -->
<svg height="800px" width="800px" version="1.1" id="_x32_" xmlns="http://www.w3.org/2000/svg" xmlns:xlink="http://www.w3.org/1999/xlink" 
	 viewBox="0 0 512 512"  xml:space="preserve">
<style type="text/css">
	:root { color-scheme: dark light; }
</style>
<g>
	<path fill="currentColor" d="M438.323,202.221c-11.534-61.704-65.924-108.632-130.814-108.632c-52.445,0-99.083,30.57-120.608,76.723
		c-59.528,3.704-106.823,53.301-106.823,113.744c0,17.58,4.076,34.791,11.738,50.342l-35.202,32.207L0,418.411h76.742h326.399
		h13.578l1.237-1.425C471.681,408.694,512,362.768,512,307.007C512,259.313,481.634,217.811,438.323,202.221z M403.259,388.467
		l-0.118,0.133H76.742l53.869-49.3c-12.892-14.784-20.722-34.101-20.722-55.244c0-46.489,37.68-84.153,84.149-84.153
		c4.569,0,9.056,0.376,13.425,1.073c11.425-44.602,51.88-77.576,100.046-77.576c56.848,0,102.954,45.918,103.268,102.704
		c40.248,5.026,71.413,39.293,71.413,80.904C482.189,351.163,447.086,387.043,403.259,388.467z"/>
</g>
</svg>