<?xml version="1.0" encoding="utf-8"?>

<!DOCTYPE svg PUBLIC "-//W3C//DTD SVG 1.1//EN" "http://www.w3.org/Graphics/SVG/1.1/DTD/svg11.dtd">
<!-- Uploaded to: SVG Repo, www.svgrepo.com, Generator: SVG Repo Mixer Tools -->
<svg version="1.1" id="_x32_" xmlns="http://www.w3.org/2000/svg" xmlns:xlink="http://www.w3.org/1999/xlink" 
	 width="800px" height="800px" viewBox="0 0 512 512"  xml:space="preserve">
<style type="text/css">
<![CDATA[
	:root { color-scheme: dark light; }
]]>
</style>
<g>
	<path fill="currentColor" d="M473.109,205.219c-19.578-20.047-45.469-33.984-74.328-39.016c-8.781-23.672-23.656-44.375-42.813-60.031
		c-24.125-19.766-55.234-31.688-88.844-31.672c-33.984-0.016-65.375,12.141-89.641,32.281
		c-18.203,15.078-32.563,34.688-41.328,57.156c-37.438,0.156-71.563,15.469-96.094,40.031C15.344,228.625-0.016,263,0,300.703
		c-0.016,37.672,15.344,72.047,40.063,96.734c24.672,24.703,59.031,40.078,96.734,40.063c51.859,0,187.406,0,238.406,0
		c37.688,0.016,72.063-15.359,96.734-40.063c24.703-24.688,40.078-59.031,40.063-96.734
		C512.016,263.625,497.125,229.75,473.109,205.219z M433.797,359.281c-15.078,15.063-35.641,24.266-58.594,24.281
		c-51,0-186.547,0-238.406,0c-22.969-0.016-43.516-9.219-58.594-24.281c-15.031-15.063-24.25-35.609-24.266-58.578
		c0.016-22.984,9.234-43.516,24.266-58.609c15.078-15.016,35.625-24.234,58.594-24.25c4.609,0,9.344,0.469,14.297,1.328
		l25.922,4.531l5.172-25.781c3.953-19.781,14.688-37.156,29.703-49.609c15.047-12.453,34.141-19.859,55.234-19.875
		c20.844,0.016,39.734,7.281,54.719,19.5c14.953,12.219,25.719,29.313,29.922,48.766l4.469,20.703l21.172,0.578
		c22.438,0.594,42.469,9.984,57.125,24.922c14.594,15,23.516,35.219,23.531,57.797C458.047,323.672,448.828,344.219,433.797,359.281
		z"/>
</g>
</svg>