<?xml version="1.0" encoding="utf-8"?>

<!DOCTYPE svg PUBLIC "-//W3C//DTD SVG 1.1//EN" "http://www.w3.org/Graphics/SVG/1.1/DTD/svg11.dtd">
<!-- Uploaded to: SVG Repo, www.svgrepo.com, Generator: SVG Repo Mixer Tools -->
<svg version="1.1" id="_x32_" xmlns="http://www.w3.org/2000/svg" xmlns:xlink="http://www.w3.org/1999/xlink" 
	 width="800px" height="800px" viewBox="0 0 512 512"  xml:space="preserve">
<style type="text/css">
<![CDATA[
	:root { color-scheme: dark light; }
]]>
</style>
<g>
	<path fill="currentColor" d="M359.47,54.096l4.969-1.5c0.172,0.188,0.359,0.406,0.516,0.594c0.172,0.203,0.344,0.375,0.516,0.578
		c0.172,0.172,0.344,0.391,0.547,0.578c0.156,0.188,0.328,0.375,0.5,0.547c0.422,0.422,0.828,0.813,1.234,1.172
		c0.438,0.391,0.859,0.75,1.281,1.078c0.438,0.344,0.859,0.641,1.297,0.922c0.438,0.313,0.859,0.594,1.297,0.844
		c0.453,0.25,0.906,0.469,1.344,0.688c0.453,0.203,0.875,0.391,1.344,0.563c0.438,0.188,0.875,0.328,1.344,0.469
		c0.438,0.094,0.891,0.234,1.359,0.297c0.453,0.078,0.891,0.156,1.344,0.172c0.453,0.031,0.891,0.031,1.344,0.016
		c0.438-0.031,0.875-0.078,1.344-0.172c0.422-0.063,0.859-0.172,1.313-0.297c0.734-0.234,1.375-0.5,1.922-0.813
		c0.609-0.328,1.094-0.672,1.484-1.078c0.406-0.391,0.719-0.859,0.953-1.328c0.25-0.5,0.406-1.047,0.469-1.625
		c0.063-0.594,0.063-1.234-0.016-1.891c-0.078-0.672-0.234-1.359-0.469-2.141c-0.234-0.75-0.531-1.563-0.922-2.391
		c-0.375-0.859-0.828-1.734-1.391-2.656l-2.875-5c-0.25-0.469-0.469-0.875-0.641-1.281c-0.203-0.391-0.344-0.75-0.453-1.078
		c-0.109-0.344-0.188-0.672-0.219-0.953c-0.047-0.297-0.063-0.531-0.016-0.781c0.031-0.234,0.078-0.438,0.172-0.641
		s0.203-0.359,0.375-0.516c0.172-0.172,0.359-0.313,0.594-0.406c0.203-0.141,0.453-0.25,0.75-0.344
		c0.297-0.063,0.625-0.141,0.969-0.156c0.328-0.016,0.656,0,1,0.031c0.344,0.063,0.703,0.141,1.063,0.266s0.719,0.297,1.109,0.484
		c0.359,0.203,0.719,0.438,1.078,0.734c0.359,0.281,0.75,0.609,1.094,0.969c0.391,0.359,0.766,0.797,1.125,1.234
		c0.359,0.469,0.719,0.953,1.078,1.484c0.297,0.422,0.547,0.844,0.781,1.219c0.25,0.422,0.5,0.844,0.688,1.234
		c0.219,0.406,0.438,0.828,0.625,1.219c0.188,0.406,0.359,0.813,0.531,1.219c0.156,0.406,0.266,0.828,0.375,1.234
		c0.063,0.422,0.125,0.828,0.156,1.172c0.047,0.359,0.078,0.688,0.078,0.891c0,0.25,0,0.375,0,0.391l0.063,0.141l0.016,0.109
		l0.063,0.141l0.063,0.094l0.156,0.188l0.203,0.188l0.188,0.156l0.25,0.109l4.766,2.078l0.297,0.094l0.281,0.031l0.25-0.031
		l0.219-0.047l0.172-0.156l0.141-0.172l0.047-0.219l-0.016-0.234c0-0.031,0.016-0.234,0.047-0.547
		c-0.031-0.281-0.031-0.688-0.063-1.203c-0.047-0.484-0.109-1.031-0.219-1.609c-0.109-0.594-0.25-1.203-0.484-1.797
		c-0.125-0.328-0.297-0.688-0.453-1.047c-0.141-0.359-0.297-0.703-0.469-1.078c-0.188-0.359-0.375-0.734-0.563-1.094
		c-0.203-0.359-0.406-0.734-0.609-1.109l4.172-1.266l-4.156-6.203l-4.281,1.297c-0.141-0.172-0.297-0.344-0.438-0.5
		c-0.156-0.172-0.297-0.313-0.438-0.484s-0.297-0.328-0.453-0.484c-0.156-0.141-0.313-0.313-0.484-0.469
		c-0.375-0.359-0.75-0.688-1.141-1.031c-0.375-0.344-0.766-0.656-1.172-0.953c-0.391-0.297-0.781-0.563-1.203-0.828
		c-0.422-0.281-0.844-0.516-1.234-0.734c-0.438-0.234-0.859-0.469-1.266-0.656c-0.422-0.188-0.844-0.359-1.266-0.516
		c-0.438-0.156-0.859-0.281-1.297-0.391c-0.422-0.109-0.844-0.219-1.281-0.281c-0.438-0.078-0.859-0.141-1.297-0.172
		c-0.422-0.031-0.859-0.031-1.266,0s-0.828,0.063-1.25,0.156c-0.406,0.078-0.797,0.141-1.203,0.297
		c-0.75,0.203-1.406,0.469-1.953,0.766c-0.578,0.313-1.047,0.672-1.438,1.047c-0.391,0.406-0.734,0.828-0.969,1.297
		c-0.219,0.469-0.359,0.984-0.438,1.531c-0.047,0.563-0.047,1.156,0.031,1.797c0.078,0.625,0.219,1.281,0.422,2
		c0.219,0.703,0.516,1.422,0.828,2.219c0.359,0.781,0.766,1.609,1.25,2.438l3.297,5.703c0.234,0.438,0.438,0.859,0.625,1.25
		c0.156,0.391,0.297,0.75,0.391,1.094c0.094,0.328,0.156,0.625,0.188,0.922c0.016,0.266,0.016,0.531-0.031,0.75
		c-0.031,0.234-0.109,0.438-0.203,0.625c-0.125,0.219-0.266,0.391-0.422,0.531c-0.172,0.172-0.344,0.313-0.563,0.422
		c-0.234,0.125-0.469,0.234-0.766,0.313c-0.391,0.125-0.797,0.172-1.203,0.203c-0.406,0.016-0.813-0.031-1.219-0.109
		c-0.422-0.094-0.828-0.266-1.266-0.438c-0.406-0.219-0.844-0.453-1.297-0.75c-0.422-0.328-0.844-0.672-1.25-1.016
		c-0.422-0.391-0.828-0.781-1.219-1.188c-0.406-0.438-0.797-0.891-1.188-1.375c-0.375-0.531-0.75-1.031-1.125-1.594
		c-0.313-0.438-0.578-0.891-0.844-1.328c-0.266-0.453-0.516-0.875-0.766-1.359c-0.219-0.438-0.438-0.906-0.656-1.375
		c-0.219-0.453-0.422-0.938-0.578-1.406c-0.203-0.469-0.313-1.016-0.375-1.531c-0.078-0.547-0.109-1.063-0.094-1.531
		c-0.016-0.5,0.016-0.906,0.031-1.219s0.063-0.484,0.063-0.547l-0.031-0.156l-0.031-0.156l-0.063-0.125l-0.094-0.156l-0.156-0.172
		l-0.172-0.188l-0.219-0.141l-0.219-0.125l-5.078-2.219l-0.266-0.094l-0.266-0.031l-0.266,0.016l-0.203,0.063l-0.188,0.109
		l-0.141,0.203l-0.047,0.172l-0.016,0.234c0,0.063-0.047,0.344-0.063,0.75c-0.031,0.391-0.063,0.969-0.063,1.641
		c0.031,0.641,0.078,1.359,0.172,2.094c0.109,0.719,0.25,1.453,0.516,2.094c0.172,0.453,0.344,0.891,0.531,1.328
		c0.188,0.422,0.391,0.859,0.625,1.313c0.188,0.422,0.422,0.875,0.672,1.328c0.234,0.453,0.484,0.922,0.734,1.375l-4.859,1.469
		L359.47,54.096z"/>
	<path fill="currentColor" d="M346.579,88.956c13.609,10.344,29.344,16.281,43.156,16.281c10.953,0,19.891-3.828,25.141-10.781
		l10.531-13.891c6.031-7.938,6.813-19.047,2.219-31.281c-4.516-12.031-13.75-23.766-25.953-33
		C388.017,5.924,372.298,0.002,358.501,0.002c-10.953,0-19.891,3.813-25.156,10.766l-10.531,13.891
		C310.517,40.846,321.188,69.706,346.579,88.956z M341.438,16.893c3.375-4.438,9.234-6.781,16.953-6.781
		c11.484,0,25.359,5.328,37.125,14.25c10.047,7.625,17.844,17.156,21.984,26.875c3.969,9.359,3.906,17.813-0.172,23.188
		c-3.391,4.453-9.234,6.797-16.938,6.797c-11.484,0-25.375-5.313-37.156-14.266c-10.031-7.594-17.844-17.125-21.969-26.859
		C337.298,30.752,337.36,22.299,341.438,16.893z"/>
	<path fill="currentColor" d="M406.438,327.924c-6.703,0-30.047,0-64.016,0c-27.313,0-32.563-4.578-32.563-11.953
		c0-8.391,13.672-23.094,16.813-28.359c3.156-5.25,23.109-23.109,27.297-49.391c4.234-26.25-27.297-45.172-37.797-27.297
		c-6.234,10.609-22.063,42.016-40.984,55.672c-35.078,25.344-64.094,80.5-100.641,80.5v118.906
		c30.125,0,98.359,33.484,122.531,38.328c27.375,5.484,63.141,17.578,82.125-8.203c11.703-15.891,30.047-58.703,43.813-102.468
		C457.923,360.112,433.813,327.924,406.438,327.924z"/>
	<rect x="348.735" y="104.737" fill="currentColor" width="7.516" height="61.516"/>
	
		<rect x="372.509" y="124.705" transform="matrix(-1 0.0042 -0.0042 -1 753.1764 309.3609)" fill="currentColor" width="7.516" height="61.516"/>
	<path fill="currentColor" d="M71.626,378.096v100.906c0,14.797,12,26.797,26.797,26.797h31.984c9.875,0,17.875-8,17.875-17.859v-136.64
		H98.423C83.626,351.299,71.626,363.315,71.626,378.096z"/>
</g>
</svg>