<?xml version="1.0" encoding="utf-8"?>

<!DOCTYPE svg PUBLIC "-//W3C//DTD SVG 1.1//EN" "http://www.w3.org/Graphics/SVG/1.1/DTD/svg11.dtd">
<!-- Uploaded to: SVG Repo, www.svgrepo.com, Generator: SVG Repo Mixer Tools -->
<svg version="1.1" id="_x32_" xmlns="http://www.w3.org/2000/svg" xmlns:xlink="http://www.w3.org/1999/xlink" 
	 width="800px" height="800px" viewBox="0 0 512 512"  xml:space="preserve">
<style type="text/css">
<![CDATA[
	:root { color-scheme: dark light; }
]]>
</style>
<g>
	<path fill="currentColor" d="M405.835,328.689c-6.672,0-29.906,0-63.75,0c-27.219,0-32.438-4.578-32.438-11.906
		c0-8.375,13.609-23.016,16.734-28.25c3.156-5.234,23.031-23.016,27.219-49.188c4.188-26.156-27.219-45-37.672-27.188
		c-6.203,10.563-21.969,41.844-40.797,55.438c-34.969,25.25-63.859,80.188-100.25,80.188v118.406
		c29.984,0,97.953,33.344,122.031,38.188c27.266,5.438,62.891,17.5,81.797-8.188c11.656-15.828,29.922-58.469,43.625-102.063
		C457.117,360.721,433.102,328.689,405.835,328.689z"/>
	<rect x="348.367" y="106.376" fill="currentColor" width="7.484" height="61.281"/>
	<polygon fill="currentColor" points="372.164,187.563 379.664,187.532 379.414,126.267 371.914,126.282 	"/>
	<path fill="currentColor" d="M72.367,378.658v100.469c0,14.75,11.953,26.688,26.703,26.688h31.844c9.828,0,17.797-7.953,17.797-17.781
		V351.971H99.07C84.32,351.971,72.367,363.908,72.367,378.658z"/>
	<path fill="currentColor" d="M360.726,54.22c0.25,0.438,0.531,0.906,0.813,1.344c0.297,0.438,0.594,0.891,0.906,1.328
		c0.328,0.438,0.672,0.875,1,1.297c0.344,0.422,0.703,0.859,1.063,1.281l0.563,0.656l6.953-1.625l-1.188-1.156
		c-0.359-0.375-0.688-0.719-1.031-1.125c-0.344-0.344-0.656-0.734-0.938-1.125c-0.328-0.406-0.609-0.781-0.875-1.188
		s-0.516-0.797-0.75-1.219c-0.688-1.188-1.234-2.375-1.609-3.578c-0.375-1.188-0.609-2.359-0.641-3.469
		c-0.063-1.125,0.016-2.203,0.266-3.219c0.25-1,0.672-1.938,1.234-2.813l8.063,14.031l5.547-0.047l-9.875-17.156l0.484-0.219
		l0.5-0.172l0.531-0.156l0.5-0.156l0.219-0.047l0.219-0.031l0.203-0.031l0.25-0.031l10.328,17.969l5.531-0.063l-10.141-17.625
		c1.438,0.328,2.844,0.844,4.234,1.516s2.719,1.484,3.969,2.406s2.422,1.984,3.484,3.141c1.031,1.188,1.953,2.406,2.719,3.734
		c0.281,0.469,0.5,0.922,0.719,1.375c0.234,0.484,0.422,0.922,0.594,1.406c0.188,0.469,0.328,0.938,0.469,1.391
		c0.094,0.5,0.219,0.969,0.281,1.438l0.203,1.156l7.328-0.094l-0.188-0.813c-0.125-0.609-0.297-1.219-0.484-1.844
		s-0.422-1.234-0.656-1.844c-0.234-0.625-0.5-1.234-0.813-1.844c-0.297-0.625-0.609-1.234-0.953-1.828
		c-1.328-2.281-2.953-4.422-4.813-6.344c-1.844-1.922-3.906-3.672-6.141-5.141c-2.203-1.469-4.563-2.672-6.984-3.563
		c-2.391-0.906-4.844-1.484-7.266-1.688l-2.281-3.969l-4.906,1.125l1.75,3.031l-0.219,0.031l-0.234,0.047l-0.203,0.047l-0.203,0.031
		l-0.516,0.156l-0.516,0.141l-0.5,0.172l-0.547,0.188l-1.781-3.156l-4.938,1.109l2.563,4.453c-1.438,1.219-2.547,2.656-3.313,4.328
		c-0.781,1.641-1.234,3.484-1.344,5.422c-0.141,1.969,0.094,4.047,0.656,6.156C358.585,49.876,359.476,52.048,360.726,54.22z"/>
	<path fill="currentColor" d="M344.304,87.673c13.813,12.031,30.594,19.203,44.891,19.203c9.625,0,17.438-3.141,22.641-9.094l11.406-13.078
		c13.297-15.281,4.672-44.656-19.234-65.484C390.21,7.188,373.429,0.001,359.117,0.001c-9.625,0-17.453,3.156-22.625,9.094
		l-11.406,13.078C311.773,37.454,320.398,66.845,344.304,87.673z M344.117,15.735c3.234-3.719,8.406-5.672,14.938-5.672
		c11.75,0,26.422,6.422,38.297,16.75c9.453,8.25,16.563,18.266,20,28.219c3.375,9.688,2.75,17.859-1.75,23.016
		c-3.234,3.734-8.406,5.688-14.953,5.688c-11.734,0-26.406-6.422-38.266-16.766C343.007,50.063,334.648,26.595,344.117,15.735z"/>
</g>
</svg>