<?xml version="1.0" encoding="utf-8"?>

<!DOCTYPE svg PUBLIC "-//W3C//DTD SVG 1.1//EN" "http://www.w3.org/Graphics/SVG/1.1/DTD/svg11.dtd">
<!-- Uploaded to: SVG Repo, www.svgrepo.com, Generator: SVG Repo Mixer Tools -->
<svg height="800px" width="800px" version="1.1" id="_x32_" xmlns="http://www.w3.org/2000/svg" xmlns:xlink="http://www.w3.org/1999/xlink" 
	 viewBox="0 0 512 512"  xml:space="preserve">
<style type="text/css">
	:root { color-scheme: dark light; }
</style>
<g>
	<path fill="currentColor" d="M84.939,73.686c0-23.452-19.022-42.465-42.465-42.465C19.012,31.221,0,50.233,0,73.686
		c0,23.453,19.012,42.475,42.474,42.475C65.917,116.16,84.939,97.139,84.939,73.686z"/>
	<path fill="currentColor" d="M469.526,31.221c-23.444,0-42.466,19.012-42.466,42.465c0,23.453,19.022,42.475,42.466,42.475
		c23.462,0,42.474-19.022,42.474-42.475C512,50.233,492.988,31.221,469.526,31.221z"/>
	<path fill="currentColor" d="M469.526,130.592c-8.355,0-16.254-1.908-23.356-5.254v54.936H65.83v-54.936
		c-7.102,3.346-15.002,5.254-23.356,5.254c-8.363,0-16.263-1.908-23.366-10.64v343.401c0,12.033,5.386,17.427,12.042,17.427h22.638
		c6.647,0,12.042-5.394,12.042-12.041v-30.73H446.17v30.73c0,6.647,5.394,12.041,12.042,12.041h22.629
		c6.665,0,12.05-5.394,12.05-17.427V119.952C485.788,128.684,477.89,130.592,469.526,130.592z M105.834,373.684H65.83v-52.598
		h40.004V373.684z M105.834,297.248H65.83v-82.321h40.004V297.248z M175.168,373.684h-45.505v-52.598h45.505V373.684z
		 M175.168,297.248h-45.505v-82.321h45.505V297.248z M244.51,373.684h-45.513v-52.598h45.513V373.684z M244.51,297.248h-45.513
		v-82.321h45.513V297.248z M313.852,373.684h-45.513v-52.598h45.513V373.684z M313.852,297.248h-45.513v-82.321h45.513V297.248z
		 M383.185,373.684h-45.504v-52.598h45.504V373.684z M383.185,297.248h-45.504v-82.321h45.504V297.248z M446.17,373.684h-39.154
		v-52.598h39.154V373.684z M446.17,297.248h-39.154v-82.321h39.154V297.248z"/>
</g>
</svg>