<?xml version="1.0" encoding="utf-8"?>

<!DOCTYPE svg PUBLIC "-//W3C//DTD SVG 1.1//EN" "http://www.w3.org/Graphics/SVG/1.1/DTD/svg11.dtd">
<!-- Uploaded to: SVG Repo, www.svgrepo.com, Generator: SVG Repo Mixer Tools -->
<svg version="1.1" id="_x32_" xmlns="http://www.w3.org/2000/svg" xmlns:xlink="http://www.w3.org/1999/xlink" 
	 width="800px" height="800px" viewBox="0 0 512 512"  xml:space="preserve">
<style type="text/css">
<![CDATA[
	:root { color-scheme: dark light; }
]]>
</style>
<g>
	<path fill="currentColor" d="M507.039,120.213c-0.625-0.609-1.25-1.141-1.922-1.641c-3.844-2.797-8.734-3.859-13.469-2.844l-4.953,1.078
		c-4.938,0.719-9.859,1.141-14.734,1.297c-8.422,0.266-16.734-0.297-24.828-1.703c-1.781-0.313-3.547-0.656-5.313-1.047
		c-14.406-3.203-28.016-9.172-40.25-18.078l-0.25-0.203l-20.719-15.172l-0.016-0.016c-2.234-1.609-4.813-2.469-7.359-2.609
		c-2.563-0.141-5.156,0.438-7.469,1.734c-1.547,0.875-2.984,2.125-4.094,3.656l-54.359,74.578l-0.078,0.188
		c-1.688,2.797-2.297,6.047-1.813,9.078c0.516,3.375,2.375,6.594,5.344,8.766l0.5,0.359l-55.266,75.844l-55.234-75.844l0.484-0.359
		c2.969-2.172,4.813-5.391,5.344-8.766c0.469-3.031-0.125-6.281-1.828-9.078l-0.078-0.188l-54.328-74.578
		c-1.125-1.531-2.563-2.781-4.094-3.656c-2.328-1.297-4.922-1.875-7.484-1.734c-2.547,0.141-5.125,1-7.344,2.609l-0.031,0.016
		l-20.719,15.172l-0.25,0.203c-12.234,8.906-25.828,14.875-40.25,18.078c-1.766,0.391-3.531,0.734-5.313,1.047
		c-8.094,1.406-16.406,1.969-24.828,1.703c-4.875-0.156-9.797-0.578-14.734-1.297l-4.953-1.078
		c-4.734-1.016-9.625,0.047-13.453,2.844c-0.688,0.5-1.313,1.031-1.938,1.641c-3.813,3.781-5.563,9.141-4.781,14.422
		c0.016,0.625,0.109,1.578,0.328,3.063c0.344,2.078,0.984,5.172,2.25,9.781c3.375,12.313,8.688,25.406,15.125,38.188
		c6.422,12.734,13.953,25.141,21.797,35.922c0.109,0.141,0.234,0.328,0.391,0.516c3.953,5.406,8.344,10.859,13.016,16.25
		c4.672,5.359,9.641,10.625,14.797,15.672c10.297,10.063,21.266,19.188,32.078,26.156c4.016,2.609,6.766,4.156,8.641,5.078
		c1.344,0.688,2.219,1.047,2.813,1.25c4.813,2.344,10.453,2.297,15.203-0.203c0.734-0.391,1.406-0.813,2.063-1.297
		c3.859-2.813,6.391-7.172,6.844-12.016l0.469-5.109c0.781-4.672,1.781-9.234,3-13.703c2.281-8.266,5.344-16.156,9.141-23.563
		c0.906-1.766,1.859-3.484,2.844-5.188c4.328-7.469,9.5-14.375,15.469-20.625l62.5,85.813l-84.781,116.375l35.344,25.75l76.484-105
		l76.5,105l35.344-25.75L283.039,290.62l62.516-85.813c5.969,6.25,11.141,13.156,15.469,20.625c0.984,1.703,1.938,3.422,2.844,5.188
		c3.797,7.406,6.859,15.297,9.141,23.563c1.219,4.469,2.219,9.031,3,13.703l0.469,5.109c0.453,4.844,2.984,9.203,6.844,12.016
		c0.656,0.484,1.328,0.906,2.063,1.297c4.766,2.5,10.406,2.547,15.203,0.203c0.594-0.203,1.469-0.563,2.813-1.25
		c1.875-0.922,4.625-2.469,8.641-5.078c10.813-6.969,21.797-16.094,32.079-26.156c5.156-5.047,10.125-10.313,14.797-15.672
		c4.672-5.391,9.063-10.844,13.016-16.25c0.156-0.188,0.281-0.375,0.391-0.516c7.844-10.781,15.375-23.188,21.813-35.922
		c6.422-12.781,11.734-25.875,15.109-38.188c1.266-4.609,1.906-7.703,2.25-9.781c0.234-1.484,0.313-2.438,0.328-3.063
		C512.602,129.354,510.867,123.995,507.039,120.213z M122.929,265.901c-0.375,2.297-0.578,3.719-0.672,4.797
		c-0.063,0.531-0.109,0.969-0.094,1.563c0,0.109,0,0.219,0.016,0.328c-0.25,0.703-0.688,1.313-1.281,1.75
		c-0.141,0.109-0.281,0.203-0.453,0.266c-1.063,0.578-2.344,0.563-3.422-0.031l-0.688-0.375l-0.531-0.156l-0.063-0.016
		c-0.547-0.219-3.125-1.375-8.609-4.922c-9.828-6.359-20.234-14.969-30-24.531c-9.781-9.563-18.953-20.094-26.406-30.266
		l-0.359-0.484c-7.391-10.141-14.578-21.984-20.703-34.109c-6.094-12.125-11.094-24.531-14.172-35.719
		c-1.172-4.266-1.688-6.922-1.922-8.391c-0.125-0.734-0.172-1.172-0.188-1.344v-0.047l0.031-0.563l-0.172-0.734
		c-0.234-1.219,0.141-2.438,1.016-3.313v-0.016c0.125-0.109,0.25-0.219,0.406-0.328c0.594-0.438,1.313-0.656,2.031-0.672
		c0.453,0.156,0.781,0.25,1.125,0.328c0.609,0.156,1.234,0.281,2.109,0.422c0.875,0.156,1.969,0.344,3.375,0.547
		c12.75,1.828,25.484,2.016,37.906,0.438c1.969,1.781,4.047,4.047,6.281,7.141c3.484,4.797,5.25,8.547,6.344,11.984
		c0.828,2.547,1.266,4.953,1.641,7.578c0.266,1.969,0.484,4.063,0.828,6.297c0.484,3.391,1.219,7.188,2.797,11.344
		c1.563,4.141,3.922,8.594,7.453,13.438c4.203,5.766,8.359,9.781,12.438,12.688c3.047,2.188,6.016,3.734,8.688,5.031
		c2.016,0.984,3.906,1.828,5.672,2.672c2.641,1.313,5.016,2.656,7.5,4.641c2.5,1.984,5.141,4.625,8.078,8.656
		c2.234,3.078,3.766,5.734,4.859,8.141C128.617,241.198,125.007,253.307,122.929,265.901z M176.617,414.291l-13.984-10.187
		l74.484-102.266l10.703,14.688L176.617,414.291z M349.367,404.104l-13.984,10.187l-71.219-97.765l-8.172-11.219l-10.703-14.688
		l-8.172-11.234l-60.891-83.594c1.391-1.141,2.828-2.266,4.297-3.344l9.563-7l57.734,79.25l8.172,11.219l10.703,14.703l8.172,11.219
		L349.367,404.104z M274.882,279.385l-10.703-14.688l57.734-79.25l9.563,7c1.469,1.078,2.906,2.203,4.313,3.344L274.882,279.385z
		 M498.617,134.213v0.047c0,0.172-0.063,0.609-0.188,1.344c-0.234,1.469-0.75,4.125-1.922,8.391
		c-3.078,11.188-8.078,23.594-14.172,35.719c-6.109,12.125-13.313,23.969-20.703,34.109l-0.344,0.484
		c-7.469,10.172-16.625,20.703-26.406,30.266c-9.782,9.563-20.188,18.172-30.016,24.531c-5.469,3.547-8.063,4.703-8.609,4.922
		l-0.063,0.016l-0.531,0.156l-0.688,0.375c-1.063,0.594-2.359,0.609-3.422,0.031c-0.172-0.063-0.313-0.156-0.453-0.266
		c-0.594-0.438-1.031-1.047-1.266-1.75v-0.328c0.016-0.594-0.031-1.031-0.094-1.563c-0.094-1.078-0.297-2.5-0.672-4.797
		c-2.078-12.594-5.688-24.703-10.859-35.969c1.109-2.406,2.641-5.063,4.859-8.141c2.938-4.031,5.578-6.672,8.078-8.656
		c2.484-1.984,4.859-3.328,7.516-4.641c1.75-0.844,3.641-1.688,5.656-2.672c2.672-1.297,5.641-2.844,8.688-5.031
		c4.078-2.906,8.234-6.922,12.438-12.688c3.532-4.844,5.891-9.297,7.454-13.438c1.578-4.156,2.313-7.953,2.813-11.344
		c0.328-2.234,0.547-4.328,0.813-6.297c0.375-2.625,0.813-5.031,1.641-7.578c1.094-3.438,2.875-7.188,6.344-11.984
		c2.25-3.094,4.313-5.359,6.297-7.141c12.406,1.578,25.156,1.391,37.891-0.438c1.406-0.203,2.5-0.391,3.375-0.547
		c0.875-0.141,1.5-0.266,2.109-0.422c0.344-0.078,0.688-0.172,1.125-0.328c0.734,0.016,1.438,0.234,2.031,0.672
		c0.156,0.109,0.297,0.219,0.406,0.328l0.016,0.016c0.859,0.875,1.234,2.094,1,3.313l-0.156,0.734L498.617,134.213z"/>
</g>
</svg>