<?xml version="1.0" encoding="utf-8"?>

<!DOCTYPE svg PUBLIC "-//W3C//DTD SVG 1.1//EN" "http://www.w3.org/Graphics/SVG/1.1/DTD/svg11.dtd">
<!-- Uploaded to: SVG Repo, www.svgrepo.com, Generator: SVG Repo Mixer Tools -->
<svg version="1.1" id="_x32_" xmlns="http://www.w3.org/2000/svg" xmlns:xlink="http://www.w3.org/1999/xlink" 
	 viewBox="0 0 512 512"  xml:space="preserve">
<style type="text/css">
	:root { color-scheme: dark light; }
</style>
<g>
	<polygon fill="currentColor" points="316.732,140.6 307.947,131.822 188.685,251.084 197.471,259.862 	"/>
	
		<rect x="250.387" y="205.831" transform="matrix(-0.7071 -0.7071 0.7071 -0.7071 241.9223 654.9115)" fill="currentColor" width="12.414" height="143.046"/>
	<path fill="currentColor" d="M489.12,0H366.039h-16.082H162.043H72.364H8.909v13.97v220.361v7.762v15.524v7.762v230.966l5.174,4.154
		c0.928,0.751,4.606,3.533,11.192,6.262C31.836,509.46,41.224,512,53.133,512h0.053l0.306-0.008v-0.008
		c11.81-0.046,25.887-2.607,41.742-9.536l0.03-0.016c8.646-3.759,14.206-4.684,18.314-4.692c5.143,0.016,8.906,1.418,15.335,3.957
		l2.888,1.137l-2.885-1.137c6.16,2.433,14.763,5.814,25.922,5.882v0.008l0.224,0.016h0.129h0.019h0.095h0.057l0.276-0.008v-0.008
		c7.448-0.03,15.676-1.494,25.008-4.745l7.569-2.653l6.049-2.115l-23.628-61.325h170.724l-23.628,61.325l11.666,4.078l1.956,0.682
		c9.195,3.206,17.306,4.662,24.667,4.737l0.22,0.031h0.36h0.038h0.057h0.113h0.012h0.012c11.328,0,20.026-3.45,26.25-5.906h0.004
		c6.428-2.539,10.192-3.942,15.335-3.957c4.116,0.008,9.68,0.933,18.348,4.708h-0.003c15.691,6.86,29.624,9.423,41.362,9.514
		l0.242,0.038h0.398h0.045h0.054h0.147v-0.008c11.833-0.023,21.18-2.54,27.71-5.23c6.588-2.729,10.264-5.511,11.192-6.262
		l2.85-2.289l2.323-1.865V265.381v-7.762v-15.524v-7.762V0H489.12z M158.742,21.733h194.516c1.289,5.943,3.476,15.873,6.364,28.464
		H152.379C155.255,37.652,157.45,27.691,158.742,21.733z M363.23,65.722c2.899,12.318,6.231,26.107,9.877,40.517
		c6.159,24.326,13.182,50.326,20.422,73.666c6.974,22.43,14.061,42.238,21.07,56.223v27.805l-43.053,111.75H140.455l-43.053-111.75
		v-27.805c7.008-13.985,14.096-33.793,21.069-56.223c11.512-37.122,22.51-81.072,30.302-114.183H363.23z M30.642,21.733h41.722
		h70.49c-3.844,17.564-12.822,57.542-23.746,99.045c-5.685,21.604-11.89,43.602-18.14,62.985
		c-5.481,17.018-11.045,32.073-16.146,42.806h-54.18V21.733z M30.642,242.094h51.236v15.524H30.642V242.094z M155.305,485.87
		c-7.092-0.015-12.148-1.925-18.417-4.389c-6.166-2.426-13.588-5.488-23.306-5.473c-7.687-0.007-16.454,1.888-27.051,6.527
		l7.114-3.108l-7.114,3.1c-13.508,5.897-24.613,7.74-33.398,7.747c-8.79-0.007-15.313-1.856-19.588-3.616
		c-1.14-0.47-2.092-0.924-2.903-1.341V273.143h53.669l81.439,211.386C161.741,485.453,158.277,485.87,155.305,485.87z
		 M155.608,415.016l-9.172-23.81h219.129l-9.176,23.81H155.608z M481.358,485.302c-3.824,1.993-11.324,4.966-22.49,4.966
		c-8.786,0-19.891-1.843-33.4-7.74v0.008c-10.597-4.64-19.364-6.534-27.05-6.527c-9.722-0.015-17.139,3.047-23.306,5.473
		c-6.269,2.464-11.324,4.374-18.416,4.389c-2.971,0-6.436-0.417-10.446-1.342l81.44-211.386h53.668V485.302z M481.358,257.618
		h-51.235v-15.524h51.235V257.618z M481.358,226.569h-54.169c-5.935-12.485-12.481-30.753-18.833-51.266
		c-10.677-34.407-21.01-75.205-28.647-107.338c-3.82-16.071-6.97-29.98-9.16-39.865c-0.527-2.365-0.994-4.488-1.402-6.368h112.212
		V226.569z"/>
</g>
</svg>