<?xml version="1.0" encoding="utf-8"?>

<!DOCTYPE svg PUBLIC "-//W3C//DTD SVG 1.1//EN" "http://www.w3.org/Graphics/SVG/1.1/DTD/svg11.dtd">
<!-- Uploaded to: SVG Repo, www.svgrepo.com, Generator: SVG Repo Mixer Tools -->
<svg height="800px" width="800px" version="1.1" id="_x32_" xmlns="http://www.w3.org/2000/svg" xmlns:xlink="http://www.w3.org/1999/xlink" 
	 viewBox="0 0 512 512"  xml:space="preserve">
<style type="text/css">
	:root { color-scheme: dark light; }
</style>
<g>
	<path fill="currentColor" d="M423.618,239.507c-9.48,0-18.559,1.664-27.14,4.443c0-16.093,0-30.744,0-42.794
		C396.47,124.304,334.181,62.022,257.33,62.015c-76.851,0.008-139.14,62.29-139.148,139.141c0,12.214,0,7.251,0,11.604
		c-5.892-1.077-11.932-1.723-18.136-1.723C44.785,211.044,0.008,255.822,0,311.097c0,42.831,0,95.41,0,127.476v11.412l200.093-0.008
		h184.973h11.412H512v-11.412c0-27.831,0-73.5,0-110.693C511.992,279.069,472.438,239.513,423.618,239.507z M177.269,427.154
		l-154.446,0.008c0-32.229,0-77.98,0-116.064c0.008-21.368,8.626-40.61,22.616-54.622c14.012-13.99,33.247-22.608,54.607-22.615
		c21.36,0.008,40.596,8.626,54.607,22.615c13.99,14.012,22.608,33.254,22.616,54.622
		C177.269,349.181,177.269,394.933,177.269,427.154z M373.654,427.154H200.093c0-32.222,0-77.973,0-116.057
		c-0.008-40.662-24.28-75.566-59.087-91.227c0-15.877,0-2.875,0-18.715c0.008-32.155,13.002-61.16,34.072-82.245
		c21.085-21.07,50.098-34.064,82.252-34.072c32.155,0.008,61.168,13.002,82.253,34.072c21.07,21.085,34.064,50.09,34.072,82.245
		C373.654,258.37,373.654,373.81,373.654,427.154z M489.176,427.154h-92.698c0-36.642,0-102.558,0-158.821
		c8.283-3.796,17.414-6.003,27.14-6.003c18.142,0.007,34.458,7.318,46.36,19.198c11.88,11.902,19.191,28.21,19.198,46.346
		C489.176,360.348,489.176,399.271,489.176,427.154z"/>
</g>
</svg>