<?xml version="1.0" encoding="utf-8"?>

<!DOCTYPE svg PUBLIC "-//W3C//DTD SVG 1.1//EN" "http://www.w3.org/Graphics/SVG/1.1/DTD/svg11.dtd">
<!-- Uploaded to: SVG Repo, www.svgrepo.com, Generator: SVG Repo Mixer Tools -->
<svg version="1.1" id="_x32_" xmlns="http://www.w3.org/2000/svg" xmlns:xlink="http://www.w3.org/1999/xlink" 
	 width="800px" height="800px" viewBox="0 0 512 512"  xml:space="preserve">
<style type="text/css">
<![CDATA[
	:root { color-scheme: dark light; }
]]>
</style>
<g>
	<path fill="currentColor" d="M226,236.25c9.375,1.625,18.547-6.125,20.438-17.25c1.906-11.156-4.172-21.469-13.563-23.094
		c-9.406-1.594-18.547,6.125-20.469,17.281C210.5,224.313,216.594,234.656,226,236.25z"/>
	<polygon fill="currentColor" points="257.531,246.813 270.75,246.813 257.531,230.297 244.313,246.813 	"/>
	<path fill="currentColor" d="M289.063,236.25c9.406-1.594,15.469-11.938,13.563-23.063c-1.891-11.156-11.063-18.875-20.438-17.281
		c-9.406,1.625-15.469,11.938-13.594,23.094C270.516,230.125,279.688,237.875,289.063,236.25z"/>
	<path fill="currentColor" d="M436.703,187.875c7.141,0,12.906-5.781,12.906-12.906s-5.766-12.906-12.906-12.906h-5.734V25.813h5.734
		c7.141,0,12.906-5.781,12.906-12.906S443.844,0,436.703,0H75.297c-7.141,0-12.906,5.781-12.906,12.906s5.766,12.906,12.906,12.906
		h5.734v116.75h45.906c5.375,0,9.734,4.359,9.734,9.75c0,5.375-4.359,9.75-9.734,9.75H81.031h-5.734
		c-7.141,0-12.906,5.781-12.906,12.906s5.766,12.906,12.906,12.906h5.734v116.75h45.906c5.375,0,9.734,4.344,9.734,9.75
		c0,5.375-4.359,9.75-9.734,9.75H81.031h-5.734c-7.141,0-12.906,5.781-12.906,12.906s5.766,12.906,12.906,12.906h5.734v136.25
		h-5.734c-7.141,0-12.906,5.781-12.906,12.906S68.156,512,75.297,512h361.406c7.141,0,12.906-5.781,12.906-12.906
		s-5.766-12.906-12.906-12.906h-5.734v-136.25h5.734c7.141,0,12.906-5.781,12.906-12.906s-5.766-12.906-12.906-12.906h-5.734
		v-136.25H436.703z M197.109,189.188c6.422-27.281,25.094-42.531,60.422-42.531c35.313,0,54,15.25,60.406,42.531
		c6.422,27.313,8.094,41.469,3.813,52.219c-5.906,14.781-23.25,22.109-33.625,25.266v12.469c0,2.266-1.828,4.078-4.094,4.078h-9.953
		c-2.266,0-4.094-1.813-4.094-4.078v-10.438h-3.391v10.438c0,2.266-1.828,4.078-4.094,4.078h-9.969c-2.25,0-4.063-1.813-4.063-4.078
		v-10.438h-3.406v10.438c0,2.266-1.844,4.078-4.094,4.078H231c-2.25,0-4.063-1.813-4.063-4.078v-12.469
		c-10.406-3.156-27.75-10.484-33.625-25.266C189,230.656,190.688,216.5,197.109,189.188z M305.875,335.625
		c1.734,0.813,5.5,2.031,7.922-1.125c3.328-5.75,10.531-8.125,16.672-5.281c6.531,3,9.359,10.719,6.344,17.219
		c-1.813,3.938-5.344,6.531-9.297,7.281c1.969,3.531,2.297,7.906,0.484,11.828c-3,6.516-10.719,9.359-17.219,6.359
		c-6.516-3.016-9.375-10.719-6.359-17.234c0.078-0.172,0.172-0.344,0.266-0.516c-0.5-0.875-1.266-1.719-2.406-2.406
		c-2.422-1.5-24.125-11.531-45.688-21.375c-19.75,9.438-38.656,18.5-40.203,19.219c-1.719,0.844-5.078,2.969-4.172,6.844
		c2.297,6.219-0.469,13.281-6.578,16.219c-6.453,3.094-14.234,0.344-17.328-6.125c-1.875-3.906-1.594-8.281,0.344-11.813
		c-3.969-0.719-7.531-3.25-9.422-7.156c-3.109-6.5-0.359-14.25,6.109-17.313c6.469-3.125,14.219-0.375,17.313,6.094
		c0.094,0.172,0.156,0.344,0.219,0.531c1,0.156,2.125,0.109,3.406-0.313c2.109-0.719,15.594-7.094,31.516-14.75
		C224.563,315.781,213.969,311,211.813,310c-4.156-1.938-10.813-4.5-13.969-1.453c-3.594,4.766-10.141,6.547-15.781,3.938
		c-6.5-2.984-9.344-10.703-6.344-17.234c1.813-3.938,5.375-6.5,9.313-7.281c-1.969-3.5-2.313-7.891-0.5-11.828
		c3.016-6.516,10.734-9.359,17.25-6.328c5.797,2.656,8.656,9.094,7.094,15.063c-0.094,5.422,4.047,7.844,10.344,10.75
		c2.813,1.297,19.344,8.938,37.219,17.188c19.031-9.219,36.828-17.875,39.719-19.25c4.125-1.984,10.344-5.469,10.031-9.844
		c-1.375-5.813,1.438-12,7.031-14.656c6.469-3.094,14.219-0.375,17.313,6.094c1.875,3.922,1.609,8.297-0.328,11.828
		c3.953,0.719,7.547,3.234,9.422,7.172c3.094,6.469,0.359,14.219-6.109,17.313c-5.766,2.75-12.547,0.875-16.141-4.156
		c-4.125-3.531-8.625-1.891-14.875,1.094c-2.281,1.094-13.594,6.5-27.281,13.063C291.156,328.844,304.594,335.031,305.875,335.625z"
		/>
</g>
</svg>