<?xml version="1.0" encoding="utf-8"?>

<!DOCTYPE svg PUBLIC "-//W3C//DTD SVG 1.1//EN" "http://www.w3.org/Graphics/SVG/1.1/DTD/svg11.dtd">
<!-- Uploaded to: SVG Repo, www.svgrepo.com, Generator: SVG Repo Mixer Tools -->
<svg version="1.1" id="_x32_" xmlns="http://www.w3.org/2000/svg" xmlns:xlink="http://www.w3.org/1999/xlink" 
	 viewBox="0 0 512 512"  xml:space="preserve">
<style type="text/css">
	:root { color-scheme: dark light; }
</style>
<g>
	<path fill="currentColor" d="M92.247,210.052v-60.734c8.987-2.492,15.615-10.647,15.615-20.43c0-3.633-0.995-6.997-2.6-9.991l57.578-49.122
		l-5.964-17.297l-65.37,55.764c-1.59-0.378-3.225-0.632-4.93-0.632c-11.75,0-21.279,9.536-21.279,21.278
		c0,7.576,3.974,14.181,9.922,17.954v63.21H49.373v32.735h413.254v-32.735H92.247z M95.795,128.889c0,2.924-1.436,5.416-3.549,7.098
		l0,0c-0.772,0.617-1.62,1.126-2.538,1.496c-0.988,0.362-2.022,0.633-3.132,0.633c-5.093,0-9.22-4.12-9.22-9.228
		c0-0.995,0.277-1.92,0.578-2.824h-0.007c0.501-1.528,1.311-2.862,2.469-3.919l0,0c0.81-0.74,1.75-1.358,2.785-1.79
		c1.057-0.417,2.191-0.679,3.395-0.679c1.18,0,2.291,0.262,3.325,0.671c0.648,0.254,1.203,0.656,1.758,1.057
		c0.286,0.193,0.594,0.355,0.85,0.57c0.725,0.656,1.365,1.412,1.851,2.268c0.008,0.016,0.008,0.016,0.016,0.031
		c0.516,0.903,0.887,1.913,1.088,2.978l0,0C95.572,127.801,95.795,128.31,95.795,128.889z"/>
	<polygon fill="currentColor" points="409.524,305.026 409.524,512 450.592,512 450.592,254.831 409.524,254.831 	"/>
	<polygon fill="currentColor" points="61.416,512 102.492,512 102.492,305.026 102.492,254.831 61.416,254.831 	"/>
	<rect x="114.528" y="254.831" fill="currentColor" width="283.863" height="50.195"/>
	<polygon fill="currentColor" points="172.793,58.018 191.656,112.811 269.34,35.127 214.562,16.256 209.254,21.556 187.698,0 
		156.544,31.161 178.108,52.71 	"/>
</g>
</svg>