<?xml version="1.0" encoding="utf-8"?>

<!DOCTYPE svg PUBLIC "-//W3C//DTD SVG 1.1//EN" "http://www.w3.org/Graphics/SVG/1.1/DTD/svg11.dtd">
<!-- Uploaded to: SVG Repo, www.svgrepo.com, Generator: SVG Repo Mixer Tools -->
<svg height="800px" width="800px" version="1.1" id="_x32_" xmlns="http://www.w3.org/2000/svg" xmlns:xlink="http://www.w3.org/1999/xlink" 
	 viewBox="0 0 512 512"  xml:space="preserve">
<style type="text/css">
	:root { color-scheme: dark light; }
</style>
<g>
	<path fill="currentColor" d="M474.855,259.763c-5.181-29.486-11.337-60.124-20.136-89.699c-6.595-22.182-14.687-43.785-25.056-63.847
		C421.884,91.18,412.817,77,402.099,64.159c-8.04-9.632-17.002-18.498-27.007-26.366c-15-11.807-32.344-21.327-52.16-27.818
		C303.109,3.476,280.867-0.008,256.004,0c-19.653,0-37.66,2.166-54.132,6.282c-14.412,3.603-27.64,8.702-39.721,15.089
		c-21.148,11.173-38.686,26.284-53.134,43.86c-10.854,13.183-19.987,27.75-27.804,43.189c-11.716,23.166-20.471,48.304-27.446,74
		c-6.968,25.689-12.156,51.951-16.615,77.342c-3.432,19.577-5.397,39.304-5.397,58.725c0.008,25.205,3.297,49.919,11.106,73.002
		c5.851,17.3,14.27,33.677,25.682,48.408c8.56,11.054,18.788,21.164,30.773,30.051c17.97,13.34,39.833,23.88,65.812,31.048
		c25.994,7.169,56.104,10.995,90.876,11.002c41.202-0.008,75.883-5.382,104.877-15.327c21.736-7.459,40.272-17.516,55.733-29.731
		c11.598-9.149,21.445-19.503,29.634-30.759c12.29-16.882,20.812-35.745,26.224-55.621c5.426-19.89,7.771-40.807,7.771-62.074
		C480.244,299.066,478.279,279.34,474.855,259.763z M442.935,382.624c-4.98,14.717-11.977,28.242-21.349,40.339
		c-7.034,9.081-15.401,17.367-25.384,24.766c-14.962,11.098-33.557,20.21-56.693,26.604c-23.121,6.379-50.767,10.004-83.505,10.004
		c-38.813,0-70.45-5.092-95.9-13.831c-19.101-6.558-34.741-15.148-47.574-25.272c-9.625-7.601-17.665-16.079-24.409-25.324
		c-10.094-13.876-17.24-29.545-21.9-46.629c-4.667-17.077-6.804-35.568-6.804-54.795c0-17.56,1.787-35.723,4.98-53.946
		c5.084-29.001,11.084-58.643,19.4-86.595c6.23-20.962,13.771-40.964,23.113-59.023c7.012-13.548,15.014-26.001,24.23-37.041
		c6.908-8.277,14.5-15.758,22.876-22.346c12.565-9.878,26.902-17.768,43.673-23.277c16.771-5.494,36.014-8.598,58.316-8.598
		c17.62,0,33.326,1.936,47.418,5.464c12.326,3.082,23.418,7.37,33.498,12.699c17.627,9.334,32.247,21.855,44.708,36.981
		c9.335,11.345,17.427,24.164,24.483,38.098c10.578,20.91,18.796,44.321,25.421,68.767c6.64,24.438,11.687,49.889,16.072,74.87
		c3.2,18.223,4.98,36.394,4.98,53.946C452.583,341.289,449.583,363.018,442.935,382.624z"/>
	<path fill="currentColor" d="M391.245,198.574c0-48.735-39.505-88.24-88.247-88.24h-93.995c-48.735,0-88.247,39.505-88.247,88.24
		c0,48.736-6.328,88.256,42.415,88.256h45.832h93.995h45.832C397.58,286.829,391.245,247.309,391.245,198.574z M316.285,167.786
		c9.059,0,16.421,7.354,16.421,16.421c0,9.066-7.362,16.421-16.421,16.421c-9.075,0-16.414-7.355-16.414-16.421
		C299.871,175.14,307.21,167.786,316.285,167.786z M195.716,167.786c9.059,0,16.421,7.354,16.421,16.421
		c0,9.066-7.362,16.421-16.421,16.421c-9.075,0-16.414-7.355-16.414-16.421C179.302,175.14,186.641,167.786,195.716,167.786z
		 M157.603,276.564c-15.312-25.511,10.198-56.12,52.718-54.423c34.361,1.37,39.825-2.791,40.659-4.451
		C238.689,283.1,162.687,249.438,157.603,276.564z M354.398,276.564c-5.084-27.126-81.087,6.536-93.376-58.874
		c0.833,1.66,6.297,5.821,40.658,4.451C344.199,220.444,369.695,251.053,354.398,276.564z"/>
	<path fill="currentColor" d="M128.244,316.374c-8.382,0-15.186,6.796-15.186,15.186v72.653c0,8.382,6.804,15.186,15.186,15.186
		c8.389,0,15.186-6.804,15.186-15.186v-72.653C143.429,323.17,136.633,316.374,128.244,316.374z"/>
	<path fill="currentColor" d="M209.308,313.761c-8.382,0-15.186,6.796-15.186,15.186V439.66c0,8.389,6.804,15.186,15.186,15.186
		c8.39,0,15.186-6.796,15.186-15.186V328.947C224.494,320.558,217.698,313.761,209.308,313.761z"/>
	<path fill="currentColor" d="M302.693,313.761c-8.39,0-15.186,6.796-15.186,15.186V439.66c0,8.389,6.796,15.186,15.186,15.186
		c8.382,0,15.185-6.796,15.185-15.186V328.947C317.877,320.558,311.074,313.761,302.693,313.761z"/>
	<path fill="currentColor" d="M383.756,316.374c-8.39,0-15.186,6.796-15.186,15.186v72.653c0,8.382,6.796,15.186,15.186,15.186
		c8.382,0,15.186-6.804,15.186-15.186v-72.653C398.942,323.17,392.138,316.374,383.756,316.374z"/>
</g>
</svg>