<?xml version="1.0" encoding="utf-8"?>

<!DOCTYPE svg PUBLIC "-//W3C//DTD SVG 1.1//EN" "http://www.w3.org/Graphics/SVG/1.1/DTD/svg11.dtd">
<!-- Uploaded to: SVG Repo, www.svgrepo.com, Generator: SVG Repo Mixer Tools -->
<svg height="800px" width="800px" version="1.1" id="_x32_" xmlns="http://www.w3.org/2000/svg" xmlns:xlink="http://www.w3.org/1999/xlink" 
	 viewBox="0 0 512 512"  xml:space="preserve">
<style type="text/css">
	:root { color-scheme: dark light; }
</style>
<g>
	<path fill="currentColor" d="M452.44,18.525H253.909v0.008l-194.34-0.008C26.661,18.54,0.007,45.194,0,78.101v179.186
		c0,67.256,33.97,129.968,90.306,166.71l56.974,37.16c32.34,21.093,70.115,32.309,108.725,32.317
		c38.606-0.008,76.381-11.224,108.717-32.317l56.977-37.16C478.046,387.255,512,324.536,512,257.288V78.101
		C511.992,45.194,485.346,18.54,452.44,18.525z M32.262,122.461h72.482c15.639,0,29.686,6.301,39.944,16.54
		c9.786,9.798,15.906,23.094,16.442,37.901c-0.536,14.807-6.656,28.087-16.442,37.9c-10.258,10.24-24.306,16.532-39.944,16.541
		H32.262V122.461z M164.903,434.135l-56.97-37.153c-22.282-14.54-40.319-33.955-53.228-56.3
		c38.11,4.002,69.906,14.824,93.003,31.774c14.875,10.901,26.331,24.196,34.227,40.154c5.261,10.665,8.782,22.692,10.648,35.963
		C182.979,444.618,173.684,439.861,164.903,434.135z M404.071,396.982l-56.978,37.16c-8.774,5.718-18.068,10.476-27.673,14.43
		c1.87-13.272,5.391-25.298,10.653-35.963c11.838-23.889,31.71-42.013,59.072-54.583c19.266-8.837,42.28-14.665,68.169-17.367
		C444.406,363.012,426.361,382.442,404.071,396.982z M479.739,231.343h-72.486c-15.642-0.008-29.686-6.301-39.94-16.541
		c-9.79-9.814-15.906-23.093-16.442-37.9c0.536-14.807,6.652-28.103,16.442-37.901c10.254-10.239,24.298-16.54,39.94-16.54h72.486
		V231.343z M479.739,98.265h-72.486c-43.186,0-78.322,33.931-80.472,76.589h-0.209v4.096h0.209
		c2.15,42.642,37.286,76.582,80.472,76.59h72.486v1.748c0,20.132-3.694,39.744-10.507,58.088
		c-47.447,2.852-88.372,15.052-119.216,37.546c-17.721,12.949-31.974,29.379-41.634,48.976
		c-8.041,16.256-12.842,34.656-14.252,54.834c-12.44,2.914-25.22,4.482-38.125,4.482c-12.905,0-25.685-1.568-38.126-4.482
		c-1.41-20.178-6.21-38.578-14.252-54.834c-14.5-29.442-39.298-51.543-70.694-65.878c-25.901-11.838-56.374-18.557-90.141-20.596
		c-6.832-18.352-10.53-37.988-10.53-58.135v-1.748h72.482c43.182-0.008,78.326-33.947,80.476-76.59h0.209v-4.096h-0.209
		c-2.15-42.658-37.294-76.589-80.476-76.589H32.262V78.101c0.007-7.593,3.032-14.319,7.998-19.312
		c4.989-4.963,11.716-7.987,19.308-7.994h194.34h4.183H452.44c7.592,0.007,14.311,3.032,19.304,7.994
		c4.962,4.993,7.986,11.72,7.994,19.312V98.265z"/>
</g>
</svg>