<?xml version="1.0" encoding="utf-8"?>

<!DOCTYPE svg PUBLIC "-//W3C//DTD SVG 1.1//EN" "http://www.w3.org/Graphics/SVG/1.1/DTD/svg11.dtd">
<!-- Uploaded to: SVG Repo, www.svgrepo.com, Generator: SVG Repo Mixer Tools -->
<svg height="800px" width="800px" version="1.1" id="_x32_" xmlns="http://www.w3.org/2000/svg" xmlns:xlink="http://www.w3.org/1999/xlink" 
	 viewBox="0 0 512 512"  xml:space="preserve">
<style type="text/css">
	:root { color-scheme: dark light; }
</style>
<g>
	<path fill="currentColor" d="M256,0c-66.257,0-119.97,53.712-119.97,119.97c0,9.3,1.064,18.349,3.065,27.037
		c2,8.688,19.583,21.692,36.39,16.15c16.817-5.533,20.557-25.036,19.385-30.768c-0.819-4.011-1.252-8.165-1.252-12.419
		c0-34.454,27.928-62.382,62.382-62.382s62.382,27.929,62.382,62.382c0,110.372-182.352,49.585-182.352,203.153v147.16
		c0,23.043,18.674,41.717,41.718,41.717h156.505c23.044,0,41.717-18.674,41.717-41.717V119.97C375.97,53.712,322.258,0,256,0z"/>
</g>
</svg>