<?xml version="1.0" encoding="utf-8"?>

<!DOCTYPE svg PUBLIC "-//W3C//DTD SVG 1.1//EN" "http://www.w3.org/Graphics/SVG/1.1/DTD/svg11.dtd">
<!-- Uploaded to: SVG Repo, www.svgrepo.com, Generator: SVG Repo Mixer Tools -->
<svg height="800px" width="800px" version="1.1" id="_x32_" xmlns="http://www.w3.org/2000/svg" xmlns:xlink="http://www.w3.org/1999/xlink" 
	 viewBox="0 0 512 512"  xml:space="preserve">
<style type="text/css">
	:root { color-scheme: dark light; }
</style>
<g>
	<path fill="currentColor" d="M344.304,36.58C321.739,13.995,290.458,0,256,0c-34.458,0-65.739,13.995-88.304,36.58
		c-22.585,22.573-36.587,53.853-36.58,88.305c0,9.664,1.101,19.091,3.184,28.142c0.896,3.725,2.696,6.665,4.885,9.368
		c3.316,4.008,7.706,7.482,12.974,10.166c5.254,2.65,11.43,4.482,18.155,4.482c3.586,0,7.298-0.534,10.964-1.74l0.053-0.013
		c4.878-1.608,9.031-4.18,12.334-7.212c4.997-4.562,8.128-9.994,10.08-15.07c0.976-2.545,1.655-5.017,2.103-7.344
		c0.448-2.334,0.672-4.496,0.672-6.553c-0.007-1.358-0.086-2.65-0.382-4.114l0.006,0.013c-0.666-3.27-1.021-6.645-1.021-10.126
		c0.006-14.082,5.682-26.739,14.905-35.974c9.236-9.223,21.893-14.892,35.974-14.899c14.081,0.007,26.738,5.676,35.974,14.899
		c9.223,9.236,14.898,21.893,14.905,35.974c-0.013,12.044-2.439,21.069-6.434,28.478c-3.52,6.48-8.346,11.84-14.464,16.646
		c-10.666,8.405-25.374,14.825-41.65,21.101c-12.196,4.72-25.236,9.408-38.058,15.202c-9.618,4.351-19.118,9.335-28.011,15.498
		c-13.343,9.236-25.354,21.273-33.826,37.484c-8.484,16.197-13.336,36.33-13.323,61.401v141.847
		c-0.007,13.627,5.551,26.053,14.483,34.966c8.926,8.939,21.346,14.497,34.972,14.49h150.859
		c13.626,0.007,26.046-5.551,34.966-14.49c8.939-8.913,14.497-21.339,14.49-34.966V124.885
		C380.892,90.434,366.889,59.153,344.304,36.58z M362.387,462.544c-0.007,8.57-3.455,16.257-9.072,21.887
		c-5.63,5.616-13.31,9.058-21.886,9.071H180.571c-8.576-0.013-16.256-3.454-21.886-9.071c-5.617-5.63-9.065-13.317-9.065-21.887
		V320.697c0-17.594,2.604-31.715,6.955-43.292c3.817-10.126,8.972-18.359,15.175-25.406c10.818-12.295,25.078-21.004,40.932-28.275
		c11.873-5.452,24.563-10.06,37.056-14.866c9.367-3.612,18.63-7.344,27.378-11.728c6.553-3.289,12.829-6.961,18.611-11.279
		c8.655-6.46,16.223-14.49,21.497-24.629c5.294-10.139,8.175-22.23,8.155-36.337c0.007-19.131-7.779-36.529-20.317-49.06
		C292.535,63.286,275.131,55.507,256,55.507c-19.131,0-36.534,7.779-49.06,20.318c-12.538,12.532-20.324,29.929-20.318,49.06
		c0,4.694,0.469,9.289,1.372,13.732l0.013,0.125l0.013,0.369c0,0.87-0.164,2.545-0.64,4.39c-0.692,2.789-2.056,5.986-4.021,8.544
		c-1.991,2.571-4.39,4.522-7.845,5.683c-0.006,0-0.006,0-0.006,0l-0.02,0.007c-1.707,0.56-3.428,0.81-5.175,0.81
		c-2.188,0-4.456-0.408-6.632-1.154c-3.27-1.101-6.336-2.999-8.438-4.911c-1.054-0.95-1.859-1.886-2.34-2.604
		c-0.244-0.349-0.408-0.653-0.494-0.837l-0.079-0.184c-1.773-7.7-2.71-15.716-2.71-23.97c0-29.402,11.886-55.942,31.155-75.219
		C200.057,30.397,226.591,18.511,256,18.505c29.408,0.006,55.943,11.892,75.225,31.162c19.27,19.276,31.156,45.817,31.163,75.219
		V462.544z"/>
</g>
</svg>