<?xml version="1.0" encoding="utf-8"?>

<!DOCTYPE svg PUBLIC "-//W3C//DTD SVG 1.1//EN" "http://www.w3.org/Graphics/SVG/1.1/DTD/svg11.dtd">
<!-- Uploaded to: SVG Repo, www.svgrepo.com, Generator: SVG Repo Mixer Tools -->
<svg height="800px" width="800px" version="1.1" id="_x32_" xmlns="http://www.w3.org/2000/svg" xmlns:xlink="http://www.w3.org/1999/xlink" 
	 viewBox="0 0 512 512"  xml:space="preserve">
<style type="text/css">
	:root { color-scheme: dark light; }
</style>
<g>
	<path fill="currentColor" d="M478.609,361.547h-4.21C467.124,247.228,372.16,156.75,256,156.742
		C139.841,156.75,44.877,247.228,37.602,361.547h-4.21C14.95,361.547,0,376.497,0,394.938c0,18.442,14.95,33.391,33.391,33.391
		h445.218c18.442,0,33.391-14.949,33.391-33.391C512,376.497,497.051,361.547,478.609,361.547z M67.421,360.8
		c3.594-46.354,23.79-87.949,54.782-118.956c34.29-34.268,81.5-55.413,133.797-55.421c52.298,0.008,99.508,21.152,133.798,55.421
		c30.986,31.007,51.188,72.602,54.782,118.956H67.421z"/>
	<path fill="currentColor" d="M224.696,133.758h62.609c13.833,0,25.044-11.211,25.044-25.044c0-13.834-11.211-25.044-25.044-25.044h-62.609
		c-13.834,0-25.043,11.21-25.043,25.044C199.653,122.547,210.862,133.758,224.696,133.758z"/>
	<path fill="currentColor" d="M114.92,338.185h44.891c0-72.478,55.116-112.42,55.116-112.42C158.638,232.337,114.92,280.12,114.92,338.185z"
		/>
</g>
</svg>