<?xml version="1.0" encoding="utf-8"?>

<!DOCTYPE svg PUBLIC "-//W3C//DTD SVG 1.1//EN" "http://www.w3.org/Graphics/SVG/1.1/DTD/svg11.dtd">
<!-- Uploaded to: SVG Repo, www.svgrepo.com, Generator: SVG Repo Mixer Tools -->
<svg height="800px" width="800px" version="1.1" id="_x32_" xmlns="http://www.w3.org/2000/svg" xmlns:xlink="http://www.w3.org/1999/xlink" 
	 viewBox="0 0 512 512"  xml:space="preserve">
<style type="text/css">
	:root { color-scheme: dark light; }
</style>
<g>
	<path fill="currentColor" d="M476.554,378.785H35.446C15.869,378.785,0,394.653,0,414.231c0,19.577,15.869,35.446,35.446,35.446h441.108
		c19.576,0,35.446-15.869,35.446-35.446C512,394.653,496.13,378.785,476.554,378.785z"/>
	<path fill="currentColor" d="M222.769,115.492h66.462c14.685,0,26.584-11.9,26.584-26.585c0-14.684-11.9-26.584-26.584-26.584h-66.462
		c-14.684,0-26.584,11.9-26.584,26.584C196.184,103.593,208.084,115.492,222.769,115.492z"/>
	<path fill="currentColor" d="M256,140.1c-119.63,0-216.615,96.984-216.615,216.615h433.23C472.615,237.084,375.631,140.1,256,140.1z
		 M164.907,321.269H94.523c0-70.669,53.2-128.822,121.715-136.823L164.907,321.269z"/>
</g>
</svg>