<?xml version="1.0" encoding="utf-8"?>

<!DOCTYPE svg PUBLIC "-//W3C//DTD SVG 1.1//EN" "http://www.w3.org/Graphics/SVG/1.1/DTD/svg11.dtd">
<!-- Uploaded to: SVG Repo, www.svgrepo.com, Generator: SVG Repo Mixer Tools -->
<svg version="1.1" id="_x32_" xmlns="http://www.w3.org/2000/svg" xmlns:xlink="http://www.w3.org/1999/xlink" 
	 width="800px" height="800px" viewBox="0 0 512 512"  xml:space="preserve">
<style type="text/css">
<![CDATA[
	:root { color-scheme: dark light; }
]]>
</style>
<g>
	<path fill="currentColor" d="M4.884,507.129c6.5,6.5,17.047,6.5,23.563,0L4.884,483.566C-1.631,490.066-1.631,500.613,4.884,507.129z"/>
	<path fill="currentColor" d="M510.963,221.426c-47.266,10.141-106.829-2-139.969-35.141l-87.406,87.406
		c33.125,33.125,45.281,92.703,35.156,139.953c50.703,5.563,103.375-11.094,142.25-49.953
		C499.869,324.801,516.51,272.145,510.963,221.426z"/>
	<path fill="currentColor" d="M240.494,226.238l83.063-83.047c-31.484-31.484-43.109-94.891-32.984-142.156
		c-50.703-5.547-103.375,11.109-142.25,49.984s-55.516,91.531-49.969,142.234C145.619,183.145,209.009,194.754,240.494,226.238z"/>
	<polygon fill="currentColor" points="346.65,139.348 111.791,374.207 137.791,400.223 372.65,165.348 	"/>
	<path fill="currentColor" d="M103.103,381.551c-4.547-4.547-11.891-4.547-16.422-0.016c-4.547,4.547-4.547,11.891,0,16.422l0.672,0.688
		l-60.156,60.172l-0.688-0.688c-4.531-4.531-11.891-4.531-16.422,0c-4.531,4.547-4.531,11.891,0,16.422l27.375,27.375
		c4.531,4.531,11.875,4.516,16.406,0c4.531-4.547,4.531-11.906,0-16.422l-0.688-0.703l60.188-60.156l0.672,0.688
		c4.547,4.531,11.875,4.516,16.438,0c4.516-4.547,4.516-11.891,0-16.422L103.103,381.551z"/>
</g>
</svg>