<?xml version="1.0" encoding="utf-8"?>

<!DOCTYPE svg PUBLIC "-//W3C//DTD SVG 1.1//EN" "http://www.w3.org/Graphics/SVG/1.1/DTD/svg11.dtd">
<!-- Uploaded to: SVG Repo, www.svgrepo.com, Generator: SVG Repo Mixer Tools -->
<svg version="1.1" id="_x32_" xmlns="http://www.w3.org/2000/svg" xmlns:xlink="http://www.w3.org/1999/xlink" 
	 width="800px" height="800px" viewBox="0 0 512 512"  xml:space="preserve">
<style type="text/css">
<![CDATA[
	:root { color-scheme: dark light; }
]]>
</style>
<g>
	<path fill="currentColor" d="M511.944,316.396c-0.063-0.141-0.188-0.234-0.313-0.281l-23.703-7.328c-0.266-0.094-0.531,0.047-0.641,0.297
		l-1.016,2.672c-0.094,0.25,0.016,0.547,0.266,0.656l22.578,10.313c0.125,0.063,0.266,0.063,0.422,0.016
		c0.109-0.063,0.219-0.172,0.281-0.297l2.141-5.641C512.022,316.662,512.007,316.506,511.944,316.396z"/>
	<path fill="currentColor" d="M439.288,293.818l1.016-2.656c0.094-0.266-0.031-0.531-0.266-0.672l-22.578-10.297
		c-0.125-0.047-0.281-0.047-0.422-0.016c-0.125,0.063-0.234,0.172-0.281,0.297l-2.156,5.656c-0.047,0.125-0.031,0.266,0.016,0.391
		c0.078,0.125,0.188,0.234,0.328,0.281l23.703,7.344C438.897,294.225,439.194,294.084,439.288,293.818z"/>
	<path fill="currentColor" d="M485.647,289.865l1.172,2.625c0.109,0.25,0.391,0.375,0.641,0.281l23.25-8.688
		c0.156-0.047,0.266-0.156,0.328-0.281c0.047-0.125,0.047-0.281-0.016-0.422l-2.469-5.5c-0.063-0.125-0.172-0.234-0.297-0.266
		c-0.141-0.047-0.297-0.031-0.406,0.016l-21.969,11.578C485.647,289.334,485.538,289.615,485.647,289.865z"/>
	<path fill="currentColor" d="M439.101,310.146l-23.266,8.688c-0.125,0.047-0.234,0.156-0.297,0.281s-0.047,0.281,0.016,0.406l2.453,5.5
		c0.078,0.141,0.172,0.25,0.297,0.281c0.156,0.063,0.313,0.031,0.422-0.031l21.969-11.578c0.234-0.109,0.344-0.406,0.219-0.656
		l-1.172-2.609C439.632,310.178,439.351,310.068,439.101,310.146z"/>
	<path fill="currentColor" d="M474.226,278.209l10.313-22.578c0.063-0.125,0.063-0.281,0.031-0.406c-0.078-0.141-0.156-0.234-0.313-0.281
		l-5.641-2.156c-0.125-0.047-0.281-0.047-0.391,0c-0.141,0.078-0.234,0.188-0.281,0.328l-7.344,23.703
		c-0.078,0.266,0.063,0.547,0.297,0.641l2.688,1.016C473.835,278.568,474.132,278.459,474.226,278.209z"/>
	<path fill="currentColor" d="M452.976,324.443c-0.25-0.094-0.531,0.016-0.656,0.266l-10.297,22.578c-0.063,0.125-0.063,0.281,0,0.406
		c0.031,0.141,0.156,0.25,0.266,0.281l5.656,2.156c0.141,0.063,0.281,0.047,0.406-0.016s0.234-0.172,0.266-0.313l7.344-23.703
		c0.094-0.266-0.047-0.531-0.313-0.641L452.976,324.443z"/>
	<path fill="currentColor" d="M475.522,324.053c-0.125-0.25-0.422-0.328-0.656-0.219l-2.609,1.172c-0.25,0.109-0.375,0.391-0.281,0.641
		l8.672,23.25c0.063,0.141,0.156,0.25,0.281,0.297c0.141,0.063,0.297,0.078,0.422,0l5.5-2.469c0.141-0.063,0.234-0.156,0.281-0.297
		s0.031-0.281-0.031-0.422L475.522,324.053z"/>
	<path fill="currentColor" d="M461.272,285.318c-1.266-4.375-1.844-8.969-1.844-13.813c-0.016-8.188,1.672-17.094,4.344-26.484
		c3.984-14.063,10.141-29.125,15.391-44.531c2.625-7.719,5.031-15.516,6.781-23.391s2.859-15.813,2.859-23.781
		c0-9.094-1.469-18.219-5.094-27.094c-3.609-8.891-9.359-17.422-17.641-25.391c-9.219-8.891-19.094-15.344-29.234-19.531
		c-10.141-4.172-20.563-6.094-30.844-6.094c-15.109,0-29.906,4.094-43.547,10.969c-3.703,1.859-7.313,3.938-10.828,6.188
		c-19-18.203-40.297-28.75-55.625-28.75h-0.016c-6.25,0-11.516,1.75-15.219,5.453L5.46,344.365
		c-13.141,13.156-1.75,45.875,25.469,73.094c27.219,27.203,59.938,38.609,73.094,25.469l275.281-275.297
		c12.031-12.031,3.516-40.438-18.859-66.016c2.5-1.531,5.047-2.953,7.625-4.25c12.203-6.141,25.094-9.625,37.922-9.625
		c8.734,0,17.453,1.609,26.063,5.156s17.109,9.047,25.328,16.969c7.141,6.891,11.797,13.906,14.734,21.094
		c2.922,7.188,4.156,14.594,4.156,22.359c0,9.047-1.703,18.563-4.375,28.344c-3.984,14.641-10.125,29.797-15.359,44.875
		c-2.625,7.547-5.016,15.078-6.781,22.578c-1.75,7.5-2.859,14.984-2.859,22.391c0,5.844,0.703,11.656,2.359,17.328
		s4.281,11.203,8,16.406c2.016,2.828,5.922,3.469,8.75,1.453c2.797-2,3.453-5.906,1.453-8.734
		C464.538,293.881,462.569,289.693,461.272,285.318z M368.897,140.818c3.188,9.172,2.656,15.359,0.828,17.203
		c-1.313,1.297-4.094,1.484-5.641,1.484c-10.609,0-29.641-8.328-48.266-26.953c-11.578-11.563-20.563-24.938-24.641-36.688
		c-3.203-9.172-2.672-15.359-0.828-17.203c1.297-1.281,4.078-1.484,5.641-1.484c9.859,0,27.031,7.219,44.359,23.219
		c-5.25,4.188-10.219,8.75-14.859,13.641c-2.375,2.516-2.281,6.484,0.234,8.859s6.469,2.266,8.844-0.25
		c4.563-4.797,9.469-9.25,14.641-13.25C358.366,119.631,365.413,130.818,368.897,140.818z"/>
</g>
</svg>