<?xml version="1.0" encoding="utf-8"?>

<!DOCTYPE svg PUBLIC "-//W3C//DTD SVG 1.1//EN" "http://www.w3.org/Graphics/SVG/1.1/DTD/svg11.dtd">
<!-- Uploaded to: SVG Repo, www.svgrepo.com, Generator: SVG Repo Mixer Tools -->
<svg height="800px" width="800px" version="1.1" id="_x32_" xmlns="http://www.w3.org/2000/svg" xmlns:xlink="http://www.w3.org/1999/xlink" 
	 viewBox="0 0 512 512"  xml:space="preserve">
<style type="text/css">
	:root { color-scheme: dark light; }
</style>
<g>
	<path fill="currentColor" d="M495.933,291.795c-3.648-10.315-8.587-17.694-13.29-22.948c-4.711-5.246-9.223-8.405-12.488-10.3
		c-3.28-1.897-5.33-2.54-5.322-2.546c4.71-1.935,10.01-3.212,15.309-3.984c5.3-0.773,10.599-1.033,15.318-0.994
		c9.444,0.069,16.54,1.43,16.54,1.438c-1.919-7.953-4.466-14.926-7.341-20.991c-2.883-6.056-6.102-11.202-9.414-15.546
		c-3.303-4.352-6.714-7.908-10.04-10.813c-3.326-2.913-6.592-5.185-9.635-6.958c-6.102-3.533-11.371-5.139-15.064-5.942
		c-3.694-0.788-5.842-0.757-5.842-0.757c3.9-3.304,8.534-6.148,13.329-8.519c4.802-2.378,9.764-4.267,14.269-5.69
		c9.001-2.86,16.174-3.755,16.174-3.755c-4.283-6.974-8.87-12.823-13.498-17.695c-4.626-4.871-9.283-8.756-13.78-11.868
		c-9-6.21-17.344-9.276-24.218-10.76c-6.905-1.483-12.404-1.376-16.166-0.986c-3.762,0.397-5.804,1.093-5.804,1.093
		c2.684-4.351,6.202-8.496,10.041-12.243c3.823-3.739,7.953-7.074,11.791-9.819c7.686-5.506,14.216-8.588,14.231-8.572
		c-6.24-5.315-12.412-9.452-18.307-12.648c-5.903-3.196-11.524-5.46-16.754-7.028c-10.484-3.128-19.355-3.487-26.367-2.784
		c-7.028,0.719-12.22,2.508-15.685,4.03c-3.448,1.544-5.177,2.814-5.184,2.814c1.216-4.956,3.296-9.98,5.789-14.721
		c2.485-4.741,5.398-9.184,8.212-12.978c2.807-3.792,5.514-6.928,7.54-9.114c2.018-2.187,3.349-3.418,3.349-3.418
		c-7.57-3.128-14.713-5.17-21.312-6.4c-6.6-1.231-12.649-1.652-18.116-1.53c-10.935,0.26-19.485,2.653-25.931,5.498
		c-6.455,2.853-10.844,6.171-13.658,8.695c-2.807,2.523-4.053,4.282-4.053,4.282c-0.374-5.093,0.038-10.514,0.933-15.798
		c0.902-5.277,2.294-10.401,3.793-14.881c2.967-8.955,6.446-15.295,6.462-15.287c-8.167-0.634-15.608-0.352-22.253,0.52
		c-6.668,0.887-12.549,2.364-17.703,4.176c-10.316,3.648-17.695,8.58-22.941,13.283c-5.254,4.719-8.412,9.223-10.308,12.495
		c-1.897,3.273-2.539,5.33-2.539,5.33c-1.942-4.734-3.212-10.018-3.992-15.318c-0.772-5.299-1.024-10.598-0.986-15.324
		C251.091,7.096,252.444,0,252.452,0c-7.946,1.919-14.92,4.458-20.984,7.341c-6.064,2.875-11.203,6.086-15.554,9.405
		c-4.351,3.312-7.899,6.715-10.813,10.048c-2.914,3.327-5.177,6.585-6.951,9.628c-3.54,6.11-5.154,11.372-5.942,15.065
		c-0.788,3.693-0.764,5.85-0.764,5.85c-3.296-3.9-6.141-8.534-8.519-13.336c-2.378-4.802-4.26-9.758-5.682-14.262
		c-2.86-9-3.762-16.173-3.747-16.173c-6.982,4.282-12.832,8.87-17.703,13.497c-4.871,4.626-8.763,9.276-11.868,13.772
		c-6.21,9.008-9.283,17.344-10.759,24.226c-1.484,6.905-1.377,12.404-0.995,16.166c0.406,3.762,1.094,5.797,1.086,5.797
		c-4.336-2.676-8.48-6.202-12.228-10.033c-3.747-3.824-7.081-7.96-9.826-11.799c-5.499-7.678-8.58-14.216-8.572-14.223
		c-5.308,6.239-9.436,12.41-12.648,18.299c-3.197,5.903-5.46,11.531-7.027,16.762c-3.128,10.476-3.487,19.355-2.784,26.367
		c0.719,7.02,2.516,12.22,4.038,15.684c1.537,3.449,2.814,5.178,2.814,5.178c-4.955-1.208-9.987-3.289-14.721-5.781
		c-4.741-2.493-9.184-5.399-12.985-8.214c-3.785-2.806-6.928-5.52-9.108-7.547c-2.187-2.019-3.418-3.342-3.418-3.342
		c-3.128,7.571-5.177,14.713-6.409,21.312c-1.231,6.6-1.644,12.641-1.521,18.108c0.252,10.943,2.646,19.492,5.491,25.939
		c2.86,6.454,6.171,10.844,8.694,13.657c2.524,2.806,4.283,4.053,4.283,4.053c-5.085,0.375-10.507-0.038-15.791-0.94
		c-5.276-0.902-10.4-2.287-14.881-3.778c-8.97-2.975-15.302-6.462-15.294-6.47c-0.635,8.167-0.352,15.6,0.528,22.253
		c0.879,6.661,2.355,12.548,4.175,17.696c3.64,10.323,8.58,17.702,13.275,22.948c4.726,5.253,9.23,8.412,12.503,10.301
		c3.272,1.896,5.323,2.547,5.323,2.547c-4.719,1.934-10.011,3.211-15.31,3.983c-5.3,0.781-10.599,1.033-15.318,0.994
		C7.089,260.909,0,259.556,0,259.556c1.912,7.937,4.451,14.912,7.341,20.968c2.883,6.064,6.094,11.21,9.398,15.562
		c3.318,4.352,6.714,7.9,10.048,10.813c3.334,2.913,6.584,5.169,9.636,6.944c6.102,3.548,11.364,5.154,15.056,5.949
		c3.702,0.788,5.85,0.765,5.85,0.765c-3.9,3.288-8.527,6.14-13.328,8.519c-4.802,2.37-9.766,4.259-14.27,5.682
		c-9,2.852-16.166,3.755-16.173,3.747c4.29,6.982,8.878,12.832,13.496,17.702c4.626,4.872,9.276,8.764,13.78,11.869
		c9.008,6.209,17.335,9.283,24.226,10.759c6.898,1.483,12.404,1.377,16.166,0.994c3.762-0.405,5.796-1.093,5.796-1.093
		c-2.684,4.344-6.21,8.488-10.04,12.236c-3.824,3.739-7.961,7.073-11.8,9.818c-7.67,5.506-14.216,8.588-14.216,8.588
		c6.24,5.292,12.412,9.429,18.299,12.633c5.896,3.203,11.524,5.467,16.755,7.035c10.491,3.128,19.362,3.487,26.374,2.776
		c7.012-0.711,12.22-2.508,15.677-4.03c3.456-1.537,5.185-2.822,5.185-2.822c-1.216,4.963-3.296,9.994-5.796,14.728
		c-2.485,4.734-5.391,9.184-8.198,12.978c-2.814,3.792-5.529,6.936-7.548,9.115c-2.026,2.187-3.349,3.411-3.349,3.411
		c7.563,3.136,14.713,5.177,21.305,6.408c6.606,1.232,12.664,1.66,18.123,1.529c10.936-0.252,19.485-2.653,25.932-5.49
		c6.454-2.86,10.843-6.179,13.665-8.695c2.799-2.531,4.046-4.29,4.053-4.282c0.374,5.085-0.038,10.506-0.948,15.791
		c-0.895,5.276-2.278,10.4-3.778,14.873c-2.974,8.97-6.461,15.302-6.469,15.302c8.174,0.634,15.607,0.352,22.261-0.536
		c6.653-0.872,12.54-2.355,17.694-4.175c10.316-3.64,17.696-8.572,22.949-13.275c5.246-4.718,8.404-9.222,10.3-12.495
		c1.889-3.273,2.532-5.322,2.546-5.322c1.935,4.718,3.212,10.002,3.984,15.31c0.765,5.292,1.032,10.599,0.994,15.316
		c-0.068,9.452-1.43,16.541-1.437,16.541c7.937-1.912,14.926-4.466,20.982-7.341c6.065-2.882,11.203-6.095,15.555-9.398
		c4.351-3.311,7.906-6.722,10.812-10.048c2.914-3.334,5.178-6.584,6.944-9.635c3.549-6.102,5.155-11.364,5.957-15.058
		c0.78-3.7,0.758-5.857,0.764-5.849c3.289,3.892,6.141,8.526,8.512,13.328c2.37,4.802,4.267,9.766,5.689,14.27
		c2.845,8.993,3.755,16.166,3.747,16.166c6.982-4.283,12.832-8.871,17.703-13.489c4.872-4.627,8.756-9.284,11.868-13.78
		c6.202-9.008,9.276-17.336,10.759-24.226c1.476-6.897,1.377-12.403,0.987-16.165c-0.398-3.763-1.093-5.796-1.086-5.796
		c4.344,2.684,8.48,6.209,12.228,10.032c3.747,3.832,7.074,7.968,9.819,11.807c5.514,7.67,8.595,14.208,8.58,14.208
		c5.307-6.232,9.444-12.404,12.648-18.292c3.196-5.904,5.46-11.524,7.028-16.762c3.128-10.484,3.487-19.355,2.776-26.359
		c-0.719-7.028-2.501-12.227-4.023-15.684c-1.545-3.456-2.829-5.185-2.822-5.185c4.963,1.215,9.987,3.288,14.728,5.788
		c4.742,2.485,9.184,5.399,12.969,8.206c3.801,2.814,6.936,5.52,9.123,7.547c2.187,2.026,3.418,3.35,3.418,3.35
		c3.128-7.571,5.162-14.713,6.393-21.313c1.231-6.6,1.659-12.656,1.537-18.116c-0.26-10.935-2.661-19.492-5.498-25.931
		c-2.86-6.454-6.171-10.844-8.694-13.665c-2.531-2.806-4.282-4.045-4.282-4.045c5.085-0.383,10.515,0.038,15.791,0.933
		c5.284,0.902,10.408,2.278,14.881,3.777c8.962,2.975,15.294,6.47,15.294,6.47c0.635-8.167,0.345-15.608-0.52-22.253
		C499.222,302.83,497.738,296.95,495.933,291.795z M256,302.96c-25.939,0-46.968-21.021-46.968-46.96
		c0-25.932,21.029-46.961,46.968-46.961c25.931,0,46.961,21.029,46.961,46.961C302.961,281.939,281.931,302.96,256,302.96z"/>
</g>
</svg>