<?xml version="1.0" encoding="utf-8"?>

<!DOCTYPE svg PUBLIC "-//W3C//DTD SVG 1.1//EN" "http://www.w3.org/Graphics/SVG/1.1/DTD/svg11.dtd">
<!-- Uploaded to: SVG Repo, www.svgrepo.com, Generator: SVG Repo Mixer Tools -->
<svg height="800px" width="800px" version="1.1" id="_x32_" xmlns="http://www.w3.org/2000/svg" xmlns:xlink="http://www.w3.org/1999/xlink" 
	 viewBox="0 0 512 512"  xml:space="preserve">
<style type="text/css">
	:root { color-scheme: dark light; }
</style>
<g>
	<path fill="currentColor" d="M291.655,127.985c0.88-3.239,1.794-6.526,2.51-9.58c2.077-8.968,3.443-16.876,3.472-23.829
		c-0.049-3.492-0.345-6.827-1.682-10.339c4.537-0.768,9.181-1.284,14.059-1.294c21.815-0.048,46.194,7.382,67.65,14.229
		c11.788,3.726,23.284,5.516,34.09,5.516c5.349,0,10.456-0.594,15.416-1.459c3.229,2.392,7.002,4.143,11.262,4.746
		c13.617,1.946,26.222-7.528,28.168-21.134c0.282-2.014,0.253-3.978,0.058-5.924c6.069-8.179,9.668-18.246,9.61-29.275
		c-0.01-10.66-3.122-21.99-9.376-33.603l-17.537,9.434c5.009,9.318,6.994,17.439,6.994,24.17c-0.039,3.784-0.798,7.08-1.906,10.183
		c-2.694-1.566-5.71-2.684-8.988-3.151c-13.607-1.935-26.221,7.538-28.166,21.145c-0.214,1.547-0.253,3.084-0.185,4.582
		c-1.78,0.135-3.472,0.37-5.349,0.37c-8.607,0-18.12-1.43-28.079-4.582h0.01c-21.602-6.808-47.542-15.104-73.67-15.163
		c-17.984-0.029-36.434,4.163-52.336,16.184c-13.436,10.116-24.563,25.482-32.728,46.899L0,239.495l29.878,252.188l447.419,4.28
		L512,244.387L291.655,127.985z M273.507,100.237c1.507-1.322,2.864-2.412,4.06-3.298c-0.312,5.126-1.717,12.732-3.959,21.515
		l-12.026-6.351C266.212,107.103,270.219,103.115,273.507,100.237z M238.77,219.264c-6.867-5.349-11.321-13.646-11.234-23.012
		c0.156-15.97,13.213-28.78,29.173-28.634c0.438,0,0.846,0.117,1.285,0.137c-1.557,4.366-3.117,8.694-4.649,12.838
		C247.256,197.108,241.722,211.24,238.77,219.264z M257.789,225.275c1.737-4.688,4.431-11.692,7.601-20.056
		c3.302-8.704,7.11-18.888,10.932-29.568c5.587,5.33,9.094,12.819,9.016,21.155C285.187,212.203,272.981,224.555,257.789,225.275z"
		/>
</g>
</svg>