<?xml version="1.0" encoding="utf-8"?>

<!DOCTYPE svg PUBLIC "-//W3C//DTD SVG 1.1//EN" "http://www.w3.org/Graphics/SVG/1.1/DTD/svg11.dtd">
<!-- Uploaded to: SVG Repo, www.svgrepo.com, Generator: SVG Repo Mixer Tools -->
<svg height="800px" width="800px" version="1.1" id="_x32_" xmlns="http://www.w3.org/2000/svg" xmlns:xlink="http://www.w3.org/1999/xlink" 
	 viewBox="0 0 512 512"  xml:space="preserve">
<style type="text/css">
	:root { color-scheme: dark light; }
</style>
<g>
	<path fill="currentColor" d="M312.722,121.038c0.933-3.88,1.601-7.932,1.61-12.104c-0.01-2.598-0.422-5.26-1.098-7.913
		c8.398-3.559,18.59-5.838,31.49-5.855l2.397,0.027h0.045c2.031,0.046,4.026,0.064,5.974,0.064c23.824,0,42.103-3.165,56.228-8.179
		c10.274-3.623,18.28-8.289,24.5-13.321c0.44,0.036,0.86,0.128,1.3,0.128c7.758,0,14.052-6.295,14.052-14.052
		c0-1.272-0.219-2.479-0.54-3.65c5.233-9.817,5.443-17.63,5.462-18.563c0.018-4.648-3.742-8.445-8.399-8.472
		c-4.602-0.018-8.352,3.678-8.444,8.28h-0.018l-0.01,0.11c-0.018,0.302-0.173,2.726-1.436,6.239
		c-0.229,0.641-0.512,1.318-0.814,2.022c-7.685,0.073-13.906,6.33-13.906,14.034c0,0.796,0.11,1.564,0.238,2.323
		c-1.244,0.906-2.58,1.802-4.026,2.69c-11.93,7.246-31.71,13.548-64.188,13.548c-1.838,0-3.714-0.018-5.626-0.064h0.045
		c-0.951-0.018-1.893-0.036-2.836-0.036c-16.458-0.018-30.182,3.312-41.508,8.756c-4.684-2.9-9.697-4.401-14.473-4.382
		c-5.644-0.01-10.603,1.939-14.546,4.456c-4.108,2.644-7.291,5.864-9.825,8.956L256,91.762l-6.441,3.321L0,223.878l33.182,258.974
		h445.626L512,223.878L312.722,121.038z M297.242,110.938c-0.045,0.649-0.119,1.308-0.21,1.994l-1.208-0.622
		C296.3,111.862,296.748,111.378,297.242,110.938z M281.442,102.75c-0.457,0.475-0.85,0.988-1.29,1.473l-0.246-0.128
		C280.418,103.601,280.922,103.18,281.442,102.75z M454.07,454.747H57.92L30.374,239.825L256,123.38l8.957,4.62
		c-1.702,3.907-3.129,7.785-4.264,11.518c-2.562,8.453-3.889,16.248-4.575,22.442c-0.046,0-0.082-0.009-0.119-0.009
		c-15.022,0-27.19,12.168-27.19,27.19c0,15.004,12.168,27.181,27.19,27.181c15.004,0,27.19-12.177,27.19-27.181
		c0-8.773-4.226-16.495-10.676-21.463c0.586-7.556,2.415-19.816,7.493-31.91l201.62,104.058L454.07,454.747z"/>
</g>
</svg>