<?xml version="1.0" encoding="utf-8"?>

<!DOCTYPE svg PUBLIC "-//W3C//DTD SVG 1.1//EN" "http://www.w3.org/Graphics/SVG/1.1/DTD/svg11.dtd">
<!-- Uploaded to: SVG Repo, www.svgrepo.com, Generator: SVG Repo Mixer Tools -->
<svg height="800px" width="800px" version="1.1" id="_x32_" xmlns="http://www.w3.org/2000/svg" xmlns:xlink="http://www.w3.org/1999/xlink" 
	 viewBox="0 0 512 512"  xml:space="preserve">
<style type="text/css">
	:root { color-scheme: dark light; }
</style>
<g>
	<path fill="currentColor" d="M498.33,146.495h-37.638l6.195-39.64c1.537-9.819-5.191-17.772-15.002-17.772
		c-9.826,0-19.005,7.954-20.543,17.772l-6.188,39.64H401.88c-0.99-11.439-4.606-21.859-11.554-30.064
		c-45.112-53.317-170.866-45.112-259.729,8.205C41.735,177.945,17.127,224.42,3.473,277.729
		c-13.686,53.318,15.032,114.832,51.939,135.329c36.908,20.505,125.77,23.253,173.614,12.315
		c47.845-10.937,124.392-41.017,138.062-60.16c13.678-19.134,17.757-35.529-4.11-43.734c-21.86-8.205-58.782,24.615-109.36,31.442
		c-37.919,5.115-73.799-2.732-72.436-34.175c1.354-31.442,57.404-16.402,97.044-30.079c18.176-6.272,59.125-24.242,87.492-53.31
		c16.752-17.171,29.014-39.686,34.03-61.522h21.122l-5.762,36.922c-1.53,9.811,5.191,17.772,15.017,17.772
		c9.819,0,18.998-7.961,20.536-17.772l5.762-36.922h41.908c7.542,0,13.67-6.12,13.67-13.67
		C512,152.622,505.872,146.495,498.33,146.495z M264.701,185.945c-3.319-12.483-13.693-21.67-26.13-21.67
		c-15.085,0-27.324,13.464-27.324,30.064c0,16.608,12.239,30.08,27.324,30.08c5.382,0,10.367-1.773,14.591-4.72
		c-13.13,23.36-34.905,37.235-54.215,36.154c-30.156-1.682-20.505-50.578-12.3-75.169c9.582-28.726,35.537-51.955,57.412-47.845
		C263.574,136.501,271.072,153.254,264.701,185.945z"/>
</g>
</svg>