<?xml version="1.0" encoding="utf-8"?>

<!DOCTYPE svg PUBLIC "-//W3C//DTD SVG 1.1//EN" "http://www.w3.org/Graphics/SVG/1.1/DTD/svg11.dtd">
<!-- Uploaded to: SVG Repo, www.svgrepo.com, Generator: SVG Repo Mixer Tools -->
<svg height="800px" width="800px" version="1.1" id="_x32_" xmlns="http://www.w3.org/2000/svg" xmlns:xlink="http://www.w3.org/1999/xlink" 
	 viewBox="0 0 512 512"  xml:space="preserve">
<style type="text/css">
	:root { color-scheme: dark light; }
</style>
<g>
	<path fill="currentColor" d="M480.169,261.752c-0.708-1.86-1.059-3.804-1.059-5.756c0-1.951,0.351-3.903,1.059-5.756l18.695-49.081
		c1.614-4.241,2.396-8.653,2.396-12.993c0.006-12.041-5.981-23.657-16.533-30.551l-43.986-28.719
		c-3.315-2.163-5.729-5.49-6.762-9.321l-13.728-50.702c-4.333-15.976-18.808-26.958-35.214-26.965c-0.615,0-1.23,0.02-1.852,0.053
		l0.926-0.053l-53.236,2.666l-0.92,0.02c-3.698,0-7.277-1.257-10.162-3.573L278.89,8.078C272.228,2.699,264.09-0.007,256.006,0
		c-8.091-0.007-16.228,2.699-22.903,8.078l0.006,0.006l-40.904,32.939c-2.878,2.316-6.47,3.573-10.162,3.573l-0.595-0.014
		l-52.654-2.62h0.1c-0.721-0.039-1.363-0.046-1.932-0.046c-16.407,0-30.875,10.989-35.209,26.958l-13.727,50.702
		c-1.032,3.83-3.447,7.158-6.762,9.321l-43.986,28.719c-10.552,6.894-16.546,18.517-16.539,30.557c0,4.34,0.78,8.746,2.388,12.98
		l18.709,49.088c0.701,1.853,1.058,3.804,1.058,5.756c0,1.952-0.351,3.896-1.058,5.749L13.135,310.84
		c-1.614,4.228-2.394,8.634-2.394,12.974c-0.007,12.04,5.98,23.67,16.539,30.57l43.986,28.718c3.315,2.164,5.729,5.478,6.762,9.309
		l13.727,50.701c4.334,15.976,18.808,26.958,35.209,26.958c0.569,0,1.171-0.006,1.819-0.039l52.474-2.62l0.1-0.007l0.714-0.02
		c3.672,0.007,7.251,1.264,10.135,3.586l40.904,32.953c6.669,5.372,14.799,8.078,22.897,8.078c8.084,0,16.222-2.7,22.89-8.078
		L319.8,470.97c2.884-2.328,6.457-3.586,10.135-3.586l0.787,0.027l52.23,2.606l0.35,0.014c0.543,0.026,1.118,0.039,1.734,0.039
		c16.4,0,30.882-10.975,35.214-26.958l13.728-50.701c1.032-3.831,3.44-7.145,6.755-9.309l43.993-28.718
		c10.552-6.906,16.539-18.524,16.533-30.564c0-4.34-0.781-8.753-2.396-12.987L480.169,261.752z M473.606,337.375l-43.98,28.712
		c-7.495,4.889-12.927,12.371-15.269,21.018L400.63,437.8c-1.906,7.086-8.342,11.948-15.593,11.948l-0.887-0.02l-51.462-2.574
		l-0.894-0.039c-0.596-0.033-1.21-0.054-1.859-0.054c-8.309,0-16.393,2.846-22.89,8.085l-40.904,32.952
		c-2.971,2.388-6.529,3.572-10.135,3.572c-3.612,0-7.172-1.184-10.141-3.572l-40.904-32.952c-6.496-5.239-14.581-8.085-22.89-8.085
		c-0.542,0.007-1.164,0.014-1.832,0.054l-52.462,2.62l-0.813,0.013c-7.244,0.006-13.681-4.869-15.587-11.941l-13.727-50.708
		c-2.342-8.64-7.774-16.122-15.276-21.011l-43.98-28.718c-4.677-3.05-7.324-8.21-7.33-13.555c0-1.919,0.344-3.851,1.058-5.729
		l18.702-49.094c1.594-4.181,2.395-8.587,2.395-12.993c0-4.406-0.801-8.812-2.395-13l-18.702-49.074
		c-0.715-1.892-1.058-3.831-1.058-5.749c0.006-5.345,2.646-10.492,7.323-13.542l43.993-28.719
		c7.496-4.902,12.927-12.384,15.27-21.024l13.727-50.708c1.906-7.073,8.349-11.948,15.587-11.941l0.714,0.013l0.225,0.014
		l51.774,2.586l0.608,0.026l1.76,0.04c8.316,0,16.4-2.832,22.91-8.064l40.904-32.952l-6.371-7.912l6.378,7.906
		c2.97-2.388,6.529-3.565,10.141-3.579c3.606,0.007,7.164,1.191,10.135,3.586l40.911,32.946c6.51,5.246,14.601,8.071,22.903,8.071
		c0.616,0,1.178-0.014,1.688-0.033l53.506-2.672l-0.893,0.046l0.78-0.026c7.244,0,13.688,4.875,15.593,11.948l13.727,50.708
		c2.342,8.64,7.774,16.122,15.269,21.018l43.987,28.725c4.677,3.05,7.324,8.197,7.324,13.536c0,1.919-0.338,3.85-1.066,5.762
		l-18.689,49.075c-1.601,4.187-2.395,8.594-2.395,12.993c0,4.406,0.801,8.812,2.395,12.993l18.696,49.081
		c0.721,1.899,1.059,3.831,1.059,5.75C480.936,329.159,478.29,334.319,473.606,337.375z"/>
</g>
</svg>