<?xml version="1.0" encoding="utf-8"?>

<!DOCTYPE svg PUBLIC "-//W3C//DTD SVG 1.1//EN" "http://www.w3.org/Graphics/SVG/1.1/DTD/svg11.dtd">
<!-- Uploaded to: SVG Repo, www.svgrepo.com, Generator: SVG Repo Mixer Tools -->
<svg version="1.1" id="_x32_" xmlns="http://www.w3.org/2000/svg" xmlns:xlink="http://www.w3.org/1999/xlink" 
	 viewBox="0 0 512 512"  xml:space="preserve">
<style type="text/css">
	:root { color-scheme: dark light; }
</style>
<g>
	<path fill="currentColor" d="M459.548,221.426h-1.673c-28.968,0-52.453-25.814-52.453-57.655v-18.922c0-31.841-23.484-57.655-52.452-57.655
		h-78.922v366.083h185.499c28.967,0,52.452-25.814,52.452-57.655V279.08C512,247.24,488.515,221.426,459.548,221.426z
		 M319.225,424.805h-25.878v-40.678h25.878V424.805z M319.225,158.785h-25.878v-40.678h25.878V158.785z M369.716,424.805h-25.878
		v-40.678h25.878V424.805z M369.716,158.785h-25.878v-40.678h25.878V158.785z M419.462,424.805h-25.878v-40.678h25.878V424.805z
		 M469.209,424.805h-25.87v-40.678h25.87V424.805z"/>
	<rect y="123.806" fill="currentColor" width="253.551" height="296.934"/>
	<rect y="445.137" fill="currentColor" width="253.551" height="32.545"/>
	<polygon fill="currentColor" points="172.732,34.318 75.928,34.318 75.928,66.856 0,66.856 0,99.401 253.551,99.401 253.551,66.856 
		172.732,66.856 	"/>
</g>
</svg>