<?xml version="1.0" encoding="utf-8"?>

<!DOCTYPE svg PUBLIC "-//W3C//DTD SVG 1.1//EN" "http://www.w3.org/Graphics/SVG/1.1/DTD/svg11.dtd">
<!-- Uploaded to: SVG Repo, www.svgrepo.com, Generator: SVG Repo Mixer Tools -->
<svg height="800px" width="800px" version="1.1" id="_x32_" xmlns="http://www.w3.org/2000/svg" xmlns:xlink="http://www.w3.org/1999/xlink" 
	 viewBox="0 0 512 512"  xml:space="preserve">
<style type="text/css">
	:root { color-scheme: dark light; }
</style>
<g>
	<path fill="currentColor" d="M508.037,275.45c-3.995-7.966-10.935-13.542-18.335-16.649c-7.457-3.172-15.511-4.326-23.751-4.342
		c-3.656,0-7.368,0.242-11.096,0.694c-8.45,1.058-16.786,3.721-24.744,5.932c-7.352,2.098-14.268,3.656-18.796,3.809
		c-1.686-11.104-5.964-30.658-16.866-51.802c-8.224-15.914-20.321-32.708-37.979-46.896c-15.559-12.517-35.436-22.871-60.188-28.835
		v-5.568c-0.016-13.324-10.774-24.09-24.098-24.106h-16.189h-16.174c-13.324,0.008-24.105,10.782-24.113,24.106v5.351
		c-24.364,5.423-44.039,15.495-59.494,27.866c-26.446,21.168-40.464,48.462-47.969,70.196c-4.205,12.226-6.36,22.653-7.482,29.698
		c-4.52-0.137-11.476-1.711-18.876-3.826c-7.973-2.203-16.301-4.874-24.76-5.924c-3.704-0.444-7.408-0.686-11.08-0.694
		c-10.935,0.049-21.725,2.01-30.893,8.264c-4.543,3.124-8.538,7.449-11.193,12.719C1.284,280.703-0.016,286.748,0,293.083
		c0,5.172,0.823,10.564,2.398,16.245c4.067,14.486,13.792,27.342,26.631,38.43c12.897,11.064,29.15,20.353,47.356,26.768
		c77.151,27.1,145.603,29.772,170.387,29.787c4.906,0,8.014-0.105,9.224-0.153c1.202,0.048,4.317,0.153,9.232,0.153
		c24.783-0.016,93.243-2.687,170.386-29.787c18.214-6.415,34.46-15.705,47.348-26.768c12.84-11.088,22.565-23.936,26.648-38.43
		c1.574-5.69,2.389-11.073,2.389-16.23C512.016,286.764,510.716,280.72,508.037,275.45z M485.715,302.719
		c-2.09,7.82-8.618,17.456-18.909,26.236c-10.225,8.804-23.968,16.762-39.414,22.185c-73.253,25.784-139.212,28.399-162.163,28.382
		c-2.874,0-5.076-0.04-6.529-0.08l-1.622-0.049l-0.46-0.016l-0.621-0.033l-0.613,0.033l-0.46,0.016
		c-1.05,0.04-3.849,0.129-8.151,0.129c-22.96,0.016-88.901-2.598-162.155-28.382c-15.462-5.424-29.206-13.381-39.431-22.185
		c-10.281-8.78-16.802-18.416-18.9-26.236c-1.089-3.938-1.501-7.142-1.493-9.636c0.008-3.075,0.573-5.012,1.283-6.432
		c1.082-2.05,2.639-3.576,5.972-5.061c3.284-1.428,8.207-2.348,14.002-2.332c2.567-0.008,5.302,0.17,8.135,0.508
		c4.955,0.548,12.759,2.833,21.014,5.181c8.353,2.292,17.182,4.745,26.512,4.81c1.606,0,3.268-0.12,4.947-0.33
		c-0.041,1.541-0.073,3.075-0.073,4.52c0,16.729,2.389,27.374,2.486,27.826c1.009,4.454,5.44,7.247,9.886,6.23
		c4.454-1.001,7.246-5.432,6.238-9.879v-0.008l-0.008-0.025c-0.162-0.726-2.074-9.942-2.074-24.145
		c0-3.487,0.129-7.296,0.412-11.331l0.396-0.226l0.427-6.552c0.008-0.654,2.139-26.786,16.48-53.668
		c7.158-13.461,17.262-27.092,31.546-38.334c13.236-10.378,30.143-18.796,52.288-23.177v26.567h16.528v-39.834v-14.914h14.809
		h14.809v14.914v39.834h16.528v-26.43c22.878,5.028,40.197,13.969,53.61,24.726c21.717,17.424,33.475,39.988,39.77,58.445
		c0.766,2.252,1.444,4.423,2.05,6.521c0.048,0.153,0.089,0.298,0.129,0.444c1.001,3.478,1.759,6.65,2.389,9.571
		c0.54,2.582,1.041,5.124,1.436,7.602c0.364,2.3,0.614,4.245,0.743,5.528c0.08,0.742,0.12,1.299,0.153,1.646l0.025,0.355v0.025
		v0.032l0.339,6.658l0.5,0.291c0.282,4.027,0.412,7.82,0.412,11.307c0,7.578-0.541,13.735-1.074,17.94
		c-0.274,2.106-0.532,3.72-0.726,4.777l-0.218,1.17l-0.056,0.258l-0.008,0.032c-1.009,4.447,1.784,8.878,6.239,9.879
		c4.446,1.016,8.877-1.776,9.886-6.23c0.097-0.452,2.478-11.097,2.485-27.826c0-1.445-0.032-2.978-0.073-4.511
		c1.671,0.202,3.334,0.322,4.94,0.322c9.329-0.056,18.166-2.51,26.519-4.81c8.256-2.34,16.059-4.624,21.022-5.181l-1.477-12.307
		l1.494,12.307c2.816-0.346,5.544-0.517,8.11-0.517c7.772-0.048,13.808,1.703,16.786,3.858c1.542,1.082,2.454,2.139,3.188,3.551
		c0.711,1.42,1.275,3.358,1.283,6.44C487.216,295.593,486.805,298.797,485.715,302.719z"/>
	<path fill="currentColor" d="M255.988,220.71c0,0-10.475,23.581-43.224,32.756v41.925c0,0,18.336,28.819,43.224,32.749
		c24.905-3.93,43.24-32.749,43.24-32.749v-41.925C266.479,244.29,255.988,220.71,255.988,220.71z M269.417,279.162
		c0,7.417-6.012,13.429-13.429,13.429c-7.417,0-13.429-6.012-13.429-13.429c0-7.417,6.012-13.429,13.429-13.429
		C263.405,265.733,269.417,271.745,269.417,279.162z"/>
</g>
</svg>