<?xml version="1.0" encoding="utf-8"?>

<!DOCTYPE svg PUBLIC "-//W3C//DTD SVG 1.1//EN" "http://www.w3.org/Graphics/SVG/1.1/DTD/svg11.dtd">
<!-- Uploaded to: SVG Repo, www.svgrepo.com, Generator: SVG Repo Mixer Tools -->
<svg height="800px" width="800px" version="1.1" id="_x32_" xmlns="http://www.w3.org/2000/svg" xmlns:xlink="http://www.w3.org/1999/xlink" 
	 viewBox="0 0 512 512"  xml:space="preserve">
<style type="text/css">
	:root { color-scheme: dark light; }
</style>
<g>
	<path fill="currentColor" d="M343.267,72.725c5.847,35.095-17.547,81.885-17.547,81.885c5.846-40.942-42.9-146.223-155.984-154.026
		c23.395,68.243,15.6,148.179,15.6,148.179c0-40.942-58.49-81.892-58.49-81.892s-29.513,64.139-70.192,116.988
		c-67.413,87.576-80.043,230.722-8.47,327.557h109.037c-35.828-28.624-66.927-137.694,6.62-222.671
		c6.635,1.66,23.222,26.543,23.222,26.543l49.774-97.887c0,0,64.715,61.385,68.029,106.184l36.502-48.113
		c0,0,78.448,120.944,12.795,235.944h106.085C583.083,353.484,464.154,129.267,343.267,72.725z"/>
</g>
</svg>