<?xml version="1.0" encoding="utf-8"?>

<!DOCTYPE svg PUBLIC "-//W3C//DTD SVG 1.1//EN" "http://www.w3.org/Graphics/SVG/1.1/DTD/svg11.dtd">
<!-- Uploaded to: SVG Repo, www.svgrepo.com, Generator: SVG Repo Mixer Tools -->
<svg height="800px" width="800px" version="1.1" id="_x32_" xmlns="http://www.w3.org/2000/svg" xmlns:xlink="http://www.w3.org/1999/xlink" 
	 viewBox="0 0 512 512"  xml:space="preserve">
<style type="text/css">
	:root { color-scheme: dark light; }
</style>
<g>
	<path fill="currentColor" d="M466.535,268.5c-18.089,1.815-45.592,13.332-59.187,6.666c0,0-7.666-122.029-109.012-142.418v45.975H285.31
		v-67.897c0-5.691-5.513-10.304-12.306-10.304H256h-17.004c-6.794,0-12.306,4.613-12.306,10.304v67.897h-13.026v-45.975
		C112.32,153.137,104.652,275.166,104.652,275.166c-13.594,6.666-41.098-4.851-59.187-6.666
		c-28.292-2.841-52.827,5.454-43.422,33.94c6.488,19.65,32.728,44.372,74.147,67.787c24.968,14.112,81.416,39.079,179.81,41.25
		c98.394-2.171,154.842-27.138,179.81-41.25c41.42-23.416,67.659-48.137,74.146-67.787
		C519.362,273.954,494.828,265.659,466.535,268.5z M210.568,250.453C244.984,240.811,256,216.029,256,216.029
		s11.016,24.782,45.431,34.424v44.058c0,0-19.277,30.285-45.431,34.414c-26.154-4.129-45.432-34.414-45.432-34.414V250.453z
		 M424.233,345.625c-5.97,2.518-56.448,36.179-168.232,39.944c-111.785-3.766-162.263-37.426-168.233-39.944
		c-13.747-5.792-10.856-20.99,8.684-13.026c33.847,13.79,92.55,34.008,159.549,34.008c66.998,0,125.702-20.218,159.548-34.008
		C435.088,324.635,437.981,339.832,424.233,345.625z"/>
</g>
</svg>