<?xml version="1.0" encoding="utf-8"?>

<!DOCTYPE svg PUBLIC "-//W3C//DTD SVG 1.1//EN" "http://www.w3.org/Graphics/SVG/1.1/DTD/svg11.dtd">
<!-- Uploaded to: SVG Repo, www.svgrepo.com, Generator: SVG Repo Mixer Tools -->
<svg height="800px" width="800px" version="1.1" id="_x32_" xmlns="http://www.w3.org/2000/svg" xmlns:xlink="http://www.w3.org/1999/xlink" 
	 viewBox="0 0 512 512"  xml:space="preserve">
<style type="text/css">
	:root { color-scheme: dark light; }
</style>
<g>
	<path fill="currentColor" d="M364.268,115.564V75.871c0-8.079-6.535-14.624-14.602-14.624h-27.294c-8.068,0-14.625,6.545-14.625,14.624
		v40.465c-34.248,12.09-58.781,44.748-58.781,83.132v278.123c0,18.727,15.17,33.908,33.907,33.908h108.542
		c18.726,0,33.907-15.181,33.907-33.908V199.469C425.321,160.243,399.71,127.005,364.268,115.564z"/>
	<path fill="currentColor" d="M374.073,0.5c-15.816,0-81.394,0-81.394,0v47.476c0,0,45.214,0,92.689,0
		c88.178,0,110.802,42.974,110.802,42.974s0,0,15.83-11.317C484.864,9.545,389.914,0.5,374.073,0.5z"/>
	<polygon fill="currentColor" points="282.35,101.303 282.35,80.587 202.468,80.587 202.468,69.793 0,45.611 0,136.278 202.468,112.086 
		202.468,101.303 	"/>
</g>
</svg>