<?xml version="1.0" encoding="utf-8"?>

<!DOCTYPE svg PUBLIC "-//W3C//DTD SVG 1.1//EN" "http://www.w3.org/Graphics/SVG/1.1/DTD/svg11.dtd">
<!-- Uploaded to: SVG Repo, www.svgrepo.com, Generator: SVG Repo Mixer Tools -->
<svg height="800px" width="800px" version="1.1" id="_x32_" xmlns="http://www.w3.org/2000/svg" xmlns:xlink="http://www.w3.org/1999/xlink" 
	 viewBox="0 0 512 512"  xml:space="preserve">
<style type="text/css">
	:root { color-scheme: dark light; }
</style>
<g>
	<path fill="currentColor" d="M287.902,115.289v-39.77c0-8.095-6.547-14.653-14.63-14.653h-27.348c-8.084,0-14.654,6.558-14.654,14.653
		v40.544c-34.315,12.113-58.896,44.836-58.896,83.295v278.668c0,18.763,15.2,33.974,33.973,33.974h108.754
		c18.762,0,33.973-15.211,33.973-33.974V199.358C349.075,160.055,323.413,126.752,287.902,115.289z"/>
	<path fill="currentColor" d="M297.727,0c-15.848,0-81.553,0-81.553,0v47.568c0,0,45.303,0,92.87,0c88.351,0,111.019,43.059,111.019,43.059
		s0,0,15.86-11.339C408.734,9.062,313.599,0,297.727,0z"/>
	<polygon fill="currentColor" points="96.343,271.085 76.077,440.761 152.063,440.761 131.785,271.085 	"/>
	<path fill="currentColor" d="M182.234,112.054l0.012,0.012c0.182-0.171,7.241-4.611,18.432-8.414v-24.33
		c-18.512,4.986-30.205,12.593-31.332,13.31c-0.012,0.012-0.012,0.012-0.012,0.012c-0.022,0.01-0.136,0.079-0.148,0.091l0.012,0.012
		c-41.477,27.233-67.584,73.992-67.594,125.113v29.909h23.317v-29.909c-0.012-43.173,22.121-82.749,57.2-105.725L182.234,112.054z
		 M182.416,111.94l-0.136,0.102l-0.012-0.01L182.416,111.94z"/>
</g>
</svg>