<?xml version="1.0" encoding="utf-8"?>

<!DOCTYPE svg PUBLIC "-//W3C//DTD SVG 1.1//EN" "http://www.w3.org/Graphics/SVG/1.1/DTD/svg11.dtd">
<!-- Uploaded to: SVG Repo, www.svgrepo.com, Generator: SVG Repo Mixer Tools -->
<svg version="1.1" id="_x32_" xmlns="http://www.w3.org/2000/svg" xmlns:xlink="http://www.w3.org/1999/xlink" 
	 viewBox="0 0 512 512"  xml:space="preserve">
<style type="text/css">
	:root { color-scheme: dark light; }
</style>
<g>
	<path fill="currentColor" d="M290.279,0c-14.892,0-76.607,0-76.607,0v44.695c0,0,42.568,0,87.253,0c82.998,0,104.273,40.421,104.273,40.421
		s0,0,14.892-10.638C394.56,8.51,305.19,0,290.279,0z"/>
	<polygon fill="currentColor" points="99.453,372.5 91.91,410.544 143.841,410.544 136.3,372.5 	"/>
	<path fill="currentColor" d="M295.779,114.641v-27.36c-0.01-15.725-12.755-28.462-28.48-28.462h-25.664
		c-7.81-0.009-15.035,3.201-20.143,8.337c-5.136,5.099-8.346,12.314-8.337,20.124v28.365c-32.735,15.783-55.323,49.2-55.351,87.972
		v261.75c0.019,25.779,20.901,46.612,46.65,46.631h102.154c25.769-0.01,46.622-20.882,46.631-46.631v-261.75
		C353.21,164.003,329.664,129.984,295.779,114.641z M323.8,465.369c-0.02,9.487-7.696,17.173-17.192,17.192H204.454
		c-9.478-0.02-17.192-7.724-17.211-17.192v-261.75c-0.029-29.716,19.031-55.006,45.528-64.379l9.823-3.469V88.259h23.746v47.082
		l10.197,3.306c27.408,8.864,47.282,34.585,47.263,64.973V465.369z"/>
	<rect x="211.363" y="290.384" fill="currentColor" width="88.317" height="107.943"/>
	<path fill="currentColor" d="M175.964,114.402l0.009,0.01c0.154-0.144,6.095-3.881,15.515-7.082V86.851
		c-15.582,4.197-25.424,10.599-26.372,11.202l-0.01,0.01l-0.125,0.076l0.01,0.009c-34.91,22.923-56.885,62.28-56.894,105.308
		v149.207h19.626V203.456c-0.009-36.338,18.62-69.65,48.145-88.988L175.964,114.402z M176.116,114.306l-0.115,0.086l-0.01-0.01
		L176.116,114.306z"/>
</g>
</svg>