<?xml version="1.0" encoding="utf-8"?>

<!DOCTYPE svg PUBLIC "-//W3C//DTD SVG 1.1//EN" "http://www.w3.org/Graphics/SVG/1.1/DTD/svg11.dtd">
<!-- Uploaded to: SVG Repo, www.svgrepo.com, Generator: SVG Repo Mixer Tools -->
<svg height="800px" width="800px" version="1.1" id="_x32_" xmlns="http://www.w3.org/2000/svg" xmlns:xlink="http://www.w3.org/1999/xlink" 
	 viewBox="0 0 512 512"  xml:space="preserve">
<style type="text/css">
	:root { color-scheme: dark light; }
</style>
<g>
	<path fill="currentColor" d="M282.913,0c-15.854,0-81.555,0-81.555,0v47.582c0,0,45.318,0,92.89,0c88.36,0,111.009,43.032,111.009,43.032
		s0,0,15.853-11.324C393.932,9.06,298.787,0,282.913,0z"/>
	<polygon fill="currentColor" points="98.919,373.915 90.891,414.417 146.176,414.417 138.146,373.915 	"/>
	<path fill="currentColor" d="M273.099,115.284V75.515c0-8.08-6.55-14.63-14.651-14.63h-27.32c-8.111,0-14.651,6.55-14.651,14.63v40.544
		c-34.319,12.119-58.927,44.847-58.927,83.31v278.658c0,18.762,15.242,33.973,33.993,33.973h108.754
		c18.772,0,33.972-15.212,33.972-33.973V199.368C334.27,160.05,308.602,126.75,273.099,115.284z"/>
	<path fill="currentColor" d="M129.015,200.929c-0.01-38.686,19.822-74.149,51.255-94.736l0.102-0.071l0.01,0.01
		c0.163-0.154,6.488-4.132,16.516-7.54V76.791c-16.588,4.468-27.066,11.284-28.076,11.926c-0.01,0.01-0.01,0.01-0.01,0.01
		c-0.02,0.009-0.122,0.071-0.132,0.082l0.01,0.01c-37.166,24.403-60.56,66.302-60.569,112.11v158.846h20.894V200.929z
		 M180.535,106.019l-0.122,0.092l-0.011-0.01L180.535,106.019z"/>
</g>
</svg>