<?xml version="1.0" encoding="utf-8"?>

<!DOCTYPE svg PUBLIC "-//W3C//DTD SVG 1.1//EN" "http://www.w3.org/Graphics/SVG/1.1/DTD/svg11.dtd">
<!-- Uploaded to: SVG Repo, www.svgrepo.com, Generator: SVG Repo Mixer Tools -->
<svg height="800px" width="800px" version="1.1" id="_x32_" xmlns="http://www.w3.org/2000/svg" xmlns:xlink="http://www.w3.org/1999/xlink" 
	 viewBox="0 0 512 512"  xml:space="preserve">
<style type="text/css">
	:root { color-scheme: dark light; }
</style>
<g>
	<path fill="currentColor" d="M454.419,78.5c13.76-14.917,15.601-29.096,11.565-39.625c-1.93-14.84-21.83-23.605-27.684-23.572
		c-10.43,0.088-18.688,3.495-26.802,6.075c-8.17,2.658-16.296,4.94-26.979,4.962c-6.516-0.034-10.506-1.224-14.101-2.956
		c-5.358-2.536-10.088-7.364-17.574-12.91c-3.738-2.702-8.226-5.436-13.672-7.376C333.726,1.135,327.42-0.011,320.243,0
		c-9.559-0.034-17.608,2.062-24.058,5.27c-9.702,4.884-15.512,11.168-20.826,14.872c-2.669,1.93-5.138,3.375-8.071,4.432
		c-2.932,1.036-6.404,1.754-11.278,1.765c-6.505-0.034-10.496-1.224-14.09-2.956c-5.348-2.536-10.078-7.364-17.552-12.91
		c-3.738-2.702-8.225-5.425-13.672-7.376C205.26,1.135,198.943-0.011,191.777,0c-9.559-0.034-17.619,2.062-24.069,5.27
		c-9.702,4.884-15.524,11.168-20.838,14.872c-2.668,1.93-5.138,3.375-8.07,4.432c-2.944,1.036-6.428,1.754-11.301,1.765
		c-10.695-0.022-18.809-2.304-26.979-4.962c-8.114-2.58-16.372-5.997-26.802-6.086c-6.085-0.021-25.93,6.638-28.468,25.832
		C42.296,51.377,44.799,64.63,57.6,78.5c30.44,32.988,86.691,39.349,51.3,82.788c-35.402,43.439-59.536,95.897-59.536,145.588
		C49.364,420.16,142.725,512,256.009,512s206.657-91.84,206.657-205.124c0-49.691-24.146-102.149-59.547-145.588
		C367.728,117.848,423.979,111.488,454.419,78.5z M256.009,489.42c-101.498,0-184.066-81.895-184.066-182.544
		c0-40.992,19.845-88.852,54.464-131.321c12.999-15.965,18.181-30.816,15.854-45.436c-3.528-22.138-22.15-34.101-40.154-45.678
		c-10.044-6.46-20.419-13.13-27.916-21.256c-5.314-5.766-8.081-11.466-7.387-15.258c0.364-1.952,1.665-3.241,2.767-3.793
		c1.996-0.992,3.176-1.136,4.146-1.136c3.021,0,7.706,1.566,13.142,3.363c9.757,3.242,23.098,7.674,40.639,7.674
		c24.146,0,37.562-11.003,46.45-18.281c6.957-5.699,9.823-8.058,17.828-8.058c7.982,0,10.86,2.36,17.794,8.048
		c8.886,7.288,22.304,18.291,46.438,18.291s37.552-11.003,46.438-18.291c6.934-5.689,9.812-8.048,17.795-8.048
		c8.003,0,10.871,2.36,17.828,8.058c8.886,7.278,22.304,18.281,46.449,18.281c17.541,0,30.882-4.432,40.639-7.674
		c5.436-1.797,10.133-3.363,13.142-3.363c0.97,0,2.15,0.144,4.146,1.136c1.102,0.552,2.404,1.841,2.767,3.793
		c0.694,3.792-2.073,9.492-7.387,15.258c-7.498,8.126-17.872,14.796-27.916,21.256c-18.004,11.576-36.625,23.539-40.154,45.678
		c-2.326,14.62,2.855,29.471,15.854,45.436c34.619,42.469,54.476,90.34,54.476,131.321
		C440.087,407.525,357.507,489.42,256.009,489.42z"/>
	<path fill="currentColor" d="M100.168,306.876c0,85.093,69.911,154.32,155.842,154.32c85.942,0,155.853-69.227,155.853-154.32
		c0-22.778-7.729-48.478-21.654-74.101H121.822C107.897,258.388,100.168,284.098,100.168,306.876z"/>
</g>
</svg>