<?xml version="1.0" encoding="utf-8"?>

<!DOCTYPE svg PUBLIC "-//W3C//DTD SVG 1.1//EN" "http://www.w3.org/Graphics/SVG/1.1/DTD/svg11.dtd">
<!-- Uploaded to: SVG Repo, www.svgrepo.com, Generator: SVG Repo Mixer Tools -->
<svg height="800px" width="800px" version="1.1" id="_x32_" xmlns="http://www.w3.org/2000/svg" xmlns:xlink="http://www.w3.org/1999/xlink" 
	 viewBox="0 0 512 512"  xml:space="preserve">
<style type="text/css">
	:root { color-scheme: dark light; }
</style>
<g>
	<path fill="currentColor" d="M454.419,78.501c13.759-14.917,15.6-29.096,11.566-39.625c-1.93-14.84-21.83-23.605-27.684-23.572
		c-10.43,0.088-18.688,3.496-26.803,6.075c-8.17,2.656-16.295,4.939-26.978,4.961c-6.516-0.033-10.508-1.224-14.101-2.955
		c-5.358-2.536-10.089-7.364-17.575-12.91c-3.737-2.702-8.225-5.436-13.671-7.376C333.726,1.136,327.42-0.01,320.242,0
		c-9.559-0.033-17.607,2.063-24.056,5.27c-9.702,4.885-15.514,11.169-20.828,14.873c-2.668,1.93-5.137,3.374-8.07,4.432
		c-2.933,1.036-6.406,1.753-11.278,1.764c-6.505-0.033-10.496-1.224-14.091-2.955c-5.347-2.536-10.077-7.364-17.552-12.91
		c-3.737-2.702-8.224-5.425-13.671-7.376C205.261,1.136,198.943-0.01,191.776,0c-9.559-0.033-17.618,2.063-24.068,5.27
		c-9.702,4.885-15.523,11.169-20.838,14.873c-2.668,1.93-5.138,3.374-8.071,4.432c-2.943,1.036-6.427,1.753-11.3,1.764
		c-10.695-0.022-18.81-2.304-26.979-4.961c-8.114-2.58-16.372-5.998-26.802-6.086c-6.086-0.022-25.932,6.637-28.467,25.832
		C42.297,51.378,44.8,64.63,57.6,78.501c30.439,32.986,86.691,39.348,51.3,82.788c-35.402,43.439-59.536,95.897-59.536,145.588
		C49.364,420.161,142.725,512,256.01,512c113.284,0,206.656-91.839,206.656-205.124c0-49.691-24.145-102.149-59.548-145.588
		C367.728,117.849,423.978,111.487,454.419,78.501z M256.01,489.42c-101.499,0-184.066-81.895-184.066-182.544
		c0-40.992,19.845-88.852,54.464-131.322c12.998-15.964,18.18-30.816,15.854-45.435c-3.528-22.138-22.149-34.101-40.154-45.678
		c-10.043-6.46-20.419-13.131-27.915-21.256c-5.314-5.766-8.081-11.466-7.387-15.258c0.364-1.952,1.664-3.242,2.767-3.794
		c1.996-0.992,3.174-1.136,4.146-1.136c3.021,0,7.706,1.566,13.141,3.363c9.758,3.241,23.098,7.674,40.64,7.674
		c24.144,0,37.562-11.003,46.448-18.28c6.957-5.7,9.823-8.059,17.828-8.059c7.982,0,10.86,2.358,17.795,8.049
		c8.886,7.288,22.304,18.29,46.438,18.29s37.551-11.003,46.438-18.29c6.934-5.69,9.812-8.049,17.794-8.049
		c8.004,0,10.871,2.358,17.828,8.059c8.886,7.278,22.304,18.28,46.45,18.28c17.541,0,30.881-4.432,40.639-7.674
		c5.435-1.797,10.133-3.363,13.142-3.363c0.97,0,2.15,0.143,4.144,1.136c1.103,0.551,2.404,1.842,2.768,3.794
		c0.694,3.792-2.073,9.492-7.387,15.258c-7.498,8.125-17.872,14.796-27.916,21.256c-18.004,11.577-36.625,23.539-40.153,45.678
		c-2.327,14.619,2.855,29.471,15.854,45.435c34.619,42.47,54.476,90.341,54.476,131.322
		C440.086,407.525,357.507,489.42,256.01,489.42z"/>
	<path fill="currentColor" d="M100.168,306.876c0,85.093,69.91,154.32,155.841,154.32c85.941,0,155.852-69.227,155.852-154.32
		c0-22.778-7.729-48.478-21.654-74.1H121.821C107.896,258.388,100.168,284.098,100.168,306.876z M203.804,331.594l17.608-13.616
		c0.981-0.761,1.996-1.445,3.032-2.128h-0.088l34.784-25.182c2.492-1.929,5.92-2.094,8.61-0.419
		c2.668,1.665,4.014,4.851,3.352,7.928l-3.407,16.295c1.864,1.015,3.672,2.172,5.392,3.506l15.688,12.128l50.22-37.673
		c2.293-1.698,5.424-1.677,7.673,0.099c2.227,1.752,3,4.807,1.864,7.42l-20.076,46.163l10.936,23.67
		c1.08,2.338,0.618,5.138-1.191,6.991c-1.808,1.874-4.564,2.425-6.957,1.432l-45.809-19.36l-12.348,9.525
		c-8.501,6.593-18.898,9.482-29.063,8.71c3.749,1.158,8.104,2.503,12.084,3.727c13.318,4.102,5.909,20.673-4.432,16.979
		c-8.798-3.131-14.906-18.036-16.538-22.404c-4.85-1.444-9.525-3.748-13.726-7.012l-17.608-13.604
		c-3.605-2.768-5.71-7.046-5.71-11.599C198.094,338.651,200.2,334.373,203.804,331.594z"/>
</g>
</svg>