<?xml version="1.0" encoding="utf-8"?>

<!DOCTYPE svg PUBLIC "-//W3C//DTD SVG 1.1//EN" "http://www.w3.org/Graphics/SVG/1.1/DTD/svg11.dtd">
<!-- Uploaded to: SVG Repo, www.svgrepo.com, Generator: SVG Repo Mixer Tools -->
<svg height="800px" width="800px" version="1.1" id="_x32_" xmlns="http://www.w3.org/2000/svg" xmlns:xlink="http://www.w3.org/1999/xlink" 
	 viewBox="0 0 512 512"  xml:space="preserve">
<style type="text/css">
	:root { color-scheme: dark light; }
</style>
<g>
	<path fill="currentColor" d="M454.419,78.501c13.759-14.917,15.6-29.096,11.566-39.625c-1.93-14.84-21.83-23.605-27.685-23.572
		c-10.43,0.088-18.688,3.496-26.802,6.075c-8.169,2.656-16.296,4.939-26.979,4.961c-6.515-0.033-10.506-1.224-14.101-2.955
		c-5.358-2.536-10.088-7.364-17.574-12.91c-3.738-2.702-8.225-5.436-13.672-7.376C333.726,1.136,327.419-0.01,320.242,0
		c-9.559-0.033-17.608,2.063-24.058,5.27c-9.701,4.885-15.512,11.169-20.826,14.873c-2.668,1.93-5.138,3.374-8.07,4.432
		c-2.933,1.036-6.406,1.753-11.279,1.764c-6.504-0.033-10.496-1.224-14.09-2.955c-5.347-2.536-10.077-7.364-17.552-12.91
		c-3.738-2.702-8.224-5.425-13.671-7.376C205.26,1.136,198.942-0.01,191.777,0c-9.559-0.033-17.619,2.063-24.069,5.27
		c-9.702,4.885-15.524,11.169-20.838,14.873c-2.668,1.93-5.137,3.374-8.07,4.432c-2.943,1.036-6.427,1.753-11.301,1.764
		c-10.694-0.022-18.809-2.304-26.978-4.961c-8.115-2.58-16.372-5.998-26.803-6.086c-6.085-0.022-25.93,6.637-28.466,25.832
		C42.296,51.378,44.799,64.63,57.6,78.501c30.441,32.986,86.691,39.348,51.301,82.788c-35.402,43.439-59.537,95.897-59.537,145.588
		C49.364,420.161,142.726,512,256.009,512c113.284,0,206.656-91.839,206.656-205.124c0-49.691-24.146-102.149-59.547-145.588
		C367.727,117.849,423.979,111.487,454.419,78.501z M440.086,306.876c0,100.649-82.578,182.544-184.077,182.544
		c-101.498,0-184.066-81.895-184.066-182.544c0-21.434,5.546-44.74,15.667-68.169v5.358h339.069
		C435.356,265.686,440.086,287.086,440.086,306.876z M95.901,221.486c8.269-15.612,18.423-31.114,30.506-45.931
		c12.999-15.964,18.181-30.816,15.854-45.435c-3.528-22.138-22.15-34.101-40.154-45.678c-10.044-6.46-20.419-13.131-27.916-21.256
		c-5.314-5.766-8.081-11.466-7.387-15.258c0.365-1.952,1.665-3.242,2.768-3.794c1.995-0.992,3.174-1.136,4.144-1.136
		c3.021,0,7.708,1.566,13.142,3.363c9.758,3.241,23.098,7.674,40.639,7.674c24.146,0,37.564-11.003,46.45-18.28
		c6.957-5.7,9.823-8.059,17.828-8.059c7.982,0,10.86,2.358,17.795,8.049c8.886,7.288,22.303,18.29,46.438,18.29
		c24.134,0,37.552-11.003,46.438-18.29c6.935-5.69,9.813-8.049,17.795-8.049c8.004,0,10.871,2.358,17.828,8.059
		c8.886,7.278,22.304,18.28,46.448,18.28c17.542,0,30.882-4.432,40.64-7.674c5.435-1.797,10.132-3.363,13.142-3.363
		c0.971,0,2.149,0.143,4.146,1.136c1.103,0.551,2.404,1.842,2.767,3.794c0.694,3.792-2.073,9.492-7.387,15.258
		c-7.496,8.125-17.872,14.796-27.915,21.256c-18.005,11.577-36.626,23.539-40.154,45.678c-2.326,14.619,2.856,29.471,15.854,45.435
		c12.083,14.818,22.238,30.32,30.507,45.931H95.901z"/>
	<path fill="currentColor" d="M203.794,354.77l17.619,13.604c4.2,3.264,8.864,5.568,13.738,7.012c1.61,4.367,7.718,19.273,16.537,22.404
		c10.331,3.694,17.74-12.877,4.432-16.979c-3.991-1.224-8.357-2.568-12.095-3.727c10.165,0.772,20.562-2.117,29.062-8.71
		l12.349-9.525l45.81,19.36c2.381,0.992,5.148,0.442,6.946-1.432c1.809-1.853,2.283-4.653,1.202-6.991l-10.926-23.67l20.065-46.163
		c1.136-2.612,0.375-5.667-1.863-7.42c-2.238-1.776-5.381-1.797-7.662-0.099l-50.231,37.673l-15.69-12.128
		c-1.719-1.334-3.528-2.492-5.391-3.506l3.418-16.295c0.65-3.076-0.694-6.262-3.374-7.928c-2.668-1.675-6.108-1.51-8.599,0.419
		l-34.774,25.182h0.067c-1.015,0.683-2.04,1.367-3.021,2.128l-17.619,13.616c-3.594,2.778-5.689,7.056-5.689,11.577
		C198.104,347.724,200.2,352.002,203.794,354.77z"/>
</g>
</svg>