<?xml version="1.0" encoding="utf-8"?>

<!DOCTYPE svg PUBLIC "-//W3C//DTD SVG 1.1//EN" "http://www.w3.org/Graphics/SVG/1.1/DTD/svg11.dtd">
<!-- Uploaded to: SVG Repo, www.svgrepo.com, Generator: SVG Repo Mixer Tools -->
<svg height="800px" width="800px" version="1.1" id="_x32_" xmlns="http://www.w3.org/2000/svg" xmlns:xlink="http://www.w3.org/1999/xlink" 
	 viewBox="0 0 512 512"  xml:space="preserve">
<style type="text/css">
	:root { color-scheme: dark light; }
</style>
<g>
	<path fill="currentColor" d="M173.077,434.234C178.079,447.152,170.411,427.338,173.077,434.234L173.077,434.234z"/>
	<path fill="currentColor" d="M395.987,256.804l0.104-0.012l-0.355-3.571c0-0.012,0-0.024,0-0.036l-0.336-3.515l-0.128,0.012
		c-1.565-10.185-5.539-20.676-11.763-29.547c-6.933-9.874-16.788-17.791-29.174-20.273c-2.042-0.409-4.139-0.642-6.26-0.642
		c-1.65,0-3.319,0.14-4.983,0.458l0.025-0.012c-0.037,0.012-0.062,0.018-0.098,0.024c-0.513-1.125-1.008-2.256-1.571-3.363v-0.006
		c-2.794-5.429-6.285-10.583-10.65-15.046c-7.41-7.575-17.497-13.065-28.74-13.077h-0.012c-5.649,0.018-11.139,1.443-16.073,3.992
		c-1.192-3.228-2.861-6.346-4.83-9.244c-2.947-4.31-6.474-8.149-9.922-11.084c-6.963-5.894-16.11-8.73-25.182-8.743
		c-4.64,0.006-9.268,0.807-13.621,2.336c1.009-15.578,2.03-31.162,2.928-46.745c0.654-11.414,1.388-22.822,2.305-34.2
		c0.63-8.113,2.567-17.118,2.58-26.228c0-1.694-0.068-3.387-0.232-5.08c-0.508-5.27-1.859-10.668-4.268-15.614
		c-2.408-4.946-5.899-9.458-10.668-12.735c-4.768-3.277-10.216-4.861-15.62-4.854c-5.771,0.006-11.506,1.779-16.482,5.086
		c-4.371,2.904-8.4,6.86-11.586,11.438c-3.155,4.549-5.484,9.728-6.291,15.168h-0.006c-1.62,9.262-2.966,18.555-4.408,27.756
		c-1.657,10.62-3.546,21.41-4.469,32.39c-0.795,9.22-1.37,18.365-2.336,27.432c-1.198,11.389-2.476,22.792-3.662,34.224
		c-0.538,5.172-1.058,10.356-1.486,15.565c-0.177,2.225-0.373,4.53-0.435,6.896c-0.018,0.165-0.012,0.233-0.244,0.654
		c-0.226,0.41-0.716,1.046-1.321,1.963l0.006-0.012c-5.814,8.797-12.141,17.252-19.178,25.011c-3.1,3.448-6.865,6.823-9.898,11.432
		c-3.106,4.775-5.307,9.972-6.988,15.186c-3.718,11.628-5.124,23.88-5.234,35.833l-0.006,0.776
		c0.012,10.73,2.207,20.524,2.971,30.312c1.522,19.16,1.981,38.461,6.664,57.872c2.69,11.164,6.499,22.077,11.524,32.451
		c5.276,10.864,11.414,20.866,16.092,31.43c4.469,10.094,8.522,20.389,12.318,30.795c2.213,6.034,4.029,12.582,7.208,18.921
		c7.624,15.186,19.582,26.118,33.539,33.149c13.964,7.043,29.914,10.264,45.858,10.271c14.649-0.006,29.303-2.727,42.472-7.807
		c20.12-7.74,36.792-21.19,46.469-40.931c9.58-19.527,19.124-39.115,28.184-58.96c4.799-10.528,10.118-21.398,13.529-32.977
		c3.596-12.184,5.924-24.663,7.948-37c3.314-20.285,6.376-41.634,6.382-62.812C396.58,266.592,396.36,261.689,395.987,256.804z
		 M382.421,290.386c-1.767,23.317-4.995,46.806-10.571,69.524c-4.952,20.175-14.881,39.127-23.733,57.817
		c-4.921,10.374-9.916,20.719-14.966,31.039c-3.73,7.63-7.068,15.583-12.588,22.137c-14.349,17.052-37.428,25.623-59.094,27.683
		c-22.065,2.097-46.072-2.464-63.209-17.289c-14.477-12.533-18.555-29.969-25.182-47.063c-4.224-10.913-8.73-21.752-13.938-32.237
		c-5.221-10.503-11.439-20.328-15.657-31.333c-7.752-20.267-10.265-41.646-11.433-63.166c-0.275-5.02-0.489-10.057-1.033-15.052
		c-0.55-5.062-1.761-9.99-2.195-15.064c-0.96-11.383-0.349-23.061,1.926-34.255c1.046-5.209,2.507-10.375,4.677-15.229
		c2.366-5.282,5.722-9.14,9.647-13.297c7.208-7.648,13.682-16,19.643-24.638l0.568-0.837c0,13.97,0,27.951,0,41.927
		c0,5.154,0,10.308,0,15.456c0,1.907,2.8,1.051,4.439,1.051c2.219,0,1.552-1.008,1.552-3.056c0-11.274,0-22.548,0-33.833
		c0-6.273,0-12.558,0-18.836c0-4.133-0.966-9.672,0.868-13.34c-2.666-0.721,0.801-21.71,1.088-24.503
		c1.18-11.353,2.446-22.706,3.644-34.06c1.002-9.47,1.461-18.976,2.421-28.434c1.137-11.12,2.983-22.192,4.726-33.234
		c0.843-5.294,1.693-10.576,2.537-15.864c0.612-3.797,0.826-7.96,2.097-11.604c3.093-8.864,12.386-19.441,22.767-17.717
		c10.791,1.809,15.401,13.64,15.768,23.391c0.183,4.781-0.893,9.629-1.376,14.385c-0.574,5.582-1.034,11.17-1.461,16.764
		c-3.045,40.13-5.117,80.37-7.71,120.543c-0.422,6.56,0.581,13.492,0.88,20.053c0.214,4.554,0.428,9.109,0.63,13.658
		c0.018,0.355-0.159,2.036,0.104,2.311c0.593,0.593,5.026-0.238,5.986-0.282c-0.74-16.091-3.124-33.839-0.355-49.264
		c0.844-10.894,8.877-17.387,19.448-18.219c11.108-0.868,19.612,3.485,25.86,12.631c6.267,9.176,7.642,19.992,10.137,30.611
		c0.532,2.244,4.255,0.153,6.089-0.275c-0.801-3.411-3.093-8.54-2.629-11.878c0.581,0.55,1.174,1.106,1.749,1.65
		c0.061,0.05,4.579-3.741,5.252-4.176c4.34-2.843,9.513-4.218,14.685-3.637c9.329,1.033,16.922,7.673,22.009,15.174
		c5.264,7.752,8.376,16.837,10.173,25.989c1.052,5.35,1.644,10.772,1.895,16.213c0.857,0.642,4.836-0.226,5.986-0.281
		c-0.245-5.343-0.819-10.668-1.785-15.932c-0.446-2.385-0.972-4.768-1.59-7.122c-0.63-2.372,3.724-2.959,5.643-3.106
		c10.448-0.813,20.108,7.373,25.866,15.266C385.906,245.653,384.029,269.178,382.421,290.386z"/>
</g>
</svg>