<?xml version="1.0" encoding="utf-8"?>

<!DOCTYPE svg PUBLIC "-//W3C//DTD SVG 1.1//EN" "http://www.w3.org/Graphics/SVG/1.1/DTD/svg11.dtd">
<!-- Uploaded to: SVG Repo, www.svgrepo.com, Generator: SVG Repo Mixer Tools -->
<svg height="800px" width="800px" version="1.1" id="_x32_" xmlns="http://www.w3.org/2000/svg" xmlns:xlink="http://www.w3.org/1999/xlink" 
	 viewBox="0 0 512 512"  xml:space="preserve">
<style type="text/css">
	:root { color-scheme: dark light; }
</style>
<g>
	<path fill="currentColor" d="M478.943,158.932c-32.244-24.385-54.971-27.736-71.491-33.327l34.025-42.113L417.83,64.377l-34.428,42.614
		c-9.376-15.026-16.84-37.146-48.591-64.537c-43.509-37.556-96.378-19.771-127.76,19.074c-19.624,24.279-21.11,46.399-25.568,75.087
		c-4.582,29.444-11.742,47.853-29.412,60.284c-12.258,8.629-22.916,14.78-33.056,27.309
		c-26.209,32.449-19.214,77.756,11.274,106.215c12.801,11.955,31.447,26.595,50.052,27.851L121.1,431.572
		c-2.488,0.632-5.164,1.125-8.022,1.437c-6.141,0.657-12.957,0.46-19.796-0.813c-10.28-1.897-20.527-6.166-29.042-13.375
		c-4.244-3.613-8.088-7.965-11.33-13.194c-3.244-5.222-5.904-11.356-7.727-18.564c-0.812-3.227-1.354-6.314-1.675-9.328
		c-1.026-9.788,0.288-18.655,2.939-27.474c1.988-6.602,4.73-13.137,7.751-19.788c4.524-10.001,9.672-20.265,13.441-31.53
		c3.769-11.24,6.092-23.614,4.615-37.359c-0.452-4.335-1.306-8.794-2.562-13.375c1.108-0.764,2.242-1.601,3.399-2.545
		c10.345-8.523,1.24-28.492-0.649-39.83c-4.771-28.714-3.432-40.841-0.419-54.972l-20.379,7.858
		c-1.995,4.762-1.814,19.771-1.814,19.771s-0.205-16.101-3.425-18.17l-18.958,1.503c1.584,18.252,6.108,45.997,6.108,45.997
		S24.6,194.026,20.47,172.612L0,181.184c15.888,39.346,28.393,56.482,34.379,61.63c4.073,3.506,11.24,11.166,21.693,10.551
		c0.845,3.35,1.453,6.609,1.79,9.746c1.051,10.009-0.263,19.016-2.899,27.925c-1.978,6.675-4.721,13.26-7.726,19.919
		c-4.524,10.008-9.681,20.206-13.458,31.381c-1.888,5.584-3.416,11.405-4.302,17.555c-0.87,6.134-1.084,12.604-0.37,19.369
		c0.394,3.695,1.068,7.472,2.036,11.347c2.891,11.414,7.686,21.028,13.778,28.853c9.122,11.758,21.052,19.369,33.344,23.688
		c9.976,3.505,20.191,4.885,29.723,4.655L89.12,471.148l23.647,19.123l90.475-111.978c5.879,17.021,23.253,31.431,37.064,41.045
		c34.238,23.836,79.989,21.168,106.223-11.273c10.131-12.546,13.9-24.255,19.771-38.049c8.441-19.886,24.928-30.758,52.763-41.416
		c27.112-10.37,48.427-16.471,68.051-40.758C518.511,249.005,524.792,193.59,478.943,158.932z"/>
</g>
</svg>