<?xml version="1.0" encoding="utf-8"?>

<!DOCTYPE svg PUBLIC "-//W3C//DTD SVG 1.1//EN" "http://www.w3.org/Graphics/SVG/1.1/DTD/svg11.dtd">
<!-- Uploaded to: SVG Repo, www.svgrepo.com, Generator: SVG Repo Mixer Tools -->
<svg height="800px" width="800px" version="1.1" id="_x32_" xmlns="http://www.w3.org/2000/svg" xmlns:xlink="http://www.w3.org/1999/xlink" 
	 viewBox="0 0 512 512"  xml:space="preserve">
<style type="text/css">
	:root { color-scheme: dark light; }
</style>
<g>
	<path fill="currentColor" d="M412.174,352.363c-12.536,3.75-24.842,10.262-37.224,22.584l-0.016,0.015
		c-16.117,16.24-22.454,32.372-25.255,49.026c-2.755,16.645-1.393,33.688-1.102,49.997c0.03,2.724,0.046,5.449-0.015,8.15
		l133.575-133.59c-4.24,0.1-8.51,0.038-12.826-0.069C450.531,347.916,430.924,346.768,412.174,352.363z"/>
	<path fill="currentColor" d="M256.008,0.004C114.611,0.004,0,114.607,0,255.988c0,141.397,114.611,256.008,256.008,256.008
		c21.168,0,41.663-2.74,61.346-7.592c2.526-2.793,4.133-6.244,5.174-11.816c1.056-5.839,1.148-13.622,0.888-22.607
		c-0.428-17.984-2.204-40.775,4.898-64.928c4.73-16.086,13.638-32.617,28.898-47.823c0,0,0-0.008,0.016-0.016
		c19.944-20.066,42.214-28.997,62.708-32.28c20.526-3.329,39.428-1.615,54.444-1.432c9.995,0.199,18.137-0.413,23.418-2.303
		c2.785-0.988,4.791-2.227,6.612-3.888c4.852-19.66,7.592-40.163,7.592-61.323C512,114.607,397.389,0.004,256.008,0.004z
		 M158.363,294.789l-36.49,8.158c-0.551,0.122-0.765,0.459-0.635,1.026l8.288,37.04c0.183,0.827-0.26,1.516-1.087,1.699
		l-13.599,3.046c-0.827,0.183-1.516-0.252-1.699-1.079l-20.495-91.576c-0.183-0.834,0.26-1.515,1.087-1.699l59.104-13.224
		c0.834-0.184,1.516,0.245,1.707,1.079l2.663,11.931c0.191,0.834-0.244,1.508-1.079,1.699l-43.285,9.682
		c-0.551,0.122-0.766,0.466-0.643,1.025l5.372,24c0.122,0.551,0.459,0.766,1.01,0.642l36.49-8.158
		c0.834-0.191,1.523,0.246,1.706,1.072l2.671,11.931C159.634,293.917,159.197,294.598,158.363,294.789z M263.025,312.597
		l-15.398,3.452c-1.11,0.244-1.76-0.046-2.388-0.926l-26.265-32.732l-16.24,3.628c-0.551,0.123-0.766,0.467-0.643,1.026
		l8.043,35.931c0.184,0.834-0.252,1.515-1.079,1.699l-13.599,3.045c-0.835,0.184-1.516-0.252-1.699-1.079l-20.495-91.575
		c-0.184-0.827,0.253-1.516,1.087-1.699l36.49-8.158c17.342-3.888,32.686,4.775,36.405,21.421
		c2.763,12.351-2.174,23.51-12.092,29.961l28.446,33.987C264.364,311.426,263.997,312.383,263.025,312.597z M340.443,295.279
		l-59.104,13.224c-0.826,0.184-1.508-0.245-1.691-1.079l-20.487-91.576c-0.191-0.834,0.245-1.507,1.072-1.691l59.104-13.224
		c0.834-0.191,1.515,0.245,1.706,1.071l2.663,11.939c0.192,0.826-0.245,1.5-1.079,1.691l-43.286,9.68
		c-0.551,0.13-0.765,0.467-0.643,1.026l5.158,23.028c0.122,0.559,0.459,0.773,1.01,0.65l36.49-8.166
		c0.834-0.183,1.515,0.245,1.706,1.079l2.663,11.931c0.192,0.834-0.245,1.515-1.079,1.699l-36.49,8.165
		c-0.551,0.123-0.765,0.46-0.643,1.018l5.342,23.862c0.122,0.552,0.459,0.774,1.01,0.651l43.285-9.689
		c0.834-0.184,1.523,0.245,1.707,1.079l2.671,11.931C341.713,294.407,341.277,295.095,340.443,295.279z M419.536,277.585
		l-59.104,13.224c-0.834,0.184-1.515-0.245-1.699-1.079l-20.487-91.576c-0.191-0.834,0.245-1.508,1.079-1.699l59.104-13.216
		c0.834-0.191,1.508,0.237,1.699,1.071l2.663,11.931c0.191,0.834-0.238,1.508-1.071,1.699l-43.286,9.68
		c-0.558,0.123-0.773,0.467-0.65,1.026l5.158,23.028c0.122,0.559,0.459,0.773,1.018,0.65l36.49-8.166
		c0.834-0.191,1.508,0.245,1.699,1.079l2.663,11.924c0.191,0.842-0.238,1.515-1.072,1.706l-36.489,8.166
		c-0.559,0.123-0.773,0.46-0.65,1.01l5.342,23.862c0.122,0.558,0.46,0.781,1.018,0.65l43.285-9.681
		c0.834-0.184,1.516,0.245,1.699,1.079l2.671,11.931C420.8,276.712,420.371,277.401,419.536,277.585z"/>
	<path fill="currentColor" d="M213.572,240.032l-20.12,4.508c-0.551,0.122-0.765,0.459-0.642,1.018l5.617,25.11
		c0.13,0.558,0.467,0.765,1.018,0.642l20.12-4.5c8.61-1.921,13.255-8.495,11.449-16.546
		C229.184,242.075,222.181,238.111,213.572,240.032z"/>
</g>
</svg>