<?xml version="1.0" encoding="utf-8"?>

<!DOCTYPE svg PUBLIC "-//W3C//DTD SVG 1.1//EN" "http://www.w3.org/Graphics/SVG/1.1/DTD/svg11.dtd">
<!-- Uploaded to: SVG Repo, www.svgrepo.com, Generator: SVG Repo Mixer Tools -->
<svg version="1.1" id="_x32_" xmlns="http://www.w3.org/2000/svg" xmlns:xlink="http://www.w3.org/1999/xlink" 
	 width="800px" height="800px" viewBox="0 0 512 512"  xml:space="preserve">
<style type="text/css">
<![CDATA[
	:root { color-scheme: dark light; }
]]>
</style>
<g>
	<path fill="currentColor" d="M508.762,122.394c-2.719-2.828-6.688-4.094-10.547-3.375c0,0,1.781,0.234-6.047,1.156
		c-36.906,4.313-73.094-4.031-102.125-26.5L366.917,75.8c-3.391-2.625-8.25-2-10.875,1.375l-55.25,71.406
		c-2.609,3.391-2,8.25,1.391,10.875l23.109,17.891c29.047,22.469,46.188,55.406,51.281,92.203c1.078,7.828,0.406,6.156,0.406,6.156
		c0.266,3.922,2.484,7.438,5.906,9.359s7.594,1.984,11.078,0.156c0,0,2.922-0.734,11.844-6.172
		c23.86-14.547,45.516-33.625,63.641-57.047s31.141-49.172,39.234-75.922c3.031-10,3.016-13.016,3.016-13.016
		C512.59,129.237,511.48,125.222,508.762,122.394z"/>
	<path fill="currentColor" d="M118.042,285.222c3.484,1.828,7.641,1.766,11.063-0.156s5.656-5.438,5.906-9.359c0,0-0.656,1.672,0.422-6.156
		c5.078-36.797,22.234-69.734,51.266-92.203l23.125-17.891c3.375-2.625,4-7.484,1.391-10.875l-55.266-71.406
		c-2.609-3.375-7.484-4-10.859-1.375l-23.125,17.875c-29.031,22.469-65.219,30.813-102.125,26.5
		c-7.844-0.922-6.063-1.156-6.063-1.156c-3.859-0.719-7.813,0.547-10.531,3.375s-3.828,6.844-2.953,10.672
		c0,0-0.016,3.016,3.016,13.016c8.094,26.75,21.125,52.5,39.25,75.922c18.109,23.422,39.781,42.5,63.641,57.047
		C115.121,284.487,118.042,285.222,118.042,285.222z"/>
	<path fill="currentColor" d="M274.449,245.581l44.047-56.938l-23.078-17.859l-39.422,50.953l-39.422-50.953l-23.078,17.859l44.047,56.938
		L106.746,414.612c-4.656,6.031-3.547,14.688,2.469,19.344l1.281,0.984c6.016,4.656,14.672,3.563,19.344-2.469l126.156-163.047
		l126.172,163.047c4.656,6.031,13.328,7.125,19.344,2.469l1.266-0.984c6.031-4.656,7.125-13.313,2.469-19.344L274.449,245.581z"/>
</g>
</svg>