<?xml version="1.0" encoding="utf-8"?>

<!DOCTYPE svg PUBLIC "-//W3C//DTD SVG 1.1//EN" "http://www.w3.org/Graphics/SVG/1.1/DTD/svg11.dtd">
<!-- Uploaded to: SVG Repo, www.svgrepo.com, Generator: SVG Repo Mixer Tools -->
<svg version="1.1" id="_x32_" xmlns="http://www.w3.org/2000/svg" xmlns:xlink="http://www.w3.org/1999/xlink" 
	 width="800px" height="800px" viewBox="0 0 512 512"  xml:space="preserve">
<style type="text/css">
<![CDATA[
	:root { color-scheme: dark light; }
]]>
</style>
<g>
	<rect y="420.391" fill="currentColor" width="512" height="84.531"/>
	<path fill="currentColor" d="M444.188,59.906c-1.391-29.484-31.906-52.828-69.094-52.828h-238.25c-37.188,0-67.703,23.344-69.094,52.828
		L52.813,380.938h406.328L444.188,59.906z M158.281,343.797H91.719l13.156-282.172c0.328-7.078,12.953-17.391,31.969-17.391h21.438
		V343.797z M307.797,297.734C330.875,278.016,346,245.344,346,208.313c0-35.547-13.953-67-35.453-86.922
		c42.641,6.656,75.297,43.453,75.297,87.969C385.844,254.813,351.781,292.266,307.797,297.734z"/>
</g>
</svg>