<?xml version="1.0" encoding="utf-8"?>

<!DOCTYPE svg PUBLIC "-//W3C//DTD SVG 1.1//EN" "http://www.w3.org/Graphics/SVG/1.1/DTD/svg11.dtd">
<!-- Uploaded to: SVG Repo, www.svgrepo.com, Generator: SVG Repo Mixer Tools -->
<svg height="800px" width="800px" version="1.1" id="_x32_" xmlns="http://www.w3.org/2000/svg" xmlns:xlink="http://www.w3.org/1999/xlink" 
	 viewBox="0 0 512 512"  xml:space="preserve">
<style type="text/css">
	:root { color-scheme: dark light; }
</style>
<g>
	<path fill="currentColor" d="M447.139,16H64.859C29.188,16,0,45.729,0,82.063v268.519c0,36.334,29.188,66.063,64.859,66.063h155.192
		l74.68,76.064c3.156,3.213,7.902,4.174,12.024,2.436c4.121-1.74,6.808-5.836,6.808-10.381v-68.119h133.576
		c35.674,0,64.861-29.729,64.861-66.063V82.063C512,45.729,482.812,16,447.139,16z M96,132v-32h320v32H96z M96,232v-32h320v32H96z
		 M324,300v32H96v-32H324z"/>
</g>
</svg>