<?xml version="1.0" encoding="utf-8"?>

<!DOCTYPE svg PUBLIC "-//W3C//DTD SVG 1.1//EN" "http://www.w3.org/Graphics/SVG/1.1/DTD/svg11.dtd">
<!-- Uploaded to: SVG Repo, www.svgrepo.com, Generator: SVG Repo Mixer Tools -->
<svg height="800px" width="800px" version="1.1" id="_x32_" xmlns="http://www.w3.org/2000/svg" xmlns:xlink="http://www.w3.org/1999/xlink" 
	 viewBox="0 0 512 512"  xml:space="preserve">
<style type="text/css">
	:root { color-scheme: dark light; }
</style>
<g>
	<path fill="currentColor" d="M217.238,233.975l-18.104,4.058c-0.496,0.11-0.688,0.414-0.578,0.916l5.057,22.603
		c0.11,0.503,0.413,0.688,0.909,0.578l18.118-4.051c7.743-1.729,11.932-7.647,10.306-14.894
		C231.292,235.814,224.995,232.246,217.238,233.975z"/>
	<path fill="currentColor" d="M479.546,265.761c-2.397-6.283-2.397-13.234,0-19.524l19.469-51.11c4.602-12.056,0.165-25.669-10.623-32.716
		l-45.798-29.906c-5.635-3.679-9.713-9.307-11.477-15.796l-14.288-52.805c-3.376-12.442-14.963-20.86-27.832-20.22l-54.63,2.728
		c-6.724,0.331-13.323-1.812-18.573-6.035L273.204,6.071c-10.044-8.095-24.359-8.095-34.404,0l-42.588,34.307
		c-5.25,4.223-11.849,6.366-18.573,6.035l-54.631-2.728c-12.868-0.64-24.456,7.778-27.832,20.22L80.89,116.709
		c-1.764,6.489-5.842,12.117-11.477,15.796l-45.798,29.906c-10.788,7.047-15.225,20.66-10.637,32.716l19.482,51.11
		c2.397,6.29,2.397,13.24,0,19.524l-19.482,51.117c-4.588,12.042-0.152,25.668,10.637,32.716l45.798,29.905
		c5.635,3.672,9.713,9.294,11.477,15.79l14.288,52.798c3.376,12.455,14.963,20.867,27.832,20.226l54.631-2.729
		c6.724-0.337,13.323,1.812,18.573,6.035l42.588,34.315c10.044,8.087,24.36,8.087,34.404,0l42.588-34.315
		c5.25-4.223,11.849-6.372,18.573-6.035l54.63,2.729c12.869,0.64,24.456-7.771,27.832-20.226l14.288-52.798
		c1.764-6.496,5.842-12.118,11.477-15.79l45.798-29.905c10.788-7.048,15.225-20.674,10.623-32.716L479.546,265.761z M167.54,283.266
		l-32.847,7.344c-0.496,0.11-0.689,0.414-0.565,0.924l7.454,33.342c0.166,0.744-0.234,1.364-0.978,1.53l-12.235,2.742
		c-0.744,0.166-1.364-0.227-1.529-0.971l-18.45-82.434c-0.165-0.751,0.234-1.364,0.978-1.529l53.197-11.904
		c0.759-0.166,1.364,0.22,1.544,0.971l2.397,10.74c0.166,0.752-0.22,1.358-0.978,1.53l-38.965,8.715
		c-0.496,0.11-0.688,0.42-0.578,0.923l4.836,21.604c0.111,0.497,0.414,0.689,0.91,0.579l32.847-7.344
		c0.758-0.173,1.378,0.22,1.543,0.964l2.398,10.74C168.684,282.481,168.298,283.094,167.54,283.266z M261.755,299.297l-13.861,3.107
		c-0.992,0.22-1.584-0.042-2.15-0.834l-23.642-29.464l-14.619,3.266c-0.496,0.11-0.688,0.42-0.578,0.923l7.247,32.344
		c0.166,0.75-0.234,1.364-0.978,1.529l-12.235,2.742c-0.758,0.165-1.364-0.228-1.53-0.971l-18.448-82.435
		c-0.166-0.744,0.22-1.364,0.978-1.53l32.847-7.344c15.611-3.5,29.416,4.299,32.764,19.282c2.494,11.119-1.956,21.163-10.885,26.97
		l25.614,30.595C262.968,298.243,262.637,299.104,261.755,299.297z M331.445,283.707l-53.197,11.904
		c-0.744,0.165-1.365-0.22-1.53-0.971l-18.435-82.434c-0.179-0.751,0.22-1.357,0.964-1.523l53.198-11.904
		c0.758-0.172,1.364,0.221,1.543,0.965l2.397,10.746c0.166,0.744-0.22,1.35-0.978,1.522l-38.964,8.715
		c-0.496,0.117-0.688,0.42-0.578,0.922l4.643,20.73c0.11,0.503,0.414,0.696,0.909,0.586l32.847-7.351
		c0.758-0.165,1.364,0.221,1.544,0.971l2.397,10.74c0.166,0.751-0.22,1.364-0.978,1.53l-32.847,7.35
		c-0.496,0.11-0.689,0.414-0.578,0.916l4.808,21.48c0.11,0.496,0.414,0.696,0.91,0.586l38.965-8.721
		c0.758-0.166,1.378,0.22,1.543,0.971l2.398,10.74C332.588,282.922,332.202,283.542,331.445,283.707z M402.65,267.779
		l-53.211,11.904c-0.744,0.165-1.364-0.221-1.529-0.972l-18.435-82.434c-0.179-0.751,0.22-1.357,0.964-1.53l53.212-11.898
		c0.744-0.172,1.35,0.214,1.529,0.965l2.397,10.74c0.166,0.751-0.22,1.357-0.964,1.53l-38.964,8.715
		c-0.51,0.11-0.702,0.42-0.592,0.923l4.643,20.729c0.11,0.503,0.414,0.696,0.923,0.586l32.847-7.351
		c0.744-0.172,1.35,0.221,1.53,0.972l2.397,10.733c0.166,0.758-0.22,1.364-0.964,1.536l-32.847,7.351
		c-0.51,0.11-0.703,0.413-0.592,0.909l4.808,21.48c0.11,0.503,0.414,0.702,0.924,0.586l38.964-8.715
		c0.744-0.165,1.364,0.221,1.53,0.972l2.398,10.74C403.78,266.994,403.394,267.614,402.65,267.779z"/>
</g>
</svg>