<?xml version="1.0" encoding="utf-8"?>

<!DOCTYPE svg PUBLIC "-//W3C//DTD SVG 1.1//EN" "http://www.w3.org/Graphics/SVG/1.1/DTD/svg11.dtd">
<!-- Uploaded to: SVG Repo, www.svgrepo.com, Generator: SVG Repo Mixer Tools -->
<svg height="800px" width="800px" version="1.1" id="_x32_" xmlns="http://www.w3.org/2000/svg" xmlns:xlink="http://www.w3.org/1999/xlink" 
	 viewBox="0 0 512 512"  xml:space="preserve">
<style type="text/css">
	:root { color-scheme: dark light; }
</style>
<g>
	<path fill="currentColor" d="M331.617,410.421c-0.179-1.041-0.589-2.052-1.417-2.834l-3.597-3.418c-7.59-7.225-19.592-6.929-26.806,0.661
		l-3.84,4.026c-7.221,7.59-6.925,19.585,0.668,26.81l3.597,3.434c1.504,1.428,3.673,1.74,5.477,0.972
		c2.048,14.571,33.366,56.871,39.497,71.928c16.147-2.051,26.897-13.553,26.897-13.553s-4.331-7.984-16.178-25.723
		c-1.728-2.941,0.509-5.972,5.264-0.798c4.752,5.174,19.946,30.593,19.946,30.593s27.076-23.831,29.051-33.882
		C411.263,463.083,356.812,412.092,331.617,410.421z"/>
	<path fill="currentColor" d="M431.924,9.945C424.227,3.29,414.675-0.007,405.239,0c-11.418-0.015-22.863,4.809-30.92,14.138
		L175.202,246.394l-15.752-13.469c-3.582-3.108-5.223-7.012-5.291-11.495c0.053-3.632,1.105-6.792,3.624-9.785l72.962-85.421
		c5.037-5.888,7.536-13.196,7.529-20.39c0.015-8.843-3.753-17.716-11.012-23.9c-5.888-5.03-13.192-7.537-20.386-7.529
		c-8.839-0.016-17.709,3.745-23.904,11.015l-72.969,85.413c-12.463,14.586-18.67,32.667-18.678,50.497v0.023v0.19v0.129h0.008
		c0.03,21.849,9.386,43.713,27.311,59.028l15.49,13.234l-57.912,67.028c-6.663,7.688-9.956,17.245-9.944,26.681
		c-0.004,8.372,2.601,16.736,7.657,23.786c-5.344,11.077-8,21.925-8,32.166c-0.068,17.238,7.632,32.432,20.052,42.574
		c12.402,10.21,29.18,15.688,47.823,15.695c25.724-0.015,55.162-10.423,82.883-33.966c4.175-3.586,8.163-8.303,12.93-13.713
		c7.061-8.052,15.49-17.458,24.747-24.568c4.611-3.555,9.401-6.533,14.222-8.554c4.824-2.044,9.644-3.152,14.59-3.152v-18.849
		c-10.457,0-20.037,3.184-28.44,7.787c-12.618,6.936-22.958,17.002-31.463,26.171c-4.239,4.581-8.004,8.965-11.217,12.604
		c-3.191,3.616-5.926,6.541-7.567,7.908c-24.812,21.074-50.068,29.492-70.686,29.484c-14.981,0-27.421-4.429-35.834-11.388
		c-8.406-7.019-13.125-16.249-13.192-28.033c0-5.827,1.268-12.383,4.148-19.539c5.746,2.879,11.958,4.452,18.168,4.444
		c11.426,0.008,22.859-4.809,30.916-14.13L436.128,67.546c6.655-7.688,9.944-17.253,9.938-26.688
		C446.081,29.439,441.257,17.998,431.924,9.945z M421.869,55.215L192.071,322.979l-33.047-29.028l1.763-2.036l-29.906-25.556
		c-13.621-11.616-20.709-28.261-20.709-44.814v-0.008v-0.167v-0.015c0-13.492,4.698-27.22,14.158-38.266l72.976-85.428
		c2.511-2.933,5.975-4.391,9.569-4.406c2.898,0.015,5.747,0.972,8.148,3.023c2.925,2.485,4.391,5.972,4.402,9.557
		c-0.004,2.91-0.972,5.759-3.012,8.144l-72.973,85.421l-0.018,0.015c-5.444,6.374-8.122,14.275-8.118,21.994v0.069
		c0,9.511,4.038,19.099,11.893,25.769l30.02,25.655L388.587,26.461c4.368-5.044,10.442-7.597,16.652-7.612
		c5.116,0.015,10.176,1.747,14.358,5.356h0.004c5.048,4.368,7.604,10.453,7.616,16.652
		C427.205,45.978,425.474,51.045,421.869,55.215z"/>
</g>
</svg>