<?xml version="1.0" encoding="utf-8"?>

<!DOCTYPE svg PUBLIC "-//W3C//DTD SVG 1.1//EN" "http://www.w3.org/Graphics/SVG/1.1/DTD/svg11.dtd">
<!-- Uploaded to: SVG Repo, www.svgrepo.com, Generator: SVG Repo Mixer Tools -->
<svg height="800px" width="800px" version="1.1" id="_x32_" xmlns="http://www.w3.org/2000/svg" xmlns:xlink="http://www.w3.org/1999/xlink" 
	 viewBox="0 0 512 512"  xml:space="preserve">
<style type="text/css">
	:root { color-scheme: dark light; }
</style>
<g>
	<path fill="currentColor" d="M474.39,28.051c-6.001-4.487-13.236-6.812-20.537-6.812c-3.322,0-6.635,0.482-9.855,1.446l-27.164,8.131
		c-9.12,2.222-24.104,4.868-43.882,4.868c-23.58,0-47.6-3.795-71.418-11.377c-26.97-8.587-55.215-12.931-83.917-12.923
		c-11.993,0-23.116,0.803-33.435,2.02V0H23.766v276.01h129.946c-7.953,12.694-15.602,26.234-22.6,40.611
		c-19.43,39.96-33.9,86.275-35.574,137.138L93.62,512h16.65h249.446l1.64-54.691c0.355-11.96,2.755-51.024,17.842-100.289
		c15.086-49.308,42.766-108.673,93.536-162.096l15.5-16.329V55.613C488.234,44.744,483.095,34.534,474.39,28.051z M456.016,165.722
		l-6.643,7.007c-54.987,57.886-84.806,121.993-100.991,174.859c-16.176,52.891-18.805,94.66-19.228,108.757l-0.701,23.437H126.92
		l0.82-24.958c1.479-45.352,14.427-87.264,32.345-124.105c17.901-36.833,40.763-68.476,61.563-92.927l22.574-26.547h-92.259v32.54
		H55.985V32.218h95.978v19.177l19.033-3.508c13.252-2.451,29.082-4.294,46.62-4.294c25.465,0,50.389,3.846,74.147,11.402
		c26.809,8.545,54.142,12.906,81.188,12.906c22.904,0,40.611-3.085,51.919-5.883l0.389-0.101l27.984-8.367l0.61-0.092l1.284,0.414
		l0.88,1.741V165.722z"/>
	<path fill="currentColor" d="M372.952,92.074c-29.446,0-59.23-4.725-88.524-14.048c-21.4-6.812-43.882-10.26-66.812-10.26
		c-45.732,0-78.221,13.861-78.542,14.005l-11.266,4.876V56.382h-47.66v163.246h47.66v-32.54h182.389l-18.315,14.385
		c-1.378,1.082-135.194,107.879-139.995,254.144h153.112c1.074-35.885,12.728-179.397,126.854-299.53V85.168
		c-0.076,0.026-0.152,0.042-0.237,0.06C419.284,88.346,399.093,92.074,372.952,92.074z"/>
</g>
</svg>