<?xml version="1.0" encoding="utf-8"?>

<!DOCTYPE svg PUBLIC "-//W3C//DTD SVG 1.1//EN" "http://www.w3.org/Graphics/SVG/1.1/DTD/svg11.dtd">
<!-- Uploaded to: SVG Repo, www.svgrepo.com, Generator: SVG Repo Mixer Tools -->
<svg version="1.1" id="_x32_" xmlns="http://www.w3.org/2000/svg" xmlns:xlink="http://www.w3.org/1999/xlink" 
	 width="800px" height="800px" viewBox="0 0 512 512"  xml:space="preserve">
<style type="text/css">
<![CDATA[
	:root { color-scheme: dark light; }
]]>
</style>
<g>
	<path fill="currentColor" d="M476.235,174.734c2.203-8.547-2.953-17.266-11.516-19.484l-57.579-14.781l50.61-27.672
		c7.75-4.234,10.594-13.969,6.359-21.719s-13.969-10.594-21.719-6.344l-64.063,35.047l39.219-95.25
		c0.469-1.156,0.453-2.469-0.078-3.609c-0.516-1.141-1.5-2.016-2.688-2.422c0,0-31.688-16.438-49.594-16.438
		c-37.063,0-73.047,19.422-105.828,19.422c-9.906,0-19.531-1.781-28.797-6.422C208.797,4.188,189.797,0,171.829,0
		c-27.172,0-75.313,18.766-75.313,18.766c-1.266,0.313-2.344,1.172-2.938,2.359c-0.594,1.172-0.656,2.547-0.156,3.766L136.61,129.75
		c-5.328,2.625-9.016,8.031-9.016,14.344c0,5.438,2.734,10.234,6.891,13.125c-21.109,25.156-73.156,92.547-92.75,167.031
		C13.454,431.703,76.516,512,255.407,512c178.907,0,241.954-80.297,213.688-187.75c-17.297-65.688-59.829-125.875-84.11-156.438
		l71.782,18.438C465.313,188.453,474.032,183.297,476.235,174.734z M171.829,40c13.078,0,26.047,3.453,40.844,10.844
		c14.109,7.063,29.828,10.641,46.688,10.641c21.266,0,41.078-5.438,60.25-10.688c16.391-4.5,31.859-8.734,45.578-8.734l1.875,0.031
		l-35.406,86H179.172L144.61,44.125C154.11,41.547,163.032,40,171.829,40z M419.813,421.094C394.5,453.922,336.125,472,255.407,472
		C174.704,472,116.313,453.922,91,421.094c-16.516-21.438-20.078-50.594-10.594-86.656c6.297-23.953,16.609-47.266,28.078-68.453
		v3.484c37.516,0,267.359,0,295.766,0c10.656,20.203,20.172,42.25,26.157,64.969C439.907,370.5,436.329,399.656,419.813,421.094z
		 M395.36,253.469c-48.234,0-230.969,0-279.844,0c26.891-46.031,56.984-79.047,57.422-79.531l12.844-13.844h139.266l12.844,13.844
		C338.344,174.438,368.454,207.344,395.36,253.469z"/>
	<path fill="currentColor" d="M313.141,349.125c2-5,16.078-37.156,12-39c-11-5-30,17-42,29c0,0-5-2.094-12.422-3.984
		c-0.688-3.109-2.125-9.109-3.578-12.016c-2-4,7-17-2-13c-8.938,3.969-26.703,21.719-29.891,23.922
		c-2.781,0.75-5.516,1.734-8.109,3.078c-17-20-47,1-34,18c-6,2-1,21,6,21c16,18,61,7,61,7s13.813,24.453,22,22c20-6-1-35,9-30
		s37,14,35,3S311.141,354.125,313.141,349.125z"/>
</g>
</svg>