<?xml version="1.0" encoding="utf-8"?>

<!DOCTYPE svg PUBLIC "-//W3C//DTD SVG 1.1//EN" "http://www.w3.org/Graphics/SVG/1.1/DTD/svg11.dtd">
<!-- Uploaded to: SVG Repo, www.svgrepo.com, Generator: SVG Repo Mixer Tools -->
<svg height="800px" width="800px" version="1.1" id="_x32_" xmlns="http://www.w3.org/2000/svg" xmlns:xlink="http://www.w3.org/1999/xlink" 
	 viewBox="0 0 512 512"  xml:space="preserve">
<style type="text/css">
	:root { color-scheme: dark light; }
</style>
<g>
	<path fill="currentColor" d="M256.008,239.764c-56.504,0-102.317,45.801-102.317,102.297c0,56.512,45.813,102.321,102.317,102.321
		s102.313-45.808,102.313-102.321C358.321,285.566,312.512,239.764,256.008,239.764z"/>
	<path fill="currentColor" d="M398.102,107.56l-69.225,74.75c1.048-0.081,2.091-0.161,3.139-0.161c5.525,0,10.203,1.144,14.297,3.513
		c4.118,2.394,7.133,5.714,9.498,9.486l51.531-56.713c5.525-6.093,9.78-13.096,12.65-20.544c2.864-7.455,4.344-15.361,4.344-23.34
		c0-7.576-1.35-15.24-4.054-22.574l-0.29-0.814l-0.484-1.321c-0.685,2.184-1.467,4.384-2.386,6.633
		c-3.936,9.614-10.062,19.834-18.875,30.899L398.102,107.56z"/>
	<path fill="currentColor" d="M104.622,138.435l51.559,56.729c2.366-3.772,5.372-7.1,9.491-9.494c4.118-2.378,8.8-3.521,14.325-3.521
		c1.044,0,2.092,0.08,3.131,0.161l-69.226-74.75l-0.145-0.186C104.94,96.309,98.815,86.089,94.87,76.475
		c-0.923-2.265-1.708-4.49-2.398-6.681l-0.503,1.37l-0.29,0.814c-2.7,7.334-4.014,14.998-4.014,22.574
		c0,7.979,1.434,15.885,4.304,23.34C94.834,125.338,99.089,132.342,104.622,138.435z"/>
	<path fill="currentColor" d="M123.255,99.588l80.074,86.452c3.002,0.612,5.806,1.064,8.192,1.064c1.14,0,2.108-0.096,2.873-0.298
		c3.361-0.903,8.249-5.464,12.564-9.494c1.95-1.821,3.97-3.707,6.081-5.504L141.755,70.833l14.213-12.774l12.774,14.418h174.516
		l12.73-14.418l14.213,12.774l-91.244,100.959c2.128,1.813,4.155,3.707,6.117,5.537c4.312,4.022,9.188,8.583,12.528,9.469
		c0.774,0.21,1.745,0.306,2.885,0.306c2.386,0,5.19-0.451,8.184-1.064l80.073-86.452c8.184-10.308,13.628-19.52,17.013-27.772
		c3.398-8.3,4.744-15.626,4.751-22.404c0-1.596-0.112-3.144-0.258-4.682l-0.742-2.023c-4.711-12.815-13.229-23.542-23.916-30.956
		C374.912,4.303,361.928,0,348.296,0H163.664c-13.633,0-26.612,4.303-37.306,11.75c-10.683,7.414-19.202,18.141-23.912,30.956
		l-0.685,1.869c-0.157,1.588-0.27,3.191-0.27,4.836c0,6.778,1.354,14.104,4.751,22.404
		C109.626,80.069,115.071,89.281,123.255,99.588z"/>
	<path fill="currentColor" d="M400.991,380.932c3.534-13.226,24.936-24.533,24.936-38.87c0-14.321-21.402-25.629-24.936-38.846
		c-3.658-13.669,9.12-34.164,2.204-46.132c-7.035-12.146-31.226-11.275-41.082-21.123c-9.857-9.841-8.982-34.043-21.128-41.079
		c-11.964-6.922-32.455,5.851-46.131,2.2c-13.193-3.522-24.525-24.936-38.854-24.936c-14.309,0-25.637,21.414-38.854,24.936
		c-13.656,3.651-34.147-9.122-46.132-2.2c-12.121,7.036-11.267,31.238-21.103,41.079c-9.86,9.848-34.066,8.977-41.082,21.123
		c-6.936,11.968,5.863,32.463,2.204,46.132c-3.538,13.217-24.96,24.525-24.96,38.846c0,14.338,21.422,25.644,24.96,38.87
		c3.659,13.668-9.139,34.155-2.204,46.131c7.016,12.129,31.222,11.259,41.082,21.124c4.529,4.529,6.774,12.08,9.079,19.592
		c1.95,6.399,3.937,12.782,7.354,17.247c1.314,1.741,2.845,3.184,4.67,4.239c11.964,6.923,32.475-5.867,46.132-2.208
		c8.446,2.257,16.118,11.792,24.283,18.408C246.043,509.188,250.838,512,256,512c5.166,0,9.957-2.812,14.591-6.536
		c8.011-6.488,15.542-15.78,23.767-18.246c0.161-0.064,0.338-0.122,0.496-0.162c13.676-3.658,34.167,9.132,46.131,2.208
		c1.83-1.055,3.381-2.53,4.691-4.255c7.435-9.76,8.067-28.482,16.437-36.823c9.856-9.864,34.047-8.994,41.082-21.124
		C410.11,415.086,397.332,394.6,400.991,380.932z M256,455.351c-2.208,0-4.392-0.048-6.556-0.193
		c-27.248-1.556-51.914-12.718-70.636-30.19c-22.22-20.688-36.09-50.161-36.09-82.906c0-62.556,50.718-113.282,113.282-113.282
		s113.29,50.726,113.29,113.282C369.29,404.642,318.564,455.351,256,455.351z"/>
</g>
</svg>