<?xml version="1.0" encoding="utf-8"?>

<!DOCTYPE svg PUBLIC "-//W3C//DTD SVG 1.1//EN" "http://www.w3.org/Graphics/SVG/1.1/DTD/svg11.dtd">
<!-- Uploaded to: SVG Repo, www.svgrepo.com, Generator: SVG Repo Mixer Tools -->
<svg height="800px" width="800px" version="1.1" id="_x32_" xmlns="http://www.w3.org/2000/svg" xmlns:xlink="http://www.w3.org/1999/xlink" 
	 viewBox="0 0 512 512"  xml:space="preserve">
<style type="text/css">
	:root { color-scheme: dark light; }
</style>
<g>
	<path fill="currentColor" d="M366.31,245.713c-13.105-13.115-28.656-23.707-45.753-31.496v-23.884c0-7.855-3.019-14.988-7.949-20.294
		c-0.01-0.01-0.01-0.01-0.019-0.019l0.019-0.028L405.238,0h-38.114l-87.315,160.346h-0.029l-1.274,2.288l-5.024,9.233l-3.684,6.768
		l-4.227,7.77h35.976c0.45,1.191,0.732,2.559,0.732,3.928v16.817c-14.652-4.547-30.165-7.106-46.278-7.106
		c-14.98,0-29.499,2.128-43.241,6.093v-15.804c0-1.369,0.282-2.737,0.732-3.928h38.076l0.862-1.537l3.356-6.233h0.038l9.786-18.288
		h-0.01l5.84-10.798L353.027,0H314.82l-62.391,114.322l-19.104,35.226l-5.822,10.798h-2.943c-4.575,0-8.961,1.003-12.804,2.925
		c-0.01,0-0.01,0.01-0.018,0.01l0.374-0.675l7.002-12.964l6.243-11.614L150.49,0h-38.104l91.402,168.698
		c-5.755,5.399-9.308,13.142-9.308,21.634v22.525c-18.326,7.874-34.907,18.981-48.79,32.855
		c-28.187,28.186-45.669,67.284-45.669,110.309c0,43.016,17.482,82.086,45.669,110.272C173.877,494.509,212.984,512,256,512
		c43.015,0,82.123-17.491,110.31-45.706c28.177-28.186,45.668-67.256,45.668-110.272C411.978,312.997,394.487,273.9,366.31,245.713z
		 M214.793,183.734l-0.187,0.338c0.065-0.104,0.103-0.216,0.169-0.319C214.783,183.753,214.783,183.734,214.793,183.734z
		 M345.771,445.804C322.75,468.798,291.114,482.98,256,482.98c-35.114,0-66.75-14.182-89.781-37.176
		c-22.994-23.032-37.176-54.668-37.176-89.782c0-35.114,14.183-66.788,37.176-89.781c15.016-14.979,33.661-26.218,54.602-32.245
		c11.136-3.188,22.946-4.931,35.179-4.931c12.045,0,23.688,1.668,34.71,4.827c21.11,5.944,39.941,17.257,55.061,32.348
		c23.003,22.994,37.186,54.667,37.186,89.781C382.958,391.136,368.775,422.772,345.771,445.804z"/>
	<polygon fill="currentColor" points="238.219,114.415 251.472,89.847 202.804,0 164.597,0 232.369,125.073 	"/>
	<path fill="currentColor" d="M328.571,283.217c-12.26-12.195-27.53-21.335-44.618-26.124c-8.933-2.54-18.363-3.881-28.111-3.862
		c-9.908,0.018-19.469,1.443-28.478,4.04c-16.939,4.902-32.03,14.023-44.169,26.171c-18.588,18.644-30.033,44.309-29.986,72.74
		c0.047,28.431,11.567,54.031,30.212,72.646c18.672,18.588,44.309,30.033,72.74,29.986c28.43-0.047,54.03-11.568,72.637-30.211
		c18.598-18.672,30.043-44.31,29.996-72.741C358.745,327.432,347.225,301.805,328.571,283.217z"/>
</g>
</svg>