<?xml version="1.0" encoding="utf-8"?>

<!DOCTYPE svg PUBLIC "-//W3C//DTD SVG 1.1//EN" "http://www.w3.org/Graphics/SVG/1.1/DTD/svg11.dtd">
<!-- Uploaded to: SVG Repo, www.svgrepo.com, Generator: SVG Repo Mixer Tools -->
<svg height="800px" width="800px" version="1.1" id="_x32_" xmlns="http://www.w3.org/2000/svg" xmlns:xlink="http://www.w3.org/1999/xlink" 
	 viewBox="0 0 512 512"  xml:space="preserve">
<style type="text/css">
	:root { color-scheme: dark light; }
</style>
<g>
	<path fill="currentColor" d="M505.588,233.469c-5.147-13.673-13.335-25.738-23.546-35.446c1.014-4.978,1.521-9.874,1.521-14.595
		c0-9.453-1.858-18.486-5.489-26.414c-5.315-11.983-14.43-21.436-25.148-27.683c-10.8-6.165-23.208-9.288-36.118-9.288
		c-29.199-0.082-60.932,16.458-80.679,50.552c-4.302,7.425-8.776,14.768-13.416,21.947h-0.17
		c-20.677,3.452-42.619,5.315-65.233,5.315c-45.575,0-88.698-7.516-124.225-21.18l-0.845-0.338
		c-11.225-4.393-23.208-6.584-35.191-6.584c-40.168-0.083-75.952,24.386-90.464,61.777C2.11,243.086,0,254.987,0,266.631
		c0,19.499,5.823,38.314,16.458,54.269c10.632,15.864,26.162,28.861,45.319,36.286c58.65,22.87,126.08,34.77,195.534,34.77h0.082
		c67.937,0,134.181-11.398,191.908-33.336c24.134-9.114,43.542-27.344,54.091-50.889c5.658-12.659,8.609-26.241,8.609-39.831
		C512,256.256,509.808,244.611,505.588,233.469z M325.412,247.734c5.909-7.854,11.814-16.12,17.636-24.732
		c7.768-11.389,15.276-23.289,22.281-35.446c1.351-2.357,2.785-4.549,4.22-6.577c14.01-19.663,32.067-27.089,47.26-27.18
		c9.873,0,18.312,3.214,23.965,8.192c2.786,2.448,4.982,5.398,6.498,8.86c0.928,1.937,1.604,4.046,1.941,6.412
		c0.424,1.854,0.593,3.882,0.593,6.165c0,4.219-0.676,9.197-2.447,14.85c-1.521,4.723-2.955,9.033-4.475,12.914
		c-1.772,4.722-3.544,8.778-5.316,12.403c-4.977,9.956-9.79,16.038-15.782,21.181c-5.188,4.524-13.239,10.953-26.924,16.738
		c-6.631,2.167-13.454,4.17-20.443,6.032c15.346-16.606,28.268-38.141,38.903-63.828c1.244-3.017-0.186-6.47-3.202-7.714
		c-3.016-1.252-6.47,0.182-7.718,3.198c-13.635,32.973-30.917,57.838-51.355,73.752c-17.686,3.609-36.225,6.264-55.469,7.772
		C305.164,271.535,315.214,261.225,325.412,247.734z M472.59,293.894c-7.005,15.444-19.326,27.09-35.273,33.163
		c-53.338,20.257-115.786,31.144-180.006,31.144c-65.573,0-129.121-11.307-183.299-32.496c-12.49-4.895-22.532-13.244-29.451-23.628
		c-7.005-10.375-10.886-22.787-10.804-35.446c0-7.59,1.352-15.271,4.306-22.869c9.617-24.642,32.487-40.25,58.987-40.25
		c7.85,0,15.527,1.434,22.956,4.302c20.167,7.846,42.11,13.838,65.234,17.81c23.039,3.964,47.26,5.991,72.071,5.991
		c13.248,0,26.412-0.594,39.241-1.772c-3.63,4.804-7.257,9.453-10.887,13.837c-8.356,10.129-16.371,18.824-23.294,25.317
		c-4.916,4.681-11.509,9.972-15.819,13.038c-53.948-1.178-103.836-11.035-144.92-27.056c-6.527-2.538-13.862,0.684-16.4,7.194
		c-2.538,6.519,0.693,13.854,7.204,16.392c47.156,18.378,103.856,29.009,164.924,29.018c59.816-0.008,115.461-10.178,162.024-27.847
		c0.058-0.024,0.1-0.058,0.157-0.074c5.901-2.077,10.969-4.344,14.694-6.824c10.212-6.832,17.509-12.28,24.852-23.678
		c3.037-4.64,7.512-8.01,10.129-13.581c1.858,3.124,3.544,6.411,4.809,9.873c2.785,7.343,4.22,14.941,4.22,22.449
		C478.244,276.76,476.389,285.455,472.59,293.894z"/>
</g>
</svg>