<?xml version="1.0" encoding="utf-8"?>

<!DOCTYPE svg PUBLIC "-//W3C//DTD SVG 1.1//EN" "http://www.w3.org/Graphics/SVG/1.1/DTD/svg11.dtd">
<!-- Uploaded to: SVG Repo, www.svgrepo.com, Generator: SVG Repo Mixer Tools -->
<svg height="800px" width="800px" version="1.1" id="_x32_" xmlns="http://www.w3.org/2000/svg" xmlns:xlink="http://www.w3.org/1999/xlink" 
	 viewBox="0 0 512 512"  xml:space="preserve">
<style type="text/css">
	:root { color-scheme: dark light; }
</style>
<g>
	<path fill="currentColor" d="M400.17,206.636l-4.939,9.172l-6.991-4.889c-10.618-7.425-17.578-19.113-19.082-32.034l-6.658-57.348
		c0.01-0.839,0.03-1.657,0.03-2.628c-0.009-3.606-0.14-7.888-1.141-12.668c-1.041-4.717-2.91-10.394-7.91-15.526
		c-7.505-7.577-17.728-11.84-28.386-11.84l-0.697,0.01l-15.224,0.284v1.192c-0.556,0.121-1.06,0.182-1.626,0.333
		c-3.686,1.01-7.657,2.707-11.415,5.274c-3.768,2.565-7.273,5.95-10.304,10.02l-0.626,0.849l-24.508,44.398
		c-4.303,7.182-8.344,11.011-11.88,13.162c-3.576,2.141-6.93,2.97-11.396,3.01c-4.526,0.021-10.162-1.13-16.476-3.252L50.914,80.432
		l-0.606-0.202c-3.99-1.363-8.112-2.02-12.172-2.02c-11.961,0-23.528,5.687-30.791,15.799L7.294,94.07l-0.263,0.384l0.01,0.01
		C2.324,101.07-0.009,108.819,0,116.415c-0.02,11.022,4.89,22.013,14.083,29.447l-0.021,0.021l197.737,163.106l1.595,0.798
		l103.556,51.46l-5.758,10.708l111.818,61.834L512,268.461L400.17,206.636z M331.668,333.911L228.79,282.775L33.721,121.871
		l-0.101-0.081c-1.717-1.374-2.566-3.313-2.586-5.375c0-1.414,0.394-2.727,1.273-3.97l0.051-0.06l0.191-0.273
		c1.314-1.838,3.415-2.858,5.587-2.868l1.98,0.323l169.895,73.664l0.586,0.203c8.415,2.848,17.305,5,26.821,5.01
		c9.072,0.04,18.79-2.172,27.518-7.526c8.768-5.324,16.264-13.406,22.487-23.911l0.131-0.233l23.608-42.752
		c0.97-1.212,1.789-1.96,2.425-2.395c1.111-0.727,1.959-1.04,3.727-1.323c1.738-0.272,4.224-0.272,7.628-0.303l0.556-0.01
		c2.02,0.102,3.899,0.89,5.414,2.213c0.11,0.394,0.232,0.939,0.313,1.657c0.191,1.353,0.272,3.152,0.272,5.05
		c0,0.981-0.02,1.99-0.05,3.031l-0.021,1.091l6.9,59.44c2.535,21.73,14.213,41.357,32.154,53.894l0.516,0.354l9.424,6.607
		L331.668,333.911z M437.285,310.021c-9.274,0.05-16.85-7.446-16.89-16.729c-0.04-9.284,7.466-16.841,16.74-16.89
		c9.294-0.04,16.84,7.455,16.88,16.738C454.055,302.424,446.579,309.98,437.285,310.021z"/>
</g>
</svg>