<?xml version="1.0" encoding="utf-8"?>

<!DOCTYPE svg PUBLIC "-//W3C//DTD SVG 1.1//EN" "http://www.w3.org/Graphics/SVG/1.1/DTD/svg11.dtd">
<!-- Uploaded to: SVG Repo, www.svgrepo.com, Generator: SVG Repo Mixer Tools -->
<svg version="1.1" id="_x32_" xmlns="http://www.w3.org/2000/svg" xmlns:xlink="http://www.w3.org/1999/xlink" 
	 width="800px" height="800px" viewBox="0 0 512 512"  xml:space="preserve">
<style type="text/css">
<![CDATA[
	:root { color-scheme: dark light; }
]]>
</style>
<g>
	<path fill="currentColor" d="M180.625,325.734c-2.625-2.906-5.75-5.141-9.188-6.703c-3.438-1.531-7.188-2.406-11.063-2.406
		c-0.109,0-0.203,0.016-0.297,0.016v-62.203c0-3.078-0.625-6.063-1.766-8.75c-1.719-4.063-4.563-7.469-8.141-9.906
		c-3.578-2.422-7.969-3.859-12.609-3.844H50.969c-4.281,0-8.391,1.219-11.891,3.406c-3.328,2.063-6.125,5.031-8.016,8.625
		L4.375,290.813l-0.141,0.266C1.453,296.75,0,303,0,309.313v72.063c0,8.938,3.875,17.438,10.625,23.313l28.953,25.141
		c5.625,4.875,12.797,7.547,20.234,7.563h62.438c4.422,0,10.063-0.547,16.281-2.641c6.203-2.094,12.938-5.734,19.578-11.547
		l0.75-0.656l23.641-30.859l0.266-0.438c3.016-4.875,4.625-10.5,4.625-16.234v-31.672c0-3.938-0.875-7.688-2.391-11
		C183.859,329.875,182.344,327.656,180.625,325.734z M167.469,375.016c0,1.906-0.516,3.781-1.469,5.422l-21.719,28.375
		c-4.5,3.781-8.547,5.844-12.125,7.063c-3.781,1.266-7.094,1.594-9.906,1.594H59.813c-2.625,0-5.188-0.938-7.172-2.688
		l-28.953-25.125c-2.391-2.094-3.766-5.109-3.766-8.281v-72.063c0-3.203,0.734-6.375,2.109-9.25l26.484-46.484l0.141-0.266
		c0.219-0.469,0.547-0.813,0.953-1.063c0.406-0.266,0.859-0.406,1.359-0.406h86.594c0.391,0,0.719,0.078,1.016,0.203
		c0.453,0.203,0.859,0.547,1.141,0.953c0.281,0.438,0.438,0.875,0.438,1.438v83.109c-0.203,0.969-0.5,1.906-0.875,2.797
		c-1.219,2.875-3.25,5.344-5.828,7.078s-5.594,2.734-8.969,2.734c-2.234,0-4.328-0.453-6.234-1.25
		c-2.875-1.219-5.344-3.266-7.063-5.844c-1.734-2.563-2.734-5.594-2.75-8.953v-37.063H88.531v37.063c0,4.938,1,9.703,2.828,14
		c2.734,6.484,7.297,11.938,13.016,15.813c5.734,3.891,12.703,6.156,20.109,6.156c4.953,0,9.703-1.016,14.016-2.828
		c6.469-2.75,11.922-7.281,15.813-13.031c3.438-5.094,5.625-11.172,6.063-17.672c0.781,0,1.672,0.172,2.563,0.516
		c1.313,0.516,2.531,1.453,3.313,2.516c0.391,0.531,0.688,1.109,0.891,1.703c0.203,0.609,0.313,1.266,0.328,2.063V375.016z"/>
	<path fill="currentColor" d="M159.734,74.609H29.891v104.109h129.844V74.609z M143.781,142.563H45.844v-31.797h97.938V142.563z"/>
	<path fill="currentColor" d="M507.766,291.078l-0.141-0.266l-26.688-46.844c-1.891-3.594-4.672-6.563-8.016-8.625
		c-3.484-2.188-7.609-3.406-11.891-3.406h-86.594c-4.625-0.016-9.031,1.422-12.609,3.844c-3.578,2.438-6.422,5.844-8.141,9.906
		c-1.141,2.688-1.781,5.672-1.781,8.75v62.203c-0.078,0-0.188-0.016-0.281-0.016c-3.875,0-7.625,0.875-11.063,2.406
		c-3.438,1.563-6.563,3.797-9.172,6.703c-1.734,1.922-3.234,4.141-4.375,6.609c-1.531,3.313-2.406,7.063-2.406,11v31.672
		c0,5.734,1.609,11.359,4.625,16.234l0.266,0.438l23.656,30.859l0.75,0.656c6.625,5.813,13.375,9.453,19.563,11.547
		c6.219,2.094,11.875,2.641,16.281,2.641h62.438c7.438-0.016,14.625-2.688,20.234-7.563l28.953-25.141
		c6.75-5.875,10.625-14.375,10.625-23.313v-72.063C512,303,510.547,296.75,507.766,291.078z M492.078,381.375
		c0,3.172-1.359,6.188-3.766,8.281l-28.953,25.125c-1.984,1.75-4.547,2.688-7.172,2.688H389.75c-2.813,0-6.125-0.328-9.906-1.594
		c-3.578-1.219-7.625-3.281-12.125-7.063L346,380.438c-0.953-1.641-1.469-3.516-1.469-5.422v-31.672
		c0.016-0.797,0.125-1.453,0.328-2.063c0.203-0.594,0.5-1.172,0.891-1.703c0.781-1.063,2-2,3.328-2.516
		c0.875-0.344,1.766-0.516,2.547-0.516c0.438,6.5,2.625,12.578,6.063,17.672c3.875,5.75,9.344,10.281,15.813,13.031
		c4.313,1.813,9.063,2.828,14.016,2.828c7.406,0,14.375-2.266,20.109-6.156c5.719-3.875,10.281-9.328,13.016-15.813
		c1.828-4.297,2.828-9.063,2.828-14v-37.063h-19.906v37.063c-0.016,3.359-1.016,6.391-2.75,8.953
		c-1.719,2.578-4.188,4.625-7.063,5.844c-1.906,0.797-4,1.25-6.234,1.25c-3.359,0-6.391-1-8.969-2.734s-4.609-4.203-5.828-7.078
		c-0.375-0.891-0.656-1.828-0.875-2.797v-83.109c0-0.563,0.156-1,0.438-1.438c0.281-0.406,0.688-0.75,1.141-0.953
		c0.297-0.125,0.625-0.203,1.016-0.203h86.594c0.5,0,0.969,0.141,1.359,0.406c0.422,0.25,0.734,0.594,0.969,1.063l0.125,0.266
		l26.484,46.484c1.391,2.875,2.109,6.047,2.109,9.25V381.375z"/>
	<path fill="currentColor" d="M482.109,74.609H352.266v104.109h129.844V74.609z M466.156,142.563h-97.938v-31.797h97.938V142.563z"/>
	<rect x="68.656" y="195.031" fill="currentColor" width="102.859" height="24.344"/>
	<rect x="18.813" y="195.031" fill="currentColor" width="37.109" height="24.344"/>
	<rect x="344.516" y="195.031" fill="currentColor" width="102.859" height="24.344"/>
	<rect x="460.125" y="195.031" fill="currentColor" width="37.094" height="24.344"/>
	<path fill="currentColor" d="M332.016,223.078c2.781-4.609,4.359-10.078,4.359-15.875c0-7.75-2.797-14.891-7.547-20.172
		c-2.359-2.641-5.234-4.828-8.484-6.359s-6.891-2.406-10.672-2.391h-16.109c-3.781-0.016-7.438,0.859-10.672,2.391
		c-4.891,2.297-8.891,6.063-11.672,10.641c-1.406,2.313-2.484,4.828-3.234,7.5h-18.141c-1.234-4.438-3.438-8.469-6.406-11.781
		c-2.375-2.641-5.234-4.828-8.484-6.359s-6.891-2.406-10.672-2.391h-16.125c-3.781-0.016-7.422,0.859-10.656,2.391
		c-4.891,2.297-8.891,6.063-11.672,10.641c-2.797,4.609-4.375,10.078-4.375,15.891c0,7.734,2.813,14.875,7.547,20.156
		c2.375,2.641,5.234,4.828,8.5,6.359c3.234,1.531,6.875,2.406,10.656,2.406h16.125c3.781,0,7.422-0.875,10.672-2.406
		c4.875-2.297,8.891-6.063,11.656-10.641c1.75-2.875,3.016-6.078,3.734-9.516H267.5c1.094,5.25,3.484,10,6.891,13.797
		c2.375,2.641,5.234,4.828,8.5,6.359c3.234,1.531,6.891,2.406,10.672,2.406h16.109c3.781,0,7.422-0.875,10.672-2.406
		C325.219,231.422,329.219,227.656,332.016,223.078z M232.453,217.5c-1.125,1.281-2.422,2.234-3.797,2.875
		c-1.375,0.656-2.828,1-4.375,1h-16.125c-1.547,0-2.984-0.344-4.375-1c-2.063-0.969-3.969-2.672-5.344-4.953
		s-2.234-5.109-2.234-8.219c0-4.156,1.516-7.797,3.781-10.313c1.125-1.266,2.422-2.234,3.797-2.859c1.391-0.656,2.828-1,4.375-1
		h16.125c1.547,0,3,0.344,4.375,1c2.016,0.938,3.859,2.594,5.234,4.781h-7.859c-4.078,0-7.375,3.313-7.375,7.375
		c0,4.094,3.297,7.375,7.375,7.375h8.906C234.297,215.063,233.453,216.406,232.453,217.5z M317.844,217.5
		c-1.125,1.281-2.422,2.234-3.797,2.875c-1.375,0.656-2.828,1-4.375,1h-16.109c-1.563,0-3-0.344-4.391-1
		c-2.047-0.969-3.953-2.672-5.328-4.953c-0.359-0.578-0.688-1.203-0.969-1.859h8.922c4.078,0,7.391-3.281,7.391-7.375
		c0-4.063-3.313-7.375-7.391-7.375h-7.859c0.438-0.688,0.906-1.344,1.438-1.922c1.125-1.266,2.422-2.234,3.797-2.859
		c1.391-0.656,2.828-1,4.391-1h16.109c1.547,0,3,0.344,4.375,1c2.063,0.953,3.953,2.656,5.344,4.938s2.234,5.109,2.234,8.234
		C321.625,211.359,320.109,215,317.844,217.5z"/>
</g>
</svg>