<?xml version="1.0" encoding="utf-8"?>

<!DOCTYPE svg PUBLIC "-//W3C//DTD SVG 1.1//EN" "http://www.w3.org/Graphics/SVG/1.1/DTD/svg11.dtd">
<!-- Uploaded to: SVG Repo, www.svgrepo.com, Generator: SVG Repo Mixer Tools -->
<svg version="1.1" id="_x32_" xmlns="http://www.w3.org/2000/svg" xmlns:xlink="http://www.w3.org/1999/xlink" 
	 width="800px" height="800px" viewBox="0 0 512 512"  xml:space="preserve">
<style type="text/css">
<![CDATA[
	:root { color-scheme: dark light; }
]]>
</style>
<g>
	<path fill="currentColor" d="M40.381,435.01c-0.438-0.969-0.875-1.969-1.266-2.953c-5.422-13.359-6.797-28.062-4.078-42.109
		c2.734-14.031,9.469-27.344,20.359-38.25c7.281-7.281,15.625-12.672,24.547-16.297c13.359-5.422,28.063-6.781,42.094-4.063
		c2.406,0.469,4.766,1.063,7.125,1.75l-3.734-3.734c-5.156-5.141-7.703-12.25-7.016-19.5c0.469-4.609,2.172-8.875,4.922-12.438
		c-11.969-1.734-24.172-1.453-36.063,0.844c-20.375,3.938-39.938,13.859-55.688,29.609c-10.484,10.5-18.422,22.703-23.688,35.703
		c-7.891,19.5-9.875,40.766-5.922,61.156c2,10.422,5.594,20.609,10.719,30.203c1.625-3.719,3.938-7.203,6.984-10.266
		C25.459,438.9,32.818,435.682,40.381,435.01z"/>
	<path fill="currentColor" d="M351.693,160.307c-7.266-7.266-12.672-15.609-16.297-24.516c-5.406-13.375-6.797-28.078-4.063-42.109
		c2.719-14.047,9.469-27.375,20.359-38.266c7.281-7.266,15.609-12.672,24.531-16.313c13.375-5.406,28.063-6.781,42.094-4.063
		c8.922,1.75,17.531,5.094,25.438,10.094c0.391,5.797,2.766,11.484,7.188,15.922c9.703,9.688,25.422,9.688,35.109,0
		c9.703-9.703,9.703-25.391,0-35.109c-5.703-5.703-13.484-8.016-20.906-7.016c-6.469-4.453-13.328-8.156-20.422-11.031
		c-19.5-7.906-40.781-9.859-61.172-5.938c-20.375,3.953-39.922,13.875-55.672,29.625c-10.5,10.5-18.438,22.688-23.703,35.688
		c-7.891,19.5-9.875,40.781-5.922,61.172c0.359,1.828,0.766,3.641,1.219,5.438l-0.078,0.109l-19.078,25.922
		c-4.109,6.109-3.328,14.281,1.891,19.484l20.797,20.813l-6.141,6.141c-3.438-1.906-7.281-2.906-11.109-2.906
		c-5.797,0-11.672,2.25-16.109,6.688l-11.609,11.609c-4.422,4.422-6.688,10.297-6.672,16.109c0,3.813,0.984,7.656,2.906,11.094
		l-4.359,4.375c-3.438-1.938-7.281-2.922-11.094-2.922c-5.813,0-11.688,2.234-16.109,6.672l-11.625,11.625
		c-4.422,4.422-6.672,10.297-6.672,16.109c0,3.828,0.984,7.656,2.906,11.109l-7.109,7.094l-20.797-20.797
		c-5.219-5.203-13.375-6-19.484-1.891l-25.938,19.094c-3.828,2.578-6.297,6.703-6.75,11.297c-0.438,4.578,1.188,9.109,4.453,12.359
		l28.609,28.625c7.266,7.281,12.672,15.609,16.297,24.531c5.422,13.359,6.797,28.063,4.078,42.093
		c-2.734,14.047-9.484,27.375-20.375,38.266c-7.281,7.281-15.609,12.672-24.531,16.297c-13.359,5.422-28.047,6.781-42.109,4.063
		c-8.891-1.719-17.516-5.078-25.422-10.078c-0.375-5.797-2.766-11.484-7.188-15.922c-9.688-9.703-25.406-9.688-35.109,0
		c-9.688,9.688-9.688,25.422,0,35.109c5.703,5.703,13.484,8.031,20.906,7.016c6.469,4.453,13.328,8.156,20.422,11.016
		c19.5,7.922,40.781,9.875,61.172,5.938c20.375-3.922,39.922-13.844,55.688-29.609c10.484-10.5,18.422-22.703,23.688-35.703
		c7.906-19.484,9.875-40.765,5.922-61.156c-0.344-1.813-0.766-3.641-1.219-5.438l0.078-0.094l19.078-25.938
		c4.109-6.109,3.328-14.281-1.875-19.484l-20.813-20.828l7.109-7.094c3.438,1.938,7.281,2.922,11.094,2.922
		c5.813,0,11.688-2.25,16.109-6.688l11.625-11.609c4.438-4.438,6.672-10.297,6.672-16.109c0-3.828-0.984-7.656-2.906-11.109
		l4.359-4.359c3.438,1.922,7.281,2.906,11.094,2.906c5.813,0.016,11.672-2.234,16.109-6.672l11.625-11.625
		c4.438-4.422,6.672-10.281,6.656-16.094c0.016-3.828-0.969-7.656-2.891-11.109l6.141-6.156l20.797,20.797
		c5.219,5.234,13.391,6.016,19.5,1.906l25.938-19.094c3.813-2.563,6.281-6.719,6.734-11.297c0.438-4.578-1.203-9.109-4.438-12.359
		L351.693,160.307z M460.975,35.979c4.156-4.156,10.891-4.156,15.047,0s4.156,10.891,0,15.047s-10.891,4.156-15.047,0
		S456.818,40.135,460.975,35.979z M51.021,476.025c-4.156,4.156-10.891,4.156-15.047,0.016c-4.156-4.172-4.156-10.891,0-15.063
		c4.156-4.141,10.891-4.141,15.047,0.016S55.178,471.869,51.021,476.025z M186.787,338.526c-4.156,4.141-10.891,4.141-15.047,0
		c-4.156-4.156-4.156-10.891,0-15.047c3.156-3.156,7.797-3.906,11.672-2.266l8.078-8.078l5.625,5.641l-8.063,8.063
		C190.693,330.713,189.943,335.385,186.787,338.526z M246.146,280.526l-11.625,11.625c-2.031,2.031-4.656,3.031-7.328,3.031
		s-5.281-1-7.328-3.031c-2.047-2.063-3.047-4.672-3.047-7.344s1-5.297,3.047-7.328l11.609-11.625
		c2.047-2.031,4.672-3.031,7.344-3.031s5.281,1,7.328,3.031c2.047,2.047,3.031,4.656,3.031,7.344
		C249.178,275.87,248.193,278.479,246.146,280.526z M293.1,233.573l-11.609,11.625c-2.047,2.031-4.672,3.031-7.344,3.047
		c-2.672-0.016-5.297-1.016-7.328-3.047c-2.031-2.047-3.047-4.672-3.047-7.344c0-2.688,1.016-5.297,3.047-7.328l11.609-11.609
		c2.031-2.063,4.656-3.047,7.328-3.047c2.688,0,5.297,0.984,7.344,3.047c2.031,2.031,3.031,4.641,3.047,7.328
		C296.131,228.917,295.131,231.542,293.1,233.573z M340.271,188.526c-3.156,3.172-7.813,3.906-11.672,2.266l-8.094,8.078
		l-5.625-5.641l8.063-8.078c-1.641-3.875-0.891-8.516,2.266-11.672c4.156-4.156,10.906-4.156,15.063,0
		S344.428,184.37,340.271,188.526z"/>
	<path fill="currentColor" d="M510.021,87.276c-2.016-10.422-5.594-20.625-10.719-30.203c-1.641,3.703-3.938,7.203-6.984,10.25
		c-5.781,5.781-13.141,9-20.719,9.672c0.453,0.984,0.875,1.953,1.281,2.953c5.438,13.359,6.797,28.063,4.063,42.094
		c-2.719,14.031-9.453,27.359-20.344,38.266c-7.281,7.266-15.625,12.688-24.531,16.297c-13.375,5.422-28.078,6.781-42.109,4.063
		c-2.391-0.453-4.766-1.063-7.109-1.75l3.734,3.734c5.141,5.141,7.688,12.25,7,19.5c-0.453,4.594-2.172,8.891-4.922,12.453
		c11.969,1.719,24.172,1.438,36.063-0.859c20.375-3.938,39.938-13.859,55.688-29.625c10.5-10.484,18.422-22.688,23.703-35.688
		C512.006,128.948,513.975,107.667,510.021,87.276z"/>
</g>
</svg>