<?xml version="1.0" encoding="utf-8"?>

<!DOCTYPE svg PUBLIC "-//W3C//DTD SVG 1.1//EN" "http://www.w3.org/Graphics/SVG/1.1/DTD/svg11.dtd">
<!-- Uploaded to: SVG Repo, www.svgrepo.com, Generator: SVG Repo Mixer Tools -->
<svg version="1.1" id="_x32_" xmlns="http://www.w3.org/2000/svg" xmlns:xlink="http://www.w3.org/1999/xlink" 
	 width="800px" height="800px" viewBox="0 0 512 512"  xml:space="preserve">
<style type="text/css">
<![CDATA[
	:root { color-scheme: dark light; }
]]>
</style>
<g>
	<path fill="currentColor" d="M484.016,360.945l-12.063-24.203c-4.859-7.234-7.141-15.922-6.438-24.609l0.984-12.641
		c0.359-4.469-1.891-8.75-14.141-15.781L74.672,66.82l-3.781-24.094c-0.328-0.781-0.906-1.438-1.641-1.859l-9.719-5.578
		c-1.859-1.063-4.219-0.422-5.281,1.422l-7.969,13.875c-3.563-1.531-7.766-0.188-9.75,3.25L16.36,88.96
		c-2.125,3.719-0.844,8.453,2.859,10.578l322.234,185.047l-21.438,37.297l-3.406,5.922l-1.781,3.125
		c-0.078,0.125-0.125,0.219-0.172,0.313c-6.734,11.719-9.469,25.578-4.891,37.25c5.047,12.875,19.453,27.891,31.156,34.719
		c0.109,0.063,0.203,0.109,0.313,0.172c11.719,6.734,25.141,8.125,37.25,4.875c12.125-3.219,23.094-11.094,29.906-22.797
		l0.031-0.047l1.203-2.094c1.609,8.031,9.953,16.516,5.563,62.531c-0.641,6.531-1.297,9.141-1.297,9.141
		c-0.875,6.203,3.313,11.969,9.484,13.063l47.359,8.344c10.672,1.875,21.703,0.859,29.953-6.156
		c9.781-8.344,10.688-16.734,11.266-30.5C511.953,439.742,514.391,421.43,484.016,360.945z M393.063,376.523
		c-4.406,7.516-11.344,12.5-19.141,14.594c-7.813,2.063-16.313,1.188-23.859-3.125l-0.188-0.125
		c-7.531-4.391-18.844-15.563-22.953-23.938c-3.547-7.25-2.563-13.578,1.766-21.125c0,0,3.172-6.234,8.5-3.172
		c3.234,1.844,25.625,14.703,37.281,21.406c-0.281,0.078-0.563,0.188-0.844,0.25c-8.359,2.516-11.359,2.641-11.359,2.641
		c-0.703,0.156-1.297,0.641-1.594,1.297s-0.281,1.406,0.063,2.047l3.328,6.328c0.422,0.781,1.266,1.266,2.156,1.234
		c0,0,8.578-0.063,12.984-0.563c5.016-0.547,9.484-1.406,13.375-2.406C394.625,374.242,393.063,376.523,393.063,376.523z
		 M409.782,357.68l-8.297-4.75l6.578-11.453l-51.969-29.859c-2.5-1.438-3.375-4.625-1.938-7.141c1.453-2.5,4.641-3.359,7.141-1.922
		l51.984,29.844l9.969-17.375l-51.969-29.844c-2.516-1.438-3.375-4.641-1.922-7.141c1.438-2.516,4.625-3.375,7.141-1.938
		l51.968,29.844l5.656-9.875l8.297,4.766L409.782,357.68z M459.984,447.461c-5.578-0.984-9.297-6.297-8.328-11.859
		c1-5.578,6.313-9.297,11.875-8.313c5.578,0.969,9.297,6.281,8.313,11.859S465.547,448.43,459.984,447.461z"/>
	<path fill="currentColor" d="M471.531,305.273l-0.578,7.281c-0.25,3.344,0.016,6.703,0.75,9.953c6.469-2.125,12.719-3.453,17.969-4.25
		c8.641-1.328,11.625-1.047,11.625-1.047c0.719-0.063,1.359-0.453,1.75-1.063s0.469-1.359,0.234-2.047l-2.438-6.703
		c-0.313-0.859-1.063-1.438-1.953-1.531c0,0-8.516-1.125-12.938-1.25C480.547,304.461,475.719,304.758,471.531,305.273z"/>
	<path fill="currentColor" d="M10.688,317.211c0,0,2.984-0.281,11.625,1.047c5.266,0.797,11.5,2.125,17.969,4.25
		c0.734-3.25,1.016-6.609,0.75-9.953l-0.578-7.281c-4.188-0.516-9.016-0.813-14.406-0.656c-4.453,0.125-12.938,1.25-12.938,1.25
		c-0.891,0.094-1.656,0.672-1.969,1.531l-2.422,6.703c-0.25,0.688-0.172,1.438,0.219,2.047S9.969,317.148,10.688,317.211z"/>
	<path fill="currentColor" d="M492.766,99.539c3.719-2.125,4.984-6.859,2.859-10.578l-20.172-35.125c-1.969-3.438-6.188-4.781-9.75-3.25
		L457.75,36.71c-1.063-1.844-3.438-2.484-5.297-1.422l-9.719,5.578c-0.734,0.422-1.297,1.078-1.641,1.859l-3.781,24.094
		l-164.656,94.563l56.219,32.281L492.766,99.539z"/>
	<path fill="currentColor" d="M183.125,212.789l-123.5,70.922c-12.25,7.031-14.5,11.313-14.141,15.781l1,12.641
		c0.688,8.688-1.594,17.375-6.453,24.609l-12.063,24.203C-2.406,421.43,0.047,439.742,0.047,439.742
		c0.563,13.766,1.453,22.156,11.25,30.5c8.266,7.016,19.281,8.031,29.953,6.156l47.359-8.344c6.172-1.094,10.375-6.859,9.484-13.063
		c0,0-0.672-2.609-1.297-9.141c-4.391-46.016,3.969-54.5,5.563-62.531l1.203,2.094l0.031,0.047
		c6.813,11.703,17.781,19.578,29.906,22.797c12.125,3.25,25.547,1.859,37.266-4.875c0.094-0.063,0.188-0.109,0.297-0.172
		c11.703-6.828,26.125-21.844,31.172-34.719c4.563-11.672,1.844-25.531-4.906-37.25c-0.031-0.094-0.109-0.188-0.172-0.313
		l-1.797-3.125l-3.391-5.922l-21.422-37.297l68.797-39.516L183.125,212.789z M52,447.461c-5.563,0.969-10.875-2.734-11.859-8.313
		s2.734-10.891,8.313-11.859c5.578-0.984,10.875,2.734,11.875,8.313C61.297,441.164,57.579,446.477,52,447.461z M102.219,357.68
		l-32.656-56.844l8.297-4.766l5.656,9.875l51.969-29.844c2.516-1.438,5.719-0.578,7.141,1.938c1.453,2.5,0.578,5.703-1.922,7.141
		l-51.969,29.844l9.984,17.375l51.969-29.844c2.5-1.438,5.688-0.578,7.141,1.922c1.438,2.516,0.578,5.703-1.938,7.141
		l-51.969,29.859l6.578,11.453L102.219,357.68z M174.797,339.633c5.328-3.063,8.516,3.172,8.516,3.172
		c4.328,7.547,5.297,13.875,1.75,21.125c-4.094,8.375-15.406,19.547-22.938,23.938l-0.203,0.125
		c-7.547,4.313-16.047,5.188-23.844,3.125c-7.813-2.094-14.75-7.078-19.156-14.594c0,0-1.563-2.281,0.484-4.656
		c3.891,1,8.375,1.859,13.375,2.406c4.406,0.5,12.984,0.563,12.984,0.563c0.891,0.031,1.734-0.453,2.156-1.234l3.328-6.328
		c0.344-0.641,0.359-1.391,0.063-2.047s-0.891-1.141-1.578-1.297c0,0-3-0.125-11.375-2.641c-0.266-0.063-0.563-0.172-0.844-0.25
		C149.172,354.336,171.563,341.477,174.797,339.633z"/>
</g>
</svg>