<?xml version="1.0" encoding="utf-8"?>

<!DOCTYPE svg PUBLIC "-//W3C//DTD SVG 1.1//EN" "http://www.w3.org/Graphics/SVG/1.1/DTD/svg11.dtd">
<!-- Uploaded to: SVG Repo, www.svgrepo.com, Generator: SVG Repo Mixer Tools -->
<svg version="1.1" id="_x32_" xmlns="http://www.w3.org/2000/svg" xmlns:xlink="http://www.w3.org/1999/xlink" 
	 width="800px" height="800px" viewBox="0 0 512 512"  xml:space="preserve">
<style type="text/css">
<![CDATA[
	:root { color-scheme: dark light; }
]]>
</style>
<g>
	<path fill="currentColor" d="M506.837,304.016c-1.938-58.672-47.5-105.734-104.812-110.922c0.125-0.844,0.453-1.625,0.422-2.531
		l-0.484-14.891c0-0.188-0.047-0.359-0.063-0.547c3.766-1.813,7.234-4.125,10.219-6.938c6.203-5.813,10.609-14.063,10.625-23.438
		c0-1.25-0.078-2.516-0.25-3.813l-5.219-40.547c-1.156-9.078-6.469-16.609-13.156-21.344c-6.75-4.797-14.969-7.281-23.625-7.297
		c-1.922,0.016-3.844,0.125-5.766,0.375c-0.406,0.063-0.781,0.188-1.188,0.25l-38.938-34.469
		c-0.766-6.578-2.953-12.781-6.656-18.094c-4.563-6.594-11.859-11.906-20.719-13.25l-40.422-6.219h0.016
		C265.306,0.109,263.791,0,262.337,0c-9.219,0.016-17.375,4.25-23.219,10.281c-3.922,4.031-6.891,9-8.906,14.469l-1.234-3.781
		l-49.938,16.391c-7.453-5.375-15.984-8.25-24.5-8.266c-4.781,0-9.594,0.906-14.094,2.938c-4.484,2-8.656,5.188-11.797,9.406
		l-24.469,32.781c-4.109,5.469-5.984,12.047-5.953,18.313c0.047,7.719,2.594,15.094,7.031,21.469l-12.063,37.594
		c-7.484,1.031-14.391,3.844-20.031,8.328c-7.109,5.609-12.391,14.453-12.375,24.641v40.891
		c-0.016,10.188,5.266,19.016,12.375,24.625c4.672,3.719,10.25,6.203,16.266,7.594c0.016,0.063,0,0.141,0.016,0.203l1.844,14.781
		l0.688,2.016C37.041,288.719-0.6,341.25,5.806,399.141l0,0l0.203,1.719c3.563,28.359,17.203,52.953,36.891,70.813l-13.328,18.781
		L59.962,512l14.234-20.063c18.047,7.938,38.344,11.453,59.344,9.063l0.219-0.031l1.141-0.141c26-3.25,49.078-15.031,66.469-32.109
		l-26.047-26.594c-11.875,11.625-27.328,19.516-45.047,21.734l-0.922,0.125c-42.625,4.859-81.094-25.453-86.406-67.75l-0.094-0.75
		l0.031-0.094l-0.031-0.203c-4.859-42.531,25.578-81.047,68.063-86.359l0.578-0.078l0.172-0.016l0.156-0.016
		c42.594-4.875,81.094,25.469,86.375,67.813l0.141,1.188l36.953-4.641l-0.141-1.188c-7.313-58.234-56.922-100.906-114.422-100.859
		l0.156-2.094l-1.859-14.719c2.313-1.188,4.547-2.531,6.563-4.141c7.109-5.609,12.391-14.438,12.375-24.625v-40.891
		c0.016-10.188-5.266-19.031-12.375-24.641c-1.984-1.578-4.141-2.906-6.406-4.078l8.125-25.281c4.172,1.406,8.5,2.141,12.813,2.156
		c4.781,0,9.594-0.906,14.094-2.922c4.484-2.016,8.656-5.203,11.797-9.422l24.469-32.781c4.109-5.469,5.984-12.063,5.969-18.328
		c-0.031-3.328-0.547-6.578-1.453-9.734l33.266-10.906c1.063,5.328,3.031,10.359,6.094,14.75
		c4.594,6.609,11.875,11.906,20.734,13.234v0.016l40.422,6.219c1.5,0.219,3,0.344,4.5,0.344c9.219-0.016,17.359-4.25,23.203-10.281
		c1.797-1.844,3.328-3.922,4.75-6.109l21.016,18.609c-5,5.594-8.469,12.844-8.484,21.031c0,1.281,0.094,2.578,0.25,3.844v-0.031
		l5.234,40.563c1.141,9.094,6.453,16.625,13.156,21.344c3.906,2.797,8.359,4.688,13.078,5.891l0.438,13.516
		c0.031,0.906,0.453,1.719,0.641,2.563c-56.141,8.891-98.531,57.922-97.313,116.313v0.219l0.031,1.188
		c2.094,62.984,54.359,112.625,117.516,111.469l1.641-0.047c63.078-2.094,112.859-54.375,111.718-117.516h0.016L506.837,304.016z
		 M111.916,225.453c-0.016,1.109-0.453,2.516-2.594,4.297c-2.094,1.703-5.703,3.156-9.938,3.125
		c-4.234,0.031-7.859-1.422-9.953-3.125c-2.141-1.781-2.594-3.188-2.594-4.297v-40.891c0-1.109,0.453-2.516,2.594-4.297
		c2.094-1.703,5.719-3.156,9.953-3.141c4.234-0.016,7.844,1.438,9.938,3.141c2.141,1.781,2.578,3.188,2.594,4.297V225.453z
		 M169.603,72.016l-24.453,32.781c-0.391,0.5-0.828,0.875-1.625,1.234c-0.781,0.375-1.938,0.641-3.406,0.641
		c-2.672,0.016-6.234-1-9.453-3.422c-4.563-3.328-6.5-8.094-6.406-10.719c0.016-1.375,0.313-2.094,0.781-2.734l24.469-32.766
		c0.391-0.516,0.828-0.891,1.625-1.266c0.781-0.359,1.938-0.641,3.406-0.641c2.656-0.016,6.234,1,9.469,3.438
		c4.547,3.328,6.484,8.094,6.391,10.703C170.384,70.625,170.087,71.359,169.603,72.016z M308.712,45.844
		c-0.594,3.859-2.313,7.016-4.172,8.906c-1.891,1.922-3.531,2.406-4.531,2.406l-0.547-0.047l-40.406-6.234l-1.984,12.875
		l1.969-12.875c-0.984-0.172-2.047-0.656-3.375-2.453c-1.25-1.766-2.313-4.719-2.297-8.203c0-0.922,0.078-1.875,0.234-2.813
		c0.578-3.906,2.313-7.078,4.172-8.969c1.891-1.906,3.547-2.406,4.563-2.406l0.484,0.047h0.016l40.438,6.234
		c0.984,0.156,2.047,0.656,3.359,2.453c1.25,1.75,2.313,4.719,2.297,8.203C308.931,43.875,308.869,44.844,308.712,45.844z
		 M371.791,147.484l-5.219-40.547v-0.031l-0.031-0.469c-0.016-1,0.469-2.594,2.422-4.469c1.922-1.828,5.156-3.516,9.094-4.016
		c0.844-0.109,1.656-0.156,2.438-0.156c3.578-0.016,6.656,1.094,8.469,2.422c1.844,1.375,2.328,2.5,2.484,3.5l5.219,40.563
		l12.922-1.656l-12.922,1.656l0.031,0.469c0.016,1.016-0.469,2.609-2.438,4.5c-1.906,1.828-5.141,3.516-9.063,4
		c-0.828,0.109-1.656,0.156-2.438,0.156c-3.609,0.016-6.672-1.094-8.469-2.406C372.431,149.609,371.947,148.5,371.791,147.484z
		 M469.634,306.25c0.938,42.813-32.891,78.406-75.687,79.797l-0.578,0.016h-0.172h-0.156c-42.875,0.938-78.422-32.781-79.797-75.469
		l-0.031-0.938c-0.938-42.797,32.906-78.375,75.672-79.766l0.922-0.016c42.89-0.969,78.421,32.75,79.828,75.359l0.031,0.766
		l-0.047,0.094L469.634,306.25z"/>
</g>
</svg>