<?xml version="1.0" encoding="utf-8"?>

<!DOCTYPE svg PUBLIC "-//W3C//DTD SVG 1.1//EN" "http://www.w3.org/Graphics/SVG/1.1/DTD/svg11.dtd">
<!-- Uploaded to: SVG Repo, www.svgrepo.com, Generator: SVG Repo Mixer Tools -->
<svg version="1.1" id="_x32_" xmlns="http://www.w3.org/2000/svg" xmlns:xlink="http://www.w3.org/1999/xlink" 
	 viewBox="0 0 512 512"  xml:space="preserve">
<style type="text/css">
	:root { color-scheme: dark light; }
</style>
<g>
	<path fill="currentColor" d="M506.69,215.791c-5.341-8.558-16.639-11.175-25.22-5.818l21.919-13.745
		c8.582-5.364,11.182-16.662,5.826-25.236c-5.35-8.589-16.648-11.19-25.236-5.834l-144.496,90.276
		c-38.65,24.142-50.409,75.038-26.274,113.672c24.142,38.634,75.037,50.402,113.687,26.267
		c30.446-19.032,44.115-54.666,36.757-87.836l32.94-20.58c8.588-5.356,11.19-16.654,5.818-25.244
		c-5.342-8.558-16.647-11.182-25.228-5.818l23.696-14.854C509.446,235.686,512.063,224.396,506.69,215.791z M400.792,349.927
		c-14.415,9.005-33.4,4.61-42.405-9.804c-8.997-14.408-4.618-33.402,9.804-42.406c14.423-9.005,33.386-4.618,42.406,9.797
		C419.602,321.929,415.23,340.915,400.792,349.927z"/>
	<rect x="156.601" y="37.41" fill="currentColor" width="261" height="80.971"/>
	<path fill="currentColor" d="M291.076,382.929c-31.724-50.772-16.216-117.898,34.571-149.628l91.954-57.444V137.96h-261v91.823
		c0,6.187-3.09,11.967-8.235,15.4L41.182,316.634C15.454,333.781,0,362.665,0,393.58v44.022c0,20.426,16.562,36.988,36.991,36.988
		h306.626c30.314,0,56.336-18.248,67.764-44.345c-9.128,2.463-18.563,3.771-28.114,3.771
		C345.518,434.015,311.055,414.914,291.076,382.929z"/>
</g>
</svg>