<?xml version="1.0" encoding="utf-8"?>

<!DOCTYPE svg PUBLIC "-//W3C//DTD SVG 1.1//EN" "http://www.w3.org/Graphics/SVG/1.1/DTD/svg11.dtd">
<!-- Uploaded to: SVG Repo, www.svgrepo.com, Generator: SVG Repo Mixer Tools -->
<svg height="800px" width="800px" version="1.1" id="_x32_" xmlns="http://www.w3.org/2000/svg" xmlns:xlink="http://www.w3.org/1999/xlink" 
	 viewBox="0 0 512 512"  xml:space="preserve">
<style type="text/css">
	:root { color-scheme: dark light; }
</style>
<g>
	<path fill="currentColor" d="M402.067,200.105C463.558,136.826,473.416,92.389,473.416,0H38.584c0,92.389,9.858,136.826,71.357,200.105
		c60.378,62.139,118.276,60.921,118.276,101.984c0,41.064,0,40.529,0,81.584c0,41.073-23.125,66.732-57.792,66.732
		c-34.676,0-34.308,0-34.308,0V512h239.775v-61.595c0,0,0.36,0-34.307,0c-34.676,0-57.792-25.658-57.792-66.732
		c0-41.055,0-40.52,0-81.584C283.792,261.026,341.681,262.244,402.067,200.105z"/>
</g>
</svg>