<?xml version="1.0" encoding="utf-8"?>

<!DOCTYPE svg PUBLIC "-//W3C//DTD SVG 1.1//EN" "http://www.w3.org/Graphics/SVG/1.1/DTD/svg11.dtd">
<!-- Uploaded to: SVG Repo, www.svgrepo.com, Generator: SVG Repo Mixer Tools -->
<svg height="800px" width="800px" version="1.1" id="_x32_" xmlns="http://www.w3.org/2000/svg" xmlns:xlink="http://www.w3.org/1999/xlink" 
	 viewBox="0 0 512 512"  xml:space="preserve">
<style type="text/css">
	:root { color-scheme: dark light; }
</style>
<g>
	<path fill="currentColor" d="M364.951,237.018c-6.772-7.019-13.769-13.543-19.934-19.3c-7.618-7.096-18.707-17.438-22.135-23.066
		c1.072-1.686,2.638-3.93,3.894-5.721c11.117-15.921,31.813-45.547,14.898-89.55c-4.655-12.076-12.33-22.848-19.102-32.349
		c-3.908-5.488-7.337-8.006-11.879-18.848c-8.45-20.125,8.154-42.126,6.955-46.944c-1.199-4.818-41.83,5.94-41.83,5.94
		c-20.752,7.082-37.513,22.635-45.977,42.682c-7.675,18.172-7.788,37.647-0.311,53.426c5.812,12.274,5.558,20.308-0.762,23.892
		c-88.371,50.076-84.139,108.398-70.821,142.532c-10.552,6.285-19.99,14.241-27.891,23.68
		c-16.224,19.398-33.534,53.856-23.828,107.826C117.571,464.365,180.873,511.993,253.472,512c0.014,0,0.014,0,0.028,0
		c39.219,0,75.476-14.672,102.056-41.314C422.441,403.652,426.575,301.011,364.951,237.018z M335.099,450.278
		c-65.347,65.481-186.11,25.536-200.444-54.174c-14.319-79.723,40.63-120.107,97.64-113.469
		c59.478,6.927,60.014,63.598,40.306,82.404s-50.055,8.789-54.64-10.75c-4.486,4.486-10.848,17.092,1.566,30.981
		c30.699,34.31,99.221,10.228,95.637-49.787c-3.583-60.014-61.327-94.677-128.142-71.202c-27.764-60,29.104-96.73,55.98-111.959
		c26.875-15.215,20.71-44.376,12.64-61.397c-8.055-17.007,1.806-46.951,29.5-56.396c-15.053,23.892,19.708,49.639,29.556,75.23
		c14.982,38.952-12.105,58.816-19.328,75.068c-10.623,23.906,21.388,43.798,48.756,72.232
		C391.079,305.815,394.465,390.786,335.099,450.278z"/>
</g>
</svg>