<?xml version="1.0" encoding="utf-8"?>

<!DOCTYPE svg PUBLIC "-//W3C//DTD SVG 1.1//EN" "http://www.w3.org/Graphics/SVG/1.1/DTD/svg11.dtd">
<!-- Uploaded to: SVG Repo, www.svgrepo.com, Generator: SVG Repo Mixer Tools -->
<svg version="1.1" id="_x32_" xmlns="http://www.w3.org/2000/svg" xmlns:xlink="http://www.w3.org/1999/xlink" 
	 width="800px" height="800px" viewBox="0 0 512 512"  xml:space="preserve">
<style type="text/css">
<![CDATA[
	:root { color-scheme: dark light; }
]]>
</style>
<g>
	<path fill="currentColor" d="M449.504,420.956c-39.375,0-91.797-12.047-125.188-27.828c-20.234,25.297-96.109,53.109-129.406,14.328
		c52.406-13.969,74.422-32.828,86.406-48.969c-5.703-4.906-11.141-10.125-16.391-15.516c19.281-16.188,48.031-40.906,53.063-48.469
		c13.484-20.234,8.438-25.297-8.422-25.297c-68.703-9.375-96.359-40.188-104.125-55.641c-8.844-15.172-13.906-33.844-13.906-50.578
		c0-56.344,18.063-108.453,48.703-150.875c3.297-4.563,5.797-7.484,5.797-7.484c0.719-0.938,0.797-2.234,0.188-3.25
		c-0.625-1-1.797-1.531-2.969-1.344c0,0-3.547,0.453-8.891,1.578C117.457,26.175,29.675,129.831,29.675,254.034
		c0,142.469,115.5,257.969,257.969,257.969c71.547,0,136.313-29.141,183.047-76.203c5.547-5.594,10.891-12.031,10.891-12.031
		c0.797-0.875,0.969-2.156,0.438-3.203c-0.531-1.063-1.672-1.688-2.844-1.563c0,0-7.953,1.141-15.766,1.563
		C458.801,420.815,454.176,420.956,449.504,420.956z"/>
</g>
</svg>