<?xml version="1.0" encoding="utf-8"?>

<!DOCTYPE svg PUBLIC "-//W3C//DTD SVG 1.1//EN" "http://www.w3.org/Graphics/SVG/1.1/DTD/svg11.dtd">
<!-- Uploaded to: SVG Repo, www.svgrepo.com, Generator: SVG Repo Mixer Tools -->
<svg height="800px" width="800px" version="1.1" id="_x32_" xmlns="http://www.w3.org/2000/svg" xmlns:xlink="http://www.w3.org/1999/xlink" 
	 viewBox="0 0 512 512"  xml:space="preserve">
<style type="text/css">
	:root { color-scheme: dark light; }
</style>
<g>
	<path fill="currentColor" d="M481.069,168.689c-31.478-25.604-54.129-29.762-70.501-35.962l35.615-41.012l-23.04-20.009L112.579,429.317
		c-2.542,0.559-5.222,1.01-8.132,1.212c-6.185,0.443-13.019,0-19.834-1.515c-10.229-2.254-20.366-6.908-28.634-14.438
		c-4.142-3.776-7.833-8.275-10.898-13.63c-3.066-5.369-5.513-11.609-7.083-18.905c-0.704-3.256-1.142-6.388-1.356-9.41
		c-0.683-9.852,0.956-18.696,3.92-27.445c2.222-6.55,5.206-13.007,8.478-19.573c4.888-9.869,10.432-19.955,14.612-31.128
		c4.173-11.151,6.931-23.468,5.948-37.306c-0.307-4.367-1.002-8.874-2.094-13.513c1.138-0.722,2.296-1.507,3.489-2.424
		c10.688-8.174,2.257-28.517,0.773-39.963c-3.765-28.961-1.986-41.075,1.538-55.139l-20.724,7.164
		c-2.168,4.693-2.529,19.76-2.529,19.76s0.372-16.155-2.783-18.361l-19.064,0.846c0.952,18.354,4.487,46.351,4.487,46.351
		s-8.486-14.15-11.866-35.783L0,173.996c14.523,40.018,26.458,57.641,32.283,63.026c3.948,3.652,10.871,11.562,21.368,11.321
		c0.734,3.411,1.224,6.698,1.449,9.853c0.703,10.07-0.936,19.069-3.893,27.903c-2.222,6.621-5.202,13.117-8.466,19.698
		c-4.876,9.876-10.412,19.923-14.6,30.989c-2.087,5.533-3.831,11.321-4.927,17.46c-1.1,6.131-1.546,12.588-1.065,19.403
		c0.26,3.729,0.797,7.545,1.64,11.453c2.487,11.555,6.954,21.361,12.778,29.427c8.738,12.106,20.429,20.164,32.601,24.935
		c9.896,3.878,20.09,5.564,29.68,5.665l-19.792,22.79l23.04,20.018l94.76-109.121c5.268,17.305,22.134,32.379,35.651,42.52
		c33.479,25.13,79.472,24.081,106.918-7.514c10.603-12.215,14.803-23.84,21.175-37.461c9.18-19.644,26.104-29.94,54.385-39.638
		c27.554-9.456,49.152-14.818,69.686-38.463C517.535,260.419,525.814,205.077,481.069,168.689z M417.794,280.125
		c-22.414,1.569-41.868-15.324-43.441-37.733c-1.581-22.41,15.311-41.852,37.725-43.437c22.414-1.578,41.867,15.308,43.441,37.718
		C457.101,259.09,440.208,278.547,417.794,280.125z"/>
	<path fill="currentColor" d="M164.322,355.645l218.152-251.211c-7.347-14.709-16.372-34.097-41.805-57.665
		c-42.31-39.217-95.938-23.249-128.799,14.577c-20.537,23.654-22.81,45.784-28.304,74.395
		c-5.637,29.364-13.474,47.571-31.633,59.405c-12.593,8.221-23.51,14.01-34.112,26.225c-27.449,31.602-22.042,77.285,7.526,106.906
		C135.466,338.418,149.426,350.493,164.322,355.645z M258.352,130.233c16.808-1.182,29.477-15.767,28.296-32.574
		c-0.785-11.096-7.413-20.343-16.644-25.037l0.315-0.038c22.414-1.578,41.859,15.316,43.44,37.725
		c1.578,22.425-15.312,41.867-37.725,43.452c-21.221,1.492-39.769-13.583-43.029-34.198
		C239.074,126.673,248.305,130.947,258.352,130.233z"/>
</g>
</svg>