<?xml version="1.0" encoding="utf-8"?>

<!DOCTYPE svg PUBLIC "-//W3C//DTD SVG 1.1//EN" "http://www.w3.org/Graphics/SVG/1.1/DTD/svg11.dtd">
<!-- Uploaded to: SVG Repo, www.svgrepo.com, Generator: SVG Repo Mixer Tools -->
<svg height="800px" width="800px" version="1.1" id="_x32_" xmlns="http://www.w3.org/2000/svg" xmlns:xlink="http://www.w3.org/1999/xlink" 
	 viewBox="0 0 512 512"  xml:space="preserve">
<style type="text/css">
	:root { color-scheme: dark light; }
</style>
<g>
	<path fill="currentColor" d="M256.002,0c-141.39,0.018-255.991,114.615-256,256c0.009,141.394,114.61,255.991,256,256
		c141.39-0.009,255.986-114.606,255.996-256C511.989,114.615,397.392,0.018,256.002,0z M320.844,34.266
		c37.706,11.006,71.445,31.31,98.506,58.381c27.07,27.07,47.375,60.8,58.381,98.506l-119.33,23.639
		c-11.244-27.809-33.387-49.952-61.192-61.187L320.844,34.266z M92.645,92.647c27.07-27.07,60.804-47.375,98.51-58.381
		l23.635,119.339c-27.806,11.234-49.952,33.378-61.187,61.187L34.264,191.154C45.275,153.447,65.579,119.718,92.645,92.647z
		 M191.155,477.743c-37.706-11.015-71.44-31.32-98.51-58.381c-27.066-27.08-47.37-60.809-58.381-98.516l119.339-23.63
		c11.235,27.8,33.382,49.952,61.187,61.187L191.155,477.743z M284.391,336.506c-8.912,3.079-18.4,4.83-28.389,4.83
		c-9.994,0-19.482-1.75-28.394-4.83c-2.661-0.914-5.243-1.997-7.82-3.166c-8.996-4.24-17.151-9.985-24.145-16.98
		c-6.99-6.994-12.656-15.158-16.896-24.15c-1.254-2.577-2.336-5.243-3.167-7.9c-3.162-8.824-4.914-18.316-4.914-28.311
		c0-9.985,1.752-19.557,4.914-28.39c0.831-2.666,1.913-5.243,3.167-7.82c4.24-8.992,9.906-17.155,16.896-24.141
		c6.994-6.994,15.149-12.748,24.145-16.988c2.577-1.161,5.159-2.243,7.82-3.158c8.828-3.087,18.4-4.83,28.394-4.83
		c9.99,0,19.562,1.742,28.389,4.83c2.662,0.915,5.244,1.997,7.826,3.158c8.991,4.24,17.146,9.994,24.141,16.988
		c6.99,6.986,12.655,15.149,16.896,24.141c1.253,2.577,2.336,5.155,3.167,7.82c3.163,8.833,4.914,18.405,4.914,28.39
		c0,9.994-1.751,19.487-4.914,28.311c-0.831,2.656-1.914,5.322-3.167,7.9c-4.24,8.992-9.906,17.155-16.896,24.15
		c-6.994,6.994-15.15,12.739-24.141,16.98C289.635,334.509,287.053,335.592,284.391,336.506z M419.351,419.362
		c-27.061,27.061-60.8,47.366-98.506,58.381L297.21,358.404c27.804-11.235,49.948-33.387,61.192-61.187l119.33,23.63
		C466.725,358.553,446.421,392.282,419.351,419.362z"/>
</g>
</svg>