<?xml version="1.0" encoding="utf-8"?>

<!DOCTYPE svg PUBLIC "-//W3C//DTD SVG 1.1//EN" "http://www.w3.org/Graphics/SVG/1.1/DTD/svg11.dtd">
<!-- Uploaded to: SVG Repo, www.svgrepo.com, Generator: SVG Repo Mixer Tools -->
<svg height="800px" width="800px" version="1.1" id="_x32_" xmlns="http://www.w3.org/2000/svg" xmlns:xlink="http://www.w3.org/1999/xlink" 
	 viewBox="0 0 512 512"  xml:space="preserve">
<style type="text/css">
	:root { color-scheme: dark light; }
</style>
<g>
	<path fill="currentColor" d="M165.451,46.328c-13.412,0.008-24.278,10.873-24.286,24.286c0.008,13.412,10.873,24.286,24.286,24.286
		c13.413,0,24.279-10.874,24.286-24.286C189.73,57.202,178.865,46.336,165.451,46.328z M165.451,87.67
		c-9.413-0.015-17.032-7.634-17.047-17.055c0.015-9.413,7.634-17.032,17.047-17.048c9.414,0.016,17.032,7.634,17.048,17.048
		C182.484,80.035,174.865,87.655,165.451,87.67z"/>
	<path fill="currentColor" d="M259.494,81.815c-0.008-13.413-10.874-24.279-24.287-24.286c-13.412,0.008-24.286,10.873-24.286,24.286
		c0,13.412,10.874,24.278,24.286,24.286C248.621,106.093,259.486,95.228,259.494,81.815z M218.153,81.815
		c0.016-9.421,7.634-17.04,17.055-17.056c9.414,0.016,17.032,7.634,17.048,17.056c-0.016,9.413-7.634,17.032-17.048,17.047
		C225.787,98.848,218.168,91.228,218.153,81.815z"/>
	<path fill="currentColor" d="M242.523,88.271c4.045,0,7.322-3.285,7.322-7.323c0-4.045-3.277-7.322-7.322-7.322
		c-4.045,0-7.315,3.277-7.315,7.322C235.207,84.986,238.478,88.271,242.523,88.271z"/>
	<path fill="currentColor" d="M158.775,64.372c-4.045,0-7.314,3.27-7.314,7.323c0,4.029,3.269,7.314,7.314,7.314
		c4.046,0,7.323-3.285,7.323-7.314C166.099,67.642,162.821,64.372,158.775,64.372z"/>
	<path fill="currentColor" d="M305.678,230.702c-0.63,1.712-1.52,3.529-2.623,5.186c-1.361,2.106-3.072,4.12-5.11,5.984
		c4.136,1.711,7.527,3.962,10.234,6.684l78.051,33.045l-78.28,33.122c1.133-2.015,1.863-4.289,1.863-6.669l-0.054-0.981
		c-0.212-2.478-1.186-4.806-2.692-6.767c-2.22-2.89-5.474-5.064-9.398-6.562c-3.931-1.444-8.584-2.274-13.801-2.274
		c-3.3,0-6.82,0.312-10.539,1.034c-8.782,1.757-17.1,6.152-23.304,12.714l-0.252,0.251c-2.585-3.718-4.448-8.006-5.071-13.169
		c-0.152-1.187-0.205-2.38-0.205-3.513c0-3.825,0.775-7.338,2.068-10.592c7.231,4.852,15.861,7.384,24.492,7.384h1.445
		c9.246-0.312,17.002-2.631,22.689-6.197c2.89-1.757,5.217-3.878,6.92-6.25c1.704-2.433,2.738-5.217,2.738-8.167
		c0-0.624-0.054-1.239-0.153-1.809c-0.312-2.274-1.292-4.395-2.737-6.151c-2.122-2.631-5.171-4.539-8.729-5.886
		c-3.574-1.292-7.703-2.015-12.303-2.015c-4.182,0-8.729,0.616-13.489,1.855c-8.319,2.221-16.014,6.828-21.747,13.284l-0.935,1.133
		c-2.843-3.513-4.957-7.695-5.892-12.759c-0.357-1.809-0.51-3.62-0.51-5.322c0-3.102,0.563-5.992,1.498-8.782
		c6.608,3.771,14.211,5.786,21.8,5.786c1.498,0,3.004-0.053,4.501-0.205c7.285-0.776,13.588-2.685,18.546-5.475
		c1.186-0.57,2.274-1.247,3.254-1.969c2.692-1.856,4.912-4.03,6.509-6.508c0.729-1.088,1.292-2.274,1.703-3.467
		c0.571-1.498,0.829-2.996,0.829-4.547c0-0.928-0.046-1.802-0.258-2.738c-0.928-4.129-3.924-7.383-7.748-9.398
		c-3.825-2.023-8.524-3.049-13.9-3.049c-5.011,0-10.592,0.927-16.485,2.995h-0.053l-1.027,0.411
		c-7.284,2.79-14.006,7.444-18.91,13.534c-0.57,0.677-1.087,1.353-1.551,2.076c-1.498-1.612-2.897-3.361-4.03-5.33
		c-1.194-2.061-2.121-4.289-2.791-6.76c-0.676-2.585-0.988-5.018-0.988-7.398c0-2.22,0.312-4.334,0.828-6.456
		c5.741,2.586,11.938,3.878,18.242,3.931c2.843,0,5.68-0.266,8.47-0.775c8.531-1.605,15.504-4.806,20.522-8.836
		c2.471-2.015,4.539-4.288,5.984-6.767c1.452-2.433,2.281-5.171,2.281-7.908c0-1.346-0.213-2.738-0.624-4.03
		c-1.133-3.62-3.878-6.357-7.231-8.113c-3.362-1.757-7.391-2.585-11.885-2.639c-1.141,0-2.327,0.054-3.566,0.206
		c-1.149,0.121-2.334,0.304-3.536,0.525c1.179-0.86,2.403-1.666,3.536-2.593c20.766-16.789,34.049-42.52,34.049-71.3
		C296.326,41.082,255.297,0,204.61,0c-50.632,0-91.715,41.082-91.715,91.715c0,19.929,6.441,38.33,17.246,53.378
		c-4.798,7.483-8.463,14.866-10.417,21.085c-4.547,14.523,3.064,30.034,17.519,34.809c14.454,4.776,33.388-6.044,40.908-19.282
		c0.358-0.646,0.745-1.27,1.11-1.909c8.059,2.319,16.546,3.634,25.35,3.634c2.502,0,4.996-0.167,7.467-0.364
		c0.343,0.661,0.616,1.391,1.004,2.015c2.54,4.288,5.84,7.801,9.664,10.644c-1.079,3.406-1.756,6.98-1.756,10.744
		c0,3.103,0.418,6.312,1.292,9.512c0.722,2.844,1.756,5.474,3.102,7.9c1.962,3.726,4.547,6.927,7.49,9.664
		c-0.623,1.498-1.133,2.995-1.551,4.608c-0.822,2.89-1.24,5.939-1.24,9.14c0,2.22,0.206,4.493,0.624,6.82
		c1.338,7.391,4.699,13.641,9.299,18.553c-2.38,4.851-3.771,10.28-3.771,16.12c0,1.444,0.099,2.942,0.258,4.44
		c0.828,7.543,3.824,14.059,8.113,19.222c-3.049,5.322-4.912,11.474-4.859,18.294v0.357L125.708,282.84l94.315-39.904
		c0.221-2.326,0.563-4.608,1.141-6.813c-1.901-2.334-3.551-4.813-4.92-7.406l-0.373-0.806l-114.442,48.42v170.877L254.529,512
		l156.042-66.038V275.092L305.678,230.702z M251.89,269.717c4.547-5.163,10.904-8.934,17.67-10.744
		c4.137-1.088,7.962-1.605,11.368-1.605c5.011,0,9.094,1.088,11.732,2.532c1.286,0.723,2.267,1.552,2.89,2.327
		c0.616,0.776,0.874,1.444,0.981,2.113l0.053,0.624c0,0.928-0.312,2.069-1.239,3.407c-1.399,1.97-4.083,4.19-8.06,5.84
		c-3.923,1.711-9.04,2.897-15.04,3.103h-1.186c-7.231,0-14.47-2.175-20.256-6.197L251.89,269.717z M245.017,229.106
		c4.136-5.118,9.976-9.147,16.325-11.368c3.057-1.088,5.946-1.756,8.638-2.122c1.802-0.312,3.512-0.41,5.109-0.41
		c4.235,0,7.748,0.882,10.022,2.068c2.274,1.292,3.254,2.685,3.513,3.924l0.106,0.928l-0.206,1.346
		c-0.16,0.676-0.464,1.399-0.981,2.167c-1.346,2.069-3.931,4.395-7.702,6.258c-1.704,0.882-3.612,1.604-5.787,2.22
		c-2.585,0.829-5.528,1.391-8.729,1.756c-1.194,0.107-2.425,0.16-3.673,0.16c-5.688,0-11.314-1.346-16.271-3.878
		c-0.624-0.312-1.24-0.616-1.81-0.981C244.089,230.451,244.5,229.722,245.017,229.106z M265.585,173.204h0.258
		c3.406-0.054,6.197,0.669,8.06,1.65c1.908,0.981,2.791,2.167,3.201,3.308c0.152,0.464,0.213,0.981,0.213,1.498
		c0,1.034-0.319,2.274-1.14,3.718c-1.293,2.167-3.673,4.6-7.232,6.714c-3.52,2.122-8.166,3.878-13.694,4.912
		c-2.274,0.41-4.601,0.669-6.927,0.669c-5.27,0-10.539-1.186-15.139-3.3c3.611-6.41,9.558-11.885,16.324-15.04l0.054-0.053
		C255.502,174.442,261.037,173.204,265.585,173.204z M216.715,168.702c-2.752,0.472-5.551,0.73-8.402,0.837
		c-1.216,0.061-2.494,0.106-3.703,0.106c-6.151,0-12.104-0.783-17.838-2.129c16.432-25.533,34.217-45.66,34.217-45.66
		s-41.334-1.726-56.838-12.059c-9.147,5.65-17.983,14.166-25.434,23.404c-7.582-12.014-12.037-26.195-12.037-41.486
		c0-21.556,8.714-40.999,22.826-55.104c14.158-14.112,33.6-22.834,55.103-22.834c21.557,0,41,8.721,55.104,22.834
		c14.165,14.105,22.834,33.548,22.834,55.104c0,15.694-4.6,30.332-12.63,42.528c-2.912,4.546-6.341,8.722-10.204,12.576
		c-8.022,8.037-17.8,14.318-28.681,18.28C226.433,166.74,221.681,167.956,216.715,168.702z M222.183,183.787
		c-0.472-0.57-0.852-1.224-1.27-1.84c0.418-0.084,0.844-0.137,1.27-0.228c2.889-0.509,5.68-1.239,8.47-2.068
		c0.973-0.289,1.893-0.676,2.851-0.996c-0.989,0.988-1.954,1.999-2.851,3.064c-1.704,1.969-3.202,4.038-4.494,6.258
		C224.661,186.738,223.316,185.339,222.183,183.787z M256.027,310.898c4.904-5.216,11.724-8.835,18.91-10.226
		c3.201-0.678,6.197-0.928,8.934-0.928c5.786,0,10.44,1.232,13.383,2.936c1.498,0.828,2.585,1.817,3.254,2.646
		c0.669,0.928,0.935,1.643,1.034,2.426v0.304c0,0.935-0.304,2.023-1.186,3.208c-1.292,1.856-3.931,3.871-7.801,5.369
		c-3.772,1.551-8.783,2.532-14.569,2.532c-0.525,0-1.034,0-1.498-0.046c-7.543-0.206-15.146-2.844-20.925-7.39l-0.107-0.107
		L256.027,310.898z M249.358,366.238v126.745l-132.426-56.062V290.338l124.883,52.853l7.542,3.201V366.238z M248.217,334.72
		c-0.099-0.776-0.152-1.551-0.198-2.38v-1.596c0-4.547,1.08-8.577,2.836-12.25c7.292,5.581,16.272,8.63,25.374,8.889
		c0.563,0.046,1.186,0.046,1.756,0.046l-23.457,9.923L248.217,334.72z M395.067,435.682l-135.376,57.302V363.805v-9.763v-3.924
		v-3.726l28.985-12.295l106.391-45.006V435.682z"/>
</g>
</svg>