<?xml version="1.0" encoding="utf-8"?>

<!DOCTYPE svg PUBLIC "-//W3C//DTD SVG 1.1//EN" "http://www.w3.org/Graphics/SVG/1.1/DTD/svg11.dtd">
<!-- Uploaded to: SVG Repo, www.svgrepo.com, Generator: SVG Repo Mixer Tools -->
<svg height="800px" width="800px" version="1.1" id="_x32_" xmlns="http://www.w3.org/2000/svg" xmlns:xlink="http://www.w3.org/1999/xlink" 
	 viewBox="0 0 512 512"  xml:space="preserve">
<style type="text/css">
	:root { color-scheme: dark light; }
</style>
<g>
	<path fill="currentColor" d="M308.509,428.434l-21.309,18.78c-6.033,6.352,27.165,50.333,33.048,64.787
		c13.746-1.751,22.902-11.544,22.902-11.544s-3.688-6.794-13.773-21.902c-1.478-2.494,0.434-5.087,4.484-0.673
		c4.043,4.406,16.976,26.051,16.976,26.051s23.052-20.292,24.732-28.864C376.57,469.974,326.954,422.348,308.509,428.434z"/>
	<polygon fill="currentColor" points="177.086,355.109 130.3,315.515 117.173,330.721 152.388,383.691 	"/>
	<polygon fill="currentColor" points="91.794,360.09 127.01,413.068 141.985,395.73 106.77,342.752 	"/>
	<path fill="currentColor" d="M436.97,7.457c-12.8-11.066-32.147-9.651-43.212,3.149L168.744,271.02l-41.991-35.87
		c-3.122-2.672-4.627-6.281-4.662-10.12c0.018-3.105,1.009-6.051,3.194-8.616l72.342-86.61c7.696-9.006,6.634-22.548-2.37-30.235
		c-9.006-7.696-22.557-6.634-30.244,2.37l-72.35,86.61c-9.005,10.526-13.49,23.619-13.472,36.481
		c-0.026,15.79,6.732,31.678,19.709,42.743l41.805,35.711l-0.38,0.442l46.778,39.586L440.128,50.678
		C451.194,37.87,449.778,18.515,436.97,7.457z"/>
	<path fill="currentColor" d="M202.491,416.341c-13.675,9.298-25.07,21.593-33.384,34.464c-6.988,10.801-14.578,17.94-22.071,22.389
		c-7.518,4.458-14.993,6.298-22.185,6.307c-11.172,0.017-21.823-4.627-29.599-11.987c-7.774-7.369-12.472-17.179-12.455-27.281
		c0.018-5.9,1.646-12.039,5.36-18.355c8.413,4.388,18.32,4.592,26.803,0.744l-33.57-50.493l-2.274,2.628
		c-9.218,10.668-9.65,25.812-2.185,36.985l-2.981-1.973c-6.493,9.766-9.554,20.328-9.535,30.465
		c0.008,15.834,7.226,30.262,18.204,40.638c10.996,10.385,25.972,17.002,42.23,17.02c10.42,0.009,21.31-2.786,31.562-8.881
		c10.27-6.095,19.859-15.419,28.13-28.236c7.032-10.899,16.94-21.548,28.272-29.227c11.366-7.714,23.99-12.428,36.807-12.42
		c0.522,0,1.053,0.054,1.592,0.071c0.796-5.864,3.317-11.34,7.484-15.719l1.734-1.822c-3.627-0.566-7.245-0.92-10.81-0.92
		C232.24,400.754,216.141,407.062,202.491,416.341z"/>
	<path fill="currentColor" d="M296.984,411.104l-3.061-2.91c-6.458-6.148-16.675-5.9-22.823,0.566l-3.264,3.432
		c-6.148,6.458-5.9,16.665,0.566,22.822l3.061,2.92c1.724,1.637,4.449,1.565,6.085-0.16l19.594-20.576
		C298.779,415.474,298.717,412.74,296.984,411.104z"/>
</g>
</svg>