<?xml version="1.0" encoding="utf-8"?>

<!DOCTYPE svg PUBLIC "-//W3C//DTD SVG 1.1//EN" "http://www.w3.org/Graphics/SVG/1.1/DTD/svg11.dtd">
<!-- Uploaded to: SVG Repo, www.svgrepo.com, Generator: SVG Repo Mixer Tools -->
<svg version="1.1" id="_x32_" xmlns="http://www.w3.org/2000/svg" xmlns:xlink="http://www.w3.org/1999/xlink" 
	 width="800px" height="800px" viewBox="0 0 512 512"  xml:space="preserve">
<style type="text/css">
<![CDATA[
	:root { color-scheme: dark light; }
]]>
</style>
<g>
	<path fill="currentColor" d="M90.758,116.615l73.656-73.672c3.719-3.688,3.719-9.688,0-13.391L137.633,2.771
		c-3.688-3.703-9.688-3.703-13.375,0L50.57,76.443c-3.688,3.688-3.688,9.672,0,13.391l26.813,26.781
		C81.07,120.318,87.07,120.318,90.758,116.615z"/>
	<polygon fill="currentColor" points="232.758,316.99 259.227,343.459 285.695,316.99 259.227,290.537 	"/>
	<path fill="currentColor" d="M391.57,8.084H245.133c-12.844,0-25.156,5.109-34.25,14.188L68.414,164.725
		c-9.063,9.094-14.156,21.391-14.156,34.25v240.391c0,40.109,32.5,72.641,72.625,72.641H391.57
		c40.125,0,72.625-32.531,72.625-72.641V80.725C464.195,40.615,431.695,8.084,391.57,8.084z M370.164,401.475l-26.438,26.453
		l-84.5-84.469l-84.5,84.469l-26.438-26.453l84.469-84.484l-84.469-84.484l26.438-26.469l84.5,84.5l84.5-84.5l26.438,26.453
		l-84.469,84.5L370.164,401.475z M390.883,97.068H271.32c-11.781,0-21.344-9.563-21.344-21.359s9.563-21.359,21.344-21.359h119.563
		c11.813,0,21.375,9.563,21.375,21.359S402.695,97.068,390.883,97.068z"/>
</g>
</svg>