<?xml version="1.0" encoding="utf-8"?>

<!DOCTYPE svg PUBLIC "-//W3C//DTD SVG 1.1//EN" "http://www.w3.org/Graphics/SVG/1.1/DTD/svg11.dtd">
<!-- Uploaded to: SVG Repo, www.svgrepo.com, Generator: SVG Repo Mixer Tools -->
<svg height="800px" width="800px" version="1.1" id="_x32_" xmlns="http://www.w3.org/2000/svg" xmlns:xlink="http://www.w3.org/1999/xlink" 
	 viewBox="0 0 512 512"  xml:space="preserve">
<style type="text/css">
	:root { color-scheme: dark light; }
</style>
<g>
	<path fill="currentColor" d="M219.582,194.569c-5.326,0-9.626,4.316-9.626,9.634c0,5.326,4.3,9.627,9.626,9.627
		c5.318,0,9.635-4.3,9.635-9.627C229.217,198.886,224.901,194.569,219.582,194.569z"/>
	<path fill="currentColor" d="M293.512,194.569c-5.325,0-9.641,4.316-9.641,9.634c0,5.326,4.316,9.627,9.641,9.627
		c5.31,0,9.627-4.3,9.627-9.627C303.138,198.886,298.822,194.569,293.512,194.569z"/>
	<path fill="currentColor" d="M396.111,297.805c-0.016,0-0.016-0.016-0.016-0.016c-0.015,0-0.015,0-0.015,0L396.111,297.805z"/>
	<path fill="currentColor" d="M115.951,297.751l-0.047,0.039c0,0.016-0.015,0.016-0.015,0.016L115.951,297.751z"/>
	<path fill="currentColor" d="M501.885,247.026h-11.063c-0.428-2.329-1.002-4.658-1.793-6.972c-2.81-8.407-8.524-16.419-17.592-21.643
		l-0.023-0.008c-8.936-5.178-20.348-7.655-34.842-7.678l-0.256-0.016c-13.935,0-26.605,4.053-35.905,12.359l0.047-0.062
		l-0.039,0.046c-6.956,6.157-11.576,14.51-13.485,23.974H383.9l-4.208-33.786c-3.502-33.507-16.622-62.984-37.939-84.177
		c-21.286-21.209-50.771-33.716-85.108-33.692h-0.039h-0.163c-34.337-0.023-63.814,12.483-85.101,33.692
		c-21.325,21.194-34.437,50.67-37.939,84.177l-4.223,33.786h-4.13c-1.91-9.464-6.528-17.817-13.477-23.974l0.016,0.016
		c-9.3-8.292-21.954-12.343-35.874-12.343c0,0-0.14,0-0.311,0c-9.665,0.023-17.91,1.133-25.013,3.384l0.024-0.015
		c-10.806,3.377-18.896,9.766-23.678,17.809c-2.919,4.844-4.62,9.984-5.59,15.123H10.115H0v21.146h10.115h10.116
		c0.676,8.33,2.577,15.115,5.799,20.511l0.015,0.008c2.026,3.385,4.642,6.241,7.81,8.283H33.84c2.934,1.902,6.28,2.965,9.72,3.128
		l0.411,0.07h0.427h0.016h0.023h0.124v-0.015c0.443,0,0.862-0.086,1.289-0.117c1.863,2.492,4.216,4.356,6.677,5.613v0.015
		c3.26,1.662,6.746,2.375,10.108,2.375h0.023c3.144,0,6.482-0.667,9.588-2.173c3.12,1.506,6.443,2.173,9.626,2.173h0.039
		c4.425,0,9.207-1.258,13.275-4.416l0.008-0.008c0.388-0.303,0.683-0.668,1.017-0.986c1.762,0.52,3.626,0.823,5.566,0.823h0.047
		h0.023c5.038-0.016,10.084-1.956,14.059-5.667c3.96-3.672,6.592-8.764,7.904-14.642c0.8-3.563,1.42-6.995,1.77-11.039
		c0.117-1.242,0.202-2.554,0.264-3.936h84.868c-1.219,10.9-2.368,22.094-3.361,32.777c-1.102,11.816-2.034,22.925-2.717,32.225
		c-0.691,9.292-1.134,16.73-1.234,21.364c-0.008,0.574-0.023,1.141-0.023,1.708c0.015,15.682,5,30.478,14.207,41.696
		c4.618,5.597,10.302,10.31,16.924,13.578c6.405,3.183,13.648,4.968,21.326,5.069l0.241,0.039h0.45h0.024h0.054h0.124v-0.015
		c7.88-0.008,15.309-1.832,21.869-5.093c9.921-4.922,17.754-12.995,23.026-22.622c5.279-9.642,8.097-20.875,8.097-32.652
		c0-0.567,0-1.134-0.007-1.708c-0.117-4.635-0.56-12.072-1.234-21.364c-0.691-9.3-1.623-20.41-2.733-32.225
		c-0.994-10.682-2.134-21.877-3.353-32.777h83.757c0.078,1.382,0.147,2.694,0.264,3.936c0.365,4.044,0.978,7.476,1.77,11.039
		c1.328,5.877,3.952,10.97,7.918,14.642c3.929,3.68,8.92,5.613,13.905,5.667h0.108h0.055h0.039h0.023c1.91,0,3.75-0.295,5.496-0.808
		c1.312,1.212,2.748,2.228,4.27,3.005l0.008,0.015c3.245,1.662,6.731,2.375,10.092,2.375h0.039c3.144,0,6.467-0.667,9.587-2.173
		c3.121,1.506,6.428,2.173,9.627,2.173h0.039c4.417,0,9.207-1.258,13.275-4.416l0.031-0.039l-0.023,0.031
		c1.273-1.01,2.429-2.204,3.447-3.587c0.217,0.024,0.427,0.047,0.629,0.062v0.008l0.419,0.07h0.404h0.023h0.023h0.202v-0.015
		c3.665-0.055,7.22-1.173,10.341-3.183c4.744-3.067,8.222-7.911,10.473-13.788v-0.016c1.646-4.301,2.694-9.284,3.144-14.998h10.116
		H512v-21.146H501.885z M110.269,270.743c-0.303,3.307-0.754,5.861-1.459,9.044c-0.808,3.524-2.143,5.597-3.385,6.754
		c-1.258,1.148-2.469,1.521-3.649,1.536c-1.312,0-2.616-0.528-3.602-1.506c-0.838-0.87-1.444-2.042-1.607-3.68v-15.658
		c0-2.655-2.142-4.814-4.806-4.814c-2.654,0-4.798,2.158-4.798,4.814v14.253l-0.077,0.676l0.077,0.73v5.83
		c-0.008,0.792-0.163,1.296-0.365,1.708c-0.303,0.606-0.792,1.11-1.622,1.552c-0.815,0.427-1.948,0.691-3.097,0.691
		c-1.49,0.008-2.919-0.481-3.672-1.086c-0.389-0.31-0.645-0.613-0.831-0.978c-0.179-0.35-0.303-0.792-0.311-1.482
		c0-2.484,0-7.741,0-12.383c0-4.642,0-8.656,0-8.671c0-2.655-2.15-4.806-4.805-4.806c-2.647,0-4.814,2.15-4.814,4.806
		c0,0,0,16.109,0,21.054c0,0.691-0.124,1.133-0.295,1.482c-0.279,0.528-0.722,0.994-1.514,1.405c-0.776,0.396-1.871,0.66-2.996,0.66
		c-1.53,0.008-3.005-0.497-3.812-1.156c-0.427-0.334-0.707-0.683-0.901-1.087c-0.202-0.411-0.357-0.916-0.365-1.708v-19.098
		c0-2.654-2.142-4.813-4.814-4.813c-2.655,0-4.806,2.158-4.806,4.813v11.07l-0.147,0.567c-0.218,1.305-0.754,2.174-1.359,2.725
		c-0.606,0.543-1.274,0.792-2.026,0.807c-0.621-0.015-1.336-0.163-2.228-0.745c-1.32-0.839-3.059-2.725-4.456-6.374
		c-1.397-3.641-2.43-8.958-2.414-16.248c0-1.258,0.023-2.562,0.085-3.921c0.202-4.556,0.846-8.78,2.12-12.498
		c1.933-5.559,5.03-9.922,10.768-13.299c5.737-3.354,14.432-5.62,27.358-5.613c11.07,0,19.804,3.16,25.704,8.446
		c5.884,5.295,9.308,12.771,9.347,22.801C110.696,263.344,110.556,267.435,110.269,270.743z M294.785,252.801
		c-0.909-7.297-1.84-14.261-2.771-20.472l-9.502,1.42c2.872,19.121,5.73,45.221,7.919,68.635c2.188,23.391,3.71,44.235,3.897,52.519
		c0,0.45,0.015,0.893,0.015,1.343c0,12.406-4.013,23.81-10.705,31.938c-3.346,4.06-7.352,7.321-11.878,9.556
		c-4.542,2.251-9.603,3.517-15.215,3.517c-5.613,0-10.667-1.266-15.201-3.517c-6.792-3.353-12.428-9.02-16.388-16.24
		c-3.951-7.212-6.203-15.954-6.203-25.254c0-0.45,0.008-0.893,0.024-1.343c0.178-8.284,1.7-29.128,3.889-52.519
		c2.174-23.414,5.046-49.514,7.912-68.635l-9.503-1.42c-0.939,6.211-1.855,13.175-2.763,20.472h-74.349l4.72-37.799v-0.054
		c3.183-30.572,15.006-56.602,33.506-74.962c18.492-18.352,43.646-29.213,74.357-29.228c30.703,0.015,55.856,10.876,74.363,29.228
		c18.492,18.36,30.323,44.39,33.49,74.962l0.016,0.054l4.72,37.799H294.785z M472.78,280.757c-1.032,1.708-2.088,2.733-2.965,3.292
		c-0.892,0.582-1.622,0.73-2.228,0.745c-0.769-0.015-1.421-0.264-2.042-0.807c-0.598-0.552-1.142-1.42-1.358-2.725l-0.148-0.567
		v-11.07c0-2.654-2.15-4.813-4.806-4.813c-2.655,0-4.805,2.158-4.805,4.813v19.098c0,0.792-0.155,1.296-0.357,1.708
		c-0.303,0.606-0.792,1.11-1.622,1.552c-0.831,0.427-1.964,0.691-3.097,0.691c-1.49,0.008-2.919-0.481-3.68-1.086
		c-0.396-0.31-0.645-0.613-0.823-0.978c-0.179-0.35-0.311-0.792-0.311-1.482c0-2.484,0-7.741,0-12.383c0-4.642,0-8.656,0-8.671
		c0-2.655-2.15-4.806-4.806-4.806c-2.655,0-4.814,2.15-4.814,4.806c0,0,0,16.109,0,21.054c0,0.691-0.132,1.133-0.31,1.482
		c-0.264,0.528-0.707,0.994-1.514,1.405c-0.761,0.396-1.87,0.66-2.988,0.66c-1.522,0.008-2.997-0.497-3.812-1.156
		c-0.42-0.334-0.691-0.683-0.909-1.087c-0.202-0.411-0.342-0.916-0.349-1.708v-5.83l0.07-0.73l-0.07-0.676v-14.253
		c0-2.655-2.158-4.814-4.814-4.814c-2.655,0-4.805,2.158-4.805,4.814v15.658c-0.163,1.638-0.753,2.81-1.607,3.68
		c-0.97,0.978-2.29,1.506-3.587,1.506c-1.196-0.015-2.391-0.388-3.665-1.536c-1.242-1.157-2.561-3.23-3.369-6.754
		c-0.706-3.183-1.157-5.737-1.46-9.044c-0.303-3.308-0.427-7.398-0.427-13.4c0.039-10.03,3.447-17.506,9.331-22.801
		c5.916-5.286,14.649-8.446,25.72-8.446c8.594,0,15.348,0.994,20.588,2.671c7.848,2.53,12.243,6.327,15.146,11.071
		c2.896,4.758,4.193,10.822,4.503,17.668c0.062,1.359,0.093,2.663,0.093,3.921C476.693,271.146,474.846,277.357,472.78,280.757z"/>
</g>
</svg>