<?xml version="1.0" encoding="utf-8"?>

<!DOCTYPE svg PUBLIC "-//W3C//DTD SVG 1.1//EN" "http://www.w3.org/Graphics/SVG/1.1/DTD/svg11.dtd">
<!-- Uploaded to: SVG Repo, www.svgrepo.com, Generator: SVG Repo Mixer Tools -->
<svg height="800px" width="800px" version="1.1" id="_x32_" xmlns="http://www.w3.org/2000/svg" xmlns:xlink="http://www.w3.org/1999/xlink" 
	 viewBox="0 0 512 512"  xml:space="preserve">
<style type="text/css">
	:root { color-scheme: dark light; }
</style>
<g>
	<path fill="currentColor" d="M296.608,252.595h78.96l-5.018-40.128v-0.064c-3.386-32.469-15.934-60.113-35.566-79.609
		c-19.664-19.496-46.379-31.028-78.976-31.045c-32.621,0.016-59.336,11.549-78.984,31.045c-19.624,19.496-32.18,47.14-35.566,79.609
		l-0.008,0.064l-5.018,40.128h78.976c0.952-7.747,1.945-15.126,2.937-21.745l10.076,1.52c-3.042,20.296-6.074,48.02-8.404,72.886
		c-2.313,24.842-3.93,46.979-4.13,55.774c-0.016,0.48-0.016,0.953-0.016,1.432c0,9.876,2.393,19.16,6.586,26.811
		c4.21,7.676,10.188,13.686,17.399,17.255c4.81,2.377,10.197,3.722,16.151,3.722c5.954,0,11.332-1.345,16.143-3.722
		c4.826-2.393,9.076-5.851,12.629-10.164c7.107-8.628,11.364-20.721,11.364-33.902c0-0.479,0-0.952-0.016-1.44
		c-0.2-8.788-1.809-30.925-4.137-55.767c-2.321-24.866-5.362-52.59-8.404-72.886l10.084-1.52
		C294.663,237.469,295.647,244.848,296.608,252.595z M216.744,205.263c-5.65,0-10.228-4.586-10.228-10.228
		c0-5.651,4.578-10.22,10.228-10.22c5.658,0,10.236,4.57,10.236,10.22C226.98,200.677,222.402,205.263,216.744,205.263z
		 M285.027,195.036c0-5.651,4.578-10.22,10.22-10.22c5.658,0,10.244,4.57,10.244,10.22c0,5.642-4.586,10.228-10.244,10.228
		C289.605,205.263,285.027,200.677,285.027,195.036z"/>
	<path fill="currentColor" d="M125.154,269.61h87.94l1.273-10.212h-91.101C124.226,262.775,124.858,266.225,125.154,269.61z"/>
	<path fill="currentColor" d="M0,269.61h21.728c0.296-3.386,0.928-6.835,1.897-10.212H0V269.61z"/>
	<path fill="currentColor" d="M73.446,231.618c-45.371,0-49.9,48.764-38.568,60.113c6.85,6.858,19.28,1.136,19.28-17.007
		c0,11.324,4.546,24.946,19.288,24.946c14.75,0,19.28-13.622,19.28-24.946c0,18.144,12.429,23.866,19.28,17.007
		C123.346,280.382,118.816,231.618,73.446,231.618z"/>
	<path fill="currentColor" d="M298.922,269.61h87.932c0.304-3.386,0.928-6.835,1.888-10.212H297.64L298.922,269.61z"/>
	<path fill="currentColor" d="M488.382,259.398c0.968,3.377,1.593,6.827,1.897,10.212H512v-10.212H488.382z"/>
	<path fill="currentColor" d="M438.57,231.618c-45.363,0-49.916,48.764-38.568,60.113c6.86,6.858,19.28,1.136,19.28-17.007
		c0,11.324,4.538,24.946,19.288,24.946c14.734,0,19.279-13.622,19.279-24.946c0,18.144,12.422,23.866,19.28,17.007
		C488.478,280.382,483.924,231.618,438.57,231.618z"/>
</g>
</svg>