<?xml version="1.0" encoding="utf-8"?>

<!DOCTYPE svg PUBLIC "-//W3C//DTD SVG 1.1//EN" "http://www.w3.org/Graphics/SVG/1.1/DTD/svg11.dtd">
<!-- Uploaded to: SVG Repo, www.svgrepo.com, Generator: SVG Repo Mixer Tools -->
<svg version="1.1" id="_x32_" xmlns="http://www.w3.org/2000/svg" xmlns:xlink="http://www.w3.org/1999/xlink" 
	 width="800px" height="800px" viewBox="0 0 512 512"  xml:space="preserve">
<style type="text/css">
<![CDATA[
	:root { color-scheme: dark light; }
]]>
</style>
<g>
	<path fill="currentColor" d="M487.347,0.004C425.284,53.191,365.44,68.707,365.44,68.707L144.534,289.629l-32.25-32.219l-24.156,24.156
		l41.094,41.109L24.659,427.207c-7.469,7.484-7.469,19.594,0,27.047L76.8,506.395c7.469,7.469,19.578,7.469,27.047,0
		l104.547-104.547l44.891,44.875l24.172-24.156l-35.422-35.422c32.844-32.859,111.375-111.375,154.438-154.438
		C451.878,177.301,511.722,121.895,487.347,0.004z M385.128,211.816l-4.781,4.781L226.94,370.02l-31.313-31.281l176.031-176.016
		l-8.063-8.047l-176.031,176l-25.922-25.938L377.472,88.895c14.266-4.516,50.688-17.844,92.344-46.656
		C473.8,123.363,430.565,166.488,385.128,211.816z"/>
</g>
</svg>