<?xml version="1.0" encoding="utf-8"?>

<!DOCTYPE svg PUBLIC "-//W3C//DTD SVG 1.1//EN" "http://www.w3.org/Graphics/SVG/1.1/DTD/svg11.dtd">
<!-- Uploaded to: SVG Repo, www.svgrepo.com, Generator: SVG Repo Mixer Tools -->
<svg height="800px" width="800px" version="1.1" id="_x32_" xmlns="http://www.w3.org/2000/svg" xmlns:xlink="http://www.w3.org/1999/xlink" 
	 viewBox="0 0 512 512"  xml:space="preserve">
<style type="text/css">
	:root { color-scheme: dark light; }
</style>
<g>
	<path fill="currentColor" d="M505.668,256c-2.042-17.902-10.25-34.883-23.684-49.081c-2.984-3.155-6.21-6.181-9.637-9.022
		c-9.365-7.759-20.043-13.933-31.45-18.73V88.969h-0.586c-2.042-17.903-10.25-34.884-23.698-49.082
		c-2.969-3.141-6.182-6.174-9.636-9.036l-1.213-0.999l1.213,1.006C381.88,10.143,348.017,0.036,313.597,0
		c-27.168,0.014-54.82,6.345-79.061,19.523l-81.831,44.491l-4.811,2.62c-5.339,2.898-10.279,6.146-15.004,9.558l-70.938,38.574
		h0.014c-27.638,14.99-47.24,37.554-53.892,64.114l-0.015,0.029c-1.542,6.246-2.312,12.549-2.312,18.802
		c0,0.857,0.085,1.699,0.114,2.556v90.454H5.818c0.014,0.143,0.028,0.286,0.042,0.428v0.392h0.028
		c1.028,18.781,9.137,36.69,23.084,51.459c2.927,3.155,6.096,6.053,9.322,8.737l0.015,0.007
		c24.055,19.844,56.462,29.509,89.397,29.544c9.009,0,18.06-0.821,27.025-2.298v38.602h-0.042c0.014,0.143,0.042,0.286,0.042,0.428
		v0.457h0.043c1.071,19.537,9.508,38.203,24.084,53.593c3.027,3.269,6.324,6.303,9.708,9.101l-0.014-0.007
		c25.098,20.7,58.946,30.808,93.366,30.837c27.153-0.007,54.806-6.339,79.061-19.502l86.628-47.147l-0.015,0.007
		c28.852-15.647,49.338-39.166,56.234-66.876c1.613-6.517,2.427-13.092,2.427-19.609v-1.128V256H505.668z M424.937,190.872h3.983
		v0.014l-4.011,0.057C424.908,190.943,424.923,190.894,424.937,190.872z M245.028,38.781c20.615-11.235,44.827-16.86,68.569-16.853
		c30.137-0.028,59.289,9.094,79.404,25.818l1.042,0.871l-1.042-0.864c2.726,2.248,5.296,4.669,7.681,7.196
		c11.092,11.785,16.974,24.855,18.102,38.346l0.186-0.014v20.9c-6.653,19.422-22.271,37.004-45.434,49.595l-8.045,4.383
		L224.372,50.009L245.028,38.781z M375.242,229.646l-4.34,2.37v-21.643l7.838-4.268c17.046-9.237,30.765-21.236,40.23-35.041v15.304
		C410.718,203.406,395.756,218.503,375.242,229.646z M417.87,202.45c-0.228,1.242-0.371,2.476-0.685,3.726
		c-5.054,20.436-20.701,39.452-45.412,52.886l-0.871,0.478v-19.202l7.881-4.296C395.2,227.12,408.462,215.627,417.87,202.45z
		 M375.256,199.687l-4.354,2.363V181.85l9.608-5.226l-0.015,0.007c15.818-8.58,28.824-19.587,38.474-32.228v12.006
		C410.718,173.448,395.771,188.552,375.256,199.687z M192.342,361.25l-0.178-0.186c-6.053-6.417-10.478-13.291-13.662-20.407
		c12.32,2.869,25.14,4.296,38.046,4.311c27.168-0.007,54.82-6.339,79.076-19.508l19.815-10.779l60.302,50.488l-23.498,12.792
		c-21.229,11.542-46.012,17.281-70.324,17.274c-30.851,0.021-60.773-9.266-81.717-26.647
		C197.368,366.24,194.684,363.756,192.342,361.25z M124.181,229.232l-0.029-0.028c-5.353-5.639-9.607-11.678-12.848-17.967v-12.784
		c1.528,1.898,3.126,3.769,4.84,5.582c2.913,3.141,6.111,6.067,9.38,8.78c24.255,20.044,57.333,29.988,91.024,30.009
		c26.597-0.008,53.679-6.218,77.334-19.059l18.83-10.25v20.201l-24.07,13.091c-21.843,11.87-47.212,17.724-72.08,17.724
		c-31.565,0.008-62.258-9.429-84.029-27.46v-0.007C129.534,234.6,126.708,231.973,124.181,229.232z M118.814,234.2
		c0.014,0.008,0.014,0.015,0.014,0.015c0.015,0.006,0.015,0.014,0.015,0.014c2.783,2.998,5.838,5.825,9.036,8.466
		c23.427,19.366,55.691,29.131,88.683,29.145c26.011-0.008,52.522-6.096,75.578-18.609l20.572-11.207v21.643l-24.07,13.091
		c-21.857,11.87-47.212,17.73-72.095,17.724c-31.55,0.014-62.244-9.43-84.015-27.46c-2.998-2.476-5.825-5.082-8.352-7.831
		l-0.029-0.035c-5.353-5.639-9.607-11.678-12.848-17.966v-16.032C113.56,228.268,116.058,231.288,118.814,234.2z M210.566,57.518
		l141.119,118.15l-27.496,14.954L183.056,72.48L210.566,57.518z M356.283,189.802v20.393v29.965v27.332l-28.952,15.761v-19.408
		v-29.952v-28.331L356.283,189.802z M112.946,138.807c4.054-16.274,14.876-31.6,31.55-43.97l10.621-5.774l-0.499-0.914
		c1.256-0.743,2.441-1.535,3.74-2.242l10.892-5.918l141.134,118.142l-23.498,12.785c-21.228,11.556-46.026,17.296-70.339,17.288
		c-30.836,0.021-60.759-9.266-81.702-26.646c-2.884-2.392-5.625-4.919-7.994-7.474l-0.043-0.05
		c-7.252-7.688-12.349-16.004-15.504-24.662v-6.054l0.785-0.142c-0.442-2.455-0.671-4.947-0.785-7.446v-3.69h-0.057
		C111.332,147.687,111.861,143.275,112.946,138.807z M111.59,302.854c-24.184-2.634-46.926-11.093-63.915-25.176l0.7,0.585
		l-0.714-0.585c-2.841-2.348-5.539-4.854-7.952-7.466l-0.028-0.028c-4.911-5.176-8.852-10.7-11.892-16.44v-11.578
		c1.242,1.492,2.542,2.962,3.898,4.404l0.143,0.143l-0.186-0.193c2.783,3.013,5.853,5.825,8.993,8.431v-0.007
		C56.313,267.92,75.856,276.4,96.8,280.591C100.454,288.492,105.437,295.966,111.59,302.854z M29.345,184.177
		c4.811-19.33,19.602-37.375,43.085-50.138l2.413-1.314L95.8,121.318c-1.642,3.969-3.084,8.009-4.125,12.178l-0.015,0.028
		c-1.598,6.51-2.398,13.069-2.398,19.587c0,0.878,0.085,1.748,0.114,2.626v94.822h-0.043c0.014,0.142,0.029,0.285,0.043,0.428v0.457
		h0.043c0.228,4.34,0.842,8.629,1.799,12.856c-15.619-4.204-29.838-11.142-41.259-20.615c-2.741-2.263-5.339-4.676-7.594-7.102
		l-0.143-0.157l0.1,0.107c-6.767-7.174-11.535-14.926-14.533-22.977v-6.189l0.743-0.136c-0.414-2.298-0.628-4.625-0.743-6.966
		v-3.569h-0.057C27.817,192.578,28.302,188.41,29.345,184.177z M27.788,267.271c2.013,2.705,4.155,5.368,6.553,7.902v0.007
		c0.015,0.007,0.015,0.014,0.029,0.022v0.008c2.655,2.855,5.539,5.546,8.594,8.058l-0.885-0.728l0.928,0.771
		c20.5,16.932,48.039,26.061,76.677,27.532c1.2,1.077,2.284,2.284,3.512,3.297l0.856,0.7l-0.856-0.707
		c8.066,6.653,17.117,12.099,26.725,16.582c-7.366,1.092-14.805,1.699-22.185,1.699c-30.08,0.007-59.332-8.987-80.061-26.161
		l0.7,0.586l-0.714-0.586c-2.855-2.355-5.539-4.847-7.952-7.452l-0.028-0.028c-4.911-5.182-8.852-10.7-11.892-16.446V267.271z
		 M154.732,356.775c-8.922,1.7-18.016,2.584-27.025,2.584c-28.652,0.029-56.348-8.651-75.421-24.505l0.014,0.007
		c-2.655-2.198-5.139-4.504-7.266-6.788l-0.057-0.064c-9.108-9.694-14.448-20.243-16.404-31.208c1.813,2.37,3.655,4.725,5.768,6.967
		c0.015,0.007,0.015,0.014,0.029,0.021v0.007c2.67,2.87,5.582,5.575,8.651,8.094h-0.014c22.399,18.495,53.221,27.824,84.729,27.831
		c8.993,0,18.044-0.828,26.996-2.37V356.775z M137.173,297.244v-0.007c-2.77-2.292-5.397-4.718-7.638-7.145l-0.071-0.072
		c-9.936-10.572-15.646-22.106-17.546-34.106c2.098,2.819,4.383,5.575,6.881,8.223c0.014,0,0.014,0,0.014,0
		c0.014,0.014,0.014,0.028,0.029,0.043c2.798,3.033,5.852,5.846,9.036,8.48c23.427,19.359,55.691,29.124,88.669,29.131
		c26.026,0,52.536-6.089,75.592-18.609l20.572-11.206v19.229l-27.567,14.998c-20.629,11.228-44.842,16.853-68.597,16.839
		C186.426,323.076,157.288,313.954,137.173,297.244z M378.068,458.236l-27.568,15.004v-0.007
		c-20.628,11.229-44.841,16.853-68.582,16.84c-30.137,0.035-59.275-9.087-79.376-25.797l-0.014-0.007
		c-2.769-2.292-5.382-4.718-7.637-7.146l-0.086-0.092l0.014,0.014c-9.922-10.55-15.632-22.092-17.531-34.098
		c2.098,2.827,4.368,5.582,6.881,8.237c2.798,3.019,5.852,5.853,9.065,8.509c23.428,19.358,55.691,29.124,88.684,29.137
		c26.011-0.007,52.522-6.096,75.578-18.616l20.572-11.192V458.236z M378.068,430.697l-24.07,13.091
		c-21.842,11.878-47.211,17.731-72.08,17.731c-31.565,0.007-62.258-9.436-84.015-27.467c-3.012-2.47-5.825-5.09-8.366-7.838
		l-0.028-0.028c-5.339-5.639-9.608-11.678-12.848-17.959v-16.039c2.256,3.112,4.754,6.131,7.51,9.044
		c2.798,3.019,5.867,5.853,9.079,8.501l-0.014-0.014c23.428,19.365,55.706,29.137,88.684,29.144
		c26.011,0,52.522-6.088,75.578-18.609l20.572-11.192V430.697z M378.068,400.739l-24.07,13.091
		c-21.842,11.878-47.197,17.731-72.08,17.724c-31.55,0.015-62.258-9.429-84.015-27.467l-0.043-0.028
		c-2.984-2.456-5.796-5.054-8.323-7.795l-0.028-0.028c-5.354-5.647-9.608-11.678-12.848-17.967v-12.785
		c1.542,1.906,3.141,3.784,4.854,5.597c2.927,3.141,6.096,6.067,9.365,8.766c24.269,20.05,57.333,29.987,91.039,30.009
		c26.582-0.008,53.664-6.218,77.319-19.06l18.831-10.25V400.739z M329.244,307.165l27.496-14.962l60.302,50.488l-27.496,14.968
		L329.244,307.165z M421.639,377.226v29.958v27.332l-28.952,15.761v-19.394v-29.958v-28.338l28.952-15.754V377.226z M482.541,373.2
		c-5.054,20.444-20.686,39.452-45.412,52.886l-0.871,0.471V407.37l7.838-4.268c16.446-8.915,29.723-20.429,39.146-33.62
		C483.012,370.723,482.855,371.951,482.541,373.2z M484.326,353.406c-8.252,17.032-23.199,32.136-43.714,43.271l-4.354,2.37v-21.642
		l7.838-4.268c17.046-9.237,30.766-21.236,40.23-35.034V353.406z M484.326,323.448c-8.252,17.038-23.199,32.142-43.714,43.271
		l-4.354,2.362v-20.207l8.323-4.526l1.27-0.692c15.818-8.58,28.824-19.58,38.474-32.221V323.448z M484.326,281.211
		c-6.652,19.43-22.271,37.004-45.441,49.596l-1.071,0.578l-6.98,3.797l-60.288-50.488l9.779-5.318l1.913-1.042
		c28.852-15.646,49.338-39.174,56.234-66.876c0.7-2.841,1.185-5.682,1.585-8.53c6.624,3.397,12.82,7.309,18.287,11.849
		c2.756,2.277,5.325,4.69,7.681,7.195c11.106,11.792,17.003,24.862,18.116,38.368l0.186-0.015V281.211z M490.264,357.974
		c0-0.021,0.015-0.05,0.029-0.072h4.996L490.264,357.974z"/>
	<path fill="currentColor" d="M181.486,371.052c0.014,0.006,0.014,0.014,0.028,0.028l-0.114-0.121L181.486,371.052z"/>
	<path fill="currentColor" d="M116.172,204.07c0,0-0.014-0.021-0.028-0.036l-0.014-0.014L116.172,204.07z"/>
	<path fill="currentColor" d="M127.879,242.702c0-0.007,0-0.007,0-0.007l-0.7-0.571L127.879,242.702z"/>
	<path fill="currentColor" d="M379.539,235.628l-0.756,0.414c-0.015,0.007-0.028,0.021-0.043,0.028L379.539,235.628z"/>
</g>
</svg>