<?xml version="1.0" encoding="utf-8"?>

<!DOCTYPE svg PUBLIC "-//W3C//DTD SVG 1.1//EN" "http://www.w3.org/Graphics/SVG/1.1/DTD/svg11.dtd">
<!-- Uploaded to: SVG Repo, www.svgrepo.com, Generator: SVG Repo Mixer Tools -->
<svg version="1.1" id="_x32_" xmlns="http://www.w3.org/2000/svg" xmlns:xlink="http://www.w3.org/1999/xlink" 
	 viewBox="0 0 512 512"  xml:space="preserve">
<style type="text/css">
	:root { color-scheme: dark light; }
</style>
<g>
	<rect y="319.706" fill="currentColor" width="42.077" height="50.847"/>
	<rect y="416.149" fill="currentColor" width="42.077" height="50.847"/>
	<rect x="469.923" y="319.706" fill="currentColor" width="42.077" height="50.847"/>
	<path fill="currentColor" d="M459.399,405.624h29.809v-24.547h-29.809v-71.885h29.809v-28.066c0,0-68.979-35.06-68.979-213.913
		c0,0,0.664-6.725-10.857-18.703C376.761,14.614,256,13.44,256,13.44s-120.761,1.173-153.371,35.071
		C91.108,60.489,91.772,67.214,91.772,67.214c0,178.852-68.98,213.913-68.98,213.913v28.066h29.809v71.885H22.792v24.547h29.809
		v71.897H22.792v21.038h223.359V210.996l-70.952-106.043c-4.588-16.545,9.31-33.068,80.801-33.068
		c71.502,0,85.4,16.524,80.802,33.068L265.85,210.996V498.56h223.358v-21.038h-29.809V405.624z"/>
	<rect x="469.923" y="416.149" fill="currentColor" width="42.077" height="50.847"/>
</g>
</svg>