<?xml version="1.0" encoding="utf-8"?>

<!DOCTYPE svg PUBLIC "-//W3C//DTD SVG 1.1//EN" "http://www.w3.org/Graphics/SVG/1.1/DTD/svg11.dtd">
<!-- Uploaded to: SVG Repo, www.svgrepo.com, Generator: SVG Repo Mixer Tools -->
<svg height="800px" width="800px" version="1.1" id="_x32_" xmlns="http://www.w3.org/2000/svg" xmlns:xlink="http://www.w3.org/1999/xlink" 
	 viewBox="0 0 512 512"  xml:space="preserve">
<style type="text/css">
	:root { color-scheme: dark light; }
</style>
<g>
	<path fill="currentColor" d="M488.517,360.879v-91.686l-8.732-4.422c-0.61-0.404-13.699-8.018-27.295-34.148
		c-13.727-26.535-27.885-72.514-27.885-149.544l0.008-0.188c0.01-2.948-0.685-7.211-2.92-12.084
		c-2.234-4.882-5.905-10.385-11.746-16.45c-5.53-5.728-12.084-10.038-19.163-13.662c-12.394-6.291-26.647-10.554-41.388-13.821
		c-22.065-4.864-45.144-7.315-62.89-8.629c-17.737-1.296-30.093-1.418-30.347-1.418L256,31.257l-0.16-16.432
		c-0.394,0.01-28.844,0.264-61.716,4.602c-16.459,2.188-34.018,5.361-50.092,10.291c-8.046,2.459-15.736,5.371-22.825,8.976
		c-7.07,3.624-13.624,7.934-19.145,13.662c-5.84,6.065-9.521,11.567-11.746,16.45c-2.234,4.873-2.939,9.136-2.92,12.084v0.188
		c0,80.785-15.558,127.412-29.896,153.281c-7.183,12.947-14.083,20.788-18.853,25.284c-2.386,2.244-4.235,3.643-5.333,4.413
		c-0.564,0.386-0.92,0.61-1.07,0.695h-0.01l-8.742,4.45v91.677H0v79.847h23.492v56.448H256h232.517v-56.448H512v-79.847H488.517z
		 M455.636,464.293h-187.89V198.885l63.115-82.832c4.262-15.334-8.619-30.638-74.862-30.638c-66.241,0-79.124,15.304-74.861,30.638
		l63.115,82.832v265.408H56.374V287.801c7.662-6.244,19.004-17.801,29.896-37.51c17.521-31.642,33.839-83.772,33.99-167.9
		c0.15-0.319,0.394-0.788,0.798-1.436c0.807-1.286,2.244-3.258,4.694-5.794c2.019-2.14,5.578-4.732,10.394-7.182
		c8.441-4.329,20.506-8.141,33.548-11.005c19.604-4.337,41.454-6.722,58.204-7.943c8.394-0.61,15.52-0.949,20.524-1.127
		c2.498-0.094,4.47-0.141,5.784-0.169c0.666-0.01,1.174-0.028,1.502-0.037h0.358h0.018c2.892,0.037,30.534,0.573,60.355,4.713
		c14.891,2.066,30.328,5.071,43.144,9.118c6.394,2.01,12.121,4.3,16.722,6.695c4.592,2.366,7.99,4.873,9.953,6.92
		c3.681,3.86,5.052,6.319,5.483,7.258c0.16,84.128,16.469,136.267,33.998,167.89c10.883,19.708,22.224,31.266,29.896,37.51V464.293z
		"/>
</g>
</svg>