<?xml version="1.0" encoding="utf-8"?>

<!DOCTYPE svg PUBLIC "-//W3C//DTD SVG 1.1//EN" "http://www.w3.org/Graphics/SVG/1.1/DTD/svg11.dtd">
<!-- Uploaded to: SVG Repo, www.svgrepo.com, Generator: SVG Repo Mixer Tools -->
<svg height="800px" width="800px" version="1.1" id="_x32_" xmlns="http://www.w3.org/2000/svg" xmlns:xlink="http://www.w3.org/1999/xlink" 
	 viewBox="0 0 512 512"  xml:space="preserve">
<style type="text/css">
	:root { color-scheme: dark light; }
</style>
<g>
	<path fill="currentColor" d="M257.736,467.616h-3.496c-1.594,0-2.897,1.311-2.897,2.914l-1.562,37.586c-0.008,2.144,1.724,3.869,3.86,3.884
		h4.646c2.137-0.016,3.869-1.74,3.869-3.884l-1.538-37.586C260.617,468.927,259.338,467.616,257.736,467.616z"/>
	<path fill="currentColor" d="M306.377,455.8c-0.793-1.384-2.574-1.862-3.966-1.061l-3.027,1.732c-1.376,0.802-1.862,2.582-1.036,3.966
		l17.425,33.337c1.06,1.845,3.44,2.484,5.285,1.425l4.022-2.315c1.845-1.068,2.484-3.432,1.408-5.278L306.377,455.8z"/>
	<path fill="currentColor" d="M371.965,437.655l-33.344-17.465c-1.376-0.81-3.141-0.34-3.958,1.044l-1.74,3.018
		c-0.793,1.384-0.324,3.157,1.068,3.966l31.775,20.153c1.845,1.068,4.216,0.437,5.292-1.424l2.299-3.998
		C374.441,441.087,373.803,438.715,371.965,437.655z"/>
	<path fill="currentColor" d="M177.353,421.176c-0.793-1.4-2.574-1.877-3.95-1.068l-33.352,17.449c-1.846,1.06-2.493,3.431-1.416,5.277
		l2.315,4.014c1.06,1.853,3.432,2.493,5.293,1.425l31.79-20.129c1.384-0.801,1.861-2.565,1.052-3.966L177.353,421.176z"/>
	<path fill="currentColor" d="M212.591,456.431l-3.011-1.732c-1.392-0.809-3.156-0.323-3.958,1.053l-20.177,31.783
		c-1.068,1.853-0.421,4.216,1.424,5.285l4.014,2.314c1.862,1.069,4.217,0.438,5.293-1.408l17.465-33.328
		C214.453,459.021,213.983,457.232,212.591,456.431z"/>
	<path fill="currentColor" d="M195.021,331.438c0,33.628,27.348,60.983,60.975,60.983c33.612,0,60.975-27.356,60.983-60.968
		c0-3.366-0.364-6.668-0.898-9.922h150.585L307.073,168.309v-43.922h-41.495V0h-19.157v124.386h-41.486v43.922l-159.6,153.223
		h150.58C195.385,324.786,195.021,328.079,195.021,331.438z M302.881,331.454c0,25.834-21.035,46.877-46.885,46.877
		c-25.858,0-46.901-21.043-46.884-46.893c0-3.375,0.388-6.685,1.076-9.906h91.616C302.496,324.753,302.881,328.071,302.881,331.454z
		"/>
</g>
</svg>