<?xml version="1.0" encoding="utf-8"?>

<!DOCTYPE svg PUBLIC "-//W3C//DTD SVG 1.1//EN" "http://www.w3.org/Graphics/SVG/1.1/DTD/svg11.dtd">
<!-- Uploaded to: SVG Repo, www.svgrepo.com, Generator: SVG Repo Mixer Tools -->
<svg version="1.1" id="_x32_" xmlns="http://www.w3.org/2000/svg" xmlns:xlink="http://www.w3.org/1999/xlink" 
	 width="800px" height="800px" viewBox="0 0 512 512"  xml:space="preserve">
<style type="text/css">
<![CDATA[
	:root { color-scheme: dark light; }
]]>
</style>
<g>
	<path fill="currentColor" d="M444.969,118.656c-18.016-18.359-42.063-28.844-67.703-29.531l-8.672-0.234l-1.828-8.469
		c-4.844-22.422-17.344-42.828-35.25-57.453C313.125,7.969,290.844,0.016,267.047,0C243,0.016,220.516,8.109,202.016,23.422
		C184,38.344,171.594,59.094,167.031,81.859l-2.125,10.531l-10.625-1.859c-6.094-1.031-11.625-1.547-16.922-1.547
		c-26.203,0.016-50.875,10.219-69.5,28.797c-18.547,18.578-28.75,43.25-28.766,69.469c0.016,26.219,10.219,50.875,28.797,69.5
		c18.578,18.547,43.25,28.781,69.484,28.781h43.703l90.313-103.344l54.297-57.922c3.375-3.594,8.844-4.234,12.938-1.5
		c4.109,2.734,5.641,8.016,3.625,12.516l-67.156,150.25h99.563c26.203,0,50.875-10.234,69.484-28.797
		c18.531-18.609,28.75-43.266,28.766-69.484C472.891,161.531,462.984,137.188,444.969,118.656z"/>
	<polygon fill="currentColor" points="287.469,196.25 133.672,372.25 176.156,374.844 117.5,512 331.047,299.781 250.078,299.781 	"/>
</g>
</svg>