<?xml version="1.0" encoding="utf-8"?>

<!DOCTYPE svg PUBLIC "-//W3C//DTD SVG 1.1//EN" "http://www.w3.org/Graphics/SVG/1.1/DTD/svg11.dtd">
<!-- Uploaded to: SVG Repo, www.svgrepo.com, Generator: SVG Repo Mixer Tools -->
<svg version="1.1" id="_x32_" xmlns="http://www.w3.org/2000/svg" xmlns:xlink="http://www.w3.org/1999/xlink" 
	 width="800px" height="800px" viewBox="0 0 512 512"  xml:space="preserve">
<style type="text/css">
<![CDATA[
	:root { color-scheme: dark light; }
]]>
</style>
<g>
	<path fill="currentColor" d="M509.594,287.742c-0.625-1.531-2.141-2.516-3.813-2.375c-4.875,0.219-26.969,0.25-29.594,0.359
		c-21.422,1.016-43.094-0.906-61.859-2.547c-18.891-1.656-39.641-2.219-59.797-2.219s-39.719,0.563-56.375,1.125
		c-16.703,0.578-33.188,1.141-42.156,1.156c-8.969-0.016-25.469-0.578-42.156-1.156c-16.656-0.563-36.219-1.125-56.375-1.125
		s-40.922,0.563-59.781,2.219c-18.781,1.641-40.453,3.563-61.875,2.547c-2.625-0.109-24.719-0.141-29.594-0.359
		c-1.672-0.141-3.203,0.844-3.813,2.375c-0.594,1.547-0.109,3.297,1.188,4.328c0,0-0.75-0.328,5.156,4.047
		C76.063,346.18,143.625,406.477,256,406.477c112.406,0,179.938-60.297,247.25-110.359c5.891-4.375,5.156-4.047,5.156-4.047
		C509.703,291.039,510.188,289.289,509.594,287.742z"/>
	<path fill="currentColor" d="M510.313,247.914c0,0-7.344-3.078-16.094-10.563C433.031,184.836,365.172,56.258,256,125.555
		C146.813,56.258,78.969,184.836,17.766,237.352c-8.734,7.484-16.078,10.563-16.078,10.563c-1.375,0.891-2,2.578-1.547,4.156
		s1.859,2.672,3.484,2.734c0,0,16.844,1.125,32.188,1.125c20.594,0,41.516-0.875,59.281-2.438
		c20.141-1.766,41.656-2.328,62.375-2.328s40.609,0.563,57.406,1.141c16.734,0.578,33.359,1.141,41.125,1.125
		c7.75,0.016,24.375-0.547,41.125-1.125c16.781-0.578,36.688-1.141,57.406-1.141s42.234,0.563,62.375,2.328
		c17.75,1.563,38.688,2.438,59.281,2.438c15.344,0,32.188-1.125,32.188-1.125c1.625-0.063,3.031-1.156,3.484-2.734
		S511.688,248.805,510.313,247.914z"/>
</g>
</svg>