<?xml version="1.0" encoding="utf-8"?>

<!DOCTYPE svg PUBLIC "-//W3C//DTD SVG 1.1//EN" "http://www.w3.org/Graphics/SVG/1.1/DTD/svg11.dtd">
<!-- Uploaded to: SVG Repo, www.svgrepo.com, Generator: SVG Repo Mixer Tools -->
<svg height="800px" width="800px" version="1.1" id="_x32_" xmlns="http://www.w3.org/2000/svg" xmlns:xlink="http://www.w3.org/1999/xlink" 
	 viewBox="0 0 512 512"  xml:space="preserve">
<style type="text/css">
	:root { color-scheme: dark light; }
</style>
<g>
	<path fill="currentColor" d="M198.258,265.818l26.784-26.784c-26.924-9.157-57.926-3.067-79.353,18.36
		c-30.031,30.027-30.031,78.89,0,108.924c30.027,30.027,78.883,30.027,108.917,0c21.427-21.434,27.517-52.437,18.36-79.36
		l-26.784,26.792c-0.447,11.19-4.835,22.248-13.362,30.775c-18.015,18.022-47.33,18.022-65.352,0
		c-18.018-18.008-18.018-47.33,0-65.344C176.002,270.646,187.061,266.258,198.258,265.818z"/>
	<path fill="currentColor" d="M271.234,192.834c-53.222-31.788-123.325-24.788-169.114,21.001c-54.052,54.052-54.052,141.99,0,196.04
		c54.051,54.052,141.992,54.052,196.052,0c45.781-45.781,52.782-115.888,20.986-169.11l-22.696,22.696
		c20.26,40.402,13.59,90.968-20.076,124.635c-42.04,42.039-110.444,42.039-152.483,0c-42.039-42.046-42.039-110.451,0-152.483
		c33.667-33.666,84.233-40.344,124.635-20.076L271.234,192.834z"/>
	<path fill="currentColor" d="M344.973,223.969c39.544,65.176,31.23,151.448-25.022,207.694c-66.056,66.064-173.55,66.064-239.61,0
		c-66.067-66.064-66.067-173.55,0-239.614c56.25-56.246,142.522-64.567,207.69-25.022l-4.844-37.313
		c-73.834-33.564-163.988-20.091-224.633,40.55c-78.072,78.076-78.072,205.11,0,283.186c78.072,78.068,205.107,78.068,283.183,0
		c60.64-60.648,74.121-150.809,40.55-224.636L344.973,223.969z"/>
	<path fill="currentColor" d="M411.734,100.259L398.731,0l-95.173,95.166l0.58,4.513l10.427,80.329L197.891,296.681
		c-3.163,0.455-6.208,1.849-8.637,4.285c-6.017,6.017-6.017,15.762,0,21.779c6.017,6.017,15.762,6.017,21.779,0
		c2.436-2.436,3.838-5.474,4.285-8.637l116.673-116.673l84.842,11l3.214-3.207l91.952-91.952L411.734,100.259z M385.229,39.632
		l8.006,61.704l-22.835,22.836l-8.006-61.704L385.229,39.632z M331.068,163.511l-8.013-61.697l22.836-22.836l8.006,61.698
		L331.068,163.511z M410.185,188.945l-61.697-8.013l22.835-22.828l61.705,8.005L410.185,188.945z M387.827,141.6l22.836-22.835
		l61.705,7.998l-22.843,22.836L387.827,141.6z"/>
</g>
</svg>