<?xml version="1.0" encoding="utf-8"?>

<!DOCTYPE svg PUBLIC "-//W3C//DTD SVG 1.1//EN" "http://www.w3.org/Graphics/SVG/1.1/DTD/svg11.dtd">
<!-- Uploaded to: SVG Repo, www.svgrepo.com, Generator: SVG Repo Mixer Tools -->
<svg height="800px" width="800px" version="1.1" id="_x32_" xmlns="http://www.w3.org/2000/svg" xmlns:xlink="http://www.w3.org/1999/xlink" 
	 viewBox="0 0 512 512"  xml:space="preserve">
<style type="text/css">
	:root { color-scheme: dark light; }
</style>
<g>
	<path fill="currentColor" d="M388.808,27.602c0.118-0.031,0.234,0,0.352-0.016C389.152,27.547,388.808,27.602,388.808,27.602z"/>
	<path fill="currentColor" d="M480.441,35.137c-1.308-0.969-2.958-1.242-4.538-0.902c0.009,0.058-0.941,0.391-5.856,1.629
		c-26.557,6.719-92.584,17.82-175.987-8.715c-101.126-32.18-186.157,4.961-186.157,4.961V0H29.3v221.09h78.603v-40.121h186.196
		c0,0-176.528,138.426-176.528,331.031h208.651c0,0-4.014-208.66,156.478-375.176v-89.82v-7.348
		C482.7,37.871,481.867,36.203,480.441,35.137z"/>
</g>
</svg>