<?xml version="1.0" encoding="utf-8"?>

<!DOCTYPE svg PUBLIC "-//W3C//DTD SVG 1.1//EN" "http://www.w3.org/Graphics/SVG/1.1/DTD/svg11.dtd">
<!-- Uploaded to: SVG Repo, www.svgrepo.com, Generator: SVG Repo Mixer Tools -->
<svg version="1.1" id="_x32_" xmlns="http://www.w3.org/2000/svg" xmlns:xlink="http://www.w3.org/1999/xlink" 
	 viewBox="0 0 512 512"  xml:space="preserve">
<style type="text/css">
	:root { color-scheme: dark light; }
</style>
<g>
	<rect x="204.833" y="198.948" fill="currentColor" width="102.33" height="21.923"/>
	<polygon fill="currentColor" points="266.962,299.445 266.962,261.084 307.163,261.084 307.163,239.145 204.833,239.145 204.833,261.084 
		245.03,261.084 245.03,299.445 	"/>
	<path fill="currentColor" d="M198.754,324.03h-14.031l-0.55,0.558v36.306l0.55,0.558h5.391l0.554-0.558v-13.259l0.328-0.324h7.758
		c7.265,0,12.325-4.684,12.325-11.665C211.078,328.705,206.018,324.03,198.754,324.03z M198.369,341.422h-7.373l-0.328-0.332
		v-10.897l0.328-0.331h7.373c3.851,0,6.217,2.37,6.217,5.784C204.586,339.117,202.22,341.422,198.369,341.422z"/>
	<path fill="currentColor" d="M235.659,323.422c-6.44,0-11.281,3.091-13.207,9.028c-0.772,2.314-0.991,4.4-0.991,10.29
		c0,5.88,0.219,7.976,0.991,10.297c1.926,5.93,6.767,9.012,13.207,9.012c6.492,0,11.333-3.082,13.259-9.012
		c0.768-2.321,0.991-4.417,0.991-10.297c0-5.89-0.223-7.977-0.991-10.29C246.992,326.513,242.151,323.422,235.659,323.422z
		 M242.644,351.324c-1.043,3.033-3.244,4.894-6.985,4.894c-3.689,0-5.89-1.861-6.933-4.894c-0.445-1.384-0.659-3.309-0.659-8.583
		c0-5.34,0.214-7.2,0.659-8.584c1.043-3.025,3.244-4.894,6.933-4.894c3.741,0,5.942,1.869,6.985,4.894
		c0.446,1.384,0.66,3.244,0.66,8.584C243.303,348.015,243.089,349.94,242.644,351.324z"/>
	<path fill="currentColor" d="M277.235,339.602l-1.981-0.268c-5.061-0.72-6.876-2.484-6.876-5.072c0-2.912,2.091-4.999,5.889-4.999
		c3.135,0,5.938,0.93,8.964,2.921l0.772-0.17l2.642-4.077l-0.114-0.76c-2.964-2.258-7.426-3.754-12.098-3.754
		c-7.705,0-12.66,4.515-12.66,11.285c0,6.221,4.073,9.684,11.285,10.67l1.978,0.284c5.169,0.72,6.819,2.468,6.819,5.169
		c0,3.131-2.58,5.388-7.042,5.388c-4.178,0-7.758-2.03-10.181-3.956l-0.764,0.048l-3.41,3.956l0.105,0.825
		c2.916,2.767,8.251,4.958,13.757,4.958c9.298,0,14.084-4.958,14.084-11.608C288.403,344.011,284.447,340.589,277.235,339.602z"/>
	<polygon fill="currentColor" points="297.961,324.03 297.411,324.588 297.411,329.32 297.961,329.862 307.753,329.862 308.084,330.194 
		308.084,360.894 308.636,361.452 314.031,361.452 314.581,360.894 314.581,330.194 314.909,329.862 324.701,329.862 
		325.255,329.32 325.255,324.588 324.701,324.03 	"/>
	<path fill="currentColor" d="M452.157,15.338C442.725,5.889,429.53-0.008,415.131,0H96.869C82.461-0.008,69.264,5.889,59.843,15.338
		c-9.449,9.424-15.346,22.627-15.338,37.034v320.366c-0.008,14.399,5.889,27.602,15.338,37.018
		c9.42,9.457,22.618,15.346,37.026,15.346h318.262c14.4,0,27.594-5.89,37.026-15.346c9.449-9.416,15.346-22.619,15.338-37.018
		V52.372C467.503,37.964,461.606,24.762,452.157,15.338z M433.98,372.737c0,5.258-2.071,9.87-5.517,13.331
		c-3.463,3.439-8.074,5.518-13.332,5.525H96.869c-5.258-0.007-9.869-2.086-13.332-5.525c-3.442-3.462-5.517-8.073-5.53-13.331
		V52.372c0.013-5.258,2.088-9.877,5.53-13.339c3.463-3.439,8.074-5.525,13.332-5.525h318.262c5.258,0,9.869,2.086,13.332,5.525
		c3.446,3.462,5.517,8.082,5.517,13.339V372.737z"/>
	<rect x="115.702" y="99.834" fill="currentColor" width="117.259" height="39.089"/>
	<rect x="279.035" y="99.834" fill="currentColor" width="117.263" height="39.089"/>
	<polygon fill="currentColor" points="293.69,478.493 218.307,478.493 218.307,426.144 184.803,426.144 184.803,512 327.193,512 
		327.193,426.144 293.69,426.144 	"/>
</g>
</svg>