<?xml version="1.0" encoding="utf-8"?>

<!DOCTYPE svg PUBLIC "-//W3C//DTD SVG 1.1//EN" "http://www.w3.org/Graphics/SVG/1.1/DTD/svg11.dtd">
<!-- Uploaded to: SVG Repo, www.svgrepo.com, Generator: SVG Repo Mixer Tools -->
<svg height="800px" width="800px" version="1.1" id="_x32_" xmlns="http://www.w3.org/2000/svg" xmlns:xlink="http://www.w3.org/1999/xlink" 
	 viewBox="0 0 512 512"  xml:space="preserve">
<style type="text/css">
	:root { color-scheme: dark light; }
</style>
<g>
	<path fill="currentColor" d="M384.078,105.365h-256.16c-13.357,8.91-4.455,29.688,14.836,34.695h226.485
		C388.533,135.053,397.434,114.276,384.078,105.365z"/>
	<path fill="currentColor" d="M285.78,20.534C281.199,8.539,269.609,0,256,0c-13.609,0-25.199,8.539-29.785,20.534
		c-67.118,4.855-117.592,26.148-117.592,56.568c0,19.362,26.977,17.204,19.294,22.329h256.16
		c-7.679-5.124,19.299-2.966,19.299-22.329C403.377,46.681,352.894,25.389,285.78,20.534z"/>
	<path fill="currentColor" d="M198.546,159.961c-14.713,14.726-23.795,34.998-23.804,57.454c0.009,22.464,9.091,42.728,23.804,57.445
		c14.722,14.718,34.994,23.805,57.454,23.805c22.451,0,42.732-9.087,57.454-23.805c14.709-14.717,23.792-34.981,23.796-57.445
		c-0.004-22.456-9.086-42.728-23.796-57.454c-5.504-5.504-11.784-10.216-18.662-13.959h-77.583
		C210.326,149.745,204.046,154.457,198.546,159.961z M285.679,262.671h-24.487v20.779h-10.389v-20.779h-24.487v-10.384h59.363
		V262.671z M285.679,241.894h-59.363v-10.385h59.363V241.894z M319.438,185.51v28.196H192.553V185.51H319.438z"/>
	<path fill="currentColor" d="M322.401,340.735H189.594c-3.709,0-7.013,1.484-9.449,3.911c-2.432,2.444-3.911,5.74-3.915,9.449v67.738
		c0.004,3.7,1.484,7.013,3.915,9.44c2.436,2.428,5.74,3.92,9.449,3.92h132.807c3.709,0,7.009-1.492,9.454-3.92
		c2.423-2.427,3.911-5.74,3.911-9.44v-67.738c0-3.709-1.488-7.004-3.911-9.449C329.41,342.219,326.11,340.735,322.401,340.735z
		 M211.704,401.349c-4.863,0-8.813-3.944-8.813-8.825c0-4.864,3.95-8.808,8.813-8.808c4.868,0,8.813,3.945,8.813,8.808
		C220.517,397.404,216.572,401.349,211.704,401.349z"/>
	<path fill="currentColor" d="M384.078,296.81c0-14.844-14.84-28.196-14.84-28.196V146.002h-54.634
		c20.618,16.952,33.776,42.636,33.776,71.413c0,51.031-41.358,92.376-92.38,92.376c-51.026,0-92.38-41.345-92.385-92.376
		c0.004-28.777,13.159-54.461,33.78-71.413h-54.642v122.612c0,0-14.836,13.352-14.836,28.196c0,14.836,0,157.306,0,157.306
		s-11.873,14.852-11.873,28.204s0,29.68,0,29.68h279.91c0,0,0-16.328,0-29.68s-11.877-28.204-11.877-28.204
		S384.078,311.646,384.078,296.81z M346.897,421.832c0,6.743-2.748,12.905-7.178,17.313c-4.417,4.434-10.57,7.182-17.318,7.174
		H189.594c-6.747,0.009-12.905-2.74-17.322-7.174c-4.421-4.408-7.178-10.57-7.174-17.313v-67.738
		c-0.004-6.743,2.752-12.896,7.174-17.322c4.417-4.426,10.574-7.174,17.322-7.174h132.807c6.748,0,12.901,2.748,17.318,7.174
		c4.43,4.425,7.178,10.579,7.178,17.322V421.832z"/>
</g>
</svg>