<?xml version="1.0" encoding="utf-8"?>

<!DOCTYPE svg PUBLIC "-//W3C//DTD SVG 1.1//EN" "http://www.w3.org/Graphics/SVG/1.1/DTD/svg11.dtd">
<!-- Uploaded to: SVG Repo, www.svgrepo.com, Generator: SVG Repo Mixer Tools -->
<svg version="1.1" id="_x32_" xmlns="http://www.w3.org/2000/svg" xmlns:xlink="http://www.w3.org/1999/xlink" 
	 viewBox="0 0 512 512"  xml:space="preserve">
<style type="text/css">
	:root { color-scheme: dark light; }
</style>
<g>
	<rect x="197.745" y="438.062" fill="currentColor" width="116.51" height="73.938"/>
	<path fill="currentColor" d="M194.329,335.044h-7.888c-0.236,0-0.351,0.111-0.351,0.342v11.66c0,0.231,0.115,0.359,0.351,0.359h7.888
		c4.126,0,6.656-2.474,6.656-6.18C200.985,337.57,198.455,335.044,194.329,335.044z"/>
	<path fill="currentColor" d="M426.27,0H85.729C64.684,0,47.622,17.061,47.622,38.103v342.808c0,21.033,17.061,38.104,38.107,38.104H426.27
		c21.046,0,38.108-17.07,38.108-38.104V38.103C464.378,17.061,447.316,0,426.27,0z M105.877,88.893H231.35v41.836H105.877V88.893z
		 M201.251,261.44v-23.473h109.498v23.473h-43.018v41.039h-23.464V261.44H201.251z M201.251,218.424v-23.465h109.498v23.465H201.251
		z M194.745,353.698h-8.304c-0.236,0-0.351,0.12-0.351,0.35v14.194c0,0.351-0.236,0.591-0.591,0.591h-5.766
		c-0.356,0-0.595-0.24-0.595-0.591v-38.856c0-0.343,0.239-0.591,0.595-0.591h15.011c7.773,0,13.192,5.008,13.192,12.43
		C207.937,348.698,202.518,353.698,194.745,353.698z M248.424,359.827c-2.063,6.361-7.242,9.657-14.189,9.657
		c-6.888,0-12.071-3.296-14.13-9.657c-0.826-2.474-1.062-4.708-1.062-11.008c0-6.301,0.236-8.544,1.062-11.009
		c2.059-6.361,7.242-9.657,14.13-9.657c6.946,0,12.126,3.296,14.189,9.657c0.822,2.466,1.057,4.708,1.057,11.009
		C249.481,355.118,249.246,357.353,248.424,359.827z M275.544,369.484c-5.886,0-11.592-2.363-14.716-5.299
		c-0.235-0.248-0.351-0.591-0.115-0.891l3.646-4.237c0.24-0.299,0.591-0.299,0.822-0.068c2.589,2.072,6.42,4.246,10.894,4.246
		c4.772,0,7.538-2.414,7.538-5.77c0-2.885-1.768-4.76-7.299-5.53l-2.122-0.291c-7.713-1.062-12.066-4.768-12.066-11.42
		c0-7.242,5.295-12.071,13.538-12.071c5.004,0,9.772,1.593,12.957,3.998c0.291,0.248,0.346,0.47,0.11,0.83l-2.824,4.358
		c-0.232,0.282-0.527,0.35-0.822,0.18c-3.24-2.132-6.24-3.124-9.596-3.124c-4.062,0-6.3,2.234-6.3,5.35
		c0,2.774,1.942,4.658,7.362,5.419l2.114,0.3c7.713,1.061,11.955,4.708,11.955,11.599
		C290.619,364.184,285.495,369.484,275.544,369.484z M329.984,334.454c0,0.343-0.236,0.591-0.586,0.591H318.92
		c-0.239,0-0.355,0.111-0.355,0.342v32.856c0,0.351-0.236,0.591-0.587,0.591h-5.774c-0.352,0-0.586-0.24-0.586-0.591v-32.856
		c0-0.23-0.116-0.342-0.355-0.342h-10.479c-0.351,0-0.586-0.248-0.586-0.591v-5.068c0-0.343,0.235-0.591,0.586-0.591h28.614
		c0.351,0,0.586,0.248,0.586,0.591V334.454z M406.123,130.729H280.646V88.893h125.477V130.729z"/>
	<path fill="currentColor" d="M234.235,334.394c-3.946,0-6.301,2.003-7.418,5.238c-0.471,1.473-0.711,3.467-0.711,9.186
		c0,5.65,0.24,7.712,0.711,9.176c1.116,3.245,3.471,5.239,7.418,5.239c4.006,0,6.36-1.994,7.473-5.239
		c0.475-1.464,0.71-3.527,0.71-9.176c0-5.719-0.235-7.713-0.71-9.186C240.594,336.397,238.241,334.394,234.235,334.394z"/>
</g>
</svg>