<?xml version="1.0" encoding="utf-8"?>

<!DOCTYPE svg PUBLIC "-//W3C//DTD SVG 1.1//EN" "http://www.w3.org/Graphics/SVG/1.1/DTD/svg11.dtd">
<!-- Uploaded to: SVG Repo, www.svgrepo.com, Generator: SVG Repo Mixer Tools -->
<svg height="800px" width="800px" version="1.1" id="_x32_" xmlns="http://www.w3.org/2000/svg" xmlns:xlink="http://www.w3.org/1999/xlink" 
	 viewBox="0 0 512 512"  xml:space="preserve">
<style type="text/css">
	:root { color-scheme: dark light; }
</style>
<g>
	<path fill="currentColor" d="M116.57,407.088c-3.528,0-31.93,31.926-31.93,57.868c0,17.637,14.296,31.926,31.93,31.926
		s31.928-14.289,31.928-31.926C148.499,436.018,120.098,407.088,116.57,407.088z M116.57,486.089
		c-7.049,0-12.767-5.714-12.767-12.764c0-10.382,11.357-23.139,12.767-23.139c1.412,0,12.762,11.57,12.762,23.139
		C129.333,480.375,123.619,486.089,116.57,486.089z"/>
	<path fill="currentColor" d="M209.528,407.088c-3.532,0-31.932,31.926-31.932,57.868c0,17.637,14.295,31.926,31.932,31.926
		c17.63,0,31.926-14.289,31.926-31.926C241.454,436.018,213.052,407.088,209.528,407.088z M209.528,486.089
		c-7.056,0-12.77-5.714-12.77-12.764c0-10.382,11.354-23.139,12.77-23.139c1.409,0,12.764,11.57,12.764,23.139
		C222.292,480.375,216.577,486.089,209.528,486.089z"/>
	<path fill="currentColor" d="M302.479,407.088c-3.528,0-31.929,31.926-31.929,57.868c0,17.637,14.296,31.926,31.929,31.926
		c17.633,0,31.929-14.289,31.929-31.926C334.408,436.018,306.007,407.088,302.479,407.088z M302.479,486.089
		c-7.049,0-12.767-5.714-12.767-12.764c0-10.382,11.355-23.139,12.767-23.139c1.409,0,12.763,11.57,12.763,23.139
		C315.242,480.375,309.528,486.089,302.479,486.089z"/>
	<path fill="currentColor" d="M395.434,407.088c-3.528,0-31.929,31.926-31.929,57.868c0,17.637,14.295,31.926,31.929,31.926
		c17.633,0,31.929-14.289,31.929-31.926C427.363,436.018,398.962,407.088,395.434,407.088z M395.434,486.089
		c-7.049,0-12.766-5.714-12.766-12.764c0-10.382,11.357-23.139,12.766-23.139c1.412,0,12.763,11.57,12.763,23.139
		C408.197,480.375,402.482,486.089,395.434,486.089z"/>
	<path fill="currentColor" d="M485.764,171.264c-3.765,0-24.647,0-37.28,0v-12.262v-0.212v-23.746c0.004-7.261-1.48-14.254-4.16-20.589
		c-4.026-9.514-10.715-17.56-19.148-23.259c-8.43-5.707-18.675-9.048-29.584-9.041H279.238V63.946h7.098
		c13.488,0,24.418-10.934,24.418-24.424c0-13.477-10.93-24.403-24.418-24.403h-60.672c-13.487,0-24.417,10.926-24.417,24.403
		c0,13.491,10.93,24.424,24.417,24.424h7.098v18.209H116.408c-7.268,0-14.257,1.476-20.593,4.153
		c-9.51,4.026-17.559,10.722-23.262,19.155c-5.7,8.427-9.044,18.675-9.037,29.581v23.746v0.212v12.262c-12.633,0-33.515,0-37.28,0
		C11.746,171.264,0,183.01,0,197.496c0,14.494,11.746,26.233,26.236,26.233c12.862,0,30.432,7.784,37.28,23.294v50.148
		c-0.004,12.855,2.61,25.159,7.335,36.325c7.094,16.761,18.908,30.986,33.793,41.044c14.879,10.058,32.897,15.949,52.179,15.942
		h198.351c12.852,0.007,25.155-2.606,36.326-7.338c16.761-7.092,30.986-18.901,41.044-33.79
		c10.058-14.875,15.948-32.9,15.941-52.182v-50.148c6.848-15.51,24.418-23.294,37.28-23.294c14.49,0,26.236-11.74,26.236-26.233
		C512,183.01,500.254,171.264,485.764,171.264z M414.494,297.171c-0.007,8.257-1.66,15.991-4.655,23.09
		c-4.482,10.609-12.035,19.706-21.514,26.105c-9.504,6.407-20.779,10.115-33.151,10.115H156.823c-8.257,0-15.991-1.652-23.079-4.648
		h-0.004c-10.616-4.485-19.72-12.036-26.116-21.514c-6.402-9.493-10.107-20.78-10.118-33.154V183.737h316.987V297.171z
		 M414.494,158.79H97.506v-23.746c0.004-2.684,0.523-5.079,1.48-7.36c1.409-3.348,3.843-6.287,6.866-8.328
		c3.069-2.048,6.54-3.2,10.567-3.221h279.174c2.673,0.014,5.075,0.53,7.353,1.484c3.355,1.412,6.3,3.856,8.334,6.88l-0.007-0.014
		c2.055,3.072,3.206,6.548,3.221,10.566V158.79z"/>
</g>
</svg>