<?xml version="1.0" encoding="utf-8"?>

<!DOCTYPE svg PUBLIC "-//W3C//DTD SVG 1.1//EN" "http://www.w3.org/Graphics/SVG/1.1/DTD/svg11.dtd">
<!-- Uploaded to: SVG Repo, www.svgrepo.com, Generator: SVG Repo Mixer Tools -->
<svg height="800px" width="800px" version="1.1" id="_x32_" xmlns="http://www.w3.org/2000/svg" xmlns:xlink="http://www.w3.org/1999/xlink" 
	 viewBox="0 0 512 512"  xml:space="preserve">
<style type="text/css">
	:root { color-scheme: dark light; }
</style>
<g>
	<path fill="currentColor" d="M255.996,85.142C114.612,85.142,0,199.753,0,341.146c0,20.041,2.307,39.537,6.664,58.25
		c2.186,9.37,1.14,3.863,1.14,3.863c4.102,13.99,16.926,23.598,31.504,23.598h433.291c14.612,0,27.47-9.659,31.538-23.691
		c0,0-0.689,4.561,1.549-5.362c4.127-18.228,6.314-37.188,6.314-56.658C512,199.753,397.38,85.142,255.996,85.142z M353.332,143.197
		c4.05-7.012,13.037-9.421,20.05-5.37c7.029,4.059,9.429,13.029,5.37,20.058c-4.059,7.012-13.021,9.43-20.041,5.362
		C351.681,159.204,349.281,150.226,353.332,143.197z M255.996,106.374c8.11,0,14.675,6.57,14.675,14.68
		c0,8.093-6.565,14.671-14.675,14.671c-8.11,0-14.676-6.578-14.676-14.671C241.32,112.944,247.886,106.374,255.996,106.374z
		 M35.903,355.817c-8.097,0-14.676-6.561-14.676-14.671c0-8.11,6.578-14.689,14.676-14.689c8.106,0,14.684,6.578,14.684,14.689
		C50.588,349.256,44.009,355.817,35.903,355.817z M78.104,238.44c-4.055,7.011-13.029,9.428-20.058,5.37
		c-7.012-4.059-9.424-13.029-5.37-20.05c4.056-7.021,13.028-9.438,20.058-5.378C79.747,222.432,82.159,231.428,78.104,238.44z
		 M153.285,163.246c-7.016,4.068-15.99,1.651-20.045-5.37c-4.055-7.02-1.655-15.99,5.37-20.049
		c7.016-4.051,15.994-1.642,20.058,5.37C162.71,150.217,160.31,159.204,153.285,163.246z M296.112,346.728
		c-2.723,19.743-19.624,34.959-40.116,34.959c-22.39,0-40.542-18.152-40.542-40.541c0-22.398,18.152-40.55,40.542-40.55
		c4.604,0,9.02,0.808,13.148,2.221c15.93,5.463,27.393,20.543,27.393,38.328C296.537,343.044,296.367,344.891,296.112,346.728z
		 M418.408,201.507L307.302,332.066c-3.26-18.407-16.254-33.971-34.397-40.201c-2.996-1.029-6.042-1.754-9.106-2.221
		l140.422-103.396c5.055-3.736,11.497-3.65,15.062,0.204C422.876,190.265,422.501,196.707,418.408,201.507z M453.945,243.81
		c-7.03,4.059-16.007,1.659-20.058-5.37c-4.05-7.012-1.643-16.008,5.37-20.058c7.03-4.059,16.008-1.643,20.058,5.378
		C463.365,230.781,460.958,239.751,453.945,243.81z M476.088,355.817c-8.11,0-14.68-6.561-14.68-14.671
		c0-8.11,6.57-14.689,14.68-14.689c8.11,0,14.68,6.578,14.68,14.689C490.768,349.256,484.198,355.817,476.088,355.817z"/>
</g>
</svg>