<?xml version="1.0" encoding="utf-8"?>

<!DOCTYPE svg PUBLIC "-//W3C//DTD SVG 1.1//EN" "http://www.w3.org/Graphics/SVG/1.1/DTD/svg11.dtd">
<!-- Uploaded to: SVG Repo, www.svgrepo.com, Generator: SVG Repo Mixer Tools -->
<svg height="800px" width="800px" version="1.1" id="_x32_" xmlns="http://www.w3.org/2000/svg" xmlns:xlink="http://www.w3.org/1999/xlink" 
	 viewBox="0 0 512 512"  xml:space="preserve">
<style type="text/css">
	:root { color-scheme: dark light; }
</style>
<g>
	<path fill="currentColor" d="M256.004,70.883C114.615,70.883,0,185.499,0,326.888c0,41.05,9.686,79.834,26.858,114.229h458.285
		C502.323,406.722,512,367.937,512,326.888C512,185.499,397.385,70.883,256.004,70.883z M256.004,100.057
		c13.983,0,25.347,11.347,25.347,25.347s-11.364,25.347-25.347,25.347c-14,0-25.347-11.347-25.347-25.347
		S242.005,100.057,256.004,100.057z M54.521,352.235c-14,0-25.347-11.347-25.347-25.347c0-14,11.347-25.347,25.347-25.347
		c13.983,0,25.348,11.347,25.348,25.347C79.868,340.887,68.504,352.235,54.521,352.235z M131.452,202.335
		c-9.895,9.904-25.942,9.904-35.847,0c-9.887-9.896-9.887-25.943,0-35.838c9.904-9.896,25.952-9.896,35.847,0
		C141.347,176.392,141.347,192.439,131.452,202.335z M324.911,173.815l-30.081,146.24c4.919,7.386,7.788,16.25,7.788,25.792
		c0,25.742-20.873,46.616-46.614,46.616c-25.75,0-46.624-20.874-46.624-46.616c0-21.486,14.562-39.531,34.344-44.928l73.606-129.941
		c1-1.754,3.122-2.526,5.012-1.821C324.223,169.87,325.314,171.851,324.911,173.815z M416.395,202.335
		c-9.896,9.904-25.951,9.904-35.847,0c-9.887-9.896-9.887-25.943,0-35.838c9.896-9.896,25.951-9.896,35.847,0
		C426.282,176.392,426.282,192.439,416.395,202.335z M457.488,352.235c-13.999,0-25.347-11.347-25.347-25.347
		c0-14,11.348-25.347,25.347-25.347c13.982,0,25.347,11.347,25.347,25.347C482.834,340.887,471.47,352.235,457.488,352.235z"/>
	<path fill="currentColor" d="M256.004,327.677c-10.038,0-18.179,8.133-18.179,18.17c0,10.038,8.141,18.172,18.179,18.172
		c10.038,0,18.171-8.133,18.171-18.172C274.176,335.81,266.042,327.677,256.004,327.677z"/>
</g>
</svg>