<?xml version="1.0" encoding="utf-8"?>

<!DOCTYPE svg PUBLIC "-//W3C//DTD SVG 1.1//EN" "http://www.w3.org/Graphics/SVG/1.1/DTD/svg11.dtd">
<!-- Uploaded to: SVG Repo, www.svgrepo.com, Generator: SVG Repo Mixer Tools -->
<svg height="800px" width="800px" version="1.1" id="_x32_" xmlns="http://www.w3.org/2000/svg" xmlns:xlink="http://www.w3.org/1999/xlink" 
	 viewBox="0 0 512 512"  xml:space="preserve">
<style type="text/css">
	:root { color-scheme: dark light; }
</style>
<g>
	<path fill="currentColor" d="M63.386,120.143c0,33.391,13.64,52.803,29.216,79.67c15.992,27.578,22.407,47.71,16.065,69.935
		c-4.394,15.418-9.136,27.707-9.136,44.952c0,44.629,36.297,77.633,80.809,80.802c15.402,1.108,35.356,1.035,51.029-5.449V35.768
		c-16.283-6.718-37.142-16.21-74.496-17.407C95.408,16.372,63.386,66.709,63.386,120.143z M169.107,106.415h22.396V170.4h-22.396
		V106.415z M169.107,245.784h22.396v63.993h-22.396V245.784z"/>
	<path fill="currentColor" d="M448.614,120.143c0-53.434-32.013-103.771-93.479-101.782c-44.447,1.431-65.554,14.594-83.36,20.859V0h-29.773
		v512h29.773V385.34c16.323,11.149,41.391,11.489,59.886,10.163c44.52-3.169,80.81-36.173,80.81-80.802
		c0-17.245-4.742-29.534-9.136-44.952c-6.342-22.225,0.08-42.358,16.065-69.935C434.974,172.946,448.614,153.534,448.614,120.143z
		 M340.348,309.778h-22.392v-63.993h22.392V309.778z M340.348,170.4h-22.392v-63.985h22.392V170.4z"/>
</g>
</svg>