<?xml version="1.0" encoding="utf-8"?>

<!DOCTYPE svg PUBLIC "-//W3C//DTD SVG 1.1//EN" "http://www.w3.org/Graphics/SVG/1.1/DTD/svg11.dtd">
<!-- Uploaded to: SVG Repo, www.svgrepo.com, Generator: SVG Repo Mixer Tools -->
<svg height="800px" width="800px" version="1.1" id="_x32_" xmlns="http://www.w3.org/2000/svg" xmlns:xlink="http://www.w3.org/1999/xlink" 
	 viewBox="0 0 512 512"  xml:space="preserve">
<style type="text/css">
	:root { color-scheme: dark light; }
</style>
<g>
	<path fill="currentColor" d="M151.9,341.355c-28.89,0-52.32,23.42-52.32,52.32c0,28.89,23.43,52.32,52.32,52.32
		c28.9,0,52.32-23.43,52.32-52.32C204.22,364.775,180.8,341.355,151.9,341.355z M151.9,413.935c-11.19,0-20.27-9.07-20.27-20.26
		c0-11.201,9.08-20.27,20.27-20.27c11.2,0,20.27,9.07,20.27,20.27C172.17,404.865,163.1,413.935,151.9,413.935z"/>
	<path fill="currentColor" d="M360.11,341.355c-28.89,0-52.32,23.42-52.32,52.32c0,28.89,23.43,52.32,52.32,52.32
		c28.9,0,52.32-23.43,52.32-52.32C412.43,364.775,389.01,341.355,360.11,341.355z M360.11,413.935c-11.19,0-20.27-9.07-20.27-20.26
		c0-11.201,9.08-20.27,20.27-20.27c11.2,0,20.27,9.07,20.27,20.27C380.38,404.865,371.31,413.935,360.11,413.935z"/>
	<polygon fill="currentColor" points="0,66.005 0,127.765 378.88,127.765 378.88,152.725 26.78,152.725 53.12,332.245 458.88,332.245 
		488.18,132.565 512,132.565 512,66.005 	"/>
</g>
</svg>