<?xml version="1.0" encoding="utf-8"?>

<!DOCTYPE svg PUBLIC "-//W3C//DTD SVG 1.1//EN" "http://www.w3.org/Graphics/SVG/1.1/DTD/svg11.dtd">
<!-- Uploaded to: SVG Repo, www.svgrepo.com, Generator: SVG Repo Mixer Tools -->
<svg height="800px" width="800px" version="1.1" id="_x32_" xmlns="http://www.w3.org/2000/svg" xmlns:xlink="http://www.w3.org/1999/xlink" 
	 viewBox="0 0 512 512"  xml:space="preserve">
<style type="text/css">
	:root { color-scheme: dark light; }
</style>
<g>
	<path fill="currentColor" d="M90.316,65.714c25.515-6.7,55.7-11.925,88.349-15.117c2.906-17.462,6.099-31.195,9.363-41.472
		C152.473,18.887,120,36.136,92.432,59.054C91.71,61.217,91.018,63.45,90.316,65.714z"/>
	<path fill="currentColor" d="M307.264,48.505c-2.203-19.584-4.634-34.296-7.114-44.705C285.81,1.304,271.058,0,256,0
		c-15.057,0-29.81,1.304-44.165,3.8c-2.466,10.409-4.901,25.132-7.099,44.705C238.376,46.372,273.624,46.372,307.264,48.505z"/>
	<path fill="currentColor" d="M421.67,65.714c-0.687-2.264-1.394-4.497-2.081-6.639l-0.021-0.021c-27.567-22.918-60.025-40.168-95.595-49.93
		c3.254,10.277,6.457,24.011,9.357,41.472C365.986,53.79,396.17,59.014,421.67,65.714z"/>
	<path fill="currentColor" d="M9.126,188.048c10.276-3.265,23.994-6.478,41.461-9.368c3.188-32.661,8.428-62.854,15.108-88.34
		c-2.259,0.666-4.482,1.374-6.635,2.081C36.131,120,18.892,152.468,9.126,188.048z"/>
	<path fill="currentColor" d="M175.725,70.352c-33.812,3.133-64.845,8.226-90.72,14.663c-6.448,25.869-11.546,56.912-14.648,90.714
		c26.77-3.597,60.086-6.487,97.096-8.266C169.227,130.458,172.127,97.152,175.725,70.352z"/>
	<path fill="currentColor" d="M314.878,166.291c-1.208-37.449-3.183-71.09-5.614-97.96c-34.918-2.102-71.616-2.102-106.529,0
		c-2.43,26.87-4.406,60.53-5.614,97.96C235.588,165.088,276.412,165.088,314.878,166.291z"/>
	<path fill="currentColor" d="M344.547,167.463c37.01,1.779,70.322,4.669,97.096,8.266c-3.108-33.802-8.2-64.845-14.647-90.714
		c-25.874-6.436-56.912-11.55-90.72-14.663C339.873,97.131,342.768,130.458,344.547,167.463z"/>
	<path fill="currentColor" d="M502.86,188.007c-9.761-35.55-27.006-68.007-49.93-95.585c-2.158-0.707-4.366-1.394-6.624-2.081
		c6.68,25.485,11.904,55.67,15.107,88.34C478.88,181.59,492.588,184.783,502.86,188.007z"/>
	<path fill="currentColor" d="M48.496,204.751c-19.574,2.184-34.292,4.639-44.701,7.114C1.309,226.195,0,240.949,0,256.005
		c0,15.046,1.309,29.8,3.794,44.16c10.409,2.466,25.128,4.892,44.701,7.094C46.368,273.618,46.368,238.402,48.496,204.751z"/>
	<path fill="currentColor" d="M166.287,197.132c-37.461,1.213-71.086,3.193-97.97,5.619c-2.087,34.924-2.082,71.584,0,106.508
		c26.874,2.426,60.509,4.406,97.97,5.629C165.084,276.397,165.079,235.612,166.287,197.132z"/>
	<path fill="currentColor" d="M196.33,196.344c-0.824,38.956-0.824,80.366,0,119.332c38.965,0.818,80.377,0.799,119.342,0
		c0.814-38.966,0.814-80.376,0-119.332C276.706,195.506,235.295,195.506,196.33,196.344z"/>
	<path fill="currentColor" d="M345.714,197.132c1.197,38.46,1.202,79.285,0,117.756c37.454-1.223,71.084-3.174,97.97-5.629
		c2.081-34.924,2.081-71.605,0-106.508C416.799,200.295,383.169,198.345,345.714,197.132z"/>
	<path fill="currentColor" d="M508.206,211.866c-10.398-2.475-25.126-4.931-44.71-7.114c2.128,33.651,2.128,68.847,0,102.508
		c19.584-2.203,34.312-4.628,44.71-7.094v-0.02c2.486-14.34,3.794-29.094,3.794-44.14C512,240.949,510.692,226.195,508.206,211.866z
		"/>
	<path fill="currentColor" d="M9.126,323.973c9.766,35.57,27.021,68.048,49.96,95.625c2.158,0.708,4.355,1.405,6.609,2.082
		c-6.68-25.506-11.92-55.71-15.108-88.34C33.12,330.419,19.402,327.227,9.126,323.973z"/>
	<path fill="currentColor" d="M167.453,344.547c-37.01-1.778-70.322-4.669-97.096-8.266c3.102,33.811,8.201,64.845,14.648,90.724
		c25.874,6.427,56.907,11.53,90.72,14.633C172.127,414.869,169.227,381.552,167.453,344.547z"/>
	<path fill="currentColor" d="M197.122,345.719c1.208,37.45,3.184,71.1,5.614,97.98c34.924,2.082,71.61,2.082,106.529,0
		c2.431-26.9,4.406-60.53,5.614-97.98C276.412,346.922,235.588,346.912,197.122,345.719z"/>
	<path fill="currentColor" d="M336.276,441.638c33.807-3.092,64.845-8.175,90.72-14.633c6.447-25.878,11.54-56.922,14.647-90.724
		c-26.774,3.586-60.085,6.508-97.096,8.266C342.768,381.552,339.873,414.889,336.276,441.638z"/>
	<path fill="currentColor" d="M446.306,421.68c2.254-0.677,4.441-1.374,6.594-2.082c22.939-27.577,40.199-60.045,49.96-95.625
		c-10.272,3.254-23.98,6.446-41.447,9.368C458.225,365.99,452.986,396.174,446.306,421.68z"/>
	<path fill="currentColor" d="M90.33,446.306c0.687,2.263,1.395,4.466,2.087,6.618c27.566,22.928,60.04,40.199,95.6,49.95
		c-3.254-10.277-6.448-24-9.348-41.472C146.016,458.22,115.831,452.995,90.33,446.306z"/>
	<path fill="currentColor" d="M204.737,463.506c2.198,19.563,4.633,34.296,7.099,44.695c14.354,2.496,29.108,3.8,44.165,3.8
		c15.057,0,29.81-1.304,44.164-3.8c2.466-10.398,4.896-25.111,7.1-44.695C273.624,465.637,238.376,465.647,204.737,463.506z"/>
	<path fill="currentColor" d="M323.973,502.875c35.57-9.752,68.043-27.031,95.616-49.961c0.702-2.162,1.394-4.364,2.081-6.608
		c-25.5,6.689-55.684,11.913-88.34,15.096C330.43,478.875,327.227,492.588,323.973,502.875z"/>
</g>
</svg>