<?xml version="1.0" encoding="utf-8"?>

<!DOCTYPE svg PUBLIC "-//W3C//DTD SVG 1.1//EN" "http://www.w3.org/Graphics/SVG/1.1/DTD/svg11.dtd">
<!-- Uploaded to: SVG Repo, www.svgrepo.com, Generator: SVG Repo Mixer Tools -->
<svg height="800px" width="800px" version="1.1" id="_x32_" xmlns="http://www.w3.org/2000/svg" xmlns:xlink="http://www.w3.org/1999/xlink" 
	 viewBox="0 0 512 512"  xml:space="preserve">
<style type="text/css">
	:root { color-scheme: dark light; }
</style>
<g>
	<path fill="currentColor" d="M484.864,413.485L512,387.421L185.63,47.677L158.495,73.74l3.396,3.534L70.319,200.71l26.399,16.03
		l-58.861,77.07l26.7,16.214L0,398.401l107.405,11.801l59.13-103.678l-26.466-16.131l48.008-80.05l-26.516-16.165l44.1-71.341
		l17.63,18.359l-35.381,117.321l27.42,8.434l-28.2,89.139l27.546,8.459l-27.738,88.645l97.22,11.13l18.551-130.044l-27.228-8.408
		l17.99-89.164l-27.404-8.46l8.095-34.104L484.864,413.485z M137.121,200.015l26.726,16.307l-47.999,80.034l26.784,16.332
		l-44.85,78.636l-65.437-7.178l57.89-79.248l-26.349-15.996l58.862-77.07l-26.634-16.164l78.217-105.445l18.66,19.43
		L137.121,200.015z M272.944,248.91l-17.991,89.155l28.091,8.677l-13.986,98.034l-58.82-6.734l26.659-85.202l-27.497-8.434
		l28.191-89.13l-27.646-8.51l27.429-90.914l22.19,23.1l-14.552,61.333L272.944,248.91z"/>
</g>
</svg>