<?xml version="1.0" encoding="utf-8"?>

<!DOCTYPE svg PUBLIC "-//W3C//DTD SVG 1.1//EN" "http://www.w3.org/Graphics/SVG/1.1/DTD/svg11.dtd">
<!-- Uploaded to: SVG Repo, www.svgrepo.com, Generator: SVG Repo Mixer Tools -->
<svg height="800px" width="800px" version="1.1" id="_x32_" xmlns="http://www.w3.org/2000/svg" xmlns:xlink="http://www.w3.org/1999/xlink" 
	 viewBox="0 0 512 512"  xml:space="preserve">
<style type="text/css">
	:root { color-scheme: dark light; }
</style>
<g>
	<path fill="currentColor" d="M443.724,166.599c27.038-2.293,47.087-26.07,44.786-53.125c-2.292-27.038-26.078-47.087-53.115-44.795
		c-27.038,2.301-47.078,26.088-44.776,53.124C392.91,148.85,416.677,168.9,443.724,166.599z"/>
	<path fill="currentColor" d="M431.752,346.544l30.541-114.485c5.068-19.305-6.466-39.075-25.78-44.144
		c-19.304-5.077-39.075,6.448-44.152,25.771v-0.018L365.052,315.64l-78.755-13.276c-17.218-4.304-34.696,5.786-39.578,22.864
		l-33.317,133.445c-3.82,13.342,3.913,27.28,17.274,31.1c13.37,3.81,27.298-3.923,31.128-17.283l39.392-98.638l61.286,16.155
		C398.863,400.125,421.633,382.927,431.752,346.544z"/>
	<path fill="currentColor" d="M388.177,462.949l-0.121-0.01c-0.018,0-0.028,0-0.047,0L388.177,462.949z"/>
	<path fill="currentColor" d="M498.349,286.311c-10.1-2.999-20.721,2.749-23.722,12.858l-27.876,93.848
		c-2.096,6.606-4.536,11.777-7.146,15.746c-3.987,5.944-8.002,9.373-13.854,12.093c-5.842,2.664-14.031,4.379-25.416,4.37
		c-3.009,0.008-6.215-0.113-9.634-0.355l-54.009-3.363c-10.519-0.661-19.575,7.341-20.227,17.861
		c-0.662,10.518,7.342,19.574,17.86,20.226l53.73,3.345c4.211,0.298,8.31,0.448,12.28,0.456c10.072-0.009,19.5-0.988,28.369-3.289
		c13.268-3.392,25.315-10.127,34.501-19.892c9.251-9.736,15.531-21.885,19.91-35.609l0.074-0.214l28.015-94.362
		C514.206,299.923,508.447,289.302,498.349,286.311z"/>
	<path fill="currentColor" d="M248.974,81.219L0,21.256v15.14v281.228l248.974-59.962V81.219z M225.123,238.87L23.851,287.355V51.536
		l201.272,48.466V238.87z"/>
	<polygon fill="currentColor" points="204.989,115.189 47.991,84.937 47.991,253.953 204.989,223.692 	"/>
</g>
</svg>