<?xml version="1.0" encoding="utf-8"?>

<!DOCTYPE svg PUBLIC "-//W3C//DTD SVG 1.1//EN" "http://www.w3.org/Graphics/SVG/1.1/DTD/svg11.dtd">
<!-- Uploaded to: SVG Repo, www.svgrepo.com, Generator: SVG Repo Mixer Tools -->
<svg height="800px" width="800px" version="1.1" id="_x32_" xmlns="http://www.w3.org/2000/svg" xmlns:xlink="http://www.w3.org/1999/xlink" 
	 viewBox="0 0 512 512"  xml:space="preserve">
<style type="text/css">
	:root { color-scheme: dark light; }
</style>
<g>
	<path fill="currentColor" d="M159.663,264.364c22.911,0,29.235-25.286,29.235-25.286h-58.465
		C130.433,239.078,136.752,264.364,159.663,264.364z"/>
	<path fill="currentColor" d="M307.804,264.364c22.911,0,29.235-25.286,29.235-25.286h-58.465
		C278.574,239.078,284.893,264.364,307.804,264.364z"/>
	<path fill="currentColor" d="M403.555,16.403C366.353,5.282,299.828-5.004,229.497,2.644C101.818,16.523,27.673,79.094,27.673,210.578
		c0,97.857,24.36,193.973,67.312,240.045C134.77,493.279,180.574,512,229.497,512c48.924,0,94.719-18.721,134.512-61.376
		c42.952-46.072,67.312-129.957,67.312-227.804c0-40.776,0-57.072,0-67.266c0-10.202,42.064-21.045,51.98-62.701
		C490.949,60.743,454.96,31.772,403.555,16.403z M379.491,294.019H88.837v-85.625h290.653V294.019z"/>
</g>
</svg>