<?xml version="1.0" encoding="utf-8"?>

<!DOCTYPE svg PUBLIC "-//W3C//DTD SVG 1.1//EN" "http://www.w3.org/Graphics/SVG/1.1/DTD/svg11.dtd">
<!-- Uploaded to: SVG Repo, www.svgrepo.com, Generator: SVG Repo Mixer Tools -->
<svg height="800px" width="800px" version="1.1" id="_x32_" xmlns="http://www.w3.org/2000/svg" xmlns:xlink="http://www.w3.org/1999/xlink" 
	 viewBox="0 0 512 512"  xml:space="preserve">
<style type="text/css">
	:root { color-scheme: dark light; }
</style>
<g>
	<path fill="currentColor" d="M153.123,154.176c4.817,0,10.53-0.861,17-2.562c9.781-2.57,33.124-9.62,38.656-19.472
		c1.239-2.219,1.533-4.46,0.875-6.659c-2.184-7.316-10.691-11.685-22.74-11.685c-6.358,0-13.493,1.26-20.655,3.647
		c-13.198,4.397-26.298,13.976-29.813,21.81c-1.092,2.437-1.246,4.614-0.448,6.47C137.649,149.583,141.955,154.176,153.123,154.176z
		"/>
	<path fill="currentColor" d="M226.919,358.581c2.871,2.212,7.968,4.502,11.532,4.502c0.602,0,1.156-0.063,1.646-0.196
		c2.304-0.63,3.389-1.589,3.221-2.856l-0.7-1.519h-1.253l-0.973,0.098c-2.059,0-6.624-2.283-10.188-5.083
		c-1.191-0.938-2.304-1.415-3.291-1.415c-1.093,0-1.982,0.61-2.318,1.582C224.091,355.185,225.001,357.103,226.919,358.581z"/>
	<path fill="currentColor" d="M341.886,151.613c6.469,1.701,12.19,2.562,17,2.562c11.16,0,15.481-4.593,17.133-8.451
		c0.798-1.856,0.644-4.033-0.448-6.47c-3.528-7.834-16.628-17.42-29.826-21.81c-7.156-2.388-14.298-3.647-20.648-3.647
		c-12.043,0-20.55,4.368-22.741,11.685c-0.665,2.199-0.364,4.44,0.875,6.652C308.754,141.993,332.104,149.036,341.886,151.613z"/>
	<path fill="currentColor" d="M135.682,242.739c4.005,0,12.49-1.737,20.697-3.416c7.17-1.47,14.584-2.99,18.386-3.222
		c0.714-0.385,1.716-0.588,2.976-0.588c10.495,0,32.704,13.177,34.216,14.738l2.472-0.28l0.203-0.966l-0.428-0.63
		c-1.995-2.955-25.268-16.741-36.702-16.741c-1.625,0-3.004,0.28-3.536,0.672c-3.613,0.196-11.251,1.869-19.345,3.641
		c-8.08,1.771-16.426,3.606-20.186,3.606c-0.041,0-0.091,0-0.132,0l-2.227,1.071C132.118,242.024,133.329,242.739,135.682,242.739z"
		/>
	<path fill="currentColor" d="M300.051,250.252c1.513-1.562,23.715-14.731,34.224-14.731c1.26,0,2.261,0.196,3.626,0.756
		c3.144,0.056,10.559,1.575,17.721,3.038c8.206,1.687,16.699,3.424,20.704,3.424c2.346,0,3.557-0.714,3.606-2.107l-2.836-1.036
		c-3.087,0-11.538-1.856-19.709-3.648c-8.094-1.772-15.732-3.445-18.778-3.487c-1.099-0.546-2.479-0.826-4.103-0.826
		c-11.426,0-34.707,13.786-36.702,16.734l-0.511,0.896l0.287,0.707L300.051,250.252z"/>
	<path fill="currentColor" d="M271.912,362.886c0.49,0.133,1.043,0.196,1.646,0.196c3.557,0,8.654-2.29,11.525-4.502
		c1.925-1.478,2.842-3.396,2.331-4.88c-0.329-0.98-1.218-1.59-2.317-1.59c-0.987,0-2.101,0.476-3.298,1.415
		c-3.556,2.8-8.122,5.083-10.18,5.083l-0.973-0.098l-1.785,0.273l-0.168,1.246C268.523,361.298,269.608,362.257,271.912,362.886z"/>
	<path fill="currentColor" d="M210.06,344.69h2.583l-1.365-2.192c-2.702-4.334,7.268-25.129,10.544-31.962
		c0.917-1.926,1.569-3.284,1.751-3.802l-2.528-1.302c-1.681,2.436-16.426,23.98-17.21,28.972c-0.511,3.235,0.168,6.224,1.855,8.199
		C206.839,343.947,208.394,344.69,210.06,344.69z"/>
	<path fill="currentColor" d="M290.964,305.432l-2.528,1.309c0.189,0.511,0.827,1.856,1.736,3.752c8.808,18.352,12.358,29.12,10.565,32.005
		l-1.365,2.192h2.584c1.666,0,3.221-0.743,4.368-2.087c1.688-1.975,2.367-4.964,1.856-8.199
		C307.389,329.412,292.644,307.868,290.964,305.432z"/>
	<path fill="currentColor" d="M302.943,384.402c-0.035,0-0.077,0-0.112,0c-1.183,0-1.554,1.05-1.876,1.967
		c-0.868,2.451-2.135,5.063-6.162,5.063c-0.567,0-1.19-0.056-1.862-0.169c-3.361-0.56-5.706-1.491-7.779-2.31
		c-2.345-0.938-4.565-1.813-7.512-1.813c-1.4,0-2.892,0.196-4.544,0.595c-2.941,0.707-5.293,1.456-7.338,2.1
		c-3.178,1.002-5.475,1.729-8.051,1.729c-0.448,0-0.904-0.021-1.653-0.07c-0.469,0.049-0.924,0.07-1.372,0.07
		c-2.583,0-4.873-0.728-8.052-1.729c-2.045-0.644-4.397-1.386-7.338-2.1c-1.659-0.406-3.143-0.595-4.551-0.595
		c-2.948,0-5.167,0.875-7.52,1.813c-2.065,0.819-4.404,1.75-7.765,2.31c-0.672,0.113-1.295,0.169-1.862,0.169
		c-4.033,0-5.3-2.612-6.169-5.063c-0.314-0.889-0.672-1.89-1.337-1.89c-0.028,0-0.567-0.113-0.567-0.113h-0.238
		c-0.903,0-2.597,0.455-3.837,3.452c-1.435,3.444-0.448,9.683,5.118,15.249c0.889,0.89,1.954,2.738,3.186,4.88
		c5.217,9.074,14.921,25.955,42.444,25.955c27.516,0,37.22-16.874,42.43-25.941c1.232-2.15,2.296-4.005,3.192-4.895
		c5.566-5.573,6.561-11.811,5.126-15.249C305.737,384.914,304.106,384.402,302.943,384.402z M301.298,393.301
		c-0.106,0.21-13.296,20.746-45.104,20.746c-31.865,0-45-20.536-45.105-20.746c-0.028-0.056-0.049-0.104-0.077-0.154
		c7.569,8.871,32.235,9.858,42.836,9.858h4.698c11.069,0,37.5-1.078,43.2-11.027C301.752,392.076,301.69,392.51,301.298,393.301z"/>
	<path fill="currentColor" d="M379.443,254.368c-0.686,0-1.562,0.19-2.682,0.588c-0.273,0.098-0.791,0.21-1.736,0.21
		c-3.144,0-8.43-1.204-14.556-2.598c-8.346-1.897-17.812-4.054-26.116-4.236h-1.736c-1.281,0.007-2.527,0.112-3.795,0.259
		l-0.973,0.154l-1.155,0.189c-0.504,0.077-1.002,0.154-1.491,0.252c-0.582,0.119-1.149,0.273-2.08,0.525l-1.484,0.385l-1.926,0.651
		c-0.357,0.112-0.728,0.224-1.085,0.379c-11.574,4.292-21.145,12.575-26.291,17.028c-1.226,1.057-2.206,1.911-2.892,2.429
		c-0.708,0.518-2.36,1.898-2.36,3.452l0.49,1.799h1.436c0.329,0,0.826-0.07,1.498-0.182c1.267-0.21,3.185-0.518,6.119-0.518
		c3.032,0,13.611-0.259,24.982-0.728c0,0,11.069-0.525,13.387-0.651c6.904-0.392,12.218-0.82,15.795-1.253
		c11.097-1.359,22.552-8.178,26.957-11.048c0.98-0.63,4.53-3.445,3.885-5.65C381.536,255.468,381.088,254.368,379.443,254.368z
		 M315.014,270.472c-11.182,0-15.25-0.939-15.698-1.036c0.252-2.108,10.81-9.873,16.152-12.302c0.105-0.049,0.21-0.091,0.329-0.14
		c-0.329,1.415-0.497,2.871-0.497,4.355c0,3.326,0.805,6.47,2.297,9.103C316.736,270.465,315.868,270.472,315.014,270.472z
		 M364.452,264.325c-8.451,3.087-16.881,3.955-25.787,4.816c1.071-2.366,1.645-5.054,1.645-7.793c0-3.01-0.679-5.909-1.946-8.408
		c5.72,0.847,27.6,5.23,33.04,6.952C369.899,261.293,366.314,263.632,364.452,264.325z"/>
	<path fill="currentColor" d="M221.493,275.653c0.679,0.112,1.169,0.182,1.506,0.182l1.925-0.364v-1.435c0-1.548-1.646-2.927-2.338-3.445
		c-0.715-0.532-1.709-1.393-2.948-2.471c-5.062-4.376-14.416-12.463-25.738-16.797l-3.543-1.225l-3.542-0.91
		c-0.588-0.119-1.19-0.217-1.792-0.315l-0.952-0.147l-0.889-0.133c-1.253-0.147-2.506-0.252-3.732-0.259l-2.647,0.014l-0.007,0.028
		c-8.1,0.287-17.203,2.359-25.262,4.193c-6.126,1.394-11.413,2.598-14.549,2.598c-0.939,0-1.456-0.112-1.73-0.21
		c-1.12-0.398-2.002-0.588-2.681-0.588c-1.646,0-2.094,1.099-2.199,1.436c-0.644,2.205,2.899,5.02,3.872,5.65
		c4.411,2.871,15.866,9.69,26.97,11.048c3.592,0.441,8.912,0.861,16.005,1.253c2.101,0.126,4.257,0.245,6.666,0.364l6.701,0.287
		c11.188,0.47,21.761,0.728,24.793,0.728C218.315,275.136,220.226,275.444,221.493,275.653z M173.35,269.142
		c-8.906-0.861-17.336-1.729-25.787-4.816c-2.002-0.742-5.951-3.361-7.24-4.341c4.922-1.653,27.481-6.176,33.321-7.044
		c-1.268,2.499-1.946,5.398-1.946,8.408C171.698,264.08,172.272,266.768,173.35,269.142z M196.994,270.472
		c-0.854,0-1.722-0.007-2.59-0.021c1.492-2.633,2.296-5.777,2.296-9.103c0-1.491-0.168-2.947-0.49-4.362
		c0.113,0.05,0.224,0.098,0.329,0.141c5.349,2.443,15.908,10.208,16.349,11.846C212.251,269.534,208.184,270.472,196.994,270.472z"
		/>
	<path fill="currentColor" d="M433.124,209.047c1.17-8.15-0.483-17.378-0.483-21.978c0.049-74.56-34.259-119.168-63.049-143.463
		C337.265,16.321,294.8,0.021,256.004,0c-38.796,0.021-81.268,16.321-113.601,43.606c-28.784,24.288-63.085,68.889-63.05,143.456
		c0,4.593-1.638,13.842-0.476,21.656c-1.589,17.161-1.078,33.096-0.58,48.605c0.238,7.184,0.462,14.234,0.462,21.194
		c-0.028,98.862,24.022,153.594,85.777,195.078C197.022,507.344,227.305,512,255.192,512h1.218
		c39.195,0,68.112-12.176,90.972-38.299c59.395-40.07,85.882-103.757,85.861-206.414c0-7.303,0.252-13.437,0.504-19.506
		C434.223,236.255,434.671,225.361,433.124,209.047z M338.967,463.612l-0.56,0.574c-26.67,30.696-58.051,34.693-82.395,34.743
		c-31.073-0.113-54.543-5.86-82.57-34.918l-0.792-0.665c-51.147-34.063-75.036-83.214-79.889-164.118
		c3.823-35.946,8.858-65.276,16.356-95.396c1.883-64.1,24.52-141.748,121.681-147.629c1.386-0.084,2.542-0.161,3.43-0.238
		c15.747-1.442,17.469-4.369,17.469-10.25V13.149c1.421-0.05,2.828-0.078,4.208-0.078c0,0,2.171,0.022,3.22,0.056v32.586
		c0,5.881,1.723,8.808,17.47,10.25c0.889,0.077,2.044,0.154,3.43,0.238c97.161,5.882,119.804,83.529,121.73,147.937
		c7.54,30.177,12.953,62.566,17.035,101.691C413.036,382.974,389.28,430.081,338.967,463.612z"/>
</g>
</svg>