<?xml version="1.0" encoding="utf-8"?>

<!DOCTYPE svg PUBLIC "-//W3C//DTD SVG 1.1//EN" "http://www.w3.org/Graphics/SVG/1.1/DTD/svg11.dtd">
<!-- Uploaded to: SVG Repo, www.svgrepo.com, Generator: SVG Repo Mixer Tools -->
<svg version="1.1" id="_x32_" xmlns="http://www.w3.org/2000/svg" xmlns:xlink="http://www.w3.org/1999/xlink" 
	 width="800px" height="800px" viewBox="0 0 512 512"  xml:space="preserve">
<style type="text/css">
<![CDATA[
	:root { color-scheme: dark light; }
]]>
</style>
<g>
	<path fill="currentColor" d="M436.703,187.875c7.141,0,12.906-5.781,12.906-12.906s-5.766-12.906-12.906-12.906h-5.719V25.813h5.719
		c7.141,0,12.906-5.781,12.906-12.906S443.844,0,436.703,0H75.297c-7.125,0-12.906,5.781-12.906,12.906s5.781,12.906,12.906,12.906
		h5.719v116.75h45.906c5.391,0,9.75,4.359,9.75,9.75c0,5.375-4.359,9.75-9.75,9.75H81.016h-5.719
		c-7.125,0-12.906,5.781-12.906,12.906s5.781,12.906,12.906,12.906h5.719v116.75h45.906c5.391,0,9.75,4.359,9.75,9.75
		c0,5.375-4.359,9.75-9.75,9.75H81.016h-5.719c-7.125,0-12.906,5.781-12.906,12.906s5.781,12.906,12.906,12.906h5.719v136.25h-5.719
		c-7.125,0-12.906,5.781-12.906,12.906S68.172,512,75.297,512h361.406c7.141,0,12.906-5.781,12.906-12.906
		s-5.766-12.906-12.906-12.906h-5.719v-136.25h5.719c7.141,0,12.906-5.781,12.906-12.906s-5.766-12.906-12.906-12.906h-5.719
		v-136.25H436.703z M244.906,242.375c3.734-6.469,12.031-8.688,18.484-4.953c2.063,1.188,3.766,2.891,4.953,4.922
		c2.406,4.188,2.406,9.375,0,13.547c-3.719,6.469-12.016,8.688-18.484,4.953c-2.063-1.188-3.766-2.891-4.938-4.938
		C242.5,251.734,242.5,246.563,244.906,242.375z M155,246.266c-1.078-1.141-1.625-2.688-1.5-4.25c0,0-0.094-3.313,0.563-7.922
		c1.797-12.734,6.016-25.063,12.469-36.25c6.469-11.188,15.047-21,25.156-28.938c3.656-2.859,6.594-4.438,6.594-4.438
		c1.281-0.875,2.875-1.188,4.406-0.844c1.531,0.359,2.844,1.328,3.625,2.688l31.313,54.234c1.438,2.469,0.797,5.578-1.453,7.313
		c0,0,0.078-0.438-1.594,1.219c-1.656,1.641-3.094,3.516-4.297,5.578c-1.172,2.063-2.078,4.25-2.688,6.5c-0.594,2.266-0.25,2-0.25,2
		c-0.375,2.797-2.766,4.906-5.594,4.906h-62.625C157.547,248.063,156.063,247.406,155,246.266z M303.703,338.594
		c-0.469,1.5-1.531,2.719-2.938,3.406c0,0-2.813,1.734-7.141,3.484c-11.922,4.797-24.703,7.297-37.625,7.328
		c-12.922-0.031-25.703-2.531-37.641-7.328c-4.313-1.75-7.141-3.469-7.141-3.469c-1.406-0.688-2.469-1.922-2.922-3.422
		c-0.469-1.5-0.281-3.141,0.5-4.484l31.313-54.234c1.422-2.453,4.438-3.484,7.063-2.391c0,0-0.422,0.172,1.844,0.766
		c2.25,0.609,4.594,0.938,6.984,0.938c2.375,0,4.734-0.328,6.984-0.938s1.844-0.766,1.844-0.766
		c2.625-1.078,5.625-0.078,7.063,2.391l31.297,54.234C303.984,335.469,304.156,337.078,303.703,338.594z M358.5,242.016
		c0.109,1.578-0.438,3.109-1.5,4.25s-2.563,1.797-4.125,1.797H290.25c-2.844,0-5.234-2.094-5.594-4.906c0,0,0.328,0.266-0.25-2
		c-0.609-2.25-1.5-4.438-2.703-6.5c-1.188-2.063-2.641-3.938-4.297-5.594c-1.656-1.641-1.578-1.203-1.578-1.203
		c-2.266-1.734-2.891-4.844-1.453-7.313l31.297-54.234c0.797-1.359,2.109-2.328,3.609-2.688c1.531-0.344,3.141-0.031,4.438,0.844
		c0,0,2.922,1.563,6.578,4.438c10.125,7.938,18.688,17.75,25.172,28.938c6.438,11.188,10.656,23.516,12.453,36.25
		C358.594,238.703,358.5,242.016,358.5,242.016z"/>
</g>
</svg>