<?xml version="1.0" encoding="utf-8"?>

<!DOCTYPE svg PUBLIC "-//W3C//DTD SVG 1.1//EN" "http://www.w3.org/Graphics/SVG/1.1/DTD/svg11.dtd">
<!-- Uploaded to: SVG Repo, www.svgrepo.com, Generator: SVG Repo Mixer Tools -->
<svg version="1.1" id="_x32_" xmlns="http://www.w3.org/2000/svg" xmlns:xlink="http://www.w3.org/1999/xlink" 
	 width="800px" height="800px" viewBox="0 0 512 512"  xml:space="preserve">
<style type="text/css">
<![CDATA[
	:root { color-scheme: dark light; }
]]>
</style>
<g>
	<path fill="currentColor" d="M310.31,53.251l45.438,17.672l-0.281,0.266l53,53l33.156-33.156c3.313-3.281,3.313-8.625,0-11.922
		L400.56,38.033c-2.625-2.594-6.484-3.141-9.625-1.625L363.528,9.001c-2.281-2.297-5.516-3.344-8.703-2.844
		c0,0-6.328,0.813-11.828,1.813C195.341,34.876,136.763,154.439,136.763,154.439l11.781,11.781
		C224.872,44.47,310.31,53.251,310.31,53.251z M352.122,30.814c3-3.031,7.891-3.031,10.906,0c3.031,3.016,3.031,7.906,0.016,10.938
		c-3.031,3.031-7.922,3.031-10.922,0C349.091,38.72,349.075,33.83,352.122,30.814z"/>
	<path fill="currentColor" d="M232.247,114.001c0,0-16.375,10.156-26.188,19.953c-7.094,7.094-14.938,18.953-14.938,18.953
		c-1.563,2.031-1.406,4.906,0.406,6.719l23.094,23.109c3.281,3.266,8.594,3.297,11.891,0.031l34.578-34.094
		c1.609-1.563,2.516-3.719,2.531-5.969c0-2.266-0.906-4.391-2.484-6l-22.234-22.25C237.106,112.658,234.278,112.486,232.247,114.001
		z"/>
	<path fill="currentColor" d="M357.044,259.955c5.047-6.734,8.594-12.547,8.594-12.547c1.516-2.016,1.328-4.875-0.422-6.656l-22.656-22.641
		c-1.594-1.594-3.781-2.516-6.063-2.438c-2.188,0-4.375,0.844-5.969,2.438l-8.25,8.344
		C339.028,230.486,352.419,243.455,357.044,259.955z"/>
	<path fill="currentColor" d="M287.841,144.517c-0.063,2.328,0.844,4.563,2.469,6.219l38.188,38.188c1.656,1.641,3.906,2.531,6.219,2.469
		c2.344-0.078,4.531-1.094,6.063-2.828l31.375-35.469c2.969-3.344,2.797-8.406-0.344-11.547L337.7,107.455
		c-3.156-3.172-8.219-3.328-11.547-0.375l-35.469,31.375C288.935,140.001,287.919,142.189,287.841,144.517z"/>
	<path fill="currentColor" d="M372.028,228.845c1.75-0.469,3.125-1.859,3.563-3.625c0,0,10.656-46.297,16.375-63.5l-3.563-3.578
		c-1.031-1.031-2.406-1.547-3.844-1.484c-1.422,0.078-2.75,0.75-3.656,1.844l-32.406,39.703c-2.734,3.344-2.484,8.234,0.563,11.281
		l18.063,18.063C368.403,228.83,370.278,229.33,372.028,228.845z"/>
	<path fill="currentColor" d="M305.778,225.017l14.656-14.813c3.938-3.969,3.938-10.281,0-14.234l-37.141-37.125
		c-3.953-3.953-10.359-3.953-14.313,0l-17,16.844l-15.078,14.984c-1.938,1.844-3.031,4.453-3.031,7.156
		c0,2.688,1.094,5.219,2.938,7.141l20.125,20.047H305.778z"/>
	<path fill="currentColor" d="M317.935,87.689c-17.188,5.719-63.516,16.391-63.516,16.391c-1.75,0.438-3.141,1.797-3.609,3.547
		c-0.484,1.75,0.031,3.625,1.313,4.922l17.625,17.625c3.063,3.047,7.938,3.313,11.281,0.578l39.688-32.406
		c1.125-0.906,1.781-2.234,1.859-3.672c0.078-1.422-0.469-2.813-1.484-3.828L317.935,87.689z"/>
	<path fill="currentColor" d="M228.575,211.798c-1.609-1.594-3.875-2.516-6.141-2.438c-2.359,0.078-4.563,1.094-6.063,2.781l-11.531,12.875
		h36.953L228.575,211.798z"/>
	<path fill="currentColor" d="M184.2,170.97c-1.766,0.422-3.109,1.766-3.609,3.453c0,0-0.094,0.328-0.344,0.922
		c-1.844,4.797-9.938,26.859-11.281,39.656c-0.422,3.781-0.594,7.328-0.594,10.609c5.469-0.422,11.125-0.594,17.094-0.594h3.375
		c10.266-12.125,19.438-22.563,19.438-22.563c2.875-3.359,2.609-8.328-0.5-11.359l-18.781-18.781
		C187.747,170.97,185.888,170.455,184.2,170.97z"/>
	<path fill="currentColor" d="M400.825,135.83c1.641-2.016,1.516-4.953-0.328-6.797l-49.875-49.859c-1.844-1.859-4.781-1.984-6.781-0.328
		c0,0-3.344,3.969-12.031,9.906l59.094,59.094C396.872,139.173,400.825,135.83,400.825,135.83z"/>
	<path fill="currentColor" d="M426.81,127.298c-6.688,1.297-13.094,4.547-18.266,9.719c-3.453,3.438-6.047,7.453-7.781,11.719
		c-2.578,6.391-3.234,13.375-1.938,20.063s4.547,13.109,9.719,18.281c3.453,3.438,7.453,6.047,11.703,7.766
		c6.406,2.594,13.391,3.234,20.063,1.938c6.719-1.297,13.125-4.547,18.281-9.703c3.453-3.453,6.047-7.453,7.781-11.719
		c2.594-6.406,3.234-13.375,1.938-20.063c-1.281-6.703-4.547-13.125-9.719-18.281c-3.438-3.453-7.438-6.047-11.719-7.781
		C440.481,126.642,433.497,126.001,426.81,127.298z M438.278,137.798c4.672,0.922,9.125,3.172,12.75,6.781
		c2.422,2.438,4.219,5.203,5.422,8.172c1.797,4.438,2.266,9.344,1.359,14.016s-3.156,9.094-6.781,12.734
		c-2.422,2.406-5.203,4.219-8.156,5.422c-4.453,1.797-9.344,2.266-14.016,1.359s-9.109-3.156-12.734-6.781
		c-2.438-2.422-4.219-5.203-5.438-8.172c-1.797-4.438-2.25-9.328-1.344-14c0.906-4.688,3.156-9.109,6.781-12.75
		c2.422-2.406,5.188-4.203,8.156-5.422C428.731,137.361,433.622,136.908,438.278,137.798z"/>
	<path fill="currentColor" d="M502.778,251.095c-12.359-13.484-35.406-10.625-50.797,0.766c-14.094,11.75-110.359,75.031-110.359,75.031
		h-117l-0.375,0.172c-6.156-0.219-11-5.375-10.797-11.531c0.234-6.156,5.391-11,11.531-10.781l-0.359-0.203
		c20.906,0,86.188,0,86.188,0c17.313,0,31.344-14.031,31.344-31.344s-14.031-31.328-31.344-31.328c-15.672,0-47,0-125.359,0
		S82.278,274.517,54.841,301.939L5.075,345.408c-3.219,2.813-5.078,6.875-5.078,11.156v144.469c0,1.922,1.125,3.672,2.875,4.484
		c1.75,0.797,3.813,0.516,5.281-0.734l96.188-82.469c3.391-2.891,7.906-4.109,12.281-3.313l149.875,27.25
		c10.469,1.906,21.234-0.5,29.906-6.625c0,0,191.313-133.032,205.438-144.782C515.31,282.486,515.153,264.564,502.778,251.095z"/>
</g>
</svg>