<?xml version="1.0" encoding="utf-8"?>

<!DOCTYPE svg PUBLIC "-//W3C//DTD SVG 1.1//EN" "http://www.w3.org/Graphics/SVG/1.1/DTD/svg11.dtd">
<!-- Uploaded to: SVG Repo, www.svgrepo.com, Generator: SVG Repo Mixer Tools -->
<svg height="800px" width="800px" version="1.1" id="_x32_" xmlns="http://www.w3.org/2000/svg" xmlns:xlink="http://www.w3.org/1999/xlink" 
	 viewBox="0 0 512 512"  xml:space="preserve">
<style type="text/css">
	:root { color-scheme: dark light; }
</style>
<g>
	<polygon fill="currentColor" points="0,261.727 79.462,241.125 64.806,217.826 	"/>
	<polygon fill="currentColor" points="396.666,290.527 418.805,351.935 512,118.375 	"/>
	<polygon fill="currentColor" points="107.002,189.241 73.388,212.015 164.528,355.387 186.74,296.689 	"/>
	<polygon fill="currentColor" points="295.704,463.347 415.394,362.561 295.704,21.074 	"/>
	<polygon fill="currentColor" points="390.443,439.933 396.666,388.407 308.972,462.261 	"/>
	<polygon fill="currentColor" points="288.801,463.347 288.801,21.074 169.111,362.554 	"/>
	<polygon fill="currentColor" points="275.534,462.261 187.84,388.414 184.921,385.954 194.062,439.933 	"/>
	<polygon fill="currentColor" points="295.704,483.767 295.704,490.555 295.704,490.926 387.234,490.555 390.962,445.61 295.704,470.54 	"/>
	<polygon fill="currentColor" points="197.271,489.888 288.801,490.259 288.801,489.888 288.801,483.099 288.801,469.873 193.543,444.942 	
		"/>
</g>
</svg>