<?xml version="1.0" encoding="utf-8"?>

<!DOCTYPE svg PUBLIC "-//W3C//DTD SVG 1.1//EN" "http://www.w3.org/Graphics/SVG/1.1/DTD/svg11.dtd">
<!-- Uploaded to: SVG Repo, www.svgrepo.com, Generator: SVG Repo Mixer Tools -->
<svg height="800px" width="800px" version="1.1" id="_x32_" xmlns="http://www.w3.org/2000/svg" xmlns:xlink="http://www.w3.org/1999/xlink" 
	 viewBox="0 0 512 512"  xml:space="preserve">
<style type="text/css">
	:root { color-scheme: dark light; }
</style>
<g>
	<path fill="currentColor" d="M110.014,381.916c0,15.667,12.658,28.307,28.29,28.307c15.616,0,28.274-12.64,28.274-28.307
		c0-15.641-12.658-28.323-28.274-28.323C122.672,353.593,110.014,366.275,110.014,381.916z"/>
	<path fill="currentColor" d="M176.485,197.306c-14.619,1.263-25.971,8.169-25.364,15.433c0.623,7.256,12.965,12.118,27.584,10.83
		c14.611-1.256,25.955-8.178,25.348-15.434C203.446,200.871,191.104,196.026,176.485,197.306z"/>
	<path fill="currentColor" d="M199.606,408.046c9.168,6.79,21.027,11.319,56.39,11.319c35.371,0,47.231-4.529,56.398-11.319
		c4.895-3.649,10.339-7.547,5.926-9.026c-4.521-1.53-7.43,4.487-14.868,1.479c-7.43-3.008-12.367-13.28-27.21-16.289
		c-14.835-3.025-17.785,7.986-20.245,7.986c-2.452,0-5.402-11.012-20.237-7.986c-14.844,3.008-19.781,13.28-27.21,16.289
		c-7.438,3.008-10.364-3.008-14.86-1.479C189.267,400.499,194.711,404.397,199.606,408.046z"/>
	<path fill="currentColor" d="M208.075,425.715c4.389,16.447,39.868,21.991,47.921,23.022c8.062-1.031,43.532-6.574,47.929-23.022
		c-14.062,5.244-28.872,7.488-47.929,7.488C236.955,433.203,222.137,430.959,208.075,425.715z"/>
	<path fill="currentColor" d="M235.194,308.514c0,0,0,0-10.165,21.924c-10.164,21.933,15.234,32.254,20.304,32.254
		c5.11,0,13.987-9.017-1.23-14.194c-13.996-5.169-13.996-16.788-7.63-28.407L235.194,308.514z"/>
	<path fill="currentColor" d="M255.954,89.671c-0.814,1.188-0.448,0.731,0.042,0.05c0.507,0.681,0.864,1.138,0.05-0.05
		c-0.017-0.025-0.026-0.033-0.05-0.05C255.996,89.62,255.971,89.646,255.954,89.671z"/>
	<path fill="currentColor" d="M211.042,284.894c4.271,2.336,5.917-1.67,0.98-6.017c-4.946-4.363-14.154-9.366-26.994-8.701
		c-12.848,0.664-24.368,11.036-31.623,13.048c-7.239,2.002-8.876-2.344-10.53-2.344c-1.654,0-1.986,1.662-0.664,3.008
		c2.21,2.244,8.884,6,14.161,4.67c5.261-1.329,25.93-8.344,31.931-8.344C196.871,280.215,206.754,282.543,211.042,284.894z"/>
	<path fill="currentColor" d="M160.661,270.176c21.725-12.043,52.558-0.757,38.521-7.023C174.482,252.108,153.738,272.17,160.661,270.176z"
		/>
	<path fill="currentColor" d="M345.421,381.916c0,15.667,12.657,28.307,28.282,28.307c15.616,0,28.274-12.64,28.274-28.307
		c0-15.641-12.658-28.323-28.274-28.323C358.079,353.593,345.421,366.275,345.421,381.916z"/>
	<path fill="currentColor" d="M360.871,212.739c0.616-7.264-10.738-14.17-25.348-15.433c-14.627-1.28-26.969,3.565-27.576,10.829
		c-0.615,7.256,10.729,14.178,25.348,15.434C347.906,224.857,360.257,219.995,360.871,212.739z"/>
	<path fill="currentColor" d="M505.806,236.342c3.275-3.242,4.895-7.978,5.178-13.556v-0.848c0-7.788-4.944-13.962-11.278-18.176
		c-6.341-4.18-14.445-6.632-22.706-6.673c-3.283,0-6.607,0.457-9.798,1.329c6.566-4.413,14.344-9.184,20.137-15.01
		c4.048-4.13,7.33-9.158,7.372-15.333c0.025-3.482-1.122-7.056-3.374-10.463c-3.507-5.436-8.568-8.802-14.103-8.76
		c-8.685,0.192-15.725,7.064-21.21,17.345c-1.18,2.244-2.302,4.728-3.324,7.372c-1.779-4.571-4.122-9.009-5.577-13.871
		C386.901-41.542,257.176,4.567,255.996,4.525c-1.172,0.042-130.898-46.068-191.126,155.173c-1.446,4.862-3.79,9.3-5.56,13.871
		c-1.048-2.643-2.153-5.128-3.333-7.372c-5.486-10.281-12.516-17.154-21.21-17.345c-5.535-0.042-10.596,3.324-14.112,8.76
		c-2.261,3.408-3.399,6.981-3.366,10.463c0.041,6.175,3.324,11.203,7.363,15.333c5.8,5.826,13.58,10.597,20.154,15.01
		c-3.2-0.872-6.524-1.329-9.799-1.329c-8.269,0.041-16.372,2.492-22.73,6.673c-6.325,4.214-11.261,10.389-11.261,18.176v0.848
		c0.282,5.577,1.903,10.314,5.178,13.556c3.24,3.249,7.662,4.538,12.092,4.538c6.366-0.125,13.356-2.443,20.428-6.267
		c-1.155,4.106-2.252,8.137-3.232,12.126c-42.96,93.44-44.979,169.186,4.662,217.414c59.341,57.678,156.628,47.298,160.576,46.84
		c-6.292,0-49.309-21.342-53.905-24.077C86.253,450.789,78.35,383.895,78.35,350.452c0-22.631,3.673-36.244,8.526-49.957
		c5.02,21.982,9.89,36.552,9.89,36.552s20.346-3.042,40.658-12.292c-22.124-48.943-29.088-101.443-31.258-131.595
		c0.349-4.771,1.097-8.228,2.443-8.627c72.795-21.559,106.887-55.867,124.19-83.358c5.602-6.641,18.068-3.882,23.154-11.503
		c-0.664-0.906-1.479-2.078,0.042-0.05c1.512-2.027,0.723-0.856,0.05,0.05c5.086,7.621,17.553,4.862,23.162,11.503
		c17.296,27.492,51.387,61.8,124.182,83.358c1.346,0.399,2.094,3.856,2.443,8.627c-2.177,30.152-9.125,82.652-31.248,131.595
		c20.303,9.251,40.648,12.292,40.648,12.292s4.87-14.569,9.89-36.552c4.854,13.713,8.527,27.326,8.527,49.957
		c0,33.443-7.904,100.338-68.465,136.465c-4.596,2.734-47.614,24.077-53.914,24.077c3.957,0.457,101.244,10.838,160.584-46.84
		c49.641-48.228,47.622-123.974,4.679-217.414c-0.998-3.989-2.103-8.02-3.25-12.126c7.073,3.824,14.054,6.142,20.428,6.267
		C498.143,240.88,502.556,239.592,505.806,236.342z M42.347,222.172c-9.009,6.308-18.093,10.156-24.06,10.031
		c-2.917-0.033-4.829-0.756-6.134-2.027c-1.263-1.297-2.41-3.582-2.643-7.821v-0.416c-0.024-3.69,2.527-7.671,7.396-10.912
		c4.82-3.184,11.536-5.261,18.102-5.261c4.18,0.042,8.17,0.956,11.718,2.684C45.197,213.105,43.735,217.684,42.347,222.172z
		 M52.062,192.926c-5.052-3.49-10.696-6.981-15.524-10.646c-6.749-4.962-10.945-10.181-10.704-14.203l1.936-5.693
		c2.643-3.856,4.862-4.87,6.998-4.87c3.274-0.233,9.001,3.624,13.704,12.774c2.286,4.371,4.347,9.79,5.968,16.09
		C53.649,188.587,52.819,190.765,52.062,192.926z M457.561,186.377c1.62-6.3,3.657-11.719,5.959-16.09
		c4.712-9.15,10.446-13.007,13.713-12.774c2.136,0,4.354,1.014,6.99,4.87l1.944,5.693c0.241,4.022-3.956,9.242-10.704,14.203
		c-4.829,3.666-10.472,7.156-15.525,10.646C459.181,190.765,458.35,188.587,457.561,186.377z M469.645,222.172
		c-1.38-4.488-2.842-9.067-4.372-13.721c3.549-1.728,7.539-2.642,11.727-2.684c6.558,0,13.281,2.078,18.093,5.261
		c4.854,3.241,7.43,7.222,7.389,10.912v0.416c-0.224,4.239-1.371,6.524-2.635,7.821c-1.304,1.272-3.216,1.994-6.133,2.027
		C487.746,232.328,478.663,228.48,469.645,222.172z"/>
	<path fill="currentColor" d="M300.958,284.894c4.288-2.351,14.17-4.679,22.73-4.679c6.008,0,26.678,7.015,31.939,8.344
		c5.277,1.33,11.951-2.426,14.162-4.67c1.322-1.346,0.989-3.008-0.664-3.008c-1.655,0-3.284,4.346-10.53,2.344
		c-7.248-2.012-18.775-12.384-31.624-13.048c-12.84-0.666-22.057,4.338-26.993,8.701
		C295.041,283.224,296.686,287.23,300.958,284.894z"/>
	<path fill="currentColor" d="M312.809,263.154c-14.029,6.266,16.805-5.02,38.538,7.023C358.262,272.17,337.518,252.108,312.809,263.154z"/>
</g>
</svg>