<?xml version="1.0" encoding="utf-8"?>

<!DOCTYPE svg PUBLIC "-//W3C//DTD SVG 1.1//EN" "http://www.w3.org/Graphics/SVG/1.1/DTD/svg11.dtd">
<!-- Uploaded to: SVG Repo, www.svgrepo.com, Generator: SVG Repo Mixer Tools -->
<svg version="1.1" id="_x32_" xmlns="http://www.w3.org/2000/svg" xmlns:xlink="http://www.w3.org/1999/xlink" 
	 viewBox="0 0 512 512"  xml:space="preserve">
<style type="text/css">
	:root { color-scheme: dark light; }
</style>
<g>
	<path fill="currentColor" d="M256,0C157.258,0.015,77.246,80.036,77.23,178.77V333.23C77.246,431.972,157.258,511.985,256,512
		c98.742-0.015,178.754-80.028,178.77-178.77V178.77C434.754,80.036,354.742,0.015,256,0z M394.748,333.23
		c-0.016,38.381-15.494,72.938-40.648,98.109c-25.17,25.139-59.72,40.624-98.1,40.639c-38.38-0.015-72.931-15.5-98.101-40.639
		c-25.139-25.171-40.631-59.728-40.647-98.109V178.77c0.016-38.373,15.508-72.938,40.647-98.109
		C183.069,55.522,217.62,40.03,256,40.022c38.38,0.008,72.93,15.5,98.1,40.639c25.154,25.171,40.632,59.736,40.648,98.109V333.23z"
		/>
	<rect x="189.494" y="171.344" fill="currentColor" width="133.011" height="32.018"/>
	<rect x="189.494" y="244.282" fill="currentColor" width="133.011" height="32.018"/>
	<rect x="189.494" y="317.221" fill="currentColor" width="133.011" height="32.018"/>
</g>
</svg>