<?xml version="1.0" encoding="utf-8"?>

<!DOCTYPE svg PUBLIC "-//W3C//DTD SVG 1.1//EN" "http://www.w3.org/Graphics/SVG/1.1/DTD/svg11.dtd">
<!-- Uploaded to: SVG Repo, www.svgrepo.com, Generator: SVG Repo Mixer Tools -->
<svg height="800px" width="800px" version="1.1" id="_x32_" xmlns="http://www.w3.org/2000/svg" xmlns:xlink="http://www.w3.org/1999/xlink" 
	 viewBox="0 0 512 512"  xml:space="preserve">
<style type="text/css">
	:root { color-scheme: dark light; }
</style>
<g>
	<path fill="currentColor" d="M492.225,300.58c-4.707,1.479-10.461,3.506-16.541,4.506c-2.594,0.432-5.236,0.672-7.877,0.653
		c0.086-0.288,0.173-0.576,0.26-0.865c1.71-5.812,3.179-11.864,4.226-16.82c1.058-4.947,1.72-8.78,1.989-10.163
		c0.807-4.044,1.355-6.964,2.276-9.02c0.932-2.066,2.248-3.276,4.466-3.948c8.915-2.171,17.08-7.992,22.795-16.762
		c5.726-8.712,8.933-20.326,8.03-32.774c-0.585-7.819-2.286-11.219-4.562-11.872c-2.296-0.653-5.236,1.412-8.866,4.352
		c-3.64,2.949-8.002,6.743-13.006,9.768c-2.141,1.306-4.408,2.469-6.771,3.392c-0.51-5.38-1.24-10.807-1.969-15.245
		c-0.769-4.735-1.489-8.347-1.72-9.663c-1.364-7.704-1.94-11.076,1.585-13.765c7.176-4.937,12.468-12.834,14.61-22.506
		c2.171-9.635,1.134-20.998-3.775-31.708c-3.102-6.724-5.735-9.154-7.972-8.972c-2.258,0.173-4.198,2.978-6.464,6.781
		c-2.267,3.823-4.89,8.636-8.338,12.987c-1.479,1.874-3.112,3.65-4.898,5.254c-1.969-4.044-4.025-7.972-5.841-11.248
		c-2.199-3.977-4.015-6.974-4.63-8.079c-3.679-6.446-5.254-9.279-2.949-12.795c4.87-6.686,7.127-15.398,6.071-24.687
		c-1.028-9.269-5.408-19.066-13.025-27.126c-4.803-5.052-7.886-6.426-9.836-5.59c-1.979,0.855-2.892,3.947-3.785,8.059
		s-1.806,9.232-3.574,14.188c-0.748,2.104-1.661,4.159-2.756,6.119c-2.181-2.191-4.313-4.265-6.225-6.052
		c-3.323-3.112-5.955-5.418-6.886-6.272c-5.476-5.005-7.848-7.214-6.734-11.268c2.594-7.857,2.074-16.849-1.778-25.359
		c-3.814-8.51-10.998-16.502-20.729-21.834c-6.128-3.344-9.49-3.718-11.094-2.306c-1.624,1.411-1.538,4.64-1.124,8.828
		c0.394,3.995,1.056,8.875,0.97,13.89c-3.304-3.862-7.819-6.849-12.89-9.193c-5.936-2.767-14.821-4.582-22.497-3.987
		c-7.694,0.558-14.024,3.439-15.504,8.76c-1.498,5.351,2.094,10.941,6.964,15.869c4.918,4.899,11.162,9.251,16.186,11.585
		c4.486,2.064,8.943,3.611,13.64,3.909c-0.211,0.163-0.422,0.326-0.634,0.49c-4.092,3.103-8.222,5.696-11.382,8.078
		c-3.16,2.363-5.361,4.495-5.716,6.532c-0.355,2.046,1.133,3.947,5.341,6.253c6.676,3.66,14.015,5.11,21.632,4.765
		c7.588-0.375,15.446-2.526,22.458-6.744c3.592-1.949,6.158-0.249,11.181,4.39c0.855,0.788,3.151,3.065,5.994,6.148
		c1.623,1.758,3.41,3.785,5.235,5.928c-1.931,0.912-3.909,1.7-5.878,2.391c-4.842,1.691-9.568,2.892-13.305,4.178
		c-3.746,1.288-6.483,2.622-7.454,4.458c-0.96,1.844-0.125,4.12,3.18,7.598c5.244,5.553,11.786,9.183,19.134,11.191
		c7.339,1.979,15.484,2.325,23.448,0.461c4.024-0.758,5.936,1.643,9.288,7.599c0.576,1.018,2.066,3.89,3.824,7.684
		c1.45,3.141,3.074,6.936,4.582,10.797c-2.421,0.317-4.851,0.432-7.234,0.46c-5.388,0.068-10.498-0.317-14.658-0.278
		c-4.15,0.038-7.339,0.471-8.914,1.96c-1.586,1.509-1.538,4.025,0.547,8.55c3.295,7.184,8.52,12.929,15.101,17.396
		c6.589,4.428,14.543,7.588,23.092,8.52c4.255,0.663,5.312,3.708,6.532,10.778c0.202,1.201,0.663,4.563,1.046,8.943
		c0.365,4.112,0.644,9.106,0.711,14.034c-2.449-0.586-4.832-1.345-7.127-2.171c-5.341-1.921-10.25-4.169-14.361-5.63
		c-4.102-1.479-7.406-2.209-9.51-1.316c-2.113,0.893-2.997,3.362-2.612,8.54c0.596,8.213,3.602,15.792,8.434,22.593
		c4.832,6.772,11.479,12.824,19.539,16.944c1.978,1.124,2.929,2.517,3.208,4.573c0.288,2.056-0.087,4.745-0.845,8.444
		c-0.25,1.258-1.066,4.725-2.362,9.154c-1.278,4.428-3.046,9.808-5.015,14.928c-0.105,0.26-0.202,0.51-0.298,0.759
		c-2.142-1.518-4.14-3.18-6.051-4.861c-4.457-3.967-8.376-8.059-11.825-11.076c-3.448-3.026-6.388-5.014-8.789-4.975
		c-2.43,0.038-4.236,2.084-5.859,7.194c-2.613,8.107-2.622,16.504-0.635,24.994c2.008,8.454,6.023,16.993,12.18,24.264
		c2.91,3.775,1.441,7.022-3.007,13.563c-0.758,1.114-2.978,4.131-6.042,7.887c-3.055,3.746-6.992,8.213-11.018,12.343
		c-0.644,0.672-1.297,1.326-1.941,1.97c-1.393-2.344-2.622-4.765-3.737-7.166c-2.622-5.706-4.668-11.287-6.733-15.648
		c-2.047-4.37-4.063-7.511-6.389-8.5c-2.343-0.98-4.937,0.192-8.625,4.39c-5.898,6.628-9.423,14.64-11.104,23.62
		c-1.642,8.933-1.441,18.856,1.316,28.482c1.171,4.879-1.643,7.348-8.742,11.671c-1.211,0.73-4.64,2.651-9.203,4.888
		c-4.562,2.249-10.268,4.765-15.916,6.907c-5.648,2.171-13.352,5.485-17.453,6.926c-53.437,18.78-117.757,26.886-157.582,56.156
		c-6.206,4.562,6.128,22.122,11.574,20.757c5.446-1.354,44.59-24.84,142.578-51.64c4.112-1.45,24.006-7.934,30.085-10.844
		c6.1-2.901,12.2-6.206,17.06-9.04c4.86-2.843,8.502-5.196,9.846-6.003c3.909-2.401,6.705-4.16,9.097-4.956
		c2.382-0.806,4.36-0.663,6.589,0.634c4.265,2.786,9.116,4.726,14.361,5.696c5.244,0.961,10.892,0.942,16.647-0.134
		c5.744-1.086,11.613-3.228,17.204-6.456c5.6-3.218,10.941-7.512,15.6-12.766c5.859-6.638,7.252-10.691,6.004-12.997
		c-1.259-2.334-5.198-3.026-10.364-3.593c-5.178-0.547-11.595-1.018-17.877-2.622c-2.652-0.672-5.274-1.546-7.78-2.669
		c0.662-0.778,1.315-1.566,1.969-2.364c4.072-4.928,8.011-10.181,11.075-14.543c3.065-4.37,5.283-7.829,6.119-9.058
		c4.851-7.224,6.964-10.384,11.864-9.855c9.538,1.518,19.854-0.856,28.989-7.147c4.553-3.14,8.8-7.242,12.402-12.16
		c3.611-4.909,6.58-10.653,8.616-16.964c2.537-7.954,2.191-11.988,0.231-13.516C500.62,298.227,496.931,299.101,492.225,300.58z"/>
	<path fill="currentColor" d="M196.723,450.987c12.324-4.765,25.34-8.808,38.529-12.565c-14.168-3.862-28.203-7.886-41.554-12.574
		c-4.102-1.441-11.806-4.755-17.454-6.926c-5.648-2.142-11.354-4.658-15.917-6.907c-4.562-2.238-7.992-4.159-9.202-4.888
		c-7.099-4.323-9.913-6.792-8.742-11.671c2.757-9.626,2.959-19.549,1.316-28.482c-1.681-8.98-5.206-16.992-11.104-23.62
		c-3.689-4.198-6.282-5.37-8.626-4.39c-2.324,0.989-4.342,4.13-6.388,8.5c-2.064,4.361-4.12,9.942-6.733,15.648
		c-1.114,2.401-2.344,4.822-3.737,7.166c-0.644-0.644-1.297-1.298-1.941-1.97c-4.025-4.13-7.963-8.597-11.018-12.343
		c-3.064-3.756-5.283-6.772-6.042-7.887c-4.447-6.541-5.926-9.788-3.006-13.563c6.157-7.271,10.172-15.811,12.179-24.264
		c1.989-8.49,1.979-16.887-0.633-24.994c-1.623-5.11-3.429-7.156-5.86-7.194c-2.402-0.038-5.341,1.95-8.79,4.975
		c-3.449,3.017-7.368,7.108-11.824,11.076c-1.912,1.681-3.91,3.343-6.051,4.861c-0.096-0.25-0.193-0.5-0.288-0.759
		c-1.979-5.12-3.747-10.499-5.024-14.928c-1.296-4.428-2.113-7.896-2.363-9.154c-0.759-3.698-1.134-6.388-0.846-8.444
		c0.28-2.056,1.23-3.448,3.209-4.573c8.059-4.12,14.706-10.172,19.548-16.944c4.823-6.801,7.838-14.38,8.425-22.593
		c0.393-5.178-0.5-7.647-2.614-8.54c-2.103-0.893-5.408-0.163-9.51,1.316c-4.111,1.461-9.02,3.708-14.35,5.63
		c-2.306,0.826-4.688,1.584-7.137,2.171c0.077-4.928,0.346-9.923,0.71-14.034c0.384-4.38,0.846-7.742,1.048-8.943
		c1.22-7.069,2.276-10.115,6.531-10.778c8.55-0.932,16.503-4.092,23.093-8.52c6.579-4.467,11.805-10.211,15.1-17.396
		c2.084-4.525,2.132-7.041,0.547-8.55c-1.574-1.488-4.764-1.921-8.914-1.96c-4.16-0.038-9.27,0.346-14.659,0.278
		c-2.382-0.028-4.812-0.144-7.233-0.46c1.508-3.862,3.131-7.656,4.582-10.797c1.758-3.794,3.247-6.666,3.823-7.684
		c3.352-5.956,5.264-8.357,9.288-7.599c7.964,1.864,16.109,1.518,23.448-0.461c7.349-2.008,13.89-5.638,19.135-11.191
		c3.305-3.477,4.14-5.753,3.18-7.598c-0.971-1.835-3.708-3.17-7.455-4.458c-3.736-1.287-8.462-2.488-13.304-4.178
		c-1.969-0.692-3.948-1.48-5.879-2.391c1.826-2.142,3.612-4.17,5.246-5.928c2.833-3.082,5.129-5.36,5.984-6.148
		c5.024-4.639,7.588-6.339,11.182-4.39c7.012,4.218,14.87,6.369,22.458,6.744c7.617,0.345,14.956-1.105,21.632-4.765
		c4.207-2.306,5.696-4.207,5.341-6.253c-0.356-2.037-2.555-4.17-5.716-6.532c-3.16-2.382-7.291-4.975-11.383-8.078
		c-0.211-0.164-0.423-0.327-0.634-0.49c4.698-0.298,9.155-1.844,13.64-3.909c5.024-2.334,11.268-6.686,16.187-11.585
		c4.87-4.928,8.462-10.518,6.973-15.869c-1.488-5.322-7.819-8.203-15.513-8.76c-7.675-0.595-16.56,1.22-22.496,3.987
		c-5.072,2.344-9.587,5.331-12.892,9.193c-0.086-5.014,0.576-9.894,0.971-13.89c0.413-4.188,0.499-7.417-1.124-8.828
		c-1.604-1.413-4.966-1.038-11.094,2.306c-9.731,5.331-16.917,13.323-20.729,21.834c-3.852,8.51-4.371,17.502-1.777,25.359
		c1.114,4.054-1.258,6.263-6.734,11.268c-0.932,0.854-3.564,3.16-6.888,6.272c-1.911,1.787-4.044,3.862-6.224,6.052
		c-1.095-1.96-2.008-4.015-2.757-6.119c-1.767-4.956-2.68-10.076-3.573-14.188c-0.894-4.112-1.806-7.204-3.785-8.059
		c-1.951-0.836-5.033,0.538-9.836,5.59c-7.617,8.06-11.997,17.858-13.025,27.126c-1.056,9.29,1.2,18.002,6.071,24.687
		c2.305,3.516,0.73,6.349-2.949,12.795c-0.615,1.105-2.43,4.102-4.63,8.079c-1.816,3.276-3.872,7.204-5.841,11.248
		c-1.786-1.604-3.42-3.381-4.898-5.254c-3.448-4.351-6.071-9.164-8.338-12.987c-2.268-3.804-4.207-6.608-6.464-6.781
		c-2.239-0.183-4.87,2.248-7.964,8.972c-4.918,10.711-5.956,22.074-3.785,31.708c2.142,9.673,7.436,17.57,14.611,22.506
		c3.526,2.689,2.949,6.061,1.575,13.765c-0.22,1.316-0.941,4.928-1.719,9.663c-0.72,4.438-1.45,9.866-1.96,15.245
		c-2.362-0.923-4.63-2.085-6.781-3.392c-4.995-3.026-9.356-6.82-12.997-9.768c-3.632-2.94-6.571-5.005-8.866-4.352
		c-2.276,0.653-3.977,4.054-4.563,11.872c-0.903,12.449,2.306,24.062,8.032,32.774c5.715,8.77,13.88,14.591,22.794,16.762
		c2.219,0.673,3.535,1.883,4.466,3.948c0.923,2.056,1.47,4.976,2.277,9.02c0.268,1.383,0.932,5.216,1.988,10.163
		c1.048,4.956,2.517,11.008,4.226,16.82c0.087,0.288,0.173,0.576,0.26,0.865c-2.642,0.018-5.283-0.222-7.877-0.653
		c-6.081-1-11.834-3.027-16.54-4.506c-4.708-1.478-8.396-2.353-10.384-0.816c-1.959,1.528-2.306,5.562,0.23,13.516
		c2.037,6.311,5.004,12.054,8.616,16.964c3.602,4.918,7.848,9.02,12.402,12.16c9.135,6.292,19.451,8.665,28.99,7.147
		c4.899-0.529,7.012,2.631,11.864,9.855c0.835,1.23,3.054,4.688,6.118,9.058c3.065,4.362,7.004,9.615,11.076,14.543
		c0.653,0.798,1.306,1.586,1.969,2.364c-2.507,1.123-5.13,1.998-7.78,2.669c-6.282,1.604-12.699,2.076-17.876,2.622
		c-5.168,0.568-9.106,1.259-10.364,3.593c-1.248,2.306,0.144,6.359,6.004,12.997c4.658,5.254,10,9.548,15.599,12.766
		c5.591,3.227,11.459,5.37,17.204,6.456c5.754,1.075,11.402,1.095,16.647,0.134c5.244-0.97,10.096-2.91,14.361-5.696
		c2.228-1.296,4.207-1.44,6.589-0.634c2.391,0.797,5.187,2.556,9.097,4.956c1.344,0.807,4.985,3.16,9.846,6.003
		c4.86,2.834,10.96,6.139,17.059,9.04C172.94,443.1,191.863,449.297,196.723,450.987z"/>
	<path fill="currentColor" d="M314.73,462.456c-15.379,4.246-29.259,8.414-41.756,12.411c43.447,15.647,63.003,26.963,66.731,27.894
		c5.446,1.364,17.78-16.195,11.564-20.757C340.627,474.175,328.216,467.874,314.73,462.456z"/>
	<polygon fill="currentColor" points="233.902,302.703 215.877,302.703 215.877,336.381 296.839,336.381 296.839,302.703 278.828,302.703 
		278.828,138.675 211.223,151.46 211.223,185.455 233.902,180.536 	"/>
</g>
</svg>