<?xml version="1.0" encoding="utf-8"?>

<!DOCTYPE svg PUBLIC "-//W3C//DTD SVG 1.1//EN" "http://www.w3.org/Graphics/SVG/1.1/DTD/svg11.dtd">
<!-- Uploaded to: SVG Repo, www.svgrepo.com, Generator: SVG Repo Mixer Tools -->
<svg height="800px" width="800px" version="1.1" id="_x32_" xmlns="http://www.w3.org/2000/svg" xmlns:xlink="http://www.w3.org/1999/xlink" 
	 viewBox="0 0 512 512"  xml:space="preserve">
<style type="text/css">
	:root { color-scheme: dark light; }
</style>
<g>
	<path fill="currentColor" d="M491.876,156.348c-19.442-45.953-51.884-85.016-92.735-112.621C358.296,16.129,308.969-0.008,256,0
		c-35.31,0-69.014,7.168-99.651,20.125C110.394,39.566,71.325,72.008,43.735,112.86C16.129,153.703-0.007,203.024,0,256
		c-0.007,35.309,7.169,69.016,20.125,99.65c19.441,45.955,51.884,85.018,92.735,112.623C153.704,495.871,203.032,512.008,256,512
		c35.31,0,69.014-7.168,99.652-20.117c45.955-19.449,85.023-51.89,112.614-92.742C495.872,358.297,512.008,308.977,512,256
		C512.008,220.692,504.831,186.984,491.876,156.348z M345.11,45.041c36.536,15.445,68.249,40.146,92.185,71.131
		c-15.192-2.748-50.717-5.793-92.653,13.476c0.572-27.086-5.579-66.533-26.313-94.004C327.504,38.228,336.44,41.379,345.11,45.041z
		 M128.008,66.146c25.689-17.353,55.04-29.603,86.695-35.377l-13.008,3.047c0,0,85.774,30.139,122.964,96.531
		c-18.104-9.531-23.766-12.363-23.766-12.363C159.61,48.844,57.396,142.033,57.396,142.033l-0.008,0.008
		C74.854,111.686,99.079,85.684,128.008,66.146z M83.947,407.045C77.544,399.758,71.593,392.061,66.14,384
		c-24.686-36.558-39.083-80.537-39.091-128c0.008-6.59,0.305-13.106,0.839-19.539c66.742-85.64,232.875-85.357,261.698-77.17
		C202.275,188.426,102.17,291.391,83.947,407.045z M377.299,450.207c-35.183,22.018-76.703,34.736-121.299,34.744
		c-31.647-0.008-61.735-6.412-89.11-17.994c-5.758-2.436-11.389-5.102-16.894-7.977c40.436-23.521,154.291-103.158,191.748-271.564
		C361.178,220.779,408.137,319.293,377.299,450.207z M466.958,345.102c-1.991,4.726-4.145,9.354-6.441,13.9
		c3.076-48.146-5.029-128.936-78.026-192.172c28.326,2.281,67.247,9.295,94.637,29.619c5.097,18.98,7.816,38.944,7.823,59.551
		C484.944,287.646,478.548,317.734,466.958,345.102z"/>
</g>
</svg>