<?xml version="1.0" encoding="utf-8"?>

<!DOCTYPE svg PUBLIC "-//W3C//DTD SVG 1.1//EN" "http://www.w3.org/Graphics/SVG/1.1/DTD/svg11.dtd">
<!-- Uploaded to: SVG Repo, www.svgrepo.com, Generator: SVG Repo Mixer Tools -->
<svg height="800px" width="800px" version="1.1" id="_x32_" xmlns="http://www.w3.org/2000/svg" xmlns:xlink="http://www.w3.org/1999/xlink" 
	 viewBox="0 0 512 512"  xml:space="preserve">
<style type="text/css">
	:root { color-scheme: dark light; }
</style>
<g>
	<path fill="currentColor" d="M504.032,83.882l-137.49,187.292L276.487,29.978l-90.689,242.908l-94.35-129.877L0,268.41l4.619,6.374
		l78.88-44.087l71.92,123.52l2.285,4.775l37.799,123.016l80.947-7.476l75.045,7.489l44.53-124.89L512,87.866L504.032,83.882z
		 M32.265,244.393l37.277-50.356l13.129,22.56L32.265,244.393z M73.669,188.459l17.68-23.886l93.59,128.825l-19.61,52.516
		L73.669,188.459z M172.003,362.143l95.887,75.562l-71.459,3.941L172.003,362.143z M273.3,462.026l-68.658,6.338l-6.281-20.443
		l74.939-4.134V462.026z M273.3,433.851L169.762,352.27L273.3,74.961V433.851z M342.929,468.358l-63.255-6.312v-18.034l70.769,3.897
		L342.929,468.358z M352.74,441.658l-67.924-3.748l97.531-76.85L352.74,441.658z M279.674,433.851V74.961L383.212,352.27
		L279.674,433.851z M387.776,346.275l-19.796-53.026l104.54-142.769L387.776,346.275z"/>
</g>
</svg>