<?xml version="1.0" encoding="utf-8"?>

<!DOCTYPE svg PUBLIC "-//W3C//DTD SVG 1.1//EN" "http://www.w3.org/Graphics/SVG/1.1/DTD/svg11.dtd">
<!-- Uploaded to: SVG Repo, www.svgrepo.com, Generator: SVG Repo Mixer Tools -->
<svg height="800px" width="800px" version="1.1" id="_x32_" xmlns="http://www.w3.org/2000/svg" xmlns:xlink="http://www.w3.org/1999/xlink" 
	 viewBox="0 0 512 512"  xml:space="preserve">
<style type="text/css">
	:root { color-scheme: dark light; }
</style>
<g>
	<path fill="currentColor" d="M270.465,279.817c4.674-3.824,9.136-9.612,12.926-16.946c1.258-2.431,2.414-5.116,3.519-7.887h-26.634v29.032
		c1.334-0.069,2.651-0.171,3.968-0.29C266.327,282.775,268.408,281.5,270.465,279.817z"/>
	<path fill="currentColor" d="M216.295,200.236h35.457v-37.674h-29.626C218.743,173.636,216.643,186.485,216.295,200.236z"/>
	<path fill="currentColor" d="M215.947,254.984h-21.51c1.64,2.015,3.417,3.969,5.27,5.822c8.286,8.303,18.382,14.745,29.643,18.748
		c-3.059-3.714-5.83-7.98-8.295-12.774C219.159,263.134,217.493,259.182,215.947,254.984z"/>
	<path fill="currentColor" d="M241.535,279.817c2.058,1.683,4.139,2.958,6.222,3.909c1.334,0.119,2.652,0.221,3.994,0.29v-29.032h-26.703
		C229.476,266.058,235.281,274.701,241.535,279.817z"/>
	<path fill="currentColor" d="M222.083,246.452h29.669v-37.682h-35.474C216.626,222.519,218.709,235.37,222.083,246.452z"/>
	<path fill="currentColor" d="M295.706,208.769h-35.43v37.682h29.626C293.259,235.37,295.341,222.537,295.706,208.769z"/>
	<path fill="currentColor" d="M282.644,279.554c11.269-4.003,21.365-10.445,29.676-18.748c1.853-1.853,3.604-3.807,5.27-5.822h-21.536
		C292.536,264.656,288.049,273.019,282.644,279.554z"/>
	<path fill="currentColor" d="M289.919,162.562h-29.643v37.674h35.472C295.375,186.485,293.31,173.636,289.919,162.562z"/>
	<path fill="currentColor" d="M304.23,200.236h31.292c-0.722-13.794-4.98-26.634-11.838-37.674h-24.85
		C302.029,173.908,303.899,186.69,304.23,200.236z"/>
	<path fill="currentColor" d="M296.055,154.021h21.536c-1.666-2.023-3.417-3.96-5.27-5.813c-8.303-8.294-18.399-14.737-29.651-18.748
		c3.051,3.706,5.83,7.989,8.278,12.765C292.842,145.862,294.533,149.84,296.055,154.021z"/>
	<path fill="currentColor" d="M270.465,129.188c-2.057-1.666-4.139-2.941-6.221-3.892c-1.318-0.119-2.634-0.221-3.968-0.298v29.023h26.677
		C282.55,142.938,276.729,134.295,270.465,129.188z"/>
	<path fill="currentColor" d="M298.817,246.452h24.867c6.858-11.048,11.116-23.881,11.838-37.682h-31.249
		C303.916,222.333,302.004,235.098,298.817,246.452z"/>
	<polygon fill="currentColor" points="225.329,373.625 217.307,398.467 233.692,398.467 225.651,373.625 	"/>
	<path fill="currentColor" d="M394.486,0h-276.97C83.453,0,55.84,27.612,55.84,61.674v388.66c0,34.054,27.613,61.666,61.676,61.666h276.97
		c34.062,0,61.674-27.612,61.674-61.666V61.674C456.16,27.612,428.548,0,394.486,0z M256.009,104.712
		c55.113,0,99.791,44.668,99.791,99.791c0,55.131-44.678,99.791-99.791,99.8c-55.13-0.009-99.791-44.669-99.808-99.8
		C156.218,149.38,200.879,104.712,256.009,104.712z M164.037,399.615h-12.629c-0.424,0-0.629,0.204-0.629,0.62v23.694
		c0,0.629-0.407,1.045-1.036,1.045h-13.259c-0.628,0-1.053-0.416-1.053-1.045v-68.881c0-0.629,0.424-1.046,1.053-1.046h27.553
		c15.451,0,24.731,9.289,24.731,22.853C188.768,390.215,179.385,399.615,164.037,399.615z M256.859,424.974h-13.564
		c-0.731,0-1.156-0.314-1.36-1.045l-4.079-12.417h-24.833l-3.978,12.417c-0.204,0.731-0.612,1.045-1.343,1.045H194.02
		c-0.731,0-0.935-0.416-0.731-1.045l24.424-68.881c0.205-0.629,0.629-1.046,1.36-1.046h13.156c0.731,0,1.139,0.417,1.36,1.046
		l24,68.881C257.794,424.558,257.59,424.974,256.859,424.974z M289.765,426.122c-11.066,0-21.807-4.386-27.348-9.706
		c-0.408-0.416-0.629-1.147-0.103-1.776l7.938-9.077c0.408-0.526,1.038-0.526,1.564-0.11c4.692,3.765,11.065,7.308,18.578,7.308
		c7.411,0,11.592-3.442,11.592-8.456c0-4.173-2.515-6.782-10.963-7.929l-3.757-0.519c-14.414-1.988-22.454-8.77-22.454-21.298
		c0-13.045,9.824-21.705,25.156-21.705c9.399,0,18.17,2.812,24.119,7.411c0.628,0.416,0.73,0.833,0.204,1.564l-6.357,9.493
		c-0.424,0.526-0.952,0.628-1.461,0.314c-5.439-3.544-10.658-5.422-16.504-5.422c-6.255,0-9.485,3.23-9.485,7.717
		c0,4.071,2.924,6.68,11.049,7.836l3.772,0.518c14.601,1.981,22.336,8.661,22.336,21.502
		C317.642,416.628,308.14,426.122,289.765,426.122z M351.908,426.122c-11.065,0-21.825-4.386-27.348-9.706
		c-0.426-0.416-0.629-1.147-0.102-1.776l7.92-9.077c0.424-0.526,1.054-0.526,1.564-0.11c4.708,3.765,11.065,7.308,18.578,7.308
		c7.41,0,11.592-3.442,11.592-8.456c0-4.173-2.499-6.782-10.964-7.929l-3.756-0.519c-14.397-1.988-22.436-8.77-22.436-21.298
		c0-13.045,9.807-21.705,25.156-21.705c9.4,0,18.152,2.812,24.102,7.411c0.629,0.416,0.731,0.833,0.221,1.564l-6.374,9.493
		c-0.408,0.526-0.934,0.628-1.462,0.314c-5.422-3.544-10.64-5.422-16.487-5.422c-6.272,0-9.502,3.23-9.502,7.717
		c0,4.071,2.923,6.68,11.065,7.836l3.756,0.518c14.618,1.981,22.334,8.661,22.334,21.502
		C379.766,416.628,370.264,426.122,351.908,426.122z"/>
	<path fill="currentColor" d="M225.1,154.021h26.652v-29.023c-1.343,0.077-2.66,0.178-3.994,0.298c-2.082,0.951-4.164,2.226-6.222,3.892
		c-4.674,3.825-9.118,9.62-12.909,16.946C227.36,148.582,226.195,151.259,225.1,154.021z"/>
	<path fill="currentColor" d="M163.102,367.252h-11.694c-0.424,0-0.629,0.212-0.629,0.629v17.847c0,0.416,0.205,0.628,0.629,0.628h11.694
		c6.459,0,10.334-3.756,10.334-9.502C173.436,371.118,169.561,367.252,163.102,367.252z"/>
	<path fill="currentColor" d="M213.184,162.562h-24.867c-6.858,11.04-11.099,23.881-11.838,37.674h31.249
		C208.085,186.681,209.997,173.908,213.184,162.562z"/>
	<path fill="currentColor" d="M229.357,129.46c-11.252,3.994-21.357,10.454-29.651,18.748c-1.853,1.853-3.629,3.79-5.27,5.813h21.51
		C219.465,144.366,223.978,135.987,229.357,129.46z"/>
	<path fill="currentColor" d="M213.184,246.452c-3.212-11.354-5.065-24.118-5.413-37.682h-31.292c0.739,13.802,4.98,26.634,11.838,37.682
		H213.184z"/>
</g>
</svg>