<?xml version="1.0" encoding="utf-8"?>

<!DOCTYPE svg PUBLIC "-//W3C//DTD SVG 1.1//EN" "http://www.w3.org/Graphics/SVG/1.1/DTD/svg11.dtd">
<!-- Uploaded to: SVG Repo, www.svgrepo.com, Generator: SVG Repo Mixer Tools -->
<svg version="1.1" id="_x32_" xmlns="http://www.w3.org/2000/svg" xmlns:xlink="http://www.w3.org/1999/xlink" 
	 width="800px" height="800px" viewBox="0 0 512 512"  xml:space="preserve">
<style type="text/css">
<![CDATA[
	:root { color-scheme: dark light; }
]]>
</style>
<g>
	<rect x="68.469" y="449.5" fill="currentColor" width="375.031" height="61.906"/>
	<path fill="currentColor" d="M393.844,185.438c-1.031-21.594-23.375-38.688-50.609-38.688H168.719c-27.234,0-49.594,17.094-50.594,38.688
		l-10.969,235.156h297.625L393.844,185.438z M184.438,393.375h-48.766l9.625-206.656c0.234-5.188,9.484-12.75,23.422-12.75h15.719
		V393.375z M293.938,359.656c16.906-14.438,27.984-38.375,27.984-65.5c0-26.031-10.234-49.078-25.969-63.672
		c31.234,4.875,55.141,31.828,55.141,64.438C351.094,328.219,326.156,355.656,293.938,359.656z"/>
	<polygon fill="currentColor" points="264.406,58.125 267.656,0.594 244.344,0.594 247.594,58.125 	"/>
	<polygon fill="currentColor" points="164.063,80.516 138.078,29.063 117.922,40.719 149.484,88.922 	"/>
	<polygon fill="currentColor" points="88.344,150.078 40.125,118.5 28.469,138.672 79.922,164.656 	"/>
	<polygon fill="currentColor" points="0,244.953 0,268.234 57.547,265 57.531,248.172 	"/>
	<polygon fill="currentColor" points="454.469,248.188 454.453,265 512,268.234 512,244.953 	"/>
	<polygon fill="currentColor" points="483.531,138.672 471.875,118.5 423.656,150.078 432.063,164.656 	"/>
	<polygon fill="currentColor" points="394.094,40.719 373.922,29.063 347.938,80.516 362.5,88.922 	"/>
</g>
</svg>