<?xml version="1.0" encoding="utf-8"?>

<!DOCTYPE svg PUBLIC "-//W3C//DTD SVG 1.1//EN" "http://www.w3.org/Graphics/SVG/1.1/DTD/svg11.dtd">
<!-- Uploaded to: SVG Repo, www.svgrepo.com, Generator: SVG Repo Mixer Tools -->
<svg height="800px" width="800px" version="1.1" id="_x32_" xmlns="http://www.w3.org/2000/svg" xmlns:xlink="http://www.w3.org/1999/xlink" 
	 viewBox="0 0 512 512"  xml:space="preserve">
<style type="text/css">
	:root { color-scheme: dark light; }
</style>
<g>
	<path fill="currentColor" d="M403.452,33.053c-3.352-7.549-8.284-14.851-15.276-20.621c-6.938-5.756-16.238-9.685-25.978-9.946
		c-9.74-0.385-19.261,2.954-26.665,8.201c-7.432,5.303-12.955,12.302-16.815,19.734c-3.861,7.46-6.141,15.366-7.418,23.258
		c-1.209,8.119-1.484,15.221-2.061,22.716l-2.995,44.4l-2.871,44.373c-0.865,12.22-1.511,24.446-0.783,36.776
		c-4.094-2.466-8.092-5.049-11.897-7.879c-1.182-0.804-2.294-1.669-3.407-2.59c-1.442-5.358-3.022-10.66-4.19-16.018
		c-2.294-9.239-4.204-18.602-6.031-27.97c-3.668-18.724-6.938-37.573-10.015-56.483l-4.534-28.334l-0.577-3.702
		c-0.261-1.161-0.398-2.28-0.66-3.572c-0.522-2.583-1.181-5.049-1.827-7.514c-1.387-4.863-3.146-9.733-5.44-14.473
		c-4.588-9.362-11.334-18.36-20.895-24.824c-9.369-6.47-21.87-9.98-34.125-8.063c-3.146,0.487-5.838,1.106-9.108,2.335
		c-1.113,0.425-2.294,0.92-3.929,1.724c-1.443,0.735-2.748,1.415-4.053,2.28c-5.124,3.263-9.438,7.701-12.584,12.564
		c-6.278,9.856-8.188,20.819-8.435,31.109c-0.069,20.696,5.894,40.101,12.708,58.338c6.745,17.983,13.229,36.096,19.508,54.209
		c2.94,8.682,5.893,17.488,9.039,26.24c-1.566-0.193-3.146-0.248-4.712-0.193c-7.405,0.248-14.411,2.844-20.181,6.594
		c-8.16,5.379-13.902,12.783-17.777,20.792c-1.58-1.291-3.311-2.446-5.179-3.236c-4.932-2.211-10.414-2.844-15.634-2.384
		c-10.523,0.846-20.126,6.292-26.638,13.841c-6.635,7.576-9.905,17.179-10.482,26.369c-0.55,9.445,1.182,17.633,2.953,26.04
		c1.91,8.338,4.534,16.582,8.325,24.46c3.393,7.061,7.57,13.944,13.23,20.064c-0.055,12.638,0.646,29.879,1.937,40.946
		c1.635,12.707,4.066,25.414,8.174,37.84c4.204,12.323,9.726,24.646,18.615,35.19c2.761,3.256,5.866,6.298,9.245,9.039
		c-3.42,2.748-6.47,6.08-8.504,10.249c-3.187,6.209-3.27,14.232-0.22,20.716c3.022,6.539,8.146,11.498,13.518,15.462
		c5.454,3.956,11.416,6.855,17.447,9.294c24.357,9.41,50.06,11.313,74.94,11.594c25.099-0.274,50.802-2.184,75.077-12.213
		c11.801-5.104,24.041-12.652,30.237-25.374c2.912-6.285,3.613-13.813,1.126-20.394c-1.854-5.372-5.894-9.836-10.688-12.742
		c2.061-2.376,3.97-4.842,5.618-7.412c8.889-13.511,13.478-28.581,15.84-43.569c4.369-30.114,7.24-59.389,9.314-89.199
		c2.074-29.681,3.31-59.327,5.495-88.808c2.157-29.488,5.371-58.818,10.111-87.956c1.181-7.281,2.445-14.555,3.805-21.816
		c1.414-7.26,2.61-14.995,3.132-22.729C411.228,64.382,410.115,48.288,403.452,33.053z M136.033,316.752
		c-10.084-11.292-15.194-26.933-18.436-42.106c-1.401-7.631-2.679-15.737-2.225-22.667c0.508-7.09,2.981-13.772,7.501-18.862
		c4.478-5.124,10.88-8.532,17.626-9.967c5.44-1.044,10.935-0.872,15.647,1.718c-0.22,0.652-0.453,1.312-0.646,1.964
		c-5.688,23.533-4.108,47.622,4.259,69.98c2.816,7.206,6.416,14.205,11.045,20.696c-5.056,4.252-10.757,7.563-16.499,7.981
		C147.435,326.066,141.074,322.22,136.033,316.752z M396.117,78.972c-0.412,7.075-1.512,14.04-2.789,21.39
		c-1.25,7.37-2.404,14.748-3.462,22.145c-4.314,29.584-7.061,59.361-8.71,89.089c-1.704,29.729-2.472,59.389-4.039,88.925
		c-0.797,14.775-1.786,29.523-3.077,44.243c-1.346,14.74-2.459,29.502-6.306,43.555c-1.772,7.062-3.97,13.972-6.333,20.723
		c-2.432,6.732-5.014,13.394-8.599,19.446c-3.6,6.01-7.858,11.608-13.257,15.901c-5.44,4.245-11.815,7.199-19.233,8.352l0.66,6.12
		c8.339,0.083,17.269-2.514,24.371-7.267c2.459-1.593,4.684-3.434,6.8-5.358c3.435,2.782,5.742,6.34,6.608,10.193
		c1.03,4.527-0.083,9.204-2.61,13.216c-4.987,8.208-15.016,13.779-25.456,17.557c-10.646,3.689-22.145,5.99-33.836,7.24
		c-11.677,1.34-23.67,1.875-35.526,1.793c-12.075,0.089-23.945-0.453-35.704-1.724c-11.732-1.175-23.299-3.359-34.097-6.807
		c-10.537-3.544-21.019-8.806-25.813-16.74c-2.445-3.853-3.091-8.332-1.594-12.824c1.085-3.222,3.201-6.319,5.894-9.142
		c0.165,0.11,0.33,0.234,0.494,0.337c6.086,3.647,12.927,6.126,19.879,7.295l1.497-5.997c-12.048-3.4-21.678-11.244-28.424-20.943
		c-6.731-9.768-11.292-21.026-14.314-32.689c-3.132-11.656-5.056-23.712-6.21-35.855c-0.99-9.493-1.415-19.054-1.731-28.658
		c4.478,1.656,9.562,2.343,14.328,1.512c8.339-1.47,14.617-5.956,19.576-11.052c1.319,1.532,2.61,3.098,4.108,4.54
		c2.363,2.157,4.987,4.19,7.996,5.914c1.566,0.804,3.201,1.601,5.042,2.157c1.772,0.549,3.929,0.858,5.179,0.982
		c6.677,0.804,14.013,0.309,20.36-3.324c6.416-3.702,10.152-9.981,11.856-15.956c1.772-6.038,2.033-12.069,1.772-17.921
		c-0.59-11.767-3.53-23.045-7.006-33.939l-6.292,1.655c3.008,10.722,5.316,21.685,5.578,32.531
		c0.055,5.358-0.33,10.716-1.978,15.517c-1.497,4.808-4.314,8.874-8.38,11.086c-3.998,2.157-9.369,2.528-14.466,1.855
		c-1.703-0.247-2.569-0.433-3.544-0.803c-1.044-0.372-2.088-0.928-3.077-1.539c-2.088-1.291-4.066-2.96-5.893-4.746
		c-7.405-7.515-12.639-17.371-16.183-27.531c-3.531-10.228-5.372-20.95-5.756-31.727c-0.261-5.358-0.068-10.839,0.385-16.142
		c0.522-5.481,1.25-10.709,2.693-15.579c2.954-9.918,8.71-18.972,17.021-24.274c4.135-2.583,8.779-4.129,13.367-4.252
		c2.954-0.062,5.564,0.123,8.655,0.371c1.882,5.303,8.655,24.529,10.688,29.77l6.223-1.854c-1.443-5.173-7.68-24.282-9.067-29.454
		c-0.577-2.281-1.168-4.561-1.758-6.842c-2.954-11.086-5.77-22.172-8.847-33.321c-5.042-18.601-10.935-37.024-16.829-55.378
		c-6.031-17.982-10.935-36.22-10.468-53.9c0.055-8.744,1.758-17.372,5.948-24.028c2.088-3.324,4.781-6.154,8.05-8.249
		c0.797-0.556,1.703-1.051,2.5-1.483c0.646-0.302,1.758-0.797,2.94-1.292c1.442-0.55,3.668-1.229,5.564-1.539
		c7.926-1.484,16.582,0.494,23.656,5.056c7.198,4.554,12.955,11.519,17.021,19.398c2.102,3.942,3.792,8.132,5.11,12.384
		c0.728,2.212,1.305,4.376,1.841,6.525c0.247,0.99,0.44,2.281,0.714,3.386l0.646,3.455l5.44,28.334
		c3.737,18.855,7.597,37.697,11.98,56.428c2.294,9.424,4.726,18.786,7.473,28.086c0.66,2.281,1.305,4.561,2.02,6.78
		c-1.429-0.865-2.94-1.6-4.52-2.218c-7.446-3.146-16.43-3.517-24.151-0.68c-7.858,2.713-14.15,8.504-17.763,15.214
		c-3.654,6.835-4.767,14.287-4.245,21.623c0.522,7.206,3.338,14.473,7.597,20.387c4.259,5.976,9.685,10.963,15.578,15.03
		c11.142,7.7,23.45,12.879,36.556,16.142l-2.102,30.986c-3.53,0.741-6.553,2.033-9.63,3.448c-4.19,2.156-7.982,4.808-11.389,7.824
		c-6.745,5.976-11.856,13.243-15.785,20.758c-7.803,15.153-11.457,31.48-13.628,47.615l6.484,0.866
		c2.693-15.648,6.883-31.226,14.603-44.909c3.874-6.773,8.71-12.996,14.604-17.859c2.954-2.466,6.154-4.561,9.575-6.1
		c3.214-1.538,7.322-2.651,10.07-2.713l5.193,0.062l-0.137-4.801l-1.182-37.518l0.193-2.088l-2.61-0.927
		c-12.446-4.492-24.769-10.29-35.045-17.866c-10.29-7.514-18.409-17.495-18.986-29.137c-0.344-5.667,0.646-11.581,3.338-16.444
		c2.679-4.808,7.061-8.69,12.309-10.476c5.234-1.786,11.128-1.538,16.307,0.68c1.305,0.494,2.555,1.168,3.792,1.91l1.649,1.106
		l1.827,1.477c2.226,1.731,4.382,3.517,6.677,5.179c0.536,0.433,1.058,0.865,1.635,1.23c1.058,0.742,2.102,1.538,3.16,2.218
		c10.413,7.329,21.802,13.367,33.657,18.237c6.416,2.706,13.106,5.049,19.192,7.515c3.009,1.23,5.963,2.644,7.79,4.066l1.113,1.044
		c0.398,0.494,0.124,0,0.659,1.106c0.33,0.618,0.852,2.342,1.113,3.703c2.486,12.068,3.022,25.38,4.383,38.315
		c1.25,12.996,2.294,26.054,5.633,39.173l6.415-1.23c-2.225-12.508-2.418-25.566-3.201-38.5c-0.728-13.12-1.113-25.992-3.476-39.606
		c-0.384-1.855-0.659-3.269-1.635-5.673c-0.124-0.426-1.181-2.342-1.964-3.139c-0.783-0.989-1.635-1.724-2.486-2.404
		c-3.53-2.714-6.952-4.122-10.221-5.605c-6.608-2.713-12.969-4.987-19.124-7.638c-5.014-2.096-9.85-4.445-14.589-6.959
		c3.531-13.346,5.083-26.864,6.264-40.389l3.874-44.386l3.366-44.387c0.646-7.288,0.948-15.036,1.896-21.609
		c1.085-6.746,2.967-13.326,6.003-19.233c3.022-5.886,7.212-11.072,12.35-14.775c5.152-3.661,11.265-5.756,17.365-5.529
		c12.419,0.158,23.23,9.905,28.478,22.104C395.69,50.596,396.982,64.897,396.117,78.972z"/>
</g>
</svg>