<?xml version="1.0" encoding="utf-8"?>

<!DOCTYPE svg PUBLIC "-//W3C//DTD SVG 1.1//EN" "http://www.w3.org/Graphics/SVG/1.1/DTD/svg11.dtd">
<!-- Uploaded to: SVG Repo, www.svgrepo.com, Generator: SVG Repo Mixer Tools -->
<svg version="1.1" id="_x32_" xmlns="http://www.w3.org/2000/svg" xmlns:xlink="http://www.w3.org/1999/xlink" 
	 viewBox="0 0 512 512"  xml:space="preserve">
<style type="text/css">
	:root { color-scheme: dark light; }
</style>
<g>
	<path fill="currentColor" d="M357.165,154.831c-25.826-25.856-61.692-41.883-101.153-41.883c-39.482,0-75.326,16.028-101.174,41.883
		c-25.871,25.848-41.928,61.732-41.904,101.17c-0.024,39.486,16.033,75.33,41.904,101.177
		c25.848,25.871,61.692,41.924,101.174,41.908c39.461,0.016,75.326-16.037,101.153-41.908c25.871-25.848,41.924-61.692,41.9-101.177
		C399.089,216.563,383.036,180.678,357.165,154.831z M338.223,338.239c-21.076,21.068-50.056,34.04-82.21,34.056
		c-32.155-0.016-61.16-12.988-82.231-34.056c-21.076-21.084-34.044-50.085-34.065-82.239c0.021-32.154,12.989-61.131,34.065-82.207
		c21.072-21.076,50.076-34.064,82.231-34.064c32.154,0,61.134,12.989,82.21,34.064c21.072,21.076,34.06,50.053,34.06,82.207
		C372.283,288.154,359.295,317.155,338.223,338.239z"/>
	<path fill="currentColor" d="M237.313,173.46c-32.334,7.307-57.538,32.975-64.223,65.512c-1.2,5.925,2.621,11.728,8.55,12.947
		c5.929,1.195,11.704-2.617,12.924-8.55c4.909-24.051,23.696-43.143,47.569-48.524c5.905-1.333,9.616-7.194,8.282-13.102
		C249.083,175.842,243.198,172.127,237.313,173.46z"/>
	<rect x="242.601" y="434.718" fill="currentColor" width="26.802" height="77.282"/>
	<rect x="242.601" fill="currentColor" width="26.802" height="77.33"/>
	<polygon fill="currentColor" points="372.885,391.843 427.537,446.488 446.5,427.574 391.831,372.897 	"/>
	<polygon fill="currentColor" points="139.115,120.181 84.442,65.512 65.524,84.482 120.173,139.128 	"/>
	<rect x="434.69" y="242.638" fill="currentColor" width="77.297" height="26.774"/>
	<rect x="0.013" y="242.638" fill="currentColor" width="77.28" height="26.774"/>
	<polygon fill="currentColor" points="446.5,84.482 427.537,65.512 372.885,120.181 391.831,139.128 	"/>
	<polygon fill="currentColor" points="65.524,427.574 84.442,446.488 139.115,391.843 120.173,372.897 	"/>
</g>
</svg>