<?xml version="1.0" encoding="utf-8"?>

<!DOCTYPE svg PUBLIC "-//W3C//DTD SVG 1.1//EN" "http://www.w3.org/Graphics/SVG/1.1/DTD/svg11.dtd">
<!-- Uploaded to: SVG Repo, www.svgrepo.com, Generator: SVG Repo Mixer Tools -->
<svg height="800px" width="800px" version="1.1" id="_x32_" xmlns="http://www.w3.org/2000/svg" xmlns:xlink="http://www.w3.org/1999/xlink" 
	 viewBox="0 0 512 512"  xml:space="preserve">
<style type="text/css">
	:root { color-scheme: dark light; }
</style>
<g>
	<path fill="currentColor" d="M480.172,261.756c-0.708-1.866-1.058-3.811-1.058-5.756c0-1.958,0.35-3.904,1.058-5.756l18.696-49.088
		c1.614-4.234,2.395-8.654,2.395-12.993c0.007-12.041-5.981-23.658-16.532-30.552L440.742,128.9
		c-3.315-2.17-5.729-5.491-6.762-9.328l-13.727-50.702c-4.334-15.97-18.808-26.952-35.216-26.966c-0.615,0-1.23,0.027-1.852,0.053
		l0.926-0.053l-53.236,2.673l-0.92,0.013c-3.698,0-7.277-1.257-10.162-3.572L278.89,8.071c-6.662-5.372-14.8-8.085-22.883-8.071
		c-8.092-0.014-16.228,2.699-22.904,8.071l0.007,0.014l-40.905,32.932c-2.878,2.316-6.47,3.572-10.162,3.572l-0.596-0.013
		l-52.654-2.62h0.1c-0.721-0.04-1.363-0.04-1.932-0.04c-16.406,0-30.875,10.982-35.208,26.952l-13.728,50.702
		c-1.032,3.837-3.446,7.158-6.761,9.328l-43.988,28.712c-10.552,6.894-16.546,18.524-16.539,30.564c0,4.34,0.78,8.746,2.388,12.98
		l18.709,49.088c0.702,1.852,1.059,3.797,1.059,5.756c0,1.945-0.351,3.89-1.059,5.742l-18.702,49.102
		c-1.614,4.22-2.395,8.626-2.395,12.966c-0.007,12.041,5.98,23.672,16.539,30.578L71.264,383.1c3.314,2.17,5.729,5.478,6.761,9.315
		l13.728,50.702c4.333,15.97,18.808,26.952,35.208,26.952c0.569,0,1.171,0,1.82-0.04l52.476-2.62h0.099l0.715-0.026
		c3.672,0.013,7.251,1.27,10.135,3.586l40.905,32.959c6.669,5.372,14.799,8.071,22.897,8.071c8.084,0,16.221-2.699,22.89-8.071
		l40.905-32.959c2.884-2.329,6.457-3.586,10.134-3.586l0.788,0.026l52.23,2.607l0.351,0.013c0.543,0.026,1.118,0.04,1.733,0.04
		c16.4,0,30.882-10.969,35.216-26.952l13.727-50.702c1.032-3.837,3.441-7.145,6.755-9.315l43.995-28.712
		c10.552-6.906,16.539-18.524,16.532-30.564c0-4.34-0.781-8.759-2.395-12.993L480.172,261.756z M473.609,337.373l-43.981,28.712
		c-7.496,4.895-12.927,12.371-15.269,21.024l-13.728,50.689c-1.906,7.092-8.343,11.948-15.594,11.948l-0.886-0.014l-51.463-2.58
		l-0.893-0.04c-0.595-0.026-1.211-0.053-1.86-0.053c-8.309,0-16.393,2.845-22.89,8.084l-40.904,32.96
		c-2.971,2.381-6.53,3.572-10.135,3.572c-3.612,0-7.172-1.191-10.142-3.572l-40.905-32.96c-6.497-5.239-14.581-8.084-22.89-8.084
		c-0.543,0.013-1.164,0.013-1.832,0.053l-52.463,2.62l-0.814,0.014c-7.244,0.013-13.681-4.869-15.587-11.934l-13.727-50.716
		c-2.342-8.64-7.774-16.116-15.276-21.011L38.39,337.373c-4.677-3.057-7.323-8.217-7.33-13.563c0-1.918,0.344-3.85,1.058-5.729
		l18.703-49.088c1.594-4.181,2.395-8.587,2.395-12.993s-0.801-8.812-2.395-13.007l-18.703-49.075
		c-0.714-1.892-1.058-3.824-1.058-5.743c0.007-5.345,2.646-10.492,7.323-13.549l43.995-28.712
		c7.495-4.909,12.927-12.385,15.269-21.025l13.727-50.716c1.906-7.065,8.35-11.948,15.587-11.934l0.715,0.014l0.225,0.013
		l51.774,2.58l0.608,0.026l1.76,0.039c8.316,0,16.4-2.831,22.91-8.058l40.905-32.96l-6.371-7.912l6.378,7.912
		c2.97-2.395,6.53-3.572,10.142-3.586c3.605,0.013,7.164,1.191,10.135,3.586l40.911,32.946c6.51,5.253,14.601,8.071,22.904,8.071
		c0.615,0,1.178-0.013,1.687-0.026l52.919-2.646l0.476-0.014c7.245,0,13.688,4.883,15.594,11.948l13.728,50.716
		c2.342,8.64,7.773,16.116,15.269,21.012l43.987,28.725c4.678,3.056,7.324,8.204,7.324,13.536c0,1.918-0.337,3.85-1.065,5.769
		l-18.689,49.075c-1.602,4.181-2.395,8.588-2.395,12.994s0.8,8.812,2.395,12.993l18.695,49.075c0.722,1.905,1.059,3.837,1.059,5.756
		C480.939,329.156,478.293,334.316,473.609,337.373z"/>
	<path fill="currentColor" d="M307.84,164.426c-2.011-3.083-5.412-4.962-9.076-4.962h-6.676c-4.194,0-7.998,2.448-9.771,6.271
		l-78.866,171.558c-1.482,3.294-1.243,7.198,0.728,10.28c1.998,3.083,5.424,4.962,9.096,4.962h6.642
		c4.208,0,8.032-2.435,9.778-6.259l78.878-171.557C310.083,171.426,309.825,167.522,307.84,164.426z"/>
	<path fill="currentColor" d="M226.249,241.036c1.899-5.438,2.474-1.654,2.474-18.789c0-17.161-0.575-13.364-2.474-18.841
		c-4.611-13.575-17.69-22.335-35.136-22.335c-17.433,0-30.485,8.76-35.123,22.335c-1.912,5.478-2.461,1.68-2.461,18.841
		c0,17.134,0.549,13.35,2.461,18.789c4.638,13.628,17.69,22.348,35.123,22.348C208.559,263.383,221.638,254.664,226.249,241.036z
		 M200.653,235.597c-1.376,4.102-4.896,6.259-9.54,6.259c-4.625,0-8.157-2.157-9.527-6.259c-0.82-2.183-1.079,3.242-1.079-13.35
		c0-16.631,0.258-11.207,1.079-13.364c1.37-4.102,4.902-6.284,9.527-6.284c4.644,0,8.163,2.183,9.54,6.284
		c0.826,2.156,1.078-3.268,1.078,13.364C201.731,238.839,201.48,233.414,200.653,235.597z"/>
	<path fill="currentColor" d="M320.886,248.63c-17.452,0-30.511,8.72-35.149,22.308c-1.878,5.478-2.441,1.654-2.441,18.815
		c0,17.161,0.562,13.377,2.441,18.788c4.638,13.642,17.697,22.388,35.149,22.388c17.426,0,30.525-8.746,35.143-22.388
		c1.906-5.411,2.448-1.627,2.448-18.788c0-17.161-0.542-13.337-2.448-18.815C351.411,257.35,338.312,248.63,320.886,248.63z
		 M330.4,303.13c-1.343,4.075-4.876,6.258-9.514,6.258c-4.638,0-8.176-2.183-9.546-6.258c-0.814-2.17-1.065,3.228-1.065-13.377
		c0-16.632,0.251-11.18,1.065-13.337c1.37-4.128,4.909-6.298,9.546-6.298c4.638,0,8.171,2.17,9.514,6.298
		c0.854,2.157,1.118-3.294,1.118,13.337C331.517,306.359,331.253,300.96,330.4,303.13z"/>
</g>
</svg>