<?xml version="1.0" encoding="utf-8"?>

<!DOCTYPE svg PUBLIC "-//W3C//DTD SVG 1.1//EN" "http://www.w3.org/Graphics/SVG/1.1/DTD/svg11.dtd">
<!-- Uploaded to: SVG Repo, www.svgrepo.com, Generator: SVG Repo Mixer Tools -->
<svg height="800px" width="800px" version="1.1" id="_x32_" xmlns="http://www.w3.org/2000/svg" xmlns:xlink="http://www.w3.org/1999/xlink" 
	 viewBox="0 0 512 512"  xml:space="preserve">
<style type="text/css">
	:root { color-scheme: dark light; }
</style>
<g>
	<path fill="currentColor" d="M412.174,352.363c-12.528,3.75-24.842,10.263-37.216,22.584l-0.016,0.015
		c-16.125,16.24-22.454,32.372-25.254,49.026c-2.763,16.645-1.392,33.688-1.102,49.997c0.03,2.724,0.038,5.449-0.024,8.15
		l133.583-133.591c-4.248,0.1-8.518,0.038-12.834-0.069C450.532,347.916,430.932,346.769,412.174,352.363z"/>
	<path fill="currentColor" d="M256.008,0.004C114.619,0.004,0.008,114.608,0,255.989c0.008,141.396,114.619,256.007,256.008,256.007
		c21.168,0,41.67-2.74,61.346-7.591c2.534-2.794,4.14-6.245,5.174-11.816c1.064-5.839,1.148-13.622,0.887-22.607
		c-0.428-17.984-2.204-40.775,4.898-64.928c4.73-16.087,13.646-32.618,28.898-47.824c0-0.008,0.008-0.008,0.016-0.015
		c19.952-20.066,42.214-28.997,62.709-32.281c20.525-3.329,39.428-1.614,54.443-1.431c9.995,0.199,18.138-0.413,23.418-2.303
		c2.786-0.988,4.798-2.227,6.619-3.888c4.845-19.66,7.584-40.163,7.584-61.323C512,114.608,397.389,0.004,256.008,0.004z
		 M146.241,241.31c-0.482-1.378-0.887-2.22-1.216-2.923c-0.988-2.097-1.316-2.801-1.316-16.707c0-13.89,0.329-14.586,1.316-16.676
		c0.329-0.72,0.734-1.569,1.209-2.939c4.89-14.326,18.413-22.882,36.168-22.882c17.77,0,31.294,8.556,36.153,22.868
		c0.49,1.392,0.888,2.25,1.224,2.961c0.995,2.097,1.332,2.801,1.332,16.668c0,13.89-0.337,14.594-1.339,16.691
		c-0.329,0.712-0.727,1.554-1.217,2.924c-4.859,14.356-18.382,22.913-36.153,22.913C164.647,264.208,151.124,255.652,146.241,241.31
		z M222.296,353.488c-1.645,3.566-5.234,5.862-9.145,5.862h-7.11c-3.459,0-6.627-1.738-8.479-4.638
		c-1.867-2.892-2.128-6.489-0.689-9.635l84.16-183.09c1.638-3.566,5.227-5.862,9.161-5.862h7.11c3.444,0,6.612,1.722,8.472,4.63
		c1.868,2.9,2.12,6.505,0.689,9.635L222.296,353.488z M358.282,310.456c-0.337,0.719-0.735,1.561-1.209,2.915
		c-4.876,14.35-18.39,22.914-36.169,22.914c-17.762,0-31.278-8.564-36.16-22.898c-0.475-1.37-0.88-2.212-1.209-2.916
		c-0.987-2.089-1.316-2.793-1.316-16.706c0-13.898,0.329-14.602,1.309-16.683c0.337-0.712,0.742-1.561,1.209-2.947
		c4.89-14.319,18.405-22.867,36.168-22.867c17.778,0,31.293,8.548,36.161,22.867c0.482,1.393,0.888,2.242,1.217,2.947
		c0.994,2.097,1.324,2.801,1.324,16.683C359.606,307.662,359.277,308.366,358.282,310.456z"/>
	<path fill="currentColor" d="M332.155,278.894c-1.339-4.714-5.541-7.508-11.25-7.508c-5.693,0-9.902,2.794-11.525,7.676
		c-1.209,0.421-1.232,0.429-1.232,14.702c0,14.25,0.023,14.265,1.492,14.877c1.37,4.714,5.572,7.493,11.265,7.493
		c5.71,0,9.903-2.778,11.525-7.646c1.209-0.459,1.233-0.475,1.233-14.724C333.663,279.491,333.639,279.484,332.155,278.894z"/>
	<path fill="currentColor" d="M193.644,206.826c-1.331-4.714-5.541-7.516-11.242-7.516c-5.709,0-9.91,2.802-11.518,7.676
		c-1.217,0.421-1.247,0.437-1.247,14.694c0,14.273,0.03,14.273,1.5,14.878c1.362,4.714,5.556,7.508,11.265,7.508
		c5.701,0,9.903-2.794,11.518-7.653c1.209-0.459,1.233-0.459,1.233-14.732C195.152,207.423,195.128,207.407,193.644,206.826z"/>
</g>
</svg>