<?xml version="1.0" encoding="utf-8"?>

<!DOCTYPE svg PUBLIC "-//W3C//DTD SVG 1.1//EN" "http://www.w3.org/Graphics/SVG/1.1/DTD/svg11.dtd">
<!-- Uploaded to: SVG Repo, www.svgrepo.com, Generator: SVG Repo Mixer Tools -->
<svg version="1.1" id="_x32_" xmlns="http://www.w3.org/2000/svg" xmlns:xlink="http://www.w3.org/1999/xlink" 
	 viewBox="0 0 512 512"  xml:space="preserve">
<style type="text/css">
	:root { color-scheme: dark light; }
</style>
<g>
	<path fill="currentColor" d="M206.03,378.213c-7.507-11.96-28.69-14.262-43.58-5.79c-14.903,8.465-19.9,1.282-19.9,1.282
		s-14.917-31.964-15.317-117.476c-0.4-85.518,14.22-117.626,14.22-117.626s4.936-7.224,19.922,1.103
		c14.965,8.327,36.121,5.839,43.517-6.197c7.417-12.016,27.063-71.105,29.462-93.88c2.378-22.789-23.823-35.866-31.289-37.031
		C195.586,1.42,120.835-15,81.309,52.313c-39.526,67.333-52.589,139.63-52.292,204.372c0.296,64.728,14.035,136.921,54.188,203.875
		c40.14,66.941,114.745,49.832,122.204,48.584c7.458-1.241,33.535-14.559,30.957-37.313
		C233.747,449.062,213.55,390.18,206.03,378.213z"/>
	<rect x="321.382" y="136.245" fill="currentColor" width="161.606" height="48.404"/>
	<rect x="228.329" y="136.245" fill="currentColor" width="47.322" height="48.404"/>
	<rect x="321.382" y="235.205" fill="currentColor" width="161.606" height="48.405"/>
	<rect x="228.329" y="235.205" fill="currentColor" width="47.322" height="48.405"/>
	<rect x="321.382" y="334.165" fill="currentColor" width="161.606" height="48.405"/>
	<rect x="228.329" y="334.165" fill="currentColor" width="47.322" height="48.405"/>
</g>
</svg>