<?xml version="1.0" encoding="utf-8"?>

<!DOCTYPE svg PUBLIC "-//W3C//DTD SVG 1.1//EN" "http://www.w3.org/Graphics/SVG/1.1/DTD/svg11.dtd">
<!-- Uploaded to: SVG Repo, www.svgrepo.com, Generator: SVG Repo Mixer Tools -->
<svg version="1.1" id="_x32_" xmlns="http://www.w3.org/2000/svg" xmlns:xlink="http://www.w3.org/1999/xlink" 
	 width="800px" height="800px" viewBox="0 0 512 512"  xml:space="preserve">
<style type="text/css">
<![CDATA[
	:root { color-scheme: dark light; }
]]>
</style>
<g>
	<path fill="currentColor" d="M263.069,361.766c0,24.359,0.219,55.828-16.25,52.797c-33-6.078-49.609-146.094-132.438-179.516
		c-43.797-17.672-64.422-7.297-48.953,2.219c45.766,28.156,70.063,87.078,90.969,158.156C180.178,476.281,222.459,512,279.303,512
		s136.328-40.469,143.469-145.109C425.694,324.109,256.288,316.938,263.069,361.766z M288.006,362.094l-0.063-0.516
		c-0.281-1.797,0.156-3.203,1.469-4.719c5.703-6.641,23.656-10.922,45.734-10.922c26.859,0,52.266,6.313,60.406,15.031
		c2.172,2.328,2.359,4.047,2.25,5.125C394.975,395.547,289.616,387.734,288.006,362.094z"/>
	<path fill="currentColor" d="M451.679,91.531C451.679,40.969,410.709,0,360.163,0c-44.813,0-82.047,32.25-89.922,74.797
		c-32.266,6.844-56.5,35.484-56.5,69.797c0,32.609,21.875,60.047,51.734,68.594c-0.281,2.109-0.484,4.25-0.484,6.453
		c0,26.281,21.313,47.594,47.594,47.594c5.375,0,10.531-0.938,15.344-2.578l13.938,50.156l36.609-58.563
		c38.406,0,69.547-31.141,69.547-69.563c0-15.578-5.188-29.906-13.844-41.5C445.147,130.094,451.679,111.594,451.679,91.531z"/>
</g>
</svg>