<?xml version="1.0" encoding="utf-8"?>

<!DOCTYPE svg PUBLIC "-//W3C//DTD SVG 1.1//EN" "http://www.w3.org/Graphics/SVG/1.1/DTD/svg11.dtd">
<!-- Uploaded to: SVG Repo, www.svgrepo.com, Generator: SVG Repo Mixer Tools -->
<svg version="1.1" id="_x32_" xmlns="http://www.w3.org/2000/svg" xmlns:xlink="http://www.w3.org/1999/xlink" 
	 width="800px" height="800px" viewBox="0 0 512 512"  xml:space="preserve">
<style type="text/css">
<![CDATA[
	:root { color-scheme: dark light; }
]]>
</style>
<g>
	<path fill="currentColor" d="M421.813,327.728c32.953-49.156,5.344-115.031-57.219-127.203c32.453-30.547,7-75.625-28.5-91.594
		c-18.031-8.109-24.891-17.688-30.875-27.672c-11.469-19.078-15.688-46.438-45.813-62.016c-20.75-10.75-50.094-13.609-65.844-4.297
		c-10.594,6.25,1.688,9.125,10.75,16.453c15.031,12.172,15.75,31.484,2.594,47c-16.906,19.984-30.5,24.797-45.781,30.531
		c-36.438,13.656-61.531,61.047-29.094,91.594c-63.5,12.359-90.563,80.063-55.172,129.438C32.844,340.243,0,379.649,0,426.821
		c0,30.406,13.672,57.578,35.156,75.844h441.688C498.313,484.399,512,457.228,512,426.821
		C512,374.993,472.406,332.462,421.813,327.728z"/>
</g>
</svg>