<?xml version="1.0" encoding="utf-8"?>

<!DOCTYPE svg PUBLIC "-//W3C//DTD SVG 1.1//EN" "http://www.w3.org/Graphics/SVG/1.1/DTD/svg11.dtd">
<!-- Uploaded to: SVG Repo, www.svgrepo.com, Generator: SVG Repo Mixer Tools -->
<svg height="800px" width="800px" version="1.1" id="_x32_" xmlns="http://www.w3.org/2000/svg" xmlns:xlink="http://www.w3.org/1999/xlink" 
	 viewBox="0 0 512 512"  xml:space="preserve">
<style type="text/css">
	:root { color-scheme: dark light; }
</style>
<g>
	<path fill="currentColor" d="M487.463,197.029c0.008-29.326-11.942-56.052-31.172-75.249c-19.205-19.237-45.923-31.188-75.257-31.172
		c-21.092-0.016-40.831,6.194-57.397,16.825c-2.008-25.366,3.174-52.838,20.176-84.422L67.748,0
		c40.264,74.788,37.333,149.568,6.259,204.737c-22.541,40.045-49.47,79.354-49.47,128.928c0,68.91,37.714,127.035,90.568,163.436
		C136.722,512,179.73,512,217.258,512c37.527,0,80.535,0,102.154-14.898c52.854-36.402,90.568-94.526,90.568-163.436
		c0-11.577-1.514-22.572-4.048-33.171c19.383-4.656,36.766-14.598,50.36-28.209C475.521,253.09,487.472,226.363,487.463,197.029z
		 M444.649,223.893c-5.222,12.372-14.007,22.946-25.034,30.394c-7.789,5.255-16.663,8.906-26.249,10.639
		c-9.506-20.768-21.707-40.393-32.856-60.189c-10.72-19.027-20.808-37.65-27.795-56.951c3.004-2.948,6.242-5.651,9.74-8.008
		c11.035-7.448,24.224-11.772,38.58-11.78c9.578,0,18.614,1.935,26.864,5.416c12.363,5.222,22.946,14.008,30.387,25.034
		c7.448,11.036,11.772,24.217,11.788,38.58C450.073,206.615,448.138,215.643,444.649,223.893z"/>
</g>
</svg>