<?xml version="1.0" encoding="utf-8"?>

<!DOCTYPE svg PUBLIC "-//W3C//DTD SVG 1.1//EN" "http://www.w3.org/Graphics/SVG/1.1/DTD/svg11.dtd">
<!-- Uploaded to: SVG Repo, www.svgrepo.com, Generator: SVG Repo Mixer Tools -->
<svg height="800px" width="800px" version="1.1" id="_x32_" xmlns="http://www.w3.org/2000/svg" xmlns:xlink="http://www.w3.org/1999/xlink" 
	 viewBox="0 0 512 512"  xml:space="preserve">
<style type="text/css">
	:root { color-scheme: dark light; }
</style>
<g>
	<path fill="currentColor" d="M210.856,252.749c1.366,0.816,2.869,1.684,4.432,2.706l7.198-11.063c-1.924-1.254-3.651-2.233-4.853-2.963
		c-33.567-20.073-56.002-56.706-56.002-98.63c-0.009-44.81,25.665-83.606,63.096-102.529l0.078-0.034
		c11.32-5.91,21.826-8.366,31.333-8.366c16.294,0.018,30.01,7.189,39.974,18.382c9.93,11.174,15.796,26.36,15.779,41.614
		c0,5.36-0.713,10.736-2.208,15.976c-13.494,47.267-29.039,102.16-36.538,133.786l12.832,3.04
		c7.361-31.059,22.908-86.003,36.384-133.201c1.847-6.458,2.723-13.064,2.723-19.6c-0.018-18.604-7.009-36.71-19.103-50.366
		c-12.059-13.657-29.52-22.848-49.843-22.83c-11.784,0-24.423,3.092-37.354,9.826l0,0c-0.013,0.008-0.026,0.017-0.043,0.017
		c-0.013,0.018-0.026,0.018-0.043,0.026v0.009c-41.679,21.087-70.251,64.341-70.26,114.253
		C148.438,189.516,173.467,230.409,210.856,252.749z"/>
	<path fill="currentColor" d="M220.956,366.96v-0.026c-0.61,39.098-21.12,76.847-57.436,97.806c-18.088,10.444-37.8,15.392-57.272,15.4
		c-22.324,0-44.328-6.528-63.078-18.793l-0.069-0.043c-21.688-13.914-29.813-31.599-29.907-48.984
		c-0.009-13.013,4.818-25.982,13.055-36.504c8.229-10.53,19.782-18.526,32.982-21.824c47.678-11.922,102.984-25.914,134.137-35.233
		l-3.779-12.643c-30.603,9.165-85.943,23.174-133.561,35.078c-32.579,8.28-55.907,38.634-56.027,71.127
		c-0.095,21.782,11.054,44.346,36.023,60.116l0.004-0.009c20.889,13.648,45.36,20.906,70.221,20.906
		c21.714,0,43.745-5.539,63.869-17.169c40.472-23.345,63.371-65.484,64.032-109.022v-0.025c0.018-1.564,0.018-3.334,0.095-5.223
		l-13.176-0.55C220.974,363.558,220.974,365.516,220.956,366.96z"/>
	<path fill="currentColor" d="M512,401.668c0.009-44.226-22.958-87.275-64.024-110.963c-20.132-11.648-42.173-17.188-63.886-17.188
		c-21.869,0-43.436,5.609-62.52,16.251c-1.409,0.782-2.921,1.658-4.596,2.525l6.081,11.715c1.993-1.039,3.686-2.018,4.931-2.706
		c17.126-9.551,36.486-14.593,56.104-14.593c19.48,0.008,39.192,4.956,57.289,15.418c36.848,21.25,57.419,59.832,57.427,99.54
		c0,2.122-0.06,4.252-0.18,6.373v0.085c-0.91,20.357-8.219,34.494-18.544,43.908c-10.35,9.388-24.076,14.061-38.136,14.069
		c-16.276,0.009-32.742-6.312-44.303-18.286c-34.202-35.335-73.978-76.254-97.624-98.543l-9.053,9.602
		c23.234,21.894,63.045,62.83,97.195,98.114c14.327,14.782,34.167,22.298,53.785,22.306c16.947,0,33.927-5.643,47-17.487
		c13.064-11.802,21.877-29.779,22.848-53.038h0.009C511.931,406.4,512,404.03,512,401.668z"/>
	<path fill="currentColor" d="M312.629,303.228c0-31.556-25.57-57.118-57.11-57.118c-31.548,0-57.118,25.562-57.118,57.118
		c0,31.539,25.57,57.101,57.118,57.109C287.058,360.329,312.629,334.767,312.629,303.228z M255.519,347.144
		c-12.153-0.008-23.096-4.904-31.058-12.866c-7.962-7.962-12.866-18.906-12.866-31.05c0-12.154,4.904-23.096,12.866-31.059
		c7.962-7.961,18.905-12.866,31.058-12.866c12.146,0,23.088,4.905,31.05,12.866c7.962,7.962,12.867,18.905,12.867,31.059
		c0,12.145-4.904,23.088-12.867,31.05C278.607,342.239,267.665,347.136,255.519,347.144z"/>
	<path fill="currentColor" d="M255.519,275.356c-15.392,0.009-27.871,12.48-27.871,27.872c0.008,15.392,12.48,27.855,27.871,27.863
		c15.401-0.008,27.864-12.48,27.864-27.863C283.383,287.836,270.92,275.356,255.519,275.356z M255.519,317.898
		c-8.108-0.017-14.662-6.579-14.678-14.67c0.017-8.108,6.57-14.67,14.678-14.679c8.1,0.009,14.653,6.571,14.671,14.679
		C270.172,311.318,263.619,317.881,255.519,317.898z"/>
</g>
</svg>