<?xml version="1.0" encoding="utf-8"?>

<!DOCTYPE svg PUBLIC "-//W3C//DTD SVG 1.1//EN" "http://www.w3.org/Graphics/SVG/1.1/DTD/svg11.dtd">
<!-- Uploaded to: SVG Repo, www.svgrepo.com, Generator: SVG Repo Mixer Tools -->
<svg height="800px" width="800px" version="1.1" id="_x32_" xmlns="http://www.w3.org/2000/svg" xmlns:xlink="http://www.w3.org/1999/xlink" 
	 viewBox="0 0 512 512"  xml:space="preserve">
<style type="text/css">
	:root { color-scheme: dark light; }
</style>
<g>
	<path fill="currentColor" d="M448.635,297.899c-40.042-23.119-87.464-21.894-125.119-0.914c-4.251,2.378-11.262,6.656-19.569,7.455
		c-0.217-21.068-12.806-39.172-30.844-47.4c0-6.469,0-16.862,0-29.712c0-57.676,0-164.385,0-183.11
		c0-25.888-25.533-31.328-37.326-27.698c-51.749,15.93-89.364,64.128-89.364,121.112c0,46.237,24.769,86.688,61.768,108.804
		c4.17,2.503,11.386,6.425,16.231,13.205c-15.486,9.194-25.865,26.065-25.865,45.368c0,1.704,0.089,3.399,0.244,5.067
		c-5.596,3.222-14.604,8.422-25.732,14.847c-49.947,28.844-142.358,82.197-158.572,91.551c-22.426,12.957-14.372,37.78-5.329,46.184
		c39.674,36.848,100.217,45.332,149.56,16.844c40.051-23.127,62.695-64.803,63.352-107.907c0.071-4.864-0.129-13.072,3.328-20.661
		c7.641,4.305,16.453,6.78,25.856,6.78c11.418,0,21.978-3.639,30.609-9.806c5.6,3.23,14.603,8.432,25.741,14.866
		c49.946,28.833,142.353,82.188,158.576,91.551c22.427,12.948,39.9-6.443,42.652-18.486
		C520.902,383.07,497.978,326.395,448.635,297.899z"/>
</g>
</svg>