<?xml version="1.0" encoding="utf-8"?>

<!DOCTYPE svg PUBLIC "-//W3C//DTD SVG 1.1//EN" "http://www.w3.org/Graphics/SVG/1.1/DTD/svg11.dtd">
<!-- Uploaded to: SVG Repo, www.svgrepo.com, Generator: SVG Repo Mixer Tools -->
<svg height="800px" width="800px" version="1.1" id="_x32_" xmlns="http://www.w3.org/2000/svg" xmlns:xlink="http://www.w3.org/1999/xlink" 
	 viewBox="0 0 512 512"  xml:space="preserve">
<style type="text/css">
	:root { color-scheme: dark light; }
</style>
<g>
	<path fill="currentColor" d="M213.134,246.846c1.323,0.793,2.98,1.745,4.77,2.909c10.695-7.388,23.654-11.708,37.602-11.708
		c8.72,0,17.051,1.693,24.677,4.751c7.627-32.17,23.584-88.543,37.426-137.024c14.318-50.094-33.987-110.012-96.759-77.258
		c-40.626,20.524-68.487,62.649-68.487,111.281C152.362,185.289,176.722,225.078,213.134,246.846z"/>
	<path fill="currentColor" d="M189.771,313.921c-31.696,9.486-88.482,23.856-137.396,36.085C1.831,362.676-25.897,434.45,33.834,472.44
		c38.104,24.933,88.526,28,130.624,3.676c39.409-22.738,61.688-63.734,62.34-106.149c0.018-1.543,0.018-3.456,0.107-5.563
		C207.271,354.988,192.971,336.227,189.771,313.921z"/>
	<path fill="currentColor" d="M449.67,297.478c-39.392-22.764-86.04-21.539-123.069-0.908c-1.366,0.758-3.006,1.71-4.893,2.688
		c0.142,1.711,0.212,3.456,0.212,5.211c0,21.142-9.927,40.009-25.382,52.193c24.06,22.677,64.906,64.687,99.987,100.93
		c36.226,37.453,112.268,25.586,115.283-45.157C514.339,366.978,491.794,321.786,449.67,297.478z"/>
	<path fill="currentColor" d="M255.505,252.611c-28.644,0-51.858,23.214-51.858,51.858c0,28.636,23.214,51.849,51.858,51.849
		c28.636,0,51.85-23.213,51.85-51.849C307.355,275.825,284.141,252.611,255.505,252.611z M255.505,326.3
		c-12.06,0-21.838-9.778-21.838-21.83c0-12.061,9.777-21.838,21.838-21.838c12.062,0,21.83,9.777,21.83,21.838
		C277.335,316.521,267.567,326.3,255.505,326.3z"/>
</g>
</svg>