<?xml version="1.0" encoding="utf-8"?>

<!DOCTYPE svg PUBLIC "-//W3C//DTD SVG 1.1//EN" "http://www.w3.org/Graphics/SVG/1.1/DTD/svg11.dtd">
<!-- Uploaded to: SVG Repo, www.svgrepo.com, Generator: SVG Repo Mixer Tools -->
<svg height="800px" width="800px" version="1.1" id="_x32_" xmlns="http://www.w3.org/2000/svg" xmlns:xlink="http://www.w3.org/1999/xlink" 
	 viewBox="0 0 512 512"  xml:space="preserve">
<style type="text/css">
	:root { color-scheme: dark light; }
</style>
<g>
	<polygon fill="currentColor" points="61.549,168.34 0,168.34 0,487.291 61.549,487.291 61.549,420.143 450.442,420.143 450.442,487.291 
		511.992,487.291 511.992,420.143 512,420.143 512,347.397 61.549,347.397 	"/>
	<path fill="currentColor" d="M459.655,226.389H237.82v87.434H512v-35.09C512,249.824,488.566,226.389,459.655,226.389z"/>
	<path fill="currentColor" d="M124.655,124.07c27.435,0,49.681-22.246,49.681-49.681c0-27.434-22.246-49.68-49.681-49.68
		c-27.442,0-49.68,22.246-49.68,49.68C74.975,101.824,97.213,124.07,124.655,124.07z"/>
	<path fill="currentColor" d="M140.213,149.619c-4.664-2.229-9.82-3.59-15.336-3.59h-6.082c-19.688,0-35.639,15.951-35.639,35.622v82.82
		c0,27.262,22.09,49.344,49.344,49.344h76.377V234.84h-48.361v-31.221l15.688,7.672c7.263,3.573,15.148,5.328,22.951,5.328
		c10.795,0,21.532-3.361,30.574-9.885l40.656-33.68c0.418-0.303,0.754-0.672,1.14-1.008l2.188,1.295l29.124,17.262l65.041-100.279
		l-5.844-1.336l-37.287-8.574l-25.533-23.467l-62.418,94.508l4.623,2.746l-34.32,21.172c-2.368,1.705-5.148,2.557-7.942,2.565
		c-2.033,0-4.049-0.451-5.951-1.376l-51.565-26.418C141.205,149.93,140.68,149.807,140.213,149.619z M347.516,98.577l-48.664,75.025
		l-18.64-11.049l42.484-69.68L347.516,98.577z M301.574,76.225l13.738,12.631l-39.771,65.23c-0.435-1-0.975-1.975-1.639-2.902
		c-4.246-5.885-11.787-7.877-18.254-5.418L301.574,76.225z"/>
</g>
</svg>