<?xml version="1.0" encoding="utf-8"?>

<!DOCTYPE svg PUBLIC "-//W3C//DTD SVG 1.1//EN" "http://www.w3.org/Graphics/SVG/1.1/DTD/svg11.dtd">
<!-- Uploaded to: SVG Repo, www.svgrepo.com, Generator: SVG Repo Mixer Tools -->
<svg height="800px" width="800px" version="1.1" id="_x32_" xmlns="http://www.w3.org/2000/svg" xmlns:xlink="http://www.w3.org/1999/xlink" 
	 viewBox="0 0 512 512"  xml:space="preserve">
<style type="text/css">
	:root { color-scheme: dark light; }
</style>
<g>
	<path fill="currentColor" d="M61.429,355.664l-8.526-26.171l9.907-3.227l18.279,22.993l13.248-4.324l-20.62-24.57
		c0.927-0.91,1.992-2.462,2.731-4.023c1.585-3.348,1.87-7.566,1.853-9.59c-0.024-2.032-0.423-4.218-1.178-6.551
		c-0.902-2.763-2.17-5.218-3.812-7.372c-1.65-2.153-3.584-3.852-5.811-5.136c-2.244-1.276-4.714-2.065-7.42-2.382
		c-2.715-0.3-5.543,0.033-8.502,0.992l-22.961,7.477l21.376,65.606L61.429,355.664z M43.776,301.485l10.785-3.52
		c2.519-0.82,4.796-0.674,6.827,0.431c2.024,1.105,3.462,2.95,4.308,5.527c0.829,2.576,0.756,4.917-0.228,7.005
		c-0.991,2.089-2.739,3.544-5.267,4.365l-10.777,3.503L43.776,301.485z"/>
	<polygon fill="currentColor" points="128.84,261.14 90.258,273.705 111.625,339.311 150.207,326.746 146.484,315.318 119.338,324.161 
		114.145,308.223 137.26,300.689 133.537,289.261 110.43,296.796 105.415,281.41 132.562,272.559 	"/>
	<path fill="currentColor" d="M177.239,305.915c-1.918,0.626-3.527,0.756-4.828,0.398c-1.292-0.358-2.584-0.902-3.852-1.642l-8.055,7.095
		c3.43,3.991,9.038,6.494,11.703,6.746c2.658,0.252,5.584-0.138,8.754-1.179c2.69-0.87,5.128-2.194,7.315-3.958
		c2.186-1.764,3.934-3.877,5.258-6.348c1.317-2.471,2.081-5.258,2.309-8.396c0.219-3.13-0.26-6.51-1.439-10.127l-14.345-44.052
		l-11.428,3.731l14.167,43.491c1.243,3.804,1.316,6.9,0.252,9.282C181.97,303.354,180.043,304.997,177.239,305.915z"/>
	<polygon fill="currentColor" points="237.961,225.597 199.379,238.163 220.747,303.769 259.328,291.204 255.606,279.776 228.46,288.611 
		223.266,272.68 246.373,265.154 242.65,253.736 219.543,261.254 214.537,245.868 241.675,237.025 	"/>
	<path fill="currentColor" d="M274.665,226.695c1.032-1.016,2.34-1.789,3.942-2.309c2.836-0.918,5.316-0.772,7.429,0.488
		c2.105,1.244,3.901,3.121,5.381,5.64l11.688-3.819c-3.349-6.518-7.518-10.884-12.509-13.094c-4.99-2.211-10.232-2.43-15.718-0.642
		c-3.397,1.114-6.169,2.674-8.299,4.689c-2.13,2.024-3.861,4.471-5.169,7.34c-0.943,2.146-1.52,4.242-1.731,6.275
		c-0.212,2.04-0.155,4.177,0.179,6.421c0.341,2.226,0.87,4.616,1.609,7.168c0.74,2.544,1.61,5.389,2.642,8.51
		c1.016,3.137,1.983,5.949,2.877,8.444c0.91,2.487,1.886,4.731,2.926,6.738c1.049,2.008,2.26,3.771,3.641,5.291
		c1.366,1.528,3.064,2.869,5.088,4.047c2.747,1.545,5.584,2.512,8.502,2.886c2.901,0.382,6.055,0.008,9.46-1.097
		c5.486-1.789,9.598-5.04,12.33-9.769c2.73-4.731,3.535-10.712,2.389-17.946l-11.59,3.771c0.26,2.902-0.089,5.478-1.081,7.729
		c-0.991,2.268-2.918,3.861-5.77,4.796c-1.593,0.512-3.097,0.666-4.536,0.455c-1.438-0.212-2.73-0.708-3.892-1.479
		c-0.772-0.496-1.48-1.114-2.113-1.862c-0.634-0.747-1.277-1.755-1.942-3.039c-0.658-1.284-1.374-2.926-2.162-4.958
		c-0.772-2.016-1.674-4.592-2.698-7.729c-1.016-3.13-1.813-5.738-2.374-7.835c-0.553-2.089-0.943-3.852-1.162-5.283
		c-0.22-1.406-0.293-2.609-0.22-3.592c0.073-0.975,0.276-1.886,0.602-2.747C272.869,228.865,273.625,227.71,274.665,226.695z"/>
	<polygon fill="currentColor" points="328.234,208.838 345.879,263.017 357.315,259.287 339.662,205.108 354.974,200.126 351.252,188.698 
		309.215,202.393 312.938,213.812 	"/>
	<polygon fill="currentColor" points="404.781,171.264 366.198,183.83 387.558,249.436 426.148,236.87 422.426,225.444 395.279,234.286 
		390.085,218.339 413.201,210.814 409.486,199.394 386.372,206.92 381.356,191.527 408.502,182.692 	"/>
	<path fill="currentColor" d="M467.769,172.004c-0.829-1.804-1.755-3.406-2.787-4.804c-1.033-1.398-2.219-2.649-3.552-3.788
		c-3.169-2.641-6.429-4.259-9.777-4.868c-3.348-0.602-7.03-0.252-11.029,1.049l-21.14,6.884l21.359,65.606l21.148-6.892
		c3.999-1.301,7.185-3.186,9.534-5.648c2.348-2.463,4.023-5.69,5.031-9.689c0.414-1.698,0.634-3.421,0.642-5.152
		c0.008-1.731-0.178-3.576-0.577-5.519c-0.39-1.951-0.918-4.047-1.601-6.315c-0.674-2.251-1.447-4.738-2.325-7.445
		c-0.886-2.698-1.714-5.153-2.503-7.388C469.411,175.816,468.598,173.8,467.769,172.004z M464.518,207.245
		c-1.049,3.34-3.454,5.608-7.233,6.844l-8.722,2.845l-13.922-42.76l8.712-2.836c3.788-1.235,7.071-0.805,9.883,1.268
		c0.781,0.561,1.48,1.252,2.081,2.073c0.593,0.82,1.204,1.877,1.797,3.137c0.593,1.268,1.227,2.829,1.885,4.682
		c0.666,1.861,1.414,4.072,2.26,6.656c0.837,2.585,1.536,4.811,2.097,6.714c0.56,1.885,0.959,3.519,1.227,4.892
		c0.268,1.374,0.39,2.568,0.399,3.584C464.974,205.368,464.827,206.335,464.518,207.245z"/>
	<polygon fill="currentColor" points="198.03,121.604 208.661,110.673 223.697,113.241 216.586,99.758 223.68,86.25 208.652,88.834 
		197.998,77.927 195.819,93.02 182.149,99.774 195.827,106.511 	"/>
	<polygon fill="currentColor" points="313.97,390.41 303.331,401.325 288.304,398.772 295.407,412.257 288.32,425.756 303.348,423.164 
		313.995,434.079 316.181,418.986 329.844,412.224 316.173,405.495 	"/>
	<path fill="currentColor" d="M467.81,111.982l-30.397,9.899c-0.951-1.276-1.804-2.625-2.78-3.877c-20.271-26.26-46.661-48.108-76.311-63.16
		C304.6,27.519,243.447,22.748,186.131,41.417C128.799,60.095,82.179,99.961,54.853,153.676
		C39.768,183.31,31.3,216.502,30.357,249.68c-0.049,1.584,0.056,3.186,0.041,4.779L0,264.358l4.154,12.753L471.971,124.75
		L467.81,111.982z M47.376,242.333c1.837-28.326,9.355-55.61,22.319-81.106c25.317-49.765,68.49-86.697,121.58-103.993
		c53.082-17.279,109.732-12.866,159.497,12.443c25.512,12.98,47.644,30.618,65.802,52.407c1.43,1.715,2.649,3.527,4.023,5.275
		l-84.82,27.626c-1.447-1.138-2.87-2.324-4.349-3.389c-5.348-3.876-11.086-7.371-17.044-10.403
		c-30.624-15.597-65.492-18.327-98.376-7.615c-32.681,10.639-59.242,33.38-74.807,64.029c-3.04,5.966-5.616,12.168-7.656,18.442
		c-0.568,1.731-1.016,3.536-1.512,5.307l-84.796,27.617C47.311,246.754,47.23,244.552,47.376,242.333z M320.001,160.13
		L147.81,216.218c0.934-2.552,1.861-5.121,2.966-7.575c0.764-1.674,1.536-3.324,2.374-4.966
		c13.995-27.463,37.826-47.839,67.118-57.381c29.292-9.542,60.551-7.104,88.039,6.851c1.641,0.83,3.242,1.707,4.852,2.618
		C315.498,157.098,317.749,158.618,320.001,160.13z"/>
	<path fill="currentColor" d="M512,247.656l-4.153-12.752L40.029,387.264l4.161,12.76l30.422-9.908c0.95,1.276,1.812,2.634,2.788,3.885
		c20.238,26.228,46.62,48.058,76.294,63.128c53.715,27.349,114.868,32.128,172.208,13.451
		c57.332-18.678,103.953-58.552,131.253-112.283c15.11-29.69,23.571-62.875,24.48-95.963c0.049-1.65,0.041-3.211,0.049-4.804
		L512,247.656z M364.167,295.804c-0.935,2.536-1.845,5.088-2.967,7.558c-0.731,1.666-1.536,3.332-2.357,4.933
		c-13.979,27.48-37.809,47.872-67.109,57.414c-29.3,9.542-60.576,7.103-88.047-6.876c-1.61-0.812-3.243-1.682-4.82-2.601
		c-2.357-1.341-4.592-2.86-6.844-4.356L364.167,295.804z M464.624,269.674c-1.828,28.317-9.33,55.601-22.294,81.098
		c-25.318,49.765-68.5,86.697-121.581,103.993c-53.09,17.287-109.723,12.874-159.497-12.444
		c-25.488-12.964-47.62-30.592-65.776-52.407c-1.414-1.69-2.666-3.536-4.032-5.284l84.788-27.61c1.447,1.139,2.861,2.317,4.356,3.39
		c5.429,3.909,11.151,7.412,17.028,10.411c30.632,15.598,65.533,18.312,98.271,7.648c32.738-10.664,59.347-33.413,74.92-64.062
		c2.983-5.876,5.551-12.078,7.625-18.433c0.576-1.748,1.024-3.536,1.52-5.307l84.828-27.634
		C464.697,265.252,464.779,267.471,464.624,269.674z"/>
	<polygon fill="currentColor" points="119.769,186.707 132.213,177.897 117.64,173.378 113.112,158.821 104.31,171.281 89.071,171.094 
		98.199,183.31 93.313,197.76 107.748,192.844 119.972,201.954 	"/>
	<polygon fill="currentColor" points="392.232,325.291 379.788,334.109 394.361,338.62 398.888,353.177 407.69,340.725 422.937,340.904 
		413.81,328.696 418.687,314.254 404.252,319.154 392.028,310.044 	"/>
	<polygon fill="currentColor" points="186.7,392.23 177.89,379.787 173.379,394.352 158.822,398.895 171.274,407.68 171.087,422.928 
		183.302,413.801 197.746,418.694 192.836,404.25 201.956,392.027 	"/>
	<polygon fill="currentColor" points="325.284,119.776 334.103,132.211 338.614,117.646 353.178,113.12 340.718,104.318 340.906,89.07 
		328.69,98.197 314.239,93.312 319.156,107.747 310.037,119.971 	"/>
</g>
</svg>