<?xml version="1.0" encoding="utf-8"?>

<!DOCTYPE svg PUBLIC "-//W3C//DTD SVG 1.1//EN" "http://www.w3.org/Graphics/SVG/1.1/DTD/svg11.dtd">
<!-- Uploaded to: SVG Repo, www.svgrepo.com, Generator: SVG Repo Mixer Tools -->
<svg version="1.1" id="_x32_" xmlns="http://www.w3.org/2000/svg" xmlns:xlink="http://www.w3.org/1999/xlink" 
	 width="800px" height="800px" viewBox="0 0 512 512"  xml:space="preserve">
<style type="text/css">
<![CDATA[
	:root { color-scheme: dark light; }
]]>
</style>
<g>
	<path fill="currentColor" d="M271.313,165.586H243.25c-23.813,0-43.141,21-43.141,46.922v96.172c0,25.891,19.328,46.891,43.141,46.891
		h28.063c23.844,0,43.172-21,43.172-46.891v-96.172C314.484,186.586,295.156,165.586,271.313,165.586z"/>
	<path fill="currentColor" d="M154.938,177.117l-88.328-56.484c-13.672-8.75-30.594-8.875-44.359-0.313C8.484,128.898,0,144.805,0,162.023
		v93.984v93.969c0,17.234,8.484,33.141,22.25,41.688c13.766,8.578,30.688,8.453,44.359-0.281l88.328-56.469
		c13.5-8.625,21.781-24.391,21.781-41.406v-37.5v-37.5C176.719,201.477,168.438,185.727,154.938,177.117z"/>
	<path fill="currentColor" d="M489.75,120.32c-13.766-8.563-30.703-8.438-44.344,0.313l-88.328,56.484
		c-13.516,8.609-21.813,24.359-21.813,41.391v37.5v37.5c0,17.016,8.297,32.781,21.813,41.406l88.328,56.469
		c13.641,8.734,30.578,8.859,44.344,0.281c13.75-8.547,22.25-24.453,22.25-41.688v-93.969v-93.984
		C512,144.805,503.5,128.898,489.75,120.32z"/>
</g>
</svg>