<?xml version="1.0" encoding="utf-8"?>

<!DOCTYPE svg PUBLIC "-//W3C//DTD SVG 1.1//EN" "http://www.w3.org/Graphics/SVG/1.1/DTD/svg11.dtd">
<!-- Uploaded to: SVG Repo, www.svgrepo.com, Generator: SVG Repo Mixer Tools -->
<svg height="800px" width="800px" version="1.1" id="_x32_" xmlns="http://www.w3.org/2000/svg" xmlns:xlink="http://www.w3.org/1999/xlink" 
	 viewBox="0 0 512 512"  xml:space="preserve">
<style type="text/css">
	:root { color-scheme: dark light; }
</style>
<g>
	<path fill="currentColor" d="M492.481,19.524C479.348,6.381,462.152-0.702,445.287,0.06c-11.549,0.527-28.452,4.894-43.344,22.756
		c-16.083,19.318-53.467,59.876-93.02,102.82l-0.84,0.918c-14.773,14.568-28.688,15.388-58.489,15.868
		c-30.954,0.478-69.51,1.095-120.065,24.662C52.983,202.768,26.21,246.932,11.437,281.424
		C-13.459,339.6,2.33,397.523,58.416,453.588c56.066,56.076,113.988,71.875,172.164,46.96
		c34.492-14.774,78.637-41.527,114.32-118.072c23.587-50.575,24.193-89.112,24.682-120.086c0.469-29.781,1.29-43.696,15.868-58.469
		l0.9-0.84c42.954-39.573,83.522-76.937,102.849-93.039c17.842-14.872,22.219-31.776,22.746-43.325
		C512.707,49.852,505.613,32.636,492.481,19.524z M472.293,89.777c-20.03,16.688-61.616,55.02-105.154,95.13
		c-45.396,45.406-2.99,93.889-46.139,186.43c-33.67,72.188-73.887,93.43-100.816,104.959c-49.285,21.116-96.009,5.745-143.125-41.36
		c-47.096-47.106-62.476-93.83-41.35-143.124c11.51-26.92,32.772-67.157,104.959-100.807c92.531-43.148,141.014-0.743,186.43-46.148
		c40.1-43.53,78.442-85.126,95.13-105.146c16.689-20.031,38.244-14.891,51.591-1.544C487.185,51.514,492.324,73.088,472.293,89.777z
		"/>
</g>
</svg>