<?xml version="1.0" encoding="utf-8"?>

<!DOCTYPE svg PUBLIC "-//W3C//DTD SVG 1.1//EN" "http://www.w3.org/Graphics/SVG/1.1/DTD/svg11.dtd">
<!-- Uploaded to: SVG Repo, www.svgrepo.com, Generator: SVG Repo Mixer Tools -->
<svg height="800px" width="800px" version="1.1" id="_x32_" xmlns="http://www.w3.org/2000/svg" xmlns:xlink="http://www.w3.org/1999/xlink" 
	 viewBox="0 0 512 512"  xml:space="preserve">
<style type="text/css">
	:root { color-scheme: dark light; }
</style>
<g>
	<path fill="currentColor" d="M245.598,53.784h20.805c-0.82-5.02,0.356-11.408,1.81-17.162c1.423-5.638,6.404-7.556,6.404-18.013
		C274.616,8.322,266.279,0,256.008,0c-10.271,0-18.608,8.322-18.608,18.608c0,10.457,4.966,12.375,6.404,18.013
		C245.257,42.376,246.417,48.764,245.598,53.784z"/>
	<path fill="currentColor" d="M266.402,458.208h-20.805c0.82,5.026-0.34,11.408-1.794,17.169c-1.438,5.639-6.404,7.556-6.404,18.006
		c0,10.286,8.337,18.616,18.608,18.616c10.271,0,18.608-8.33,18.608-18.616c0-10.45-4.981-12.367-6.404-18.006
		C266.758,469.616,265.598,463.235,266.402,458.208z"/>
	<path fill="currentColor" d="M266.774,450.729c3.403,0,6.156-2.761,6.156-6.156c0-3.395-2.753-6.164-6.156-6.164h-21.548
		c-3.403,0-6.157,2.769-6.157,6.164c0,3.396,2.754,6.156,6.157,6.156H266.774z"/>
	<path fill="currentColor" d="M245.226,61.263c-3.403,0-6.157,2.776-6.157,6.164c0,3.395,2.754,6.156,6.157,6.156h21.548
		c3.403,0,6.156-2.761,6.156-6.156c0-3.388-2.753-6.164-6.156-6.164H245.226z"/>
	<path fill="currentColor" d="M92.243,109.517c5.104,3.017,10.441,6.729,13.411,10.851l14.711-14.71c-4.115-2.978-7.827-8.314-10.844-13.419
		c-2.985-4.997-0.836-9.854-8.229-17.263c-7.255-7.263-19.042-7.263-26.312,0c-7.255,7.27-7.255,19.05,0,26.312
		C82.389,108.682,87.246,106.532,92.243,109.517z"/>
	<path fill="currentColor" d="M419.757,402.482c-5.104-3.024-10.441-6.729-13.411-10.851l-14.711,14.71
		c4.114,2.97,7.828,8.314,10.859,13.412c2.97,4.997,0.836,9.861,8.23,17.263c7.254,7.27,19.026,7.27,26.296,0
		c7.27-7.263,7.27-19.042,0-26.304C429.626,403.31,424.754,405.46,419.757,402.482z"/>
	<path fill="currentColor" d="M401.319,377.377c-2.413-2.42-6.296-2.42-8.709,0l-15.237,15.229c-2.413,2.405-2.413,6.296,0,8.709
		c2.398,2.389,6.312,2.389,8.709,0l15.237-15.236C403.716,383.681,403.716,379.775,401.319,377.377z"/>
	<path fill="currentColor" d="M110.681,134.623c2.413,2.412,6.311,2.412,8.708,0l15.236-15.237c2.413-2.405,2.413-6.288,0-8.708
		c-2.397-2.382-6.296-2.382-8.709,0l-15.236,15.236C108.299,128.326,108.299,132.225,110.681,134.623z"/>
	<path fill="currentColor" d="M36.618,243.791c-5.63-1.43-7.548-6.396-18.005-6.396c-10.286,0-18.609,8.337-18.609,18.608
		c0,10.263,8.322,18.608,18.609,18.608c10.456,0,12.374-4.973,18.005-6.404c5.77-1.454,12.158-2.621,17.17-1.81v-20.798
		C48.776,246.413,42.388,245.253,36.618,243.791z"/>
	<path fill="currentColor" d="M493.402,237.395c-10.456,0-12.39,4.966-18.021,6.396c-5.754,1.462-12.143,2.622-17.169,1.81v20.798
		c5.026-0.82,11.416,0.356,17.169,1.81c5.631,1.431,7.564,6.389,18.021,6.389c10.272,0,18.594-8.33,18.594-18.594
		C511.996,245.732,503.674,237.395,493.402,237.395z"/>
	<path fill="currentColor" d="M444.584,239.073c-3.403,0-6.172,2.746-6.172,6.157v21.54c0,3.403,2.769,6.156,6.172,6.156
		c3.388,0,6.156-2.753,6.156-6.156v-21.54C450.741,241.819,447.972,239.073,444.584,239.073z"/>
	<path fill="currentColor" d="M73.588,266.77v-21.54c0-3.411-2.753-6.157-6.156-6.157c-3.388,0-6.157,2.746-6.157,6.157v21.54
		c0,3.403,2.769,6.156,6.157,6.156C70.835,272.926,73.588,270.173,73.588,266.77z"/>
	<path fill="currentColor" d="M92.243,402.482c-4.996,2.978-9.854,0.828-17.263,8.23c-7.255,7.262-7.255,19.042,0,26.304
		c7.27,7.27,19.057,7.27,26.312,0c7.393-7.402,5.244-12.266,8.229-17.263c3.017-5.097,6.729-10.442,10.844-13.412l-14.711-14.71
		C102.684,395.754,97.347,399.459,92.243,402.482z"/>
	<path fill="currentColor" d="M419.757,109.517c4.997-2.985,9.853-0.835,17.263-8.229c7.27-7.262,7.27-19.042,0-26.312
		c-7.271-7.263-19.042-7.263-26.296,0c-7.394,7.409-5.26,12.266-8.23,17.263c-3.032,5.104-6.745,10.441-10.859,13.419l14.711,14.71
		C409.316,116.246,414.653,112.534,419.757,109.517z"/>
	<path fill="currentColor" d="M392.61,134.623c2.397,2.412,6.296,2.412,8.709,0c2.397-2.398,2.397-6.296,0-8.71l-15.237-15.236
		c-2.397-2.382-6.31-2.382-8.709,0c-2.413,2.413-2.413,6.303,0,8.708L392.61,134.623z"/>
	<path fill="currentColor" d="M119.39,377.377c-2.397-2.42-6.295-2.42-8.708,0c-2.382,2.398-2.382,6.304,0,8.702l15.236,15.236
		c2.413,2.389,6.312,2.389,8.709,0c2.413-2.406,2.413-6.304,0-8.709L119.39,377.377z"/>
	<path fill="currentColor" d="M378.256,362.946c0.247-0.302,0.526-0.596,0.789-0.897v-0.008c22.074-25.593,36.336-58.224,38.934-94.026
		c0.046-0.41,0.046-0.812,0.077-1.198h13.489v-21.633h-13.489c-0.031-0.387-0.031-0.797-0.077-1.199
		c-2.598-35.802-16.86-68.432-38.934-94.025l-0.016-0.024c-0.263-0.301-0.541-0.588-0.773-0.882l9.512-9.536l-15.283-15.275
		l-9.528,9.521c-0.309-0.256-0.604-0.534-0.912-0.797v-0.016c-25.585-22.058-58.224-36.328-94.018-38.934
		c-0.418-0.039-0.805-0.047-1.207-0.062V80.468h-21.64v13.488c-0.386,0.015-0.789,0.023-1.206,0.062h0.015
		c-35.81,2.606-68.432,16.876-94.018,38.934l-0.015,0.016c-0.31,0.263-0.604,0.541-0.898,0.797l-9.528-9.521l-15.283,15.275
		l9.513,9.536c-0.248,0.302-0.526,0.588-0.789,0.897l-0.016,0.016l-0.062,0.062l0.046-0.039
		c-22.043,25.562-36.297,58.177-38.918,93.932l0.015-0.263l-0.015,0.287c0,0.007,0,0.023,0,0.038
		c-0.031,0.402-0.047,0.812-0.062,1.199H80.471v21.633H93.96c0.015,0.394,0.031,0.789,0.062,1.198
		c2.614,35.795,16.876,68.432,38.934,94.026l0.016,0.008c0.263,0.302,0.541,0.596,0.789,0.897l-9.513,9.536l15.283,15.275
		l9.528-9.521c0.294,0.255,0.588,0.534,0.898,0.805l0.17,0.139l-0.155-0.131c25.585,22.05,58.208,36.328,94.018,38.926h-0.015
		c0.418,0.047,0.82,0.054,1.206,0.07v13.48h21.64v-13.48c0.402-0.016,0.79-0.023,1.207-0.07
		c35.794-2.598,68.432-16.876,94.018-38.926l0.008-0.008l0.038-0.024l-0.031,0.008c0.31-0.263,0.603-0.534,0.897-0.789l9.528,9.521
		l15.283-15.275L378.256,362.946z M384.907,245.184h-89.903c-0.464-1.686-1.052-3.349-1.732-4.942
		c-0.603-1.423-1.3-2.824-2.058-4.161l63.576-63.591C371.696,192.49,382.617,217.595,384.907,245.184z M266.82,127.097
		c27.596,2.281,52.701,13.21,72.702,30.109l-63.606,63.583c-2.83-1.617-5.894-2.892-9.096-3.774V127.097z M245.18,127.097v89.91
		c-1.686,0.456-3.342,1.044-4.934,1.717c-1.423,0.61-2.831,1.3-4.161,2.065l-63.591-63.583
		C192.494,140.299,217.584,129.378,245.18,127.097z M157.21,172.489l63.591,63.599c-1.624,2.83-2.908,5.885-3.79,9.095h-89.903
		C129.382,217.595,140.303,192.49,157.21,172.489z M127.108,266.816h89.903c0.464,1.686,1.052,3.341,1.717,4.934
		c0.604,1.431,1.299,2.83,2.057,4.169l-63.575,63.591C140.303,319.502,129.382,294.405,127.108,266.816z M245.18,384.903
		c-27.596-2.282-52.686-13.21-72.686-30.117l63.575-63.576c2.832,1.61,5.894,2.885,9.111,3.775V384.903z M265.969,260.211
		c-0.789,1.918-2.196,3.597-3.929,4.764c-1.732,1.168-3.743,1.841-6.032,1.841c-1.547,0-2.908-0.294-4.207-0.851
		c-1.918-0.797-3.604-2.196-4.78-3.929c-1.175-1.74-1.84-3.743-1.84-6.032c0-1.547,0.31-2.915,0.866-4.215
		c0.789-1.918,2.196-3.597,3.913-4.765c1.748-1.167,3.759-1.84,6.048-1.84c1.532,0,2.908,0.294,4.208,0.843
		c1.918,0.804,3.604,2.196,4.78,3.929c1.144,1.748,1.824,3.751,1.824,6.048C266.82,257.535,266.526,258.912,265.969,260.211z
		 M266.82,384.903v-89.918c1.686-0.456,3.358-1.037,4.935-1.717c1.423-0.603,2.846-1.3,4.176-2.058l63.591,63.584
		C319.521,371.692,294.416,382.621,266.82,384.903z M354.79,339.511l-63.576-63.591c1.609-2.831,2.893-5.894,3.775-9.103h89.918
		C382.617,294.405,371.696,319.51,354.79,339.511z"/>
</g>
</svg>