<?xml version="1.0" encoding="utf-8"?>

<!DOCTYPE svg PUBLIC "-//W3C//DTD SVG 1.1//EN" "http://www.w3.org/Graphics/SVG/1.1/DTD/svg11.dtd">
<!-- Uploaded to: SVG Repo, www.svgrepo.com, Generator: SVG Repo Mixer Tools -->
<svg height="800px" width="800px" version="1.1" id="_x32_" xmlns="http://www.w3.org/2000/svg" xmlns:xlink="http://www.w3.org/1999/xlink" 
	 viewBox="0 0 512 512"  xml:space="preserve">
<style type="text/css">
	:root { color-scheme: dark light; }
</style>
<g>
	<path fill="currentColor" d="M485.334,232.808c-15.2,0-28.162,6.185-39.406,7.977c0,0-7.392,0.948-15.644,1.126
		c-1.511-18.993-6.059-37.169-13.185-53.984c-6.992-16.533-16.458-31.732-27.925-45.191c5.97-5.712,11.881-10.274,11.881-10.274
		c9.215-6.689,22.755-11.481,33.51-22.237c10.563-10.563,11.511-26.192,2.459-35.243c-9.066-9.059-24.696-8.111-35.244,2.46
		c-10.77,10.748-15.555,24.28-22.236,33.503c0,0-4.563,5.896-10.266,11.866c-4.948-4.208-10.118-8.148-15.511-11.792
		c-24.221-16.384-52.872-26.843-83.686-29.303c0.185-8.244,1.133-15.636,1.133-15.636c1.786-11.252,7.97-24.214,7.97-39.422
		C279.184,11.726,268.807,0,256,0c-12.807,0-23.185,11.726-23.185,26.658c0,15.207,6.186,28.17,7.97,39.422
		c0,0,0.948,7.392,1.133,15.636c-18.992,1.512-37.169,6.066-53.983,13.177c-16.533,6.992-31.74,16.466-45.199,27.933
		c-5.704-5.978-10.281-11.881-10.281-11.881c-6.682-9.215-11.466-22.755-22.229-33.503c-10.562-10.563-26.192-11.518-35.25-2.46
		c-9.052,9.052-8.096,24.68,2.459,35.243c10.762,10.756,24.296,15.548,33.51,22.237c0,0,5.896,4.562,11.858,10.266
		c-4.2,4.933-8.14,10.111-11.785,15.488c-16.377,24.236-26.843,52.887-29.303,83.694c-8.244-0.178-15.644-1.126-15.644-1.126
		c-11.244-1.785-24.199-7.977-39.406-7.977C11.733,232.808,0,243.193,0,256c0,12.807,11.726,23.177,26.666,23.177
		c15.207,0,28.162-6.177,39.406-7.97c0,0,7.393-0.942,15.644-1.126c1.518,18.992,6.066,37.169,13.185,53.984
		c6.992,16.533,16.459,31.74,27.918,45.191c-5.962,5.711-11.874,10.282-11.874,10.282c-9.215,6.688-22.748,11.481-33.51,22.236
		c-10.555,10.563-11.511,26.192-2.459,35.243c9.059,9.059,24.688,8.104,35.25-2.459c10.763-10.748,15.541-24.289,22.229-33.503
		c0,0,4.57-5.911,10.266-11.867c4.948,4.208,10.111,8.149,15.504,11.786c24.229,16.384,52.88,26.851,83.693,29.302
		c-0.185,8.245-1.133,15.644-1.133,15.644c-1.785,11.251-7.97,24.206-7.97,39.414C232.815,500.267,243.193,512,256,512
		c12.807,0,23.184-11.733,23.184-26.666c0-15.207-6.185-28.162-7.97-39.414c0,0-0.948-7.392-1.133-15.636
		c18.992-1.519,37.169-6.074,53.984-13.178c16.533-6.999,31.732-16.474,45.199-27.932c5.704,5.97,10.282,11.881,10.282,11.881
		c6.681,9.214,11.466,22.755,22.222,33.503c10.562,10.563,26.192,11.518,35.258,2.459c9.052-9.052,8.104-24.68-2.459-35.243
		c-10.756-10.755-24.296-15.548-33.51-22.236c0,0-5.896-4.563-11.866-10.266c4.207-4.941,8.148-10.111,11.792-15.496
		c16.385-24.236,26.844-52.888,29.303-83.694c8.252,0.185,15.644,1.126,15.644,1.126c11.244,1.792,24.206,7.97,39.406,7.97
		c14.933,0,26.666-10.37,26.666-23.177C512,243.193,500.267,232.808,485.334,232.808z M363.323,169.047
		c2.548,3.133,4.977,6.37,7.244,9.726c12.355,18.325,20.414,39.688,22.814,62.813h-88.923c-1.008-3.385-2.348-6.629-4-9.674
		L363.323,169.047z M270.407,118.604c13.837,1.43,27.051,4.904,39.362,10.103c12.014,5.082,23.169,11.837,33.184,19.963
		l-62.872,62.865c-3.045-1.652-6.289-2.993-9.674-4V118.604z M128.708,202.231c5.081-12.022,11.844-23.177,19.97-33.184
		l62.865,62.865c-1.652,3.052-2.993,6.289-4,9.674l-88.938,0.008C120.041,227.749,123.5,214.542,128.708,202.231z M148.678,342.946
		c-2.549-3.133-4.978-6.37-7.244-9.726c-12.355-18.318-20.422-39.688-22.814-62.82l88.923,0.008c1,3.385,2.348,6.629,4,9.682
		L148.678,342.946z M241.593,393.396c-13.836-1.437-27.051-4.904-39.362-10.103c-12.015-5.089-23.17-11.844-33.184-19.97
		l62.872-62.865c3.037,1.66,6.289,3,9.674,4.007V393.396z M241.593,207.534c-3.385,1.007-6.63,2.348-9.674,4.007l-62.872-62.864
		c3.141-2.548,6.371-4.97,9.726-7.237c18.318-12.37,39.688-20.429,62.821-22.822V207.534z M256,270.17
		c-7.829,0-14.17-6.34-14.17-14.17c0-7.83,6.341-14.17,14.17-14.17c7.829,0,14.17,6.34,14.17,14.17
		C270.17,263.829,263.829,270.17,256,270.17z M333.22,370.56c-18.318,12.362-39.688,20.428-62.813,22.822v-88.916
		c3.385-1.007,6.629-2.348,9.674-4.007l62.872,62.865C339.812,365.863,336.583,368.293,333.22,370.56z M383.292,309.768
		c-5.081,12.022-11.836,23.17-19.97,33.184l-62.865-62.864c1.652-3.052,2.992-6.296,4-9.682h88.938
		C391.959,284.243,388.493,297.458,383.292,309.768z"/>
</g>
</svg>