<?xml version="1.0" encoding="utf-8"?>

<!DOCTYPE svg PUBLIC "-//W3C//DTD SVG 1.1//EN" "http://www.w3.org/Graphics/SVG/1.1/DTD/svg11.dtd">
<!-- Uploaded to: SVG Repo, www.svgrepo.com, Generator: SVG Repo Mixer Tools -->
<svg height="800px" width="800px" version="1.1" id="_x32_" xmlns="http://www.w3.org/2000/svg" xmlns:xlink="http://www.w3.org/1999/xlink" 
	 viewBox="0 0 512 512"  xml:space="preserve">
<style type="text/css">
	:root { color-scheme: dark light; }
</style>
<g>
	<path fill="currentColor" d="M404.942,110.095c23.254,14.57,58.966,31.312,107.058,38c-32.248-25.25-53.921-48.836-67.492-66.023
		c14.3-12.096,27.433-25.52,39.053-40.205l-37.516-29.713c-21.312,26.918-48.438,49.014-79.434,64.365
		c-31.012,15.346-65.848,23.976-102.881,23.984c-37.032-0.008-71.876-8.639-102.888-23.984
		c-30.996-15.352-58.13-37.447-79.426-64.365L43.891,41.866c9.071,11.459,19.069,22.15,29.798,32.064
		C60.933,91.349,37.693,118.575,0,148.095c53.545-7.447,91.745-27.356,114.477-42.854c8.118,5.131,16.481,9.885,25.122,14.162
		c1.251,0.615,2.518,1.215,3.778,1.804c-3.663,21.75-12.664,60.504-33.554,94.696c40.635-18.026,69.265-54.36,83.781-76.424
		c10.882,2.803,22.011,4.969,33.354,6.459l29.03,112.773l28.622-111.152c12.188-0.9,24.162-2.558,35.873-4.963
		c15.076,22.242,42.916,56.104,81.692,73.307c-18.992-31.082-28.154-65.934-32.417-88.352c6.136-2.512,12.18-5.215,18.094-8.148
		C393.683,116.517,399.35,113.368,404.942,110.095z"/>
	<path fill="currentColor" d="M308.566,378.88c-8.771-17.719-19.362-35.774-27.825-49.506c-4.239-6.865-7.934-12.633-10.614-16.72
		c-1.336-2.041-2.411-3.662-3.194-4.814l-0.976-1.412l-0.453-0.615l-0.484-0.606l-0.806-0.861c-0.261-0.254-0.577-0.56-1.352-1.129
		c-0.408-0.285-0.922-0.637-1.851-1.082c-0.952-0.408-2.319-1.068-5.007-1.113c-2.004,0.014-3.272,0.43-4.178,0.768
		c-1.782,0.707-2.404,1.244-2.934,1.611c-0.952,0.746-1.198,1.053-1.459,1.306l-0.707,0.815l-0.76,1.029
		c-0.784,1.121-2.159,3.154-4.125,6.158c-6.827,10.43-20.306,31.774-32.247,54.199c-5.976,11.227-11.566,22.709-15.783,33.43
		c-2.112,5.359-3.878,10.545-5.161,15.514c-1.275,4.984-2.104,9.73-2.12,14.529c0.008,38.363,31.104,69.459,69.473,69.467
		c38.362-0.008,69.458-31.104,69.465-69.467c-0.023-5.736-1.19-11.428-2.934-17.494C319.448,402.333,314.41,390.714,308.566,378.88z
		 M288.436,462.813c-8.34,8.316-19.737,13.432-32.432,13.44c-12.702-0.008-24.099-5.123-32.44-13.44
		c-8.325-8.34-13.432-19.738-13.44-32.434c-0.023-2.226,0.599-6.182,1.996-10.904c2.404-8.318,6.974-19.054,12.465-30.136
		c8.241-16.666,18.532-34.252,26.757-47.576c1.659-2.69,3.203-5.146,4.662-7.451c6.228,9.854,14.615,23.61,22.51,38.002
		c6.344,11.566,12.373,23.57,16.696,34.106c2.166,5.262,3.894,10.152,5.03,14.324c1.144,4.154,1.651,7.61,1.636,9.637
		C301.869,443.075,296.761,454.473,288.436,462.813z"/>
</g>
</svg>