<?xml version="1.0" encoding="utf-8"?>

<!DOCTYPE svg PUBLIC "-//W3C//DTD SVG 1.1//EN" "http://www.w3.org/Graphics/SVG/1.1/DTD/svg11.dtd">
<!-- Uploaded to: SVG Repo, www.svgrepo.com, Generator: SVG Repo Mixer Tools -->
<svg height="800px" width="800px" version="1.1" id="_x32_" xmlns="http://www.w3.org/2000/svg" xmlns:xlink="http://www.w3.org/1999/xlink" 
	 viewBox="0 0 512 512"  xml:space="preserve">
<style type="text/css">
	:root { color-scheme: dark light; }
</style>
<g>
	<path fill="currentColor" d="M412.175,352.362c-12.521,3.751-24.842,10.263-37.21,22.584l-0.015,0.015
		c-16.132,16.24-22.454,32.372-25.255,49.025c-2.77,16.645-1.392,33.688-1.102,49.997c0.03,2.724,0.03,5.449-0.031,8.15
		l133.591-133.591c-4.255,0.1-8.525,0.038-12.842-0.069C450.532,347.917,430.94,346.769,412.175,352.362z"/>
	<path fill="currentColor" d="M256.008,0.003C114.626,0.003,0.015,114.607,0,255.989c0.015,141.397,114.626,256.008,256.008,256.008
		c21.168,0,41.678-2.74,61.347-7.592c2.541-2.793,4.148-6.245,5.173-11.816c1.071-5.839,1.148-13.623,0.888-22.607
		c-0.428-17.984-2.204-40.775,4.898-64.928c4.73-16.087,13.653-32.617,28.898-47.824l0.015-0.015
		c19.959-20.066,42.214-28.997,62.709-32.281c20.525-3.329,39.428-1.614,54.444-1.431c9.995,0.199,18.137-0.413,23.418-2.303
		c2.786-0.988,4.806-2.227,6.628-3.888c4.837-19.66,7.576-40.163,7.576-61.323C512,114.607,397.389,0.003,256.008,0.003z
		 M147.19,322.279c-13.898,2.74-28.5-0.115-36.765-5.434c-0.628-0.421-1.071-1.293-0.566-2.204l7.729-13.37
		c0.398-0.772,1.179-0.926,1.929-0.528c6.842,3.566,15.72,6.452,25.164,4.592c9.306-1.829,13.714-7.186,12.474-13.485
		c-1.041-5.25-4.837-7.906-15.735-7.263l-4.852,0.268c-18.596,1.063-30.367-5.465-33.458-21.207
		c-3.23-16.4,6.964-29.717,26.25-33.505c11.801-2.326,23.51-0.941,32.127,3.353c0.888,0.374,1.118,0.864,0.642,1.913l-5.663,13.515
		c-0.382,0.758-1.026,1.018-1.745,0.75c-7.698-3.114-14.724-4.186-22.071-2.74c-7.867,1.546-11.127,6.414-10.025,12.054
		c1.01,5.112,5.312,7.676,15.842,7.102l4.852-0.267c18.842-1.117,30.214,5.364,33.382,21.497
		C179.868,303.452,170.287,317.741,147.19,322.279z M268.138,297.001l-17.051,3.36c-0.918,0.176-1.516-0.108-1.959-0.988
		l-8.188-14.594l-31.224,6.138l-1.913,16.584c-0.077,0.98-0.52,1.469-1.439,1.654l-17.189,3.374
		c-0.918,0.184-1.286-0.291-1.178-1.132l13.668-92.609c0.107-0.85,0.535-1.469,1.454-1.645l16.53-3.253
		c0.918-0.183,1.546,0.238,1.959,0.98l47.188,80.64C269.209,296.243,269.056,296.825,268.138,297.001z M341.484,282.575
		l-58.102,11.433c-0.796,0.154-1.423-0.275-1.576-1.056l-17.036-86.571c-0.153-0.796,0.275-1.423,1.071-1.577l16.653-3.275
		c0.796-0.16,1.408,0.26,1.561,1.056l13.76,69.918c0.108,0.52,0.413,0.735,0.934,0.636l39.352-7.737
		c0.796-0.161,1.424,0.252,1.577,1.041l2.862,14.564C342.694,281.795,342.28,282.422,341.484,282.575z M412.749,268.57
		l-57.198,11.242c-0.796,0.161-1.424-0.268-1.577-1.056l-17.02-86.571c-0.153-0.796,0.26-1.416,1.056-1.577l57.198-11.242
		c0.78-0.16,1.408,0.26,1.561,1.056l2.756,14.028c0.153,0.788-0.26,1.416-1.041,1.569l-38.449,7.562
		c-0.52,0.108-0.734,0.413-0.627,0.949l3.474,17.708c0.107,0.521,0.429,0.735,0.949,0.628l32.005-6.291
		c0.78-0.153,1.423,0.268,1.577,1.049l2.724,13.905c0.168,0.788-0.26,1.416-1.041,1.569l-32.02,6.291
		c-0.52,0.107-0.735,0.421-0.628,0.941l3.642,18.505c0.093,0.52,0.414,0.727,0.934,0.62l38.448-7.554
		c0.781-0.161,1.408,0.268,1.562,1.056l2.754,14.035C413.942,267.782,413.529,268.409,412.749,268.57z"/>
	<polygon fill="currentColor" points="215.822,240.246 211.873,273.46 232.475,269.412 216.22,240.17 	"/>
</g>
</svg>