<?xml version="1.0" encoding="utf-8"?>

<!DOCTYPE svg PUBLIC "-//W3C//DTD SVG 1.1//EN" "http://www.w3.org/Graphics/SVG/1.1/DTD/svg11.dtd">
<!-- Uploaded to: SVG Repo, www.svgrepo.com, Generator: SVG Repo Mixer Tools -->
<svg height="800px" width="800px" version="1.1" id="_x32_" xmlns="http://www.w3.org/2000/svg" xmlns:xlink="http://www.w3.org/1999/xlink" 
	 viewBox="0 0 512 512"  xml:space="preserve">
<style type="text/css">
	:root { color-scheme: dark light; }
</style>
<g>
	<polygon fill="currentColor" points="217.989,246.205 214.344,276.8 233.322,273.071 218.355,246.134 	"/>
	<path fill="currentColor" d="M512,255.996l-63.298-51.631l29.002-76.362l-80.641-13.07L384,34.3l-76.362,29.002L256,0.004l-51.638,63.299
		L128.007,34.3l-13.07,80.634l-80.633,13.07l28.995,76.362L0,255.996l63.299,51.632l-28.995,76.368l80.633,13.07l13.07,80.633
		l76.355-29.002L256,511.996l51.639-63.298L384,477.7l13.062-80.633l80.641-13.07l-29.002-76.368L512,255.996z M154.768,321.77
		c-12.809,2.524-26.252-0.106-33.866-5.006c-0.578-0.388-0.994-1.191-0.522-2.03l7.113-12.316c0.366-0.712,1.092-0.854,1.783-0.487
		c6.296,3.285,14.48,5.943,23.18,4.23c8.572-1.685,12.626-6.62,11.491-12.422c-0.959-4.836-4.455-7.282-14.494-6.69l-4.469,0.247
		c-17.13,0.98-27.973-5.034-30.828-19.535c-2.968-15.107,6.415-27.374,24.18-30.863c10.871-2.143,21.664-0.867,29.594,3.088
		c0.825,0.345,1.036,0.796,0.599,1.762l-5.216,12.45c-0.36,0.698-0.945,0.938-1.608,0.691c-7.099-2.869-13.571-3.856-20.331-2.524
		c-7.254,1.424-10.257,5.908-9.235,11.103c0.923,4.709,4.892,7.071,14.593,6.542l4.462-0.246
		c17.363-1.03,27.832,4.941,30.757,19.802C184.87,304.427,176.036,317.589,154.768,321.77z M266.18,298.485l-15.707,3.095
		c-0.846,0.162-1.403-0.099-1.812-0.91l-7.536-13.444l-28.763,5.654l-1.769,15.276c-0.07,0.902-0.48,1.354-1.325,1.523
		l-15.826,3.108c-0.846,0.17-1.184-0.268-1.086-1.043l12.591-85.308c0.099-0.782,0.486-1.353,1.332-1.516l15.227-2.996
		c0.846-0.169,1.424,0.219,1.812,0.902l43.468,74.282C267.167,297.787,267.026,298.322,266.18,298.485z M333.743,285.196
		l-53.528,10.532c-0.726,0.141-1.304-0.254-1.452-0.972l-15.686-79.746c-0.141-0.734,0.254-1.311,0.98-1.452l15.347-3.017
		c0.726-0.149,1.297,0.24,1.438,0.972l12.668,64.406c0.099,0.479,0.388,0.676,0.867,0.585l36.249-7.128
		c0.733-0.148,1.311,0.233,1.452,0.959l2.636,13.416C334.857,284.477,334.476,285.055,333.743,285.196z M399.382,272.295
		l-52.689,10.356c-0.726,0.148-1.304-0.247-1.445-0.973l-15.678-79.745c-0.148-0.734,0.24-1.304,0.966-1.452l52.688-10.356
		c0.719-0.148,1.297,0.24,1.445,0.973l2.538,12.922c0.141,0.726-0.247,1.304-0.966,1.445l-35.41,6.966
		c-0.48,0.098-0.676,0.38-0.585,0.874l3.207,16.312c0.099,0.48,0.395,0.677,0.874,0.578l29.482-5.794
		c0.719-0.142,1.304,0.247,1.445,0.966l2.516,12.809c0.148,0.726-0.247,1.304-0.966,1.445l-29.488,5.794
		c-0.48,0.099-0.677,0.388-0.578,0.867l3.349,17.046c0.092,0.479,0.388,0.669,0.867,0.571l35.41-6.958
		c0.719-0.148,1.296,0.247,1.444,0.973l2.538,12.929C400.489,271.569,400.101,272.147,399.382,272.295z"/>
</g>
</svg>