<?xml version="1.0" encoding="utf-8"?>

<!DOCTYPE svg PUBLIC "-//W3C//DTD SVG 1.1//EN" "http://www.w3.org/Graphics/SVG/1.1/DTD/svg11.dtd">
<!-- Uploaded to: SVG Repo, www.svgrepo.com, Generator: SVG Repo Mixer Tools -->
<svg version="1.1" id="_x32_" xmlns="http://www.w3.org/2000/svg" xmlns:xlink="http://www.w3.org/1999/xlink" 
	 width="800px" height="800px" viewBox="0 0 512 512"  xml:space="preserve">
<style type="text/css">
<![CDATA[
	:root { color-scheme: dark light; }
]]>
</style>
<g>
	<path fill="currentColor" d="M397.382,161.818c6.078,7.859,11.547,16.281,16.281,25.203c25.89,4.219,41.546,12.859,40.734,25.797
		c-0.844,13.297-80.75,50.953-191.203,75.906l0,0c-0.109,0.016-0.203,0.031-0.297,0.063
		c-110.453,24.953-198.797,25.297-205.25,13.656c-6.313-11.344,4.109-25.875,25.688-40.813c0.422-10.094,1.719-20.031,3.844-29.75
		c-57.75,27.391-92.141,57.938-86.594,82.484c12.359,54.719,133.328,60.219,274.328,28.906c0.094-0.016,0.188-0.047,0.281-0.063
		c0.188-0.047,0.375-0.078,0.563-0.109c140.766-32.344,247.64-89.313,235.265-144.031
		C505.491,174.521,461.304,161.724,397.382,161.818z"/>
	<path fill="currentColor" d="M258.648,270.537c0-0.016,0.016-0.016,0.016-0.016c64.688-14.609,116.828-33.25,148.672-47.75
		c-0.375-2.141-0.797-4.266-1.266-6.375C387.132,132.583,303.835,79.974,220.023,98.912S83.632,201.146,102.554,284.943
		c0.469,2.125,1.016,4.219,1.578,6.313C139.101,290.662,194.132,285.099,258.648,270.537z"/>
	<path fill="currentColor" d="M280.054,361.333h-0.016l-0.422,0.094l-0.453,0.109c-43.703,9.703-85.609,15.859-123,18.25
		c36.016,30.609,85.453,44.515,135.094,33.312c49.641-11.218,88.297-45.031,107.656-88.14
		C364.132,338.865,323.679,351.318,280.054,361.333z"/>
</g>
</svg>