<?xml version="1.0" encoding="utf-8"?>

<!DOCTYPE svg PUBLIC "-//W3C//DTD SVG 1.1//EN" "http://www.w3.org/Graphics/SVG/1.1/DTD/svg11.dtd">
<!-- Uploaded to: SVG Repo, www.svgrepo.com, Generator: SVG Repo Mixer Tools -->
<svg height="800px" width="800px" version="1.1" id="_x32_" xmlns="http://www.w3.org/2000/svg" xmlns:xlink="http://www.w3.org/1999/xlink" 
	 viewBox="0 0 512 512"  xml:space="preserve">
<style type="text/css">
	:root { color-scheme: dark light; }
</style>
<g>
	<path fill="currentColor" d="M436.848,74.795C390.615,28.54,326.547-0.018,256.003,0.004c-70.442-0.008-134.488,28.42-180.678,74.632
		C28.932,121-0.015,185.139,0,255.986c-0.007,70.651,28.673,134.748,74.986,181.032c46.277,46.305,110.372,74.986,181.024,74.978
		c21.217,0,41.741-2.74,61.342-7.586l4.377-1.082l0.173-0.188v0.015l181.256-181.256c-0.022,0-0.036-0.006-0.058-0.006l0.245-0.231
		l1.082-4.363c4.824-19.572,7.579-40.096,7.572-61.313C512.014,185.24,483.197,121.129,436.848,74.795z M477.096,303.993
		c-1.017,0.21-2.351,0.426-3.974,0.562c-2.942,0.282-6.728,0.375-11.056,0.289l-0.252-0.007h0.144
		c-13.241-0.101-32.323-1.919-53.842,1.543l0.029-0.007c-21.678,3.411-45.902,13.183-66.981,34.327l-0.188,0.181l-0.036,0.043
		l-0.144,0.144l-0.029,0.03c-16.039,16.024-25.738,33.908-30.794,51.188c-7.572,25.825-5.545,49.385-5.214,65.712l0.008,0.072
		c0.259,8.076,0.05,14.798-0.613,18.216c-0.065,0.346-0.122,0.526-0.188,0.822c-15.534,3.382-31.514,5.351-47.965,5.351
		c-62.582,0-119.106-25.32-160.132-66.324c-41.012-41.027-66.325-97.559-66.339-160.148c0.014-62.726,25.536-119.294,66.678-160.464
		c40.889-40.868,97.356-65.979,159.793-65.986c62.503,0.007,118.999,25.219,159.96,66.152
		c41.07,41.099,66.491,97.645,66.505,160.299C482.461,272.443,480.493,288.452,477.096,303.993z"/>
</g>
</svg>