<?xml version="1.0" encoding="utf-8"?>

<!DOCTYPE svg PUBLIC "-//W3C//DTD SVG 1.1//EN" "http://www.w3.org/Graphics/SVG/1.1/DTD/svg11.dtd">
<!-- Uploaded to: SVG Repo, www.svgrepo.com, Generator: SVG Repo Mixer Tools -->
<svg height="800px" width="800px" version="1.1" id="_x32_" xmlns="http://www.w3.org/2000/svg" xmlns:xlink="http://www.w3.org/1999/xlink" 
	 viewBox="0 0 512 512"  xml:space="preserve">
<style type="text/css">
	:root { color-scheme: dark light; }
</style>
<g>
	<path fill="currentColor" d="M412.175,352.363c-12.529,3.75-24.842,10.263-37.217,22.584l-0.015,0.015
		c-16.125,16.24-22.454,32.372-25.255,49.026c-2.763,16.645-1.393,33.688-1.102,49.997c0.03,2.724,0.038,5.449-0.023,8.15
		l133.583-133.591c-4.248,0.099-8.518,0.038-12.834-0.069C450.532,347.916,430.932,346.769,412.175,352.363z"/>
	<path fill="currentColor" d="M256.008,0.003C114.618,0.003,0.007,114.608,0,255.989c0.007,141.396,114.618,256.008,256.008,256.008
		c21.168,0,41.67-2.74,61.346-7.592c2.534-2.794,4.141-6.245,5.174-11.816c1.063-5.839,1.148-13.622,0.888-22.607
		c-0.428-17.984-2.204-40.775,4.898-64.928c4.73-16.087,13.645-32.618,28.898-47.824c0,0,0.008-0.008,0.015-0.015
		c19.951-20.067,42.214-28.997,62.709-32.281c20.525-3.329,39.428-1.614,54.444-1.431c9.994,0.199,18.137-0.413,23.418-2.303
		c2.786-0.987,4.798-2.227,6.62-3.888C509.26,297.652,512,277.15,512,255.989C512,114.608,397.389,0.003,256.008,0.003z"/>
</g>
</svg>