<?xml version="1.0" encoding="utf-8"?>

<!DOCTYPE svg PUBLIC "-//W3C//DTD SVG 1.1//EN" "http://www.w3.org/Graphics/SVG/1.1/DTD/svg11.dtd">
<!-- Uploaded to: SVG Repo, www.svgrepo.com, Generator: SVG Repo Mixer Tools -->
<svg version="1.1" id="_x32_" xmlns="http://www.w3.org/2000/svg" xmlns:xlink="http://www.w3.org/1999/xlink" 
	 width="800px" height="800px" viewBox="0 0 512 512"  xml:space="preserve">
<style type="text/css">
<![CDATA[
	:root { color-scheme: dark light; }
]]>
</style>
<g>
	<path fill="currentColor" d="M497.134,165.979c-77.641,26.641-162.047-70.516-241.156-13.172C176.915,95.479,92.509,192.62,14.868,165.979
		c-17.422-5.984-21.797-1.047-0.766,37.906c55.563,102.844,137.813,173.75,241.875,173.75c104.141,0,186.328-70.875,241.906-173.75
		C518.946,164.917,514.54,160.01,497.134,165.979z M201.306,147.682c4.828,0.922,8.281,5.516,7.656,10.469
		c-0.609,4.953-5.25,8.344-10.328,7.391c-5.109-0.953-8.484-5.859-7.625-10.797C191.868,149.838,196.446,146.76,201.306,147.682z
		 M317.603,306.885c-21.297,3.156-38.859-0.625-39.109-6.281c-0.234-5.656,16.266-10.969,36.719-14
		c20.453-3.047,37.719-2.75,38.797,2.781S338.884,303.729,317.603,306.885z M255.978,273.713c-39.734,0-97.547-9.766-134.766-42.078
		c0,0,77.734-8.438,134.766-8.438c57.063,0,134.766,8.438,134.766,8.438C353.54,263.932,295.728,273.713,255.978,273.713z"/>
</g>
</svg>