<?xml version="1.0" encoding="utf-8"?>

<!DOCTYPE svg PUBLIC "-//W3C//DTD SVG 1.1//EN" "http://www.w3.org/Graphics/SVG/1.1/DTD/svg11.dtd">
<!-- Uploaded to: SVG Repo, www.svgrepo.com, Generator: SVG Repo Mixer Tools -->
<svg version="1.1" id="_x32_" xmlns="http://www.w3.org/2000/svg" xmlns:xlink="http://www.w3.org/1999/xlink" 
	 viewBox="0 0 512 512"  xml:space="preserve">
<style type="text/css">
	:root { color-scheme: dark light; }
</style>
<g>
	<path fill="currentColor" d="M207.938,112.374v38.343h96.118v-38.343c0-4.796-3.898-8.686-8.694-8.686h-78.73
		C211.827,103.688,207.938,107.578,207.938,112.374z"/>
	<rect x="235.037" y="73.005" fill="currentColor" width="41.92" height="24.54"/>
	<path fill="currentColor" d="M176.781,53.797c3.608-3.144,8.212-4.892,12.992-4.932l18.164-0.177v18.181h96.118V20.451
		c0-11.3-9.158-20.451-20.45-20.451h-55.217c-11.292,0-20.45,9.151-20.45,20.451v7.787l-18.358,0.176h-0.007
		c-9.672,0.088-18.999,3.641-26.281,10.008L146.995,52.65l13.458,15.406L176.781,53.797z"/>
	<path fill="currentColor" d="M384.31,210.825c-2.711-6.696-6.793-12.608-11.285-18.165c-6.76-8.276-14.587-15.623-20.81-21.068
		c-6.224-5.422-10.836-8.878-11.004-9.014l-3.288-2.462h-4.106H174.07l-3.288,2.462c-0.264,0.217-10.802,8.092-21.717,18.999
		c-5.462,5.478-11.044,11.677-15.567,18.454c-2.261,3.392-4.274,6.945-5.814,10.786c-1.523,3.834-2.622,8.004-2.63,12.623
		c-0.008,3.064,0.53,6.328,1.78,9.447c0.554,1.356,1.644,4.54,2.928,8.79c9.206,30.082,29.737,115.959,29.64,182.226
		c0.016,18.454-1.588,35.343-5.116,48.696l0.024,0.008c-1.612,5.036-2.566,9.664-2.575,14.203
		c-0.039,5.133,1.348,10.473,4.428,14.668c2.27,3.144,5.245,5.414,8.116,6.873c4.355,2.198,8.461,2.903,12.126,3.296
		c3.672,0.369,7.001,0.345,9.752,0.352c11.974,0,67.839,0,67.839,0h3.994c0.032,0,13.971,0,29.433,0c15.462,0,32.424,0,38.414,0
		c2.438,0,5.35,0.008,8.534-0.241c2.398-0.192,4.964-0.529,7.691-1.259c4.026-1.074,8.782-3.168,12.575-7.522
		c1.868-2.141,3.368-4.764,4.29-7.554c0.931-2.783,1.331-5.694,1.331-8.613c-0.016-4.54-0.97-9.167-2.582-14.203l0.024-0.008
		c-3.52-13.345-5.132-30.235-5.116-48.681c-0.016-37.837,6.608-82.17,14.074-118.749c3.729-18.294,7.667-34.685,11.044-47.405
		c1.683-6.36,3.231-11.805,4.53-16.08c1.292-4.251,2.382-7.435,2.936-8.798c1.251-3.127,1.78-6.383,1.78-9.439
		C386.932,218.828,385.833,214.658,384.31,210.825z M362.287,223.737l0.008,0.008c-1.05,2.631-2.213,6.111-3.633,10.771
		c-9.744,32.272-30.619,118.396-30.715,189.403c0.015,19.842,1.628,38.544,5.934,54.952l0.097,0.384l0.128,0.37
		c1.186,3.528,1.499,5.918,1.508,7.089c-0.562,0.153-1.372,0.321-2.398,0.417c-1.981,0.208-4.596,0.24-7.379,0.232
		c-5.991,0-22.952,0-38.414,0c-7.731,0-15.094,0-20.514,0c-5.43,0-8.91,0-8.918,0h-3.994c0,0-55.866,0-67.839,0
		c-2.43,0-4.716-0.008-6.585-0.16c-1.363-0.113-2.478-0.297-3.192-0.49c-0.008-1.163,0.313-3.561,1.5-7.089l0.129-0.37l0.096-0.384
		c4.306-16.409,5.927-35.119,5.934-54.968c-0.016-40.604-6.913-86.052-14.564-123.657c-3.834-18.799-7.868-35.6-11.364-48.8
		c-1.748-6.6-3.368-12.295-4.78-16.93c-1.42-4.652-2.575-8.14-3.625-10.779v-0.008l-0.016-0.289
		c-0.015-0.481,0.161-1.732,0.875-3.472c1.195-3.072,3.945-7.411,7.506-11.75c5.326-6.544,12.326-13.2,17.908-18.06
		c2.566-2.238,4.772-4.05,6.464-5.405h147.116c3.785,3.048,10.442,8.63,16.841,15.142c4.572,4.635,8.959,9.728,11.886,14.243
		c1.476,2.246,2.574,4.338,3.216,5.999c0.658,1.66,0.818,2.839,0.81,3.312L362.287,223.737z"/>
	<path fill="currentColor" d="M256,250.45c-23.241,0-42.088,26.658-42.088,59.539s18.847,59.539,42.088,59.539
		c23.242,0,42.088-26.658,42.088-59.539S279.242,250.45,256,250.45z"/>
</g>
</svg>