<?xml version="1.0" encoding="utf-8"?>

<!DOCTYPE svg PUBLIC "-//W3C//DTD SVG 1.1//EN" "http://www.w3.org/Graphics/SVG/1.1/DTD/svg11.dtd">
<!-- Uploaded to: SVG Repo, www.svgrepo.com, Generator: SVG Repo Mixer Tools -->
<svg height="800px" width="800px" version="1.1" id="_x32_" xmlns="http://www.w3.org/2000/svg" xmlns:xlink="http://www.w3.org/1999/xlink" 
	 viewBox="0 0 512 512"  xml:space="preserve">
<style type="text/css">
	:root { color-scheme: dark light; }
</style>
<g>
	<path fill="currentColor" d="M170.599,40.365c5.338-4.672,12.171-7.269,19.26-7.337h29.432v49.955h25.802v41.722h-21.121
		c-8.012,0-14.502,6.491-14.502,14.502v44.003h112.534v-44.003c0-8.011-6.499-14.502-14.51-14.502h-21.114V82.983h25.802V33.028
		h19.755V0h-77.816h-64.458h-0.12c-14.972,0.145-29.406,5.638-40.68,15.493l-24.854,21.711l21.736,24.88L170.599,40.365z"/>
	<path fill="currentColor" d="M315.795,198.576H215.678c-39.878,0-72.196,32.327-72.196,72.205v208.73c0,17.944,14.545,32.489,32.49,32.489
		h179.529c17.945,0,32.49-14.545,32.49-32.489V270.78C387.991,230.903,355.663,198.576,315.795,198.576z"/>
</g>
</svg>