<?xml version="1.0" encoding="utf-8"?>

<!DOCTYPE svg PUBLIC "-//W3C//DTD SVG 1.1//EN" "http://www.w3.org/Graphics/SVG/1.1/DTD/svg11.dtd">
<!-- Uploaded to: SVG Repo, www.svgrepo.com, Generator: SVG Repo Mixer Tools -->
<svg height="800px" width="800px" version="1.1" id="_x32_" xmlns="http://www.w3.org/2000/svg" xmlns:xlink="http://www.w3.org/1999/xlink" 
	 viewBox="0 0 512 512"  xml:space="preserve">
<style type="text/css">
	:root { color-scheme: dark light; }
</style>
<g>
	<path fill="currentColor" d="M369.109,199.92c-13.792-13.807-32.482-22.831-53.178-24.335v-36.624c0-7.996-6.486-14.476-14.483-14.476
		h-17.942V82.834h22.624V32.972h19.725V0h-77.686h-64.346h-0.115c-14.943,0.144-29.354,5.631-40.601,15.461L118.29,37.135
		l21.688,24.831l24.824-21.682c5.328-4.652,12.138-7.248,19.222-7.313h29.383v49.863h22.616v41.651h-17.942
		c-8.004,0-14.476,6.479-14.476,14.476v36.624c-20.696,1.504-39.4,10.528-53.192,24.335c-15.174,15.166-24.594,36.229-24.594,59.384
		v208.362c0,12.196,4.984,23.364,12.987,31.346c7.99,8.004,19.15,12.995,31.353,12.987h179.21
		c12.204,0.008,23.364-4.984,31.346-12.987c8.011-7.982,13.001-19.15,12.994-31.346V259.304
		C393.717,236.149,384.289,215.086,369.109,199.92z M369.892,467.667c0,2.862-0.568,5.53-1.61,7.982
		c-1.539,3.667-4.163,6.824-7.45,9.039c-3.279,2.215-7.17,3.495-11.463,3.502H170.16c-2.869,0-5.537-0.575-7.989-1.611
		c-3.668-1.546-6.817-4.171-9.04-7.442c-2.215-3.3-3.495-7.177-3.502-11.47V259.304c0.008-16.654,6.716-31.62,17.626-42.543
		c10.923-10.909,25.895-17.618,42.542-17.625h99.935c16.648,0.008,31.62,6.716,42.543,17.625
		c10.909,10.923,17.618,25.888,17.618,42.543V467.667z"/>
</g>
</svg>