<?xml version="1.0" encoding="utf-8"?>

<!DOCTYPE svg PUBLIC "-//W3C//DTD SVG 1.1//EN" "http://www.w3.org/Graphics/SVG/1.1/DTD/svg11.dtd">
<!-- Uploaded to: SVG Repo, www.svgrepo.com, Generator: SVG Repo Mixer Tools -->
<svg version="1.1" id="_x32_" xmlns="http://www.w3.org/2000/svg" xmlns:xlink="http://www.w3.org/1999/xlink" 
	 viewBox="0 0 512 512"  xml:space="preserve">
<style type="text/css">
	:root { color-scheme: dark light; }
</style>
<g>
	<path fill="currentColor" d="M205.356,118.418v40.406h101.288v-40.406c0-5.054-4.103-9.152-9.166-9.152h-82.961
		C209.46,109.266,205.356,113.364,205.356,118.418z"/>
	<rect x="233.909" y="76.932" fill="currentColor" width="44.179" height="25.861"/>
	<path fill="currentColor" d="M172.528,56.691c3.795-3.313,8.646-5.155,13.683-5.198l19.146-0.186v19.159h101.288V21.551
		C306.644,9.643,296.993,0,285.094,0h-58.187c-11.899,0-21.55,9.643-21.55,21.551v8.206l-19.348,0.186h-0.004
		c-10.193,0.093-20.017,3.837-27.69,10.547L141.14,55.483l14.177,16.234L172.528,56.691z"/>
	<path fill="currentColor" d="M338.007,167.148H173.99c0,0-50.467,37.853-42.054,58.88c8.414,21.027,50.467,180.83,29.436,260.737
		C152.963,512,169.785,512,182.404,512c12.613,0,71.493,0,71.493,0h4.204c0,0,58.88,0,71.497,0c12.614,0,29.436,0,21.027-25.235
		c-21.027-79.906,21.026-239.71,29.44-260.737C388.474,205.001,338.007,167.148,338.007,167.148z M180.366,276.904
		c0,0-16.476-31.811-14.422-46.161c2.886-20.19,37.502-25.962,38.943-18.745L180.366,276.904z"/>
</g>
</svg>