<?xml version="1.0" encoding="utf-8"?>

<!DOCTYPE svg PUBLIC "-//W3C//DTD SVG 1.1//EN" "http://www.w3.org/Graphics/SVG/1.1/DTD/svg11.dtd">
<!-- Uploaded to: SVG Repo, www.svgrepo.com, Generator: SVG Repo Mixer Tools -->
<svg height="800px" width="800px" version="1.1" id="_x32_" xmlns="http://www.w3.org/2000/svg" xmlns:xlink="http://www.w3.org/1999/xlink" 
	 viewBox="0 0 512 512"  xml:space="preserve">
<style type="text/css">
	:root { color-scheme: dark light; }
</style>
<g>
	<path fill="currentColor" d="M214.52,258.575l25.228-25.228c-29.355-13.49-65.293-8.156-89.444,15.978
		c-30.984,30.985-30.984,81.394,0,112.362c30.984,30.977,81.385,30.977,112.371,0c24.15-24.134,29.476-60.08,15.978-89.427
		l-25.22,25.228c2.497,14.723-1.89,30.385-13.231,41.735c-18.581,18.581-48.836,18.581-67.417,0
		c-18.597-18.589-18.597-48.836,0-67.417C184.11,260.456,199.797,256.079,214.52,258.575z"/>
	<path fill="currentColor" d="M286.266,186.822c-55.582-37.389-131.794-31.552-180.899,17.568c-55.775,55.751-55.775,146.492,0,202.251
		c55.76,55.76,146.484,55.76,202.252,0c49.112-49.112,54.949-125.325,17.56-180.906l-23.016,23.016
		c25.31,42.666,19.643,98.766-17.016,135.418c-43.364,43.372-113.943,43.372-157.315,0c-43.372-43.373-43.372-113.935,0-157.323
		c36.659-36.643,92.743-42.31,135.418-17.008L286.266,186.822z"/>
	<path fill="currentColor" d="M348.008,202.906c49.582,68.3,43.623,164.676-17.917,226.207c-68.146,68.163-179.049,68.163-247.196,0
		c-68.171-68.163-68.171-179.042,0-247.196c61.532-61.548,157.898-67.498,226.2-17.924l22.683-22.683
		c-80.924-61.832-197.412-55.824-271.363,18.127c-80.55,80.55-80.55,211.606,0,292.157c80.55,80.542,211.606,80.542,292.158,0
		c73.943-73.952,79.95-190.44,18.119-271.379L348.008,202.906z"/>
	<path fill="currentColor" d="M511.394,70.69c-1.337-3.486-4.726-5.642-8.577-5.464l-58.8,2.757l2.756-58.784
		c0.187-3.858-1.97-7.256-5.472-8.601c-3.469-1.338-7.604-0.389-10.433,2.448l-62.748,62.748l-3.251,69.396L210.004,290.054
		c-5.14-1.167-10.742,0.219-14.746,4.208c-6.21,6.226-6.21,16.278,0,22.489c6.21,6.194,16.262,6.194,22.464,0
		c4.013-4.013,5.399-9.607,4.232-14.755L376.82,147.13l69.394-3.251l62.748-62.748C511.776,78.31,512.748,74.176,511.394,70.69z"/>
</g>
</svg>