<?xml version="1.0" encoding="utf-8"?>

<!DOCTYPE svg PUBLIC "-//W3C//DTD SVG 1.1//EN" "http://www.w3.org/Graphics/SVG/1.1/DTD/svg11.dtd">
<!-- Uploaded to: SVG Repo, www.svgrepo.com, Generator: SVG Repo Mixer Tools -->
<svg height="800px" width="800px" version="1.1" id="_x32_" xmlns="http://www.w3.org/2000/svg" xmlns:xlink="http://www.w3.org/1999/xlink" 
	 viewBox="0 0 512 512"  xml:space="preserve">
<style type="text/css">
	:root { color-scheme: dark light; }
</style>
<g>
	<path fill="currentColor" d="M484.234,165.292h-68.73L350.886,63.465c3.018-5.113,4.879-11,4.879-17.365
		c0-18.966-15.391-34.348-34.366-34.348c-18.956,0-34.348,15.382-34.348,34.348c0,18.956,15.391,34.348,34.348,34.348
		c1.078,0,2.104-0.226,3.157-0.313l54.043,85.157H133.4l54.044-85.157c1.052,0.096,2.06,0.313,3.139,0.313
		c18.974,0,34.348-15.391,34.348-34.348c0-18.966-15.373-34.348-34.348-34.348S156.235,27.134,156.235,46.1
		c0,6.366,1.852,12.261,4.87,17.374L96.487,165.292H27.765C12.426,165.292,0,177.726,0,193.056v13.017
		c0,11.661,7.217,21.618,17.417,25.722l23.531,201.513c4.452,38.165,36.783,66.939,75.218,66.939h279.678
		c38.426,0,70.756-28.774,75.208-66.939l23.531-201.513c10.2-4.104,17.418-14.061,17.418-25.722v-13.017
		C512,177.726,499.574,165.292,484.234,165.292z M115.496,430.439c-0.478,0.052-0.956,0.078-1.426,0.078
		c-7.278,0-13.33-5.47-14.07-12.713l-13.66-134.627c-0.783-7.765,4.887-14.712,12.643-15.495c0.487-0.052,0.956-0.078,1.444-0.078
		c7.27,0,13.322,5.461,14.052,12.705l13.67,134.626C128.922,422.708,123.243,429.656,115.496,430.439z M185.73,430.492l-0.722,0.017
		c-7.522,0-13.73-5.886-14.122-13.408l-6.782-134.644c-0.392-7.791,5.626-14.444,13.417-14.836c0.009,0,0.018,0,0.035,0
		c8.226,0,14.417,5.888,14.8,13.409l6.783,134.635C199.53,423.44,193.522,430.091,185.73,430.492z M256,431.578
		c-7.8,0-14.148-6.339-14.148-14.139V281.804c0-7.8,6.348-14.139,14.139-14.139c7.8,0,14.139,6.339,14.139,14.139l0.017,135.635
		C270.147,425.239,263.8,431.578,256,431.578z M341.113,417.092c-0.392,7.53-6.583,13.417-14.114,13.417l-0.73-0.017
		c-7.774-0.401-13.791-7.052-13.409-14.818l6.782-134.644c0.392-7.53,6.601-13.426,14.139-13.426
		c4.47,0.208,7.948,1.852,10.479,4.66c2.531,2.8,3.817,6.426,3.626,10.192L341.113,417.092z M411.991,417.805
		c-0.73,7.243-6.782,12.713-14.069,12.713c0,0-0.94-0.026-1.418-0.078c-7.766-0.783-13.435-7.739-12.652-15.504l13.669-134.626
		c0.731-7.244,6.774-12.705,14.053-12.705c0.478,0,0.956,0.026,1.444,0.078c7.748,0.783,13.426,7.73,12.643,15.486L411.991,417.805z
		"/>
</g>
</svg>