<?xml version="1.0" encoding="utf-8"?>

<!DOCTYPE svg PUBLIC "-//W3C//DTD SVG 1.1//EN" "http://www.w3.org/Graphics/SVG/1.1/DTD/svg11.dtd">
<!-- Uploaded to: SVG Repo, www.svgrepo.com, Generator: SVG Repo Mixer Tools -->
<svg height="800px" width="800px" version="1.1" id="_x32_" xmlns="http://www.w3.org/2000/svg" xmlns:xlink="http://www.w3.org/1999/xlink" 
	 viewBox="0 0 512 512"  xml:space="preserve">
<style type="text/css">
	:root { color-scheme: dark light; }
</style>
<g>
	<path fill="currentColor" d="M239.307,223.867c-6.842-2.394-12.988-6.56-17.759-12.276l-4.043-4.837
		c-6.958-8.316-10.255-18.836-9.294-29.622c0.961-10.801,6.063-20.559,14.38-27.517l10.015-8.374H30.359
		C13.594,141.24,0,154.825,0,171.599v21.91c0,16.766,13.594,30.359,30.359,30.359H239.307z"/>
	<path fill="currentColor" d="M481.65,141.24H371.348l-90.21,75.445c-3.794,3.165-8.118,5.583-12.723,7.182H481.65
		c16.766,0,30.35-13.593,30.35-30.359v-21.91C512,154.825,498.416,141.24,481.65,141.24z"/>
	<path fill="currentColor" d="M230.46,196.921l4.06,4.854c8.946,10.702,24.875,12.118,35.585,3.172L434.8,67.178
		c10.702-8.954,12.127-24.883,3.181-35.593l-4.059-4.83c-8.946-10.702-24.884-12.127-35.585-3.172L233.633,161.344
		C222.932,170.299,221.515,186.236,230.46,196.921z M407.365,41.111c3.893-3.247,9.675-2.734,12.922,1.151
		c3.264,3.894,2.751,9.676-1.142,12.931c-3.894,3.255-9.675,2.733-12.939-1.152C402.941,50.147,403.471,44.357,407.365,41.111z"/>
	<path fill="currentColor" d="M49.883,449.439c2.783,25.53,24.336,44.863,50.023,44.863h304.544c25.678,0,47.232-19.333,50.014-44.863
		l22.648-207.622H27.236L49.883,449.439z M232.796,438.448c0,7.19-5.831,13.005-13.021,13.005h-24.287
		c-6.908,0-12.607-5.393-12.996-12.285l-2.378-42.842c-0.198-3.578,1.078-7.074,3.546-9.675c2.452-2.6,5.873-4.067,9.443-4.067
		h26.672c7.19,0,13.021,5.823,13.021,13.005V438.448z M376.683,296.959c0.381-6.9,6.08-12.292,12.989-12.292h21.918
		c3.644,0,7.14,1.532,9.592,4.216c2.468,2.7,3.695,6.304,3.38,9.94l-2.552,29.034c-0.596,6.718-6.229,11.87-12.972,11.87h-20.974
		c-3.579,0-6.991-1.466-9.46-4.067c-2.452-2.601-3.728-6.097-3.528-9.667L376.683,296.959z M371.249,394.869
		c0.381-6.892,6.08-12.285,12.988-12.285h18.754c3.645,0,7.123,1.516,9.592,4.216c2.469,2.7,3.695,6.296,3.38,9.924l-3.777,42.858
		c-0.596,6.726-6.213,11.871-12.956,11.871h-17.378c-3.579,0-6.991-1.467-9.443-4.067c-2.468-2.602-3.744-6.106-3.546-9.659
		L371.249,394.869z M275.638,297.688c0-7.198,5.832-13.021,13.022-13.021h32.11c3.562,0,6.991,1.474,9.443,4.075
		c2.468,2.601,3.744,6.088,3.546,9.667l-1.607,29.033c-0.381,6.884-6.096,12.285-13.005,12.285H288.66
		c-7.19,0-13.022-5.823-13.022-13.013V297.688z M275.638,395.589c0-7.182,5.832-13.005,13.022-13.005h26.676
		c3.562,0,6.975,1.467,9.443,4.067c2.451,2.601,3.744,6.097,3.545,9.675l-2.385,42.842c-0.381,6.892-6.097,12.285-12.989,12.285
		h-24.29c-7.19,0-13.022-5.816-13.022-13.005V395.589z M178.209,288.742c2.468-2.601,5.882-4.075,9.459-4.075h32.107
		c7.19,0,13.021,5.823,13.021,13.021v29.025c0,7.19-5.831,13.013-13.021,13.013h-30.491c-6.917,0-12.616-5.4-12.997-12.285
		l-1.607-29.033C174.481,294.831,175.757,291.343,178.209,288.742z M139.575,437.727c0.182,3.553-1.093,7.057-3.546,9.659
		c-2.46,2.6-5.88,4.067-9.459,4.067h-21.446c-6.751,0-12.367-5.145-12.963-11.871L88.4,396.725
		c-0.323-3.628,0.895-7.224,3.363-9.924c2.468-2.7,5.948-4.216,9.592-4.216h22.838c6.9,0,12.6,5.393,12.989,12.285L139.575,437.727z
		 M83.165,288.883c2.461-2.684,5.948-4.216,9.593-4.216h25.993c6.909,0,12.608,5.392,12.997,12.292l1.615,29.033
		c0.19,3.57-1.085,7.066-3.546,9.667c-2.451,2.601-5.873,4.067-9.451,4.067H95.309c-6.743,0-12.376-5.152-12.964-11.87
		l-2.551-29.034C79.471,295.187,80.697,291.583,83.165,288.883z"/>
</g>
</svg>