<?xml version="1.0" encoding="utf-8"?>

<!DOCTYPE svg PUBLIC "-//W3C//DTD SVG 1.1//EN" "http://www.w3.org/Graphics/SVG/1.1/DTD/svg11.dtd">
<!-- Uploaded to: SVG Repo, www.svgrepo.com, Generator: SVG Repo Mixer Tools -->
<svg height="800px" width="800px" version="1.1" id="_x32_" xmlns="http://www.w3.org/2000/svg" xmlns:xlink="http://www.w3.org/1999/xlink" 
	 viewBox="0 0 512 512"  xml:space="preserve">
<style type="text/css">
	:root { color-scheme: dark light; }
</style>
<g>
	<path fill="currentColor" d="M507.316,126.733L138.349,97.498l-5.612-31.861c-5.154-29.076-28.294-51.611-57.524-55.942L9.677,0
		L4.684,33.717l65.544,9.72c14.676,2.165,26.342,13.504,28.919,28.134l52.95,300.107c4.969,28.168,29.431,48.69,58.044,48.698
		h229.728l6.828-34.102H210.142c-12.049,0.017-22.373-8.662-24.454-20.522l-7.42-41.992h283.58L507.316,126.733z"/>
	<path fill="currentColor" d="M223.148,438.658c-20.253,0-36.667,16.426-36.667,36.678c0,20.254,16.414,36.663,36.667,36.663
		c20.258,0,36.675-16.409,36.675-36.663C259.823,455.084,243.405,438.658,223.148,438.658z"/>
	<path fill="currentColor" d="M386.068,438.658c-20.257,0-36.666,16.426-36.666,36.678c0,20.254,16.409,36.663,36.666,36.663
		c20.258,0,36.68-16.409,36.68-36.663C422.748,455.084,406.327,438.658,386.068,438.658z"/>
</g>
</svg>