<?xml version="1.0" encoding="utf-8"?>

<!DOCTYPE svg PUBLIC "-//W3C//DTD SVG 1.1//EN" "http://www.w3.org/Graphics/SVG/1.1/DTD/svg11.dtd">
<!-- Uploaded to: SVG Repo, www.svgrepo.com, Generator: SVG Repo Mixer Tools -->
<svg height="800px" width="800px" version="1.1" id="_x32_" xmlns="http://www.w3.org/2000/svg" xmlns:xlink="http://www.w3.org/1999/xlink" 
	 viewBox="0 0 512 512"  xml:space="preserve">
<style type="text/css">
	:root { color-scheme: dark light; }
</style>
<g>
	<path fill="currentColor" d="M40.948,409.635c4.452,38.165,36.782,66.939,75.209,66.939h279.686c38.418,0,70.757-28.774,75.209-66.939
		l21.73-186.07H19.217L40.948,409.635z M397.513,271.104c0.739-7.244,6.782-12.705,14.061-12.705c0.478,0,0.956,0.026,1.434,0.078
		c7.757,0.783,13.427,7.731,12.652,15.487L411.992,408.6c-0.739,7.244-6.791,12.713-14.07,12.713c0,0-0.94-0.026-1.418-0.078
		c-7.765-0.783-13.435-7.739-12.652-15.504L397.513,271.104z M319.644,271.826c0.391-7.53,6.6-13.426,14.13-13.426
		c4.478,0.209,7.948,1.852,10.487,4.662c2.531,2.799,3.817,6.425,3.627,10.191l-6.774,134.635
		c-0.391,7.53-6.591,13.417-14.122,13.417l-0.722-0.017c-7.782-0.4-13.8-7.052-13.408-14.818L319.644,271.826z M241.853,272.599
		c0-7.799,6.339-14.138,14.139-14.138c7.799,0,14.138,6.339,14.138,14.138l0.009,135.636c0,7.799-6.339,14.139-14.139,14.139
		c-7.799,0-14.147-6.34-14.147-14.139V272.599z M177.514,258.418c0.017,0,0.026,0,0.044,0c8.226,0,14.408,5.886,14.791,13.408
		l6.783,134.635c0.4,7.774-5.609,14.427-13.4,14.826l-0.721,0.017c-7.53,0-13.73-5.886-14.122-13.408l-6.782-134.644
		C163.714,265.461,169.731,258.808,177.514,258.418z M98.982,258.478c0.479-0.052,0.957-0.078,1.436-0.078
		c7.278,0,13.322,5.461,14.061,12.705L128.14,405.73c0.782,7.774-4.896,14.722-12.644,15.504c-0.487,0.052-0.956,0.078-1.426,0.078
		c-7.278,0-13.331-5.469-14.07-12.713L86.33,273.973C85.556,266.209,91.226,259.261,98.982,258.478z"/>
	<path fill="currentColor" d="M215.93,171.208v-33.156H27.766C12.426,138.052,0,150.487,0,165.818v13.017c0,11.061,6.53,20.53,15.905,24.982
		h216.97C222.657,196.547,215.93,184.678,215.93,171.208z"/>
	<path fill="currentColor" d="M484.235,138.052H296.07v33.156c0,13.47-6.726,25.339-16.943,32.608h216.961
		c9.374-4.452,15.913-13.921,15.913-24.982v-13.017C512,150.487,499.565,138.052,484.235,138.052z"/>
	<path fill="currentColor" d="M256,193.469c12.296,0,22.261-9.965,22.261-22.261V57.687c0-12.296-9.965-22.261-22.261-22.261
		c-12.295,0-22.261,9.965-22.261,22.261v113.522C233.739,183.504,243.705,193.469,256,193.469z"/>
</g>
</svg>