<?xml version="1.0" encoding="utf-8"?>

<!DOCTYPE svg PUBLIC "-//W3C//DTD SVG 1.1//EN" "http://www.w3.org/Graphics/SVG/1.1/DTD/svg11.dtd">
<!-- Uploaded to: SVG Repo, www.svgrepo.com, Generator: SVG Repo Mixer Tools -->
<svg height="800px" width="800px" version="1.1" id="_x32_" xmlns="http://www.w3.org/2000/svg" xmlns:xlink="http://www.w3.org/1999/xlink" 
	 viewBox="0 0 512 512"  xml:space="preserve">
<style type="text/css">
	:root { color-scheme: dark light; }
</style>
<g>
	<path fill="currentColor" d="M117.235,294.692c-5.321,0.539-9.2,5.296-8.66,10.617l13.661,116.818c0.548,5.321,5.296,9.191,10.617,8.66
		c5.322-0.539,9.2-5.296,8.661-10.626l-13.661-116.818C127.314,298.022,122.557,294.152,117.235,294.692z"/>
	<path fill="currentColor" d="M186.644,294.648c-5.348,0.269-9.461,4.826-9.2,10.165l6.782,116.826c0.278,5.339,4.826,9.452,10.173,9.182
		c5.34-0.278,9.461-4.818,9.183-10.156L196.8,303.84C196.531,298.492,191.983,294.388,186.644,294.648z"/>
	<path fill="currentColor" d="M394.748,294.692c-5.321-0.54-10.069,3.33-10.609,8.652L370.47,420.162c-0.54,5.33,3.339,10.087,8.66,10.626
		c5.322,0.53,10.079-3.339,10.626-8.66l13.661-116.818C403.948,299.988,400.07,295.231,394.748,294.692z"/>
	<path fill="currentColor" d="M325.348,294.648c-5.348-0.261-9.886,3.843-10.165,9.191L308.4,420.666c-0.27,5.339,3.843,9.878,9.182,10.156
		c5.339,0.27,9.896-3.843,10.174-9.182l6.774-116.826C334.8,299.475,330.687,294.918,325.348,294.648z"/>
	<path fill="currentColor" d="M256.418,294.7c-5.348,0-9.687,4.339-9.687,9.687v117.826c0,5.348,4.348,9.687,9.696,9.687
		c5.348,0,9.695-4.339,9.695-9.687l-0.017-117.826C266.105,299.039,261.774,294.7,256.418,294.7z"/>
	<path fill="currentColor" d="M484.226,171.831h-61.543L350.883,58.7c3.021-5.113,4.873-11.008,4.873-17.373
		c0-18.965-15.373-34.348-34.348-34.348c-18.974,0-34.348,15.383-34.348,34.348c0,18.956,15.374,34.348,34.348,34.348
		c1.074,0,2.087-0.217,3.135-0.322l61.23,96.478H126.213l61.226-96.478c1.052,0.105,2.065,0.322,3.143,0.322
		c18.966,0,34.349-15.391,34.349-34.348c0-18.965-15.383-34.348-34.349-34.348c-18.973,0-34.356,15.383-34.356,34.348
		c0,6.365,1.852,12.26,4.879,17.373L89.309,171.831H27.757C12.426,171.831,0,184.266,0,199.596v29.06
		c0,11.705,7.27,21.679,17.518,25.757l23.422,183.67c4.461,38.165,36.791,66.938,75.217,66.938h279.687
		c38.417,0,70.748-28.773,75.209-66.938l23.422-183.67C504.726,250.326,512,240.361,512,228.656v-29.06
		C512,184.266,499.565,171.831,484.226,171.831z M432.14,447.37c-1.339,11.444-11.044,20.078-22.565,20.078H102.418
		c-11.531,0-21.226-8.634-22.557-20.086l-24.257-190.94h400.792L432.14,447.37z"/>
</g>
</svg>