<?xml version="1.0" encoding="utf-8"?>

<!DOCTYPE svg PUBLIC "-//W3C//DTD SVG 1.1//EN" "http://www.w3.org/Graphics/SVG/1.1/DTD/svg11.dtd">
<!-- Uploaded to: SVG Repo, www.svgrepo.com, Generator: SVG Repo Mixer Tools -->
<svg height="800px" width="800px" version="1.1" id="_x32_" xmlns="http://www.w3.org/2000/svg" xmlns:xlink="http://www.w3.org/1999/xlink" 
	 viewBox="0 0 512 512"  xml:space="preserve">
<style type="text/css">
	:root { color-scheme: dark light; }
</style>
<g>
	<polygon fill="currentColor" points="420.676,378.785 420.676,338.087 217.265,338.087 196.972,280.419 439.538,280.419 512,82.35 
		468.67,82.35 411.098,239.721 182.648,239.721 114.146,45.038 97.675,45.038 0,45.038 0,85.736 85.323,85.736 188.443,378.785 	"/>
	<circle fill="currentColor" cx="197.425" cy="434.404" r="32.558"/>
	<circle fill="currentColor" cx="409.054" cy="434.404" r="32.558"/>
	<path fill="currentColor" d="M198.085,122.372c11.986,0,21.708-9.714,21.708-21.7c0-11.987-9.722-21.708-21.708-21.708
		c-11.987,0-21.7,9.721-21.7,21.708C176.385,112.659,186.098,122.372,198.085,122.372z"/>
	<path fill="currentColor" d="M301.19,122.372c11.986,0,21.708-9.714,21.708-21.7c0-11.987-9.722-21.708-21.708-21.708
		c-11.987,0-21.7,9.721-21.7,21.708C279.489,112.659,289.202,122.372,301.19,122.372z"/>
	<path fill="currentColor" d="M404.294,122.372c11.986,0,21.708-9.714,21.708-21.7c0-11.987-9.722-21.708-21.708-21.708
		c-11.987,0-21.7,9.721-21.7,21.708C382.594,112.659,392.306,122.372,404.294,122.372z"/>
	<path fill="currentColor" d="M252.884,198.347c11.987,0,21.708-9.714,21.708-21.7c0-11.987-9.721-21.708-21.708-21.708
		c-11.986,0-21.7,9.721-21.7,21.708C231.184,188.633,240.898,198.347,252.884,198.347z"/>
	<path fill="currentColor" d="M355.988,198.347c11.987,0,21.708-9.714,21.708-21.7c0-11.987-9.721-21.708-21.708-21.708
		c-11.987,0-21.7,9.721-21.7,21.708C334.288,188.633,344.001,198.347,355.988,198.347z"/>
</g>
</svg>