<?xml version="1.0" encoding="utf-8"?>

<!DOCTYPE svg PUBLIC "-//W3C//DTD SVG 1.1//EN" "http://www.w3.org/Graphics/SVG/1.1/DTD/svg11.dtd">
<!-- Uploaded to: SVG Repo, www.svgrepo.com, Generator: SVG Repo Mixer Tools -->
<svg height="800px" width="800px" version="1.1" id="_x32_" xmlns="http://www.w3.org/2000/svg" xmlns:xlink="http://www.w3.org/1999/xlink" 
	 viewBox="0 0 512 512"  xml:space="preserve">
<style type="text/css">
	:root { color-scheme: dark light; }
</style>
<g>
	<path fill="currentColor" d="M483.157,164.434H350.466l-60.035,58.975c-8.135,7.987-18.892,12.384-30.29,12.384
		c-11.692,0-22.647-4.585-30.839-12.934c-15.834-16.122-16.41-41.596-1.947-58.425H28.843C12.91,164.434,0,177.344,0,193.276v9.614
		c0,15.703,12.548,28.457,28.178,28.81l31.094,190.434c3.771,23.066,23.69,40.002,47.059,40.002h299.28
		c23.37,0,43.296-16.936,47.069-40.002l31.094-190.434c15.646-0.329,28.226-13.09,28.226-28.81v-9.614
		C512,177.344,499.091,164.434,483.157,164.434z M319.972,351.697H191.98v-30.051h127.992V351.697z"/>
	<path fill="currentColor" d="M277.62,210.36L397.493,92.599c9.828-9.647,9.968-25.448,0.312-35.268c-9.656-9.828-25.449-9.976-35.277-0.32
		L242.655,174.772c-9.828,9.664-9.968,25.448-0.312,35.277C251.998,219.876,267.792,220.024,277.62,210.36z"/>
</g>
</svg>