<?xml version="1.0" encoding="utf-8"?>

<!DOCTYPE svg PUBLIC "-//W3C//DTD SVG 1.1//EN" "http://www.w3.org/Graphics/SVG/1.1/DTD/svg11.dtd">
<!-- Uploaded to: SVG Repo, www.svgrepo.com, Generator: SVG Repo Mixer Tools -->
<svg height="800px" width="800px" version="1.1" id="_x32_" xmlns="http://www.w3.org/2000/svg" xmlns:xlink="http://www.w3.org/1999/xlink" 
	 viewBox="0 0 512 512"  xml:space="preserve">
<style type="text/css">
	:root { color-scheme: dark light; }
</style>
<g>
	<path fill="currentColor" d="M483.158,164.434H350.465l-60.034,58.974c-8.128,7.988-18.892,12.392-30.29,12.392
		c-11.684,0-22.647-4.602-30.839-12.942c-15.834-16.13-16.41-41.595-1.94-58.424H28.843C12.91,164.434,0,177.342,0,193.276v9.622
		c0,15.695,12.556,28.448,28.178,28.793l31.094,190.443c3.771,23.074,23.698,40.001,47.068,40.001h299.272
		c23.37,0,43.296-16.927,47.069-40.001L483.774,231.7C499.42,231.371,512,218.609,512,202.898v-9.622
		C512,177.342,499.091,164.434,483.158,164.434z M319.98,351.696h-48.974v48.967h-30.051v-48.967H191.98v-30.05h48.974v-48.982
		h30.051v48.982h48.974V351.696z"/>
	<path fill="currentColor" d="M277.62,210.36L397.493,92.598c9.828-9.655,9.968-25.449,0.312-35.276c-9.647-9.82-25.449-9.959-35.268-0.312
		L242.655,174.778c-9.827,9.656-9.967,25.441-0.312,35.269C252.007,219.875,267.792,220.023,277.62,210.36z"/>
</g>
</svg>