<?xml version="1.0" encoding="utf-8"?>

<!DOCTYPE svg PUBLIC "-//W3C//DTD SVG 1.1//EN" "http://www.w3.org/Graphics/SVG/1.1/DTD/svg11.dtd">
<!-- Uploaded to: SVG Repo, www.svgrepo.com, Generator: SVG Repo Mixer Tools -->
<svg height="800px" width="800px" version="1.1" id="_x32_" xmlns="http://www.w3.org/2000/svg" xmlns:xlink="http://www.w3.org/1999/xlink" 
	 viewBox="0 0 512 512"  xml:space="preserve">
<style type="text/css">
	:root { color-scheme: dark light; }
</style>
<g>
	<path fill="currentColor" d="M198.742,439.886c-5.698-3.854-12.636-6.128-20.012-6.119c-4.912,0-9.651,1-13.943,2.82
		c-6.434,2.721-11.876,7.244-15.737,12.958c-3.862,5.698-6.12,12.636-6.112,20.012c-0.008,4.912,0.992,9.651,2.812,13.934
		c2.729,6.442,7.244,11.884,12.95,15.737c5.707,3.871,12.653,6.128,20.03,6.128c4.912,0,9.642-1.001,13.926-2.82
		c6.442-2.721,11.892-7.253,15.745-12.958c3.854-5.698,6.119-12.644,6.119-20.021c0-4.911-1.009-9.642-2.82-13.934
		C208.979,449.182,204.448,443.74,198.742,439.886z M192.027,475.172c-1.092,2.58-2.936,4.805-5.244,6.36
		c-2.315,1.555-5.027,2.456-8.054,2.464c-2.026-0.008-3.904-0.405-5.615-1.141c-2.572-1.075-4.805-2.928-6.36-5.226
		c-1.555-2.325-2.448-5.044-2.464-8.072c0.008-2.018,0.413-3.887,1.141-5.615c1.075-2.572,2.928-4.796,5.234-6.359
		c2.316-1.555,5.036-2.448,8.063-2.456c2.018,0,3.887,0.406,5.606,1.133c2.58,1.083,4.796,2.928,6.36,5.244
		c1.555,2.315,2.456,5.027,2.456,8.054C193.152,471.584,192.754,473.453,192.027,475.172z"/>
	<path fill="currentColor" d="M168.723,392.842c-3.87,0-7.492-0.778-10.816-2.176c-4.961-2.1-9.245-5.64-12.239-10.089
		c-2.878-4.276-4.581-9.311-4.714-14.835c0.149-6.591,2.25-12.313,5.938-16.887c1.911-2.356,4.267-4.424,7.128-6.136
		c2.828-1.687,6.161-3.026,10.073-3.87l244.332-39.768c15.968-2.605,28.662-14.81,31.887-30.664l29.886-146.925v-0.016
		c0.347-1.704,0.512-3.441,0.512-5.16c0-5.938-2.034-11.743-5.855-16.424c-4.92-6.02-12.296-9.518-20.086-9.518H106.454
		L94.926,50.772v0.008c-5.292-17.705-19.814-31.118-37.874-34.988L15.688,6.935C8.692,5.43,1.794,9.896,0.29,16.9
		c-1.497,7.004,2.96,13.901,9.973,15.398l41.348,8.865c8.806,1.885,15.885,8.418,18.457,17.052l75.584,259.63
		c-1.703,0.794-3.349,1.654-4.928,2.605c-8.154,4.855-14.687,11.669-19.07,19.624c-4.192,7.558-6.417,16.126-6.624,24.966h-0.042
		v1.347h0.033c0.166,6.906,1.638,13.53,4.193,19.575c4.094,9.667,10.891,17.846,19.458,23.634c8.567,5.796,18.97,9.195,30.051,9.187
		H305.99c-0.042-1.281-0.19-2.53-0.19-3.82c0-7.567,0.777-14.952,2.175-22.121H168.723z M353.457,134.939
		c7.285-2.117,14.909,2.051,17.026,9.336l27.835,95.273c2.117,7.286-2.06,14.902-9.344,17.035
		c-7.278,2.126-14.902-2.05-17.027-9.336l-27.828-95.274C341.995,144.697,346.171,137.073,353.457,134.939z M293.395,135.187
		c7.277-2.134,14.902,2.042,17.026,9.328l30.49,104.41c2.134,7.278-2.051,14.91-9.328,17.036
		c-7.277,2.124-14.902-2.051-17.036-9.337l-30.49-104.412C281.934,144.937,286.109,137.304,293.395,135.187z M233.317,135.402
		c7.285-2.117,14.91,2.059,17.026,9.344l32.996,112.97c2.133,7.286-2.051,14.91-9.328,17.035c-7.276,2.126-14.901-2.05-17.035-9.336
		L223.98,152.437C221.855,145.16,226.031,137.535,233.317,135.402z M173.247,135.642c7.286-2.126,14.91,2.051,17.035,9.337
		l35.567,121.794c2.134,7.285-2.051,14.918-9.328,17.035c-7.277,2.133-14.902-2.051-17.036-9.328l-35.575-121.81
		C161.794,145.392,165.962,137.767,173.247,135.642z"/>
	<path fill="currentColor" d="M421.597,324.56c-49.931,0-90.386,40.471-90.386,90.403c0,49.923,40.455,90.394,90.386,90.394
		c49.932,0,90.403-40.471,90.403-90.394C512,365.031,471.529,324.56,421.597,324.56z M473.249,430.03H369.946v-30.143h103.303
		V430.03z"/>
</g>
</svg>