<?xml version="1.0" encoding="utf-8"?>

<!DOCTYPE svg PUBLIC "-//W3C//DTD SVG 1.1//EN" "http://www.w3.org/Graphics/SVG/1.1/DTD/svg11.dtd">
<!-- Uploaded to: SVG Repo, www.svgrepo.com, Generator: SVG Repo Mixer Tools -->
<svg height="800px" width="800px" version="1.1" id="_x32_" xmlns="http://www.w3.org/2000/svg" xmlns:xlink="http://www.w3.org/1999/xlink" 
	 viewBox="0 0 512 512"  xml:space="preserve">
<style type="text/css">
	:root { color-scheme: dark light; }
</style>
<g>
	<path fill="currentColor" d="M134.959,310.276h202.98c8.456,0,15.316-6.865,15.316-15.321v-14.708H119.637v14.708
		C119.637,303.411,126.493,310.276,134.959,310.276z"/>
	<path fill="currentColor" d="M264.972,184.582v-12.224c0-6.261-5.082-11.342-11.347-11.342h-34.357c-6.266,0-11.347,5.082-11.347,11.342
		v12.224c-42.919,10.46-76.812,43.95-87.804,86.654h232.659C341.784,228.532,307.886,195.042,264.972,184.582z"/>
	<path fill="currentColor" d="M70.798,498.98c0,7.192,5.825,13.02,13.011,13.02c7.186,0,13.01-5.829,13.01-13.02
		c0-7.19-13.01-23.173-13.01-23.173S70.798,491.789,70.798,498.98z"/>
	<path fill="currentColor" d="M147.115,498.98c0,7.192,5.825,13.02,13.01,13.02c7.186,0,13.011-5.829,13.011-13.02
		c0-7.19-13.011-23.173-13.011-23.173S147.115,491.789,147.115,498.98z"/>
	<path fill="currentColor" d="M223.438,498.98c0,7.192,5.82,13.02,13.006,13.02c7.191,0,13.01-5.829,13.01-13.02
		c0-7.19-13.01-23.173-13.01-23.173S223.438,491.789,223.438,498.98z"/>
	<path fill="currentColor" d="M299.756,498.98c0,7.192,5.824,13.02,13.01,13.02c7.186,0,13.011-5.829,13.011-13.02
		c0-7.19-13.011-23.173-13.011-23.173S299.756,491.789,299.756,498.98z"/>
	<path fill="currentColor" d="M376.073,498.98c0,7.192,5.825,13.02,13.01,13.02c7.186,0,13.01-5.829,13.01-13.02
		c0-7.19-13.01-23.173-13.01-23.173S376.073,491.789,376.073,498.98z"/>
	<path fill="currentColor" d="M108.961,430.198c0,7.181,5.82,13.001,13.006,13.001c7.191,0,13.01-5.82,13.01-13.001
		c0-7.192-13.01-23.184-13.01-23.184S108.961,423.007,108.961,430.198z"/>
	<path fill="currentColor" d="M185.275,430.198c0,7.181,5.829,13.001,13.01,13.001c7.186,0,13.015-5.82,13.015-13.001
		c0-7.192-13.01-23.184-13.01-23.184S185.275,423.007,185.275,430.198z"/>
	<path fill="currentColor" d="M261.592,430.198c0,7.181,5.829,13.001,13.01,13.001c7.186,0,13.015-5.82,13.015-13.001
		c0-7.192-13.015-23.184-13.015-23.184S261.592,423.007,261.592,430.198z"/>
	<path fill="currentColor" d="M337.91,430.198c0,7.181,5.83,13.001,13.015,13.001c7.186,0,13.01-5.82,13.01-13.001
		c0-7.192-13.01-23.184-13.01-23.184S337.91,423.007,337.91,430.198z"/>
	<path fill="currentColor" d="M147.115,368.252c0,7.19,5.825,13.02,13.01,13.02c7.186,0,13.011-5.83,13.011-13.02
		c0-7.181-13.011-23.174-13.011-23.174S147.115,361.072,147.115,368.252z"/>
	<path fill="currentColor" d="M223.438,368.252c0,7.19,5.82,13.02,13.006,13.02c7.191,0,13.01-5.83,13.01-13.02
		c0-7.181-13.01-23.174-13.01-23.174S223.438,361.072,223.438,368.252z"/>
	<path fill="currentColor" d="M299.756,368.252c0,7.19,5.824,13.02,13.01,13.02c7.186,0,13.011-5.83,13.011-13.02
		c0-7.181-13.011-23.174-13.011-23.174S299.756,361.072,299.756,368.252z"/>
	<path fill="currentColor" d="M400.671,18.227v71.955c9.928,11.178,24.401,18.226,40.532,18.226V0C425.072,0,410.598,7.057,400.671,18.227z"
		/>
	<path fill="currentColor" d="M253.27,136.413c0-9.452,1.903-18.37,5.345-26.51c5.158-12.204,13.821-22.636,24.703-29.989
		c5.436-3.673,11.428-6.578,17.814-8.562c6.385-1.985,13.173-3.068,20.268-3.068h65.474v-33.02H321.4
		c-13.926-0.01-27.272,2.828-39.382,7.958c-18.178,7.689-33.586,20.489-44.492,36.624c-5.455,8.073-9.779,16.98-12.737,26.5
		c-2.962,9.511-4.549,19.636-4.549,30.067v11.525h33.03V136.413z"/>
</g>
</svg>