<?xml version="1.0" encoding="utf-8"?>

<!DOCTYPE svg PUBLIC "-//W3C//DTD SVG 1.1//EN" "http://www.w3.org/Graphics/SVG/1.1/DTD/svg11.dtd">
<!-- Uploaded to: SVG Repo, www.svgrepo.com, Generator: SVG Repo Mixer Tools -->
<svg height="800px" width="800px" version="1.1" id="_x32_" xmlns="http://www.w3.org/2000/svg" xmlns:xlink="http://www.w3.org/1999/xlink" 
	 viewBox="0 0 512 512"  xml:space="preserve">
<style type="text/css">
	:root { color-scheme: dark light; }
</style>
<g>
	<path fill="currentColor" d="M158.293,495.159c0,9.301,7.54,16.841,16.841,16.841c9.3,0,16.84-7.54,16.84-16.841l6.364-115.794
		l-43.812-21.258L158.293,495.159z"/>
	<path fill="currentColor" d="M198.999,379.55l6.356,115.608c0,9.301,7.54,16.841,16.84,16.841c9.301,0,16.841-7.54,16.841-16.841
		l3.758-137.019l-43.532,21.487L198.999,379.55z"/>
	<path fill="currentColor" d="M198.66,184.842c19.303,0,34.951-15.639,34.951-34.943c0-19.294-15.648-34.942-34.951-34.942
		c-19.303,0-34.942,15.648-34.942,34.942C163.718,169.203,179.357,184.842,198.66,184.842z"/>
	<path fill="currentColor" d="M377.917,0h-30.779c-5.814,0-13.032,2.987-17.145,7.108l-12.44,12.432l-0.981-0.982l-35.746-0.034
		l-7.955,7.954l48,48l7.946-7.955l-0.025-35.746l-1.193-1.194l12.44-12.44c1.43-1.43,5.077-2.937,7.1-2.937h30.779v198.873h-14.226
		v-16.392c0-2.886-2.336-5.221-5.222-5.221c-2.877,0-5.212,2.336-5.212,5.221v43.228c0,2.886,2.335,5.222,5.212,5.222
		c2.886,0,5.222-2.336,5.222-5.222v-16.392h14.226V512h14.208V14.208C392.125,6.372,385.753,0,377.917,0z"/>
	<path fill="currentColor" d="M278.886,49.684c-1.904,1.447-2.284,4.129-0.863,6c1.422,1.879,4.112,2.234,6.016,0.787
		c1.905-1.447,2.294-4.138,0.872-6.009C283.49,48.584,280.782,48.237,278.886,49.684z"/>
	<path fill="currentColor" d="M267.851,68.767c1.904-1.447,2.293-4.138,0.872-6.008c-1.422-1.879-4.121-2.226-6.025-0.779
		c-1.905,1.438-2.285,4.13-0.864,6C263.255,69.859,265.947,70.206,267.851,68.767z"/>
	<path fill="currentColor" d="M251.661,81.055c1.904-1.438,2.294-4.13,0.872-6.009c-1.422-1.87-4.122-2.217-6.026-0.778
		c-1.904,1.447-2.285,4.138-0.863,6.016C247.066,82.155,249.758,82.502,251.661,81.055z"/>
	<path fill="currentColor" d="M235.473,93.351c1.904-1.438,2.302-4.138,0.871-6.008c-1.421-1.87-4.12-2.226-6.016-0.77
		c-1.913,1.438-2.293,4.13-0.872,6.009C230.877,94.452,233.577,94.798,235.473,93.351z"/>
	<path fill="currentColor" d="M219.284,105.648c1.904-1.438,2.293-4.13,0.872-6.009c-1.422-1.879-4.121-2.217-6.025-0.778
		c-1.896,1.447-2.285,4.138-0.863,6.008C214.688,106.748,217.387,107.095,219.284,105.648z"/>
	<path fill="currentColor" d="M272.945,43.303c2.065-0.854,3.021-3.308,2.124-5.484c-0.897-2.174-3.308-3.25-5.382-2.394
		c-2.074,0.863-3.021,3.317-2.124,5.492C268.46,43.092,270.872,44.158,272.945,43.303z"/>
	<path fill="currentColor" d="M255.3,50.59c2.074-0.855,3.03-3.317,2.133-5.484c-0.897-2.175-3.309-3.242-5.382-2.387
		c-2.064,0.854-3.021,3.309-2.124,5.484C250.832,50.378,253.236,51.444,255.3,50.59z"/>
	<path fill="currentColor" d="M237.673,57.876c2.064-0.854,3.021-3.308,2.124-5.484c-0.897-2.175-3.31-3.241-5.382-2.386
		c-2.074,0.854-3.021,3.308-2.124,5.492C233.197,57.665,235.599,58.739,237.673,57.876z"/>
	<path fill="currentColor" d="M220.037,65.171c2.074-0.863,3.021-3.317,2.124-5.492c-0.897-2.175-3.308-3.25-5.382-2.386
		c-2.065,0.854-3.021,3.309-2.124,5.484C215.551,64.96,217.963,66.026,220.037,65.171z"/>
	<path fill="currentColor" d="M202.401,72.457c2.073-0.863,3.03-3.317,2.124-5.492c-0.897-2.175-3.31-3.241-5.382-2.386
		c-2.074,0.855-3.022,3.317-2.124,5.484C197.923,72.246,200.327,73.312,202.401,72.457z"/>
	<path fill="currentColor" d="M184.764,79.743c2.074-0.854,3.021-3.308,2.124-5.492c-0.897-2.174-3.308-3.25-5.374-2.386
		c-2.082,0.855-3.029,3.318-2.132,5.484C180.288,79.532,182.691,80.599,184.764,79.743z"/>
	<path fill="currentColor" d="M297.69,68.488c1.447-1.904,1.1-4.604-0.77-6.017c-1.879-1.431-4.57-1.042-6.018,0.863
		c-1.438,1.904-1.091,4.594,0.779,6.025C293.561,70.781,296.251,70.392,297.69,68.488z"/>
	<path fill="currentColor" d="M278.615,79.523c-1.447,1.905-1.1,4.596,0.778,6.018c1.87,1.43,4.562,1.041,6-0.863
		c1.447-1.896,1.101-4.604-0.77-6.026C282.745,77.23,280.054,77.619,278.615,79.523z"/>
	<path fill="currentColor" d="M273.106,100.858c1.438-1.895,1.092-4.586-0.778-6.017c-1.879-1.422-4.57-1.032-6.009,0.872
		c-1.447,1.895-1.1,4.595,0.779,6.025C268.968,103.16,271.659,102.771,273.106,100.858z"/>
	<path fill="currentColor" d="M254.023,111.893c-1.447,1.913-1.101,4.604,0.778,6.026c1.87,1.422,4.562,1.032,6-0.863
		c1.456-1.904,1.108-4.596-0.77-6.025C258.161,109.608,255.47,109.997,254.023,111.893z"/>
	<path fill="currentColor" d="M248.513,133.236c1.447-1.896,1.1-4.587-0.778-6.018c-1.87-1.421-4.562-1.032-6.009,0.872
		c-1.447,1.896-1.091,4.587,0.779,6.018C244.375,135.538,247.066,135.14,248.513,133.236z"/>
	<path fill="currentColor" d="M309.555,72.305c-2.175-0.897-4.629,0.06-5.484,2.132c-0.863,2.065,0.211,4.468,2.386,5.374
		c2.174,0.898,4.628-0.05,5.484-2.124C312.796,75.614,311.73,73.21,309.555,72.305z"/>
	<path fill="currentColor" d="M302.269,89.941c-2.175-0.897-4.629,0.05-5.484,2.133c-0.864,2.065,0.212,4.468,2.386,5.374
		c2.175,0.897,4.63-0.059,5.485-2.124C305.51,93.25,304.443,90.838,302.269,89.941z"/>
	<path fill="currentColor" d="M294.982,107.577c-2.174-0.897-4.628,0.051-5.492,2.133c-0.855,2.065,0.219,4.477,2.386,5.374
		c2.184,0.898,4.638-0.05,5.492-2.124C298.223,110.886,297.157,108.475,294.982,107.577z"/>
	<path fill="currentColor" d="M287.695,125.214c-2.175-0.897-4.629,0.051-5.492,2.124c-0.854,2.074,0.22,4.485,2.395,5.382
		c2.175,0.897,4.63-0.059,5.484-2.124C290.937,128.522,289.871,126.11,287.695,125.214z"/>
	<path fill="currentColor" d="M280.409,142.85c-2.175-0.898-4.638,0.05-5.492,2.124c-0.854,2.073,0.212,4.477,2.386,5.374
		c2.175,0.906,4.638-0.051,5.492-2.116C283.65,146.159,282.585,143.747,280.409,142.85z"/>
	<path fill="currentColor" d="M270.017,167.984c2.175,0.906,4.637-0.05,5.492-2.116c0.854-2.074-0.212-4.485-2.395-5.382
		c-2.166-0.897-4.629,0.051-5.484,2.124C266.776,164.684,267.842,167.086,270.017,167.984z"/>
	<path fill="currentColor" d="M198.66,203.781c-28.79,0-71.018,10.866-71.018,52.028l-7.752,89.84c-0.339,7.134,5.162,13.185,12.296,13.523
		c7.126,0.339,13.176-5.162,13.515-12.287l5.949-53.873l1.718,39.859h90.593l1.71-39.859l5.958,53.873
		c0.339,7.125,6.389,12.626,13.515,12.287c7.126-0.338,12.626-6.389,12.288-13.523l-7.735-89.84
		C269.696,214.647,227.45,203.781,198.66,203.781z M221.145,284.861c-10.705,0-19.667-6.279-22.806-14.902
		c-3.14,8.623-12.111,14.902-22.807,14.902c-13.295,0-24.085-9.639-24.085-21.537c0-11.89,10.79-16.358,24.085-16.358
		c10.696,0,19.667,2.97,22.807,10.29c3.14-7.32,12.102-10.29,22.806-10.29c13.295,0,24.085,4.468,24.085,16.358
		C245.23,275.222,234.44,284.861,221.145,284.861z"/>
</g>
</svg>