<?xml version="1.0" encoding="utf-8"?>

<!DOCTYPE svg PUBLIC "-//W3C//DTD SVG 1.1//EN" "http://www.w3.org/Graphics/SVG/1.1/DTD/svg11.dtd">
<!-- Uploaded to: SVG Repo, www.svgrepo.com, Generator: SVG Repo Mixer Tools -->
<svg version="1.1" id="_x32_" xmlns="http://www.w3.org/2000/svg" xmlns:xlink="http://www.w3.org/1999/xlink" 
	 width="800px" height="800px" viewBox="0 0 512 512"  xml:space="preserve">
<style type="text/css">
<![CDATA[
	:root { color-scheme: dark light; }
]]>
</style>
<g>
	<polygon fill="currentColor" points="312.375,122.563 358.938,78.438 358.938,0 307.469,0 256,51.469 204.531,0 153.063,0 153.063,78.438 
		199.625,122.563 	"/>
	<polygon fill="currentColor" points="244.641,383.328 256,383.328 267.344,383.328 256,369.125 	"/>
	<path fill="currentColor" d="M225,322.594c-11.813-2.016-23.313,7.703-25.734,21.719c-2.391,14.016,5.234,27,17.063,29.031
		c11.813,2.016,23.328-7.703,25.734-21.719S236.813,324.625,225,322.594z"/>
	<path fill="currentColor" d="M381.938,239.641c-32.891-49-71.031-89.859-71.031-89.859H201.078c0,0-38.141,40.859-71.047,89.859
		c-22.016,32.797-36.078,67.703-36.078,110.313C93.953,439.438,166.5,512,256,512c89.484,0,162.047-72.563,162.047-162.047
		C418.047,307.344,403.969,272.438,381.938,239.641z M336.75,379.813c-7.406,18.594-29.219,27.813-42.281,31.766v15.688
		c0,2.828-2.281,5.141-5.125,5.141h-12.531c-2.844,0-5.125-2.313-5.125-5.141v-13.141h-4.281v13.141
		c0,2.828-2.313,5.141-5.141,5.141h-12.547c-2.828,0-5.125-2.313-5.125-5.141v-13.141h-4.281v13.141
		c0,2.828-2.297,5.141-5.125,5.141h-12.531c-2.844,0-5.141-2.313-5.141-5.141v-15.688c-13.078-3.969-34.875-13.172-42.297-31.766
		c-5.375-13.531-3.281-31.344,4.797-65.656c8.078-34.328,31.547-53.5,75.984-53.5c44.406,0,67.891,19.172,75.969,53.5
		C340.031,348.469,342.156,366.281,336.75,379.813z"/>
	<path fill="currentColor" d="M287,322.594c-11.813,2.031-19.469,15.016-17.063,29.031c2.391,14.016,13.906,23.734,25.719,21.719
		c11.828-2.031,19.453-15.016,17.063-29.031C310.313,330.297,298.813,320.578,287,322.594z"/>
</g>
</svg>