<?xml version="1.0" encoding="utf-8"?>

<!DOCTYPE svg PUBLIC "-//W3C//DTD SVG 1.1//EN" "http://www.w3.org/Graphics/SVG/1.1/DTD/svg11.dtd">
<!-- Uploaded to: SVG Repo, www.svgrepo.com, Generator: SVG Repo Mixer Tools -->
<svg version="1.1" id="_x32_" xmlns="http://www.w3.org/2000/svg" xmlns:xlink="http://www.w3.org/1999/xlink" 
	 width="800px" height="800px" viewBox="0 0 512 512"  xml:space="preserve">
<style type="text/css">
<![CDATA[
	:root { color-scheme: dark light; }
]]>
</style>
<g>
	<path fill="currentColor" d="M420.313,248.953c-9.625-19.672-22.656-37.328-38.344-52.234c8.156-17.656,12.719-37.359,12.719-58.031
		c0-19.094-3.875-37.391-10.906-53.984c-10.531-24.922-28.094-46.047-50.219-61.016C311.438,8.75,284.656,0,256,0
		c-19.094,0-37.375,3.875-54,10.906C177.094,21.453,155.969,39,141,61.141c-14.938,22.109-23.688,48.891-23.688,77.547
		c0,20.672,4.563,40.375,12.719,58.031c-15.688,14.906-28.719,32.563-38.344,52.234c-11.844,24.219-18.5,51.516-18.5,80.234
		c0,25.188,5.125,49.281,14.375,71.156c13.875,32.844,37.031,60.719,66.219,80.422C182.938,500.469,218.188,512,256,512
		c25.188,0,49.281-5.125,71.156-14.375c32.844-13.891,60.719-37.047,80.438-66.219c19.688-29.156,31.219-64.422,31.219-102.219
		C438.813,300.469,432.156,273.172,420.313,248.953z M391,386.203c-11.094,26.266-29.688,48.672-53.094,64.484
		c-23.406,15.797-51.5,25-81.906,25.016c-20.281-0.016-39.5-4.109-57.031-11.516c-26.281-11.094-48.656-29.703-64.469-53.094
		c-15.813-23.406-25-51.5-25.031-81.906c0.031-23.125,5.344-44.875,14.844-64.281c9.469-19.391,23.156-36.422,39.813-49.859
		c7.094-5.703,8.875-15.734,4.156-23.516c-9.313-15.438-14.656-33.438-14.656-52.844c0-14.188,2.844-27.609,8.031-39.844
		c7.75-18.359,20.75-34.031,37.125-45.063C215.125,42.734,234.719,36.313,256,36.297c14.188,0.016,27.594,2.875,39.844,8.047
		c18.344,7.75,34.031,20.766,45.063,37.109c11.047,16.359,17.469,35.969,17.469,57.234c0,19.406-5.344,37.406-14.656,52.844
		c-4.719,7.781-2.938,17.813,4.156,23.516c16.656,13.438,30.328,30.469,39.813,49.859c9.5,19.406,14.813,41.156,14.813,64.281
		C402.5,349.469,398.406,368.688,391,386.203z"/>
	<path fill="currentColor" d="M230.781,132.391c0-8.906-7.219-16.141-16.125-16.141s-16.125,7.234-16.125,16.141
		c0,8.922,7.219,16.141,16.125,16.141S230.781,141.313,230.781,132.391z"/>
	<path fill="currentColor" d="M297.344,116.25c-8.906,0-16.125,7.234-16.125,16.141c0,8.922,7.219,16.141,16.125,16.141
		s16.125-7.219,16.125-16.141C313.469,123.484,306.25,116.25,297.344,116.25z"/>
	<path fill="currentColor" d="M286.375,161.875c-3.344,0-6.063,2.719-6.063,6.063v0.516h-48.625v-0.516c0-3.344-2.719-6.063-6.063-6.063
		c-3.313,0-6.031,2.719-6.031,6.063v13.141c0,3.344,2.719,6.047,6.031,6.047c3.344,0,6.063-2.703,6.063-6.047v-0.516h48.625v0.516
		c0,3.344,2.719,6.047,6.063,6.047c3.313,0,6.031-2.703,6.031-6.047v-13.141C292.406,164.594,289.688,161.875,286.375,161.875z"/>
</g>
</svg>