<?xml version="1.0" encoding="utf-8"?>

<!DOCTYPE svg PUBLIC "-//W3C//DTD SVG 1.1//EN" "http://www.w3.org/Graphics/SVG/1.1/DTD/svg11.dtd">
<!-- Uploaded to: SVG Repo, www.svgrepo.com, Generator: SVG Repo Mixer Tools -->
<svg height="800px" width="800px" version="1.1" id="_x32_" xmlns="http://www.w3.org/2000/svg" xmlns:xlink="http://www.w3.org/1999/xlink" 
	 viewBox="0 0 512 512"  xml:space="preserve">
<style type="text/css">
	:root { color-scheme: dark light; }
</style>
<g>
	<path fill="currentColor" d="M406.532,473.645l-18.419-92.237c5.843-3.329,9.667-9.585,9.667-16.746c0-5.555-2.299-10.565-6.049-14.109
		c0.214-0.189,0.404-0.395,0.61-0.585h-1.344c-3.403-2.95-7.804-4.763-12.674-4.763H133.679c-4.804,0-9.205,1.813-12.601,4.763
		h-1.351c0.206,0.19,0.404,0.396,0.609,0.585c-3.749,3.478-6.115,8.554-6.115,14.109c0,7.228,3.89,13.483,9.733,16.821
		l-18.419,92.163c-8.546,2.002-14.942,9.724-14.942,18.897c0,10.772,8.752,19.458,19.458,19.458h291.9
		c10.771,0,19.457-8.686,19.457-19.458C421.407,483.37,415.087,475.722,406.532,473.645z M133.959,473.085l17.793-88.965h18.905
		h170.686h18.972l17.793,88.965H133.959z"/>
	<path fill="currentColor" d="M408.65,333.089c30.452-35.289,48.895-81.226,48.895-131.54C457.545,90.283,367.337,0,256.004,0
		C144.731,0,54.521,90.283,54.455,201.55c0.058,50.313,18.51,96.25,48.962,131.54H408.65z M398.909,132.24
		c7.285,0,13.194,5.901,13.194,13.178c0,7.294-5.909,13.195-13.194,13.195c-7.286,0-13.186-5.901-13.186-13.195
		C385.723,138.141,391.623,132.24,398.909,132.24z M379.221,239.138c7.771,0,14.068,6.296,14.068,14.068
		c0,7.763-6.297,14.059-14.068,14.059c-7.772,0-14.068-6.296-14.068-14.059C365.153,245.435,371.449,239.138,379.221,239.138z
		 M306.079,222.26c0,8.546-6.922,15.477-15.469,15.477s-15.469-6.931-15.469-15.477c0-8.538,6.922-15.469,15.469-15.469
		S306.079,213.722,306.079,222.26z M280.761,41.964c9.47,0,17.142,7.673,17.142,17.142c0,9.461-7.673,17.142-17.142,17.142
		c-9.47,0-17.142-7.681-17.142-17.142C263.62,49.637,271.292,41.964,280.761,41.964z M218.877,153.338
		c6.988,0,12.658,5.67,12.658,12.659s-5.67,12.659-12.658,12.659c-6.997,0-12.659-5.67-12.659-12.659
		S211.881,153.338,218.877,153.338z M179.492,81.605c7.772,0,14.068,6.296,14.068,14.068c0,7.763-6.296,14.06-14.068,14.06
		c-7.763,0-14.059-6.296-14.059-14.06C165.433,87.902,171.729,81.605,179.492,81.605z M178.083,239.138
		c10.104,0,18.288,8.192,18.288,18.287c0,10.096-8.183,18.279-18.288,18.279c-10.096,0-18.279-8.183-18.279-18.279
		C159.803,247.33,167.987,239.138,178.083,239.138z M116.207,170.043c6.305,0,11.422,5.117,11.422,11.43
		c0,6.305-5.118,11.422-11.422,11.422c-6.313,0-11.431-5.117-11.431-11.422C104.776,175.16,109.894,170.043,116.207,170.043z"/>
</g>
</svg>