<?xml version="1.0" encoding="utf-8"?>

<!DOCTYPE svg PUBLIC "-//W3C//DTD SVG 1.1//EN" "http://www.w3.org/Graphics/SVG/1.1/DTD/svg11.dtd">
<!-- Uploaded to: SVG Repo, www.svgrepo.com, Generator: SVG Repo Mixer Tools -->
<svg height="800px" width="800px" version="1.1" id="_x32_" xmlns="http://www.w3.org/2000/svg" xmlns:xlink="http://www.w3.org/1999/xlink" 
	 viewBox="0 0 512 512"  xml:space="preserve">
<style type="text/css">
	:root { color-scheme: dark light; }
</style>
<g>
	<path fill="currentColor" d="M512,204.8c0-12.896-10.46-23.355-23.363-23.355h-47.723v98.895H71.078v-98.895H23.363
		C10.459,181.445,0,191.904,0,204.8v146.618h34.257v37.864h33.988v-37.864h375.502v37.864h34.004v-37.864H512V204.8z"/>
	<path fill="currentColor" d="M245.703,140.241c0-9.676-7.848-17.524-17.524-17.524H126.728c-19.352,0-35.041,15.688-35.041,35.048v101.973
		h154.015V140.241z"/>
	<path fill="currentColor" d="M420.312,157.766c0-19.36-15.69-35.048-35.041-35.048h-101.45c-9.676,0-17.516,7.848-17.516,17.524v119.497
		h154.008V157.766z"/>
</g>
</svg>