<?xml version="1.0" encoding="utf-8"?>

<!DOCTYPE svg PUBLIC "-//W3C//DTD SVG 1.1//EN" "http://www.w3.org/Graphics/SVG/1.1/DTD/svg11.dtd">
<!-- Uploaded to: SVG Repo, www.svgrepo.com, Generator: SVG Repo Mixer Tools -->
<svg height="800px" width="800px" version="1.1" id="_x32_" xmlns="http://www.w3.org/2000/svg" xmlns:xlink="http://www.w3.org/1999/xlink" 
	 viewBox="0 0 512 512"  xml:space="preserve">
<style type="text/css">
	:root { color-scheme: dark light; }
</style>
<g>
	<path fill="currentColor" d="M445.848,129.89c-36.43,0-65.962,29.532-65.962,65.969c0,6.026,0,86.928,0,86.928
		c0,14.412-11.686,26.09-26.098,26.09H158.203c-14.404,0-26.09-11.678-26.09-26.09c0,0,0-80.902,0-86.928
		c0-36.437-29.532-65.969-65.969-65.969c-36.438,0-65.969,29.532-65.969,65.969c0,23.498,12.294,44.13,30.793,55.816
		c3.41,2.157,7.303,5.551,7.303,40.742c0,35.2,0,60.621,0,60.621c0,32.661,26.488,59.14,59.148,59.14H414.58
		c32.662,0,59.141-26.48,59.141-59.14c0,0,0-25.421,0-60.621c0-35.191,3.892-38.586,7.303-40.742
		c18.507-11.686,30.801-32.319,30.801-55.816C511.825,159.422,482.285,129.89,445.848,129.89z"/>
	<polygon fill="currentColor" points="101.694,512 132.945,512 156.373,429.985 108.203,429.985 	"/>
	<polygon fill="currentColor" points="355.627,429.985 379.053,512 410.298,512 403.789,429.985 	"/>
	<path fill="currentColor" d="M150.526,195.859v86.928c0,4.236,3.441,7.685,7.677,7.685h195.586c4.235,0,7.685-3.449,7.685-7.685v-86.928
		c0-40.338,28.457-74.136,66.35-82.42v-35.16C427.824,35.052,392.78,0,349.546,0H162.454c-43.243,0-78.278,35.052-78.278,78.278
		v35.16C122.061,121.723,150.526,155.52,150.526,195.859z M312.119,92.051c7.35,0,13.298,5.956,13.298,13.298
		c0,7.342-5.948,13.29-13.298,13.29c-7.334,0-13.29-5.948-13.29-13.29C298.829,98.008,304.785,92.051,312.119,92.051z
		 M312.119,193.305c7.35,0,13.298,5.956,13.298,13.298c0,7.342-5.948,13.298-13.298,13.298c-7.334,0-13.29-5.956-13.29-13.298
		C298.829,199.262,304.785,193.305,312.119,193.305z M202.69,92.051c7.335,0,13.29,5.956,13.29,13.298
		c0,7.342-5.956,13.29-13.29,13.29c-7.349,0-13.298-5.948-13.298-13.29C189.393,98.008,195.341,92.051,202.69,92.051z
		 M202.69,193.305c7.335,0,13.29,5.956,13.29,13.298c0,7.342-5.956,13.298-13.29,13.298c-7.349,0-13.298-5.956-13.298-13.298
		C189.393,199.262,195.341,193.305,202.69,193.305z"/>
</g>
</svg>