<?xml version="1.0" encoding="utf-8"?>

<!DOCTYPE svg PUBLIC "-//W3C//DTD SVG 1.1//EN" "http://www.w3.org/Graphics/SVG/1.1/DTD/svg11.dtd">
<!-- Uploaded to: SVG Repo, www.svgrepo.com, Generator: SVG Repo Mixer Tools -->
<svg height="800px" width="800px" version="1.1" id="_x32_" xmlns="http://www.w3.org/2000/svg" xmlns:xlink="http://www.w3.org/1999/xlink" 
	 viewBox="0 0 512 512"  xml:space="preserve">
<style type="text/css">
	:root { color-scheme: dark light; }
</style>
<g>
	<path fill="currentColor" d="M501.642,167.088c-6.384-6.384-15.271-10.358-25.022-10.358h-39.969c-1.622-10.1-6.376-19.186-13.301-26.094
		c-8.588-8.604-20.55-13.958-33.685-13.958H274.414c-6.967,0-13.4,2.461-18.414,6.534c-5.021-4.073-11.455-6.534-18.413-6.534
		H122.334c-13.134,0-25.105,5.354-33.693,13.958c-6.916,6.908-11.679,15.994-13.292,26.094H35.372
		c-9.751,0-18.646,3.974-25.014,10.358C3.973,173.455,0,182.351,0,192.102v164.88h46.819v38.34h35.713v-38.34h336.105v38.34h35.721
		v-38.34H512v-10.831V192.102C512,182.351,508.026,173.464,501.642,167.088z M262.492,145.915c0-3.309,1.322-6.252,3.491-8.422
		c2.178-2.169,5.113-3.491,8.43-3.491h115.252c8.388,0,15.928,3.383,21.44,8.878c5.495,5.511,8.879,13.052,8.886,21.448v100.646
		H262.492V145.915z M92.008,164.328c0-8.396,3.384-15.936,8.879-21.448c5.512-5.496,13.051-8.878,21.447-8.878h115.253
		c3.308,0,6.251,1.322,8.429,3.491c2.162,2.17,3.484,5.113,3.492,8.422v119.059h-157.5V164.328z M494.676,339.659l-477.352,0.008
		v-0.008V192.102c0-5.005,2.004-9.477,5.287-12.76c3.283-3.284,7.756-5.287,12.76-5.296h43.644v103.921H256h176.976V174.046h43.644
		c5.013,0.008,9.477,2.011,12.769,5.296c3.276,3.283,5.287,7.756,5.287,12.76V339.659z"/>
</g>
</svg>