<?xml version="1.0" encoding="utf-8"?>

<!DOCTYPE svg PUBLIC "-//W3C//DTD SVG 1.1//EN" "http://www.w3.org/Graphics/SVG/1.1/DTD/svg11.dtd">
<!-- Uploaded to: SVG Repo, www.svgrepo.com, Generator: SVG Repo Mixer Tools -->
<svg height="800px" width="800px" version="1.1" id="_x32_" xmlns="http://www.w3.org/2000/svg" xmlns:xlink="http://www.w3.org/1999/xlink" 
	 viewBox="0 0 512 512"  xml:space="preserve">
<style type="text/css">
	:root { color-scheme: dark light; }
</style>
<g>
	<path fill="currentColor" d="M497.448,131.092c-8.969-8.969-21.454-14.552-35.153-14.552h-56.151c-2.277-14.189-8.957-26.954-18.686-36.658
		c-12.064-12.088-28.869-19.609-47.322-19.609h-60.214h-23.918h-84.144c-18.452,0-35.27,7.521-47.333,19.609
		c-9.717,9.704-16.409,22.469-18.675,36.658H49.691c-13.699,0-26.194,5.582-35.14,14.552C5.582,140.039,0,152.535,0,166.233v231.632
		h65.774v53.862h50.171v-53.862h140.061h23.918h100.914v53.862h50.183v-53.862H512v-15.216V166.233
		C512,152.535,506.418,140.049,497.448,131.092z M129.258,127.215c0-11.795,4.752-22.388,12.472-30.13
		c7.743-7.72,18.335-12.473,30.131-12.473h84.144h23.918h60.214c11.784,0,22.376,4.754,30.119,12.473
		c7.72,7.742,12.473,18.335,12.484,30.13v141.392H279.923h-23.918H129.258V127.215z M487.661,373.528H256.005l-231.668,0.011v-0.011
		V166.233c0-7.031,2.815-13.314,7.428-17.926c4.614-4.614,10.897-7.428,17.926-7.44h61.313v145.994h145.001h23.918h121.06V140.867
		h61.312c7.042,0.012,13.314,2.826,17.938,7.44c4.602,4.612,7.428,10.896,7.428,17.926V373.528z"/>
</g>
</svg>