<?xml version="1.0" encoding="utf-8"?>

<!DOCTYPE svg PUBLIC "-//W3C//DTD SVG 1.1//EN" "http://www.w3.org/Graphics/SVG/1.1/DTD/svg11.dtd">
<!-- Uploaded to: SVG Repo, www.svgrepo.com, Generator: SVG Repo Mixer Tools -->
<svg height="800px" width="800px" version="1.1" id="_x32_" xmlns="http://www.w3.org/2000/svg" xmlns:xlink="http://www.w3.org/1999/xlink" 
	 viewBox="0 0 512 512"  xml:space="preserve">
<style type="text/css">
	:root { color-scheme: dark light; }
</style>
<g>
	<path fill="currentColor" d="M444.513,122.354h-19.716V88.17c0-48.7-39.462-88.162-88.17-88.17H175.373
		c-48.708,0.008-88.169,39.47-88.169,88.17v34.184H67.487c-27.636,0.008-50.017,22.389-50.025,50.033v222.867
		c0.008,27.636,22.389,50.01,50.025,50.026h23.414l5.37,66.72h73.546l5.362-66.72h161.647L342.19,512h73.546l5.362-66.72h23.414
		c27.629-0.016,50.01-22.389,50.025-50.026V172.387C494.531,144.744,472.142,122.362,444.513,122.354z M116.496,88.17
		c0.007-16.31,6.564-30.934,17.242-41.628C144.44,35.864,159.07,29.3,175.373,29.3h161.255c16.302,0,30.933,6.564,41.634,17.242
		c10.679,10.694,17.235,25.317,17.243,41.628v41.704c-13.945,8.722-23.236,24.154-23.244,41.813V318.11H139.74V171.687
		c-0.007-17.659-9.299-33.091-23.244-41.813V88.17z M142.783,482.708h-19.477l-3.012-37.428h4.8h20.702L142.783,482.708z
		 M388.702,482.708h-19.477l-3.012-37.428h20.694h4.808L388.702,482.708z M465.238,395.254c-0.008,5.771-2.297,10.856-6.072,14.662
		c-3.798,3.776-8.89,6.064-14.654,6.072h-57.606H125.094H67.487c-5.77-0.008-10.855-2.296-14.654-6.072
		c-3.775-3.806-6.063-8.89-6.071-14.662V172.387c0.008-5.778,2.296-10.871,6.071-14.669c3.791-3.767,8.883-6.055,14.654-6.063
		h22.921c5.586,0.008,10.494,2.218,14.176,5.864c3.644,3.683,5.855,8.59,5.863,14.168v175.715h291.105V171.687
		c0.008-5.579,2.219-10.486,5.864-14.168c3.683-3.645,8.59-5.856,14.176-5.864h22.921c5.763,0.008,10.856,2.296,14.654,6.071
		c3.775,3.799,6.064,8.884,6.072,14.662V395.254z"/>
</g>
</svg>