<?xml version="1.0" encoding="utf-8"?>

<!DOCTYPE svg PUBLIC "-//W3C//DTD SVG 1.1//EN" "http://www.w3.org/Graphics/SVG/1.1/DTD/svg11.dtd">
<!-- Uploaded to: SVG Repo, www.svgrepo.com, Generator: SVG Repo Mixer Tools -->
<svg height="800px" width="800px" version="1.1" id="_x32_" xmlns="http://www.w3.org/2000/svg" xmlns:xlink="http://www.w3.org/1999/xlink" 
	 viewBox="0 0 512 512"  xml:space="preserve">
<style type="text/css">
	:root { color-scheme: dark light; }
</style>
<g>
	<path fill="currentColor" d="M489.818,157.48c-13.675-13.691-32.689-22.19-53.564-22.19c-1.349,0-2.682,0.034-4.006,0.107V99.401
		c0.008-24.107-9.799-46.043-25.614-61.824c-15.78-15.798-37.716-25.613-61.815-25.606H167.181
		c-24.107-0.007-46.042,9.808-61.824,25.606c-15.806,15.78-25.613,37.716-25.604,61.824v35.996
		c-1.325-0.073-2.666-0.107-4.007-0.107c-20.874,0-39.897,8.499-53.563,22.19C8.5,171.147-0.008,190.161,0,211.035
		c0,13.444,3.539,26.172,9.725,37.14c5.949,10.565,14.366,19.516,24.47,26.165c0.338,1.185,0.856,3.694,1.234,7.709
		c0.445,4.682,0.74,11.412,0.74,20.668c0,33.413,0,57.554,0,57.554c0,19.071,7.783,36.482,20.29,48.972
		c12.49,12.514,29.892,20.29,48.98,20.281h9.66l-5.595,70.504h29.661l20.142-70.504h193.378l20.158,70.504h29.653l-5.595-70.504
		h9.66c19.089,0.008,36.482-7.767,48.98-20.281c12.506-12.49,20.29-29.9,20.29-48.972c0,0,0-24.141,0-57.554
		c0-8.113,0.222-14.266,0.576-18.826c0.271-3.406,0.625-5.915,0.946-7.626c0.164-0.848,0.329-1.481,0.461-1.925
		c10.095-6.648,18.512-15.6,24.47-26.165c6.179-10.968,9.717-23.696,9.717-37.14C512,190.161,503.5,171.147,489.818,157.48z
		 M105.966,99.401c0.008-16.949,6.828-32.163,17.928-43.278c11.116-11.1,26.337-17.929,43.286-17.937h177.638
		c16.949,0.008,32.162,6.837,43.286,17.937c11.1,11.115,17.912,26.329,17.928,43.278v42.192
		c-8.779,3.818-16.694,9.232-23.334,15.888c-13.691,13.666-22.199,32.681-22.19,53.555c0,5.726,0,82.533,0,82.533
		c-0.008,3.258-1.283,6.097-3.415,8.253c-2.155,2.122-4.986,3.406-8.244,3.406H163.15c-3.258,0-6.089-1.284-8.244-3.406
		c-2.131-2.156-3.406-4.994-3.423-8.253c0,0,0-76.806,0-82.533c0.017-20.874-8.499-39.889-22.182-53.555
		c-6.64-6.656-14.555-12.07-23.334-15.888V99.401z M479.442,235.307c-4.04,7.166-9.841,13.255-16.792,17.641
		c-0.568,0.362-1.58,1.012-2.707,1.975c-0.988,0.831-2.04,1.901-2.979,3.118c-1.653,2.148-2.871,4.6-3.759,7.191
		c-1.35,3.924-2.139,8.302-2.724,14.226c-0.568,5.915-0.88,13.386-0.88,23.26c0,33.413,0,57.554,0,57.554
		c0,11.922-4.796,22.593-12.597,30.426c-7.841,7.816-18.513,12.605-30.443,12.614H105.44c-11.93-0.008-22.61-4.798-30.443-12.614
		c-7.808-7.833-12.597-18.504-12.597-30.426c0,0,0-24.141,0-57.554c0-8.598-0.247-15.378-0.675-20.89
		c-0.329-4.13-0.765-7.561-1.349-10.564c-0.88-4.476-2.066-8.178-4.205-11.601c-1.061-1.679-2.386-3.218-3.686-4.369
		c-1.3-1.169-2.485-1.934-3.143-2.345c-6.944-4.386-12.745-10.474-16.776-17.641c-4.048-7.183-6.344-15.402-6.352-24.272
		c0.008-13.716,5.529-26.016,14.513-35.018c9.002-8.985,21.294-14.497,35.018-14.505c13.724,0.008,26.016,5.52,35.017,14.505
		c8.977,9.002,14.497,21.302,14.514,35.018c0,5.726,0,82.533,0,82.533c-0.017,10.425,4.254,19.969,11.091,26.79
		c6.813,6.829,16.365,11.1,26.782,11.091h185.701c10.416,0.008,19.968-4.262,26.781-11.091c6.838-6.821,11.1-16.365,11.1-26.79
		c0,0,0-76.806,0-82.533c0-13.716,5.521-26.016,14.506-35.018c9.001-8.985,21.293-14.497,35.017-14.505
		c13.716,0.008,26.016,5.52,35.018,14.505c8.984,9.002,14.506,21.302,14.506,35.018
		C485.778,219.905,483.482,228.124,479.442,235.307z"/>
	<path fill="currentColor" d="M205.383,137.725c6.968,0,12.629-5.661,12.629-12.621c0-6.978-5.661-12.63-12.629-12.63
		c-6.97,0-12.622,5.652-12.622,12.63C192.761,132.065,198.413,137.725,205.383,137.725z"/>
	<path fill="currentColor" d="M309.292,137.725c6.969,0,12.613-5.661,12.613-12.621c0-6.978-5.644-12.63-12.613-12.63
		c-6.977,0-12.621,5.652-12.621,12.63C296.67,132.065,302.314,137.725,309.292,137.725z"/>
	<path fill="currentColor" d="M205.383,233.859c6.968,0,12.629-5.652,12.629-12.63c0-6.968-5.661-12.612-12.629-12.612
		c-6.97,0-12.622,5.644-12.622,12.612C192.761,228.207,198.413,233.859,205.383,233.859z"/>
	<path fill="currentColor" d="M309.292,233.859c6.969,0,12.613-5.652,12.613-12.63c0-6.968-5.644-12.612-12.613-12.612
		c-6.977,0-12.621,5.644-12.621,12.612C296.67,228.207,302.314,233.859,309.292,233.859z"/>
</g>
</svg>