<?xml version="1.0" encoding="utf-8"?>

<!DOCTYPE svg PUBLIC "-//W3C//DTD SVG 1.1//EN" "http://www.w3.org/Graphics/SVG/1.1/DTD/svg11.dtd">
<!-- Uploaded to: SVG Repo, www.svgrepo.com, Generator: SVG Repo Mixer Tools -->
<svg height="800px" width="800px" version="1.1" id="_x32_" xmlns="http://www.w3.org/2000/svg" xmlns:xlink="http://www.w3.org/1999/xlink" 
	 viewBox="0 0 512 512"  xml:space="preserve">
<style type="text/css">
	:root { color-scheme: dark light; }
</style>
<g>
	<path fill="currentColor" d="M512,346.046l-1.425-19.564l-22.506-309.46h-16.96h-361.7H95.722L0,346.046h24.301h261.704l5.245,100.304
		l-77.276,12.155v36.474h237.082v-36.474l-78.113-12.155l-22.498-100.304h141.943H512z M394.029,53.496h60.121l4.772,65.602h-66.087
		L394.029,53.496z M392.341,146.453h68.572l5.102,70.162h-74.952L392.341,146.453z M123.096,53.496h59.141l-13.116,65.602h-65.108
		L123.096,53.496z M131.025,309.572H48.598L67.68,243.97h76.462L131.025,309.572z M75.642,216.614l20.41-70.162h67.596
		l-14.034,70.162H75.642z M246.574,309.572H158.92l13.117-65.602h81.697L246.574,309.572z M256.717,216.614h-79.208l14.033-70.162
		h72.829L256.717,216.614z M197.01,119.097l13.121-65.602h64.382l-7.16,65.602H197.01z M362.017,309.572h-87.922l7.159-65.602
		h81.955L362.017,309.572z M363.708,216.614h-79.47l7.653-70.162h73.092L363.708,216.614z M365.48,119.097h-70.606l7.159-65.602
		h64.64L365.48,119.097z M389.372,309.572l1.192-65.602h77.441l4.768,65.602H389.372z"/>
</g>
</svg>