<?xml version="1.0" encoding="utf-8"?>

<!DOCTYPE svg PUBLIC "-//W3C//DTD SVG 1.1//EN" "http://www.w3.org/Graphics/SVG/1.1/DTD/svg11.dtd">
<!-- Uploaded to: SVG Repo, www.svgrepo.com, Generator: SVG Repo Mixer Tools -->
<svg height="800px" width="800px" version="1.1" id="_x32_" xmlns="http://www.w3.org/2000/svg" xmlns:xlink="http://www.w3.org/1999/xlink" 
	 viewBox="0 0 512 512"  xml:space="preserve">
<style type="text/css">
	:root { color-scheme: dark light; }
</style>
<g>
	<path fill="currentColor" d="M398.216,360.289c-13.412-111.672-109.19-90.183-107.993-119.838c2.939-71.491,5.72-163.653,8.571-195.042
		C301.645,14.037,278.818,0,255.991,0c-22.809,0-45.636,14.037-42.785,45.408c2.851,31.39,5.632,123.551,8.553,195.042
		c1.215,29.656-94.582,8.167-107.975,119.838c-8.712,72.467-10.63,85.993-16.438,151.711h317.308
		C408.847,446.282,406.911,432.756,398.216,360.289z M255.991,59.734c-8.007,0-14.484-6.494-14.484-14.484
		c0-8.008,6.477-14.503,14.484-14.503c8.008,0,14.503,6.494,14.503,14.503C270.494,53.24,263.999,59.734,255.991,59.734z"/>
</g>
</svg>