<?xml version="1.0" encoding="utf-8"?>

<!DOCTYPE svg PUBLIC "-//W3C//DTD SVG 1.1//EN" "http://www.w3.org/Graphics/SVG/1.1/DTD/svg11.dtd">
<!-- Uploaded to: SVG Repo, www.svgrepo.com, Generator: SVG Repo Mixer Tools -->
<svg height="800px" width="800px" version="1.1" id="_x32_" xmlns="http://www.w3.org/2000/svg" xmlns:xlink="http://www.w3.org/1999/xlink" 
	 viewBox="0 0 512 512"  xml:space="preserve">
<style type="text/css">
	:root { color-scheme: dark light; }
</style>
<g>
	<path fill="currentColor" d="M224.413,58.746c-10.983,5.445-20.09,14.282-26.452,25.156c-6.372,10.874-10.024,23.827-10.024,37.663
		c0,5.252,4.258,9.519,9.519,9.519c5.251,0,9.519-4.267,9.519-9.519c0-10.461,2.777-20.114,7.406-28.043
		c4.646-7.928,11.135-14.081,18.474-17.716c4.705-2.331,6.649-8.046,4.318-12.751C234.824,58.333,229.126,56.415,224.413,58.746z"/>
	<path fill="currentColor" d="M336.78,36.872c-10.226-11.303-22.472-20.52-36.149-26.916C286.955,3.56,271.831,0,255.999,0
		c-15.822,0-30.946,3.56-44.632,9.956c-20.518,9.595-37.789,25.519-49.925,45.364c-12.136,19.862-19.164,43.706-19.164,69.258
		c0,27.564,8.18,53.133,22.127,73.863c12.507,18.574,29.684,33.294,49.808,42.006v68.198h-1.212c-5.724,0-10.369,4.637-10.369,10.36
		v139.594v0.042c0,29.474,23.902,53.36,53.367,53.36c29.466,0,53.368-23.886,53.368-53.36V319.004c0-5.723-4.645-10.36-10.36-10.36
		h-1.22v-68.198c20.123-8.711,37.31-23.432,49.808-42.006c13.945-20.73,22.127-46.299,22.127-73.863
		C369.713,90.5,357.231,59.486,336.78,36.872z M255.999,465.188c-7.785,0-14.097-6.312-14.097-14.097
		c0-7.794,6.312-14.106,14.097-14.106c7.786,0,14.098,6.312,14.098,14.106C270.097,458.876,263.785,465.188,255.999,465.188z
		 M255.999,366.472c-7.785,0-14.097-6.321-14.097-14.106c0-7.794,6.312-14.106,14.097-14.106c7.786,0,14.098,6.312,14.098,14.106
		C270.097,360.152,263.785,366.472,255.999,366.472z M330.039,186.632c-11.59,17.229-27.792,30.148-46.324,36.645l-7.078,2.474
		v82.893h-41.274v-82.893l-7.078-2.474c-18.533-6.498-34.734-19.416-46.324-36.645c-11.598-17.228-18.533-38.681-18.533-62.054
		c0-28.884,10.605-54.866,27.48-73.516c8.442-9.326,18.424-16.799,29.424-21.942c11-5.142,23.01-7.962,35.668-7.97
		c12.659,0.008,24.668,2.828,35.669,7.97c16.496,7.7,30.728,20.695,40.836,37.234c10.108,16.538,16.066,36.561,16.066,58.224
		C348.571,147.951,341.636,169.404,330.039,186.632z"/>
</g>
</svg>