<?xml version="1.0" encoding="utf-8"?>

<!DOCTYPE svg PUBLIC "-//W3C//DTD SVG 1.1//EN" "http://www.w3.org/Graphics/SVG/1.1/DTD/svg11.dtd">
<!-- Uploaded to: SVG Repo, www.svgrepo.com, Generator: SVG Repo Mixer Tools -->
<svg height="800px" width="800px" version="1.1" id="_x32_" xmlns="http://www.w3.org/2000/svg" xmlns:xlink="http://www.w3.org/1999/xlink" 
	 viewBox="0 0 512 512"  xml:space="preserve">
<style type="text/css">
	:root { color-scheme: dark light; }
</style>
<g>
	<path fill="currentColor" d="M457.743,148.701L333.817,69.735c-13.812-8.81-28.77-15.03-44.191-18.702
		c1.912-4.444,2.963-9.303,2.963-14.425C292.59,16.384,276.213,0,255.998,0c-20.216,0-36.608,16.384-36.608,36.607
		c0,5.122,1.067,9.996,2.963,14.425c-15.405,3.672-30.347,9.893-44.176,18.702L54.256,148.701
		c-8.3,5.297-12.122,15.445-9.367,24.899c2.772,9.447,11.438,15.963,21.283,15.963h379.656c9.845,0,18.527-6.516,21.283-15.963
		C469.867,164.146,466.043,153.998,457.743,148.701z"/>
	<path fill="currentColor" d="M341.209,352.944h-85.21h-85.196c0,0-57.174,12.792-57.174,159.056h54.322c0,0-0.286-79.524,88.048-79.524
		c88.349,0,88.046,79.524,88.046,79.524h54.311C398.355,365.736,341.209,352.944,341.209,352.944z"/>
	<path fill="currentColor" d="M383.858,206.767c0-1.513-0.303-2.962-0.749-4.341H128.89c-0.446,1.378-0.748,2.828-0.748,4.341v99.318h-42.55
		v34.083h340.817v-34.083h-42.55V206.767z M255.998,297.49c-20.296,0-36.768-16.456-36.768-36.759
		c0-20.304,16.472-36.768,36.768-36.768c20.311,0,36.767,16.464,36.767,36.768C292.765,281.034,276.309,297.49,255.998,297.49z"/>
</g>
</svg>