<?xml version="1.0" encoding="utf-8"?>

<!DOCTYPE svg PUBLIC "-//W3C//DTD SVG 1.1//EN" "http://www.w3.org/Graphics/SVG/1.1/DTD/svg11.dtd">
<!-- Uploaded to: SVG Repo, www.svgrepo.com, Generator: SVG Repo Mixer Tools -->
<svg height="800px" width="800px" version="1.1" id="_x32_" xmlns="http://www.w3.org/2000/svg" xmlns:xlink="http://www.w3.org/1999/xlink" 
	 viewBox="0 0 512 512"  xml:space="preserve">
<style type="text/css">
	:root { color-scheme: dark light; }
</style>
<g>
	<path fill="currentColor" d="M498.46,217.97c0,0-6.004-13.289-14.104-25.497c-40.066-60.25-103.318-103.717-177.03-117.688v-32.79h-22.22
		c1.264-3.393,1.996-7.052,1.996-10.894C287.101,13.929,273.179,0,255.998,0c-17.18,0-31.102,13.929-31.102,31.102
		c0,3.842,0.732,7.501,1.996,10.894h-22.22v32.798c-74.079,14.054-137.63,57.913-177.646,118.678
		c-7.834,11.901-13.506,24.507-13.506,24.507c-1.497,2.728-1.447,6.054,0.133,8.732c1.58,2.686,4.474,4.332,7.585,4.332h129.014
		v74.644h-38.353v41.472h42.079c1.014,1.879,2.262,4.092,3.708,6.238c5.006,7.534,10.878,14.428,17.431,20.607
		c-10.179,8.282-19.06,18.078-26.312,29.064c-3.675,5.58-6.319,11.484-6.319,11.484c-9.464,16.125-22.004,59.127-38.271,97.447
		h79.634c0-27.11,26.278-94.886,72.149-94.886c45.872,0,72.15,67.776,72.15,94.886h79.634
		c-16.266-38.32-28.808-81.322-38.271-97.447c0,0-2.644-5.905-6.32-11.484c-7.235-10.986-16.133-20.782-26.311-29.064
		c6.669-6.296,12.64-13.339,17.696-21.031c1.331-2.013,2.495-4.059,3.443-5.814h42.079v-41.472h-38.354v-74.644h129.015
		c3.11,0,6.004-1.647,7.584-4.332C499.94,224.025,499.973,220.69,498.46,217.97z M290.21,281.846
		c0,8.599-6.952,15.551-15.551,15.551h-37.322c-8.598,0-15.55-6.952-15.55-15.551v-43.534c0-2.637,0.714-5.089,1.88-7.268h64.665
		c1.164,2.179,1.879,4.632,1.879,7.268V281.846z"/>
</g>
</svg>