<?xml version="1.0" encoding="utf-8"?>

<!DOCTYPE svg PUBLIC "-//W3C//DTD SVG 1.1//EN" "http://www.w3.org/Graphics/SVG/1.1/DTD/svg11.dtd">
<!-- Uploaded to: SVG Repo, www.svgrepo.com, Generator: SVG Repo Mixer Tools -->
<svg height="800px" width="800px" version="1.1" id="_x32_" xmlns="http://www.w3.org/2000/svg" xmlns:xlink="http://www.w3.org/1999/xlink" 
	 viewBox="0 0 512 512"  xml:space="preserve">
<style type="text/css">
	:root { color-scheme: dark light; }
</style>
<g>
	<path fill="currentColor" d="M465.4,278.465c6.7-4.666,15.913-9.487,27.562-14.41l19.033-8.06l-19.033-8.059
		c-15.529-6.555-26.725-12.982-33.426-18.99c-3.358-3-5.589-5.829-6.957-8.445c-1.359-2.632-1.94-5.042-1.957-7.785
		c-0.018-4.316,1.666-9.872,6.033-16.872c4.342-6.966,11.239-15.153,20.666-24.443l15.58-15.392l-21.896,0.41
		c-1.82,0.034-3.59,0.051-5.308,0.051c-18.657,0.068-31.588-2.358-38.451-6.239c-3.461-1.931-5.478-3.965-6.888-6.452
		c-1.384-2.487-2.248-5.709-2.256-10.298c-0.06-8.709,3.486-21.931,10.999-39.066l8.88-20.401l-20.401,8.88
		c-17.136,7.504-30.358,11.06-39.074,10.999c-4.59-0.008-7.812-0.872-10.299-2.256c-1.872-1.06-3.453-2.453-4.974-4.555
		c-2.273-3.119-4.299-7.965-5.65-14.794c-1.367-6.811-2.068-15.512-2.068-25.99c0-1.718,0.017-3.479,0.059-5.29l0.445-21.94
		l-15.418,15.606c-9.299,9.419-17.495,16.325-24.46,20.658c-6.992,4.367-12.555,6.051-16.863,6.034
		c-2.744-0.008-5.153-0.598-7.786-1.957c-3.915-2.018-8.359-6.094-13.025-12.82c-4.666-6.692-9.487-15.914-14.41-27.555L256,0
		l-8.059,19.033c-6.555,15.529-12.982,26.725-18.99,33.418c-3,3.367-5.829,5.598-8.445,6.957c-2.632,1.359-5.042,1.949-7.785,1.957
		c-4.316,0.018-9.871-1.666-16.871-6.034c-6.965-4.333-15.154-11.239-24.444-20.658l-15.401-15.58l0.419,21.905
		c0.034,1.812,0.051,3.581,0.051,5.299c0.068,18.648-2.358,31.588-6.239,38.442c-1.931,3.47-3.965,5.487-6.452,6.897
		c-2.486,1.384-5.709,2.248-10.298,2.256c-8.709,0.06-21.93-3.487-39.066-10.999l-20.4-8.88l8.88,20.401
		c7.504,17.136,11.06,30.358,10.999,39.066c-0.008,4.59-0.872,7.811-2.256,10.298c-1.06,1.881-2.452,3.461-4.555,4.983
		c-3.119,2.265-7.965,4.29-14.794,5.649c-6.811,1.367-15.504,2.068-25.99,2.059c-1.718,0-3.488-0.017-5.299-0.051l-21.931-0.436
		l15.606,15.418c9.419,9.29,16.325,17.477,20.658,24.443c4.367,7,6.06,12.555,6.042,16.872c-0.017,2.744-0.607,5.153-1.966,7.785
		c-2.018,3.915-6.094,8.359-12.82,13.025c-6.692,4.658-15.914,9.487-27.555,14.41l-19.033,8.059l19.033,8.06
		c15.529,6.555,26.725,12.982,33.426,18.99c3.359,2.991,5.589,5.828,6.948,8.444c1.359,2.632,1.949,5.034,1.957,7.786
		c0.018,4.308-1.666,9.871-6.034,16.863c-4.333,6.965-11.23,15.161-20.658,24.451l-15.648,15.461l21.99-0.479
		c1.803-0.043,3.564-0.06,5.282-0.06c18.648-0.068,31.58,2.359,38.442,6.248c3.47,1.932,5.487,3.965,6.897,6.444
		c1.384,2.495,2.248,5.717,2.256,10.307c0.06,8.709-3.496,21.931-10.999,39.067l-8.888,20.409l20.409-8.888
		c17.136-7.513,30.358-11.06,39.066-10.999c4.59,0.008,7.812,0.863,10.298,2.256c1.881,1.06,3.461,2.452,4.983,4.546
		c2.265,3.119,4.299,7.974,5.649,14.803c1.367,6.812,2.068,15.504,2.068,25.99c0,1.718-0.025,3.479-0.06,5.299l-0.436,21.931
		l15.418-15.606c9.29-9.427,17.478-16.324,24.444-20.666c7-4.367,12.554-6.051,16.871-6.033c2.744,0.016,5.154,0.598,7.785,1.957
		c3.915,2.026,8.359,6.094,13.025,12.82c4.659,6.701,9.487,15.914,14.41,27.563L256,512l8.06-19.041
		c6.555-15.538,12.982-26.725,18.99-33.426c2.991-3.367,5.828-5.598,8.444-6.957c2.632-1.359,5.034-1.94,7.786-1.957
		c4.316-0.018,9.871,1.666,16.863,6.033c6.974,4.342,15.161,11.239,24.451,20.666l15.436,15.623l-0.454-21.956
		c-0.042-1.82-0.059-3.581-0.059-5.29c-0.06-18.657,2.358-31.588,6.248-38.451c1.932-3.47,3.966-5.478,6.444-6.888
		c2.487-1.393,5.717-2.248,10.307-2.256c8.709-0.06,21.931,3.486,39.067,10.999l20.409,8.879l-8.888-20.4
		c-7.513-17.136-11.06-30.358-10.999-39.067c0.008-4.59,0.872-7.812,2.256-10.307c1.06-1.872,2.453-3.454,4.546-4.974
		c3.128-2.273,7.974-4.299,14.803-5.65c6.812-1.367,15.504-2.068,25.99-2.068c1.71,0,3.479,0.017,5.29,0.06l21.948,0.454
		l-15.614-15.436c-9.427-9.29-16.324-17.486-20.666-24.451c-4.367-6.992-6.051-12.555-6.033-16.863
		c0.016-2.752,0.598-5.154,1.957-7.786C454.606,287.576,458.674,283.132,465.4,278.465z M441.812,325.403
		c2.666,4.265,5.897,8.606,9.648,13.076c-13.204,0.906-23.922,3.23-32.639,7.94c-5.786,3.154-10.615,7.632-13.734,13.238
		c-3.146,5.599-4.496,12.042-4.487,18.854c0.034,8.248,2.043,17.358,5.375,27.46c-10.102-3.332-19.204-5.333-27.46-5.375
		c-6.812-0.009-13.255,1.342-18.854,4.486c-4.196,2.333-7.794,5.642-10.623,9.582c-4.273,5.94-6.931,13.178-8.624,21.605
		c-0.931,4.65-1.53,9.735-1.914,15.196c-4.479-3.752-8.82-6.992-13.086-9.658c-8.7-5.427-17.323-8.674-26.135-8.691
		c-5.521-0.018-10.965,1.358-15.888,3.948c-7.41,3.889-13.606,10.179-19.29,18.341c-2.812,4.043-5.513,8.59-8.154,13.624
		c-4.392-8.368-8.931-15.504-13.93-21.144c-4.069-4.555-8.479-8.248-13.419-10.82c-4.914-2.581-10.358-3.966-15.879-3.948
		c-8.82,0.017-17.435,3.264-26.135,8.691c-4.265,2.667-8.599,5.898-13.068,9.65c-0.906-13.204-3.239-23.93-7.94-32.639
		c-3.154-5.786-7.632-10.624-13.239-13.735c-5.598-3.144-12.042-4.495-18.854-4.486c-8.256,0.042-17.358,2.034-27.46,5.375
		c3.342-10.111,5.341-19.212,5.375-27.46c0.009-6.812-1.35-13.255-4.486-18.854c-2.342-4.196-5.642-7.794-9.59-10.623
		c-5.94-4.273-13.178-6.923-21.606-8.624c-4.65-0.931-9.726-1.539-15.195-1.923c3.76-4.478,6.999-8.82,9.666-13.085
		c5.418-8.701,8.675-17.316,8.691-26.127c0.009-5.522-1.367-10.974-3.948-15.888c-3.889-7.41-10.188-13.606-18.341-19.29
		c-4.051-2.812-8.59-5.513-13.632-8.154c8.376-4.401,15.512-8.94,21.144-13.931c4.556-4.068,8.248-8.478,10.829-13.418
		c2.581-4.914,3.957-10.358,3.948-15.879c-0.016-8.82-3.273-17.435-8.691-26.135c-2.667-4.266-5.898-8.599-9.65-13.068
		c13.204-0.906,23.922-3.239,32.64-7.94c5.786-3.154,10.615-7.632,13.735-13.239c3.136-5.598,4.495-12.042,4.486-18.854
		c-0.034-8.248-2.034-17.35-5.375-27.46c10.102,3.341,19.204,5.332,27.46,5.375c6.812,0.009,13.256-1.35,18.854-4.487
		c4.188-2.341,7.794-5.641,10.623-9.589c4.266-5.94,6.924-13.178,8.615-21.606c0.923-4.65,1.538-9.726,1.923-15.196
		c4.47,3.76,8.812,7,13.086,9.666c8.7,5.419,17.315,8.676,26.135,8.692c5.521,0.009,10.965-1.367,15.879-3.949
		c7.418-3.888,13.615-10.187,19.298-18.341c2.812-4.051,5.513-8.589,8.154-13.632c4.392,8.375,8.931,15.512,13.931,21.144
		c4.068,4.555,8.478,8.248,13.409,10.828c4.923,2.582,10.367,3.958,15.888,3.94c8.812-0.016,17.426-3.264,26.127-8.683
		c4.265-2.666,8.606-5.897,13.076-9.658c0.906,13.204,3.231,23.931,7.94,32.648c3.154,5.786,7.624,10.615,13.238,13.734
		c5.599,3.136,12.042,4.496,18.846,4.487c8.255-0.043,17.366-2.042,27.468-5.375c-3.332,10.102-5.341,19.204-5.375,27.46
		c-0.009,6.812,1.35,13.256,4.487,18.854c2.333,4.188,5.64,7.786,9.589,10.623c5.94,4.265,13.17,6.922,21.596,8.615
		c4.65,0.923,9.735,1.538,15.204,1.915c-3.76,4.478-7,8.82-9.665,13.094c-5.419,8.7-8.676,17.315-8.692,26.135
		c-0.009,5.52,1.367,10.965,3.949,15.879c3.888,7.41,10.178,13.606,18.341,19.298c4.043,2.803,8.589,5.504,13.632,8.154
		c-8.368,4.392-15.512,8.931-21.144,13.93c-4.564,4.06-8.256,8.479-10.828,13.41c-2.582,4.914-3.958,10.366-3.949,15.888
		C433.136,308.087,436.393,316.702,441.812,325.403z"/>
	<path fill="currentColor" d="M256,103.645c-84.149,0-152.351,68.21-152.351,152.351c0,84.141,68.202,152.352,152.351,152.352
		c84.133,0,152.352-68.211,152.352-152.352C408.352,171.854,340.133,103.645,256,103.645z"/>
</g>
</svg>