<?xml version="1.0" encoding="utf-8"?>

<!DOCTYPE svg PUBLIC "-//W3C//DTD SVG 1.1//EN" "http://www.w3.org/Graphics/SVG/1.1/DTD/svg11.dtd">
<!-- Uploaded to: SVG Repo, www.svgrepo.com, Generator: SVG Repo Mixer Tools -->
<svg height="800px" width="800px" version="1.1" id="_x32_" xmlns="http://www.w3.org/2000/svg" xmlns:xlink="http://www.w3.org/1999/xlink" 
	 viewBox="0 0 512 512"  xml:space="preserve">
<style type="text/css">
	:root { color-scheme: dark light; }
</style>
<g>
	<path fill="currentColor" d="M422.559,203.494H89.442v94.432h333.118V203.494z M157.882,234.136c0,0.462-0.325,0.786-0.811,0.786h-13.733
		c-0.324,0-0.486,0.154-0.486,0.479v42.586c0,0.478-0.324,0.786-0.802,0.786h-10.136c-0.478,0-0.786-0.308-0.786-0.786v-42.586
		c0-0.324-0.178-0.479-0.503-0.479h-13.733c-0.486,0-0.802-0.324-0.802-0.786v-8.888c0-0.461,0.316-0.786,0.802-0.786h40.179
		c0.486,0,0.811,0.324,0.811,0.786V234.136z M180.957,277.986c0,0.478-0.309,0.786-0.787,0.786h-10.152
		c-0.478,0-0.786-0.308-0.786-0.786v-52.738c0-0.461,0.308-0.786,0.786-0.786h10.152c0.478,0,0.787,0.324,0.787,0.786V277.986z
		 M207.492,263.28c1.208,3.752,3.914,5.988,8.151,5.988c4.546,0,7.114-2.633,8.621-6.134c0.243-0.494,0.648-0.656,1.126-0.413
		l8.71,3.914c0.486,0.154,0.64,0.559,0.397,0.964c-3.038,7.584-9.74,12.064-18.936,12.064c-9.496,0-16.455-4.48-19.324-13.344
		c-1.214-3.516-1.522-6.312-1.522-14.705c0-8.386,0.308-11.173,1.522-14.69c2.869-8.872,9.828-13.353,19.324-13.353
		c9.196,0,15.898,4.48,18.936,12.064c0.243,0.396,0.089,0.81-0.397,0.964l-8.71,3.914c-0.478,0.235-0.883,0.073-1.126-0.389
		c-1.508-3.524-4.075-6.166-8.621-6.166c-4.237,0-6.943,2.252-8.151,5.996c-0.64,2.01-0.867,3.905-0.867,11.66
		C206.625,259.367,206.851,261.287,207.492,263.28z M290.913,278.772h-11.756c-0.632,0-0.867-0.154-1.199-0.713l-12.3-22.848
		l-7.114,8.936v13.839c0,0.478-0.308,0.786-0.786,0.786h-10.152c-0.478,0-0.794-0.308-0.794-0.786v-52.738
		c0-0.461,0.316-0.786,0.794-0.786h10.152c0.478,0,0.786,0.324,0.786,0.786v23.489l18.06-23.569
		c0.397-0.551,0.721-0.705,1.353-0.705h11.586c0.479,0,0.738,0.559,0.324,1.037l-16.471,20.612l17.995,31.712
		C291.699,278.367,291.456,278.772,290.913,278.772z M339.56,233.813c0,0.478-0.316,0.786-0.794,0.786h-23.4
		c-0.332,0-0.494,0.17-0.494,0.478v10.792c0,0.332,0.162,0.47,0.494,0.47h19.478c0.486,0,0.802,0.333,0.802,0.802v8.475
		c0,0.478-0.316,0.802-0.802,0.802h-19.478c-0.332,0-0.494,0.162-0.494,0.47v11.27c0,0.324,0.162,0.462,0.494,0.462h23.4
		c0.478,0,0.794,0.324,0.794,0.81v8.556c0,0.478-0.316,0.786-0.794,0.786h-34.832c-0.478,0-0.786-0.308-0.786-0.786v-52.738
		c0-0.461,0.308-0.786,0.786-0.786h34.832c0.478,0,0.794,0.324,0.794,0.786V233.813z M391.017,234.136
		c0,0.462-0.324,0.786-0.802,0.786h-13.741c-0.316,0-0.478,0.154-0.478,0.479v42.586c0,0.478-0.316,0.786-0.794,0.786h-10.153
		c-0.486,0-0.794-0.308-0.794-0.786v-42.586c0-0.324-0.154-0.479-0.478-0.479h-13.741c-0.478,0-0.802-0.324-0.802-0.786v-8.888
		c0-0.461,0.324-0.786,0.802-0.786h40.179c0.478,0,0.802,0.324,0.802,0.786V234.136z"/>
	<path fill="currentColor" d="M507.804,172.494c-32.045,0-58.126-26.074-58.126-58.134v-4.198H62.323v4.198
		c0,32.06-26.081,58.134-58.126,58.134H0v167.037h4.197c32.045,0,58.126,26.065,58.126,58.11v4.197h387.354v-4.197
		c0-32.044,26.082-58.11,58.126-58.11H512V172.494H507.804z M433.052,303.184v5.234H78.948V193.009h354.103V303.184z"/>
</g>
</svg>