<?xml version="1.0" encoding="utf-8"?>

<!DOCTYPE svg PUBLIC "-//W3C//DTD SVG 1.1//EN" "http://www.w3.org/Graphics/SVG/1.1/DTD/svg11.dtd">
<!-- Uploaded to: SVG Repo, www.svgrepo.com, Generator: SVG Repo Mixer Tools -->
<svg height="800px" width="800px" version="1.1" id="_x32_" xmlns="http://www.w3.org/2000/svg" xmlns:xlink="http://www.w3.org/1999/xlink" 
	 viewBox="0 0 512 512"  xml:space="preserve">
<style type="text/css">
	:root { color-scheme: dark light; }
</style>
<g>
	<path fill="currentColor" d="M258.158,374.065c-8.932,10.714-20.154,19.444-32.809,25.497c-12.665,6.045-26.747,9.439-41.877,9.439
		c-13.517,0-26.224-2.71-37.824-7.615c-17.392-7.371-32.311-19.74-42.839-35.292c-10.469-15.576-16.548-34.042-16.565-54.321
		c0-12.841,2.499-25.598,7.109-37.47c6.881-17.798,18.608-33.399,32.538-43.945c6.957-5.319,14.421-9.397,22.18-12.166
		c7.767-2.744,15.814-4.204,24.29-4.204c2.347,0,4.737,0.11,7.143,0.337c15.392,1.486,34.886,4.399,50.133,6.932
		c7.65,1.258,14.328,2.424,19.006,3.293c2.347,0.396,4.213,0.751,5.471,0.979c0.616,0.127,1.123,0.203,1.444,0.262l0.338,0.076
		l0.101,0.016l3.791,0.735h3.909c13.762,0,27.11-2.82,39.14-7.937c18.102-7.666,33.35-20.356,44.216-36.354
		c10.824-16.017,17.199-35.562,17.181-56.247c0-13.778-2.82-27.102-7.936-39.133c-7.666-18.101-20.339-33.383-36.354-44.215
		c-16.016-10.824-35.562-17.215-56.246-17.181H149.405c-22.746,0-41.184,18.448-41.184,41.192c0,22.745,18.439,41.184,41.184,41.184
		h114.291c2.617,0.034,4.914,0.523,7.049,1.426c3.184,1.334,6.037,3.706,7.996,6.594c1.968,2.981,3.057,6.231,3.082,10.132
		c0,2.617-0.507,4.914-1.41,7.058c-1.359,3.174-3.706,6.028-6.619,7.986c-2.237,1.504-4.643,2.482-7.405,2.871
		c-4.964-0.92-13.289-2.372-23.311-4.053c-16.32-2.693-36.937-5.809-55.622-7.632c-5.057-0.489-10.097-0.735-15.096-0.735
		c-24.155,0-47.262,5.69-67.694,15.56c-15.374,7.43-29.306,17.106-41.564,28.478c-18.398,17.055-33.08,37.9-43.304,61.042
		c-10.233,23.1-15.949,48.664-15.966,75.116c0,24.678,5.04,48.404,14.141,69.924c13.661,32.302,36.389,59.648,65.036,78.991
		c28.63,19.385,63.406,30.732,100.462,30.716c27.591,0,53.967-6.273,77.43-17.477c23.42-11.23,44.004-27.338,60.468-47.018
		c14.589-17.459,12.276-43.438-5.168-58.028C298.742,354.274,272.738,356.605,258.158,374.065z"/>
	<path fill="currentColor" d="M342.164,262.771c-16.734-15.4-42.806-14.328-58.222,2.398c-15.434,16.734-14.361,42.788,2.372,58.205
		l112.07,103.29c16.734,15.416,42.788,14.361,58.222-2.365c15.408-16.733,14.361-42.822-2.372-58.238L342.164,262.771z"/>
	<path fill="currentColor" d="M489.162,162.098c-14.058-14.091-33.67-22.838-55.174-22.838c-21.462,0-41.108,8.747-55.149,22.838
		c-14.082,14.066-22.864,33.687-22.864,55.174c0,21.47,8.781,41.091,22.864,55.174c14.04,14.082,33.686,22.838,55.149,22.838
		c21.504,0,41.116-8.755,55.174-22.838c14.083-14.083,22.855-33.704,22.838-55.174C512.017,195.786,503.245,176.164,489.162,162.098
		z M461.192,244.475c-7.033,6.974-16.506,11.221-27.203,11.263c-10.672-0.042-20.17-4.289-27.203-11.263
		c-6.974-7.024-11.238-16.505-11.255-27.202c0.017-10.698,4.28-20.187,11.255-27.195c7.033-6.973,16.531-11.245,27.203-11.262
		c10.697,0.017,20.17,4.289,27.203,11.262c6.99,7.008,11.262,16.498,11.262,27.195C472.454,227.97,468.181,237.451,461.192,244.475z
		"/>
	<path fill="currentColor" d="M48.352,117.284c26.688,0,48.326-21.63,48.326-48.326S75.04,20.596,48.352,20.596
		C21.64,20.596,0,42.261,0,68.957S21.64,117.284,48.352,117.284z"/>
</g>
</svg>