<?xml version="1.0" encoding="utf-8"?>

<!DOCTYPE svg PUBLIC "-//W3C//DTD SVG 1.1//EN" "http://www.w3.org/Graphics/SVG/1.1/DTD/svg11.dtd">
<!-- Uploaded to: SVG Repo, www.svgrepo.com, Generator: SVG Repo Mixer Tools -->
<svg version="1.1" id="_x32_" xmlns="http://www.w3.org/2000/svg" xmlns:xlink="http://www.w3.org/1999/xlink" 
	 width="800px" height="800px" viewBox="0 0 512 512"  xml:space="preserve">
<style type="text/css">
<![CDATA[
	:root { color-scheme: dark light; }
]]>
</style>
<g>
	<path fill="currentColor" d="M512,143.172c0-26.141-11.641-47.359-26.016-47.359h-43.516v94.734h43.516
		C500.359,190.547,512,169.344,512,143.172z"/>
	<path fill="currentColor" d="M107.922,95.984c-11.953,1.719-21.625,18.109-23.578,39.281c-11.563,1.344-22.063,4.734-31.313,9.781
		c-9.156,4.969-17.078,11.547-23.766,19.188C19.219,175.719,11.938,189.594,7.125,204.5C2.328,219.422,0,235.391,0,251.234
		c0,3.641,0.125,7.297,0.375,10.922c0.813,12.031,3.281,25.219,7.688,38.406c3.313,9.875,7.703,19.75,13.391,29.031
		c4.266,6.953,9.234,13.594,14.984,19.656c8.641,9.094,19.094,16.844,31.438,22.297c5.172,2.297,10.688,4.172,16.5,5.578
		c2.047,20.906,11.594,37.078,23.406,38.875c-0.672,0.109-1.344,0.188-2.063,0.188h45.828v-94.719h-45.813
		c0.734,0,1.469,0.063,2.188,0.156c-11.953,1.719-21.641,18.141-23.578,39.344c-5.656-1.641-10.891-3.813-15.719-6.422
		c-8.656-4.656-16.109-10.734-22.5-17.813c-9.578-10.594-16.734-23.422-21.688-36.688c-4.953-13.25-7.672-26.938-8.5-38.953
		c-0.219-3.266-0.328-6.563-0.328-9.859c0-12.719,1.672-25.531,5.047-37.5c0.063-0.25,0.141-0.484,0.219-0.734
		c0.641,5.594,1.953,11.063,4,16.25c2.328,5.891,5.594,11.422,9.844,16.375c6.391,7.422,14.969,13.469,25.563,17.547
		c7.297,2.813,15.547,4.734,24.781,5.641c2.984,18.328,11.922,32,22.719,33.656c-0.672,0.109-1.344,0.188-2.063,0.188h45.828
		v-94.734h-45.813c0.734,0,1.469,0.078,2.188,0.172C94.938,209.969,84.625,229.156,84,253c-5.656-0.719-10.719-1.859-15.188-3.359
		c-5.969-1.984-10.938-4.563-15.063-7.578c-3.094-2.266-5.719-4.781-7.938-7.531c-3.328-4.094-5.781-8.719-7.406-13.781
		s-2.438-10.609-2.438-16.422c-0.016-9.078,4.156-23.078,8.047-32.938c6.125-6.25,13.141-11.375,21.234-15
		c5.797-2.563,12.125-4.422,19.094-5.375c1.922,21.141,11.547,37.531,23.438,39.344c-0.672,0.109-1.344,0.188-2.063,0.188h45.828
		V95.813h-45.813C106.469,95.813,107.203,95.891,107.922,95.984z"/>
	<path fill="currentColor" d="M485.984,321.469h-43.516v94.719h43.516c14.375,0,26.016-21.203,26.016-47.375
		C512,342.656,500.359,321.469,485.984,321.469z"/>
	<path fill="currentColor" d="M485.984,207.922h-43.516v94.734h43.516c14.375,0,26.016-21.203,26.016-47.359
		C512,229.125,500.359,207.922,485.984,207.922z"/>
	<path fill="currentColor" d="M372.844,151.266c-0.438-0.313-0.875-0.594-1.344-0.906V95.813h-149v58.531
		c-12.047,8.875-22.516,19.734-30.906,32.156c-7.047,10.422-12.609,21.906-16.438,34.188c-3.828,12.266-5.875,25.344-5.875,38.828
		c0,17.984,3.656,35.188,10.281,50.813c9.219,21.813,24.156,40.531,42.938,54.359v51.5h149v-47.531
		c14.469-9.516,26.906-21.813,36.594-36.141c7.031-10.406,12.609-21.906,16.438-34.188c3.813-12.266,5.875-25.328,5.875-38.813
		c0-17.984-3.656-35.203-10.281-50.828C410.219,185.234,393.688,165.344,372.844,151.266z M391.391,298.172
		c-7.547,17.813-20.141,33-36.016,43.719c-7.938,5.359-16.656,9.594-25.984,12.484c-9.328,2.906-19.234,4.469-29.547,4.484
		c-13.75-0.016-26.781-2.797-38.656-7.813c-17.813-7.531-33-20.141-43.719-36c-5.359-7.938-9.594-16.672-12.5-25.984
		c-2.891-9.328-4.469-19.234-4.469-29.547c0-13.75,2.781-26.797,7.813-38.656c7.531-17.813,20.141-33.016,36-43.734
		c7.938-5.359,16.672-9.594,25.984-12.484c9.328-2.906,19.219-4.469,29.547-4.469c13.75,0,26.781,2.781,38.656,7.797
		c17.813,7.531,33,20.156,43.719,36.016c5.375,7.922,9.594,16.656,12.5,25.984c2.891,9.313,4.469,19.219,4.469,29.547
		C399.188,273.266,396.406,286.297,391.391,298.172z"/>
	<path fill="currentColor" d="M350.438,249.516h-38.609c-2.859-3.438-7.156-5.609-11.984-5.609c-0.375,0-0.734,0.016-1.094,0.031
		l-37.672-37.656c-3.313-3.328-8.703-3.328-12.031,0l-1.016,1c-3.313,3.328-3.313,8.734,0,12.063l36.625,36.594
		c-0.281,1.156-0.422,2.344-0.422,3.578c0,8.625,7,15.609,15.609,15.609c5.5,0,10.344-2.859,13.125-7.156h37.469
		c4.703,0,8.516-3.813,8.516-8.531v-1.406C358.953,253.328,355.141,249.516,350.438,249.516z"/>
</g>
</svg>