<?xml version="1.0" encoding="utf-8"?>

<!DOCTYPE svg PUBLIC "-//W3C//DTD SVG 1.1//EN" "http://www.w3.org/Graphics/SVG/1.1/DTD/svg11.dtd">
<!-- Uploaded to: SVG Repo, www.svgrepo.com, Generator: SVG Repo Mixer Tools -->
<svg height="800px" width="800px" version="1.1" id="_x32_" xmlns="http://www.w3.org/2000/svg" xmlns:xlink="http://www.w3.org/1999/xlink" 
	 viewBox="0 0 512 512"  xml:space="preserve">
<style type="text/css">
	:root { color-scheme: dark light; }
</style>
<g>
	<path fill="currentColor" d="M511.24,321.823c-2.567-7.674-10.876-11.831-18.555-9.255l-212.856,71.196
		c6.924,7.159,12.568,15.694,16.485,25.402l205.675-68.798C509.663,337.81,513.806,329.496,511.24,321.823z"/>
	<path fill="currentColor" d="M232.01,359.908l-78.417-234.479c-11.457-34.248-40.843-59.374-76.449-65.387l-60.05-10.134
		C9.118,48.558,1.551,53.94,0.205,61.924c-1.34,7.984,4.037,15.552,12.022,16.893h-0.009l60.046,10.134
		c24.926,4.201,45.506,21.804,53.525,45.785l76.01,227.285C211.911,359.322,222.129,358.682,232.01,359.908z"/>
	<path fill="currentColor" d="M203.291,381.863c-31.575,10.588-48.584,44.711-38.041,76.286c10.574,31.557,44.684,48.574,76.272,38.04
		c31.575-10.586,48.583-44.702,38.04-76.276C268.994,388.347,234.875,371.32,203.291,381.863z M241.354,448.476
		c-2.46,4.903-6.635,8.757-12.236,10.623c-5.604,1.874-11.249,1.314-16.164-1.119c-4.903-2.469-8.753-6.644-10.631-12.239
		c-1.865-5.596-1.297-11.245,1.132-16.166c2.469-4.903,6.635-8.739,12.234-10.631c5.604-1.856,11.249-1.297,16.169,1.137
		c4.898,2.468,8.748,6.635,10.632,12.23C244.352,437.916,243.784,443.556,241.354,448.476z"/>
	<path fill="currentColor" d="M261.28,364.206l200.812-67.164l-3.104-9.263l-52.438-156.79l-200.808,67.155L261.28,364.206z
		 M437.356,284.706l-163.74,54.756l-43.138-128.98l163.74-54.756L437.356,284.706z"/>
	<path fill="currentColor" d="M320.126,129.319l-3.095-9.272l-35.91-107.354L157.541,54.019l39.004,116.636L320.126,129.319z
		 M268.781,37.428l26.61,79.554l-86.504,28.928l-26.606-79.554L268.781,37.428z"/>
	<path fill="currentColor" d="M337.996,243.894c13.842,5.649,19.913,19.966,17.164,26.432c-2.326,5.49-6.678,13.217-6.678,13.217
		l17.475-5.844l17.471-5.835c0,0-8.132-3.562-13.288-6.546c-6.084-3.509-9.854-18.607-2.184-31.442
		c12.905-21.556,6.856-37.57,6.856-37.57s-5.107,1.706-11.288,3.774l-5.635,11.28l4.938-1.642l-11.737,28.235l1.63-20.935
		l-8.46,2.825l1.58-13.856c-1.642,0.559-2.882,0.977-3.477,1.172c-3.744,1.252-32.454,10.854-32.454,10.854
		S314.708,234.444,337.996,243.894z"/>
</g>
</svg>