<?xml version="1.0" encoding="utf-8"?>

<!DOCTYPE svg PUBLIC "-//W3C//DTD SVG 1.1//EN" "http://www.w3.org/Graphics/SVG/1.1/DTD/svg11.dtd">
<!-- Uploaded to: SVG Repo, www.svgrepo.com, Generator: SVG Repo Mixer Tools -->
<svg height="800px" width="800px" version="1.1" id="_x32_" xmlns="http://www.w3.org/2000/svg" xmlns:xlink="http://www.w3.org/1999/xlink" 
	 viewBox="0 0 512 512"  xml:space="preserve">
<style type="text/css">
	:root { color-scheme: dark light; }
</style>
<g>
	<path fill="currentColor" d="M380.548,301.084c-31.082-4.051-83.486-17.239-101.741-60.835c-27.719-66.246,16.574-119.635,62.86-126.728
		c29.342-4.505,58.809,14.187,58.809,40.553c0,26.358-19.928,31.426-19.928,31.426s-18.92-12.162-27.711,6.085
		c-8.438,17.541,9.363,27.719,28.072,27.719c39.209,0,81.41-31.09,81.41-90.226c0-49.899-48.236-118.198-128.409-113.903
		c-75.694,4.052-127.082,43.26-168.148,115.963C129.772,194.879,81.427,301.84,0,303.109v66.248
		c42.646,0,42.646,21.516,85.289,21.516c42.658,0,42.658-21.516,85.314-21.516c42.672,0,42.672,21.516,85.339,21.516
		c42.659,0,42.659-21.516,85.314-21.516c42.689,0,42.689,21.516,85.373,21.516c42.683,0,42.683-21.516,85.372-21.516v-66.248
		C462.318,305.135,413.293,305.361,380.548,301.084z"/>
	<path fill="currentColor" d="M457.646,425.543c-7.758,3.404-16.054,6.018-31.018,6.068c-9.96-0.008-17.003-1.236-22.853-2.992
		c-8.724-2.605-15.209-6.791-24.505-10.977c-9.25-4.16-20.966-7.598-38.015-7.547c-11.376-0.008-20.331,1.454-27.82,3.732
		c-11.276,3.446-18.793,8.337-26.5,11.716c-7.75,3.404-16.041,6.018-30.993,6.068c-9.955-0.008-16.995-1.236-22.84-2.992
		c-8.724-2.605-15.204-6.791-24.496-10.977c-9.245-4.16-20.957-7.598-38.002-7.547c-11.376-0.008-20.331,1.454-27.82,3.732
		c-11.275,3.446-18.793,8.337-26.5,11.716c-7.749,3.404-16.041,6.018-30.993,6.068c-9.948-0.008-16.986-1.236-22.824-2.992
		c-8.715-2.605-15.191-6.791-24.483-10.977c-9.241-4.16-20.945-7.598-37.982-7.547v17.213c9.952,0.009,16.987,1.227,22.828,2.992
		c8.716,2.606,15.192,6.783,24.479,10.969c9.241,4.168,20.945,7.606,37.982,7.556c11.376,0.009,20.336-1.462,27.82-3.732
		c11.28-3.446,18.798-8.346,26.5-11.716c7.754-3.404,16.041-6.018,30.993-6.068c9.955,0.009,16.999,1.227,22.844,2.992
		c8.725,2.606,15.2,6.783,24.496,10.977c9.245,4.16,20.954,7.599,37.998,7.548c11.376,0.009,20.336-1.462,27.821-3.732
		c11.279-3.446,18.797-8.346,26.5-11.716c7.753-3.404,16.04-6.018,30.992-6.068c9.96,0.009,17.008,1.227,22.853,2.992
		c8.729,2.606,15.213,6.792,24.509,10.977c9.25,4.16,20.961,7.599,38.011,7.548c11.38,0.009,20.343-1.462,27.836-3.732
		c11.28-3.446,18.802-8.338,26.518-11.716c7.758-3.404,16.053-6.018,31.018-6.068v-17.213c-11.385-0.008-20.344,1.454-27.837,3.732
		C472.88,417.273,465.358,422.164,457.646,425.543z"/>
	<path fill="currentColor" d="M457.646,473.736c-7.758,3.404-16.054,6.018-31.018,6.068c-9.96-0.009-17.003-1.236-22.853-2.992
		c-8.724-2.605-15.209-6.791-24.505-10.976c-9.25-4.16-20.966-7.599-38.015-7.548c-11.376-0.009-20.331,1.454-27.82,3.732
		c-11.276,3.446-18.793,8.337-26.5,11.716c-7.75,3.404-16.041,6.018-30.993,6.068c-9.955-0.009-16.995-1.236-22.84-2.992
		c-8.724-2.605-15.204-6.791-24.496-10.976c-9.245-4.16-20.957-7.599-38.002-7.548c-11.376-0.009-20.331,1.454-27.82,3.732
		c-11.275,3.446-18.793,8.337-26.5,11.716c-7.749,3.404-16.041,6.018-30.993,6.068c-9.948-0.009-16.986-1.236-22.824-2.992
		c-8.715-2.605-15.191-6.791-24.483-10.976c-9.241-4.16-20.945-7.599-37.982-7.548v17.213c9.952,0.008,16.987,1.227,22.828,2.992
		c8.716,2.605,15.192,6.782,24.479,10.968c9.241,4.168,20.945,7.606,37.982,7.556c11.376,0.008,20.336-1.462,27.82-3.732
		c11.28-3.446,18.798-8.346,26.5-11.716c7.754-3.404,16.041-6.018,30.993-6.068c9.955,0.008,16.999,1.227,22.844,2.992
		c8.725,2.605,15.2,6.782,24.496,10.976c9.245,4.16,20.954,7.599,37.998,7.548c11.376,0.008,20.336-1.462,27.821-3.732
		c11.279-3.446,18.797-8.346,26.5-11.716c7.753-3.404,16.04-6.018,30.992-6.068c9.96,0.008,17.008,1.227,22.853,2.992
		c8.729,2.605,15.213,6.79,24.509,10.976c9.25,4.16,20.961,7.599,38.011,7.548c11.38,0.008,20.343-1.462,27.836-3.732
		c11.28-3.446,18.802-8.337,26.518-11.716c7.758-3.404,16.053-6.018,31.018-6.068v-17.213c-11.385-0.009-20.344,1.454-27.837,3.732
		C472.88,465.466,465.358,470.357,457.646,473.736z"/>
</g>
</svg>