<?xml version="1.0" encoding="utf-8"?>

<!DOCTYPE svg PUBLIC "-//W3C//DTD SVG 1.1//EN" "http://www.w3.org/Graphics/SVG/1.1/DTD/svg11.dtd">
<!-- Uploaded to: SVG Repo, www.svgrepo.com, Generator: SVG Repo Mixer Tools -->
<svg height="800px" width="800px" version="1.1" id="_x32_" xmlns="http://www.w3.org/2000/svg" xmlns:xlink="http://www.w3.org/1999/xlink" 
	 viewBox="0 0 512 512"  xml:space="preserve">
<style type="text/css">
	:root { color-scheme: dark light; }
</style>
<g>
	<path fill="currentColor" d="M490.975,101.886c-13.16-15.692-31.644-26.628-52.751-30.04c-5.602-0.912-11.058-1.343-16.302-1.343
		c-12.019,0-23.078,2.256-32.832,6.148c-14.658,5.863-26.4,15.334-34.526,26.294c-6.238,8.412-10.39,17.719-12.019,27.149
		c-3.877-5.977-7.443-12.728-10.228-19.592c-3.713-9.136-5.944-18.493-5.928-26.334c0-3.193,0.44-5.823,1.157-8.144
		c1.27-4.047,3.42-7.313,6.4-10.537c2.216-2.402,4.886-4.706,7.769-7.06c2.166-1.775,4.446-3.566,6.71-5.504
		c3.387-2.915,6.824-6.156,9.625-10.39c1.384-2.117,2.589-4.495,3.42-7.125c0.847-2.622,1.303-5.472,1.303-8.428
		c0-3.087-0.488-6.262-1.433-9.512c-0.928-3.24-2.313-6.579-4.154-10.056l-2.524-4.78h-5.407H154.896l-2.525,4.772
		c-1.824,3.486-3.208,6.816-4.152,10.065c-0.945,3.249-1.434,6.417-1.434,9.512c0,4.006,0.847,7.817,2.313,11.131
		c1.287,2.899,2.964,5.432,4.804,7.646c3.226,3.884,6.874,6.905,10.358,9.755c5.261,4.267,10.179,8.159,13.502,12.5
		c1.677,2.182,2.98,4.421,3.908,6.994c0.928,2.573,1.498,5.505,1.498,9.162c0,5.976-1.27,12.833-3.534,19.795
		c-2.574,7.931-6.418,15.985-10.765,23.175c-1.01-4.333-2.508-8.616-4.512-12.769c-5.667-11.79-15.162-22.686-27.799-30.74
		c-12.622-8.029-28.452-13.143-46.481-13.126c-5.26,0-10.7,0.431-16.302,1.343c-21.09,3.412-39.608,14.348-52.75,30.04
		C7.866,117.569,0,138.073,0,160.507c-0.016,21.172,7.019,43.956,22.589,65.877c14.364,20.26,35.976,39.804,66.072,57.254
		c0.798,5.626,2.052,11.082,3.73,16.326c5.195,16.376,14.169,30.813,24.478,43.858c15.455,19.56,34.006,36.172,48.516,51.195
		c7.264,7.484,13.5,14.552,17.833,21.066c2.166,3.249,3.843,6.335,5.032,9.242c1.156,2.891,1.824,5.578,2.02,8.103
		c0.016,0.154,0.016,0.374,0.016,0.635c0.017,1.408-0.309,3.998-1.107,6.929c-1.189,4.43-3.453,9.698-6.742,14.348
		c-3.306,4.666-7.556,8.68-12.882,11.221l-2.557,1.222l-1.385,2.459c-0.13,0.253-1.449,2.614-2.818,6.1
		c-0.7,1.758-1.384,3.802-1.954,6.074c-0.538,2.28-0.962,4.772-0.978,7.516c0.016,2.125,0.277,4.421,1.058,6.808
		c0.586,1.783,1.498,3.599,2.785,5.252c1.922,2.507,4.69,4.511,7.769,5.683c3.061,1.197,6.384,1.694,9.999,1.694h146.623
		c3.192,0,6.172-0.391,8.957-1.319c2.084-0.692,4.055-1.71,5.765-3.037c2.589-1.995,4.462-4.699,5.488-7.378
		c1.058-2.688,1.368-5.309,1.368-7.703c0-2.744-0.424-5.236-0.961-7.516c-0.846-3.412-1.987-6.31-2.948-8.461
		c-0.961-2.15-1.726-3.526-1.824-3.713l-1.385-2.459l-2.556-1.222c-3.566-1.71-6.612-4.031-9.251-6.799
		c-3.957-4.137-6.938-9.275-8.827-14.112c-0.945-2.418-1.629-4.764-2.068-6.791c-0.424-2.011-0.603-3.746-0.586-4.796
		c0-0.261,0-0.481,0.016-0.635c0.294-3.843,1.678-8.086,4.283-12.817c2.28-4.121,5.439-8.558,9.316-13.2
		c6.775-8.135,15.634-16.88,25.13-26.261c14.249-14.104,29.966-29.641,42.376-47.751c6.189-9.055,11.547-18.778,15.374-29.306
		c2.199-6.043,3.86-12.353,4.902-18.925c31.498-17.825,53.94-37.93,68.744-58.784c15.57-21.921,22.605-44.705,22.589-65.877
		C512,138.073,504.149,117.569,490.975,101.886z M179.179,44.575c-2.313-1.897-4.511-3.631-6.4-5.261
		c-2.866-2.434-5.032-4.649-6.286-6.587c-0.636-0.977-1.058-1.864-1.352-2.768c-0.277-0.896-0.44-1.824-0.44-2.98
		c0-1.206,0.178-2.688,0.716-4.544c0.162-0.586,0.391-1.238,0.635-1.906h177.436c0.26,0.668,0.472,1.319,0.651,1.906
		c0.537,1.865,0.716,3.338,0.716,4.544c0,1.571-0.277,2.719-0.798,3.941c-0.472,1.066-1.189,2.199-2.198,3.436
		c-1.775,2.166-4.544,4.584-7.866,7.28c-4.967,4.071-11.139,8.704-16.368,15.455c-2.606,3.363-4.934,7.296-6.58,11.84
		c-1.644,4.528-2.573,9.642-2.573,15.236c0,2.475,0.179,4.959,0.456,7.45H200.628c0.277-2.491,0.439-4.975,0.439-7.45
		c0.016-4.862-0.684-9.381-1.97-13.452c-2.216-7.166-6.14-12.858-10.342-17.394C185.58,49.917,182.257,47.099,179.179,44.575z
		 M157.616,166.036c2.394-1.441,4.674-3.16,6.938-5.155c4.414-3.908,8.762-8.819,12.931-14.446
		c6.222-8.452,12.019-18.533,16.351-29.217c1.026-2.532,1.955-5.106,2.801-7.703h116.266c4.072,12.475,10.406,24.462,17.41,34.453
		c3.501,5,7.182,9.503,10.927,13.322c3.453,3.518,6.938,6.441,10.619,8.672c9.462,7.834,17.41,15.546,24.006,23.322
		c2.182,2.582,4.185,5.162,6.074,7.752H127.585C135.19,186.614,145.06,176.435,157.616,166.036z M207.419,228.803l34.412,69.679
		h-68.173L207.419,228.803z M162.274,280.934l-31.969-65.991h63.938L162.274,280.934z M220.545,214.943h64.411l-31.904,65.853
		L220.545,214.943z M298.425,228.208l34.038,70.274h-68.076L298.425,228.208z M311.878,214.943h63.662l-31.823,65.699
		L311.878,214.943z M87.863,262.229c-23.094-14.755-39.575-30.552-50.682-46.195c-13.664-19.291-19.267-38.304-19.283-55.527
		c0.016-18.249,6.352-34.591,16.84-47.116c10.505-12.515,25.13-21.156,41.904-23.883c4.69-0.757,9.153-1.108,13.436-1.108
		c9.788,0,18.534,1.824,26.204,4.877c11.498,4.584,20.618,12.019,26.775,20.342c6.188,8.306,9.315,17.466,9.282,25.121
		c-0.016,3.835-0.733,7.271-2.133,10.276l0.358,0.171c-0.961,0.733-1.856,1.36-2.622,1.775l-0.684,0.391l-0.62,0.504
		c-10.26,8.477-19.119,17.011-26.611,25.854c-11.237,13.265-19.445,27.295-24.706,42.579
		C90.827,233.314,88.466,247.198,87.863,262.229z M110.81,298.482c-0.065-0.163-0.131-0.334-0.196-0.504
		c-3.192-8.803-5.016-17.98-5.016-27.826c0-11.066,0.945-21.139,2.915-30.478c1.302-6.181,3.078-12.044,5.292-17.712l37.068,76.52
		H110.81z M378.65,332.732c-14.169,17.972-32.165,34.201-47.344,49.827c-7.589,7.842-14.478,15.553-19.852,23.59
		c-2.688,4.031-4.984,8.143-6.727,12.442c-1.742,4.299-2.931,8.803-3.289,13.468c-0.049,0.668-0.082,1.336-0.082,2.004
		c0.017,3.55,0.603,7.394,1.743,11.611c1.726,6.295,4.707,13.331,9.398,20c4.152,5.871,9.722,11.465,16.904,15.52
		c0.277,0.627,0.586,1.352,0.863,2.117c0.44,1.14,0.83,2.394,1.107,3.567c0.277,1.172,0.424,2.28,0.408,3.054
		c0,0.537-0.065,0.863-0.098,1.026c-0.131,0.049-0.326,0.13-0.652,0.212c-0.586,0.146-1.547,0.301-2.931,0.301H181.475
		c-1.727,0-2.802-0.236-3.306-0.407c-0.147-0.041-0.228-0.082-0.294-0.106c-0.048-0.179-0.098-0.497-0.098-1.026
		c0-0.83,0.147-2.028,0.473-3.29c0.455-1.897,1.238-3.941,1.889-5.406c0.016-0.041,0.032-0.065,0.032-0.065
		c4.463-2.549,8.338-5.644,11.58-9.047c5.928-6.205,9.934-13.289,12.54-19.942c1.319-3.33,2.264-6.571,2.915-9.6
		c0.636-3.038,0.977-5.847,0.977-8.518c0-0.668-0.016-1.336-0.065-2.004c-0.554-7.125-2.997-13.802-6.466-20.088
		c-3.03-5.513-6.873-10.782-11.238-16.017c-7.605-9.136-16.807-18.151-26.302-27.532c-14.234-14.063-29.086-28.916-40.177-45.12
		c-1.548-2.289-3.029-4.584-4.414-6.922h270.494C386.662,321.983,382.835,327.422,378.65,332.732z M400.115,294.541
		c-0.424,1.328-0.912,2.639-1.384,3.942h-43.777l39.07-80.648c1.205,2.72,2.313,5.481,3.29,8.297
		c4.512,13.086,6.645,27.418,6.645,44.021C403.958,278.719,402.574,286.781,400.115,294.541z M474.802,216.034
		c-11.481,16.18-28.712,32.499-53.06,47.669c-0.31-9.69-1.335-18.9-3.192-27.719c-3.371-16.123-9.543-30.919-18.777-44.738
		c-9.251-13.827-21.449-26.676-36.872-39.388l-0.618-0.504l-0.685-0.391c-0.504-0.277-1.075-0.651-1.677-1.075l1.873-0.871
		c-1.401-3.005-2.134-6.442-2.134-10.276c-0.016-5.106,1.352-10.879,4.121-16.62c4.12-8.624,11.399-17.125,21.253-23.387
		c9.853-6.246,22.214-10.326,36.888-10.333c4.267,0,8.745,0.35,13.42,1.108h0.016c16.759,2.727,31.4,11.368,41.904,23.883
		c10.488,12.524,16.824,28.867,16.84,47.116C494.085,177.73,488.482,196.743,474.802,216.034z"/>
</g>
</svg>