<?xml version="1.0" encoding="utf-8"?>

<!DOCTYPE svg PUBLIC "-//W3C//DTD SVG 1.1//EN" "http://www.w3.org/Graphics/SVG/1.1/DTD/svg11.dtd">
<!-- Uploaded to: SVG Repo, www.svgrepo.com, Generator: SVG Repo Mixer Tools -->
<svg height="800px" width="800px" version="1.1" id="_x32_" xmlns="http://www.w3.org/2000/svg" xmlns:xlink="http://www.w3.org/1999/xlink" 
	 viewBox="0 0 512 512"  xml:space="preserve">
<style type="text/css">
	:root { color-scheme: dark light; }
</style>
<g>
	<path fill="currentColor" d="M158.746,38.192h194.508c2.354,0,4.273-1.795,4.273-4.01V4.026c0-2.215-1.919-4.026-4.273-4.026H158.746
		c-2.354,0-4.273,1.812-4.273,4.026v30.156C154.472,36.398,156.391,38.192,158.746,38.192z"/>
	<path fill="currentColor" d="M507.801,218.466c0.016-27.341-11.132-52.229-29.046-70.127c-17.898-17.922-42.802-29.062-70.135-29.062
		c-23.291,0-44.803,8.109-61.73,21.594c-12.135-32.578-17.042-65.484-2.436-92.611H167.538c14.613,27.127,9.698,60.034-2.429,92.603
		c-16.935-13.477-38.438-21.586-61.738-21.586c-27.333,0-52.238,11.139-70.128,29.062c-17.922,17.898-29.061,42.786-29.045,70.127
		c-0.016,27.333,11.123,52.229,29.045,70.128c12.662,12.694,28.865,21.949,46.927,26.295c-2.362,9.871-3.77,20.121-3.77,30.906
		c0,64.216,35.137,118.388,84.402,152.316C180.941,512,221.035,512,255.992,512c34.972,0,75.067,0,95.204-13.889
		c49.257-33.927,84.403-88.099,84.403-152.316c0-10.785-1.416-21.035-3.778-30.906c18.07-4.346,34.264-13.601,46.934-26.295
		C496.67,270.696,507.817,245.8,507.801,218.466z M122.504,225.646c-10.39,18.458-21.776,36.75-30.642,56.114
		c-4.702-0.856-9.23-2.206-13.519-4.01c-11.525-4.874-21.389-13.048-28.329-23.324c-6.94-10.291-10.958-22.574-10.974-35.961
		c0.008-8.924,1.803-17.355,5.055-25.028c4.866-11.525,13.041-21.389,23.324-28.337c10.283-6.932,22.566-10.958,35.953-10.974
		c8.933,0,17.355,1.811,25.036,5.046c8.34,3.532,15.791,8.809,21.908,15.346C141.242,192.772,131.199,210.217,122.504,225.646z
		 M467.904,243.511c-4.874,11.509-13.048,21.373-23.324,28.313c-7.261,4.898-15.534,8.299-24.467,9.912
		c-8.85-19.356-20.228-37.641-30.619-56.09c-8.693-15.429-18.754-32.874-27.826-51.135c3.309-3.532,6.981-6.684,10.999-9.41
		c10.291-6.932,22.574-10.958,35.952-10.974c8.933,0,17.346,1.811,25.036,5.046c11.526,4.874,21.381,13.057,28.321,23.332
		c6.94,10.291,10.975,22.566,10.982,35.961C472.952,227.4,471.157,235.813,467.904,243.511z"/>
</g>
</svg>