<?xml version="1.0" encoding="utf-8"?>

<!DOCTYPE svg PUBLIC "-//W3C//DTD SVG 1.1//EN" "http://www.w3.org/Graphics/SVG/1.1/DTD/svg11.dtd">
<!-- Uploaded to: SVG Repo, www.svgrepo.com, Generator: SVG Repo Mixer Tools -->
<svg version="1.1" id="_x32_" xmlns="http://www.w3.org/2000/svg" xmlns:xlink="http://www.w3.org/1999/xlink" 
	 width="800px" height="800px" viewBox="0 0 512 512"  xml:space="preserve">
<style type="text/css">
<![CDATA[
	:root { color-scheme: dark light; }
]]>
</style>
<g>
	<path fill="currentColor" d="M490.462,316.323c-0.5-0.5-1.328-1.203-2.469-2.141c4.297-17.672,6.563-36.141,6.563-55.109
		c0-128.75-104.375-233.141-233.125-233.141c-123.625,0-224.797,96.266-232.609,217.938c-0.141,1.969-0.234,3.938-0.297,5.891
		c-1.813,3.781-3.672,7.719-4.313,7.938c-28.875,10.594-36.516,38.172,2.734,38.172h4.25H261.43
		c21.672,0,46.031,38.563,84.516,57.266c30.672,14.891,63.703,22.5,113.86,22.5c22.469,0,41.906-2.047,51.109-15.344
		C515.915,353.057,502.728,328.588,490.462,316.323z"/>
	<path fill="currentColor" d="M273.258,379.588c-11.578,23.734-28.938,53.704-51.656,79.235c-6.016,6.766-5.406,17.109,1.344,23.109
		c6.766,6,17.109,5.406,23.109-1.359c25.984-29.266,44.734-62.156,57.203-87.844c5.844-12.063,10.266-22.531,13.359-30.313
		c-9.969-6.578-19.969-14.25-27.313-20.172C286.852,348.948,281.524,362.667,273.258,379.588z"/>
</g>
</svg>