<?xml version="1.0" encoding="utf-8"?>

<!DOCTYPE svg PUBLIC "-//W3C//DTD SVG 1.1//EN" "http://www.w3.org/Graphics/SVG/1.1/DTD/svg11.dtd">
<!-- Uploaded to: SVG Repo, www.svgrepo.com, Generator: SVG Repo Mixer Tools -->
<svg version="1.1" id="_x32_" xmlns="http://www.w3.org/2000/svg" xmlns:xlink="http://www.w3.org/1999/xlink" 
	 width="800px" height="800px" viewBox="0 0 512 512"  xml:space="preserve">
<style type="text/css">
<![CDATA[
	:root { color-scheme: dark light; }
]]>
</style>
<g>
	<path fill="currentColor" d="M508,244.077c-30.844-38.672-82.547-134.938-107.359-180.031C371.125,10.374,282.594,2.327,256.25,56.53v-1.25
		c-0.078,0.219-0.172,0.422-0.25,0.625c-0.094-0.188-0.172-0.391-0.234-0.594v1.203c-26.359-54.219-114.891-46.172-144.406,7.5
		C86.547,109.108,34.844,205.389,4,244.045c-3.391,4.25-6.375,11.484-1.25,19.781c29.656,47.797,139.656,228.546,253.016,228.546
		c0.156,0,0.313,0.031,0.484,0.031c113.359,0,223.344-180.75,253-228.546C514.375,255.545,511.391,248.311,508,244.077z
		 M256.25,352.686v-0.031c-0.172,0-0.328,0-0.484,0c-107.891,0-156.047-89.984-165.875-96.906
		c5.359-14.641,67.094-83.469,79.938-94.609c40.797-35.422,58.906,2.313,85.938,2.313c0.031,0,0.063-0.016,0.094-0.016
		c0.125,0.016,0.25,0.031,0.391,0.031c27.016,0,45.125-37.719,85.922-2.313c12.844,11.156,74.578,79.969,79.938,94.625
		C412.281,262.686,364.125,352.686,256.25,352.686z"/>
</g>
</svg>