<?xml version="1.0" encoding="utf-8"?>

<!DOCTYPE svg PUBLIC "-//W3C//DTD SVG 1.1//EN" "http://www.w3.org/Graphics/SVG/1.1/DTD/svg11.dtd">
<!-- Uploaded to: SVG Repo, www.svgrepo.com, Generator: SVG Repo Mixer Tools -->
<svg version="1.1" id="_x32_" xmlns="http://www.w3.org/2000/svg" xmlns:xlink="http://www.w3.org/1999/xlink" 
	 width="800px" height="800px" viewBox="0 0 512 512"  xml:space="preserve">
<style type="text/css">
<![CDATA[
	:root { color-scheme: dark light; }
]]>
</style>
<g>
	<path fill="currentColor" d="M363.594,222.594c18.578-23.438,29.766-53.016,29.766-85.25C393.359,61.5,331.859,0,256,0
		S118.656,61.5,118.656,137.344c0,32.234,11.172,61.813,29.75,85.25c-34.969,30.203-57.172,74.797-57.172,124.641
		C91.234,438.234,165,512,256,512s164.766-73.766,164.766-164.766C420.766,297.391,398.563,252.797,363.594,222.594z
		 M206.688,152.063c-10.188,0-18.469-8.266-18.469-18.484c0-10.188,8.281-18.453,18.469-18.453c10.219,0,18.484,8.266,18.484,18.453
		C225.172,143.797,216.906,152.063,206.688,152.063z M295.031,201.156h-75.047v-17.328h75.047V201.156z M306.594,152.063
		c-10.188,0-18.484-8.266-18.484-18.484c0-10.188,8.297-18.453,18.484-18.453c10.203,0,18.469,8.266,18.469,18.453
		C325.063,143.797,316.797,152.063,306.594,152.063z"/>
</g>
</svg>