<?xml version="1.0" encoding="utf-8"?>

<!DOCTYPE svg PUBLIC "-//W3C//DTD SVG 1.1//EN" "http://www.w3.org/Graphics/SVG/1.1/DTD/svg11.dtd">
<!-- Uploaded to: SVG Repo, www.svgrepo.com, Generator: SVG Repo Mixer Tools -->
<svg height="800px" width="800px" version="1.1" id="_x32_" xmlns="http://www.w3.org/2000/svg" xmlns:xlink="http://www.w3.org/1999/xlink" 
	 viewBox="0 0 512 512"  xml:space="preserve">
<style type="text/css">
	:root { color-scheme: dark light; }
</style>
<g>
	<path fill="currentColor" d="M113.936,44.364c1.317,0,2.602,0.024,3.856,0.04c1.135,0.024,2.23,0.032,3.301,0.032
		c10.172,0,19.734,3.024,28.248,7.959c8.253-9.894,12.379-18.957,12.379-25.734c0-8.41-6.817-15.235-15.236-15.235
		c-4.587,0-8.705,2.04-11.498,5.261c0.048-0.484,0.08-0.96,0.08-1.452c0-8.42-6.832-15.235-15.244-15.235
		c-8.411,0-15.235,6.816-15.235,15.235c0,0.23,0.024,0.46,0.032,0.683c-2.412-2.008-5.53-3.222-8.918-3.222
		c-7.713,0-13.966,6.261-13.966,13.965c0,5.206,2.92,12.07,9.49,21.076C99.129,45.071,106.668,44.364,113.936,44.364z"/>
	<path fill="currentColor" d="M450.405,97.339c-27.868-29.495-83.469-34.78-119.414,2.316c-38.556,39.81-57.894,77.676-90.396,78.692
		c-46.332,1.444-57.894-34.025-64.496-65.512c-1.524-5.586-2.508-12.656-4.174-17.743c-6.8-20.908-27.605-41.802-50.768-41.802
		c-11.672,0-26.892-1.865-46.11,15.616c-5.262,5.625-16.474,18.314-22.306,27.272c-6.538,10.077,12.886,8.332,20.885,9.268
		c11.061,1.294,17.663,6.547,21.726,13.823c13.228,22.265,9.942,39.968,12.188,77.192c3.047,50.443,21.424,78.755,45.706,98.18
		c18.965,15.172,47.285,25.241,77.192,26.971v50.269H114.134l2.976-16.823c0.358-2.047-0.46-4.126-2.118-5.372
		c-1.667-1.254-3.888-1.468-5.753-0.548l-54.824,26.876c-1.888,0.929-3.094,2.857-3.094,4.96c0,2.103,1.206,4.031,3.094,4.96
		l54.824,26.876c1.864,0.92,4.086,0.706,5.753-0.548c1.658-1.246,2.476-3.325,2.118-5.372l-2.976-16.823h116.304v54.546
		c-35.168,4.372-63.028,32.2-67.392,67.384h154.082c-4.284-34.502-31.16-61.925-65.36-67.098V390.07h90.547l17.052,21.766h60.901
		l-20.298-30.86l20.298-30.86h-60.901l-17.052,21.767h-90.547v-50.507c43.563-3.444,86.611-25.789,105.886-76.803
		c24.042,6.277,44.284-32.653,28.534-47.198c31.866,14.704,64.536-27.17,35.231-46.705
		C461.998,157.621,470.116,118.2,450.405,97.339z M111.873,96.474c-5.277,0-9.569-4.284-9.569-9.569
		c0-5.285,4.292-9.562,9.569-9.562c5.285,0,9.57,4.277,9.57,9.562C121.443,92.189,117.158,96.474,111.873,96.474z"/>
</g>
</svg>